<?xml version="1.0" encoding="UTF-8"?>
<!DOCTYPE svg PUBLIC "-//W3C//DTD SVG 1.1//EN" "http://www.w3.org/Graphics/SVG/1.1/DTD/svg11.dtd">
<!-- Creator: CorelDRAW 2020 (64-Bit) -->
<svg xmlns="http://www.w3.org/2000/svg" xml:space="preserve" width="26.5166mm" height="38.6247mm" version="1.1" style="shape-rendering:geometricPrecision; text-rendering:geometricPrecision; image-rendering:optimizeQuality; fill-rule:evenodd; clip-rule:evenodd"
viewBox="0 0 522.6 761.23"
 xmlns:xlink="http://www.w3.org/1999/xlink"
 xmlns:xodm="http://www.corel.com/coreldraw/odm/2003">
 <defs>
  <style type="text/css">
   <![CDATA[
    .fil0 {fill:black}
    .fil2 {fill:#355989}
    .fil1 {fill:#4AAFFF}
    .fil3 {fill:#D7EEFC}
    .fil4 {fill:#D8ECE7}
    .fil5 {fill:white}
   ]]>
  </style>
 </defs>
 <g id="Слой_x0020_1">
  <metadata id="CorelCorpID_0Corel-Layer"/>
  <g id="_1903505200">
   <path class="fil0" d="M102.56 155.77c-30.05,-2.92 -79.41,-7.09 -87.74,20.93 -6.7,22.57 14.13,40.08 30.14,51.14 4.72,3.26 15.33,7.98 18.33,10.71 -7.32,3.89 -56.85,9.59 -49.31,36.09 2.73,9.61 13.39,17.42 20.87,22.25 11.27,7.27 23.55,10.03 29.52,13.57 -1.89,1.71 -5.57,3.28 -7.38,4.77 -2.24,1.85 -4.52,3.97 -5.85,6.39 -2.33,4.24 -1.74,5.62 -1.85,10.42 -0.09,4.12 -2.64,5.31 -1.62,10.32 1.83,9.01 19.5,17.2 30.04,19.78l-1.95 1.32c-5.16,2.69 -10.78,4.91 -15.33,8.44 -4.05,3.15 -8.81,11.16 -3.94,18.38 7.31,10.83 29.96,8.01 44.86,6.98 -3.3,10.71 -12.38,27.31 7.45,28.61 -4.62,1.58 -9.6,10.16 -11.29,10.5 -2.7,0.55 -6.48,-6.73 -14.24,-8.84 -19.35,-5.28 -20.46,17.99 -23.6,21.26 -1.08,1.13 -5.05,3.43 -6.78,4.7 -1.66,1.22 -5.21,3.74 -6.11,4.76 -2.65,-8.99 0.61,-19.23 -12.88,-14.41 -16.92,6.05 -35.26,37.83 -33.82,55.75 0.41,5.15 9.93,12.44 14.84,14.95 11.04,5.65 36.61,11.86 48.11,5.18 6.54,-3.8 -0.41,-16.65 -1.95,-22.38 20.83,-0.37 33.66,18.93 40.38,34.18 23.72,53.74 29.52,106.62 82.93,141.34 -2.62,9.04 -6.82,18.66 -9.18,28.06 -0.22,0.88 -0.24,1.34 -0.64,2.22 -2.13,4.76 -17.72,3.92 -29.58,14.3 -4.71,4.12 -16.24,15.5 -15.14,26.59 2.99,1.84 5.95,2.5 9.59,3 1.16,4.7 5.35,4.93 12.58,6.53 5.92,1.31 11.83,1.83 18.12,2.26 2.19,3.47 -1.21,1.42 2.54,2.93 7.41,2.98 30.88,2.66 38.18,2.14 13.49,-0.96 28.29,-3.15 40.63,-6.66 19.11,-5.44 18.7,-5.34 23.07,-24.44l4.97 -30.2c1.45,-12.99 0.14,-11.07 13.4,-14.36 4.74,39.53 -7.59,58.34 49.74,60.67 10.88,0.44 45.79,0.91 54.05,-3.92 3.17,-1.85 4.09,-1.82 8.56,-2.13 7.07,-0.49 16.58,-0.86 21.96,-5.48 3,-2.58 5.88,-2.48 9.07,-5.43 0.86,-11.92 -8.83,-21.47 -15.35,-25.77 -13.06,-8.62 -31.63,-7.83 -32.84,-8.79 -2.28,-1.81 -15.65,-45.96 -18.78,-54.65 -2.99,-8.3 0.09,-6.48 5.33,-16.17 14.63,-27.04 17.94,-45.25 17.16,-79.89 18.92,6.92 25.6,8.42 42.82,-2.47 12.76,-8.07 21.21,-15.84 30.11,-26.7 4.06,-4.95 7.61,-10.84 11,-17.03 0.83,-1.52 4.06,-8.97 4.7,-9.68 1.66,-1.83 19.64,-5.28 28.28,-14.17 2.71,-2.79 12.23,-11.44 9.63,-18.12l-13.1 -1.96c4.56,-4.39 15.09,-11.44 17.3,-13.66 -1.61,-4.01 -5.13,-6.65 -8.88,-8.52 -5.87,-2.93 -8.28,-2.15 -14.7,-3.26 1.39,-2.75 3.28,-5.96 4.98,-8.84 1.62,-2.75 4.31,-6.4 5.33,-8.86 -10.8,-8.92 -26.87,-2.06 -35.55,4.52 -4.39,3.33 -7.94,9.77 -12.38,12.06 -6.15,3.18 -16.16,0.87 -22.58,0.02 -2.9,-9.5 -12.33,-19.84 -25.24,-18.85 2.56,12.52 -2.32,13.3 -4.48,24.79 -2.12,11.32 0.02,17.33 4.43,25.63 -2.37,3.84 -5.12,6.57 -7.91,10.4 -2.01,2.77 -5.71,8.03 -7.22,11.14 -8.56,-0.96 -17.47,-4.33 -25.35,-7.28 -4.69,-1.76 -3.8,-1.15 -5.91,-5.59l-15.99 -28.8c11.13,-7.01 20.06,-5.32 47.28,-27.67 12.35,-10.14 25.34,-24.22 34.71,-40.82 8.53,-15.1 17.19,-36.47 17.74,-57.34 0.69,-26.21 -11.25,-38.09 -36.37,-39.4 -5.16,-55.41 -30.13,-106.4 -76.48,-130.64 -17.04,-8.91 -34.02,-11.87 -55.2,-13.89 -7.4,-28.81 -36.65,-70 -59.04,-87.61 -3.22,-2.53 -5.59,-4.61 -9.21,-7.31 -5.98,-4.46 -13.24,-8.88 -20.18,-12.9 -13.94,-8.09 -29.24,-15.26 -47.58,-18.57 -41.26,-7.45 -76.2,1.68 -74.4,52.2 0.92,25.9 9.94,55.48 19.72,78.71 3.28,7.8 7.76,15.53 10.43,22.57z"/>
   <path class="fil1" d="M294.24 187.32l-14.91 -7.65c-27.08,-13.37 -69.99,-20.99 -98.88,-13.5 -8.18,2.12 -27.08,17.93 -33.56,24.67 -7.7,8 -7.79,6.48 -16.34,18.91 -14.04,20.39 -22.39,43.34 -24.23,69.14 -0.49,6.98 -1.14,41.81 4.73,44.56 0.91,0.43 1.18,0.46 2.21,0.75 1.39,0.38 2.47,0.61 3.99,1.06 7.27,2.17 15.05,5.13 21.65,8.56 9.17,4.76 17.79,10.69 24.66,16.3 12.8,10.44 31.87,28.54 37.35,43.61 -7.55,1.63 -13.84,2.58 -21.01,4.86 -6.3,2.01 -13.29,5.12 -19.22,6.61 1.28,1.92 0.88,1.22 2.66,2.69 1.24,1.02 1.78,1.43 2.79,2.21l18.74 12.16c18.28,10.18 41.17,17.14 62.44,20.33 12.45,1.86 18.52,-1.7 30.83,-9.03 17.52,-10.43 31.67,-23.82 41.58,-41.11 5.24,-9.14 17.38,-33.67 16.26,-45.68 -0.63,-6.76 -1.38,-12.54 -0.75,-19.24 2.83,1.17 1.99,1.4 4.33,3.32 17.11,13.96 33.93,28.65 57.99,15.75 7.06,-3.79 11.15,-8.48 15.19,-15.73 3.97,-7.14 5.49,-16.37 3.35,-25.45 -5.59,-23.74 -51.37,8.4 -60.19,13.36 2.21,-7.24 8.17,-11.32 12.44,-15.79 1.02,-1.06 0.34,-0.24 1.06,-1.17 -1.05,-1.92 -9.8,-13.26 -14.77,-21.98 -3.89,-6.84 -8.4,-17.9 -10.78,-25.89 -13.1,-44.03 11.03,-76.09 34.75,-49.86 17.28,19.11 23.28,59.74 24.36,85.65 11.3,-0.2 16.89,2.27 19.92,11.72 5.56,17.38 -1.02,35.35 -13.64,46.72 -6.26,5.64 -3.56,-0.39 -7.25,8.57 -1.42,3.45 -3.86,8.59 -7.5,8.94l-3.64 -7.8c-1.3,0.09 -2.47,0.21 -3.76,0.48 -2.44,0.5 -1.79,0.08 -3.26,1.17 -3.44,5.16 -3.05,24.17 -1.69,30.82 3.67,17.84 2.91,11.8 -4.39,25.25 9.67,-4.87 25.5,-20.27 31.77,-27.57 8.8,-10.24 16.11,-21.5 23,-35.99 5.69,-11.96 12.11,-33.17 10.11,-48.76 -2.32,-18.05 -15.22,-24.51 -33.92,-25.92 -1.51,-17.13 -6.92,-37.64 -12.58,-52.7 -5.7,-15.17 -19.69,-41.03 -30.79,-50.46 -5.11,-4.34 -8.4,-9.25 -17.64,-15.44 -16.1,-10.78 -39.72,-21.01 -61.42,-20.54 2.17,16.25 7.05,20.45 7.96,49.07z"/>
   <path class="fil1" d="M33.43 477.51c0.11,-4.61 0.26,-5.62 2.6,-8.51 2.03,-2.5 3.35,-4.05 5.43,-6.11l-2.02 -13.73c-16.08,3.24 -31.13,30.91 -34.32,50.4 9.39,11.5 41.02,20.37 54.08,14.38l-2.98 -13.33c-1.84,-6.01 -2.13,-3.96 -18.86,-5.55 17.16,-6.89 38.1,-4.59 53.44,6.18 2.48,1.74 3.15,3.04 5.16,4.92 19.44,18.18 39.33,55.53 57.03,79.6 10.78,14.66 34.43,39.77 54.79,44.06 1.14,-2.18 2.97,-4.07 4.72,-5.79 -3.21,19.32 -24.31,52.05 -28.95,80.53 18.49,0.04 30.49,5.98 39.58,15.51 -20.27,-3.11 -24.62,-11.06 -51.94,-5.14 -8.52,1.85 -15.41,4.97 -21.13,9.04 -4.21,3 -13.08,11.17 -13.96,17.04l4.84 0.39c2.99,-13.34 18.88,-26.24 35.91,-23.54l-0.89 0.85c-4.51,3.46 -11.33,5.33 -17.87,10.42 -2.28,1.78 -12.96,12.86 -11.81,17.26 4.77,1.65 18.91,2.57 24.55,2.14 1.79,-3.12 2.34,-6.68 4.13,-9.7 5.87,-9.92 14.72,-15.92 27.76,-15.74l-1.27 1.17c-4.77,3.88 -10.15,7.36 -14.39,11.56 -4.24,4.21 -9.02,10.2 -10.33,18.12 26.08,1.42 51.71,-2.46 76.06,-9.9 12.05,-3.68 9.87,-5.06 12.39,-17.06 3.46,-16.45 6.09,-32.95 7.52,-49.94 1.54,-18.33 1.18,-37.38 2.68,-55.46 0.49,-1.53 2.52,-1.77 3.72,-2.94 18.34,-17.9 18.19,-63.01 15.41,-85.28 -2.64,-21.1 -13.86,-61.5 -26.99,-80.16 -2.99,-4.25 -12.73,-2.78 -18.26,-3.36 -5.64,-0.59 -10.85,-1.61 -16.39,-2.25l1.94 11.79c8.61,-0.11 13.83,3.02 16.64,8.57 -11.07,-2.22 -14.26,-2.95 -24.58,1.36 -18.23,7.63 -40.59,22.39 -52.26,36.19 -5.7,6.73 -6.76,11.26 -5.28,22.14 3.13,22.97 16.3,41.33 36.73,51.72l1.38 -4.37c6.23,6.17 2.61,9.54 17.6,17.03 2.37,1.19 6.07,2.08 8,3.16 -4.57,6.86 -14.09,0.09 -17.98,0.57 5.04,7.17 22.5,5.34 30.64,-0.47 12.13,-8.66 3.74,-17.1 2.37,-29.28 2.01,1 4.81,3.88 6.09,5.55 2.08,2.72 2.88,5.9 4.39,8.72 10.42,-5.48 1.61,-20.02 0.46,-27.42 1.78,0.66 3.62,1.92 4.94,3.14l4.14 4.97c0.52,-15.13 -13.09,-22.9 -22.61,-28.92 -8.18,-5.18 -24.23,-16.22 -27.06,-24.07 4.48,0.94 7.77,3.38 11.19,5.01 6.09,-4.97 17.78,-14.36 29.19,-14.53 -1.27,2.49 -3.34,3.44 -5.32,5.39 -4.9,4.83 -11.67,8.33 -16.44,13.69 3.55,3.81 11.22,7.27 15.83,9.98 10.72,6.31 22.16,14.93 22.92,28.84 0.21,3.99 -0.5,7.69 -2.21,10.71 -3.41,6.01 -2.41,0.61 -3.6,9.35 -0.51,3.77 -2.66,6.31 -4.61,8.34l-7.11 5.84c-3.95,4.56 -2.86,8.41 -12.49,13.42 -13.42,6.99 -32.78,3.75 -37.09,-8.83 1.41,-2.37 2.01,-2.42 3.09,-4.52 -6.79,-5.96 -2.05,-2.07 -12.82,-7.1 -13.89,-6.49 -23.17,-16.2 -30.75,-30.36 -4.75,-8.88 -8.15,-20.46 -8.27,-32.08 -0.14,-14.21 6.31,-18.08 13.51,-27.28 -7.47,-10.97 -2.88,-15.08 -3.29,-17.93 -1.4,-0.66 0.71,-0.87 -0.87,0.11 -3.95,2.44 -2.84,4.77 -10.36,2.37 -9.38,-3 -19.72,-10.42 -25.09,-18.1 -1.88,-2.69 -1.45,-3.45 -2.57,-5.69 -8.1,2.08 -22.14,-3.35 -28.02,-6.84 -6.66,-3.96 -2.32,-5.71 -13.22,-3.84 -13.54,2.32 -27.05,9.32 -37.14,16.8 -4.91,3.65 -10.48,7.57 -14.46,12.15 -2.28,2.62 -2.27,3.3 -5.04,4.63z"/>
   <path class="fil2" d="M115.92 164.35c-6.06,0.46 -19.89,-1.92 -27.06,-2.36 -18.62,-1.14 -68.94,-2.1 -66.63,23.98 1.7,19.22 28.36,37.94 44.7,45.78 3.62,1.74 6.73,3.16 10.39,4.7 2.58,1.08 8.31,2.94 10.31,4.49l1.01 0.95c-17.2,2.12 -72.11,12.24 -66.67,31.19 3.61,12.59 31.02,25.58 44.2,30.6 4.1,1.56 16.43,4.7 18.84,6.06 -4.74,2.69 -23.93,5.18 -27.99,16.54 18.85,-5.65 20.76,-6.56 43.58,-4.69 -4.4,-32.85 -5.15,-52.71 5.19,-83.4 9.92,-29.46 36.23,-62.99 64.42,-77.2 9.7,-4.89 28.55,-7.08 40.93,-6.83 18.67,0.38 41.52,5.95 58.36,13.09 5.22,2.21 12.05,6.29 16.66,7.74 -3.95,-37.84 -23.42,-75.3 -41.09,-99.09 -2.55,-3.43 -5.38,-6.14 -7.94,-9.3 -6.74,-8.33 -18.49,-18.62 -27.47,-25.01 -25.59,-18.19 -72.42,-41.27 -105.24,-29.83 -19.15,6.67 -23.92,22.57 -22.41,47.01 1.8,29.31 10.95,56.85 22.13,82.59 3.57,8.22 8.4,15.71 11.78,22.99z"/>
   <path class="fil0" d="M228.73 371.37c-0.88,1.19 -0.23,0.36 -1.23,1.37l-3.24 3.11c30.1,-9.08 38.64,-9.2 69.56,-10.18 6.03,-0.19 22.8,0.73 27.04,-0.19l-7.48 -2.5c5.03,-18.59 4.96,-28.2 -1.4,-46.94 -2.47,-7.27 -14.41,-32.15 -18.36,-37.74 -12.28,-17.37 -39.12,-42.54 -74.38,-37.32 -32.89,4.86 -46.41,36.68 -40.42,67.99 4.11,21.47 16.71,38.34 32.75,51.38 3.64,2.96 12.26,9.45 17.17,11.03z"/>
   <path class="fil1" d="M440.5 434.91l-1.19 4.23c-1.61,-1.42 -6.1,-10.09 -8.04,-13.01 -2.16,-3.25 -7.04,-9.7 -10.48,-10.27 -0.31,8.56 -4.72,15.21 -4.51,25.45 0.24,11.28 4.91,14.63 8.84,20.87 -3.47,1.88 -1.55,-0.96 -4.89,2.76l-7.37 8.42c-6.13,6.58 -13.06,18.37 -19.83,21.83l1.08 -7.12 -20.36 -6.83c5.84,18.41 13.78,29 16.79,54.53 15.07,3.5 21.29,14.09 49.2,-8.93 9.96,-8.22 26.44,-26.21 29.92,-39.17 -4.34,-0.11 -10.05,0.21 -13.33,-1.76 11.3,-3.11 20.44,-3.8 31.27,-8.27 8.45,-3.49 20.13,-10.84 23.51,-16.89 -8.79,-0.09 -23.7,-2.9 -26.83,-10.65 12.64,1.32 7.18,3.84 22.84,-6.87 1.6,-1.09 1.89,-1.29 3.49,-2.24l3.47 -2.73c-14.84,-4.45 -20.62,-4.25 -35.38,0.66 3.89,-6.76 9.82,-7.08 12.47,-11.63l9.71 -14.63c-23.37,-1.47 -28.56,18.36 -40.7,21.74 -6.78,1.88 -12.8,1.32 -19.68,0.52z"/>
   <path class="fil3" d="M283.93 360.79c7.63,-32.46 -21.22,-80.18 -56.92,-88.46 -34.34,-7.96 -47.26,27.31 -36.39,52.87 2.63,6.18 5.39,10.74 8.75,15.71 5.71,8.44 16,18.28 24.85,24.04 8.99,5.86 5.91,5.53 16.37,2.28 20.38,-6.33 39.13,-4.38 43.34,-6.45z"/>
   <path class="fil2" d="M99.55 363.85c-5.43,2.5 -14.94,3.13 -22.06,6.38 -6.2,2.83 -14.8,6.91 -15.38,14.29 5.93,9.79 37.55,6.4 49.95,5.7 -5.5,13.74 -23.21,39.93 13.85,22 6.72,-3.25 13.47,-6.17 20.37,-9.13 13.85,-5.94 29.11,-10.71 45.3,-13.69 -3.94,-9.31 -24.84,-28.09 -33.8,-34.92 -11.98,-9.13 -28.53,-18.7 -46.68,-23.08 -9.83,-2.37 -20.89,-3.55 -31.58,-2.95 -8.55,0.49 -22.63,3.71 -24.2,10.34 -2.47,10.38 35.11,20.84 44.24,25.07z"/>
   <path class="fil1" d="M301.62 681.9c0.39,9.31 1.35,19.06 2.11,28.35 0.78,9.59 1.79,18.12 9.15,21.19 18.18,7.57 55.85,6.58 78.88,6.14 -3.64,-19.33 -17.45,-23.37 -26.54,-29.27 15.65,-7.14 30,11.6 32.12,25.18l24.08 -1.09c-2.4,-13.97 -23.89,-22.51 -30.43,-26.48 8.55,-6.2 25.23,4.29 31.31,13.18 6.05,8.85 1.44,9.34 7.47,8.19 -0.04,-7.87 -13.92,-18.44 -20.8,-21.45 -9.64,-4.22 -31.16,-4.81 -35.34,-7.02 1.63,-0.64 3.38,-1.55 5.29,-1.95l-7.11 -22.83c-2.85,3.36 -5.12,6.86 -10.94,6.41 -16.43,-1.28 -13.61,-30.46 1.23,-29.7 -4.28,2.6 -5.1,2.18 -7.46,6.67 -10.19,19.42 16.81,26.96 13.77,11.92 -3.11,-2.05 -3.31,-1.65 -5.5,1.25 0.08,-4.46 2.66,-4.92 6.45,-3.66l-5.54 -18.79c-0.73,-2.57 -0.86,-4.43 -2.52,-6.29 -9.45,13.43 -43.08,35.84 -59.68,40.03z"/>
   <path class="fil4" d="M262.89 443.95l30.94 2.33c-5.83,3.71 -17.06,4.05 -24.76,4.8 2.94,6.43 8.97,15.14 10.89,22.12 16.64,-4.57 16.88,-5.72 36.34,-9.32 14.17,-2.62 26.9,-3.67 41.6,-2.29 -2.95,-7.54 -10.53,-16.97 -12.07,-21.29 -9.89,1.36 -17.34,6.7 -29.52,5.75 10.49,-4.94 21.51,-8.94 31.61,-13.94 10.92,-5.4 18.93,-13.08 24.99,-21.71 -2.5,-2 -16.88,-1.68 -30.3,-36.58l-5.62 -17.69c-3.9,26.43 -26.56,57.91 -48.04,73.12 -11.9,8.43 -14.8,8.56 -26.06,14.69z"/>
   <path class="fil4" d="M294.32 516.82c0.61,6.79 2.3,13.89 2.99,20.98 0.65,6.6 0.26,16.65 1.29,22.42 19.9,5.51 67.98,3.46 86.38,-3.14 -0.01,-18.65 -2.73,-30.97 -6.78,-47.55 -15.99,-2.84 -27.46,-2.39 -43.96,-0.46 -8.59,1.01 -33.81,4.41 -39.92,7.76z"/>
   <path class="fil5" d="M185.96 294.06c1.67,-2.78 2.49,-6.75 4.26,-9.56 5.51,-8.77 13.76,-14.76 25.27,-15.42 26.7,-1.54 52.65,23.62 63.08,45.82 7.54,16.05 9.29,26.91 7.28,46.51l24.62 0.86c2.75,-11.78 4.09,-18.17 1.42,-31.08 -5.24,-25.35 -22.81,-53.1 -41.44,-66.42 -44.76,-31.99 -85.57,-6.68 -84.49,29.28z"/>
   <path class="fil4" d="M298.33 563.76c-0.77,8.48 -1.08,15.75 -2.77,23.8 -1.79,8.55 -4.62,13.9 -6.55,20.59 9.26,7.16 52.84,7.09 68.64,3.45 14.46,-3.32 16.17,-3.81 20.76,-17.37 3.52,-10.4 6.04,-21.43 6.43,-33.26 -37.61,6.22 -47.12,7.75 -86.52,2.79z"/>
   <path class="fil4" d="M281.75 476.41c1.42,5.23 4.59,12.09 6.49,17.93 1.19,3.66 3.98,16.55 5.58,18.65 27.86,-5.49 52.8,-11.87 82.94,-7.34 -1.54,-7.96 -6.9,-19.93 -10.16,-27.08 -6.23,-13.69 -3.73,-14.92 -23.17,-14.33 -16.64,0.5 -48.61,6.08 -61.68,12.17z"/>
   <path class="fil5" d="M118.18 424.06c5.17,2.39 8.23,1.99 11.3,6.14 3.63,4.89 3.08,8.6 5.43,12.7 6.07,5.81 15.96,-10 29.86,1.65 9.14,7.65 5.6,19.27 7.51,22.69 0.79,1.4 4.66,4.45 5.9,4.68 2.62,0.49 8.6,-2.22 17.66,1.25 5.85,2.24 3.23,2 13.46,-3.45 12.48,-6.64 1.45,-2.41 13.99,-16.22 2.32,-2.56 4.09,-2.52 3.69,-7.39 -29.22,-5.12 -58.73,-22.34 -74.9,-36.95 -2.55,0.69 -32.2,13.74 -33.89,14.9z"/>
   <path class="fil4" d="M329.05 618.26c-7.65,0 -15.27,-0.68 -22.65,-1.91 -3.54,-0.59 -6.85,-1.19 -10.11,-2.02 -3.29,-0.84 -6.7,-2.31 -9.73,-2.76 -3.57,8.94 -9.88,8.5 -8.65,14.54 4.39,21.66 0.29,20.85 9.07,23.39 15.77,4.56 38.48,4.91 52.52,-1.44 7.41,-3.36 27.73,-27.49 31.13,-36.84 -12.5,5.04 -26.25,7.05 -41.57,7.05z"/>
   <path class="fil3" d="M373.45 299.04c3.35,-0.98 7.29,-3.56 11.11,-5 2.13,-0.8 3.8,-1.1 6.01,-1.87 3.32,-1.15 2.66,-1.46 2.89,-5.79 1.8,-33.98 -21.32,-78.42 -40.33,-71.24 -5.04,1.9 -5.04,4.82 -5.38,11.17 -1.2,22.87 5.97,45.02 18.77,63.23 2.42,3.44 5.3,6.57 6.93,9.5z"/>
   <path class="fil0" d="M220.8 297.48c-23.12,-2.49 0.03,31.99 3.86,36.83 24.38,30.83 51.22,37.12 39.47,7.98 -2.45,-6.09 -7.96,-14.82 -11.31,-18.94 -3.86,-4.75 -6.96,3.26 -19.38,-8.6 -5.33,-5.09 -9.17,-9.02 -12.64,-17.28z"/>
   <path class="fil4" d="M176.41 656.14c0.53,-7.71 1.16,-12.17 3.16,-19.17 1.59,-5.57 5.05,-11.33 6.26,-15.73 -13.75,-9.24 -15.1,-13.74 -21.44,-18.33 -4.75,2.95 -10.26,16.7 -11.52,21.78 -1.23,4.94 -0.79,5.01 1.77,8.3 6.41,8.23 13.84,17.27 21.78,23.16z"/>
   <path class="fil4" d="M149.29 624.53c7.05,-15.43 -1.04,-4.12 12.34,-24.3l-10.86 -13.69c-3.44,-4.42 -6.89,-9.54 -10.02,-14.22 -2.74,1.67 -7.18,7 -9.22,10.89 -2.87,5.5 0.39,9.3 2.84,14.7 2.65,5.84 11.55,24.27 14.92,26.62z"/>
   <path class="fil0" d="M375.07 295.36c5.03,-4.65 2.99,-29.22 -1.08,-34.89 -2.68,-3.74 -4.65,-3.71 -8,-12.83 -3.37,-9.16 -2.21,-15.4 -6.3,-13.76 -6.51,2.62 -1.18,28.73 0.41,34.71 2.25,8.49 7.41,26.39 14.98,26.77z"/>
   <path class="fil4" d="M281.52 676.6c12.67,-2.22 27.67,-8.94 38.97,-15.18l11.08 -7.23c-23.57,2.56 -27.6,2.84 -49.92,-2.78l-0.13 25.2z"/>
   <path class="fil4" d="M188.36 664.52c2.09,-7.2 8.48,-17.76 12.17,-24.54 1.72,-3.15 3.76,-5.36 4.82,-8.12 -1.33,-0.88 -15.63,-7.8 -16.52,-8.02 -4.37,6.07 -10.35,26.43 -8.77,33.89 0.62,2.96 5.72,5.89 8.3,6.78z"/>
   <path class="fil5" d="M350.18 213.85c22.54,-9.76 39.42,29.96 43.41,48.64 0.98,4.59 1.65,9.11 2,13.93 0.22,3.1 -0.6,12.65 0.33,14.28l3.97 -0.79c-0.43,-20.54 -9.73,-55.98 -20.21,-72.5 -8.02,-12.64 -22.84,-23.67 -29.5,-3.55z"/>
   <path class="fil2" d="M138.49 454.98c2.06,5.38 16.27,16.46 25,17.78 2.91,-8.23 2.44,-19.04 -3.82,-23.85 -7.7,-5.93 -18.08,1.38 -21.19,6.08z"/>
   <path class="fil2" d="M348.17 368.18c5.49,0.55 10.46,2.65 14.54,4.97 3.12,1.77 9.43,6.81 10.56,8.84 0.37,-3.8 0.03,-7.8 0.42,-11.85 0.35,-3.66 1.52,-7.72 1.25,-11.23l-7.78 -1.49 -4.09 8.38c-4.64,-0.64 -8.28,-6.16 -9.92,-11.15 -1.28,-3.9 -0.57,-6.79 -10.16,-11.63 0.62,10.06 3.13,16.55 5.17,25.16z"/>
   <path class="fil4" d="M115.34 548.11c0.7,4.78 4.34,12.64 6.06,17.45 1.78,4.97 5,12.24 6.2,16.96 1.98,-2.11 5.21,-7.82 7.59,-10.07 1.6,-1.51 1.63,-0.99 3.16,-3.14 -0.69,-2 -15.39,-25.02 -16.97,-26.36 -2.37,1.74 -3.48,3.91 -6.04,5.16z"/>
   <path class="fil5" d="M376.9 403.61c3.12,-13.25 -14.84,-27.96 -26.39,-30.08 1.44,5.18 6.6,14.79 9.4,18.94 2.99,4.44 8.9,12.91 16.99,11.14z"/>
   <path class="fil2" d="M103.43 439.69c2.99,4.82 17,9.6 24.85,9.38 0.97,-8.32 -2.03,-16.34 -8.17,-18.11 -8.69,-2.5 -13.85,3.38 -16.68,8.73z"/>
   <path class="fil0" d="M162.71 231.6c1.73,-7.01 7.21,-17.82 11.42,-21.42 6.42,-5.51 12,-7.8 20.85,-12.27 -19.06,-4.74 -37.32,14.14 -32.27,33.69z"/>
   <path class="fil0" d="M215.91 672.77c-1.34,-8 -12.98,-6.73 -13.95,0.23 -1.92,13.8 23.38,18.68 28.54,0.54 1.93,-6.77 -2.53,-15.91 -8.08,-15.99 6.47,0.63 10.2,21.01 -4.45,24.33 -12.36,2.8 -17.79,-12.02 -8.96,-12.57 3.77,-0.24 5.48,1.84 6.89,3.46z"/>
   <path class="fil0" d="M312.98 161.82c32.15,-2.89 28.06,3.91 42.05,10.77 -2.27,-6.41 -9.72,-12.37 -16.79,-15.14 -7.09,-2.77 -19.68,-0.51 -24.01,3.08 -1.1,0.91 -0.42,0.26 -1.25,1.28z"/>
   <path class="fil4" d="M100.05 515.04c-0.2,0.6 -0.33,0.32 -0.1,1.57l13.79 27.9c0.06,0.09 0.2,0.29 0.32,0.42 1.63,-1.52 4.32,-3.29 5.43,-5.09 -4.07,-7.67 -11.02,-15.72 -16.41,-22.85 -1.79,-2.37 -0.42,-2.28 -3.03,-1.94z"/>
   <path class="fil2" d="M67.68 444.23c5.02,-1.51 8.49,-3.64 15.14,-5.37 0.85,-0.22 2.1,-0.48 2.85,-0.72l2.51 -1.13c-8.64,-8.8 -17.96,-3.28 -20.49,7.22z"/>
   <path class="fil2" d="M175.79 480.72c0.4,3.4 1.81,6.15 3.12,8.58l13.23 -9.7c-5.52,-2.86 -11.47,-0.86 -16.35,1.12z"/>
  </g>
 </g>
</svg>
