<?xml version="1.0" encoding="UTF-8"?>
<!DOCTYPE svg PUBLIC "-//W3C//DTD SVG 1.1//EN" "http://www.w3.org/Graphics/SVG/1.1/DTD/svg11.dtd">
<!-- Creator: CorelDRAW 2019 (64-Bit) -->
<svg xmlns="http://www.w3.org/2000/svg" xml:space="preserve" width="115.761mm" height="116.183mm" version="1.1" style="shape-rendering:geometricPrecision; text-rendering:geometricPrecision; image-rendering:optimizeQuality; fill-rule:evenodd; clip-rule:evenodd"
viewBox="0 0 1158.52 1162.75"
 xmlns:xlink="http://www.w3.org/1999/xlink"
 xmlns:xodm="http://www.corel.com/coreldraw/odm/2003">
 <defs>
  <style type="text/css">
   <![CDATA[
    .fil29 {fill:#1F2F6E;fill-rule:nonzero}
    .fil39 {fill:#283947;fill-rule:nonzero}
    .fil24 {fill:#2A2A54;fill-rule:nonzero}
    .fil38 {fill:#3B4850;fill-rule:nonzero}
    .fil19 {fill:#5E31C1;fill-rule:nonzero}
    .fil9 {fill:#6233C3;fill-rule:nonzero}
    .fil10 {fill:#6233C4;fill-rule:nonzero}
    .fil11 {fill:#6433C6;fill-rule:nonzero}
    .fil12 {fill:#6633C8;fill-rule:nonzero}
    .fil13 {fill:#6733C8;fill-rule:nonzero}
    .fil14 {fill:#6734CA;fill-rule:nonzero}
    .fil15 {fill:#6934CC;fill-rule:nonzero}
    .fil16 {fill:#6934CD;fill-rule:nonzero}
    .fil17 {fill:#6B34CD;fill-rule:nonzero}
    .fil4 {fill:#7075DD;fill-rule:nonzero}
    .fil41 {fill:#71A66E;fill-rule:nonzero}
    .fil48 {fill:#754482;fill-rule:nonzero}
    .fil1 {fill:#77AAE8;fill-rule:nonzero}
    .fil27 {fill:#7EA1F4;fill-rule:nonzero}
    .fil26 {fill:#802D64;fill-rule:nonzero}
    .fil2 {fill:#99C8EF;fill-rule:nonzero}
    .fil18 {fill:#AFAFB1;fill-rule:nonzero}
    .fil31 {fill:#B6BE9D;fill-rule:nonzero}
    .fil42 {fill:#B7D8B6;fill-rule:nonzero}
    .fil6 {fill:#CD6E95;fill-rule:nonzero}
    .fil5 {fill:#CFD3E8;fill-rule:nonzero}
    .fil73 {fill:#D53535;fill-rule:nonzero}
    .fil0 {fill:#D7EEFC;fill-rule:nonzero}
    .fil68 {fill:#DD3F26;fill-rule:nonzero}
    .fil33 {fill:#E3E2D4;fill-rule:nonzero}
    .fil36 {fill:#E4744B;fill-rule:nonzero}
    .fil20 {fill:#E4E4FD;fill-rule:nonzero}
    .fil70 {fill:#E64646;fill-rule:nonzero}
    .fil7 {fill:#E9BC70;fill-rule:nonzero}
    .fil8 {fill:#E9C689;fill-rule:nonzero}
    .fil35 {fill:#EC8764;fill-rule:nonzero}
    .fil32 {fill:#EDECE3;fill-rule:nonzero}
    .fil30 {fill:#F4F3EE;fill-rule:nonzero}
    .fil47 {fill:#F69F7D;fill-rule:nonzero}
    .fil75 {fill:#FAA146;fill-rule:nonzero}
    .fil34 {fill:#FCBA99;fill-rule:nonzero}
    .fil63 {fill:#FFFFF7;fill-rule:nonzero}
    .fil25 {fill:#FFFFFB;fill-rule:nonzero}
    .fil3 {fill:white;fill-rule:nonzero}
    .fil23 {fill:#483685;fill-rule:nonzero;fill-opacity:0.121569}
    .fil22 {fill:#483685;fill-rule:nonzero;fill-opacity:0.290196}
    .fil21 {fill:#2A2A54;fill-rule:nonzero;fill-opacity:0.470588}
    .fil65 {fill:url(#id1)}
    .fil76 {fill:url(#id2)}
    .fil43 {fill:url(#id3)}
    .fil57 {fill:url(#id4)}
    .fil64 {fill:url(#id5)}
    .fil77 {fill:url(#id6)}
    .fil37 {fill:url(#id7)}
    .fil61 {fill:url(#id8)}
    .fil81 {fill:url(#id9)}
    .fil40 {fill:url(#id10)}
    .fil49 {fill:url(#id11)}
    .fil55 {fill:url(#id12)}
    .fil79 {fill:url(#id13)}
    .fil74 {fill:url(#id14)}
    .fil78 {fill:url(#id15)}
    .fil45 {fill:url(#id16)}
    .fil60 {fill:url(#id17)}
    .fil72 {fill:url(#id18)}
    .fil46 {fill:url(#id19)}
    .fil80 {fill:url(#id20)}
    .fil62 {fill:url(#id21)}
    .fil69 {fill:url(#id22)}
    .fil54 {fill:url(#id23)}
    .fil59 {fill:url(#id24)}
    .fil51 {fill:url(#id25)}
    .fil56 {fill:url(#id26)}
    .fil67 {fill:url(#id27)}
    .fil53 {fill:url(#id28)}
    .fil58 {fill:url(#id29)}
    .fil52 {fill:url(#id30)}
    .fil44 {fill:url(#id31)}
    .fil71 {fill:url(#id32)}
    .fil66 {fill:url(#id33)}
    .fil50 {fill:url(#id34)}
    .fil28 {fill:url(#id35);fill-rule:nonzero}
   ]]>
  </style>
   <clipPath id="id0">
    <path d="M524.2 532.92l-0.49 -0.03 -0.04 0 -0.3 0 -0.12 0 -0.04 0 -0.14 0 -0.18 -0.03 -0.12 0 -0.26 -0.03 -0.1 0 -0.04 0 -0.04 -0.03 -0.14 0 -0.1 0 -0.08 -0.03 -0.06 0 -0.2 -0.03 -0.02 0 -0.12 0 -0.04 -0.03 -0.18 -0.03 -0.35 -0.05 -0.39 -0.05c-0.45,-0.08 -1.02,-0.3 -1.69,-0.61 -0.02,-5.61 -0.59,-12.84 -14.68,-19.72 -11.98,-5.86 -18.26,-21.27 -18.26,-38.1 0,-2.94 0.2,-5.91 0.59,-8.91 1.32,-10.26 8.76,-16.04 16.1,-16.04 5.35,0 10.63,3.1 13.42,9.82 9.54,23.12 19.23,18.81 26.96,25.61 5.31,4.67 7.66,9.14 7.66,14.62 0,5.46 -2.38,11.9 -6.59,20.48 -1.08,2.21 -1.59,4.47 -1.71,6.65l-0.31 0.25 -0.02 0.03 -0.28 0.23 -0.06 0.03 -0.31 0.23 -0.06 0.05 -0.28 0.2 -0.02 0c-0.3,0.23 -0.61,0.43 -0.93,0.63l-0.39 0.25 -0.04 0.03 -0.18 0.1 -0.16 0.1 -0.16 0.1 -0.08 0.05 -0.35 0.18 -0.2 0.13 -0.14 0.08 -0.1 0.05 -0.43 0.23 -0.1 0.05 -0.2 0.1 -0.08 0.05c-0.26,0.13 -0.53,0.25 -0.79,0.38l-0.02 0.03 -0.24 0.1 -0.1 0.05 -0.49 0.2 -0.02 0.03 -0.2 0.08 -0.16 0.08 -0.69 0.28 -0.18 0.08 -0.2 0.08 -0.06 0.03c-3.33,1.24 -6.85,1.95 -10.16,1.95l0 0zm-3.58 -0.3l0 0z"/>
   </clipPath>
  <linearGradient id="id1" gradientUnits="userSpaceOnUse" x1="614" y1="393.46" x2="663.24" y2="393.46">
   <stop offset="0" style="stop-opacity:1; stop-color:#FDB7BB"/>
   <stop offset="0.160784" style="stop-opacity:1; stop-color:#FECACC"/>
   <stop offset="1" style="stop-opacity:1; stop-color:#FFDDDE"/>
  </linearGradient>
  <linearGradient id="id2" gradientUnits="userSpaceOnUse" xlink:href="#id1" x1="829.4" y1="606.88" x2="828.2" y2="487">
  </linearGradient>
  <linearGradient id="id3" gradientUnits="userSpaceOnUse" xlink:href="#id1" x1="637.32" y1="256.27" x2="601.7" y2="256.27">
  </linearGradient>
  <linearGradient id="id4" gradientUnits="userSpaceOnUse" xlink:href="#id1" x1="218.2" y1="304.7" x2="253.81" y2="304.7">
  </linearGradient>
  <linearGradient id="id5" gradientUnits="userSpaceOnUse" xlink:href="#id1" x1="476.79" y1="325.95" x2="514.53" y2="325.95">
  </linearGradient>
  <linearGradient id="id6" gradientUnits="userSpaceOnUse" xlink:href="#id1" x1="839.25" y1="603.8" x2="838.16" y2="490.45">
  </linearGradient>
  <linearGradient id="id7" gradientUnits="userSpaceOnUse" xlink:href="#id1" x1="571.53" y1="608.1" x2="532.06" y2="610">
  </linearGradient>
  <linearGradient id="id8" gradientUnits="userSpaceOnUse" xlink:href="#id1" x1="194.99" y1="367.07" x2="332.17" y2="381.01">
  </linearGradient>
  <linearGradient id="id9" gradientUnits="userSpaceOnUse" xlink:href="#id1" x1="827.05" y1="532.41" x2="797.01" y2="545.79">
  </linearGradient>
  <linearGradient id="id10" gradientUnits="userSpaceOnUse" xlink:href="#id1" x1="601.34" y1="689.41" x2="561.43" y2="689.41">
  </linearGradient>
  <linearGradient id="id11" gradientUnits="userSpaceOnUse" x1="391.06" y1="818.49" x2="227.23" y2="512.7">
   <stop offset="0" style="stop-opacity:1; stop-color:#FFDDDE"/>
   <stop offset="0.839216" style="stop-opacity:1; stop-color:#FECACD"/>
   <stop offset="1" style="stop-opacity:1; stop-color:#FDB7BB"/>
  </linearGradient>
  <linearGradient id="id12" gradientUnits="userSpaceOnUse" xlink:href="#id11" x1="455.42" y1="545.54" x2="303.11" y2="536.13">
  </linearGradient>
  <linearGradient id="id13" gradientUnits="userSpaceOnUse" xlink:href="#id1" x1="841.4" y1="598.37" x2="840.31" y2="489.19">
  </linearGradient>
  <linearGradient id="id14" gradientUnits="userSpaceOnUse" xlink:href="#id1" x1="736.16" y1="425.05" x2="813.28" y2="596.47">
  </linearGradient>
  <linearGradient id="id15" gradientUnits="userSpaceOnUse" xlink:href="#id1" x1="819.57" y1="604.42" x2="818.47" y2="488.74">
  </linearGradient>
  <linearGradient id="id16" gradientUnits="userSpaceOnUse" xlink:href="#id1" x1="651.21" y1="276.3" x2="573.2" y2="201.62">
  </linearGradient>
  <linearGradient id="id17" gradientUnits="userSpaceOnUse" xlink:href="#id1" x1="197.44" y1="314.17" x2="269.28" y2="245.4">
  </linearGradient>
  <linearGradient id="id18" gradientUnits="userSpaceOnUse" xlink:href="#id1" x1="738.03" y1="895.03" x2="832.9" y2="1008.14">
  </linearGradient>
  <linearGradient id="id19" gradientUnits="userSpaceOnUse" xlink:href="#id1" x1="658.08" y1="265.74" x2="586.24" y2="196.97">
  </linearGradient>
  <linearGradient id="id20" gradientUnits="userSpaceOnUse" xlink:href="#id1" x1="790.59" y1="718.52" x2="847.17" y2="580.72">
  </linearGradient>
  <linearGradient id="id21" gradientUnits="userSpaceOnUse" xlink:href="#id1" x1="218.2" y1="329.03" x2="242.64" y2="329.03">
  </linearGradient>
  <linearGradient id="id22" gradientUnits="userSpaceOnUse" xlink:href="#id11" x1="889.46" y1="922.31" x2="875.9" y2="827.37">
  </linearGradient>
  <linearGradient id="id23" gradientUnits="userSpaceOnUse" xlink:href="#id1" x1="350.28" y1="813.24" x2="258.57" y2="609.68">
  </linearGradient>
  <linearGradient id="id24" gradientUnits="userSpaceOnUse" xlink:href="#id1" x1="205.13" y1="323.94" x2="280.12" y2="252.15">
  </linearGradient>
  <linearGradient id="id25" gradientUnits="userSpaceOnUse" xlink:href="#id11" x1="299" y1="816.87" x2="178.63" y2="597.4">
  </linearGradient>
  <linearGradient id="id26" gradientUnits="userSpaceOnUse" xlink:href="#id1" x1="278.39" y1="361.25" x2="407.9" y2="434.1">
  </linearGradient>
  <linearGradient id="id27" gradientUnits="userSpaceOnUse" xlink:href="#id11" x1="678.87" y1="698.86" x2="831.18" y2="689.46">
  </linearGradient>
  <linearGradient id="id28" gradientUnits="userSpaceOnUse" xlink:href="#id1" x1="365.3" y1="829.54" x2="238.72" y2="547.14">
  </linearGradient>
  <linearGradient id="id29" gradientUnits="userSpaceOnUse" xlink:href="#id1" x1="247.83" y1="312.48" x2="278.53" y2="314.75">
  </linearGradient>
  <linearGradient id="id30" gradientUnits="userSpaceOnUse" xlink:href="#id1" x1="365.32" y1="829.54" x2="238.09" y2="547.14">
  </linearGradient>
  <linearGradient id="id31" gradientUnits="userSpaceOnUse" xlink:href="#id1" x1="607.68" y1="264.05" x2="576.99" y2="266.31">
  </linearGradient>
  <linearGradient id="id32" gradientUnits="userSpaceOnUse" xlink:href="#id1" x1="855.17" y1="796.79" x2="950.03" y2="909.9">
  </linearGradient>
  <linearGradient id="id33" gradientUnits="userSpaceOnUse" xlink:href="#id11" x1="891.29" y1="922.15" x2="878.05" y2="827.21">
  </linearGradient>
  <linearGradient id="id34" gradientUnits="userSpaceOnUse" xlink:href="#id11" x1="457.12" y1="517.93" x2="304.82" y2="508.53">
  </linearGradient>
  <linearGradient id="id35" gradientUnits="userSpaceOnUse" x1="753" y1="170.73" x2="790.34" y2="170.73">
   <stop offset="0" style="stop-opacity:1; stop-color:#AEF6BF"/>
   <stop offset="0" style="stop-opacity:1; stop-color:#AEF6BF"/>
   <stop offset="1" style="stop-opacity:1; stop-color:#8ED3BA"/>
  </linearGradient>
 </defs>
 <g id="Слой_x0020_1">
  <metadata id="CorelCorpID_0Corel-Layer"/>
  <path class="fil0" d="M849.6 0.34c-75.24,0 -187.7,-7.63 -233.58,49.96 -45.88,57.6 -23.24,66.99 -106.13,66.99 -82.88,0 -141.73,-40.16 -228.01,-40.16 -262.09,0 -323.92,319.78 -105.98,445.67 100.73,58.18 170.57,49.23 201.42,128.33 38.77,99.41 84.18,158.41 185.13,196.12 55.29,20.65 120.29,14.76 144.66,69.44 83.96,188.36 170.78,140.36 310.45,224.21 74.24,44.57 126.84,16.37 133.16,-43.21 11.62,-109.46 8.26,-562.83 2.62,-657.02 -10.03,-167.39 -32.7,-312.11 -82.2,-356.03 -60.38,-53.58 -146.31,-84.3 -221.55,-84.3z"/>
  <polygon class="fil1" points="893.02,294.59 893.02,357.01 944.63,357.01 944.63,308.6 929.83,293.79 "/>
  <polygon class="fil2" points="929.83,293.79 929.83,309.57 944.63,308.6 "/>
  <path class="fil3" d="M899.81 321.08c12.64,-0.31 25.28,-0.49 37.93,-0.5 0.84,-0 0.84,-1.31 0,-1.31 -12.65,0.01 -25.29,0.19 -37.93,0.5 -0.84,0.02 -0.84,1.32 0,1.3z"/>
  <path class="fil3" d="M899.81 329.96c12.64,-0.31 25.28,-0.49 37.93,-0.5 0.84,0 0.84,-1.3 0,-1.3 -12.65,0.01 -25.29,0.19 -37.93,0.5 -0.84,0.02 -0.84,1.33 0,1.31z"/>
  <path class="fil3" d="M899.81 338.83c12.64,-0.31 25.28,-0.49 37.93,-0.5 0.84,0 0.84,-1.31 0,-1.3 -12.65,0.01 -25.29,0.19 -37.93,0.5 -0.84,0.02 -0.84,1.33 0,1.3z"/>
  <path class="fil3" d="M390.59 217.49l-49.43 -18.49 20.83 24.52c3.01,-0.87 6.39,0.02 8.55,2.57 2.94,3.46 2.52,8.65 -0.94,11.59 -3.46,2.94 -8.65,2.52 -11.59,-0.94 -2.61,-3.07 -2.57,-7.5 -0.11,-10.52l-20.35 -23.95 10.59 55.03c0,0 16,-9.07 30.79,9.11l18.23 -15.5c0,0 -15.03,-18.2 -6.58,-33.41z"/>
  <polygon class="fil4" points="315.1,221.83 314.42,221.04 366.56,176.72 367.24,177.52 "/>
  <polygon class="fil4" points="366.74,181.81 362.34,176.63 367.52,172.22 371.93,177.41 "/>
  <polygon class="fil4" points="343,166.45 338.6,161.26 343.78,156.86 348.19,162.04 "/>
  <polygon class="fil4" points="313.13,227.37 308.73,222.19 313.91,217.78 318.31,222.97 "/>
  <polygon class="fil4" points="303.47,201.39 299.07,196.21 304.25,191.8 308.66,196.99 "/>
  <path class="fil4" d="M322.21 207.67c-1,0 -1.99,-0.08 -2.98,-0.23 -10.17,-1.55 -15.91,-10.46 -16.14,-10.84l0.88 -0.56c0.06,0.09 5.74,8.9 15.43,10.37 6.56,1 13.45,-1.53 20.49,-7.51 6.91,-5.87 10.53,-12.29 10.75,-19.08 0.34,-10.44 -7.59,-18.24 -7.67,-18.31l0.72 -0.75c0.34,0.33 8.34,8.2 7.99,19.1 -0.23,7.09 -3.97,13.77 -11.11,19.84 -6.23,5.3 -12.39,7.97 -18.35,7.97z"/>
  <path class="fil5" d="M360.33 206.09l1 16.65 0.56 0.66c1.47,-0.43 3.04,-0.43 4.5,-0.03l-1.07 -15.42 -5 -1.87zm2 33.21l0.98 16.27c1.75,0.44 3.58,1.11 5.46,2.11l-1.31 -18.86c-1.63,0.71 -3.44,0.86 -5.13,0.47z"/>
  <path class="fil5" d="M369.53 209.61l0.95 16.39c0.59,0.7 1.04,1.47 1.36,2.28l-1.01 -18.26 -1.12 -0.42 -0.18 0.01zm1.52 26.21l1.41 24.23c0.39,0.29 0.79,0.61 1.18,0.93l-1.52 -27.54c-0.23,0.84 -0.58,1.64 -1.07,2.38z"/>
  <path class="fil6" d="M70.71 650.07c-0.77,-2.3 -3.17,-2.95 -5.25,-1.47 -3.15,2.24 -5.94,4.23 -9.91,2.65 -4.83,-1.91 -7.48,-7.67 -5.41,-12.43 2.56,-5.87 8.5,-5.9 13.59,-3.52 2.18,1.02 4.6,-0.46 4.87,-2.69l-1.52 -12.6 -1.01 -8.37 -0.04 -0.29 -6.78 0.82 -50.26 6.07 0 -0.01 -2.57 0.31 0.04 0.3 0.93 7.73 1.63 13.47c-0.02,0.08 -0.04,0.16 -0.07,0.23l1.99 16.44c0.04,0.07 0.08,0.13 0.12,0.2l2.57 21.24 0.29 -0.04 0.03 0.16 7.73 -0.93 13.46 -1.63c2.05,0.45 3.35,2.74 2.37,4.82 -2.38,5.1 -2.34,11.04 3.53,13.6 4.76,2.07 10.65,-0.34 12.56,-5.17 1.57,-3.97 -0.48,-7.05 -2.79,-10.15 -1.33,-1.79 -0.61,-4.21 1.21,-5.13l21.24 -2.57 -1.06 -8.73 -0.01 0 -1.49 -12.32z"/>
  <polygon class="fil7" points="538.95,159.71 714.16,159.71 714.16,74.48 538.95,74.48 "/>
  <path class="fil3" d="M697.01 139.85l-39.03 0c0,0 2.7,-17 19.51,-16.23 16.81,0.77 19.51,16.23 19.51,16.23z"/>
  <path class="fil3" d="M665.13 108.46c0,6.56 5.32,11.88 11.88,11.88 6.56,0 11.88,-5.32 11.88,-11.88 0,-6.56 -5.32,-11.88 -11.88,-11.88 -6.56,0 -11.88,5.32 -11.88,11.88z"/>
  <path class="fil3" d="M645.78 106.17c-30.67,-0.29 -61.34,-0.58 -92.02,-0.87 -1.68,-0.02 -1.68,-2.62 0,-2.61 30.67,0.29 61.34,0.58 92.02,0.87 1.68,0.02 1.68,2.63 0,2.61z"/>
  <path class="fil3" d="M645.78 120.09c-30.67,-0.29 -61.34,-0.58 -92.02,-0.87 -1.68,-0.02 -1.68,-2.62 0,-2.61 30.67,0.29 61.34,0.58 92.02,0.87 1.68,0.02 1.68,2.62 0,2.61z"/>
  <path class="fil3" d="M645.78 134.7c-18.29,-0.17 -36.57,-0.35 -54.86,-0.52 -1.68,-0.02 -1.68,-2.63 0,-2.61 18.28,0.17 36.57,0.35 54.86,0.52 1.68,0.02 1.68,2.62 0,2.61z"/>
  <polygon class="fil7" points="571.16,159.71 556.34,177.17 556.34,159.71 "/>
  <path class="fil8" d="M1117.27 597.34c-5.01,-3.98 -10.28,-1.23 -13.66,3.27 -1.63,2.16 -4.99,1.69 -5.97,-0.83l-7.18 -18.63 -19.88 7.66c-1.54,1.33 -1.64,3.86 0.09,5.27 3,2.44 5.74,4.93 5.19,9.16 -0.67,5.15 -5.79,8.94 -10.91,8.09 -6.31,-1.04 -7.81,-6.79 -6.75,-12.32 0.43,-2.25 -1.38,-4.16 -3.48,-4.09l-12.66 4.88 -7.27 2.8 -0.06 -0.15 -0.28 0.11 -0.13 -0.34 -0.09 0.03 0.72 1.88 7.15 18.57 5.93 15.4 7.46 19.36 0.32 0.83 0.28 -0.11 3.74 -1.44 4.13 -1.59 11.84 -4.56 16.41 -6.32 11.02 -4.25 8.62 -3.32 -7.27 -18.87c-0.95,-2.47 1.12,-5.04 3.74,-4.64 3.82,0.58 7.5,0.95 10.27,-2.3 3.37,-3.95 2.74,-10.29 -1.33,-13.52z"/>
  <polygon class="fil9" points="518.11,287.47 517.98,287.18 518.18,287.38 "/>
  <polygon class="fil10" points="517.57,288.31 516.24,285.44 517.98,287.18 518.11,287.47 "/>
  <polygon class="fil11" points="517.02,289.15 514.78,284.3 514.93,284.12 516.24,285.44 517.57,288.31 "/>
  <polygon class="fil11" points="516.48,289.99 514.17,285 514.78,284.3 517.02,289.15 "/>
  <polygon class="fil12" points="515.93,290.83 513.57,285.7 514.17,285 516.48,289.99 "/>
  <polygon class="fil13" points="515.39,291.67 512.96,286.4 513.57,285.7 515.93,290.83 "/>
  <polygon class="fil14" points="514.51,291.78 512.35,287.1 512.96,286.4 515.39,291.67 515.09,292.13 "/>
  <polygon class="fil14" points="513.23,291.02 511.74,287.8 512.35,287.1 514.51,291.78 "/>
  <polygon class="fil15" points="511.95,290.26 511.13,288.5 511.74,287.8 513.23,291.02 "/>
  <polygon class="fil16" points="510.66,289.5 510.52,289.2 511.13,288.5 511.95,290.26 "/>
  <polygon class="fil17" points="510.52,289.2 510.66,289.5 510.4,289.35 "/>
  <path class="fil18" d="M500.94 263.42c0,0 -8.27,-3.98 -17.76,-18.65 -9.5,-14.68 -11.26,-30.07 -13.1,-31.97 -1.07,-1.11 -7.36,-4.86 -26.2,19.33 -18.84,24.19 -15.41,31.65 -12.92,32.18 2.49,0.53 20.44,-0.21 30.69,3.46 10.24,3.67 22.48,12.33 22.48,12.33l16.81 -16.68z"/>
  <path class="fil19" d="M516.76 284.03l-4.3 4.95 -1.93 2.22c-2.64,3.05 -7.21,3.49 -10.39,1.01l-17.16 -10.9 16.72 -22.28 16.33 14.33c3.13,2.75 3.46,7.52 0.72,10.67z"/>
  <path class="fil19" d="M502.76 290.32l-8.7 10.27 -2.78 -1.53 -23.16 11.25 -2.93 -11.91c0,0 12.65,-2.25 15.74,-5.85 3.09,-3.6 0.85,-5.11 0.85,-5.11l6.85 -4.88 14.13 7.75z"/>
  <path class="fil20" d="M444.44 234.1c-10.09,13.13 -15.93,25.58 -13.04,27.79 2.89,2.22 13.4,-6.63 23.49,-19.77 10.09,-13.13 15.92,-25.58 13.04,-27.79 -2.89,-2.22 -13.4,6.63 -23.49,19.77z"/>
  <polygon class="fil21" points="486.64,283.64 497.26,296.8 500.77,292.66 "/>
  <polygon class="fil21" points="515.84,285.02 511.52,290.07 512.46,290.57 516.23,285.41 "/>
  <path class="fil22" d="M483.94 280.06c0,0 -3.24,-2.13 -3.13,-2.07 0.1,0.07 16.32,-17.15 16.32,-17.15l0.76 0.62 -13.43 18.03 -0.53 0.57z"/>
  <path class="fil21" d="M511.37 284.89c-0.11,0.15 -2.41,-1.43 -5.13,-3.52 -2.72,-2.09 -4.84,-3.91 -4.72,-4.05 0.11,-0.15 2.41,1.43 5.13,3.52 2.72,2.09 4.83,3.9 4.72,4.05z"/>
  <path class="fil21" d="M513.76 281.71c-0.12,0.14 -2.18,-1.36 -4.6,-3.35 -2.43,-2 -4.3,-3.73 -4.18,-3.87 0.12,-0.14 2.18,1.36 4.6,3.35 2.42,1.99 4.29,3.73 4.18,3.87z"/>
  <path class="fil21" d="M508.53 288.15c-0.05,0.08 -0.62,-0.2 -1.51,-0.72 -0.44,-0.26 -0.97,-0.58 -1.55,-0.95 -0.57,-0.37 -1.14,-0.85 -1.76,-1.33 -2.47,-1.94 -4.29,-3.69 -4.18,-3.83 0.12,-0.16 2.15,1.38 4.59,3.3 0.62,0.47 1.17,0.97 1.72,1.36 0.55,0.39 1.03,0.74 1.44,1.05 0.81,0.61 1.29,1.04 1.25,1.12z"/>
  <path class="fil23" d="M448.01 237.37c0,0 -10.66,12.64 -6.45,19.43 0,0 6.07,-5.83 8.25,-8.66l-1.8 -10.77z"/>
  <path class="fil22" d="M472.28 225.09c0.04,0.02 -0.23,0.69 -0.76,1.88 -0.53,1.2 -1.3,2.93 -2.31,5.05 -0.58,1.02 -1.21,2.14 -1.89,3.34 -0.34,0.6 -0.7,1.22 -1.06,1.86 -0.18,0.32 -0.37,0.64 -0.56,0.97 -0.19,0.32 -0.42,0.63 -0.64,0.95 -0.88,1.28 -1.8,2.62 -2.75,4.02 -0.24,0.35 -0.48,0.7 -0.72,1.05 -0.24,0.36 -0.53,0.67 -0.8,1.02 -0.55,0.68 -1.11,1.36 -1.67,2.06 -0.57,0.69 -1.12,1.38 -1.68,2.06 -0.28,0.33 -0.53,0.69 -0.83,0.99 -0.3,0.31 -0.59,0.62 -0.88,0.92 -1.17,1.22 -2.3,2.39 -3.37,3.51 -0.27,0.28 -0.53,0.56 -0.8,0.82 -0.28,0.25 -0.56,0.5 -0.84,0.74 -0.55,0.49 -1.09,0.96 -1.61,1.42 -1.03,0.91 -2,1.75 -2.89,2.53 -1.86,1.42 -3.4,2.51 -4.46,3.28 -1.07,0.76 -1.67,1.16 -1.69,1.12 -0.03,-0.04 0.52,-0.51 1.54,-1.33 1.05,-0.84 2.52,-2.01 4.33,-3.45 0.86,-0.79 1.8,-1.65 2.81,-2.57 0.51,-0.46 1.03,-0.94 1.57,-1.43 0.27,-0.25 0.54,-0.49 0.82,-0.75 0.27,-0.26 0.52,-0.55 0.79,-0.82 1.06,-1.12 2.17,-2.3 3.32,-3.51 0.29,-0.3 0.58,-0.61 0.87,-0.92 0.3,-0.31 0.55,-0.66 0.83,-0.99 0.55,-0.67 1.1,-1.35 1.66,-2.04 0.56,-0.69 1.12,-1.37 1.66,-2.04 0.27,-0.34 0.56,-0.66 0.8,-1.01 0.24,-0.35 0.48,-0.7 0.72,-1.04 0.96,-1.37 1.88,-2.7 2.76,-3.97 0.22,-0.32 0.45,-0.62 0.64,-0.94 0.19,-0.32 0.38,-0.64 0.56,-0.96 0.37,-0.63 0.73,-1.24 1.08,-1.83 0.7,-1.18 1.35,-2.27 1.95,-3.28 1.04,-2.06 1.89,-3.74 2.49,-4.93 0.6,-1.16 0.95,-1.8 0.99,-1.78z"/>
  <path class="fil19" d="M459.75 235.38c0,0 -6.02,-6.09 -12.62,3.14 -6.25,8.74 0.38,12.4 0.38,12.4 4.83,-5.45 9.11,-10.7 12.24,-15.54z"/>
  <path class="fil24" d="M445.63 249.12c0,0 7.69,-5.41 14.12,-13.74 -3.41,5.15 -7.58,10.34 -12.24,15.54 0,0 -1.23,-0.65 -1.87,-1.8z"/>
  <path class="fil8" d="M779.76 321.19l0 -11.18c0,0 -15.24,-6.44 -14.57,-28.11 0.68,-21.68 16.93,-24.71 26.76,-24.72 12.47,-0.02 24.28,8.22 24.37,25.89 0.1,18.03 -13.19,26.31 -13.19,26.31l-0.33 11.81 -23.04 0z"/>
  <path class="fil25" d="M797.11 321.19c-0.01,0 -0.03,-0.11 -0.08,-0.34 -0.04,-0.25 -0.1,-0.59 -0.17,-1 -0.14,-0.88 -0.33,-2.18 -0.54,-3.86 -0.42,-3.36 -0.93,-8.25 -1.19,-14.3 -0.13,-3.03 -0.21,-6.35 -0.16,-9.92 0.05,-1.78 0.16,-3.66 0.75,-5.52 0.3,-0.92 0.73,-1.83 1.33,-2.64 0.57,-0.82 1.43,-1.52 2.42,-1.87 0.5,-0.18 1.04,-0.27 1.6,-0.2 0.56,0.06 1.1,0.34 1.48,0.77 0.8,0.89 0.76,2.18 0.42,3.2 -0.76,2.1 -2.71,3.62 -4.9,4.13 -2.22,0.54 -4.7,-0.23 -6.36,-1.88 -0.82,-0.83 -1.49,-1.85 -1.75,-3.04 -0.12,-0.6 -0.11,-1.25 0.14,-1.85 0.25,-0.59 0.73,-1.09 1.35,-1.33 0.62,-0.26 1.39,-0.13 1.89,0.32 0.52,0.45 0.73,1.08 0.83,1.68 0.19,1.23 -0.27,2.44 -0.91,3.4 -1.31,1.94 -3.62,3.14 -5.91,2.99 -2.3,-0.17 -4.31,-1.66 -5.32,-3.57 -0.49,-0.97 -0.81,-2.05 -0.67,-3.15 0.07,-0.54 0.24,-1.08 0.57,-1.54 0.32,-0.47 0.87,-0.8 1.44,-0.84 0.58,-0.06 1.15,0.2 1.55,0.55 0.4,0.36 0.7,0.8 0.93,1.24 0.49,0.9 0.67,1.89 0.87,2.81 0.43,1.86 0.7,3.69 0.94,5.46 0.43,3.55 0.51,6.89 0.37,9.92 -0.27,6.08 -1.42,10.9 -2.39,14.14 -0.49,1.62 -0.93,2.87 -1.26,3.69 -0.16,0.39 -0.28,0.7 -0.38,0.94 -0.09,0.21 -0.14,0.32 -0.14,0.31 -0.01,-0 0.02,-0.12 0.1,-0.33 0.08,-0.24 0.19,-0.56 0.32,-0.96 0.3,-0.84 0.7,-2.09 1.16,-3.72 0.9,-3.25 1.99,-8.06 2.21,-14.1 0.11,-3.01 0.02,-6.33 -0.43,-9.85 -0.25,-1.76 -0.53,-3.57 -0.96,-5.41 -0.21,-0.93 -0.38,-1.86 -0.84,-2.68 -0.42,-0.81 -1.12,-1.62 -2,-1.52 -0.9,0.05 -1.46,1 -1.55,1.94 -0.13,0.95 0.17,1.95 0.62,2.84 0.93,1.77 2.81,3.14 4.9,3.29 2.08,0.14 4.23,-0.97 5.42,-2.76 0.59,-0.89 0.99,-1.96 0.82,-3.02 -0.08,-0.51 -0.28,-1.03 -0.65,-1.34 -0.36,-0.32 -0.88,-0.41 -1.34,-0.22 -0.46,0.18 -0.85,0.58 -1.04,1.04 -0.2,0.47 -0.21,1.01 -0.11,1.53 0.22,1.04 0.83,2.01 1.59,2.76 1.54,1.52 3.81,2.23 5.86,1.74 2.03,-0.46 3.86,-1.91 4.53,-3.78 0.31,-0.92 0.31,-2.01 -0.31,-2.69 -0.6,-0.71 -1.66,-0.77 -2.54,-0.44 -0.9,0.32 -1.64,0.92 -2.2,1.7 -0.57,0.75 -0.98,1.61 -1.27,2.49 -0.57,1.77 -0.7,3.61 -0.75,5.38 -0.07,3.55 -0.01,6.87 0.09,9.89 0.22,6.05 0.67,10.93 1.02,14.29 0.19,1.66 0.34,2.95 0.44,3.88 0.05,0.42 0.08,0.75 0.11,1.01 0.02,0.23 0.03,0.35 0.02,0.35z"/>
  <path class="fil8" d="M765.18 316.48c0.31,0.68 -1.31,2.1 -3.63,3.17 -2.32,1.07 -4.46,1.39 -4.77,0.7 -0.31,-0.68 1.31,-2.1 3.63,-3.17 2.32,-1.07 4.46,-1.39 4.77,-0.7z"/>
  <path class="fil8" d="M756.6 295.3c0.14,0.74 -1.99,1.75 -4.75,2.25 -2.76,0.51 -5.1,0.32 -5.24,-0.42 -0.13,-0.74 1.99,-1.74 4.75,-2.25 2.76,-0.51 5.1,-0.32 5.24,0.42z"/>
  <path class="fil8" d="M758.87 271.36c-0.07,0.74 -2.25,1.1 -4.7,0.25 -2.46,-0.84 -3.95,-2.47 -3.55,-3.1 0.4,-0.65 2.29,-0.2 4.43,0.53 2.14,0.74 3.9,1.56 3.81,2.31z"/>
  <path class="fil8" d="M774.8 251.16c-0.63,0.41 -2.16,-0.86 -3.42,-2.82 -1.26,-1.96 -1.77,-3.88 -1.14,-4.29 0.63,-0.41 2.16,0.86 3.42,2.82 1.26,1.96 1.77,3.88 1.13,4.29z"/>
  <path class="fil8" d="M802.11 243.77c0.74,0.07 1.14,2.33 0.44,4.96 -0.7,2.64 -2.17,4.4 -2.84,4.09 -0.69,-0.31 -0.41,-2.39 0.22,-4.79 0.64,-2.38 1.43,-4.33 2.19,-4.26z"/>
  <path class="fil8" d="M825.74 259.44c0.49,0.56 -0.67,2.34 -2.91,3.45 -2.23,1.11 -4.36,0.95 -4.51,0.23 -0.16,-0.74 1.4,-1.71 3.3,-2.66 1.91,-0.93 3.63,-1.59 4.12,-1.01z"/>
  <path class="fil8" d="M832.83 281.89c0,0.75 -2.17,1.36 -4.84,1.36 -2.67,0 -4.84,-0.61 -4.84,-1.36 0,-0.75 2.17,-1.36 4.84,-1.36 2.67,0 4.84,0.61 4.84,1.36z"/>
  <path class="fil8" d="M825.44 302.93c-0.42,0.62 -2.17,0.17 -3.9,-1.01 -1.73,-1.18 -2.79,-2.64 -2.36,-3.26 0.42,-0.62 2.17,-0.17 3.89,1.01 1.73,1.18 2.79,2.64 2.37,3.25z"/>
  <path class="fil8" d="M820.21 317.85c-0.4,0.63 -2.25,0.18 -4.12,-1.02 -1.87,-1.2 -3.06,-2.68 -2.66,-3.31 0.41,-0.63 2.25,-0.18 4.12,1.02 1.87,1.2 3.06,2.68 2.66,3.31z"/>
  <path class="fil26" d="M406.58 87.04c-15.07,15.07 -30.15,30.14 -45.22,45.21 1.2,0 2.41,0 3.62,0 -15.07,-15.07 -30.15,-30.14 -45.22,-45.21 0,1.2 0,2.41 0,3.62 15.07,-15.07 30.15,-30.14 45.22,-45.21 -1.21,0 -2.41,0 -3.62,0 15.07,15.07 30.15,30.14 45.22,45.21 2.33,2.33 5.95,-1.29 3.62,-3.62 -15.07,-15.07 -30.15,-30.14 -45.22,-45.21 -0.98,-0.98 -2.64,-0.98 -3.62,0 -15.07,15.07 -30.15,30.14 -45.22,45.21 -0.98,0.98 -0.98,2.64 0,3.62 15.07,15.07 30.15,30.14 45.22,45.21 0.98,0.98 2.64,0.98 3.62,0 15.07,-15.07 30.15,-30.14 45.22,-45.21 2.33,-2.33 -1.28,-5.95 -3.62,-3.62z"/>
  <path class="fil27" d="M864.6 111.15c0,43.22 0,86.44 0,129.67 0,6.19 0,12.38 0,18.58 0,1.97 2.16,3.14 3.85,2.21 38.93,-21.59 77.85,-43.18 116.78,-64.77 5.62,-3.12 11.24,-6.24 16.87,-9.35 1.66,-0.92 1.66,-3.49 0,-4.42 -38.93,-21.59 -77.85,-43.18 -116.78,-64.77 -5.62,-3.12 -11.24,-6.24 -16.87,-9.36 -2.88,-1.6 -5.47,2.82 -2.58,4.42 38.93,21.59 77.85,43.18 116.78,64.77 5.62,3.12 11.24,6.24 16.87,9.35 0,-1.47 0,-2.94 0,-4.42 -38.93,21.59 -77.85,43.18 -116.78,64.77 -5.62,3.12 -11.24,6.24 -16.87,9.35 1.28,0.74 2.57,1.47 3.85,2.21 0,-43.22 0,-86.44 0,-129.67 0,-6.19 0,-12.38 0,-18.58 0,-3.29 -5.12,-3.3 -5.12,0z"/>
  <path class="fil27" d="M173.29 164.9c-10.39,-1.71 -21.28,6.95 -21.92,17.45 -0.63,10.5 9.19,20.42 19.7,19.86 10.51,-0.56 19.22,-11.52 17.36,-21.88 -1.86,-10.36 -13.88,-17.6 -23.9,-14.36l8.76 -1.07z"/>
  <path class="fil28" d="M774.95 152.18c-10.39,-1.71 -21.28,6.95 -21.91,17.45 -0.63,10.5 9.19,20.42 19.7,19.86 10.51,-0.56 19.22,-11.52 17.36,-21.88 -1.86,-10.36 -13.88,-17.6 -23.9,-14.37l8.76 -1.07z"/>
  <path class="fil8" d="M996.89 423.93c-6.11,-1.01 -12.51,4.08 -12.88,10.26 -0.37,6.17 5.4,12 11.58,11.67 6.18,-0.33 11.29,-6.77 10.2,-12.86 -1.09,-6.09 -8.16,-10.34 -14.05,-8.44l5.15 -0.63z"/>
  <path class="fil8" d="M12.9 460.97c-6.1,-1.01 -12.51,4.08 -12.88,10.26 -0.37,6.17 5.4,12 11.58,11.67 6.18,-0.33 11.29,-6.77 10.2,-12.86 -1.09,-6.09 -8.16,-10.34 -14.05,-8.44l5.15 -0.63z"/>
  <polygon class="fil26" points="1034.47,323.23 997.37,308.78 1011.82,271.7 1048.92,286.15 "/>
  <polygon class="fil6" points="1036.85,549.87 999.76,535.42 1014.21,498.34 1051.3,512.79 "/>
  <path class="fil29" d="M269.03 146.66c13.16,0 13.18,-20.45 0,-20.45 -13.16,0 -13.18,20.45 0,20.45z"/>
  <path class="fil8" d="M505.72 268.23c-6.07,-0.38 -11.84,5.23 -11.59,11.31 0.25,6.08 6.47,11.21 12.48,10.28 6.01,-0.93 10.39,-7.74 8.71,-13.59 -1.67,-5.85 -9.01,-9.32 -14.58,-6.88l4.97 -1.12z"/>
  <path class="fil30" d="M363.64 754.03c-55.18,-20.67 -144.31,-20.67 -199.11,-0.01 -54.82,20.67 -54.53,54.16 0.65,74.82 55.16,20.66 144.29,20.66 199.11,-0.01 27.4,-10.33 41.03,-23.86 40.91,-37.39 -0.11,-13.54 -13.97,-27.08 -41.56,-37.41z"/>
  <path class="fil31" d="M652.27 637.31l1.81 0.25c1.59,-1.83 3.84,-3.44 6.85,-4.67 11.33,-4.64 28.3,-2.34 37.91,5.14 2.55,1.99 4.28,4.14 5.29,6.32l1.75 0.23 -0.74 5.48c-0.56,3.97 -3.74,7.58 -9.41,9.91 -11.32,4.64 -28.29,2.33 -37.91,-5.15 -4.8,-3.74 -6.86,-8.06 -6.3,-12.03l0 -0 0.74 -5.48z"/>
  <path class="fil32" d="M661.68 627.41c11.33,-4.64 28.3,-2.34 37.91,5.14 9.62,7.48 8.22,17.3 -3.1,21.94 -11.32,4.64 -28.29,2.33 -37.91,-5.15 -4.8,-3.74 -6.86,-8.06 -6.3,-12.03 0.57,-3.97 3.74,-7.58 9.4,-9.9z"/>
  <path class="fil33" d="M687.83 636.54c-7.56,-5.88 -19.66,-8.5 -30,-7.11 1.12,-0.75 2.39,-1.43 3.84,-2.02 11.33,-4.64 28.3,-2.34 37.91,5.14 9.62,7.48 8.22,17.3 -3.1,21.94 -2.41,0.99 -5.11,1.6 -7.9,1.97 7.65,-5.09 7.64,-13.39 -0.74,-19.92z"/>
  <path class="fil32" d="M678.59 644.54c2.91,0.4 5.59,-1.64 5.99,-4.56l19.9 -146.59c0.4,-2.92 -1.64,-5.6 -4.56,-5.99 -2.91,-0.4 -5.59,1.65 -5.99,4.56l-19.89 146.6c-0.4,2.91 1.64,5.6 4.56,5.99z"/>
  <path class="fil34" d="M710.97 372.14l1 -37.64 5.24 -2.36c1.7,-0.76 3.68,-0.55 5.18,0.57l69.72 52.04c4.72,3.53 7.22,9.29 6.57,15.14l-3.97 35.72c-2.77,25.38 -19.2,47.22 -42.84,56.89l-37.37 14.74c-5.39,2.12 -11.5,1.29 -16.12,-2.21l-66.35 -50.29c-2.1,-1.59 -3.17,-4.2 -2.8,-6.8l0.91 -6.37 38 -12.52c23.63,-9.67 40.07,-31.51 42.83,-56.9z"/>
  <path class="fil35" d="M705.08 378.78l4.53 -41.6c0.26,-2.41 3.06,-3.62 4.99,-2.15l70.55 53.47c3.46,2.63 5.3,6.88 4.83,11.19l-4.37 40.13c-2.15,19.78 -14.96,36.78 -33.37,44.32l-38.29 15.97c-4.07,1.7 -8.72,1.1 -12.23,-1.56l-70.53 -53.46c-1.92,-1.46 -1.54,-4.45 0.69,-5.38l39.83 -16.61c18.41,-7.54 31.22,-24.55 33.37,-44.32z"/>
  <path class="fil36" d="M765.16 476.61l-79.65 -61.83c5.27,-4.33 9.71,-9.55 13.01,-15.48l79.92 62.03c-3.43,5.85 -7.92,11.05 -13.28,15.27z"/>
  <path class="fil36" d="M676.88 420.57c2.02,-1.09 3.94,-2.3 5.78,-3.62l79.52 61.73c-1.89,1.28 -3.86,2.45 -5.92,3.51l-79.37 -61.61z"/>
  <path class="fil18" d="M924.22 931.67l1.82 0c1.33,-2.02 3.34,-3.92 6.16,-5.54 10.6,-6.12 27.73,-6.12 38.26,-0 2.8,1.63 4.79,3.53 6.1,5.55l1.76 0 0 5.54c-0.02,4.01 -2.69,8.02 -7.99,11.08 -10.6,6.12 -27.72,6.12 -38.25,-0 -5.26,-3.06 -7.88,-7.07 -7.86,-11.08l0 -5.54z"/>
  <path class="fil32" d="M932.2 920.59c10.6,-6.12 27.73,-6.12 38.26,-0 10.53,6.12 10.48,16.04 -0.12,22.16 -10.6,6.11 -27.72,6.11 -38.25,-0 -5.26,-3.06 -7.88,-7.07 -7.86,-11.08 0.02,-4.01 2.68,-8.02 7.98,-11.08z"/>
  <path class="fil33" d="M959.35 926.12c-8.29,-4.81 -20.62,-5.78 -30.69,-3.01 1.01,-0.89 2.18,-1.73 3.53,-2.52 10.6,-6.12 27.73,-6.12 38.26,-0 10.53,6.12 10.48,16.04 -0.12,22.16 -2.26,1.3 -4.85,2.26 -7.57,3.01 6.89,-6.08 5.77,-14.3 -3.41,-19.64z"/>
  <path class="fil18" d="M951.26 935.29c2.94,0 5.33,-2.38 5.33,-5.32l0 -147.94c0,-2.94 -2.39,-5.32 -5.33,-5.32 -2.94,0 -5.32,2.38 -5.32,5.32l0 147.94c0,2.94 2.38,5.32 5.32,5.32z"/>
  <path class="fil34" d="M946.71 661.01l-4.07 -37.44 4.87 -3.04c1.58,-0.99 3.57,-1.04 5.2,-0.14l76.09 42.19c5.15,2.86 8.41,8.24 8.55,14.12l0.87 35.93c0.68,25.53 -12.68,49.38 -34.8,62.14l-35.04 19.62c-5.06,2.83 -11.22,2.82 -16.27,-0.03l-72.51 -40.91c-2.29,-1.3 -3.71,-3.73 -3.69,-6.37l0.05 -6.43 35.97 -17.52c22.12,-12.76 35.47,-36.61 34.79,-62.14z"/>
  <path class="fil35" d="M941.76 668.39l-1.11 -41.83c-0.07,-2.43 2.55,-4 4.66,-2.8l77.1 43.5c3.79,2.13 6.17,6.1 6.29,10.44l1.07 40.35c0.53,19.89 -9.88,38.47 -27.1,48.41l-35.79 20.98c-3.8,2.22 -8.49,2.26 -12.33,0.1l-77.08 -43.49c-2.1,-1.18 -2.12,-4.2 -0.04,-5.42l37.24 -21.82c17.23,-9.94 27.63,-28.52 27.1,-48.41z"/>
  <path class="fil36" d="M1014.46 757.24l-87.24 -50.55c4.64,-4.99 8.34,-10.77 10.81,-17.09l87.53 50.72c-2.61,6.26 -6.35,12.02 -11.11,16.92z"/>
  <path class="fil36" d="M919.44 713.58c1.85,-1.35 3.59,-2.81 5.24,-4.36l87.09 50.47c-1.7,1.53 -3.49,2.95 -5.4,4.27l-86.93 -50.38z"/>
  <path class="fil18" d="M228.87 762.91l-1.8 0.27c-1.61,-1.8 -3.89,-3.38 -6.91,-4.57 -11.39,-4.47 -28.33,-1.93 -37.83,5.68 -2.52,2.03 -4.21,4.2 -5.21,6.4l-1.75 0.26 0.82 5.47 0.01 0c0.62,3.96 3.85,7.53 9.54,9.77 11.39,4.47 28.32,1.93 37.83,-5.69 4.75,-3.8 6.74,-8.16 6.13,-12.12l0 -0 -0.82 -5.47z"/>
  <path class="fil32" d="M219.33 753.14c-11.39,-4.48 -28.33,-1.93 -37.83,5.69 -9.5,7.61 -7.98,17.42 3.42,21.89 11.39,4.47 28.32,1.93 37.83,-5.69 4.75,-3.8 6.74,-8.16 6.13,-12.12 -0.62,-3.96 -3.85,-7.53 -9.54,-9.77z"/>
  <path class="fil33" d="M193.3 762.65c7.48,-5.99 19.53,-8.78 29.9,-7.54 -1.13,-0.74 -2.42,-1.4 -3.87,-1.97 -11.39,-4.48 -28.33,-1.93 -37.83,5.69 -9.5,7.61 -7.98,17.42 3.42,21.89 2.42,0.95 5.13,1.52 7.93,1.86 -7.72,-4.99 -7.84,-13.28 0.45,-19.93z"/>
  <path class="fil18" d="M202.66 770.52c-2.9,0.43 -5.62,-1.56 -6.06,-4.47l-21.99 -146.29c-0.44,-2.91 1.56,-5.62 4.47,-6.06 2.91,-0.44 5.62,1.56 6.05,4.47l21.99 146.29c0.44,2.91 -1.57,5.62 -4.47,6.06z"/>
  <path class="fil34" d="M166.38 498.61l-1.54 -37.62 -5.26 -2.28c-1.71,-0.74 -3.69,-0.5 -5.17,0.64l-68.97 53.03c-4.67,3.59 -7.09,9.39 -6.35,15.23l4.49 35.65c3.13,25.35 19.88,46.94 43.64,56.28l37.57 14.2c5.42,2.05 11.52,1.12 16.09,-2.45l65.62 -51.23c2.08,-1.62 3.11,-4.24 2.7,-6.85l-1 -6.35 -38.17 -11.97c-23.77,-9.34 -40.52,-30.93 -43.65,-56.28z"/>
  <path class="fil35" d="M172.37 505.16l-5.12 -41.53c-0.3,-2.41 -3.11,-3.57 -5.03,-2.08l-69.78 54.48c-3.43,2.67 -5.2,6.95 -4.67,11.26l4.94 40.06c2.44,19.74 15.48,36.57 34,43.84l38.51 15.42c4.09,1.64 8.74,0.98 12.21,-1.73l69.76 -54.46c1.9,-1.49 1.48,-4.47 -0.76,-5.37l-40.07 -16.04c-18.51,-7.27 -31.56,-24.1 -34,-43.84z"/>
  <path class="fil36" d="M113.7 603.84l78.75 -62.96c-5.33,-4.25 -9.84,-9.41 -13.23,-15.29l-79.02 63.17c3.52,5.8 8.07,10.94 13.5,15.08z"/>
  <path class="fil36" d="M201.16 546.54c-2.03,-1.06 -3.96,-2.24 -5.83,-3.53l-78.62 62.85c1.91,1.26 3.89,2.4 5.97,3.42l78.48 -62.74z"/>
  <path class="fil37" d="M559.59 599.69c0,0 -30.11,24.27 -28.24,31.71 1.21,4.8 16.21,3.59 34.08,-18.66l5.08 -25.52 -8.98 -0.24 -1.94 12.71z"/>
  <path class="fil38" d="M550.4 607.55c7.76,0.53 11.23,-0.96 17.58,-7.62l-2.55 12.81c-17.87,22.25 -32.88,23.47 -34.08,18.66 -1.39,-5.51 10.58,-16.58 19.05,-23.85z"/>
  <path class="fil39" d="M700.88 408.85l-97.27 -3.92c-17.97,-0.73 -33.25,13.01 -34.45,30.95l-10.46 157.56 12.41 -0.32 39.15 -125.29c0,0 63.11,4.44 105.64,-7.79l-15.03 -51.19z"/>
  <path class="fil40" d="M589.83 680.41c0,0 -31.26,22.78 -29.75,30.31 0.97,4.85 16.02,4.36 34.95,-17l6.31 -25.24 -8.96 -0.67 -2.55 12.6z"/>
  <path class="fil38" d="M579.87 688.14c2.15,1.45 11.66,-0.74 18.33,-7.08l-3.17 12.66c-18.93,21.36 -33.98,21.85 -34.95,17 -1.12,-5.58 10.97,-15.73 19.79,-22.58z"/>
  <path class="fil38" d="M732.73 386.75c0,0 63.49,65.94 -62.95,127.79l-69.63 160.22 -9.95 0 30.91 -173.89c2.89,-16.29 11.62,-30.97 24.55,-41.29l44.55 -54.08 42.52 -18.74z"/>
  <path class="fil41" d="M577.83 316.34l80.93 98.07c2.57,4.05 7.75,5.54 12.07,3.47l58.51 -28c5.6,-2.68 7.14,-9.94 3.11,-14.67l-87.26 -102.37 -31.2 12.58 -36.17 30.92z"/>
  <polygon class="fil41" points="617.77,287.62 606.07,272.13 624.9,260.23 639.95,258.06 "/>
  <polygon class="fil42" points="606.07,272.13 607.45,285.42 614,282.63 "/>
  <path class="fil39" d="M608.64 193.87l-16.78 0c-13.2,0 -21.82,13.82 -16.03,25.68l3.82 7.81 28.99 0 0 -33.48z"/>
  <polygon class="fil43" points="617.77,287.62 637.32,271.71 625.69,226 601.7,224.91 "/>
  <polygon class="fil44" points="610.74,259.87 624.9,260.23 612.77,267.63 "/>
  <path class="fil45" d="M595.7 260.23l29.99 0 0 -44.74c0,-8.87 -7.19,-16.05 -16.05,-16.05l-20.61 0c-5.18,0 -9.38,4.2 -9.38,9.38l0 35.36c0,8.86 7.19,16.05 16.05,16.05z"/>
  <path class="fil39" d="M620.73 236.99l-2.06 -16.74c0,0 -37.44,3.77 -37.44,-19.69 0,0 -1.47,-12.8 14.06,-12.8l20.24 0c10.48,0 19.67,8.52 18.97,18.97 -0.51,7.61 -4.04,30.25 -4.04,30.25l-9.74 0z"/>
  <path class="fil46" d="M616.21 235.5c0,5.67 4.6,10.27 10.28,10.27 5.68,0 10.28,-4.6 10.28,-10.27 0,-5.68 -4.6,-10.28 -10.28,-10.28 -5.68,0 -10.28,4.6 -10.28,10.28z"/>
  <polygon class="fil41" points="639.95,258.06 619.51,271 617.77,287.62 645.2,272.84 "/>
  <polygon class="fil42" points="619.51,271 625.56,285.42 645.2,272.84 639.95,258.06 "/>
  <path class="fil18" d="M568.67 866.48l0 0c-2.82,0 -5.02,-2.43 -4.75,-5.24l25.67 -257.86c0.24,-2.44 2.29,-4.3 4.75,-4.3 2.82,0 5.02,2.43 4.74,5.24l-25.67 257.86c-0.24,2.44 -2.29,4.3 -4.74,4.3z"/>
  <path class="fil18" d="M686.58 817.56l0 0c-2.82,0 -5.02,-2.43 -4.74,-5.24l25.67 -257.87c0.25,-2.44 2.29,-4.3 4.74,-4.3 2.82,0 5.02,2.44 4.74,5.24l-25.67 257.87c-0.24,2.44 -2.29,4.3 -4.75,4.3z"/>
  <path class="fil18" d="M385.17 782.32c-2.82,0 -5.02,-2.44 -4.74,-5.24l25.67 -257.87c0.24,-2.44 2.29,-4.29 4.74,-4.29 2.82,0 5.02,2.43 4.74,5.24l-25.67 257.87c-0.24,2.44 -2.29,4.29 -4.74,4.29z"/>
  <path class="fil18" d="M503.08 733.4c-2.82,0 -5.02,-2.43 -4.74,-5.24l25.67 -257.87c0.24,-2.44 2.29,-4.29 4.74,-4.29 2.82,0 5.02,2.43 4.75,5.24l-25.67 257.86c-0.24,2.44 -2.29,4.3 -4.74,4.3z"/>
  <path class="fil35" d="M682.38 497.45c-75.77,-43.75 -198.15,-43.75 -273.39,-0.02 -75.28,43.75 -74.87,114.63 0.89,158.38 75.74,43.72 198.11,43.72 273.39,-0.02 75.24,-43.73 74.85,-114.61 -0.89,-158.34z"/>
  <path class="fil34" d="M682.38 486.81c-75.77,-43.75 -198.15,-43.75 -273.39,-0.02 -75.28,43.75 -74.87,114.63 0.89,158.38 75.74,43.73 198.11,43.73 273.39,-0.02 75.24,-43.73 74.85,-114.61 -0.89,-158.34z"/>
  <path class="fil47" d="M400.28 560.7c-0.3,0 -0.6,-0.05 -0.9,-0.14l-43.85 -13.78c0.21,-0.73 0.43,-1.45 0.67,-2.17l0.02 -0.05c0.28,-0.87 0.59,-1.73 0.91,-2.59l0.01 -0.03c0.32,-0.86 0.66,-1.72 1.01,-2.58l0.04 -0.1c0.71,-1.72 1.5,-3.43 2.36,-5.13l0.04 -0.08c0.86,-1.69 1.79,-3.38 2.79,-5.05l0.08 -0.13c1,-1.68 2.08,-3.35 3.23,-5l0.04 -0.06c1.16,-1.68 2.4,-3.34 3.71,-4.98l0.01 -0.01c0.66,-0.83 1.33,-1.65 2.03,-2.47l0.01 -0.01c1.37,-1.62 2.81,-3.22 4.33,-4.8l0.12 -0.13c0.74,-0.77 1.49,-1.53 2.26,-2.29l0.13 -0.13c0.78,-0.77 1.57,-1.53 2.39,-2.29l0.02 -0.02c0.83,-0.77 1.68,-1.54 2.55,-2.31l0.07 -0.06c1.73,-1.53 3.54,-3.03 5.41,-4.52l0.11 -0.08c1.89,-1.49 3.85,-2.97 5.88,-4.42l0.02 -0.02c1.01,-0.72 2.04,-1.43 3.08,-2.14l0.12 -0.08c1.04,-0.7 2.1,-1.4 3.17,-2.09l0.02 -0.01c1.06,-0.69 2.15,-1.37 3.25,-2.04l0.25 -0.15c1.1,-0.67 2.21,-1.33 3.34,-1.99 2.34,-1.36 4.72,-2.68 7.15,-3.95l0.08 -0.04c6.4,-3.36 13.11,-6.42 20.05,-9.19l41.55 13.06c2.21,0.69 2.82,3.54 1.09,5.08l-76.63 68.19c-0.56,0.49 -1.27,0.76 -1.99,0.76z"/>
  <path class="fil47" d="M623.58 520.85c-0.35,0 -0.69,-0.09 -1.01,-0.27l-91.05 -51.92c-1.37,-0.78 -1.36,-2.75 0.01,-3.52l19.66 -11.09c1.16,0.02 2.31,0.04 3.47,0.07l0.2 0.01c1.48,0.04 2.96,0.09 4.44,0.15l0.17 0.01c1.5,0.06 2.99,0.14 4.49,0.22l0.12 0.01c3.06,0.17 6.12,0.38 9.18,0.64l0.01 0zm4.59 0.42l0 0c3.04,0.3 6.06,0.64 9.08,1.02l0.19 0.02c1.45,0.18 2.9,0.38 4.34,0.58l0.19 0.03c1.41,0.2 2.81,0.41 4.22,0.63l0.46 0.07c1.38,0.22 2.75,0.44 4.11,0.67l0.26 0.05c1.37,0.24 2.74,0.48 4.11,0.74l0.45 0.08c1.33,0.25 2.65,0.51 3.97,0.77l0.46 0.09c1.34,0.27 2.67,0.55 4,0.84l0.35 0.08c1.35,0.3 2.69,0.6 4.03,0.91l0.35 0.08c1.34,0.32 2.68,0.64 4.01,0.97l0.29 0.07c1.35,0.34 2.68,0.69 4.02,1.04l0.3 0.08c2.81,0.75 5.59,1.55 8.34,2.38l0.08 0.02 0.02 0.01c1.37,0.42 2.74,0.84 4.09,1.28l0.24 0.08c1.3,0.42 2.58,0.84 3.86,1.28l0.33 0.11c1.27,0.43 2.53,0.88 3.78,1.33l0.28 0.1c1.24,0.45 2.47,0.91 3.7,1.37l0.44 0.17c1.18,0.45 2.34,0.91 3.51,1.38l0.48 0.19c1.18,0.48 2.35,0.96 3.51,1.45l0.38 0.16c1.18,0.5 2.35,1.01 3.51,1.53l0.36 0.16c1.15,0.52 2.3,1.04 3.44,1.58l0.4 0.19c1.17,0.55 2.33,1.11 3.48,1.68l0.22 0.11c1.2,0.6 2.4,1.2 3.58,1.82l0.07 0.03c1.19,0.62 2.37,1.25 3.54,1.89l0.13 0.07c1.19,0.65 2.37,1.32 3.55,2l0.02 0.01 0.02 0.01 0 0 0.03 0.02 0.02 0.01 0.02 0.01c0.31,0.18 0.61,0.36 0.92,0.54l-58.82 33.18c-0.31,0.18 -0.65,0.26 -0.99,0.26z"/>
  <path class="fil48" d="M341.32 466.82c-0.43,-0.69 -1.09,-1.22 -1.85,-1.54 -6.68,-2.84 -40.72,-13.81 -61.66,46.63 -3.79,10.96 -8.61,19.94 -14.03,27.39 52.67,-21.11 87.57,-56.21 77.54,-72.49z"/>
  <path class="fil49" d="M241.45 460.45l85.14 63.31c10.09,7.51 13.26,21.22 7.48,32.39l-82.11 158.8 -10.51 -2.47 46.44 -154.56 -73.02 -48.61 26.57 -48.86z"/>
  <path class="fil50" d="M304.07 507.01l-62.61 -46.56 -26.57 48.86 62.64 41.7c7.45,-16.23 15.63,-34.83 26.55,-44z"/>
  <path class="fil35" d="M251.97 714.95l4.43 40.41 6.15 17.65 -8.07 -4c-2.29,-1.14 -4.1,-3.04 -5.11,-5.39l-15.12 -35.27c-1.62,-3.78 -0.94,-8.15 1.74,-11.26l6.55 -7.59 9.42 5.45z"/>
  <polygon class="fil51" points="256.4,755.35 238.58,714.1 242.54,709.5 251.97,714.95 "/>
  <polygon class="fil52" points="191.66,526.78 255.28,617.14 325.42,764.87 336.13,764.87 291.82,583.71 229.03,462.67 "/>
  <path class="fil53" d="M336.13 764.87l15.64 40 10.93 15.17 -9.83 -1.7c-1.9,-0.33 -3.61,-1.32 -4.84,-2.8l-22.73 -27.3c-1.41,-1.7 -2.07,-3.89 -1.82,-6.09l1.95 -17.28 10.71 0z"/>
  <polygon class="fil54" points="351.77,804.87 324.51,773 325.42,764.87 336.13,764.87 "/>
  <path class="fil55" d="M276.26 553.71l-47.23 -91.04 -37.37 64.11 52.53 74.6c2.25,-23.27 23.64,-25.05 32.07,-47.67z"/>
  <path class="fil39" d="M219.63 257.75c0,0 -11.46,46.95 -55.41,26.17 -43.96,-20.78 -92.97,-1.14 -102.29,40.55 -11.21,50.13 39.74,122.05 152.91,69.66 113.17,-52.39 62.98,-145.71 4.79,-136.39z"/>
  <path class="fil48" d="M194.49 413.09c0,0 -2.32,9.7 -13.5,21.21 -39.32,40.45 12.31,102.32 7.27,153.39 0,0 69.61,14.7 96.96,-64.22 23.3,-67.25 55.73,-57.15 55.73,-57.15 0,0 -4.83,-6.39 -39.37,-8.85 -44.85,-3.2 -51.68,-15.4 -47.76,-37.96l-59.32 -6.42z"/>
  <path class="fil48" d="M265.03 387.69c0,0 -18.36,25.48 -12.19,56.97 0,0 -32.01,12.79 -64.58,-13.2 0,0 11.44,-27.66 9.17,-41.77l67.6 -2z"/>
  <polygon class="fil18" points="305.6,483.98 304.49,478.77 387.42,411.16 463,434.92 381.18,507.74 "/>
  <polygon class="fil32" points="304.49,478.77 386.32,405.95 461.9,429.72 380.07,502.53 "/>
  <path class="fil39" d="M335.14 478.89l2.11 -1.88 51.67 -45.98c0.54,-0.48 1.28,-0.64 1.96,-0.42l48.42 15.23c1.51,0.48 1.92,2.41 0.74,3.46l-53.78 47.86c-0.54,0.47 -1.28,0.63 -1.96,0.42l-48.42 -15.22c-1.51,-0.47 -1.92,-2.41 -0.74,-3.46z"/>
  <polygon class="fil39" points="333.77,477.32 334.53,480.89 337.33,480.3 336.67,477.17 "/>
  <path class="fil18" d="M334.4 475.39l53.78 -47.86c0.53,-0.47 1.28,-0.63 1.96,-0.42l48.42 15.22c1.51,0.47 1.92,2.41 0.74,3.46l-53.78 47.86c-0.53,0.47 -1.28,0.63 -1.96,0.42l-48.42 -15.22c-1.51,-0.47 -1.92,-2.41 -0.74,-3.46z"/>
  <path class="fil56" d="M237.97 320.6c0,0 25.23,-10.22 37.33,8.16 12.1,18.38 35.86,71.28 73.97,80.25 38.11,8.97 60.07,0 60.07,0l3.53 13.9c0,0 -59.57,19.28 -95.43,0 -35.86,-19.28 -59.43,-54.88 -79.48,-102.3z"/>
  <path class="fil48" d="M266.34 364.41c0,0 15.82,-3.19 21.86,-13.95 -8.42,-14.41 -14.21,-34.4 -36.76,-32.7l14.9 46.65z"/>
  <path class="fil39" d="M229.53 298.94l0 0c-9.22,0 -16.16,-8.39 -14.44,-17.44l4.53 -23.74c1.8,-9.45 10.06,-16.28 19.68,-16.28l12.13 0 -21.9 57.46z"/>
  <path class="fil48" d="M251.44 317.76c0,0 8.75,21.33 16.39,34.55 8.03,13.9 9.45,25.26 -13.44,47.03l-50.01 10.33c0,0 -24.12,-51.34 -1.2,-85.2 0,0 26.87,-10.21 48.25,-6.72z"/>
  <polygon class="fil57" points="237.75,336.05 218.2,320.14 229.83,274.43 253.82,273.34 "/>
  <polygon class="fil58" points="244.78,308.3 230.61,308.66 242.75,316.06 "/>
  <path class="fil59" d="M259.81 308.66l-29.99 0 0 -44.74c0,-8.87 7.19,-16.05 16.05,-16.05l13.93 0c8.87,0 16.05,7.19 16.05,16.05l0 28.69c0,8.87 -7.18,16.05 -16.05,16.05z"/>
  <path class="fil39" d="M234.11 283.2l4.32 -15.85c0,0 12.4,-2.28 22.33,-17.69 12.76,4.2 15.1,18.79 15.1,18.79 0,0 19.04,-26.98 -30.25,-26.98 -13.39,0 -20.56,11.48 -20.56,36.79l9.05 4.94z"/>
  <path class="fil60" d="M239.31 283.93c0,5.68 -4.6,10.28 -10.28,10.28 -5.68,0 -10.28,-4.6 -10.28,-10.28 0,-5.68 4.6,-10.28 10.28,-10.28 5.68,0 10.28,4.6 10.28,10.28z"/>
  <path class="fil61" d="M203.19 324.48c0,0 -23.15,12.37 -16.34,38.06 7.16,27.05 41.98,83.54 87.14,64.16 31.83,-13.66 47.59,-39.77 88.39,-46.57l-5.56 -14.84c0,0 -35.86,5.56 -70.47,25.96 -34.62,20.4 -62.28,13.57 -83.15,-66.78z"/>
  <path class="fil62" d="M242.43 318.41c0,0 6.87,19.36 0.92,22.47 -5.37,2.8 -14.31,-2.6 -25.14,-20.73l24.23 -1.73z"/>
  <path class="fil48" d="M225.06 372.23c0,0 -15.81,11.61 -34.29,6.71 0,0 -19.62,-39.33 12.42,-54.46l21.88 47.75z"/>
  <polygon class="fil3" points="385.92,429.68 467.75,356.87 463,434.92 381.18,507.74 "/>
  <polygon class="fil18" points="385.92,429.68 467.75,356.87 461.65,355.19 380.85,426.9 375.68,506.02 381.18,507.74 "/>
  <path class="fil63" d="M420.15 428.98c-0.9,5.64 1.9,9.56 6.24,8.74 4.34,-0.82 8.58,-6.05 9.48,-11.69 0.9,-5.65 -1.89,-9.56 -6.23,-8.74 -4.34,0.81 -8.59,6.05 -9.48,11.69z"/>
  <path class="fil31" d="M424.31 437.39c4.34,-0.82 8.58,-6.05 9.48,-11.69 0.67,-4.18 -0.71,-7.41 -3.23,-8.47 3.78,-0.1 6.12,3.59 5.29,8.8 -0.89,5.64 -5.14,10.87 -9.48,11.69 -1.12,0.21 -2.13,0.09 -3.01,-0.28l0.95 -0.06z"/>
  <path class="fil64" d="M505.92 325.35c-6.01,-15.34 -19.11,-27.86 -19.11,-27.86l-10.02 11.87c0,0 8.32,7.6 16.44,38.08 0.63,2.37 1.51,4.71 2.59,6.99l18.73 -12.71c-2.94,-3.88 -5.82,-9.21 -8.62,-16.35z"/>
  <path class="fil41" d="M613.98 281.73c0,0 -25.24,4.59 -45.51,34.98 -16.81,25.21 -35.58,45.02 -52.72,22.39l-22.41 15.22c13.97,29.71 68.59,52.47 110.33,2.99 45.58,-54.03 10.31,-75.58 10.31,-75.58z"/>
  <polygon class="fil18" points="692.57,416.89 692.57,411.56 597.42,362.63 528.42,401.56 623.57,455.81 "/>
  <polygon class="fil32" points="692.57,411.56 597.42,357.31 528.42,396.23 623.57,450.49 "/>
  <path class="fil39" d="M662.61 418.05l-2.45 -1.4 -60.08 -34.26c-0.62,-0.36 -1.39,-0.36 -2.01,-0.01l-44.21 24.94c-1.37,0.78 -1.38,2.76 -0.01,3.54l62.54 35.66c0.62,0.35 1.39,0.35 2.01,0l44.21 -24.94c1.38,-0.78 1.39,-2.76 0.01,-3.54z"/>
  <polygon class="fil39" points="663.63,416.22 663.63,419.87 660.77,419.87 660.77,416.67 "/>
  <path class="fil18" d="M662.61 414.46l-62.53 -35.66c-0.62,-0.36 -1.39,-0.36 -2.01,-0.01l-44.21 24.94c-1.37,0.78 -1.38,2.76 -0.01,3.54l62.54 35.66c0.62,0.35 1.39,0.35 2.01,0l44.21 -24.94c1.38,-0.78 1.39,-2.76 0.01,-3.54z"/>
  <polygon class="fil3" points="602.73,380.44 507.58,326.18 528.42,401.56 623.57,455.81 "/>
  <polygon class="fil18" points="602.73,380.44 507.58,326.18 513.2,323.28 607.12,376.66 628.59,452.98 623.57,455.81 "/>
  <path class="fil63" d="M569.11 386.85c2.05,5.34 0.13,9.74 -4.28,9.85 -4.42,0.1 -9.66,-4.14 -11.7,-9.47 -2.05,-5.34 -0.13,-9.74 4.29,-9.85 4.41,-0.1 9.65,4.14 11.7,9.47z"/>
  <path class="fil31" d="M566.77 395.94c-4.41,0.1 -9.65,-4.14 -11.7,-9.47 -1.52,-3.96 -0.85,-7.4 1.4,-8.95 -3.72,0.68 -5.25,4.77 -3.35,9.7 2.05,5.33 7.28,9.57 11.7,9.47 1.14,-0.03 2.1,-0.35 2.88,-0.9 -0.3,0.06 -0.6,0.14 -0.93,0.14z"/>
  <path class="fil65" d="M650.38 380.71c-31.79,4.31 -36.38,12.4 -36.38,12.4l6.22 14.2c0,0 14.07,-5.44 43.02,-4.78l-6.4 -22.91c-2.1,0.42 -4.25,0.8 -6.46,1.1z"/>
  <path class="fil41" d="M719.94 325.9c-42.18,-65.1 -74.58,-52.86 -74.58,-52.86 0,0 -16.13,23.27 36.05,61.45 25.79,18.87 5.89,37.61 -26.01,44.06l7.25 25.96c1.83,0.04 3.68,0.09 5.61,0.18 54.33,2.44 79.77,-35.45 51.69,-78.79z"/>
  <polygon class="fil32" points="754.45,660.7 796.32,642.99 817.77,705.75 769.04,723.41 "/>
  <polygon class="fil63" points="756.36,658.37 796.07,640.23 823.68,697.74 778.69,721.79 "/>
  <path class="fil39" d="M793.47 647.14c0.03,-0.01 0.92,-0.27 1.85,-0.94 0.92,-0.66 1.89,-1.8 1.89,-3.48 0,-0.8 -0.22,-1.7 -0.73,-2.7 -1.01,-1.98 -2.8,-2.95 -4.49,-2.95 -1.05,0 -2.07,0.37 -2.83,1.09 -0.76,0.72 -1.24,1.79 -1.24,3.1 0,0.92 0.23,1.97 0.75,3.12l0.85 -0.38c-0.47,-1.05 -0.67,-1.97 -0.67,-2.74 0.02,-2.16 1.47,-3.25 3.14,-3.27 1.34,0 2.8,0.75 3.66,2.44 0.46,0.9 0.63,1.65 0.63,2.28 -0,1.3 -0.73,2.15 -1.51,2.73 -0.39,0.28 -0.79,0.49 -1.08,0.62l-0.48 0.19 0.26 0.89z"/>
  <path class="fil39" d="M783.76 651.4c0.03,-0.01 0.92,-0.27 1.85,-0.94 0.92,-0.66 1.9,-1.8 1.89,-3.48 0,-0.8 -0.22,-1.7 -0.73,-2.7 -1,-1.98 -2.8,-2.95 -4.48,-2.95 -1.05,0 -2.07,0.37 -2.83,1.09 -0.76,0.72 -1.24,1.79 -1.24,3.11 0,0.92 0.23,1.97 0.75,3.12l0.85 -0.38c-0.47,-1.05 -0.66,-1.97 -0.66,-2.74 0.02,-2.16 1.47,-3.25 3.14,-3.27 1.34,0 2.79,0.75 3.65,2.43 0.46,0.9 0.63,1.65 0.63,2.28 0,1.3 -0.73,2.15 -1.52,2.73 -0.39,0.29 -0.79,0.49 -1.08,0.62l-0.47 0.18 0.26 0.89z"/>
  <path class="fil39" d="M774.05 655.66c0.03,-0.01 0.92,-0.27 1.84,-0.94 0.92,-0.66 1.9,-1.8 1.89,-3.48 0,-0.8 -0.22,-1.7 -0.73,-2.7 -1,-1.99 -2.8,-2.95 -4.48,-2.95 -1.05,0 -2.07,0.37 -2.83,1.1 -0.76,0.72 -1.24,1.79 -1.24,3.1 0,0.92 0.23,1.97 0.75,3.12l0.85 -0.38c-0.47,-1.06 -0.66,-1.98 -0.66,-2.74 0.02,-2.16 1.47,-3.24 3.14,-3.27 1.34,0 2.79,0.75 3.65,2.44 0.46,0.9 0.63,1.65 0.63,2.28 -0.01,1.3 -0.73,2.15 -1.52,2.73 -0.39,0.29 -0.79,0.49 -1.08,0.62l-0.48 0.18 0.26 0.89z"/>
  <path class="fil39" d="M764.34 659.93c0.03,-0.01 0.92,-0.27 1.85,-0.95 0.92,-0.66 1.9,-1.8 1.89,-3.48 0,-0.8 -0.22,-1.7 -0.73,-2.7 -1,-1.98 -2.8,-2.95 -4.48,-2.94 -1.05,0 -2.07,0.37 -2.83,1.09 -0.76,0.72 -1.24,1.79 -1.24,3.11 0,0.92 0.23,1.97 0.75,3.12l0.85 -0.38c-0.47,-1.05 -0.66,-1.97 -0.66,-2.74 0.02,-2.16 1.47,-3.25 3.14,-3.27 1.34,0 2.79,0.75 3.65,2.44 0.46,0.9 0.63,1.65 0.63,2.28 0,1.3 -0.73,2.15 -1.51,2.73 -0.39,0.28 -0.79,0.49 -1.08,0.62l-0.48 0.18 0.26 0.89z"/>
  <path class="fil66" d="M894.54 641.38l-85.14 63.31c-10.09,7.5 -13.26,21.22 -7.48,32.39l82.11 158.8 10.51 -2.47 -46.45 -154.56 73.02 -48.62 -26.57 -48.86z"/>
  <path class="fil67" d="M831.93 687.94l62.61 -46.56 26.57 48.86 -62.64 41.7c-7.46,-16.22 -15.63,-34.83 -26.55,-44z"/>
  <path class="fil68" d="M884.03 895.88l-4.43 40.4 -6.15 17.65 8.07 -4c2.29,-1.13 4.09,-3.04 5.1,-5.39l15.12 -35.27c1.62,-3.78 0.94,-8.15 -1.74,-11.26l-6.55 -7.59 -9.42 5.45z"/>
  <polygon class="fil69" points="879.6,936.29 897.42,895.03 893.45,890.43 884.03,895.88 "/>
  <path class="fil70" d="M848.5 850.59l43.66 -18.42 -34.4 -80.84 58.96 -77.86 -34.11 -29.88 -77.94 60.05c-9.6,7.4 -12.88,20.41 -7.92,31.47l51.75 115.47z"/>
  <polygon class="fil71" points="944.33,707.71 880.71,798.08 810.57,945.8 799.86,945.8 844.17,764.64 906.96,643.6 "/>
  <path class="fil68" d="M799.86 945.8l-15.64 40 -10.93 15.17 9.84 -1.7c1.9,-0.33 3.61,-1.32 4.85,-2.8l22.72 -27.3c1.41,-1.7 2.07,-3.9 1.82,-6.09l-1.95 -17.28 -10.71 0z"/>
  <polygon class="fil72" points="784.22,985.8 811.49,953.94 810.57,945.8 799.86,945.8 "/>
  <polygon class="fil73" points="862.14,760.06 873.44,699.48 879.91,688.44 870.17,697.88 860.08,688.44 866.56,701.37 833.34,758.89 829.19,806.45 852.88,859.32 860.2,856.23 880.05,802.14 "/>
  <path class="fil70" d="M908.3 639.11l25 22.26c17.28,15.38 20.39,41.22 7.26,60.27l-54.94 79.66 -27.97 76.23 -39.18 -14.32 19.23 -101.82 70.61 -122.28z"/>
  <path class="fil74" d="M822.5 584.58c0,0 -35.92,-18.91 -62.47,-43.02 -29.67,-26.94 -34.8,-84.98 -55.14,-108.03l9.62 -12.44c0,0 20,17.19 32.18,47.87 6.75,17 20.13,47.24 79.15,75.77l-3.34 39.86z"/>
  <path class="fil75" d="M845.95 544.73l25.06 14.39c0,0 4.94,49.46 55.82,88.32 0,0 -19.67,51.9 -77.66,25.6 0,0 3.97,-37.68 -30.56,-60.44 -20.77,-13.68 7.24,-67.87 7.24,-67.87l20.11 0z"/>
  <path class="fil39" d="M852.25 474.56c13.8,-3.84 20.25,-12.41 -0.99,-23.94 -26.7,-14.48 -23.05,-44.33 -10.23,-58.77 21.02,-23.68 76.83,-8.7 77.37,18.79 0.55,27.5 -3.86,48.23 -66.15,63.92z"/>
  <path class="fil38" d="M841.27 477.21c0,0 3.7,-28.54 38.73,-24.79 34.03,3.65 52.19,-48.29 16.78,-67.05 0,0 30.66,10.6 33.06,52.57 3.91,68.27 -81.27,93.86 -88.58,39.26z"/>
  <path class="fil42" d="M854.83 494.88c0,0 7.46,-7.44 1.96,-18.25 -6.3,-12.37 -18.93,-6.07 -18.93,-6.07l16.98 24.32z"/>
  <path class="fil38" d="M836.7 527.29l0 0c8.99,2.06 17.63,-4.56 17.97,-13.77l0.9 -24.15c0.36,-9.61 -6.16,-18.12 -15.53,-20.27l-11.83 -2.72 8.49 60.91z"/>
  <polygon class="fil76" points="831.86,582.28 849.16,554.88 832.06,500.85 808.08,501.97 "/>
  <path class="fil77" d="M849.16 554.88c0,0 -18.77,33.42 -21.8,31.35 -3.03,-2.08 3.86,-34.3 3.86,-34.3l17.94 2.96z"/>
  <path class="fil78" d="M811.8 531.55l14.75 2.39 16.14 -34.06c2.85,-12.39 -4.89,-24.74 -17.28,-27.59 -12.39,-2.85 -24.74,4.89 -27.59,17.28l-3.3 14.38c-2.84,12.39 4.89,24.74 17.28,27.59z"/>
  <path class="fil39" d="M835.76 510.94l-0.67 -16.42c0,0 -11.57,-5 -17.8,-22.24 -13.38,1.23 -18.93,14.93 -18.93,14.93 0,0 -12.52,-30.56 35.52,-19.52 13.05,3 17.46,15.79 11.79,40.46l-9.92 2.79z"/>
  <path class="fil79" d="M830.53 510.48c-1.27,5.53 2.19,11.04 7.72,12.31 5.53,1.27 11.05,-2.18 12.31,-7.72 1.27,-5.53 -2.18,-11.04 -7.72,-12.32 -5.53,-1.27 -11.04,2.18 -12.32,7.72z"/>
  <path class="fil80" d="M871.01 559.12c0,0 24.87,57.08 -8.53,108.01 -8.25,12.58 -31.25,13.35 -96.04,44.71l-9.4 -9.03c0,0 11.72,-19.91 46.4,-35.68 34.68,-15.76 46.09,-24.87 44.67,-54.53 -1.42,-29.66 3.15,-54.94 22.9,-53.48z"/>
  <polygon class="fil81" points="819.41,540.25 830.27,534.55 817.09,532.41 "/>
  <path class="fil32" d="M709.64 441.25l-4.35 0.59 1.62 -4.09 28.51 -22.29c0.68,-0.54 1.85,-0.19 2.61,0.78 0.76,0.97 0.82,2.19 0.13,2.72l-28.51 22.29z"/>
  <path class="fil47" d="M538.98 577.43c-4.71,0 -9.42,-1.04 -13.03,-3.12 -7.21,-4.16 -7.25,-10.91 -0.08,-15.07 3.58,-2.08 8.28,-3.12 12.99,-3.12 4.71,0 9.42,1.04 13.03,3.12 3.6,2.08 5.42,4.81 5.43,7.54 0.01,2.73 -1.77,5.45 -5.35,7.53 -3.59,2.08 -8.29,3.13 -13,3.13z"/>
  <path class="fil32" d="M550.16 538.73c-7.93,-1.39 -18.51,2.46 -23.63,8.62 -5.13,6.15 -2.86,12.27 5.07,13.66 7.93,1.39 18.5,-2.47 23.63,-8.62 5.12,-6.16 2.86,-12.27 -5.07,-13.66z"/>
  <polygon class="fil32" points="557.59,543.78 553.25,512.6 507.42,529.32 524.17,555.97 "/>
  <path class="fil63" d="M543.06 505.68c-10.87,-1.91 -25.38,3.38 -32.41,11.82 -7.03,8.44 -3.92,16.83 6.95,18.74 10.87,1.91 25.38,-3.39 32.41,-11.82 3.52,-4.22 4.49,-8.42 3.24,-11.81 -1.26,-3.39 -4.75,-5.97 -10.19,-6.92z"/>
  <path class="fil38" d="M540.04 509.3c-8.29,-1.46 -19.36,2.58 -24.72,9.02 -5.36,6.44 -2.99,12.84 5.31,14.29 8.29,1.46 19.36,-2.58 24.72,-9.02 2.68,-3.22 3.43,-6.42 2.47,-9.01 -0.96,-2.59 -3.63,-4.55 -7.77,-5.28z"/>
  <path class="fil35" d="M542.44 526.43c0.12,-2.19 0.62,-4.46 1.7,-6.66 8.42,-17.16 9.52,-25.79 -1.08,-35.11 -7.73,-6.8 -17.42,-2.5 -26.96,-25.6 -6.58,-15.93 -27.23,-11.53 -29.53,6.22 -2.59,20.05 3.63,40.12 17.67,46.99 14.1,6.89 14.67,14.13 14.69,19.73 0.66,0.32 1.23,0.54 1.68,0.62 6.99,1.23 15.96,-1.45 21.81,-6.18z"/>
  <g style="clip-path:url(#id0)">
   <image x="482.52" y="446.87" width="71.73" height="89.55" xlink:href="19_Images\19_ImgID1.png"/>
  </g>
  <path class="fil34" d="M531.46 531.89c-0.06,-1.4 -0.11,-2.95 -0.11,-4.63 0,-3.51 0.18,-7.57 0.72,-11.88 0.14,-1.13 0.21,-2.19 0.21,-3.18 0.01,-5.49 -2.11,-9.11 -5.18,-12.02 -3.07,-2.91 -7.07,-5.19 -10.98,-8.19 -8.79,-6.79 -14.18,-11.39 -14.7,-26.66l-0.48 -0.45 -0.45 0.48c0.46,15.51 6.25,20.63 15.06,27.37 3.97,3.05 7.96,5.32 10.9,8.13 2.95,2.81 4.88,6.09 4.89,11.34 0,0.95 -0.07,1.97 -0.2,3.07 -0.55,4.36 -0.73,8.45 -0.73,12 0,1.77 0.05,3.4 0.12,4.86 0.31,-0.07 0.61,-0.15 0.92,-0.23z"/>
  <polygon class="fil32" points="557.74,619.59 518.1,597.32 489.79,657.3 536.25,680.28 "/>
  <polygon class="fil63" points="556.09,617.06 518.66,594.6 484.82,648.68 526.84,677.59 "/>
  <path class="fil39" d="M520.83 600.9l-0.42 -0.21c-0.79,-0.45 -2.29,-1.56 -2.27,-3.27 0,-0.7 0.23,-1.54 0.9,-2.56 0.94,-1.43 2.27,-2.03 3.5,-2.03 1.72,0.02 3.18,1.14 3.19,3.14 0,0.87 -0.28,1.92 -0.99,3.13l0.8 0.47c0.78,-1.32 1.12,-2.53 1.12,-3.6 0.01,-1.25 -0.49,-2.29 -1.25,-2.99 -0.76,-0.71 -1.79,-1.08 -2.86,-1.08 -1.54,-0 -3.18,0.78 -4.27,2.45 -0.74,1.13 -1.05,2.16 -1.05,3.07 0,1.52 0.85,2.62 1.64,3.31 0.8,0.7 1.58,1.02 1.61,1.03l0.36 -0.86z"/>
  <path class="fil39" d="M530 606.22l-0.42 -0.21c-0.79,-0.45 -2.29,-1.56 -2.27,-3.28 0,-0.7 0.23,-1.54 0.9,-2.56 0.94,-1.43 2.27,-2.03 3.5,-2.04 1.71,0.02 3.17,1.14 3.19,3.14 0,0.86 -0.28,1.92 -0.99,3.13l0.8 0.47c0.78,-1.32 1.12,-2.53 1.12,-3.6 0,-1.25 -0.49,-2.29 -1.26,-3 -0.76,-0.71 -1.79,-1.08 -2.86,-1.08 -1.54,-0 -3.18,0.78 -4.28,2.45 -0.74,1.12 -1.05,2.16 -1.05,3.07 0,1.52 0.85,2.62 1.64,3.31 0.8,0.69 1.58,1.02 1.61,1.04l0.36 -0.86z"/>
  <path class="fil39" d="M539.18 611.54l-0.41 -0.21c-0.79,-0.45 -2.29,-1.56 -2.27,-3.28 0,-0.7 0.23,-1.54 0.9,-2.56 0.94,-1.43 2.27,-2.03 3.5,-2.03 1.72,0.02 3.17,1.14 3.19,3.14 0,0.86 -0.28,1.91 -0.99,3.13l0.8 0.47c0.78,-1.32 1.12,-2.53 1.12,-3.59 0,-1.25 -0.49,-2.29 -1.25,-3 -0.77,-0.71 -1.79,-1.08 -2.86,-1.08 -1.54,-0 -3.18,0.78 -4.27,2.45 -0.74,1.13 -1.05,2.16 -1.05,3.07 0,1.52 0.85,2.62 1.64,3.31 0.8,0.7 1.58,1.02 1.61,1.04l0.36 -0.86z"/>
  <path class="fil39" d="M548.36 616.86l-0.42 -0.21c-0.79,-0.45 -2.29,-1.56 -2.27,-3.28 0,-0.7 0.23,-1.54 0.9,-2.56 0.94,-1.43 2.27,-2.03 3.5,-2.04 1.71,0.02 3.17,1.14 3.19,3.15 0,0.86 -0.28,1.91 -1,3.12l0.8 0.47c0.78,-1.32 1.12,-2.53 1.12,-3.59 0,-1.25 -0.49,-2.29 -1.25,-3 -0.77,-0.71 -1.79,-1.08 -2.86,-1.08 -1.54,0 -3.18,0.78 -4.28,2.45 -0.74,1.13 -1.05,2.16 -1.05,3.07 0,1.52 0.85,2.62 1.64,3.31 0.8,0.69 1.58,1.02 1.61,1.03l0.36 -0.85z"/>
  <path class="fil35" d="M337.58 768.57l14.9 37.85 12.42 13.97 -8.99 -0.62c-2.55,-0.18 -4.95,-1.25 -6.78,-3.04l-25.34 -27.53c-2.94,-2.87 -3.98,-7.17 -2.69,-11.07l4.13 -11.65 12.34 2.1z"/>
 </g>
</svg>
