<svg href="assets/css/main.css" class="brandlamp" xmlns="http://www.w3.org/2000/svg" xml:space="preserve" width="106.737mm" version="1.1" style="shape-rendering:geometricPrecision; text-rendering:geometricPrecision; image-rendering:optimizeQuality; fill-rule:evenodd; clip-rule:evenodd"
                viewBox="0 0 817.78 889.9"
                 xmlns:xlink="http://www.w3.org/1999/xlink"
                 >
                 <defs>
                  <style type="text/css">
                   <![CDATA[
                    .brandlamp .str0 {stroke:white;stroke-width:1.35;stroke-linecap:round;stroke-miterlimit:10}
                    .brandlamp .fil25 {fill:none;fill-rule:nonzero}
                    .brandlamp .fil28 {fill:#FFAF72}
                    .brandlamp .fil2 {fill:#0B3B56;fill-rule:nonzero}
                    .brandlamp .fil5 {fill:#272E39;fill-rule:nonzero}
                    .brandlamp .fil17 {fill:#3434A5;fill-rule:nonzero}
                    .brandlamp .fil3 {fill:#3B4850;fill-rule:nonzero}
                    .brandlamp .fil27 {fill:#3D2344;fill-rule:nonzero}
                    .brandlamp .fil13 {fill:#5252C6;fill-rule:nonzero}
                    .brandlamp .fil26 {fill:#542F5D;fill-rule:nonzero}
                    .brandlamp .fil8 {fill:#71B3E9;fill-rule:nonzero}
                    .brandlamp .fil20 {fill:#754482;fill-rule:nonzero}
                    .brandlamp .fil7 {fill:#7BB8F4;fill-rule:nonzero}
                    .brandlamp .fil16 {fill:#91BC69;fill-rule:nonzero}
                    .brandlamp .fil18 {fill:#9AC670;fill-rule:nonzero}
                    .brandlamp .fil0 {fill:#D7EEFC;fill-rule:nonzero}
                    .brandlamp .fil4 {fill:#DB907D;fill-rule:nonzero}
                    .brandlamp .fil24 {fill:#DD3F26;fill-rule:nonzero}
                    .brandlamp .fil14 {fill:#E28CA5;fill-rule:nonzero}
                    .brandlamp .fil29 {fill:#E47E54;fill-rule:nonzero}
                    .brandlamp .fil15 {fill:#E9BC70;fill-rule:nonzero}
                    .brandlamp .fil1 {fill:#EBAB94;fill-rule:nonzero}
                    .brandlamp .fil31 {fill:#F9CCDA;fill-rule:nonzero}
                    .brandlamp .fil23 {fill:#FD6041;fill-rule:nonzero}
                    .brandlamp .fil9 {fill:#FF4810;fill-rule:nonzero}
                    .brandlamp .fil6 {fill:#FF6139;fill-rule:nonzero}
                    .brandlamp .fil21 {fill:#FFAF72;fill-rule:nonzero}
                    .brandlamp .fil10 {fill:white;fill-rule:nonzero}
                    .brandlamp .fil12 {fill:#91BC69;fill-rule:nonzero;fill-opacity:0.301961}
                    .brandlamp .fil30 {fill:#E47E54;fill-rule:nonzero;fill-opacity:0.501961}
                    .brandlamp .fil22 {fill:#FFAF72;fill-rule:nonzero;fill-opacity:0.501961}
                    .brandlamp .fil19 {fill:white;fill-rule:nonzero;fill-opacity:0.701961}
                    .brandlamp .fil11 {fill:url(#id2);fill-rule:nonzero}
                   ]]>
                  </style>
                    <mask id="id0">
                  <linearGradient id="id1" gradientUnits="userSpaceOnUse" x1="115.29" y1="667.49" x2="227.02" y2="667.49">
                   <stop offset="0" style="stop-opacity:0.298039; stop-color:white"/>
                   <stop offset="1" style="stop-opacity:0.00784314; stop-color:white"/>
                  </linearGradient>
                     <rect style="fill:url(#id1)" x="115" y="659.7" width="112.32" height="15.59"/>
                    </mask>
                  <linearGradient id="id2" gradientUnits="userSpaceOnUse" x1="115.29" y1="667.49" x2="227.02" y2="667.49">
                   <stop offset="0" style="stop-opacity:1; stop-color:#5252C6"/>
                   <stop offset="1" style="stop-opacity:1; stop-color:#5252C6"/>
                  </linearGradient>
                 </defs>
                 <g id="Слой_x0020_1">
                  <metadata id="CorelCorpID_0Corel-Layer"/>
                  <path class="fil0" d="M236.5 0c239.78,0 157,78.16 241.59,69.63 63.13,-6.36 113.47,39.08 185.92,19.9 193.96,-51.36 202.75,227.27 35.89,323.65 -77.12,44.54 -78.86,26.2 -91.19,90.02 -16.2,83.81 -12.32,138.32 -102.65,159.73 -43.97,10.42 -141.82,-3.27 -160.48,38.59 -64.28,144.2 -130.74,107.45 -237.67,171.65 -56.83,34.12 -97.1,12.53 -101.94,-33.08 -8.9,-83.8 -6.33,-430.88 -2.01,-502.99 7.68,-128.15 25.03,-238.94 62.93,-272.57 46.23,-41.02 112.01,-64.53 169.61,-64.53z"/>
                  <g id="_1919549148160">
                   <g>
                    <g>
                     <g>
                      <g>
                       <path class="fil1" d="M729.67 640.33c-0.48,7.31 -0.12,14.68 1.07,21.92 0.07,0.44 0.14,0.9 -0.01,1.32 -0.23,0.61 -0.87,0.95 -1.46,1.22 -9.04,4.16 -19.05,6.22 -29,5.96 0.95,-1 2.17,-1.69 3.33,-2.44 9.07,-5.91 14.31,-17.22 12.95,-27.96l13.12 -0.02z"/>
                      </g>
                      <g>
                       <path class="fil2" d="M721.22 665.7c-2.21,1.16 -4.59,2.25 -7.08,2.1 -2.49,-0.15 -5.05,-1.97 -5.18,-4.46 -3.9,0.13 -6.9,3.34 -10.4,5.05 -5.34,2.62 -11.73,1.69 -17.47,3.24 -1.36,0.37 -2.77,0.93 -3.59,2.08 -0.82,1.15 -0.75,3.02 0.47,3.74 0.39,0.23 0.85,0.32 1.3,0.4 12.45,2.27 25.38,1.85 37.66,-1.21 1.24,-0.31 2.54,-0.65 3.79,-0.35 0.87,0.21 1.64,0.72 2.51,0.93 1.07,0.26 2.19,0.07 3.27,-0.13 2.04,-0.38 4.09,-0.75 6.13,-1.13 0.59,-0.11 1.22,-0.24 1.62,-0.69 0.31,-0.35 0.42,-0.84 0.5,-1.31 0.5,-2.8 -0.96,-5.09 -1.25,-7.92 -0.13,-1.21 -1.14,-3.8 -1.95,-4.71 -1.6,-1.79 -2.18,-0.55 -4.34,0.49 -2.16,1.04 -4.1,2.5 -6,3.86z"/>
                      </g>
                      <g>
                       <path class="fil1" d="M684.23 637.47c1.77,7.11 4.34,14.03 7.67,20.56 0.2,0.4 0.41,0.81 0.39,1.26 -0.03,0.65 -0.54,1.17 -1.02,1.61 -7.36,6.71 -16.26,11.7 -25.82,14.48 0.6,-1.24 1.56,-2.27 2.43,-3.34 6.85,-8.39 8.41,-20.75 3.85,-30.57l12.5 -4z"/>
                      </g>
                      <g>
                       <path class="fil2" d="M685.1 664.18c-1.99,1.44 -4.15,2.83 -6.6,3.03 -2.44,0.2 -5.19,-1.21 -5.66,-3.62 -3.78,0.67 -6.25,4.21 -9.42,6.37 -4.83,3.3 -11.18,3.28 -16.56,5.59 -1.28,0.55 -2.57,1.3 -3.2,2.53 -0.64,1.23 -0.31,3.04 0.98,3.57 0.42,0.17 0.88,0.19 1.32,0.21 12.44,0.46 24.97,-1.75 36.5,-6.44 1.17,-0.48 2.39,-0.99 3.64,-0.87 0.88,0.08 1.7,0.47 2.58,0.56 1.08,0.11 2.14,-0.24 3.17,-0.59 1.94,-0.65 3.87,-1.31 5.81,-1.96 0.56,-0.19 1.16,-0.41 1.48,-0.9 0.26,-0.39 0.29,-0.88 0.31,-1.34 0.1,-2.79 -1.64,-4.82 -2.33,-7.53 -0.29,-1.16 -1.65,-3.54 -2.56,-4.31 -1.81,-1.52 -2.2,-0.23 -4.16,1.08 -1.96,1.31 -3.64,3.01 -5.3,4.6z"/>
                      </g>
                     </g>
                     <g>
                      <path class="fil3" d="M729.1 450.8c5.69,26.95 1.52,54.89 2.01,82.44 0.22,12.25 1.36,24.46 2.01,36.69 1.33,24.99 0.62,50.09 -2.14,74.96 -5.98,0.91 -12.07,1.12 -18.09,0.62 -1.75,-17.86 -3.49,-35.71 -5.24,-53.57 -1.01,-10.3 -2.02,-20.62 -4.13,-30.76 -1.51,-7.26 -3.58,-14.4 -5.2,-21.64 -2.65,-11.89 -4.07,-24.02 -5.43,-36.13 -8.96,19.34 -17.92,38.68 -26.88,58.01 -1.32,2.84 -2.65,5.75 -2.97,8.87 -0.37,3.67 0.71,7.32 1.8,10.85 6.88,22.23 14.79,44.15 23.68,65.65 -4.82,2.1 -9.64,4.21 -14.46,6.31 -0.79,0.35 -1.67,0.7 -2.5,0.46 -1.07,-0.31 -1.63,-1.44 -2.06,-2.47 -9.3,-21.86 -18.6,-43.71 -27.9,-65.57 -3,-7.05 -6.06,-14.52 -5.09,-22.12 0.73,-5.72 1.1,-10.2 2.91,-17.2 1.69,-6.52 5.03,-15.14 6.66,-21.67 6.61,-26.49 15.42,-49.64 22.03,-76.13 0.42,-1.68 0.89,-3.46 2.15,-4.65 1.1,-1.05 2.64,-1.47 4.12,-1.84 14.74,-3.71 29.9,-5.77 45.1,-6.12 2.37,-0.06 4.96,0.01 6.78,1.52l2.83 13.49z"/>
                     </g>
                    </g>
                    <g>
                     <path class="fil4" d="M691.26 308.22c-0.46,3.37 -0.52,6.8 -0.19,10.19 0.17,1.68 0.45,3.39 1.23,4.89 1.76,3.35 5.61,4.94 9.16,6.27 -2.59,2.07 -4.47,4.91 -6.97,7.09 -7.14,6.19 -18.55,5.63 -26.36,0.29 4.87,-2.91 6.18,-10.39 2.6,-14.79l20.52 -13.93z"/>
                    </g>
                    <g>
                     <path class="fil1" d="M659.58 292.85c-0.66,10.7 2.43,21.6 8.62,30.37 1.41,2 3.18,4.02 5.59,4.47 1.73,0.32 3.51,-0.23 5.09,-1.01 7.4,-3.64 11.53,-11.81 13.29,-19.87 2.03,-9.3 1.04,-20.23 -6.12,-26.49l-26.47 12.53z"/>
                     <path class="fil1" d="M691.94 306.83c3.35,-1.77 5.45,-5.67 5.09,-9.44 -0.05,-0.51 -0.16,-1.06 -0.52,-1.42 -0.52,-0.52 -1.4,-0.5 -2.04,-0.15 -0.64,0.35 -1.1,0.96 -1.54,1.54l-0.99 9.47z"/>
                     <path class="fil2" d="M695.27 296.28c1.14,-6.17 1.2,-12.59 -1.68,-18.16 -2.52,-4.86 -7.46,-8.26 -12.82,-9.36 -5.36,-1.1 -11.05,-0.01 -15.89,2.54 -2.95,1.56 -5.67,3.67 -8.88,4.59 -3.3,0.95 -7.17,0.68 -9.74,2.96 -1.81,1.62 -2.5,4.17 -2.62,6.59 -0.41,8.61 6.06,17.03 14.49,18.85 0.66,0.14 1.49,0.18 1.84,-0.39 0.19,-0.31 0.17,-0.71 0.11,-1.08 -0.34,-2.43 -1.16,-5.4 0.73,-6.97 6.13,2.76 13.51,1.06 19.19,-2.53 2.35,-1.48 5.35,-3.29 7.62,-1.69 1.77,1.25 1.8,3.8 2.05,5.96 0.25,2.16 1.55,4.76 3.71,4.52 0.63,-1.95 1.26,-3.89 1.89,-5.84z"/>
                     <g>
                      <path class="fil5" d="M674.64 302.32c2.17,0.48 4.57,0.27 6.16,-1.44 0.46,-0.49 1.21,0.25 0.74,0.74 -1.85,1.98 -4.65,2.26 -7.18,1.71 -0.66,-0.15 -0.38,-1.16 0.28,-1.01z"/>
                     </g>
                     <g>
                      <path class="fil2" d="M681.83 296.76c-1.49,-0.38 -2.96,-0.52 -4.39,0.1 -1.26,0.54 -2.4,1.37 -3.58,2.07 -0.49,0.29 -0.94,-0.47 -0.45,-0.77 1.39,-0.83 2.77,-1.88 4.33,-2.38 1.41,-0.45 2.92,-0.25 4.33,0.11 0.55,0.14 0.32,1 -0.24,0.86z"/>
                     </g>
                     <g>
                      <path class="fil2" d="M658.22 298.04c1.27,-0.72 2.65,-1.31 4.14,-1.25 1.64,0.06 3.25,0.72 4.81,1.14 0.55,0.15 0.32,1.01 -0.24,0.86 -3.08,-0.84 -5.28,-1.68 -8.26,0.02 -0.5,0.28 -0.94,-0.48 -0.45,-0.77z"/>
                     </g>
                     <g>
                      <path class="fil5" d="M668.59 303.86c-0.7,0.95 -2.14,1.08 -3.25,1.05 -1.48,-0.04 -2.82,-0.9 -4.06,-1.64 -0.58,-0.35 -0.05,-1.26 0.53,-0.91 0.79,0.47 1.64,1.02 2.52,1.32 0.69,0.23 2.79,0.42 3.36,-0.35 0.4,-0.54 1.31,-0.02 0.91,0.53z"/>
                     </g>
                     <path class="fil4" d="M670.44 302.38c0.33,3.27 -0.44,5.8 -0.68,9.08 -0.04,0.49 -0.01,1.1 0.44,1.3 0.16,0.07 0.33,0.07 0.51,0.07 1.24,-0.01 2.48,-0.02 3.71,-0.03 0.06,-0 0.12,-0 0.18,-0.03 0.14,-0.07 0.14,-0.26 0.12,-0.42 -0.29,-2.13 -1.06,-4.17 -1.82,-6.18 -0.39,-1.05 -2.52,-7.39 -2.45,-3.79z"/>
                     <path class="fil4" d="M671.24 317.09c1.19,0.03 2.39,-0.05 3.57,-0.25 0.66,-0.11 1.39,-0.24 1.96,0.12 0.07,0.04 0.14,0.1 0.15,0.18 0.01,0.11 -0.1,0.2 -0.2,0.25 -0.64,0.37 -1.28,0.75 -1.91,1.13 -0.38,0.22 -0.77,0.45 -1.2,0.54 -0.79,0.16 -1.59,-0.15 -2.33,-0.45 -0.34,-0.14 -0.7,-0.3 -0.88,-0.61 -0.18,-0.32 -0.04,-0.83 0.32,-0.86l0.53 -0.04z"/>
                    </g>
                    <g>
                     <g>
                      <path class="fil6" d="M698.72 328.47c-4,7.58 -12.7,11.59 -21.18,10.36 -2.88,-0.42 -5.68,-1.3 -7.18,-3.79 -0.95,1.12 -2.35,1.72 -3.69,2.32 -0.81,0.37 -1.7,0.63 -2.37,1.22 -1.64,1.41 -1.42,3.96 -1.08,6.09 3.25,20.56 4.69,41.35 6.12,62.11 0.39,5.69 0.79,11.38 1.18,17.07 0.52,7.57 1.04,15.22 -0.18,22.7 -0.12,0.74 -0.25,1.53 0.06,2.21 0.44,0.97 1.6,1.35 2.63,1.6 10.36,2.52 21.48,1.82 31.44,-1.98 1.82,-0.7 3.78,-1.66 4.49,-3.48 0.51,-1.29 0.27,-2.75 0.04,-4.12 -3.15,-19.25 -1.54,-38.96 -3.38,-58.38 -0.39,-4.07 -0.92,-8.12 -1.22,-12.2 -0.76,-10.36 0.03,-20.83 2.34,-30.96 0.39,-1.71 0.82,-3.49 0.39,-5.19 -0.96,-3.73 -4.88,-4.65 -8.38,-5.61z"/>
                     </g>
                     <g>
                      <path class="fil7" d="M670.1 335.2c5.15,15.05 4.13,29.93 5.07,45.8 0.36,6.14 1.06,12.26 1.27,18.4 0.2,5.64 -0.02,11.29 -0.23,16.93 -0.64,17.04 -1.27,34.07 -1.91,51.11 -0.03,0.72 -0.07,1.49 -0.48,2.08 -0.44,0.63 -1.21,0.93 -1.94,1.17 -4.78,1.57 -9.89,2.13 -14.9,1.64 0.72,-15.06 1.93,-30.1 3.64,-45.08 0.38,-3.37 0.79,-6.76 0.8,-10.15 0.01,-4.01 -0.55,-8 -1.1,-11.98 -1.87,-13.39 -3.74,-26.82 -7.04,-39.93 -1.6,-6.34 -3.48,-13.3 -0.6,-19.17 2.35,-4.81 6.87,-5.7 11.57,-8.25 1.74,-0.95 4.12,-1.61 5.86,-2.56z"/>
                     </g>
                     <g>
                      <path class="fil8" d="M654.59 343.28c2.75,2.39 2.07,7.24 2.24,11.22 0.37,8.43 0.66,16.85 0.25,25.27 -0.42,8.59 -0.84,17.18 -1.25,25.77 -0.09,1.88 -0.31,4 -1.81,5.13 -1.56,1.18 -3.77,0.72 -5.66,0.21 -0.93,-0.25 -1.93,-0.55 -2.49,-1.33 -0.36,-0.5 -0.49,-1.14 -0.59,-1.75 -2.63,-14.94 -1.46,-30.27 0.33,-45.33 0.33,-2.78 0.68,-5.57 1.46,-8.25 1.06,-3.65 4.11,-10.03 7.53,-10.95z"/>
                     </g>
                     <g>
                      <path class="fil9" d="M709.03 399.06c-1.84,0.59 -3.66,-0.89 -4.94,-2.34 -4.69,-5.3 -8.25,-11.87 -14.33,-15.48 -1.75,-1.03 -4.08,-1.74 -5.7,-0.53 -1.46,1.09 -1.62,3.21 -1.46,5.03 0.67,7.48 4.56,14.38 9.59,19.95 5.03,5.57 11.19,9.99 17.3,14.36l-0.45 -20.99z"/>
                     </g>
                     <g>
                      <path class="fil9" d="M709.09 428.23c-6.61,-6.78 -13.3,-13.48 -20.07,-20.11 -1.48,-1.45 -3.24,-3 -5.3,-2.82 -1.75,0.15 -3.19,1.61 -3.74,3.28 -0.55,1.67 -0.35,3.5 0.09,5.19 2.32,8.89 10.55,14.75 18.2,19.83 6.16,4.1 12.33,8.19 18.49,12.29l-7.67 -17.67z"/>
                     </g>
                     <g>
                      <path class="fil7" d="M701.46 329.2c-0.24,6.43 -0.48,12.86 -0.73,19.29 -0.16,4.23 -0.32,8.46 -0.89,12.65 -0.7,5.17 -2.03,10.24 -2.57,15.43 -0.54,5.13 -0.32,10.31 0,15.46 1.56,25.2 5.43,50.3 5.05,75.54 -0.01,0.66 0,1.39 0.43,1.88 0.45,0.52 1.21,0.61 1.89,0.64 6.34,0.28 12.82,-2 18.93,-0.3 2.77,0.77 5.38,2.35 8.26,2.36 0.83,0 1.77,-0.2 2.21,-0.91 0.39,-0.63 0.24,-1.44 0.1,-2.17 -2.68,-13.26 -1.41,-26.97 -2.32,-40.47 -1.21,-18 -6.3,-35.66 -6.33,-53.7 -0.01,-5.77 0.5,-11.52 1,-17.26 0.52,-5.85 1.03,-11.7 1.55,-17.55 -8.21,-4.44 -17.73,-7.89 -26.57,-10.9z"/>
                     </g>
                     <polygon class="fil10" points="679.65,443.19 672.21,380.07 631.15,380.07 636.33,443.19 "/>
                     <g>
                      <path class="fil1" d="M731.96 410.74c-14.69,4.04 -29.97,5.95 -45.21,5.65 -2.55,-0.05 -5.37,-0.28 -7.16,-2.1 -1.54,-1.57 -2.16,-4.17 -4.24,-4.89 -0.52,1.53 0.62,3.46 -0.39,4.72 -0.83,1.05 -2.47,0.78 -3.74,0.39 -3.79,-1.17 -7.48,-2.62 -11.05,-4.33 -0.65,-0.31 -1.69,-0.46 -1.85,0.24 -0.03,0.16 -0,0.32 0.03,0.48 0.97,4.48 4.63,7.99 8.77,9.96 4.14,1.97 8.76,2.62 13.3,3.25 10.8,1.51 21.65,3.01 32.56,2.96 10.91,-0.05 21.96,-1.72 31.85,-6.3l-12.87 -10.04z"/>
                     </g>
                     <g>
                      <path class="fil8" d="M728.03 340.09c-6.22,9.07 -7.27,21.1 -5,31.85 2.27,10.75 6.69,20.96 8.98,31.71 0.52,2.47 0.83,5.36 -0.87,7.23 4.75,4.57 3.87,7.05 6.7,13 0.26,0.55 -0.05,0.69 0.71,1.7 0.46,0.61 3.88,-1.57 4.5,-2.01 4.71,-3.37 7.33,-4.12 7.66,-9.89 0.49,-8.45 -1.72,-16.8 -4.05,-24.93 -3.91,-13.67 -8.21,-27.23 -12.9,-40.66 -1.17,-3.35 -2.56,-6.41 -5.73,-8z"/>
                     </g>
                    </g>
                   </g>
                   <path class="fil11" style="mask:url(#id0)" d="M227.02 667.49c0,4.14 -25.01,7.5 -55.87,7.5 -30.85,0 -55.87,-3.36 -55.87,-7.5 0,-4.14 25.01,-7.5 55.87,-7.5 30.85,0 55.87,3.36 55.87,7.5z"/>
                   <polygon class="fil10" points="481.03,523.13 146.73,550.28 146.73,130.29 481.03,157.44 "/>
                   <path class="fil12" d="M250.93 235.54c1.5,12.81 12.15,23.37 12.74,36.25 0.7,15.38 -12.73,27.2 -24.57,37.03 -11.67,9.69 -23.3,20.25 -29.54,34.08 -6.24,13.83 -5.77,31.75 4.96,42.48 12.75,12.75 34.44,11.21 48.83,22.08 10.98,8.29 15.74,22.2 23.07,33.84 15.75,25 45.86,40.2 75.33,38.03 8.13,-0.6 16.98,-2.94 21.53,-9.71 5.49,-8.17 2.5,-19.35 -2.41,-27.87 -4.92,-8.53 -11.67,-16.31 -13.81,-25.92 -4.55,-20.4 13.01,-38.72 30.13,-50.71 17.12,-11.99 37.15,-24.54 41.17,-45.05 4.29,-21.85 -12.04,-42.42 -29.84,-55.81 -10.58,-7.96 -22.6,-15.29 -28.36,-27.21 -4.73,-9.78 -4.49,-21.26 -8.23,-31.46 -5.19,-14.11 -18.45,-24.93 -33.33,-27.17 -27.34,-4.1 -32.25,18.12 -51.9,27.65 -14.52,7.03 -38.85,3.08 -35.76,29.48z"/>
                   <g>
                    <path class="fil10 color" d="M722.35 188.38c0,-18.19 -15.23,-32.82 -33.64,-31.84 -16.28,0.87 -29.51,14.35 -30.1,30.64 -0.32,8.89 3,16.98 8.58,22.94 4.6,4.91 8.49,10.44 11.09,16.64l1.71 4.08 0 6.04 8.33 0 4.29 0 8.33 0 0 -6.04 1.14 -2.72c2.87,-6.83 7.11,-12.94 12.07,-18.44 5.09,-5.64 8.2,-13.11 8.2,-21.31z"/>
                    <polygon class="fil13" points="701.7,246.75 679.23,246.75 679.23,231.06 701.7,231.06 "/>
                    <g>
                     <polygon class="fil13" points="694.33,238.17 687.95,238.17 676.38,184.24 678.87,183.7 690.01,235.62 692.21,235.62 702.06,182.67 704.56,183.13 "/>
                    </g>
                    <path class="fil13" d="M695.46 247.11c0,2.76 -2.24,4.99 -4.99,4.99 -2.76,0 -4.99,-2.24 -4.99,-4.99 0,-2.76 2.24,-4.99 4.99,-4.99 2.76,0 4.99,2.24 4.99,4.99z"/>
                    <g>
                     <g>
                      <g>
                       <polygon class="fil10 color" points="691.58,144.64 689.74,144.64 689.74,118.53 691.58,118.53 "/>
                      </g>
                     </g>
                     <g>
                      <g>
                       <polygon class="fil10 color" points="754.67,183.47 728.57,183.47 728.57,181.63 754.67,181.63 "/>
                      </g>
                      <g>
                       <polygon class="fil10 color" points="652.75,183.47 626.65,183.47 626.65,181.63 652.75,181.63 "/>
                      </g>
                     </g>
                     <g>
                      <g>
                       <polygon class="fil10 color" points="661.52,158.28 641.87,141.09 643.08,139.71 662.73,156.9 "/>
                      </g>
                     </g>
                     <g>
                      <g>
                       <polygon class="fil10 color" points="716.31,154.62 714.93,153.41 732.11,133.76 733.49,134.97 "/>
                      </g>
                     </g>
                    </g>
                   </g>
                   <polygon class="fil14" points="518.78,191.71 461.92,188.98 461.92,99.11 518.78,103.72 "/>
                   <polygon class="fil14" points="166.26,340.27 126.3,338.35 126.3,275.18 166.26,278.41 "/>
                   <polygon class="fil13" points="176.72,375.11 144.64,373.57 144.64,322.86 176.72,325.46 "/>
                   <polygon class="fil15" points="442.93,187.74 392.84,189.59 392.84,126.62 442.93,128.48 "/>
                   <polygon class="fil15" points="290.73,567.07 240.64,568.93 240.64,505.96 290.73,507.82 "/>
                   <g>
                    <path class="fil16" d="M165.2 537.56c-1.23,-6.02 -2.47,-12.16 -1.74,-18.26 0.93,-7.87 5.04,-14.99 9.63,-21.45 2.78,-3.92 7.39,-8.13 11.73,-6.08 1.7,0.8 2.86,2.43 3.78,4.07 6.57,11.68 4.82,26.02 4,39.4 -0.56,9.19 -0.61,18.6 -3.69,27.28 -1.03,2.9 -2.44,5.76 -4.7,7.86 -2.26,2.1 -5.5,3.32 -8.49,2.57 -6.75,-1.7 -8.41,-10.9 -8.56,-16.74 -0.16,-6.52 -0.65,-12.13 -1.98,-18.64z"/>
                    <path class="fil17" d="M185.01 604c3.62,1.04 7.48,2.57 9.21,5.77 -2.26,3.36 -4.89,6.5 -7.83,9.35 -4.36,4.22 -10.08,7.99 -16.26,7.38 -6.24,-0.62 -10.94,-5.42 -15.63,-9.39 -4.07,-3.45 -10.12,-5.66 -13.81,-9.22 -5.12,-4.95 1.71,-5.83 6.43,-6.49 12.63,-1.78 25.67,-0.9 37.89,2.61z"/>
                    <path class="fil18" d="M166.93 616.61c-5.77,-7.22 -35.39,-18.45 -42.01,-24.91 -11.51,-11.22 -18.23,-27.2 -18.21,-43.28 0.03,-19.36 9.31,-37.78 9.57,-57.14 0.12,-8.9 -1.67,-17.76 -1.23,-26.65 0.44,-8.89 3.69,-18.37 11.26,-23.05 10.91,-6.73 26.18,-0.02 32.73,11 6.55,11.02 6.52,24.66 5.35,37.43 -1.17,12.77 -3.26,25.81 -0.19,38.26 4.96,20.16 22.57,35.26 28.09,55.28 2.12,7.68 -17.97,23.82 -18.19,31.79 -0.25,9.05 -0.66,20.93 -4.63,29.06 -5.58,11.41 8.85,16.11 -2.11,3.37 -7.4,-8.61 7.87,-20.79 -0.42,-31.16z"/>
                    <g>
                     <path class="fil13" d="M169.1 627.05l-0.9 -0.16c3.75,-21.13 -0.5,-43.76 -11.68,-62.08 -1.25,-2.04 -2.61,-4.09 -3.92,-6.06 -3.7,-5.57 -7.53,-11.32 -9.37,-17.85 -2.75,-9.72 -0.83,-19.95 1.03,-29.83 0.49,-2.59 0.99,-5.26 1.39,-7.87 3.12,-20.07 -0.11,-38.02 -9.1,-50.55l0.75 -0.53c9.13,12.72 12.42,30.91 9.26,51.22 -0.41,2.62 -0.91,5.3 -1.4,7.9 -1.83,9.78 -3.73,19.89 -1.04,29.41 1.8,6.39 5.59,12.09 9.25,17.6 1.32,1.98 2.68,4.04 3.94,6.09 11.29,18.51 15.59,41.37 11.8,62.72z"/>
                    </g>
                    <g>
                     <path class="fil13" d="M146.23 498.53c-5.7,-6.79 -10.99,-11.98 -17.17,-16.82l0.57 -0.72c6.23,4.89 11.56,10.12 17.3,16.95l-0.7 0.59z"/>
                    </g>
                    <g>
                     <path class="fil13" d="M148.1 550l-0.78 -0.48c1.44,-2.34 3.16,-5.23 4.89,-8.12 1.72,-2.89 3.45,-5.79 4.89,-8.14l0.78 0.48c-1.44,2.34 -3.16,5.23 -4.89,8.12 -1.72,2.89 -3.45,5.79 -4.89,8.13z"/>
                    </g>
                    <g>
                     <path class="fil13" d="M167.07 591.11c-2.63,-4.13 -7.84,-5.4 -12.87,-6.62l-1.36 -0.33c-7.48,-1.86 -14.6,-4.88 -21.15,-8.96l0.48 -0.78c6.47,4.03 13.5,7.01 20.89,8.85l1.36 0.33c4.97,1.21 10.6,2.58 13.43,7.02l-0.77 0.49z"/>
                    </g>
                    <g>
                     <path class="fil13" d="M142.44 522.17c-5.05,-4.85 -9.82,-10.09 -14.18,-15.58l0.72 -0.57c4.34,5.46 9.08,10.67 14.1,15.49l-0.64 0.66z"/>
                    </g>
                    <g>
                     <polygon class="fil13" points="146.9,478.99 146.07,478.59 153.25,463.8 154.07,464.2 "/>
                    </g>
                    <g>
                     <path class="fil13" d="M161.35 571.54l-0.85 -0.34c2.06,-5.08 4.43,-10.09 7.05,-14.9l0.81 0.44c-2.6,4.78 -4.96,9.76 -7.01,14.81z"/>
                    </g>
                    <path class="fil13" d="M194.44 609.91c-18.29,5.25 -38.49,3.53 -55.63,-4.73l9.83 61.44 30.4 0 15.41 -56.71z"/>
                    <path class="fil10" d="M185.34 643.45l1.29 -4.76c-0.77,0.25 -1.54,0.47 -2.33,0.66 -4.65,1.14 -9.5,1.31 -14.28,1.15 -7.7,-0.25 -15.46,-1.4 -22.71,-4.08 -1.3,-0.48 -2.54,-1.05 -3.76,-1.64l0.82 5.1c0.47,0.2 0.95,0.41 1.42,0.6 12.56,5.03 26.92,7.67 39.55,2.97z"/>
                   </g>
                   <path class="fil10" d="M655.89 242.29l-3.66 -0.62c-0.38,-1.23 -0.87,-2.42 -1.47,-3.55l2.16 -3.02c0.91,-1.29 0.77,-3.04 -0.35,-4.15l-3.25 -3.25c-0.61,-0.61 -1.42,-0.95 -2.28,-0.95 -0.68,0 -1.32,0.21 -1.86,0.6l-3.03 2.16c-1.18,-0.62 -2.41,-1.13 -3.68,-1.51l-0.61 -3.62c-0.26,-1.56 -1.6,-2.69 -3.18,-2.69l-4.59 0c-1.58,0 -2.92,1.13 -3.18,2.69l-0.63 3.71c-1.22,0.38 -2.41,0.88 -3.54,1.49l-3 -2.16c-0.55,-0.39 -1.2,-0.6 -1.87,-0.6 -0.86,0 -1.68,0.34 -2.28,0.95l-3.26 3.25c-1.11,1.11 -1.26,2.87 -0.35,4.15l2.18 3.06c-0.6,1.14 -1.08,2.33 -1.45,3.56l-3.62 0.61c-1.56,0.26 -2.69,1.6 -2.69,3.18l0 4.59c0,1.58 1.13,2.92 2.69,3.18l3.7 0.63c0.38,1.22 0.88,2.41 1.49,3.54l-2.15 2.99c-0.91,1.29 -0.77,3.04 0.35,4.15l3.25 3.25c0.61,0.61 1.42,0.95 2.28,0.95 0.67,0 1.32,-0.21 1.86,-0.6l3.06 -2.18c1.1,0.58 2.25,1.05 3.44,1.42l0.61 3.66c0.26,1.56 1.6,2.69 3.18,2.69l4.6 0c1.58,0 2.92,-1.13 3.18,-2.69l0.62 -3.66c1.23,-0.38 2.42,-0.87 3.55,-1.47l3.02 2.16c0.54,0.39 1.2,0.6 1.87,0.6 0.86,0 1.67,-0.34 2.28,-0.95l3.25 -3.25c1.11,-1.11 1.26,-2.86 0.35,-4.15l-2.16 -3.03c0.6,-1.14 1.1,-2.33 1.47,-3.55l3.66 -0.61c1.56,-0.26 2.69,-1.6 2.69,-3.18l0 -4.59c0.02,-1.58 -1.11,-2.92 -2.67,-3.18zm-23.41 16.38l0 0c-6.02,0 -10.91,-4.88 -10.91,-10.91 0,-6.02 4.88,-10.91 10.91,-10.91 6.02,0 10.91,4.88 10.91,10.91 0,6.02 -4.88,10.91 -10.91,10.91z"/>
                   <path class="fil19" d="M618.38 178.23l-2.99 -0.51c-0.31,-1.01 -0.71,-1.98 -1.2,-2.91l1.77 -2.47c0.75,-1.05 0.63,-2.49 -0.29,-3.4l-2.66 -2.66c-0.5,-0.5 -1.16,-0.78 -1.86,-0.78 -0.55,0 -1.08,0.17 -1.52,0.49l-2.48 1.77c-0.96,-0.51 -1.97,-0.93 -3.01,-1.24l-0.5 -2.96c-0.21,-1.28 -1.31,-2.2 -2.6,-2.2l-3.75 0c-1.29,0 -2.39,0.93 -2.6,2.2l-0.52 3.03c-1,0.31 -1.97,0.72 -2.9,1.22l-2.45 -1.77c-0.45,-0.32 -0.98,-0.49 -1.53,-0.49 -0.7,0 -1.37,0.28 -1.86,0.78l-2.67 2.66c-0.91,0.91 -1.04,2.35 -0.29,3.4l1.78 2.51c-0.49,0.94 -0.88,1.91 -1.19,2.92l-2.96 0.5c-1.28,0.21 -2.2,1.31 -2.2,2.6l0 3.75c0,1.29 0.93,2.39 2.2,2.6l3.03 0.52c0.31,1 0.72,1.97 1.22,2.9l-1.76 2.44c-0.75,1.05 -0.63,2.49 0.29,3.4l2.66 2.66c0.5,0.5 1.16,0.78 1.86,0.78 0.55,0 1.08,-0.17 1.52,-0.49l2.51 -1.78c0.9,0.47 1.85,0.86 2.82,1.16l0.5 2.99c0.21,1.28 1.31,2.2 2.6,2.2l3.76 0c1.29,0 2.39,-0.93 2.6,-2.2l0.51 -2.99c1.01,-0.31 1.98,-0.71 2.91,-1.2l2.47 1.77c0.45,0.32 0.98,0.49 1.53,0.49 0.7,0 1.36,-0.28 1.86,-0.78l2.66 -2.66c0.91,-0.91 1.03,-2.35 0.28,-3.4l-1.76 -2.48c0.49,-0.94 0.9,-1.91 1.2,-2.91l3 -0.5c1.28,-0.21 2.2,-1.31 2.2,-2.6l0 -3.75c0.02,-1.29 -0.91,-2.39 -2.19,-2.6zm-19.15 13.41l0 0c-4.93,0 -8.93,-4 -8.93,-8.93 0,-4.93 4,-8.93 8.93,-8.93 4.93,0 8.93,4 8.93,8.93 0,4.93 -4,8.93 -8.93,8.93z"/>
                   <polygon class="fil10" points="595.77,220.16 515.41,220.16 515.41,276.2 558.24,276.2 553.69,290.54 572.31,276.2 595.77,276.2 "/>
                   <g>
                    <path class="fil13" d="M542.45 249.13c0,1.72 -1.4,3.12 -3.12,3.12 -1.72,0 -3.12,-1.4 -3.12,-3.12 0,-1.72 1.4,-3.12 3.12,-3.12 1.72,0 3.12,1.4 3.12,3.12z"/>
                    <path class="fil13" d="M558.06 249.13c0,1.72 -1.4,3.12 -3.12,3.12 -1.72,0 -3.12,-1.4 -3.12,-3.12 0,-1.72 1.4,-3.12 3.12,-3.12 1.72,0 3.12,1.4 3.12,3.12z"/>
                    <path class="fil13" d="M573.66 249.13c0,1.72 -1.4,3.12 -3.12,3.12 -1.72,0 -3.12,-1.4 -3.12,-3.12 0,-1.72 1.4,-3.12 3.12,-3.12 1.72,0 3.12,1.4 3.12,3.12z"/>
                   </g>
                   <path class="fil20" d="M497.66 654.49c0,0 4.57,4 5.33,5.13 0.76,1.12 3.7,9.43 3.7,9.43 -0.63,1.2 -2.68,2.94 -4.6,3.17l-3.7 -4.77c0,0 -1.9,8.33 -3.81,11.04 -2.31,3.27 -15.57,7.04 -17.55,6.05 0,0 -2.44,-4.86 1.72,-7.52 7.67,-4.92 7.86,-15.24 7.86,-15.24 -1.13,-6.08 5.53,-10.71 11.05,-7.31z"/>
                   <path class="fil3" d="M476.67 683.6c3.9,-0.68 16.07,-2.93 17.74,-7.09 1.55,-3.86 2.57,-10.37 3.47,-11.14 0.9,-0.76 5.11,-5.75 5.11,-5.75l0.16 0.28c0.94,1.81 3.54,9.15 3.54,9.15 -0.63,1.2 -2.68,2.94 -4.6,3.17l-3.7 -4.77c0,0 -1.9,8.33 -3.81,11.04 -2.31,3.27 -15.57,7.04 -17.55,6.05 0,0 -0.18,-0.37 -0.36,-0.95z"/>
                   <path class="fil3" d="M483.5 672.69l2.28 0.49c0,0 1.62,-2.22 1.47,-4.23l-2.23 -0.78c-0.4,-0.14 -0.85,0.07 -0.99,0.47l-1.11 3.02c-0.16,0.45 0.11,0.94 0.57,1.04z"/>
                   <path class="fil21" d="M468.27 423.72c-0.05,-0.8 -21.23,93.51 -20.47,118.87 0.47,15.8 30,88.5 38.82,119.21 1.69,5.89 10.86,-1.02 10.14,-7.14 -3.46,-29.41 -3.24,-44.88 -16.22,-108.78 -2.02,-9.95 33.7,-99.16 30.87,-120.06 -2.83,-20.9 -31.98,-32.27 -43.13,-2.1z"/>
                   <path class="fil22" d="M511.4 425.82c-2.83,-20.9 -31.98,-32.27 -43.13,-2.1 -0.05,-0.76 -19.22,84.55 -20.43,114.69 9.52,-7.23 22.19,-3.42 33.14,2.34 4.21,-21.76 32.98,-96.08 30.43,-114.92z"/>
                   <path class="fil20" d="M528.09 660.62c0,0 2.85,5.36 3.16,6.69 0.31,1.31 0.1,10.13 0.1,10.13 -1.02,0.9 -3.55,1.8 -5.42,1.33l-1.77 -5.77c0,0 -2.73,5.64 -5.48,7.48 -3.32,2.23 -15.16,4.97 -17.15,4 0,0 -2.73,-5.28 1.66,-7.53 11,-5.64 11.97,-13.43 11.97,-13.43 1.1,-6.08 8.97,-8.05 12.93,-2.9z"/>
                   <path class="fil3" d="M501.26 683.85c3.31,-0.37 13.24,-1.63 15.97,-3.8 3.25,-2.59 6.09,-8.78 7.2,-9.18 1.11,-0.39 6.82,-3.56 6.82,-3.56l0.05 0.31c0.24,2.02 0.05,9.82 0.05,9.82 -1.02,0.89 -3.55,1.8 -5.42,1.33l-1.77 -5.77c0,0 -2.73,5.64 -5.48,7.48 -3.32,2.23 -15.16,4.97 -17.15,4 0,0 -0.12,-0.24 -0.28,-0.64z"/>
                   <path class="fil3" d="M508.93 673.41l1.96 1.27c0,0 2.31,-1.5 2.88,-3.43l-1.81 -1.52c-0.33,-0.28 -0.82,-0.24 -1.1,0.09l-2.11 2.43c-0.31,0.36 -0.23,0.91 0.17,1.17z"/>
                   <path class="fil21" d="M489.18 429.8c-0.17,8.21 1.1,95.77 8.68,119.73 4.72,14.93 14.64,86.62 18,111.11 1.23,8.94 10.92,8.94 11.63,0.4 2.62,-31.72 12.87,-75.83 1.23,-114.59 -2.91,-9.68 10.57,-109.64 2.22,-128.68 -8.35,-19.04 -41.14,-18.32 -41.76,12.03z"/>
                   <path class="fil22" d="M528.31 539.97c0.27,-24.73 10.04,-105.3 2.63,-122.2 -8.35,-19.04 -41.14,-18.32 -41.76,12.03 -0.15,7.56 0.91,82.32 6.99,112.85 9.47,-5.35 21.44,-5.79 32.13,-2.69z"/>
                   <path class="fil23" d="M469.21 413.46l-0.94 8.61c0,0 -15.4,39.04 -22.04,102.41 16.43,-4.56 47.45,10.62 93.45,4.16 0,0 18.2,-81.15 -13.46,-117.26 -31.66,-36.1 -55.35,-17.03 -57.02,2.08z"/>
                   <path class="fil24" d="M469.26 421.73c0,0 -1.23,12.15 19.8,14.3 21.03,2.14 41.88,-13.04 41.35,-17.51 -0.53,-4.47 -61.16,3.22 -61.16,3.22z"/>
                   <path class="fil25 str0" d="M521.16 415.72c0,0 24.08,40.06 9.26,111.54"/>
                   <path class="fil21" d="M383.63 390.54c-0.16,-0.02 -8.89,-0.53 -10.4,-0.12 -1.4,0.38 -4.97,2.11 -6.01,2.63 -2.41,1.21 -0.06,2.94 1.76,2.78 2.59,-0.23 3.54,-0.69 4.62,-0.53 0.6,0.09 1.1,0.24 1.57,0.4 -0.96,0.81 -4.92,3.6 -7.97,4.77 -1.71,0.66 -3.26,1.11 -5.74,1.91 -1.1,0.35 -0.92,1.81 0.34,2.05 0.89,0.17 3.95,0.18 6.64,-0.84 1.07,-0.4 2.14,-0.85 3.13,-1.31 0.02,0.1 -2.28,1.44 -3.4,1.95 -1.63,0.74 -3.26,1.04 -5.64,1.92 -1.09,0.4 -0.79,1.67 0.48,1.85 0.34,0.05 0.99,0.1 1.8,0.1 -0.45,0.58 -0.13,1.48 0.88,1.61 0.47,0.06 1.46,-0.03 2.69,-0.22 0.15,0.3 0.46,0.61 0.96,0.62 8.88,0.03 14.17,-4.82 19.03,-5.95 7.75,-7.82 1.05,-12.51 -4.74,-13.62z"/>
                   <path class="fil26" d="M486.87 327.29c-6.03,-3.42 -16.33,-4.55 -24.44,7.01 -8.12,11.56 -11.69,38.76 -20.3,47.96 -5.13,5.49 -51.71,7.07 -55.03,8.74 -2.16,1.08 -0.87,11.45 -0.16,13.37 1.48,4.03 51.91,6.18 65.63,0.77 13.72,-5.41 47.25,-70.5 34.3,-77.85z"/>
                   <path class="fil27" d="M467.37 275.81c0.37,-4.22 0.35,-11.23 5.38,-17.31 5.03,-6.09 24.63,-12.18 34.9,-5.07 12.62,8.74 8.5,16.93 24.24,23.28 15.74,6.35 10.98,13.39 6.48,20.59 -4.5,7.19 -2.92,8.38 4.36,15.92 7.28,7.54 16.93,26.32 0,37.04 -16.93,10.71 -53.59,3.7 -68.28,-10.45 -14.69,-14.15 2.65,-23.48 -1.43,-31.91 -4.08,-8.44 -8.86,-6.58 -8.86,-15.54 0,-6.87 2.64,-10.04 3.21,-16.54z"/>
                   <path class="fil20" d="M499.14 317.26c0,0 -33.39,5.57 -34.51,15.76 -0.47,4.27 5.35,12.88 3.85,17.26 -2.2,6.39 -5.69,10.11 0.76,25.29 5.22,12.27 -3.74,37.67 -3.47,40.69 1.02,11.3 18.94,13.37 26.29,13.2 10.48,-0.25 40.62,-6.99 40.62,-13.6 0,-5.72 -13.96,-18.03 -15.31,-27.84 -1.35,-9.81 24.18,-49.14 19.12,-57.7 -9.81,-16.58 -37.35,-13.05 -37.35,-13.05z"/>
                   <path class="fil21" d="M531.17 422.55c-0.16,0.03 -8.62,2.21 -9.93,3.06 -1.22,0.79 -4.08,3.53 -4.91,4.34 -1.92,1.89 0.84,2.82 2.53,2.11 2.4,-1.01 3.16,-1.74 4.23,-1.91 0.6,-0.1 1.12,-0.11 1.62,-0.1 -0.66,1.06 -3.59,4.93 -6.13,6.98 -1.43,1.15 -2.76,2.06 -4.88,3.57 -0.94,0.67 -0.33,2.01 0.95,1.85 0.9,-0.11 3.81,-1.04 6.06,-2.83 0.89,-0.71 1.78,-1.46 2.58,-2.2 0.05,0.09 -1.73,2.07 -2.64,2.9 -1.32,1.2 -2.79,1.99 -4.78,3.55 -0.91,0.71 -0.25,1.83 1.02,1.62 0.34,-0.06 0.97,-0.2 1.75,-0.46 -0.25,0.69 0.33,1.45 1.33,1.27 0.47,-0.09 1.38,-0.47 2.49,-1.03 0.23,0.24 0.61,0.4 1.1,0.29 5.26,-1.21 14.26,-8.76 16.3,-11.48 4.98,-9.81 -2.83,-12.23 -8.67,-11.52z"/>
                   <path class="fil20" d="M523.88 322.1c-5.4,4.36 -10.22,13.52 -2.44,25.31 7.78,11.79 29.93,24.05 35.34,35.43 3.22,6.79 -26.71,35.89 -26.76,39.6 -0.06,3.71 5.63,12.75 7.81,13.8 3.86,1.87 45.9,-38.94 45.9,-53.68 0,-14.75 -48.27,-69.81 -59.85,-60.45z"/>
                   <path class="fil21" d="M504.23 291.5c0,0 0.68,8.67 3.24,15.44 2.56,6.77 5.31,8.84 8.54,11.72 3.23,2.87 -12.9,20.01 -27.27,24.36 0,0 -10.42,-12.69 -5.64,-19.76 4.78,-7.07 8.56,-7.7 6.85,-17.14 -1.49,-8.23 -2.38,-12.8 -2.38,-12.8l16.66 -1.81z"/>
                   <path class="fil10" d="M482.03 295.89c0,4.06 -1.67,7.36 -3.72,7.36 -2.05,0 -3.71,-3.3 -3.71,-7.36 0,-2.75 0.77,-5.12 1.9,-6.38 0.35,-0.45 -0.1,-0.79 -0.44,-0.34 -1.21,1.38 -2.01,3.84 -2.01,6.73 0,4.44 1.88,7.91 4.27,7.91 2.4,0 4.27,-3.48 4.27,-7.91 0,-2.33 -0.36,-4.1 -1.19,-5.53 -0.09,0.11 -0.32,0.29 -0.42,0.4 0.68,1.33 1.06,3.09 1.06,5.13z"/>
                   <path class="fil28" d="M504.23 291.5c0,0 -2.33,17.64 -18.9,16.39 -8.32,-0.63 -12.58,-17.71 -9.33,-22 0,0 -1.47,-8.6 0,-15.66 1.47,-7.06 15.42,-10.76 26.77,-7.31 0,0 3.26,3.1 2.01,16.98 0,0 2.09,-2.52 5.39,-0.72 2.5,1.36 2.76,4.59 1.91,7.63 -1.02,3.65 -4.82,6.79 -7.86,4.69z"/>
                   <path class="fil29" d="M505.4 290.16l1.24 -3.3 -2.11 -0.88c0,0 1.37,-6.17 4.81,-3.89 2.82,1.87 -0.41,9.32 -3.94,8.07z"/>
                   <path class="fil10" d="M510.68 295.89c0,4.06 -1.67,7.36 -3.71,7.36 -2.05,0 -3.72,-3.3 -3.72,-7.36 0,-2.75 0.77,-5.12 1.9,-6.38 0.35,-0.45 -0.1,-0.79 -0.44,-0.34 -1.21,1.38 -2.01,3.84 -2.01,6.73 0,4.44 1.88,7.91 4.27,7.91 2.39,0 4.27,-3.48 4.27,-7.91 0,-2.33 -0.36,-4.1 -1.19,-5.53 -0.09,0.11 -0.32,0.29 -0.42,0.4 0.68,1.33 1.06,3.09 1.06,5.13z"/>
                   <path class="fil23" d="M480.96 296.88c0,0 1.13,-2.75 9.83,-1.85 -0.99,4.6 -9.13,6.87 -9.83,1.85z"/>
                   <path class="fil29" d="M480.96 296.88c0,0 5.25,0.03 9.83,-1.85l-9.83 1.85z"/>
                   <path class="fil29" d="M480.96 296.88c3.34,-0.46 6.58,-0.97 9.83,-1.85 -1.47,0.84 -3.13,1.31 -4.78,1.63 -1.67,0.26 -3.36,0.43 -5.05,0.22z"/>
                   <path class="fil27" d="M476.05 285.67c0.07,0.78 1.09,0.84 2.34,0.73 1.25,-0.1 2.25,-0.33 2.19,-1.11 -0.07,-0.78 -1.13,-1.33 -2.38,-1.23 -1.25,0.1 -2.21,0.82 -2.15,1.61z"/>
                   <path class="fil27" d="M473.45 282.41c-0.04,0.11 2.9,-2.51 3.69,-2.47 0.79,0.04 3.73,1.14 4.02,0.73 0.29,-0.41 0.58,-1.3 0.58,-1.3 0,0 -4.13,-0.78 -5,-0.5 -0.87,0.27 -2.96,2.56 -3.29,3.54z"/>
                   <path class="fil27" d="M487.53 284.71c0.07,0.78 1.09,0.84 2.34,0.73 1.25,-0.1 2.25,-0.33 2.19,-1.11 -0.07,-0.78 -1.13,-1.33 -2.39,-1.23 -1.25,0.1 -2.21,0.82 -2.15,1.61z"/>
                   <path class="fil27" d="M494.96 279.73c0.06,0.1 -3.9,-1.52 -4.88,-1.27 -0.98,0.25 -4.15,1.85 -4.57,1.52 -0.42,-0.33 -0.89,-1.14 -0.89,-1.14 0,0 4.62,-1.57 5.75,-1.52 1.12,0.04 4.05,1.52 4.59,2.41z"/>
                   <path class="fil30" d="M482.5 292.35c0,0 2.89,-0.1 2.83,-0.89 -0.07,-0.79 -6.12,-1.66 -6.46,-1.09 -0.33,0.57 2.33,1.62 3.63,1.98z"/>
                   <path class="fil29" d="M482 280.31c0,0 0.85,3.63 0.41,4.93 -0.44,1.31 -3.09,4.25 -3.15,4.87 -0.06,0.62 3.01,2.14 3.23,2.23 0.23,0.09 -4.37,-0.61 -4.23,-2.04 0.13,-1.43 3.55,-5.01 3.67,-5.7 0.12,-0.7 0.06,-4.29 0.06,-4.29z"/>
                   <path class="fil27" d="M499.14 264.2c-13.81,1.46 -19.94,14.46 -30.05,14.47 -6.26,-10.88 12.87,-38.49 35.44,-17.05 10.35,9.83 1.02,17.36 1.02,17.36l-2.3 7.95c0,0 0.2,-5.96 -1.92,-8.25 -6.25,-6.73 -2.18,-14.47 -2.18,-14.47z"/>
                   <path class="fil13" d="M381.78 428.14c0.16,1.49 -1.99,1.91 -2.39,0.46 -5.38,-19.43 -17.82,-68.66 -17.65,-75.42 0.11,-4.27 3.16,-7.38 3.16,-7.38l3.86 0c0,0 3.16,3.16 3.51,7.38 0.25,2.94 7.45,55.48 9.5,74.96z"/>
                   <path class="fil31" d="M382.82 385.62c-0.29,-1.13 -0.69,-2.33 -1.62,-3.03 -1.2,-0.9 -2.9,-0.7 -4.29,-0.13 -1.39,0.56 -2.65,1.44 -4.09,1.82 -2.6,0.68 -5.68,-0.24 -7.83,1.37 -1.25,0.94 -1.85,2.67 -1.45,4.19 0.21,0.78 0.66,1.48 0.99,2.22 1.12,2.53 0.92,5.61 2.55,7.84 1.24,1.69 3.3,2.55 5.25,3.33 4.73,1.88 9.46,3.77 14.19,5.65 0.3,0.12 0.65,0.24 0.95,0.1 0.25,-0.12 0.38,-0.4 0.48,-0.65 1.98,-4.93 1.13,-7.31 -1.35,-11.3 -2.15,-3.46 -2.76,-7.52 -3.77,-11.39z"/>
                   <path class="fil10" d="M369.28 345.64c-2.47,1.35 -5.63,0.75 -7.56,-1.3 -1.12,-1.19 -1.92,-2.81 -1.16,-4.77 1.7,-4.36 4.85,-9.45 3.39,-12.36 -1.45,-2.91 -1.45,-2.67 -1.45,-2.91 0,-0.24 8.02,4.51 9.21,8.48 2.42,8.08 0.13,11.45 -2.43,12.85z"/>
                   <path class="fil31" d="M379.66 372.91c-0.35,-0.88 -0.83,-1.84 -1.73,-2.15 -1.08,-0.36 -2.26,0.47 -2.7,1.52 -0.44,1.05 -0.33,2.23 -0.22,3.37 0.32,3.13 0.64,6.27 0.96,9.4 0.18,1.78 0.58,3.88 2.21,4.62 1.22,0.55 2.74,0.02 3.58,-1.01 1.62,-1.99 0.55,-4.32 0.22,-6.54 -0.46,-3.16 -1.15,-6.23 -2.32,-9.21z"/>
                   <path class="fil13" d="M372.52 336.52c-0.16,-1.13 -0.39,-2.34 -0.81,-3.73 -1.19,-3.97 -9.21,-8.73 -9.21,-8.48 0,0.08 0,0.11 0.06,0.22 0.02,0.04 0.04,0.08 0.06,0.11 0.15,0.28 0.5,0.9 1.34,2.57 1.39,2.77 -1.39,7.51 -3.13,11.73 0.51,0.27 1.06,0.36 1.62,0.12 1.18,-0.52 1.81,-2.27 3.08,-2.09 1.8,0.25 1.1,3.65 2.79,4.31 1.04,0.41 2.1,-0.63 2.52,-1.67 0.42,-1.04 0.61,-2.26 1.47,-2.97 0.06,-0.05 0.14,-0.07 0.2,-0.11z"/>
                  </g>
                 </g>
                </svg>