<svg xmlns="http://www.w3.org/2000/svg" xmlns:xlink="http://www.w3.org/1999/xlink" viewBox="0 0 465.92 294.26"><defs><clipPath id="clip-path" transform="translate(43.09)"><path d="M122.87,39.78C97.5,29.92,74.3,17.05,46.44,29.62,33.51,35.46,22.69,46.39,18.23,59.85c-4.15,12.55-2.68,26.35,1.08,39,2.58,8.71,6.25,17.18,11.69,24.47,10.38,13.92,23.35,28.12,21.5,46.8-.64,6.48-2.76,12.7-5,18.8C42.09,203.49,35,216,27.91,229.58c-6.16,11.75-8.29,24.07-4.93,37,3.43,13.24,12.17,22.75,25.58,26,26.44,6.36,56.77-7.05,80.52-17.39,21.11-9.18,40.11-9.33,62.44-7.21a510.28,510.28,0,0,1,70.14,11.63c11,2.62,22,5.61,33.28,5.89,26.7.67,55.75-20.57,59.74-47.6,3-20.16-1.24-39.93-14.92-55.74-3.67-4.24-7.86-8-11.36-12.41-10.85-13.64-14-32.61-9.74-49.52,3.6-14.31,12-27.19,14.58-41.72C338,51.55,318.88,18,292.9,8.61c-16-5.8-31.07,2.92-44.76,11.1-24.27,14.5-48.29,36.94-77.92,33.62-14.29-1.6-28-6.5-41.51-11.36C126.75,41.27,124.8,40.53,122.87,39.78Z" style="fill:none;clip-rule:evenodd"/></clipPath></defs><g style="isolation:isolate"><g id="Слой_2" data-name="Слой 2"><g id="Экран_03-2" data-name="Экран 03-2"><g id="Блокчейн_технологии" data-name="Блокчейн технологии"><path d="M122.87,39.78C97.5,29.92,74.3,17.05,46.44,29.62,33.51,35.46,22.69,46.39,18.23,59.85c-4.15,12.55-2.68,26.35,1.08,39,2.58,8.71,6.25,17.18,11.69,24.47,10.38,13.92,23.35,28.12,21.5,46.8-.64,6.48-2.76,12.7-5,18.8C42.09,203.49,35,216,27.91,229.58c-6.16,11.75-8.29,24.07-4.93,37,3.43,13.24,12.17,22.75,25.58,26,26.44,6.36,56.77-7.05,80.52-17.39,21.11-9.18,40.11-9.33,62.44-7.21a510.28,510.28,0,0,1,70.14,11.63c11,2.62,22,5.61,33.28,5.89,26.7.67,55.75-20.57,59.74-47.6,3-20.16-1.24-39.93-14.92-55.74-3.67-4.24-7.86-8-11.36-12.41-10.85-13.64-14-32.61-9.74-49.52,3.6-14.31,12-27.19,14.58-41.72C338,51.55,318.88,18,292.9,8.61c-16-5.8-31.07,2.92-44.76,11.1-24.27,14.5-48.29,36.94-77.92,33.62-14.29-1.6-28-6.5-41.51-11.36C126.75,41.27,124.8,40.53,122.87,39.78Z" transform="translate(43.09)" style="fill:#d6edfb;fill-rule:evenodd"/><g style="clip-path:url(#clip-path)"><path d="M-42.21,55.28c-.12.15-.25.3-.38.44s-.33.48-.5.71l103.5,58,.7-1.25Z" transform="translate(43.09)" style="fill:#fff"/><rect x="354.31" y="-4.73" width="1.72" height="158.45" transform="matrix(0.53, -0.85, 0.85, 0.53, 147, 336.33)" style="fill:#fff"/><path d="M390.75,290.2a.83.83,0,0,1-.42-.11h0a.86.86,0,1,1,.83-1.5h0a.86.86,0,0,1-.42,1.61Zm-3.36-1.88a.8.8,0,0,1-.42-.11.86.86,0,1,1,.83-1.51h0a.86.86,0,0,1-.42,1.61ZM384,286.45a.91.91,0,0,1-.42-.11.87.87,0,0,1-.34-1.18.86.86,0,0,1,1.17-.34h0a.87.87,0,0,1-.42,1.62Zm-3.36-1.88a.91.91,0,0,1-.42-.11.87.87,0,0,1-.34-1.18.84.84,0,0,1,1.16-.33h0a.87.87,0,0,1-.42,1.62Zm-3.36-1.88a.87.87,0,0,1-.76-1.29.85.85,0,0,1,1.16-.33h0a.86.86,0,0,1-.42,1.61ZM374,280.81a.78.78,0,0,1-.42-.11.87.87,0,0,1-.34-1.18.85.85,0,0,1,1.16-.33h0a.86.86,0,0,1-.42,1.61Zm-3.36-1.88a.9.9,0,0,1-.42-.1h0a.87.87,0,0,1-.33-1.18.86.86,0,0,1,1.17-.33h0a.87.87,0,0,1,.33,1.17A.85.85,0,0,1,370.59,278.93Zm-3.36-1.87a.88.88,0,0,1-.42-.11h0a.86.86,0,0,1,.84-1.51h0a.87.87,0,0,1,.33,1.17A.85.85,0,0,1,367.23,277.06Zm-3.36-1.88a1,1,0,0,1-.43-.11.87.87,0,0,1-.33-1.18.85.85,0,0,1,1.16-.33h0a.86.86,0,0,1-.42,1.61Zm-3.37-1.88a.83.83,0,0,1-.42-.11.87.87,0,0,1-.33-1.18.85.85,0,0,1,1.16-.33h0a.86.86,0,0,1-.43,1.61Zm-3.36-1.88a.83.83,0,0,1-.42-.11.86.86,0,0,1,.83-1.51h0a.87.87,0,0,1,.33,1.17A.85.85,0,0,1,357.14,271.42Zm-3.36-1.87a.94.94,0,0,1-.42-.11.88.88,0,0,1-.34-1.18.86.86,0,0,1,1.17-.34h0a.87.87,0,0,1-.43,1.62Zm-3.36-1.88a.94.94,0,0,1-.42-.11.88.88,0,0,1-.34-1.18.85.85,0,0,1,1.17-.33h0a.86.86,0,0,1,.33,1.17A.88.88,0,0,1,350.42,267.67Zm-3.36-1.88a.83.83,0,0,1-.42-.11h0a.86.86,0,1,1,.84-1.5h0a.86.86,0,0,1,.34,1.17A.87.87,0,0,1,347.06,265.79Zm-3.36-1.88a.83.83,0,0,1-.42-.11h0a.86.86,0,1,1,.83-1.51h0a.86.86,0,0,1,.34,1.17A.88.88,0,0,1,343.7,263.91ZM340.34,262a.94.94,0,0,1-.42-.11h0a.86.86,0,1,1,.83-1.51h0a.86.86,0,0,1,.34,1.17A.87.87,0,0,1,340.34,262ZM337,260.16a.91.91,0,0,1-.42-.11.87.87,0,0,1-.34-1.18.86.86,0,0,1,1.17-.34h0a.87.87,0,0,1-.42,1.62Zm-3.36-1.88a.91.91,0,0,1-.42-.11.87.87,0,0,1-.34-1.18.85.85,0,0,1,1.17-.33h0a.85.85,0,0,1,.33,1.17A.87.87,0,0,1,333.62,258.28Zm-3.36-1.88a.8.8,0,0,1-.42-.11.86.86,0,1,1,.83-1.51h0a.86.86,0,0,1-.42,1.61Zm-3.36-1.88a.8.8,0,0,1-.42-.11.86.86,0,1,1,.83-1.51h0a.86.86,0,0,1,.33,1.17A.85.85,0,0,1,326.9,254.52Zm-3.36-1.87a.91.91,0,0,1-.42-.11h0a.86.86,0,0,1,.84-1.51h0a.87.87,0,0,1,.33,1.17A.84.84,0,0,1,323.54,252.65Zm-3.36-1.88a.91.91,0,0,1-.42-.11h0a.86.86,0,0,1,.84-1.51h0a.87.87,0,0,1,.33,1.18A.87.87,0,0,1,320.18,250.77Zm-3.36-1.88a.78.78,0,0,1-.42-.11.87.87,0,0,1-.34-1.18.85.85,0,0,1,1.16-.33h0a.86.86,0,0,1-.42,1.61ZM313.46,247a.78.78,0,0,1-.42-.11.86.86,0,1,1,.82-1.51h0a.87.87,0,0,1,.33,1.17A.85.85,0,0,1,313.46,247Zm-3.36-1.87a1,1,0,0,1-.43-.11.87.87,0,0,1-.33-1.18.85.85,0,0,1,1.16-.34h0a.88.88,0,0,1,.33,1.18A.87.87,0,0,1,310.1,245.14Zm-3.36-1.88a1,1,0,0,1-.43-.11A.87.87,0,0,1,306,242a.84.84,0,0,1,1.16-.33h0a.88.88,0,0,1,.33,1.18A.87.87,0,0,1,306.74,243.26Z" transform="translate(43.09)" style="fill:#fff"/><path d="M-40.2,247.67a.85.85,0,0,1-.74-.42.85.85,0,0,1,.29-1.18h0a.86.86,0,0,1,1.18.3.86.86,0,0,1-.29,1.18h0A.88.88,0,0,1-40.2,247.67Zm3.3-2a.86.86,0,0,1-.74-.42.86.86,0,0,1,.3-1.18h0a.87.87,0,0,1,1.19.29.88.88,0,0,1-.3,1.19h0A.92.92,0,0,1-36.9,245.7Zm3.31-2a.85.85,0,0,1-.74-.42.87.87,0,0,1,.3-1.19.88.88,0,0,1,1.19.3.86.86,0,0,1-.3,1.18h0A.88.88,0,0,1-33.59,243.73Zm3.3-2a.86.86,0,0,1-.74-.42.86.86,0,0,1,.3-1.18.87.87,0,0,1,1.19.3.84.84,0,0,1-.29,1.17h0A.79.79,0,0,1-30.29,241.75Zm3.31-2a.86.86,0,0,1-.74-.42.86.86,0,0,1,.29-1.18h0a.86.86,0,0,1,1.18.3.85.85,0,0,1-.29,1.18h0A.88.88,0,0,1-27,239.78Zm3.31-2a.87.87,0,0,1-.75-.42.88.88,0,0,1,.31-1.19.86.86,0,0,1,1.18.3.85.85,0,0,1-.29,1.18h0A.85.85,0,0,1-23.67,237.81Zm3.3-2a.87.87,0,0,1-.74-.43.86.86,0,0,1,.3-1.18.87.87,0,0,1,1.19.3.86.86,0,0,1-.3,1.18h0A.88.88,0,0,1-20.37,235.84Zm3.31-2a.86.86,0,0,1-.74-.41.86.86,0,0,1,.29-1.19h0a.86.86,0,0,1,1.18.3.86.86,0,0,1-.29,1.18h0A.88.88,0,0,1-17.06,233.86Zm3.3-2a.86.86,0,0,1-.74-.42.87.87,0,0,1,.3-1.18h0a.87.87,0,0,1,1.19.29.88.88,0,0,1-.3,1.19h0A.92.92,0,0,1-13.76,231.89Zm3.31-2a.84.84,0,0,1-.74-.43.85.85,0,0,1,.3-1.18.87.87,0,0,1,1.19.3.86.86,0,0,1-.3,1.18h0A.88.88,0,0,1-10.45,229.92Zm3.3-2a.87.87,0,0,1-.74-.43.86.86,0,0,1,.3-1.18.87.87,0,0,1,1.19.3.85.85,0,0,1-.29,1.18h0A.88.88,0,0,1-7.15,228Zm3.31-2a.88.88,0,0,1-.74-.41.87.87,0,0,1,.29-1.19h0a.86.86,0,0,1,1.18.3.85.85,0,0,1-.29,1.18h0A.88.88,0,0,1-3.84,226Zm3.31-2a.85.85,0,0,1-.74-.42A.85.85,0,0,1-1,222.4h0a.86.86,0,0,1,1.18.29.88.88,0,0,1-.29,1.19h0A.88.88,0,0,1-.53,224Zm3.3-2a.86.86,0,0,1-.74-.42.87.87,0,0,1,1.49-.89.86.86,0,0,1-.29,1.18h0A.88.88,0,0,1,2.77,222Zm3.31-2a.84.84,0,0,1-.74-.41.86.86,0,0,1,.29-1.19h0a.86.86,0,0,1,.89,1.48h0A.88.88,0,0,1,6.08,220.05Zm3.3-2a.88.88,0,0,1-.74-.42.87.87,0,0,1,.3-1.18H9a.88.88,0,0,1,1.19.3.87.87,0,0,1-.3,1.18h0A.92.92,0,0,1,9.38,218.08Zm3.31-2a.85.85,0,0,1-.74-.42.87.87,0,1,1,1.19.29h0A.88.88,0,0,1,12.69,216.11Zm3.3-2a.85.85,0,0,1-.74-.43.86.86,0,0,1,.3-1.18.87.87,0,0,1,1.19.3.85.85,0,0,1-.29,1.18h0A.88.88,0,0,1,16,214.14Zm3.31-2a.86.86,0,0,1-.45-1.6h0a.86.86,0,0,1,.89,1.48h0A.88.88,0,0,1,19.3,212.16Zm3.31-2a.86.86,0,0,1-.45-1.6h0a.86.86,0,0,1,.89,1.48h0A.88.88,0,0,1,22.61,210.19Zm3.3-2a.85.85,0,0,1-.74-.43.86.86,0,0,1,.3-1.18.87.87,0,0,1,1.19.3.86.86,0,0,1-.29,1.18h0A.88.88,0,0,1,25.91,208.22Zm3.31-2a.89.89,0,0,1-.75-.43.86.86,0,0,1,.31-1.18.88.88,0,0,1,1.19.3.86.86,0,0,1-.3,1.18h0A.82.82,0,0,1,29.22,206.25Zm3.3-2a.89.89,0,0,1-.74-.41.88.88,0,0,1,.3-1.19h0a.88.88,0,0,1,1.19.3.87.87,0,0,1-.3,1.18h0A.92.92,0,0,1,32.52,204.27Zm3.31-2a.86.86,0,0,1-.45-1.6h0a.86.86,0,0,1,.89,1.48h0A.88.88,0,0,1,35.83,202.3Zm3.3-2a.85.85,0,0,1-.74-.43.87.87,0,0,1,1.49-.88.85.85,0,0,1-.29,1.18h0A.88.88,0,0,1,39.13,200.33Zm3.31-2a.86.86,0,0,1-.44-1.6.87.87,0,0,1,1.19.3.85.85,0,0,1-.3,1.17h0A.79.79,0,0,1,42.44,198.35Zm3.31-2a.86.86,0,0,1-.45-1.6h0a.86.86,0,0,1,.89,1.48h0A.88.88,0,0,1,45.75,196.38Zm3.3-2a.87.87,0,1,1,.75-1.31.85.85,0,0,1-.29,1.17h0A.84.84,0,0,1,49.05,194.41Zm3.31-2a.87.87,0,1,1,.45-.13h0A.82.82,0,0,1,52.36,192.44Zm3.3-2a.86.86,0,0,1-.44-1.6.87.87,0,0,1,1.19.3.85.85,0,0,1-.29,1.17h0A.79.79,0,0,1,55.66,190.46Zm3.31-2a.86.86,0,0,1-.45-1.6h0a.86.86,0,0,1,.89,1.48h0A.88.88,0,0,1,59,188.49Zm3.3-2a.85.85,0,0,1-.74-.43.87.87,0,0,1,1.49-.88.85.85,0,0,1-.29,1.18h0A.88.88,0,0,1,62.27,186.52Z" transform="translate(43.09)" style="fill:#fff"/><path d="M391.55,287.6a2.25,2.25,0,1,0,2.25,2.25A2.25,2.25,0,0,0,391.55,287.6Z" transform="translate(43.09)" style="fill:#fff"/></g><g style="isolation:isolate"><g style="opacity:0.2"><path d="M107.81,248,65.48,223.56a6.5,6.5,0,0,0-5.89,0L17.54,248c-1.62.94-1.61,2.46,0,3.4l42.33,24.44a6.48,6.48,0,0,0,5.88,0l42.06-24.44C109.45,250.47,109.44,249,107.81,248Z" transform="translate(43.09)" style="fill:#132c39"/></g><path d="M107.81,241.35,65.48,216.91a6.5,6.5,0,0,0-5.89,0L17.54,241.35c-1.62.94-1.61,2.47,0,3.41L59.89,269.2a6.48,6.48,0,0,0,5.88,0l42.06-24.44C109.45,243.82,109.44,242.29,107.81,241.35Z" transform="translate(43.09)" style="fill:#005f8f"/><path d="M107.83,244.76,65.77,269.2a6.48,6.48,0,0,1-5.88,0L17.56,244.76A2.1,2.1,0,0,1,16.33,243l0,4.65a2.08,2.08,0,0,0,1.23,1.72l42.33,24.44a6.48,6.48,0,0,0,5.88,0l42.06-24.44a2.08,2.08,0,0,0,1.21-1.69l0-4.65A2.1,2.1,0,0,1,107.83,244.76Z" transform="translate(43.09)" style="fill:#004b70"/></g><path d="M109.28,249h0l-1.51-.88-.35-.21-.35-.2h0a1.19,1.19,0,0,0-1.19,0,1,1,0,0,0-.39.45,1.56,1.56,0,0,0-.16.68v.24a1.63,1.63,0,0,0,.15.69,1,1,0,0,0,.44.48h0l.35.21,1.86,1.08h0a1.13,1.13,0,0,0,.63.15,1.16,1.16,0,0,0,.6-.19,1.22,1.22,0,0,0,.37-.46,1.71,1.71,0,0,0,.14-.66v-.24a1.6,1.6,0,0,0-.15-.69A1.1,1.1,0,0,0,109.28,249Z" transform="translate(43.09)" style="fill:#fff"/><g style="opacity:0.30000000000000004"><path d="M121.62,258.93a.79.79,0,0,1-.42-.12l-12.38-7.49a.81.81,0,1,1,.85-1.39L122,257.42a.81.81,0,0,1-.42,1.51Z" transform="translate(43.09)" style="fill:#fff"/></g><path d="M102.73,252.82h0l-1.51-.88-.35-.21-.36-.2h0a1.22,1.22,0,0,0-1.19,0,1.29,1.29,0,0,0-.39.46,1.51,1.51,0,0,0-.15.68v.24a1.49,1.49,0,0,0,.15.69,1.09,1.09,0,0,0,.43.48h0l.36.2,1.86,1.09h0a1.13,1.13,0,0,0,.63.15,1,1,0,0,0,.59-.2.94.94,0,0,0,.37-.45,1.54,1.54,0,0,0,.14-.66V254a1.47,1.47,0,0,0-.15-.69A1.09,1.09,0,0,0,102.73,252.82Z" transform="translate(43.09)" style="fill:#fff"/><g style="opacity:0.30000000000000004"><path d="M115.15,262.63a.87.87,0,0,1-.41-.11l-12.46-7.33a.82.82,0,0,1,.83-1.41l12.45,7.33a.82.82,0,0,1,.29,1.12A.8.8,0,0,1,115.15,262.63Z" transform="translate(43.09)" style="fill:#fff"/></g><path d="M96.18,256.68h0l-1.51-.88-.36-.21-.35-.2h0a1.1,1.1,0,0,0-1.58.48,1.51,1.51,0,0,0-.15.68v.24a1.49,1.49,0,0,0,.15.69,1.09,1.09,0,0,0,.43.48h0l.35.2L95,259.25h0a1.09,1.09,0,0,0,.63.15,1,1,0,0,0,.59-.2,1.07,1.07,0,0,0,.37-.45,1.54,1.54,0,0,0,.14-.66v-.24a1.47,1.47,0,0,0-.15-.69A1.15,1.15,0,0,0,96.18,256.68Z" transform="translate(43.09)" style="fill:#fff"/><g style="opacity:0.30000000000000004"><path d="M108.81,266.45a.8.8,0,0,1-.4-.11l-12.68-7.29a.82.82,0,1,1,.82-1.41l12.67,7.29a.81.81,0,0,1,.3,1.11A.83.83,0,0,1,108.81,266.45Z" transform="translate(43.09)" style="fill:#fff"/></g><g style="opacity:0.30000000000000004"><path d="M102.13,270.13a.82.82,0,0,1-.4-.1l-12.28-6.86a.8.8,0,0,1-.32-1.1.81.81,0,0,1,1.11-.32l12.28,6.86a.8.8,0,0,1,.32,1.1A.82.82,0,0,1,102.13,270.13Z" transform="translate(43.09)" style="fill:#fff"/></g><path d="M89.62,260.54h0l-1.51-.88-.35-.21-.35-.2h0a1.17,1.17,0,0,0-1.19,0,1.14,1.14,0,0,0-.39.45,1.8,1.8,0,0,0-.16.69v.24a1.63,1.63,0,0,0,.15.69,1.1,1.1,0,0,0,.44.48h0l.35.2,1.86,1.09h0a1.17,1.17,0,0,0,1.23-.05,1.07,1.07,0,0,0,.37-.45,1.71,1.71,0,0,0,.14-.66v-.24a1.6,1.6,0,0,0-.15-.69A1,1,0,0,0,89.62,260.54Z" transform="translate(43.09)" style="fill:#fff"/><path d="M83.07,264.4h0l-1.51-.88-.35-.21-.36-.2h0a1.15,1.15,0,0,0-1.18,0,1.14,1.14,0,0,0-.4.45,1.74,1.74,0,0,0-.15.69v.24a1.49,1.49,0,0,0,.15.69,1.15,1.15,0,0,0,.43.48h0l.36.2L81.92,267h0a1.22,1.22,0,0,0,.63.15,1.09,1.09,0,0,0,.59-.2,1,1,0,0,0,.37-.45,1.54,1.54,0,0,0,.14-.66v-.24a1.58,1.58,0,0,0-.16-.69A1,1,0,0,0,83.07,264.4Z" transform="translate(43.09)" style="fill:#fff"/><g style="opacity:0.30000000000000004"><path d="M95.36,274a.77.77,0,0,1-.41-.11l-12.32-7.12a.82.82,0,0,1-.3-1.12.8.8,0,0,1,1.11-.29l12.33,7.12a.83.83,0,0,1,.29,1.12A.8.8,0,0,1,95.36,274Z" transform="translate(43.09)" style="fill:#fff"/></g><path d="M76.52,268.26h0L75,267.37l-.35-.2-.36-.2h0a1.17,1.17,0,0,0-1.19,0,1.06,1.06,0,0,0-.39.45,1.57,1.57,0,0,0-.15.69v.24a1.49,1.49,0,0,0,.15.69,1.15,1.15,0,0,0,.43.48h0l.36.2,1.86,1.09h0A1.3,1.3,0,0,0,76,271a1.13,1.13,0,0,0,.59-.2,1.15,1.15,0,0,0,.37-.45,1.54,1.54,0,0,0,.14-.66v-.24a1.47,1.47,0,0,0-.15-.69A1.09,1.09,0,0,0,76.52,268.26Z" transform="translate(43.09)" style="fill:#fff"/><g style="opacity:0.30000000000000004"><path d="M88.54,277.7a.86.86,0,0,1-.4-.11l-12.07-7a.82.82,0,0,1-.29-1.12.8.8,0,0,1,1.11-.29l12.06,7a.81.81,0,0,1-.41,1.52Z" transform="translate(43.09)" style="fill:#fff"/></g><path d="M70,272.12h0l-1.5-.89-.36-.2-.35-.2h0a1.17,1.17,0,0,0-1.19,0,1.06,1.06,0,0,0-.39.45A1.8,1.8,0,0,0,66,272v.24a1.86,1.86,0,0,0,.15.69,1.1,1.1,0,0,0,.44.48h0l.35.2,1.86,1.09h0a1.22,1.22,0,0,0,.63.14,1.07,1.07,0,0,0,.6-.19,1.24,1.24,0,0,0,.37-.45,1.75,1.75,0,0,0,.14-.66v-.25a1.53,1.53,0,0,0-.15-.69A1.06,1.06,0,0,0,70,272.12Z" transform="translate(43.09)" style="fill:#fff"/><g style="opacity:0.30000000000000004"><path d="M81.89,281.6a.78.78,0,0,1-.41-.12l-12-7a.81.81,0,1,1,.82-1.4l12,7a.82.82,0,0,1-.42,1.52Z" transform="translate(43.09)" style="fill:#fff"/></g><path d="M19.49,248.35a1.06,1.06,0,0,0-.39-.45,1.17,1.17,0,0,0-1.19,0h0l-.35.2-.36.2-1.51.89h0a1.11,1.11,0,0,0-.43.47,1.53,1.53,0,0,0-.15.69v.25a1.57,1.57,0,0,0,.14.66,1.15,1.15,0,0,0,.37.45,1.06,1.06,0,0,0,.59.19,1.17,1.17,0,0,0,.63-.14h0l1.87-1.09.35-.2h0a1.09,1.09,0,0,0,.43-.48,1.53,1.53,0,0,0,.15-.69V249A1.57,1.57,0,0,0,19.49,248.35Z" transform="translate(43.09)" style="fill:#fff"/><g style="opacity:0.30000000000000004"><path d="M.81,260.12a.81.81,0,0,1-.7-.41.81.81,0,0,1,.3-1.11l14.92-8.48a.81.81,0,1,1,.8,1.42L1.22,260A.87.87,0,0,1,.81,260.12Z" transform="translate(43.09)" style="fill:#fff"/></g><path d="M26,252.21a1.06,1.06,0,0,0-.39-.45,1.19,1.19,0,0,0-1.19,0h0l-.35.21-.36.2-1.5.89h0a1.06,1.06,0,0,0-.44.47,1.53,1.53,0,0,0-.15.69v.25a1.75,1.75,0,0,0,.14.66,1.24,1.24,0,0,0,.37.45,1.16,1.16,0,0,0,.6.19,1.22,1.22,0,0,0,.63-.14h0l1.86-1.09.35-.2h0a1.08,1.08,0,0,0,.44-.49,1.58,1.58,0,0,0,.15-.68v-.24A1.76,1.76,0,0,0,26,252.21Z" transform="translate(43.09)" style="fill:#fff"/><g style="opacity:0.30000000000000004"><path d="M7.61,264a.82.82,0,0,1-.41-1.52L21.88,254a.81.81,0,1,1,.81,1.41L8,263.88A.87.87,0,0,1,7.61,264Z" transform="translate(43.09)" style="fill:#fff"/></g><path d="M32.6,256.07a1.06,1.06,0,0,0-.4-.45,1.19,1.19,0,0,0-1.19,0h0l-.35.21-.35.2-1.51.89h0a1,1,0,0,0-.43.47,1.66,1.66,0,0,0-.16.69v.25a1.57,1.57,0,0,0,.14.66,1.07,1.07,0,0,0,.37.45,1.11,1.11,0,0,0,.59.19,1.22,1.22,0,0,0,.63-.14h0l1.86-1.09.35-.21h0a1,1,0,0,0,.44-.48,1.44,1.44,0,0,0,.15-.68v-.25A1.7,1.7,0,0,0,32.6,256.07Z" transform="translate(43.09)" style="fill:#fff"/><g style="opacity:0.30000000000000004"><path d="M14.39,267.57a.83.83,0,0,1-.71-.41.82.82,0,0,1,.31-1.11l14.44-8.21a.82.82,0,0,1,1.11.31.81.81,0,0,1-.3,1.11l-14.45,8.21A.79.79,0,0,1,14.39,267.57Z" transform="translate(43.09)" style="fill:#fff"/></g><path d="M39.15,259.93a1.06,1.06,0,0,0-.39-.45,1.19,1.19,0,0,0-1.19,0h0l-.36.21-.35.2-1.51.88h0a1.15,1.15,0,0,0-.43.48,1.53,1.53,0,0,0-.15.69v.24a1.58,1.58,0,0,0,.14.67,1.07,1.07,0,0,0,1,.64,1.2,1.2,0,0,0,.63-.14h0l1.86-1.09.36-.21h0a1.09,1.09,0,0,0,.43-.48,1.44,1.44,0,0,0,.15-.68v-.25A1.54,1.54,0,0,0,39.15,259.93Z" transform="translate(43.09)" style="fill:#fff"/><g style="opacity:0.30000000000000004"><path d="M20.85,271.49a.83.83,0,0,1-.71-.41.81.81,0,0,1,.31-1.11L35,261.7a.82.82,0,0,1,1.11.3.83.83,0,0,1-.31,1.12l-14.54,8.27A.85.85,0,0,1,20.85,271.49Z" transform="translate(43.09)" style="fill:#fff"/></g><path d="M45.7,263.79a1.06,1.06,0,0,0-.39-.45,1.19,1.19,0,0,0-1.19,0h0l-.35.21-.36.2-1.51.88h0a1.15,1.15,0,0,0-.43.48,1.53,1.53,0,0,0-.15.69V266a1.68,1.68,0,0,0,.14.66,1.22,1.22,0,0,0,.37.46,1.15,1.15,0,0,0,.59.19,1.09,1.09,0,0,0,.63-.15h0l1.87-1.08.35-.21h0a1.1,1.1,0,0,0,.44-.48,1.74,1.74,0,0,0,.15-.68v-.25A1.54,1.54,0,0,0,45.7,263.79Z" transform="translate(43.09)" style="fill:#fff"/><g style="opacity:0.30000000000000004"><path d="M27.78,275.23a.81.81,0,0,1-.4-1.52l14.16-8.15a.81.81,0,0,1,.81,1.41l-14.16,8.15A.87.87,0,0,1,27.78,275.23Z" transform="translate(43.09)" style="fill:#fff"/></g><path d="M52.26,267.65a1.06,1.06,0,0,0-.4-.45,1.19,1.19,0,0,0-1.19,0h0l-.35.21-.35.2-1.51.88h0a1.1,1.1,0,0,0-.44.48,1.87,1.87,0,0,0-.15.69v.24a1.73,1.73,0,0,0,.15.66,1.14,1.14,0,0,0,.36.46,1.2,1.2,0,0,0,.6.19,1.13,1.13,0,0,0,.63-.15h0L51.47,270l.35-.21h0a1,1,0,0,0,.44-.48,1.63,1.63,0,0,0,.15-.69v-.24A1.7,1.7,0,0,0,52.26,267.65Z" transform="translate(43.09)" style="fill:#fff"/><g style="opacity:0.30000000000000004"><path d="M34.19,278.83a.82.82,0,0,1-.72-.42.83.83,0,0,1,.32-1.11l14.31-7.89a.83.83,0,0,1,1.11.32.82.82,0,0,1-.32,1.11l-14.31,7.89A.78.78,0,0,1,34.19,278.83Z" transform="translate(43.09)" style="fill:#fff"/></g><path d="M58.81,271.51a1.14,1.14,0,0,0-.39-.45,1.19,1.19,0,0,0-1.19,0h0l-.36.2-.35.21-1.51.88h0a1.09,1.09,0,0,0-.43.48,1.47,1.47,0,0,0-.15.69v.24a1.54,1.54,0,0,0,.14.66,1.05,1.05,0,0,0,.37.46,1.18,1.18,0,0,0,1.22,0h0L58,273.81l.36-.21h0a1.09,1.09,0,0,0,.43-.48,1.49,1.49,0,0,0,.15-.69v-.24A1.51,1.51,0,0,0,58.81,271.51Z" transform="translate(43.09)" style="fill:#fff"/><g style="opacity:0.30000000000000004"><path d="M40.67,282.86a.82.82,0,0,1-.4-1.53l14.38-8.06a.82.82,0,0,1,.8,1.43l-14.38,8.05A.8.8,0,0,1,40.67,282.86Z" transform="translate(43.09)" style="fill:#fff"/></g><rect x="104.82" y="47.97" width="1.72" height="176.94" style="fill:#fff"/><polygon points="317.18 260.31 251.9 222 252.77 220.51 317.15 258.29 337.61 245.52 339.32 246.49 317.18 260.31" style="fill:#fff"/><polygon points="66.9 117.59 66.9 162.38 105.69 184.77 144.47 162.38 144.47 117.59 105.69 95.19 66.9 117.59" style="fill:#86afd1"/><path d="M62.59,186.65,22.18,163.31V116.65L62.59,93.31,103,116.65v46.66ZM25,161.71l37.63,21.73,37.64-21.73V118.25L62.59,96.52,25,118.25Z" transform="translate(43.09)" style="fill:#fff"/><rect x="304.17" y="40.61" width="1.72" height="76.44" style="fill:#fff"/><ellipse cx="74.68" cy="187.99" rx="3.41" ry="1.98" transform="translate(-82.06 156.65) rotate(-59.42)" style="fill:#fff;opacity:0.4"/><path d="M83.07,180.54a5.33,5.33,0,0,0-2.47,4.15c0,1.55,1.05,2.19,2.4,1.45A5.34,5.34,0,0,0,85.47,182C85.49,180.44,84.41,179.79,83.07,180.54Z" transform="translate(43.09)" style="fill:#fff;opacity:0.701961"/><path d="M91.42,175.89A5.34,5.34,0,0,0,89,180c0,1.55,1.06,2.19,2.4,1.45a5.34,5.34,0,0,0,2.47-4.15C93.84,175.79,92.77,175.15,91.42,175.89Z" transform="translate(43.09)" style="fill:#fff"/><path d="M44,244,63.4,260.59l2.49-1.44L62,255.8l6.12-3.53,5.77,2.28,2.7-1.56L47.9,241.69Zm21.43,7.2L60,254.27l-11.21-9.6Z" transform="translate(43.09)" style="fill:#fff"/><polygon points="97.73 237.8 121.77 251.77 124.46 250.22 100.43 236.25 97.73 237.8" style="fill:#fff"/><path d="M62.66,222.64a2.25,2.25,0,1,0,2.25,2.25A2.25,2.25,0,0,0,62.66,222.64Z" transform="translate(43.09)" style="fill:#fff"/><rect x="127.49" y="145.5" width="1.34" height="61.25" transform="translate(-44.56 205.64) rotate(-61.75)" style="fill:#fff"/><path d="M154.36,191.92a1.51,1.51,0,1,0-.62-2A1.51,1.51,0,0,0,154.36,191.92Z" transform="translate(43.09)" style="fill:#fff"/><path d="M107.18,216.48a.73.73,0,0,1-.22-.18l-.26-.31,0,9.15-7.09-8.58,0-8.93-.71-.84a1.09,1.09,0,0,1-.25-.52l0,10.06a1,1,0,0,0,.25.63l8,9.74a.9.9,0,0,0,.23.21.4.4,0,0,0,.25.06h0a.3.3,0,0,0,.21-.33v-.94l0-9.14h-.26A.43.43,0,0,1,107.18,216.48Z" transform="translate(43.09)" style="fill:#fff"/><path d="M108.26,196.41l7,8.29h.12c-.46-.6-1.52-1.81-3.93-4.59Z" transform="translate(43.09)" style="fill:#fff"/><path d="M131.53,204.29l8,9.71a1.06,1.06,0,0,1,.22.42,1.07,1.07,0,0,0-.22-.44Z" transform="translate(43.09)" style="fill:#fff"/><g style="isolation:isolate"><path d="M100.15,207l7,8.3h.09c-.49-.61-1.55-1.85-3.9-4.56Z" transform="translate(43.09)" style="fill:#fff"/><path d="M115.26,216.3a.7.7,0,0,1-.23-.2l-8-9.74a1,1,0,0,1-.25-.63v-.32l-7.84.4c-.15,0-.25.15-.25.34a.49.49,0,0,0,0,.12,1.09,1.09,0,0,0,.25.52l.71.84L106.7,216l.26.31a.73.73,0,0,0,.22.18.43.43,0,0,0,.23.07h.26l7.11-.14.7,0a.21.21,0,0,0,.12,0h-.09A.4.4,0,0,1,115.26,216.3Zm-8-1h-.09l-7-8.3,7.06-.36,7,8.52Z" transform="translate(43.09)" style="fill:#fff"/><path d="M115.48,216.39l-.7,0,0,8.91-7.11.37v.94a.3.3,0,0,1-.21.33l7.8-.41h.23c.16,0,.26-.13.26-.34v-.32l0-8.94v-.59h-.14A.21.21,0,0,1,115.48,216.39Z" transform="translate(43.09)" style="fill:#fff"/><path d="M123.25,225.76a.83.83,0,0,1-.23-.19l-.26-.31,0,9.15-7-8.53v.32c0,.21-.1.34-.26.34h-.23L123,236a.93.93,0,0,0,.24.21.37.37,0,0,0,.25.06c.14,0,.23-.14.23-.34V235l0-9.14h-.26A.63.63,0,0,1,123.25,225.76Z" transform="translate(43.09)" style="fill:#fff"/><path d="M115.74,216.35v.59l7,8.32.26.31a.83.83,0,0,0,.23.19.63.63,0,0,0,.22.07h.26l7-.19V225l-7.48-9.11Zm9.87,2.43,4.61,5.62-6.89.18h-.08l-7-8.26,7-.39Z" transform="translate(43.09)" style="fill:#fff"/><path d="M116.28,216.33l7,8.25h.08c-.48-.61-1.53-1.84-3.86-4.54Z" transform="translate(43.09)" style="fill:#fff"/><path d="M130.72,234.87v-.33l-7,.42v.94c0,.2-.09.32-.23.34l7.74-.46-.24-.29A1,1,0,0,1,130.72,234.87Z" transform="translate(43.09)" style="fill:#fff"/><path d="M115.29,205.88a.77.77,0,0,1-.22-.19l-.26-.3,0,9.15L107.7,206l0-8.93-.7-.83a1,1,0,0,1-.26-.63l0,10.16a1,1,0,0,0,.25.63l8,9.74a.7.7,0,0,0,.23.2.34.34,0,0,0,.25.06c.14,0,.23-.14.24-.34v-.94l0-9.14h-.26A.4.4,0,0,1,115.29,205.88Z" transform="translate(43.09)" style="fill:#fff"/><path d="M122.79,215v-.32l-7,.4V216c0,.2-.1.33-.24.34h.23l7.53-.44-.23-.28A1,1,0,0,1,122.79,215Z" transform="translate(43.09)" style="fill:#fff"/><polygon points="159.38 216.33 166.37 215.93 168.71 218.78 166.37 215.93 159.38 216.33" style="fill:#fff"/><path d="M139.27,235a.93.93,0,0,1-.22-.19l-.17-.2,0,9.17-7.16-8.69,0-8.93.58.68L131,225.36l0,0-.25-.3,0,9.85a1,1,0,0,0,.25.62l8,9.72a.72.72,0,0,0,.23.2.35.35,0,0,0,.23.06h.18a.31.31,0,0,0,.2-.33v-.94l0-9.12h-.34A.43.43,0,0,1,139.27,235Z" transform="translate(43.09)" style="fill:#fff"/><path d="M141.71,226.85l-2-2.41v.33c0,.21-.1.34-.25.35l-8,.47h-.06a.45.45,0,0,1-.18-.07.67.67,0,0,1-.19-.16l1.26,1.49,6.58,7.77.17.2a.93.93,0,0,0,.22.19.43.43,0,0,0,.23.07h.34l7-.16h.7c.16,0,.26-.14.27-.34a1.09,1.09,0,0,0-.25-.63Zm-2.4,7h0l-7-8.28,7-.39,4.26,5.16,2.76,3.35Z" transform="translate(43.09)" style="fill:#fff"/><path d="M132.25,225.55l7,8.28h0c-.54-.67-1.62-1.93-3.79-4.47Z" transform="translate(43.09)" style="fill:#fff"/><path d="M115.32,194.86a.42.42,0,0,0-.23-.06l-8.08.41c-.16,0-.25.15-.25.35a1,1,0,0,0,.26.64l.7.83,7.09,8.36.26.3a.77.77,0,0,0,.22.19.4.4,0,0,0,.22.07h.26l7-.17v-.94c0-.2.1-.33.25-.34h.22l-7.73-9.41A1.13,1.13,0,0,0,115.32,194.86Zm.09,9.84h-.12l-7-8.29,7-.36,7,8.48Z" transform="translate(43.09)" style="fill:#fff"/><path d="M131.26,215.1a.93.93,0,0,1-.22-.19l-8-9.44a1,1,0,0,1-.26-.63l0,10.16a1,1,0,0,0,.25.63l8,9.69a.85.85,0,0,0,.23.2.44.44,0,0,0,.19.07h.05c.16,0,.25-.13.25-.33v-.94l0-9.14h-.26A.43.43,0,0,1,131.26,215.1Zm-.5,8.65-7-8.52,0-8.91,7,8.33Z" transform="translate(43.09)" style="fill:#fff"/><polygon points="175.35 225.56 182.36 225.16 186.62 230.32 182.36 225.16 175.35 225.56" style="fill:#fff"/><path d="M147.53,234.9h-.7l0,8.91-7,.37v.94a.31.31,0,0,1-.2.33l7.89-.42c.16,0,.26-.13.26-.33l0-10.15C147.79,234.76,147.69,234.89,147.53,234.9Z" transform="translate(43.09)" style="fill:#fff"/><path d="M141.71,226.85l5.84,7.08a1.09,1.09,0,0,1,.25.63v0a1,1,0,0,0-.26-.63Z" transform="translate(43.09)" style="fill:#fff"/><polygon points="174.39 204.09 174.39 204.09 174.39 204.09 174.39 204.09" style="fill:#fff"/><path d="M131.29,204.08a.53.53,0,0,0-.23-.06.43.43,0,0,1,.23.07h0Z" transform="translate(43.09)" style="fill:#fff"/><polygon points="167.41 205.69 174.38 205.28 176.82 208.24 174.38 205.27 167.41 205.69" style="fill:#fff"/><path d="M139.49,215l-.71,0,0,8.9-7,.42v.94c0,.2-.09.32-.25.33h0l8-.47c.15,0,.25-.14.25-.35v-.33l0-9.74A.29.29,0,0,1,139.49,215Z" transform="translate(43.09)" style="fill:#fff"/><path d="M139.5,214l-8-9.71a.64.64,0,0,0-.24-.2.43.43,0,0,0-.23-.07l-7.77.46h-.22c-.15,0-.25.14-.25.34a1,1,0,0,0,.26.64l8,9.44a.93.93,0,0,0,.22.19.43.43,0,0,0,.23.07h.26l7-.18.71,0a.29.29,0,0,0,.26-.27v-.07a.88.88,0,0,0,0-.21A1.06,1.06,0,0,0,139.5,214Zm-8.24-.07-6.94-8.25,7-.41,2.44,3,4.52,5.51Z" transform="translate(43.09)" style="fill:#fff"/></g><polygon points="313.06 259.16 319.44 262.84 319.44 262.79 313.06 259.1 313.06 259.16" style="fill:#ffcc51"/><polygon points="313.06 260.9 319.44 264.58 319.44 262.84 313.06 259.16 313.06 260.9" style="fill:#fff"/><polygon points="304.84 254.41 311.71 258.38 311.71 258.32 304.85 254.36 304.84 254.41" style="fill:#ffcc51"/><polygon points="304.84 256.16 311.71 260.12 311.71 258.38 304.84 254.41 304.84 256.16" style="fill:#fff"/><polygon points="296.63 249.67 303.49 253.63 303.49 253.58 296.63 249.62 296.63 249.67" style="fill:#ffcc51"/><polygon points="296.62 251.41 303.49 255.37 303.49 253.63 296.63 249.67 296.62 251.41" style="fill:#fff"/><polygon points="288.4 246.67 295.27 250.63 295.27 248.89 288.41 244.93 288.4 246.67" style="fill:#fff"/><path d="M250.9,240.8l-4.26-2.45c-.72-.42-1.3-.13-1.31.65v2.52a2.75,2.75,0,0,0,1.3,2.16l4.25,2.46c.73.42,1.31.12,1.31-.65V243A2.81,2.81,0,0,0,250.9,240.8Z" transform="translate(43.09)" style="fill:#ffcc51"/><polygon points="288.41 244.93 295.27 248.89 295.27 248.83 288.41 244.87 288.41 244.93" style="fill:#ffcc51"/><g style="isolation:isolate"><path d="M277.16,246.27l-32.56-18.8c-1.4-.81-2.54-.16-2.54,1.45L242,252.3a5.57,5.57,0,0,0,2.53,4.37l32.56,18.8c1.4.81,2.53.16,2.54-1.45l.07-23.38A5.57,5.57,0,0,0,277.16,246.27Zm-25,2.62v1.74l-6.87-4v-1.8l6.86,4Zm0-3.4c0,.77-.58,1.07-1.31.65l-4.25-2.46a2.75,2.75,0,0,1-1.3-2.16V239c0-.78.59-1.07,1.31-.65l4.26,2.45a2.81,2.81,0,0,1,1.3,2.17Zm8.21,8.14v1.74l-6.86-4v-1.8l6.86,4Zm8.22,4.75v1.74l-6.86-4v-1.8l6.87,4Zm7.71,12.9L270,267.6v-3.37l6.37,3.68Zm0-8.44v1.74L270,260.9v-1.8l6.38,3.69Z" transform="translate(43.09)" style="fill:#005f8f"/><polygon points="313.04 267.6 319.42 271.29 319.43 267.91 313.05 264.23 313.04 267.6" style="fill:#fff"/></g><path d="M62.92,155.81l-.15,0-15.9-3.68a.67.67,0,0,1-.47-.41l-2.84-7.33-5.76-4.65a.66.66,0,0,1-.24-.65l1.25-6.53.87-8.11a.65.65,0,0,1,.24-.44l9.49-7.89a.6.6,0,0,1,.31-.15l20.55-3.73a.62.62,0,0,1,.33,0l16.92,5.45a.75.75,0,0,1,.35.26l7,10.35a.69.69,0,0,1,0,.72l-5.64,9.35a.67.67,0,0,1-.49.31l-8.59,1.15-8.29,8.38,0,0-8.53,7.4A.66.66,0,0,1,62.92,155.81Zm-15.4-4.93,15.22,3.53L71,147.25l8.44-8.53a.72.72,0,0,1,.39-.19l8.49-1.13,5.26-8.7-6.68-9.8-16.54-5.34-20.22,3.68L41,124.85l-.84,7.86a.13.13,0,0,0,0,.06L39,138.93l5.59,4.51a.83.83,0,0,1,.21.28Zm-8.05-18.24Z" transform="translate(43.09)" style="fill:#fff"/><path d="M55.53,168.46H52.38a.67.67,0,0,1-.67-.67V151.6L50.18,135l-11.71,4.84a.66.66,0,0,1-.87-.36.67.67,0,0,1,.36-.87l12.54-5.19a.69.69,0,0,1,.61,0,.68.68,0,0,1,.32.52l1.62,17.55v15.62h2.09l7.2-12.32a.67.67,0,1,1,1.16.68l-7.39,12.65A.67.67,0,0,1,55.53,168.46Z" transform="translate(43.09)" style="fill:#fff"/><path d="M62.92,155.81l-.14,0a.67.67,0,0,1-.51-.8l6.06-27.47a.66.66,0,0,1,.35-.45L87,117.73a.67.67,0,0,1,.9.29.68.68,0,0,1-.29.91l-18.05,9.19-6,27.16A.67.67,0,0,1,62.92,155.81Z" transform="translate(43.09)" style="fill:#fff"/><path d="M69,128.34h-.07l-28.64-3.16a.67.67,0,1,1,.15-1.33l28,3.09,1.34-14.12a.67.67,0,0,1,1.34.13l-1.41,14.79a.69.69,0,0,1-.24.46A.72.72,0,0,1,69,128.34Z" transform="translate(43.09)" style="fill:#fff"/><path d="M44.12,144.63a.62.62,0,0,1-.37-.11.67.67,0,0,1-.19-.93l6.52-9.77-.91-17.17a.67.67,0,0,1,1-.62l19.14,11L89,137.42a.67.67,0,1,1-.62,1.19l-16.16-8.48,8.15,8.6a.67.67,0,0,1-.38,1.13l-21.2,3.65a.66.66,0,0,1-.61-.21l-7.37-8.2-6.16,9.24A.67.67,0,0,1,44.12,144.63Zm7.81-10.32,7,7.82,19.6-3.38-9.77-10.31Zm-1.36-16.5.81,15.27,16-5.57Z" transform="translate(43.09)" style="fill:#fff"/><path d="M52.38,152.88a.68.68,0,0,1-.56-1l16.61-24.54A.67.67,0,0,1,69,127l25.38,1a.66.66,0,0,1,.64.7.67.67,0,0,1-.7.64l-25-1-16.4,24.23A.66.66,0,0,1,52.38,152.88Z" transform="translate(43.09)" style="fill:#fff"/><path d="M40.89,122.51a2.19,2.19,0,1,0,2.19,2.19A2.19,2.19,0,0,0,40.89,122.51Z" transform="translate(43.09)" style="fill:#fff"/><path d="M40.89,127a2.27,2.27,0,1,1,2.26-2.26A2.27,2.27,0,0,1,40.89,127Zm0-4.37A2.11,2.11,0,1,0,43,124.7,2.1,2.1,0,0,0,40.89,122.59Z" transform="translate(43.09)" style="fill:#fff"/><path d="M69.26,124.38a3.33,3.33,0,1,0,3.26,3.33A3.29,3.29,0,0,0,69.26,124.38Z" transform="translate(43.09)" style="fill:#fff"/><path d="M69.26,131.12a3.41,3.41,0,1,1,3.34-3.41A3.37,3.37,0,0,1,69.26,131.12Zm0-6.67a3.26,3.26,0,1,0,3.18,3.26A3.23,3.23,0,0,0,69.26,124.45Z" transform="translate(43.09)" style="fill:#fff"/><path d="M50.74,131.44a2.82,2.82,0,1,0,2.82,2.81A2.81,2.81,0,0,0,50.74,131.44Z" transform="translate(43.09)" style="fill:#fff"/><path d="M50.74,137.14a2.89,2.89,0,1,1,2.89-2.89A2.89,2.89,0,0,1,50.74,137.14Zm0-5.62a2.74,2.74,0,1,0,2.74,2.73A2.74,2.74,0,0,0,50.74,131.52Z" transform="translate(43.09)" style="fill:#fff"/><path d="M323.75,272c-.4,1.54-2.29,3-3.51,4.1-3.32,3.09-5.46,3-3.91,4.62a4.79,4.79,0,0,0,2.93.33,22.92,22.92,0,0,0,4.63-2l3.85-1.42a2.33,2.33,0,0,0,1-1.9L327.62,272S324.3,269.85,323.75,272Z" transform="translate(43.09)" style="fill:#f9b395"/><path d="M328.39,274.52c0,.62-.56,1.21-1.56,1.72a35.52,35.52,0,0,1-4.4,1.78,5.25,5.25,0,0,1-2.52.46c-.13,0-1.51-.72-1.6-.78-1.83,1.27-3.65,1.81-2,3a5.47,5.47,0,0,0,2.93.33,22.92,22.92,0,0,0,4.63-2l3.85-1.42a1.67,1.67,0,0,0,1-1.9Z" transform="translate(43.09)" style="fill:#0f3c5f"/><path d="M342.61,278.89s-3.54-2.54-4.3-.2c-.61,1.89-3.53,4.49-3.53,4.49-.8.84-3.38,2.6-3.63,3.32-.43,1.22.07,3.28,5.08,1.61,2.29-.76,2.7-2.4,5.71-3.59a2.36,2.36,0,0,0,1.56-2.91Z" transform="translate(43.09)" style="fill:#f9b395"/><path d="M331.38,211.3a6,6,0,0,0-6.81,5.13v0l-.1.71c-.06.44-.14,1.08-.23,1.89-.05.4-.1.85-.14,1.33s-.11,1-.16,1.56-.11,1.15-.16,1.77-.11,1.28-.16,2c-.11,1.36-.22,2.84-.31,4.39s-.18,3.2-.25,4.9q-.06,1.28-.09,2.58c0,.44,0,.87-.05,1.31l0,1.33c0,.89,0,1.79,0,2.69l0,2.72c0,.45,0,.89,0,1.34v1.37c0,.92,0,1.81,0,2.7,0,1.77.09,3.51.14,5.19s.13,3.3.2,4.83.14,3,.21,4.32c.14,2.67.26,4.9.35,6.46s.15,2.45.15,2.45a1.92,1.92,0,0,0,3.83,0h0s.06-.88.16-2.43.25-3.76.46-6.41c.1-1.32.22-2.75.34-4.27s.28-3.11.43-4.76.33-3.34.53-5.06c.1-.85.19-1.72.3-2.56l.17-1.28.18-1.32,0-.33v-.15h0l0-.16.11-.65c.07-.43.14-.86.22-1.29.14-.86.3-1.72.45-2.57.08-.42.15-.85.23-1.27l.24-1.25c.16-.83.32-1.65.48-2.45.32-1.61.65-3.15,1-4.62s.64-2.84.95-4.1.6-2.43.87-3.44c.13-.51.26-1,.38-1.42s.23-.84.34-1.2c.2-.72.36-1.27.48-1.64l.17-.54a7.6,7.6,0,0,0,.22-1A6,6,0,0,0,331.38,211.3Z" transform="translate(43.09)" style="fill:#f9b395"/><path d="M331.38,211.3a6,6,0,0,0-6.81,5.13v0l-.1.71c-.06.44-.14,1.08-.23,1.89-.05.4-.1.85-.14,1.33s-.11,1-.16,1.56-.11,1.15-.16,1.77-.11,1.28-.16,2c-.11,1.36-.22,2.84-.31,4.39s-.18,3.2-.25,4.9q-.06,1.28-.09,2.58v.12a5.72,5.72,0,0,1,.92,1.17,3.8,3.8,0,0,1,1,1.29,23.71,23.71,0,0,1,1.59,4.51,44,44,0,0,1,.73,4.83c.26,2.42.34,4.86.61,7.27.28,2.14.51,4.29.69,6.43.05-.66.11-1.33.16-2,.13-1.51.28-3.11.43-4.76s.33-3.34.53-5.06c.1-.85.19-1.72.3-2.56l.17-1.28.18-1.32,0-.33v-.15h0l0-.16.11-.65c.07-.43.14-.86.22-1.29.14-.86.3-1.72.45-2.57.08-.42.15-.85.23-1.27l.24-1.25c.16-.83.32-1.65.48-2.45.32-1.61.65-3.15,1-4.62s.64-2.84.95-4.1.6-2.43.87-3.44c.13-.51.26-1,.38-1.42s.23-.84.34-1.2c.2-.72.36-1.27.48-1.64l.17-.54a7.6,7.6,0,0,0,.22-1A6,6,0,0,0,331.38,211.3Z" transform="translate(43.09)" style="fill:#6c90b1;opacity:0.1;mix-blend-mode:multiply"/><path d="M338.82,210.12a6,6,0,0,0-5.6,6.41s.27,4.13.69,10.33c.21,3.1.45,6.72.71,10.6.14,1.94.28,3.94.41,6s.3,4.12.44,6.19c0,.54.09,1.07.13,1.61s.09,1,.13,1.54c.1,1,.19,2.07.29,3.1.19,2,.39,4,.6,6,.4,3.87.79,7.48,1.13,10.57s.65,5.66.85,7.46l.33,2.84a1.87,1.87,0,0,0,3.72-.21h0v-2.85c0-1.81,0-4.39.07-7.49s.07-6.72.14-10.59q0-2.91.13-6c0-1,.05-2,.08-3l.06-1.55v-.37l0-.37,0-.75c.12-2.06.24-4.12.36-6.15s.24-4,.36-6c.24-3.87.46-7.49.65-10.59l.65-10.33v0a6.07,6.07,0,0,0-6.41-6.35Z" transform="translate(43.09)" style="fill:#f9b395"/><path d="M338.82,210.12a6,6,0,0,0-5.6,6.41s.27,4.13.69,10.33c.21,3.1.45,6.72.71,10.6.11,1.49.21,3,.32,4.59l.32,0a5.69,5.69,0,0,1,3.95,1.64,6,6,0,0,1,1.63,4c.35,3.68.76,7.34,1.16,11,.29,2.62.56,5.25.79,7.87,0-1.57,0-3.22.08-4.91q0-2.91.13-6c0-1,.05-2,.08-3l.06-1.55v-.37l0-.37,0-.75c.12-2.06.24-4.12.36-6.15s.24-4,.36-6c.24-3.87.46-7.49.65-10.59l.65-10.33v0a6.07,6.07,0,0,0-6.41-6.35Z" transform="translate(43.09)" style="fill:#6c90b1;opacity:0.1;mix-blend-mode:multiply"/><path d="M322.9,212.33l-1.28,23.94s10.08,5.71,16.26,4.58,9-3.89,9-3.89L345,212.33S328.57,216.73,322.9,212.33Z" transform="translate(43.09)" style="fill:#002d42"/><path d="M324.26,215.66c.11.13.24.25.36.37s.53.31.8.45c2.43.86,5,1.17,7.5,1.9,3.71,1.08,7.16,3.08,9.14,6.51a15.59,15.59,0,0,1,1.78,5,20.77,20.77,0,0,1,.2,7.33,10.52,10.52,0,0,1-.54,1.92,13.16,13.16,0,0,0,3.37-2.14L345,212.33s-16.45,4.4-22.12,0l-.1,1.85A7.87,7.87,0,0,1,324.26,215.66Z" transform="translate(43.09)" style="opacity:0.1"/><path d="M331.48,172.7a7.11,7.11,0,0,0-2.27-1.73,2.63,2.63,0,0,0-2.32,0,9.34,9.34,0,0,0-1.72,1.48c-.51.46-11,9.79-12.21,10.12-.51.13-13.62-1.78-16-2.72a2,2,0,0,0-2.09,3.42,4.8,4.8,0,0,0,.93.54l1.3.66c.86.42,1.72.86,2.6,1.25,9.66,4.18,12.95,3.9,12.95,3.9,4,1,13.57-6.52,15.17-7.76.64-.5,1.28-1,1.91-1.52s1.14-.9,1.66-1.39a4.49,4.49,0,0,0,.13-6.29Z" transform="translate(43.09)" style="fill:#0f3c5f"/><path d="M332.58,174.74a4.48,4.48,0,0,0-1.1-2l-.1-.11a7.08,7.08,0,0,1-1.62,2.87c-1.54,1.68-3,3.44-4.61,5a24.26,24.26,0,0,1-5.75,4.43,17.78,17.78,0,0,1-8.76,2.05c-5.13-.12-9.88-1.88-14.79-3.1l1.21.62c.86.42,1.72.86,2.6,1.25,9.66,4.18,12.95,3.9,12.95,3.9,4,1,13.57-6.52,15.17-7.76.64-.5,1.28-1,1.91-1.52s1.14-.9,1.66-1.39A4.52,4.52,0,0,0,332.58,174.74Z" transform="translate(43.09)" style="opacity:0.1"/><path d="M347.54,177c-2.88-8-12.86-7.75-18.84-6.34-3.16.74-1.81,4.43-2.12,5.8l-.11,4.67-1,4a53.7,53.7,0,0,0-.52,8.24l1.29,6.33-3.38,12.71s3.49,3.68,10.94,4.19c4.82.33,7.3.8,11.46-2.51,0,0-.82-7.92-1.89-13.61C340.85,186.85,349.59,182.61,347.54,177Z" transform="translate(43.09)" style="fill:#fff"/><path d="M327,170.94c-2.81,1.61-.91,3.87-1.22,5.25l-2.29,8c-.47,1.6.93,8.61.93,8.61l.09,8.48-2.15,12.52a15,15,0,0,0,6.36,3.39c.06-1.77-.95-5.9-.95-7.67,0-13.66.23-34.38,5.18-39.89A15.89,15.89,0,0,0,327,170.94Z" transform="translate(43.09)" style="fill:#0f3c5f"/><path d="M347.92,176.67c-1.31-3.64-4.91-5.93-8.44-6.83,0,.09-5.52,12.35-5.81,17.48-.1,1.74.1,8.25.14,9.7.13,4.7-.21,18.57-.13,20.39,4.35.32,10.55,1.07,12.31-2.4,0,0-1.51-8.92-2.58-14.61C340.85,186.85,350,182.33,347.92,176.67Z" transform="translate(43.09)" style="fill:#0f3c5f"/><path d="M347.92,176.67a9.14,9.14,0,0,0-1.12-2.12,6.21,6.21,0,0,1-3.9,7.14l-.29.15-.15.16a9.16,9.16,0,0,0-.46.8,21.14,21.14,0,0,0-.85,3.49c-.17,1.56-.26,3.13-.35,4.69a150.7,150.7,0,0,0-.11,16.6c.11,2.11.4,4.23.37,6.35a16.82,16.82,0,0,1-.45,3.71c2.39-.18,4.48-.85,5.38-2.63,0,0-1.51-8.92-2.58-14.61C340.85,186.85,350,182.33,347.92,176.67Z" transform="translate(43.09)" style="opacity:0.1"/><path d="M335.88,168.27c-3.89.73-4.3,3.62-3.95,4.24s1.46,1.88,4.66,1a4.33,4.33,0,0,0,2.89-3.64A3.36,3.36,0,0,0,335.88,168.27Z" transform="translate(43.09)" style="fill:#f9b395"/><path d="M338.82,166.64l-6.11-.65a9.79,9.79,0,0,0,1,6.31l5.74-2.46A5.2,5.2,0,0,1,338.82,166.64Z" transform="translate(43.09)" style="fill:#f9b395"/><path d="M338.82,166.64l-6.11-.65a10.62,10.62,0,0,0,.28,4.61,6,6,0,0,0,1.33.62,2.77,2.77,0,0,0,2-.15,10.36,10.36,0,0,0,2.85-2A5.4,5.4,0,0,1,338.82,166.64Z" transform="translate(43.09)" style="fill:#6c90b1;opacity:0.2;mix-blend-mode:multiply"/><path d="M330.23,164.2c0,3.08,1.3,6.05,4.31,5.26,0,0,5.14-1.52,5.81-4.74l.85-5.68-10.63-1.87Z" transform="translate(43.09)" style="fill:#f9b395"/><path d="M336.87,152.73c-6.49-.78-7.54,7.15-7.54,7.15a8.77,8.77,0,0,0,2.6-1,16.86,16.86,0,0,0,3.45,2.14c1.74.8,3.37.13,4,.88s.09,4.57.09,4.57a9.78,9.78,0,0,0,3.22-7C342.71,156.49,341.94,153.35,336.87,152.73Z" transform="translate(43.09)" style="fill:#b37d57"/><path d="M352.09,190.29c-.59-2.59-1.27-4.9-1.89-6.87s-1.17-3.59-1.57-4.72l-.48-1.32-.18-.49a4,4,0,0,0-.21-.47,4.51,4.51,0,1,0-8,4.12h0l.2.39.58,1.16c.49,1,1.19,2.46,2,4.22s1.65,3.83,2.43,6c.38,1.1.74,2.23,1,3.31.13.54.24,1.07.3,1.52,0,.22,0,.43.05.58l-.26.14-.77.36c-1.09.47-2.25.91-3.39,1.31-2.28.8-4.48,1.48-6.36,2s-3.48,1-4.59,1.33l-1.74.47-.57.12c-1,.26-1.08,1.12-.93,2.15a2,2,0,0,0,2.3,1.7l1.84-.27c1.16-.18,2.81-.44,4.8-.78s4.3-.77,6.8-1.33c1.26-.28,2.55-.59,3.93-1,.34-.1,4.39-1.29,4.95-2.18,1.24-2,.67-6.6.58-7.35A41.86,41.86,0,0,0,352.09,190.29Z" transform="translate(43.09)" style="fill:#0f3c5f"/><path d="M352.85,194.45a41.86,41.86,0,0,0-.76-4.16c-.59-2.59-1.27-4.9-1.89-6.87s-1.17-3.59-1.57-4.72l-.48-1.32-.18-.49a4,4,0,0,0-.21-.47,4.67,4.67,0,0,0-.63-.92,6.65,6.65,0,0,1,.42,1c.83,2.81,1.87,5.57,2.42,8.46.29,1.54.85,5.84,1.12,9.4a6.67,6.67,0,0,1,.13,2.22,14.94,14.94,0,0,1-.05,2.43c0,.5-.75,1-2,1.56a4.21,4.21,0,0,1-1,.68,38.31,38.31,0,0,1-9.5,3.16c-2.88.58-5.79,1-8.67,1.47a8.27,8.27,0,0,1-2.25.13,2,2,0,0,0,2.2,1.32l1.84-.27c1.16-.18,2.81-.44,4.8-.78s4.3-.77,6.8-1.33c1.26-.28,2.55-.59,3.93-1,.34-.1,4.39-1.29,4.95-2.18C353.51,199.81,352.94,195.2,352.85,194.45Z" transform="translate(43.09)" style="opacity:0.1"/><path d="M327.74,204.18l-4.34.68-6.17,3.07s-.19,1,1,.59l3.63-1.1a6.88,6.88,0,0,0,1.06,1.32,6,6,0,0,0,2.48.74,8.53,8.53,0,0,0,2.6-1.09,2.76,2.76,0,0,0,.09-.43c0-.29-.17-.31-.17-.31.42-.38,1.08-.7,1.31-.91a1.28,1.28,0,0,0,.11-1.81A2.4,2.4,0,0,0,327.74,204.18Z" transform="translate(43.09)" style="fill:#f9b395"/><path d="M340.3,162.06c-.34-.17-1.15.9-1.15.9a13,13,0,0,1-.08,1.71c-.1.67,1,.22,1.26-.41S341.08,162.46,340.3,162.06Z" transform="translate(43.09)" style="fill:#f9b395"/><path d="M293.81,178.16c-1.33-1-2.19-.28-2.19-.28l-4.81-1.43s-.84.1.21.89a20.65,20.65,0,0,0,3.17,1.5s-.35.37-1,1.15,1.18,3.47,1.18,3.47a4.64,4.64,0,0,0,2.76-.11l.18-.62s3.1.69,3.3-1.84C296.63,180.26,295,179.12,293.81,178.16Z" transform="translate(43.09)" style="fill:#f9b395"/><path d="M343,280.21a3.63,3.63,0,0,1-.54.82,20.32,20.32,0,0,1-2.13,2.22,11.19,11.19,0,0,1-3.52,2c-1.33.46-1.64.65-2.91.08-.08,0-1.11-.43-1.18-.49a6.17,6.17,0,0,0-1.61,1.62c-.43,1.22.07,3.28,5.08,1.61,2.29-.76,2.7-2.4,5.71-3.59a2.36,2.36,0,0,0,1.56-2.91Z" transform="translate(43.09)" style="fill:#0f3c5f"/><path d="M329.31,203.62l-1.57.56s1.52.41,1.69,1.09c.09.36.31,1.2-.38,1.63l-.18.12a2.33,2.33,0,0,0,.63,0,6.6,6.6,0,0,0,1.19-.29s.64-.38.35-1.67A1.81,1.81,0,0,0,329.31,203.62Z" transform="translate(43.09)" style="fill:#fff"/><path d="M342.44,152.64c-4.4-2.11-4.67,1.13-4.67,1.13a40.41,40.41,0,0,1,3.44,3.42,30.79,30.79,0,0,1,2.16,4.86S345.82,154.26,342.44,152.64Z" transform="translate(43.09)" style="fill:#b37d57"/><path d="M296,179.9a1.7,1.7,0,0,1,.29,1.83,2,2,0,0,1-1.83,1.08,10.56,10.56,0,0,0,1.13.6,1.78,1.78,0,0,0,1.75-.91,2.42,2.42,0,0,0-.09-2.12Z" transform="translate(43.09)" style="fill:#fff"/><path d="M161.66,132.23c-1.25-.94-3.46-3.42-4.86-3.93-3.57-1.31-3.91.76-3.91.76a22.57,22.57,0,0,0-.54,2.39,2.34,2.34,0,0,0,1.13,2c.89.39,2.79.83,3.65,1.27,1.35.69,4.48,2.82,6.21,2.25C165.74,136.23,165.07,134.8,161.66,132.23Z" transform="translate(43.09)" style="fill:#005f8f"/><path d="M140.35,139.24c-1-1.27-2.93-4.29-4.18-4.93-3.46-1.79-4.09,1.47-4.09,1.47s-.5,1.78-.58,2.38a1.79,1.79,0,0,0,.87,1.67,54.24,54.24,0,0,0,6.6,4.09c2.77,1.06,4.4.28,4.9-.9S140.66,139.64,140.35,139.24Z" transform="translate(43.09)" style="fill:#005f8f"/><path d="M159.92,76c0-1.13,0-2.12,0-2.94s0-1.46-.05-1.91l0-.69v-.09A7.37,7.37,0,0,0,159.6,69a7.26,7.26,0,0,0-14.13,3.37l.14.59c.09.4.23,1,.39,1.74s.36,1.68.58,2.74.46,2.26.7,3.58l.38,2c.13.71.26,1.45.39,2.2s.26,1.54.4,2.33l.39,2.44c.26,1.66.52,3.37.77,5.12.12.87.23,1.75.35,2.63s.23,1.77.34,2.66c0,.45.11.89.16,1.33l.08.66.07.68c.1.89.2,1.77.29,2.65.19,1.77.36,3.51.52,5.19s.32,3.32.45,4.87.26,3,.38,4.37.22,2.6.3,3.69.16,2.06.22,2.85c.12,1.58.18,2.48.18,2.48h0c.09,1.33,1.17,1.76,2.53,1.82s2.71-.43,2.77-1.89l.11-2.5c0-.79.08-1.75.14-2.86,0-.55.05-1.14.08-1.76l.1-2c.14-2.72.3-5.89.47-9.29l.27-5.26c0-.9.08-1.81.13-2.72s.07-1.84.11-2.75.07-1.84.09-2.76.06-1.82.07-2.73c.05-1.81.08-3.59.11-5.32l0-2.54c0-.83,0-1.65,0-2.44s0-1.56,0-2.31l0-2.16C160,78.38,159.94,77.11,159.92,76Z" transform="translate(43.09)" style="fill:#002d42"/><path d="M143.5,61.62a7.25,7.25,0,0,0-7.65,6.81l-.17,2.88c-.12,1.83-.28,4.45-.47,7.59-.41,6.28-1,14.66-1.5,23,0,.53-.06,1.06-.1,1.59l-.09,1.59,0,.81,0,.44,0,.48v.38h0v2.71c0,.5,0,1,0,1.48,0,1,0,2-.06,3,0,1.94-.12,3.82-.2,5.61s-.16,3.48-.25,5-.15,3-.24,4.26l-.21,3.29c-.06.91-.12,1.62-.15,2.11l-.06.74v0c-.1,1.34.86,1.92,2.2,2.17s2.8,0,3.08-1.49c0,0,.77-4.13,1.93-10.32.29-1.55.59-3.23.91-5s.67-3.66,1-5.62l.51-3c.09-.5.16-1,.25-1.55l.12-.79.11-.77.11-.77.06-.38v-.11h0v-.08l0-.15.25-1.37.28-1.51.3-1.52q.6-3.07,1.2-6.11c.4-2,.8-4,1.18-5.92.8-3.84,1.54-7.43,2.18-10.5s1.19-5.63,1.58-7.42l.61-2.81v0a7.59,7.59,0,0,0,.14-1.08A7.25,7.25,0,0,0,143.5,61.62Z" transform="translate(43.09)" style="fill:#002d42"/><path d="M180.75,56.87h0L179.26,56l-3.89-2.3-2.58-1.56c-.91-.55-1.86-1.14-2.83-1.75l-1.46-.94c.07,0,0,0-.07-.13l-.33-.39c-.26-.32-.54-.72-.83-1.15s-.57-.91-.85-1.4c-.56-1-1.1-2-1.61-3.06s-1-2.1-1.47-3.13c-.92-2.06-1.74-4-2.41-5.72s-1.22-3.12-1.59-4.12l-.42-1.15-.14-.39h0a5.16,5.16,0,0,0-.21-.49,5,5,0,1,0-9,4.35l.21.43.58,1.18c.5,1,1.23,2.42,2.13,4.12s2,3.66,3.21,5.75c.61,1,1.26,2.12,2,3.21s1.43,2.2,2.24,3.3c.4.56.83,1.11,1.29,1.67A21,21,0,0,0,162.76,54a12.79,12.79,0,0,0,1,.88,8.34,8.34,0,0,0,1.42.91l1.7.69c1.12.45,2.19.86,3.21,1.24l2.86,1.07,4.28,1.56,1.63.58a2.25,2.25,0,0,0,1.9-4.05Z" transform="translate(43.09)" style="fill:#005f8f"/><path d="M180.53,58.2a27.93,27.93,0,0,1-6.1-1.58,37.92,37.92,0,0,1-11.28-6.5c-3-2.57-5.6-5.93-6-10a1,1,0,0,1,.51-1,8.88,8.88,0,0,1-.27-1.88,1,1,0,0,1,.1-.48,68.62,68.62,0,0,1-3.6-11.28,5,5,0,0,0-2,.5,5,5,0,0,0-2.3,6.66l.21.43.58,1.18c.5,1,1.23,2.42,2.13,4.12s2,3.66,3.21,5.75c.61,1,1.26,2.12,2,3.21s1.43,2.2,2.24,3.3c.4.56.83,1.11,1.29,1.67A21,21,0,0,0,162.76,54a12.79,12.79,0,0,0,1,.88,8.34,8.34,0,0,0,1.42.91l1.7.69c1.12.45,2.19.86,3.21,1.24l2.86,1.07,4.28,1.56,1.63.58a2.25,2.25,0,0,0,2.69-3.27A.92.92,0,0,1,180.53,58.2Z" transform="translate(43.09)" style="fill:#00527d"/><path d="M160.16,41c-.5-6.83,1.35-19.17-12-16.71-4.52.83-9.69,4.65-12,6.44-7.73,5.9.43,18.94-.23,16.32,3,11.68-1,10.53-.2,25.74a11.6,11.6,0,0,0,9.49,2.47c9.61-2,14.45-5.39,14.45-5.39s.2-4.33-.12-15.73C159.49,51.68,160.35,43.46,160.16,41Z" transform="translate(43.09)" style="fill:#005f8f"/><path d="M157.93,61.13a28.3,28.3,0,0,1-6.37-.28,16.34,16.34,0,0,1-11.32-7.49,5.39,5.39,0,0,1-.65-4.33l-.41-.49a35.36,35.36,0,0,1-5.81-10.88c-.15-.44-.3-.89-.43-1.34-.88,6,3.49,12.67,3,10.73,3,11.68-1,10.53-.2,25.74a11.6,11.6,0,0,0,9.49,2.47c9.61-2,14.45-5.39,14.45-5.39s.11-2.56,0-8.91C159.11,61,158.52,61.09,157.93,61.13Z" transform="translate(43.09)" style="fill:#005b8a"/><path d="M135.94,47.05c.28,1.13.5,2.13.67,3-.11-1.45-.22-2.9-.39-4.34a26,26,0,0,0-.52-2.6,39,39,0,0,1-2.33-5.49c-.15-.44-.3-.89-.43-1.34C132.06,42.31,136.43,49,135.94,47.05Z" transform="translate(43.09)" style="fill:#00527d"/><path d="M151.18,72.86c-3.65,0-7.84-1-10.38-3.79-3-3.31-2.89-7.62-3.36-11.77-.13-.92-.26-1.84-.38-2.75,0,4.84-1.87,7.33-1.32,18.24a11.6,11.6,0,0,0,9.49,2.47,55.29,55.29,0,0,0,8.7-2.56A19.51,19.51,0,0,1,151.18,72.86Z" transform="translate(43.09)" style="fill:#00527d"/><path d="M151.67,19.6,145,20l-.58,6.79a4,4,0,1,0,7.9-.74Z" transform="translate(43.09)" style="fill:#b37d57"/><path d="M144.65,23.85a8,8,0,0,0,6.55,4.66l.47,0a4,4,0,0,0,.61-2.5l-.61-6.46L145,20l-.33,3.82A0,0,0,0,1,144.65,23.85Z" transform="translate(43.09)" style="fill:#a1704e"/><path d="M144,20.68c-.21,3.31,5.24,5.44,5.59,5.54,2.7.73,5-1.15,5.21-4.53l.55-8.49-11.61,1.3Z" transform="translate(43.09)" style="fill:#b37d57"/><path d="M154.1,9.69c-4.37-3.16-8.41-1.75-11.34,1.49-1.43,1.58-.74,5-.45,6.6a12.13,12.13,0,0,0,2.61,5.71l.7-5.63.6,1.17,1-.64S147,16,147,15.57c.15-1.36,8.23-1,8.23-1S158.86,13.13,154.1,9.69Z" transform="translate(43.09)" style="fill:#002d42"/><path d="M156.88,15.33l-1.66-.67v.24l1.5.7h0a.16.16,0,0,0,.17-.28Z" transform="translate(43.09)" style="fill:#434d57"/><g style="opacity:0.5"><path d="M151.82,18.2c-1.46.68-2,1.17-1.74,2.17s.74,1.45,2,.61a3.1,3.1,0,0,0,1.38-2.79C153.42,17.73,153.22,17.54,151.82,18.2Z" transform="translate(43.09)" style="fill:#fff"/></g><g style="opacity:0.5"><path d="M155.38,16.19c-1.19.8-1.36,1.2-1.32,1.66.14,1.43,1.13,1.33,1.6,1.13,1.06-.45,1.27-1.25,1.27-2.41S156.52,15.43,155.38,16.19Z" transform="translate(43.09)" style="fill:#fff"/></g><path d="M157.05,15.31s0-.06-.05-.05h0a4.41,4.41,0,0,0-1.2.55h0l-.31.19-.15.1a5.61,5.61,0,0,0-1,.83l-.12.13a3.37,3.37,0,0,1-.48.46,1.75,1.75,0,0,1-.56.12l-.15,0a4.67,4.67,0,0,0-1.21.44l-.18.09-.35.17h0a12.16,12.16,0,0,0-1.6,1c-.05,0-4.74-.89-3.41-.51,0,.11,3.32.8,3.32.9a.06.06,0,0,0,.09.05h0s.13,0,.14.17a.64.64,0,0,0,0,.09,1.9,1.9,0,0,0,.07.45c.25.88.65,1.39,1.67.91a3.1,3.1,0,0,0,.48-.28,3.29,3.29,0,0,0,1.47-2.64h0v-.13c0-.33.12-.44.17-.47h0s.16-.05.21.2a.59.59,0,0,1,0,.13v0h0a1.11,1.11,0,0,0,1.65.9l.4-.21a2.49,2.49,0,0,0,.95-2.35,2.48,2.48,0,0,0,0-.5s0,0,0-.07a.4.4,0,0,1,.06-.28h0a.13.13,0,0,0,0-.13Zm-5,5.57a4.26,4.26,0,0,1-.44.25c-.87.41-1.19,0-1.43-.83a1.09,1.09,0,0,1,.05-.9,3.15,3.15,0,0,1,1.4-1l.18-.09c1.39-.65,1.51-.43,1.54-.07A3,3,0,0,1,152.06,20.88Zm4-2.21a3,3,0,0,1-.36.19c-.22.09-1.36.47-1.51-1.07,0-.36.05-.7,1.23-1.49l.15-.09c.61-.4.94-.52,1.12-.38s.19.34.19.77C156.84,17.57,156.7,18.23,156,18.67Z" transform="translate(43.09)" style="fill:#434d57"/><path d="M143.65,18c-.28,1.45.58,3.11,1.79,2.65l.18-2.81S144,16.07,143.65,18Z" transform="translate(43.09)" style="fill:#b37d57"/><path d="M144.58,24.46l-.84,1.18C143.6,32,150,32.76,150,32.76l.68-3.16C145.07,29.31,144.58,24.46,144.58,24.46Z" transform="translate(43.09)" style="fill:#fff"/><path d="M150.7,29.6s1.36,1.68,1.92,2.43c0,0,1.8-3.89-.34-6A4.07,4.07,0,0,1,150.7,29.6Z" transform="translate(43.09)" style="fill:#fff"/><path d="M157.26,67.64h0l-1.54-.95c-1-.61-2.4-1.48-4.07-2.55S148,61.82,146,60.45l-1.51-1.06c-.49-.35-1-.71-1.42-1.07l0-.72c0-1.28-.08-2.6-.11-3.89s-.05-2.58-.08-3.82c0-2.49-.06-4.81-.08-6.8l-.06-6.63v-.05a5.85,5.85,0,0,0,0-.59,5.07,5.07,0,0,0-10,1.32s.35,2.65.87,6.62c.27,2,.58,4.3.92,6.79.18,1.24.36,2.53.55,3.83s.39,2.64.61,4l.19,1,.1.58.07.34,0,.09.08.34v0s0,0,0,0a5.44,5.44,0,0,0,.19.52,1,1,0,0,1,.08.17l.06.11c.05.07.09.15.12.2l.11.16a1.25,1.25,0,0,0,.09.12l.09.12.07.09.08.09.06.07.07.07.06.06c.15.15.28.26.4.36s.42.33.61.46c.36.25.69.45,1,.64.64.38,1.25.71,1.85,1s1.18.61,1.76.89c2.29,1.14,4.43,2.12,6.26,2.95s3.37,1.51,4.45,2l1.69.73a2.28,2.28,0,0,0,2.1-4Z" transform="translate(43.09)" style="fill:#005f8f"/><path d="M146.45,64.64a22.89,22.89,0,0,1-7.51-6c-2.44-3.24-3.2-7.26-3.81-11.18a96.19,96.19,0,0,1-1.07-14.58,5.05,5.05,0,0,0-1.44,4.23s.35,2.65.87,6.62c.27,2,.58,4.3.92,6.79.18,1.24.36,2.53.55,3.83s.39,2.64.61,4l.19,1,.1.58.07.34,0,.09.08.34v0s0,0,0,0a5.44,5.44,0,0,0,.19.52,1,1,0,0,1,.08.17l.06.11c.05.07.09.15.12.2l.11.16a1.25,1.25,0,0,0,.09.12l.09.12.07.09.08.09.06.07.07.07.06.06c.15.15.28.26.4.36s.42.33.61.46c.36.25.69.45,1,.64.64.38,1.25.71,1.85,1s1.18.61,1.76.89c2.29,1.14,4.43,2.12,6.26,2.95s3.37,1.51,4.45,2l1.69.73a2.27,2.27,0,0,0,2.85-.9,2.17,2.17,0,0,0,.32-.9c-.2-.05-.39-.09-.58-.15A50.74,50.74,0,0,1,146.45,64.64Z" transform="translate(43.09)" style="fill:#00527d"/><polygon points="279.15 16.86 279.15 46.82 305.09 61.8 331.04 46.82 331.04 16.86 305.09 1.88 279.15 16.86" style="fill:#86afd1"/><path d="M262,63.68,234.43,47.76V15.92L262,0l27.57,15.92V47.76ZM237.1,46.21,262,60.59l24.9-14.38V17.46L262,3.09,237.1,17.46Z" transform="translate(43.09)" style="fill:#fff"/><rect x="183.47" y="46.64" width="56.87" height="1.72" transform="translate(49.92 118.94) rotate(-31.84)" style="fill:#fff"/><path d="M181.67,238.19a.87.87,0,1,1,.87-.87h0A.87.87,0,0,1,181.67,238.19Z" transform="translate(43.09)" style="fill:#fff"/><path d="M181.67,265.29a.86.86,0,0,1-.86-.86v0a.87.87,0,0,1,1.73,0v0A.86.86,0,0,1,181.67,265.29Zm0-3.87a.86.86,0,0,1-.86-.86v0a.87.87,0,0,1,1.73,0v0A.86.86,0,0,1,181.67,261.42Zm0-3.87a.87.87,0,0,1-.86-.86v0a.87.87,0,0,1,1.73,0v0A.87.87,0,0,1,181.67,257.55Zm0-3.87a.87.87,0,0,1-.86-.87h0a.87.87,0,1,1,1.73,0h0A.87.87,0,0,1,181.67,253.68Zm0-3.88a.86.86,0,0,1-.86-.86v0a.87.87,0,0,1,1.73,0v0A.86.86,0,0,1,181.67,249.8Zm0-3.87a.86.86,0,0,1-.86-.86v0a.87.87,0,0,1,1.73,0v0A.86.86,0,0,1,181.67,245.93Zm0-3.87a.87.87,0,0,1-.86-.86v0a.87.87,0,0,1,1.73,0v0A.87.87,0,0,1,181.67,242.06Z" transform="translate(43.09)" style="fill:#fff"/><path d="M181.67,269.16a.87.87,0,1,1,.87-.88h0A.87.87,0,0,1,181.67,269.16Z" transform="translate(43.09)" style="fill:#fff"/><path d="M181.77,266.72A2.25,2.25,0,1,0,184,269,2.25,2.25,0,0,0,181.77,266.72Z" transform="translate(43.09)" style="fill:#fff"/><polygon points="200.43 60.43 200.5 85.65 208.99 90.58 208.91 65.36 200.43 60.43" style="fill:#f15c2b"/><polygon points="200.43 60.43 208.91 65.36 233.64 51.09 225.16 46.16 200.43 60.43" style="fill:#f15c2b"/><polygon points="208.91 65.36 208.99 90.58 233.71 76.31 233.64 51.09 208.91 65.36" style="fill:#de5528"/><path d="M178.21,63.19a6.38,6.38,0,0,0-2.88,5c0,1.2.56,1.93,1.39,2l-.94,8.66L180.72,76l-1-7.55a6.29,6.29,0,0,0,1.37-3.63C181.11,63,179.81,62.27,178.21,63.19Z" transform="translate(43.09)" style="fill:#692510"/><path d="M183,37.49a4.65,4.65,0,0,0-1.93-2.16l0,0-1.81-1.05a4.49,4.49,0,0,0-1.35-.51,7.31,7.31,0,0,0-5,1.13,15.58,15.58,0,0,0-3.47,2.81,21.46,21.46,0,0,0-3.91,6,16.68,16.68,0,0,0-1.51,6.62l0,10.05c0,.32.31.87,1.91.87,1.87,0,2-1,2-1l0-10.05a12,12,0,0,1,.53-3.38A16.43,16.43,0,0,1,171,41.89a13.17,13.17,0,0,1,3.83-3.57,6.81,6.81,0,0,1,2.67-.92,4.12,4.12,0,0,1,1.23.07,5.53,5.53,0,0,1,1.19,3.73l0,10c0,.33.45,1.07,2.08,1,1.28,0,1.78-.51,1.78-1.16l0-10A8.48,8.48,0,0,0,183,37.49Z" transform="translate(43.09)" style="fill:#fff"/><path d="M101.43,118.71a.86.86,0,0,1-.73-.41.85.85,0,0,1,.28-1.18L160.7,79.83a.86.86,0,0,1,1.19.28.87.87,0,0,1-.27,1.19l-59.73,37.28A.84.84,0,0,1,101.43,118.71Z" transform="translate(43.09)" style="fill:#fff"/><path d="M155.56,70a2.46,2.46,0,0,0,1.31,2.86,14.52,14.52,0,0,0,5.55,1.58l.63-5a41.63,41.63,0,0,1-5-1A1.88,1.88,0,0,0,155.56,70Z" transform="translate(43.09)" style="fill:#b37d57"/><path d="M165.26,73.66h-1l-.2,0-.44,0-.46-.07a4,4,0,0,1-.48-.09l-.48-.1-.46-.12-.79-.26-.54-.22-.14-.06-.05,0h0a.6.6,0,0,0-.8.33.61.61,0,0,0,.33.8l.06,0,.18.07.62.21c.25.09.56.17.88.25l.51.11c.17,0,.34.07.52.09l.53.08.51,0,.49,0h1.08l.25,0a.49.49,0,0,0-.05-1Z" transform="translate(43.09)" style="fill:#b37d57"/><path d="M166.37,72.37h-.6c-.12,0-.26,0-.41,0a4,4,0,0,1-.48,0l-.53,0-.56-.07-.59-.08-.58-.11c-.19,0-.37-.08-.55-.12-.36-.09-.69-.18-1-.27s-.51-.17-.67-.22l-.17-.07-.06,0h0a.64.64,0,0,0-.82.4.66.66,0,0,0,.4.82l.08,0,.22.07c.18.06.43.13.74.2s.68.15,1.07.22c.19,0,.39.07.6.09l.62.08.63,0c.21,0,.41,0,.61,0h.57l.51,0,.43,0,.33,0,.28,0a.43.43,0,0,0,0-.86Z" transform="translate(43.09)" style="fill:#b37d57"/><path d="M166.81,70.83h0l-.24,0-.28,0H165l-.51,0-.52,0-.51-.08-.49-.1-.46-.11-.4-.11-.57-.21a.58.58,0,0,1-.14-.07l-.05,0h0a.64.64,0,0,0-.49,1.19l.07,0,.2.08.69.21.46.11.51.09.55.08a5.48,5.48,0,0,0,.57.05l.58,0H165l.52,0,.46,0,.38,0,.3,0,.26,0a.49.49,0,0,0-.1-1Z" transform="translate(43.09)" style="fill:#b37d57"/><path d="M166.45,69.62h-.62l-.42,0-.49,0-.55,0-.59-.07c-.19,0-.4,0-.6-.09l-.59-.11-.58-.13c-.37-.08-.71-.18-1-.27s-.52-.17-.68-.23l-.18-.07-.06,0H160a.65.65,0,0,0-.82.39.65.65,0,0,0,.39.83l.08,0,.22.08c.19.06.45.14.77.22s.69.16,1.09.23l.62.1c.21,0,.42.06.64.09l.64.07.62,0,.58,0h1.6a.47.47,0,0,0,.45-.47A.47.47,0,0,0,166.45,69.62Z" transform="translate(43.09)" style="fill:#b37d57"/><path d="M156.5,68.42a.88.88,0,0,0-.3,1.23,1.06,1.06,0,0,0,1.41.5h0l.15-.07,3-1.5,2.11-.35c1.08-.07.87-.94.87-.94S158.37,66.91,156.5,68.42Z" transform="translate(43.09)" style="fill:#b37d57"/><path d="M262,50.25l-.38-.22c-.27-.15-6.65-3.77-8.66-5.73a16.27,16.27,0,0,1-4.6-10.73l-.51-15.21.74,0a22.8,22.8,0,0,0,12.9-4.58l.51-.45.51.45a22.84,22.84,0,0,0,12.9,4.58l.75,0-.52,15.21A16.21,16.21,0,0,1,271,44.3c-2,2-8.39,5.58-8.66,5.73ZM249.43,19.79l.47,13.76A14.9,14.9,0,0,0,254,43.2c1.6,1.56,6.56,4.47,8,5.28,1.41-.81,6.37-3.72,8-5.28a15,15,0,0,0,4.13-9.65v0l.46-13.74A24.5,24.5,0,0,1,262,15.29,24.5,24.5,0,0,1,249.43,19.79Z" transform="translate(43.09)" style="fill:#fff"/><path d="M262,31.06A4,4,0,1,1,266,27.11,4,4,0,0,1,262,31.06Zm0-6.37a2.42,2.42,0,1,0,2.42,2.42A2.42,2.42,0,0,0,262,24.69Z" transform="translate(43.09)" style="fill:#fff"/><path d="M262,40.52a.77.77,0,0,1-.77-.76V30.3a.77.77,0,1,1,1.54,0v9.46A.77.77,0,0,1,262,40.52Z" transform="translate(43.09)" style="fill:#fff"/><path d="M263.87,38.34H262a.77.77,0,1,1,0-1.53h1.87a.77.77,0,1,1,0,1.53Z" transform="translate(43.09)" style="fill:#fff"/><g style="opacity:0.4"><polygon points="351.96 214.57 384.66 232.69 384.76 195.54 352.07 177.42 351.96 214.57" style="fill:#fff"/></g><polygon points="359.56 197.88 373.47 205.91 366.53 193.9 359.56 197.88" style="fill:#f15c2b"/><polygon points="373 218.88 379.98 214.91 366.07 206.87 373 218.88" style="fill:#fff"/><polygon points="253.53 90.91 321.85 130.35 321.87 125.84 253.55 86.39 253.53 90.91" style="fill:#0080c2"/><g style="opacity:0.4"><polygon points="253.37 157.12 321.69 196.56 321.85 130.35 253.53 90.91 253.37 157.12" style="fill:#fff"/></g><polygon points="262.35 134.28 264.24 135.38 264.27 126.22 262.38 125.12 262.35 134.28" style="fill:#0080c2"/><polygon points="265.83 131.92 267.73 133.01 267.76 119.68 265.87 118.58 265.83 131.92" style="fill:#0080c2"/><polygon points="269.28 141.15 271.17 142.25 271.21 128.84 269.32 127.75 269.28 141.15" style="fill:#f15c2b"/><polygon points="272.74 145.88 274.64 146.97 274.67 134.78 272.77 133.68 272.74 145.88" style="fill:#f15c2b"/><polygon points="276.22 145.75 278.11 146.84 278.13 141.71 276.23 140.62 276.22 145.75" style="fill:#f15c2b"/><polygon points="279.69 145.74 281.59 146.83 281.62 137.05 279.72 135.95 279.69 145.74" style="fill:#0080c2"/><polygon points="283.17 144.46 285.06 145.55 285.11 128.76 283.22 127.66 283.17 144.46" style="fill:#0080c2"/><polygon points="286.63 148.81 288.53 149.9 288.61 122.81 286.71 121.72 286.63 148.81" style="fill:#0080c2"/><polygon points="290.11 148.66 292 149.76 292.06 129.85 290.17 128.76 290.11 148.66" style="fill:#f15c2b"/><polygon points="293.59 147.27 295.48 148.37 295.51 138.75 293.62 137.65 293.59 147.27" style="fill:#0080c2"/><polygon points="297.06 146.82 298.96 147.91 298.97 142.72 297.08 141.62 297.06 146.82" style="fill:#f15c2b"/><polygon points="300.53 150.78 302.42 151.87 302.44 146.87 300.54 145.78 300.53 150.78" style="fill:#f15c2b"/><polygon points="310.9 170.39 312.79 171.48 312.88 139.94 310.99 138.85 310.9 170.39" style="fill:#0080c2"/><polygon points="307.44 165.17 309.33 166.26 309.38 149.8 307.49 148.71 307.44 165.17" style="fill:#0080c2"/><polygon points="303.99 157.04 305.88 158.14 305.9 150.25 304.01 149.16 303.99 157.04" style="fill:#f15c2b"/><polygon points="258.2 144.19 286.43 160.21 286.44 158.72 258.2 142.7 258.2 144.19" style="fill:#fff"/><polygon points="258.2 147.95 286.43 163.97 286.44 162.48 258.2 146.46 258.2 147.95" style="fill:#fff"/><polygon points="264.09 154.97 286.43 167.74 286.44 166.25 264.1 153.49 264.09 154.97" style="fill:#fff"/><g style="opacity:0.4"><polygon points="290.9 218.35 348.29 251.48 348.43 201.8 291.04 168.67 290.9 218.35" style="fill:#fff"/></g><polygon points="290.9 171.92 348.29 205.05 348.43 201.8 291.04 168.67 290.9 171.92" style="fill:#f15c2b"/><g style="opacity:0.4"><polygon points="318.1 164.27 342.13 177.59 342.13 150.28 318.1 136.97 318.1 164.27" style="fill:#fff"/></g><polygon points="324.69 161.41 335.5 167.65 335.51 161.88 324.71 155.64 324.69 161.41" style="fill:#fff"/><polygon points="324.71 152.67 335.52 158.91 335.54 153.14 324.73 146.9 324.71 152.67" style="fill:#fff"/><polygon points="296.41 213.05 342.91 239.71 342.91 238.22 296.41 211.56 296.41 213.05" style="fill:#fff"/><polygon points="296.41 216.31 342.91 242.97 342.91 241.48 296.41 214.82 296.41 216.31" style="fill:#fff"/><path d="M44.16,8.85a6.78,6.78,0,0,0-.81.4Z" transform="translate(43.09)" style="fill:#55768a"/><path d="M85.72,42.52c0-7-4.93-15.62-11.07-19.16A8.75,8.75,0,0,0,68.13,22c-2.24-5.76-6.43-11.19-11.24-14C53.28,6,50,5.79,47.64,7.16L44.16,8.85c2.27-.91,5.22-.55,8.44,1.31,4.81,2.77,9,8.2,11.24,14a8.8,8.8,0,0,1,6.52,1.32C76.5,29,81.45,37.57,81.43,44.61c5.65,4.66,9.9,12.86,9.88,19.73,0,3.89-1.38,6.62-3.6,7.9L92,70.16c2.22-1.29,3.59-4,3.6-7.9C95.62,55.38,91.37,47.19,85.72,42.52Z" transform="translate(43.09)" style="fill:#b5cfe2"/><path d="M81.43,44.61c0-7-4.93-15.63-11.07-19.17a8.8,8.8,0,0,0-6.52-1.32c-2.24-5.76-6.43-11.19-11.24-14-7.19-4.15-13-.83-13.05,7.44a21.45,21.45,0,0,0,.24,3c-5.77-2.16-10.18,1.08-10.2,8.06,0,7.81,5.47,17.34,12.28,21.27L79,71.39c6.8,3.93,12.34.77,12.36-7C91.33,57.47,87.08,49.28,81.43,44.61Z" transform="translate(43.09)" style="fill:#86afd1"/><path d="M314.36,54c-1.34-.75-2.42-.1-2.4,1.44a5.31,5.31,0,0,0,2.47,4.15c1.35.75,2.42.1,2.4-1.44A5.33,5.33,0,0,0,314.36,54Z" transform="translate(43.09)" style="fill:#fff;opacity:0.4"/><path d="M306,49.35c-1.35-.75-2.42-.1-2.4,1.44A5.34,5.34,0,0,0,306.08,55c1.34.74,2.41.1,2.39-1.45A5.32,5.32,0,0,0,306,49.35Z" transform="translate(43.09)" style="fill:#fff;opacity:0.701961"/><path d="M297.65,44.7c-1.34-.75-2.41-.1-2.39,1.45a5.32,5.32,0,0,0,2.47,4.15c1.34.74,2.41.1,2.39-1.45A5.32,5.32,0,0,0,297.65,44.7Z" transform="translate(43.09)" style="fill:#fff"/><g style="isolation:isolate"><path d="M298.18,217.23v0Z" transform="translate(43.09)" style="fill:#fff"/><path d="M297.14,212.66a.88.88,0,0,1,.05.15A.88.88,0,0,0,297.14,212.66Z" transform="translate(43.09)" style="fill:#fff"/><path d="M295.56,209.21l0,0Z" transform="translate(43.09)" style="fill:#ffcc12"/><path d="M295.58,209.25l.23.43Z" transform="translate(43.09)" style="fill:#ffcc12"/><path d="M295.28,208.73l.28.48Z" transform="translate(43.09)" style="fill:#ffcc12"/><path d="M295,208.27l.27.44Z" transform="translate(43.09)" style="fill:#ffcc12"/><path d="M295,208.23h0l0,0Z" transform="translate(43.09)" style="fill:#ffcc12"/><path d="M288.66,201.86l0,11.36,6.34-5A19,19,0,0,0,288.66,201.86Z" transform="translate(43.09)" style="fill:#ffcc12"/><path d="M295.81,209.68l.06.11Z" transform="translate(43.09)" style="fill:#ffcc12"/><path d="M295.26,208.71l0,0Z" transform="translate(43.09)" style="fill:#ffcc12"/><path d="M296.12,210.27l.23.48Z" transform="translate(43.09)" style="fill:#ffcc12"/><path d="M296.62,211.36l.15.35Z" transform="translate(43.09)" style="fill:#ffcc12"/><path d="M296.77,211.71l.06.14Z" transform="translate(43.09)" style="fill:#ffcc12"/><path d="M296.83,211.85c.07.16.13.32.19.48C297,212.17,296.9,212,296.83,211.85Z" transform="translate(43.09)" style="fill:#ffcc12"/><path d="M296.56,211.22l.06.14Z" transform="translate(43.09)" style="fill:#ffcc12"/><path d="M295.87,209.79c.07.13.13.26.2.38C296,210.05,295.94,209.92,295.87,209.79Z" transform="translate(43.09)" style="fill:#ffcc12"/><path d="M296.07,210.17a.31.31,0,0,0,.05.1A.31.31,0,0,1,296.07,210.17Z" transform="translate(43.09)" style="fill:#ffcc12"/><path d="M296.35,210.75l0,0Z" transform="translate(43.09)" style="fill:#ffcc12"/><path d="M296.37,210.79l.19.43Z" transform="translate(43.09)" style="fill:#ffcc12"/><path d="M298.2,217.57s0,0-.08-.89a1.52,1.52,0,0,0,0-.21s0,0-.08-.54v-.14c0-.07,0-.14,0-.21s0,0,0-.16l0-.08v-.07a1.9,1.9,0,0,1-.05-.23l0-.08,0-.07c0-.09,0-.19-.07-.29s0,0-.2-.75l0-.08,0-.09s0,0-.05-.17l0-.07,0-.08,0-.08,0-.08,0-.08a23,23,0,0,0-2.33-4.89l-6.34,5,0,10.7c5.3,3.06,9.61.61,9.63-5.49,0,0,0-.05,0-.79Z" transform="translate(43.09)" style="fill:#0080c2"/></g><path d="M298.23,218.33v0Z" transform="translate(43.09)" style="fill:#fff"/><path d="M297.92,215.44v0Z" transform="translate(43.09)" style="fill:#fff"/><path d="M297.91,215.37v0Z" transform="translate(43.09)" style="fill:#fff"/><path d="M297.43,213.51l0,0Z" transform="translate(43.09)" style="fill:#fff"/><path d="M297.24,213v0Z" transform="translate(43.09)" style="fill:#fff"/><path d="M279,207.35c0,6.09,4.26,13.51,9.57,16.57l0-10.7,0-11.36C283.36,198.8,279.05,201.25,279,207.35Z" transform="translate(43.09)" style="fill:#f15c2b"/><path d="M267.52,191l-.16-.18Z" transform="translate(43.09)" style="fill:#fff"/><path d="M267.55,191l0,0Z" transform="translate(43.09)" style="fill:#fff"/><path d="M267.7,191.2l-.15-.18Z" transform="translate(43.09)" style="fill:#fff"/><path d="M268.55,192.3v0Z" transform="translate(43.09)" style="fill:#fff"/><path d="M268.69,192.48l-.14-.18Z" transform="translate(43.09)" style="fill:#fff"/><path d="M268.85,192.7l-.12-.17Z" transform="translate(43.09)" style="fill:#fff"/><path d="M268.9,192.77l0-.07Z" transform="translate(43.09)" style="fill:#fff"/><path d="M269.06,193l-.05-.08Z" transform="translate(43.09)" style="fill:#fff"/><path d="M269.17,193.18l-.11-.16Z" transform="translate(43.09)" style="fill:#fff"/><path d="M269.33,193.42l-.11-.16Z" transform="translate(43.09)" style="fill:#fff"/><path d="M269.38,193.49l-.05-.07Z" transform="translate(43.09)" style="fill:#fff"/><path d="M263.87,187.7l-.22-.15Z" transform="translate(43.09)" style="fill:#fff"/><path d="M264.09,187.85l-.13-.09Z" transform="translate(43.09)" style="fill:#fff"/><path d="M264.19,187.92l-.1-.07Z" transform="translate(43.09)" style="fill:#fff"/><path d="M264.42,188.08l-.11-.08Z" transform="translate(43.09)" style="fill:#fff"/><path d="M264.53,188.16l-.11-.08Z" transform="translate(43.09)" style="fill:#fff"/><path d="M264.86,188.42l-.12-.1Z" transform="translate(43.09)" style="fill:#fff"/><path d="M264.94,188.48l-.08-.06Z" transform="translate(43.09)" style="fill:#fff"/><path d="M265.64,189.07c-.18-.16-.35-.31-.53-.45C265.29,188.76,265.46,188.91,265.64,189.07Z" transform="translate(43.09)" style="fill:#fff"/><path d="M265.68,189.11l0,0Z" transform="translate(43.09)" style="fill:#fff"/><path d="M265.83,189.24l-.15-.13Z" transform="translate(43.09)" style="fill:#fff"/><path d="M265.88,189.29l-.05,0Z" transform="translate(43.09)" style="fill:#fff"/><path d="M266,189.43l-.15-.14Z" transform="translate(43.09)" style="fill:#fff"/><path d="M266.08,189.48l-.05,0Z" transform="translate(43.09)" style="fill:#fff"/><path d="M266.24,189.62l-.16-.14Z" transform="translate(43.09)" style="fill:#fff"/><g style="isolation:isolate"><path d="M263.12,187.23c-5.35-3.09-9.7-.61-9.72,5.54s4.31,13.63,9.65,16.71a8.33,8.33,0,0,0,3.24,1.23,8,8,0,0,0,3.79-.64l-7-12Z" transform="translate(43.09)" style="fill:#0080c2"/><path d="M266.45,189.83h0Z" transform="translate(43.09)" style="fill:#fff"/><path d="M267.36,190.81l0,0Z" transform="translate(43.09)" style="fill:#fff"/><path d="M263.62,187.54l-.05,0-.06,0,0,0h0l0,0,0,0,0,0,0,0h0l-.06,0-.06,0-.06,0,0,10.79,6.39-4.36A19.65,19.65,0,0,0,263.62,187.54Z" transform="translate(43.09)" style="fill:#f15c2b"/><path d="M263.09,198l3.2,12.69c3.76.64,6.46-1.92,6.48-6.76a20.06,20.06,0,0,0-3.29-10.29Z" transform="translate(43.09)" style="fill:#ffcc12"/><path d="M269.38,193.49l.1.17h0Z" transform="translate(43.09)" style="fill:#ffcc12"/></g><path d="M269.22,193.26l-.05-.08Z" transform="translate(43.09)" style="fill:#fff"/><path d="M295.65,78.22l8,13.82,4.53,7.86a4.92,4.92,0,0,0,5.09-2.49L300.38,75.12A4.89,4.89,0,0,0,295.65,78.22Z" transform="translate(43.09)" style="fill:#eda217"/><path d="M295.65,78.22a9.41,9.41,0,0,0-.71,3.74c0,6.12,4.29,13.58,9.62,16.66a9.56,9.56,0,0,0,3.6,1.28L303.63,92Z" transform="translate(43.09)" style="fill:#e89200"/><path d="M309,80.15a17.36,17.36,0,0,0-4.36-3.71,8.85,8.85,0,0,0-4.24-1.32l12.87,22.29a8.69,8.69,0,0,0,1-4.31c0-2.82-1.18-6-2.41-8.76A41.24,41.24,0,0,0,309,80.15Z" transform="translate(43.09)" style="fill:#e89200"/><path d="M304.64,72.08c-7.43-4.28-13.47-.84-13.49,7.69s6,18.92,13.4,23.21,13.46.84,13.48-7.69S312.06,76.37,304.64,72.08Zm-.08,26.54c-5.33-3.08-9.64-10.54-9.62-16.66s4.35-8.6,9.68-5.52S314.26,87,314.24,93.1,309.89,101.69,304.56,98.62Z" transform="translate(43.09)" style="fill:#ffcc12"/><path d="M307.32,70.52c-3.73-2.16-7.12-2.36-9.56-.94l-2.69,1.57c2.44-1.42,5.83-1.22,9.57.93,7.42,4.29,13.42,14.68,13.39,23.21,0,4.24-1.5,7.22-3.92,8.62l2.69-1.56c2.41-1.4,3.91-4.38,3.92-8.62C320.74,85.2,314.75,74.81,307.32,70.52Z" transform="translate(43.09)" style="fill:#f0ad11"/><path d="M306.78,92.33a1.45,1.45,0,0,1-.67.23,1.79,1.79,0,0,1-.75-.08,3.33,3.33,0,0,1-.76-.32,5.34,5.34,0,0,1-1.69-1.6,8.73,8.73,0,0,1-1.12-2.27L304.74,90l.48-1.09-3.79-2.19a9.37,9.37,0,0,1-.05-1l3.88,2.24.49-1.07-4.19-2.42a3.18,3.18,0,0,1,.41-.87,1.71,1.71,0,0,1,.63-.57,1.64,1.64,0,0,1,.87-.13,2.93,2.93,0,0,1,1.11.41,5.79,5.79,0,0,1,.74.53,6,6,0,0,1,.75.76,6.84,6.84,0,0,1,.67,1,6.2,6.2,0,0,1,.5,1.23l1.71-.37a10,10,0,0,0-1.65-3,9,9,0,0,0-2.65-2.34,5.37,5.37,0,0,0-2-.74,3,3,0,0,0-1.6.22,2.82,2.82,0,0,0-1.12,1,4.28,4.28,0,0,0-.63,1.59l-.79-.46L298,83.74l1.15.67a8,8,0,0,0,0,1l-.92-.53L297.77,86l1.7,1a13.84,13.84,0,0,0,.75,2.19,13.53,13.53,0,0,0,1.14,2.08A12.33,12.33,0,0,0,302.81,93a7.74,7.74,0,0,0,1.72,1.35,5.62,5.62,0,0,0,1.37.59,4.23,4.23,0,0,0,1.33.17,2.28,2.28,0,0,0,1.12-.31,1.72,1.72,0,0,0,.76-.87l-1.82-2.26A1.48,1.48,0,0,1,306.78,92.33Z" transform="translate(43.09)" style="fill:#ffe071"/><polygon points="333.94 95.29 324.66 92.77 327.35 97.42 278.83 121.87 269.5 106.57 243.27 122.06 243.27 125.2 268.58 110.26 277.81 125.41 328.7 99.77 331.45 104.52 333.94 95.29" style="fill:#fff"/><polygon points="197.78 190.08 197.78 221.19 224.72 236.75 251.66 221.19 251.66 190.08 224.72 174.53 197.78 190.08" style="fill:#86afd1"/><path d="M181.63,238.63l-28.57-16.5v-33l28.57-16.49,28.57,16.49v33Zm-25.86-18.06,25.86,14.92,25.86-14.92V190.71l-25.86-14.93-25.86,14.93Z" transform="translate(43.09)" style="fill:#fff"/><rect x="212.43" y="207.75" width="5.33" height="10.55" style="fill:#fff"/><rect x="222.06" y="201.62" width="5.33" height="16.67" style="fill:#fff"/><rect x="231.69" y="192.98" width="5.33" height="25.32" style="fill:#fff"/><path d="M229.49,239.17c-1.34-.75-2.41-.11-2.39,1.44a5.3,5.3,0,0,0,2.47,4.15c1.34.75,2.41.1,2.39-1.44A5.3,5.3,0,0,0,229.49,239.17Z" transform="translate(43.09)" style="fill:#fff;opacity:0.4"/><path d="M221.14,234.52c-1.34-.75-2.42-.11-2.4,1.44a5.31,5.31,0,0,0,2.47,4.15c1.35.75,2.42.1,2.4-1.44A5.33,5.33,0,0,0,221.14,234.52Z" transform="translate(43.09)" style="fill:#fff;opacity:0.701961"/><path d="M212.79,229.87c-1.35-.75-2.42-.1-2.4,1.44a5.31,5.31,0,0,0,2.47,4.15c1.34.75,2.42.11,2.4-1.44A5.33,5.33,0,0,0,212.79,229.87Z" transform="translate(43.09)" style="fill:#fff"/><path d="M153.78,67.81A3,3,0,0,0,154,70.7l1.33.5a3.58,3.58,0,0,1-.2-2.75c.32-.85,2-1.89,2-1.89L155.54,66S154.5,66.09,153.78,67.81Z" transform="translate(43.09)" style="fill:#fff"/><path d="M98.19,75.74h0l0-.07Z" transform="translate(43.09)" style="fill:#a8e5ff"/><path d="M98.19,75.74A29.87,29.87,0,0,0,94,68.41,15.35,15.35,0,0,0,89.6,64.7a8.87,8.87,0,0,0-4.24-1.33,4.86,4.86,0,0,0-4.73,3.11h0a9.39,9.39,0,0,0-.71,3.73c0,6.13,4.29,13.59,9.62,16.66a9.23,9.23,0,0,0,3.6,1.28h0a4.89,4.89,0,0,0,5.09-2.49h0a8.68,8.68,0,0,0,1-4.3A16.74,16.74,0,0,0,98.19,75.74Z" transform="translate(43.09)" style="fill:#a8e5ff"/><path d="M89.62,60.34c-7.43-4.29-13.47-.85-13.49,7.68s6,18.93,13.4,23.21S103,92.08,103,83.55,97,64.63,89.62,60.34Zm-.08,26.53c-5.33-3.07-9.64-10.53-9.62-16.66s4.35-8.59,9.68-5.51,9.64,10.53,9.62,16.66S94.87,90,89.54,86.87Z" transform="translate(43.09)" style="fill:#0080c2"/><path d="M92.3,58.78c-3.73-2.16-7.12-2.36-9.56-.94L80.05,59.4c2.44-1.42,5.83-1.22,9.57.94C97,64.63,103,75,103,83.55c0,4.23-1.5,7.22-3.92,8.62l2.69-1.56c2.41-1.41,3.91-4.39,3.92-8.63C105.72,73.45,99.73,63.06,92.3,58.78Z" transform="translate(43.09)" style="fill:#006aa1"/><path d="M98.19,75.74A29.87,29.87,0,0,0,94,68.41,15.35,15.35,0,0,0,89.6,64.7a8.87,8.87,0,0,0-4.24-1.33,4.86,4.86,0,0,0-4.73,3.11h0a9.39,9.39,0,0,0-.71,3.73c0,6.13,4.29,13.59,9.62,16.66a9.23,9.23,0,0,0,3.6,1.28h0a4.89,4.89,0,0,0,5.09-2.49h0a8.68,8.68,0,0,0,1-4.3A16.74,16.74,0,0,0,98.19,75.74Z" transform="translate(43.09)" style="fill:#3ca1d6"/><path d="M92.42,77.26c.64-.09,1.07-.66,1.07-1.59a5,5,0,0,0-2.25-3.92c-.31-.17-.85-.5-.88-.52V68.69L89.15,68v2.54l-.9-.52V67.45l-1.33-.77v2.56l-1.79-1v1.34l1,.56,0,8-1-.56v1.89l2,1.16v2.28l1.35.78v-2.3l.74.43V84.1l1.37.79V82.46l.08.05c.48.27,2.91,1.54,3.31-1a3.53,3.53,0,0,0,.07-.6A4.83,4.83,0,0,0,92.42,77.26Zm-4.15-5.77s.47.25,1.67.94a2.68,2.68,0,0,1,1.23,2.21c0,1.42-1.23.8-1.57.61l-.09-.06-1.25-.72Zm1.6,8.83-.11-.06-1.51-.88v-3.6s.57.31,2,1.14a3.43,3.43,0,0,1,1.49,2.66C91.78,81.31,90.28,80.56,89.87,80.32Z" transform="translate(43.09)" style="fill:#fff"/><path d="M196.29,150.07l8,13.82,4.54,7.86a4.92,4.92,0,0,0,5.08-2.49L201,147A4.9,4.9,0,0,0,196.29,150.07Z" transform="translate(43.09)" style="fill:#eda217"/><path d="M196.29,150.07a9.41,9.41,0,0,0-.71,3.74c0,6.12,4.29,13.58,9.62,16.66a9.56,9.56,0,0,0,3.6,1.28l-4.53-7.86Z" transform="translate(43.09)" style="fill:#e89200"/><path d="M209.62,152a17.36,17.36,0,0,0-4.36-3.71A8.85,8.85,0,0,0,201,147l12.87,22.29a8.69,8.69,0,0,0,1-4.31c0-2.82-.67-4.49-2.4-8.76A34.82,34.82,0,0,0,209.62,152Z" transform="translate(43.09)" style="fill:#e89200"/><path d="M205.28,143.93c-7.43-4.28-13.47-.84-13.49,7.69s6,18.92,13.4,23.21,13.46.84,13.49-7.69S212.7,148.22,205.28,143.93Zm-.08,26.54c-5.33-3.08-9.63-10.54-9.62-16.66s4.35-8.6,9.68-5.52,9.64,10.54,9.62,16.66S210.53,173.54,205.2,170.47Z" transform="translate(43.09)" style="fill:#ffcc12"/><path d="M208,142.37c-3.73-2.16-7.12-2.36-9.56-.94L195.71,143c2.45-1.42,5.83-1.22,9.57.93,7.42,4.29,13.42,14.68,13.4,23.21,0,4.24-1.51,7.22-3.93,8.62l2.69-1.56c2.41-1.4,3.91-4.38,3.92-8.62C221.39,157.05,215.39,146.66,208,142.37Z" transform="translate(43.09)" style="fill:#f0ad11"/><path d="M206.44,159.07c-1.68-1.25-2.79-1.76-2.78-3.23,0-1.11.45-1.22,1.54-.58a2.46,2.46,0,0,1,1.51,2.14l2,1.16a5.88,5.88,0,0,0-2.53-4.5v-1.65l-1.77-1V153c-1.78-.78-2.75-.23-2.76,1.68a5.55,5.55,0,0,0,2.57,4.71c1.18.85,2.74,1.75,2.73,3.13s-.55,1.53-1.74.84a2.67,2.67,0,0,1-1.68-2.35l-2-1.16a5.71,5.71,0,0,0,2.85,4.9v1.58l1.77,1v-1.59c1.95.85,2.78.16,2.79-2.17A5.28,5.28,0,0,0,206.44,159.07Z" transform="translate(43.09)" style="fill:#ffe071"/><g style="opacity:0.8"><path d="M219,51.83c-5.73,3.31-10.38,11.36-10.37,18s4.7,9.25,10.44,5.94,10.38-11.36,10.36-17.95S224.72,48.52,219,51.83Zm.06,21.71c-4.68,2.7-8.51.53-8.52-4.86s3.78-12,8.47-14.67,8.51-.53,8.52,4.86S223.74,70.83,219.05,73.54Z" transform="translate(43.09)" style="fill:#fff"/><path d="M218.08,65.42v4c0,.6.43.84.95.54a2.1,2.1,0,0,0,1-1.64v-4Z" transform="translate(43.09)" style="fill:#fff"/><path d="M223.47,60.12l-3.5,2v-4c0-.6-.43-.85-1-.54a2.06,2.06,0,0,0-.95,1.63v4l-3.5,2a2.1,2.1,0,0,0-.94,1.64c0,.61.43.85,1,.55l3.5-2,1.9-1.1,3.49-2a2.08,2.08,0,0,0,.95-1.64C224.42,60.06,224,59.81,223.47,60.12Z" transform="translate(43.09)" style="fill:#fff"/></g></g></g></g></g></svg>