<svg xmlns="http://www.w3.org/2000/svg" xmlns:xlink="http://www.w3.org/1999/xlink" viewBox="0 0 938.05 290.23"><defs><clipPath id="clip-path"><path d="M252.25,10.75c-19.11,9.25-37.56,22.37-58.6,25.07-28.12,3.61-55.3-7.61-80.6-17.43C73.48,3-3.74-11.58.14,55.11c1.52,26,14.53,42.41,32.43,59.61C49.76,131.23,57.7,147.66,51,171.18c-5.44,19-18.31,34.43-26.33,52.25C16,242.57,14.18,273,35.94,283.93c27.56,13.82,63.45,2.14,90.12-8.45,30.8-12.22,60.6-30,94.41-32,33.39-2,58.57,22,92.74,15,14.17-2.93,27.27-9.59,41.17-13.6,37.08-10.7,76.86-1.89,113.64,9.8,39.37,12.5,77.1,32.05,119.74,24.14,21.57-4,41.42-14.05,63.06-18.53,25.52-5.28,52-1.9,77.33,2.36l92.22,15.5c24.47,4.1,53.27,14.4,65-16.91,8.82-23.48,2.9-48.73-2.72-71.67-8.1-33.05-10.88-61.57,21.59-82.12,4-2.54,8.28-4.66,12-7.57a47.44,47.44,0,0,0,9.16-9.76C952.15,53.2,935.3-.25,885.31,1.73,854.07,3,821.37,17.5,790.66,23.38c-18.14,3.47-34.71,10.85-52.23,1.68-6.74-3.53-12.37-9.11-19.52-11.71-11.83-4.3-25.12.33-37.3,4.65-28.83,9.61-57.74,17.68-87,25.83-26.11,7.26-54.35-10.3-79.21-19.49-5.44-2-11-4-16.73-4.6-7.15-.7-14.3.87-21.24,2.68-26,6.78-49.62,14.25-76.67,9.16-26.73-5-53.2-12.26-79.11-20.5s-43.78-12.63-68.92-.56Z" style="fill:none;clip-rule:evenodd"/></clipPath></defs><g id="Слой_2" data-name="Слой 2"><g id="Экран_03-1" data-name="Экран 03-1"><g id="Независимый_аудит_исполнителей" data-name="Независимый аудит исполнителей"><path d="M252.25,10.75c-19.11,9.25-37.56,22.37-58.6,25.07-28.12,3.61-55.3-7.61-80.6-17.43C73.48,3-3.74-11.58.14,55.11c1.52,26,14.53,42.41,32.43,59.61C49.76,131.23,57.7,147.66,51,171.18c-5.44,19-18.31,34.43-26.33,52.25C16,242.57,14.18,273,35.94,283.93c27.56,13.82,63.45,2.14,90.12-8.45,30.8-12.22,60.6-30,94.41-32,33.39-2,58.57,22,92.74,15,14.17-2.93,27.27-9.59,41.17-13.6,37.08-10.7,76.86-1.89,113.64,9.8,39.37,12.5,77.1,32.05,119.74,24.14,21.57-4,41.42-14.05,63.06-18.53,25.52-5.28,52-1.9,77.33,2.36l92.22,15.5c24.47,4.1,53.27,14.4,65-16.91,8.82-23.48,2.9-48.73-2.72-71.67-8.1-33.05-10.88-61.57,21.59-82.12,4-2.54,8.28-4.66,12-7.57a47.44,47.44,0,0,0,9.16-9.76C952.15,53.2,935.3-.25,885.31,1.73,854.07,3,821.37,17.5,790.66,23.38c-18.14,3.47-34.71,10.85-52.23,1.68-6.74-3.53-12.37-9.11-19.52-11.71-11.83-4.3-25.12.33-37.3,4.65-28.83,9.61-57.74,17.68-87,25.83-26.11,7.26-54.35-10.3-79.21-19.49-5.44-2-11-4-16.73-4.6-7.15-.7-14.3.87-21.24,2.68-26,6.78-49.62,14.25-76.67,9.16-26.73-5-53.2-12.26-79.11-20.5s-43.78-12.63-68.92-.56Z" style="fill:#d6edfb;fill-rule:evenodd"/><path d="M204.64,129.58a1.55,1.55,0,0,1-.66-.53c-.74-.9-12.1-14.47-12.1-14.47l-.55.07c-.31,0-31.53,4.14-56,4.9l-1.9,0c-12.25,0-22-3.83-28.84-11.38C91.44,93.81,90.7,68.84,92.39,50.42c1.6-17.45,27.37-23.64,49-23.64a108.34,108.34,0,0,1,27.54,3.39c26,7.09,35.2,15.85,37.71,36,2.26,18.19-1.11,55.61-1.81,62.92A.75.75,0,0,1,204.64,129.58Z" style="fill:#fff"/><path d="M141.35,25.78v2a107.21,107.21,0,0,1,27.28,3.35c13.69,3.73,22.27,7.86,27.81,13.38,5.16,5.15,7.91,11.67,9.17,21.82,2.12,17.06-.86,52.26-1.67,61.11L193,114.36l-.71-.85-1.09.15c-.31,0-31.48,4.13-55.91,4.89l-1.87,0c-12,0-21.42-3.72-28.1-11-12.89-14.12-13.6-38.8-11.93-57,1.53-16.77,26.79-22.73,48-22.73v-2m0,0c-24,0-48.36,7.13-50,24.55-2.22,24.26-1.11,70.25,42,70.25l1.93,0c24.82-.77,56.12-4.91,56.12-4.91l11.75,14a2,2,0,0,0,1.44.89c.61,0,1.05-.56,1.13-1.35.87-9.18,4-45.44,1.8-63.14-2.44-19.69-10.72-29.34-38.43-36.89a109.22,109.22,0,0,0-27.81-3.42Z" style="fill:#d6edfb"/><path d="M133,65.45l-2.35-4.83a6.94,6.94,0,0,1,12.48-6.09l1.49,3.06L147.77,56l-1.49-3a10.46,10.46,0,1,0-18.8,9.18L129.83,67l-2.14,1L136,85.14l23.24-11.35-8.35-17.1Zm16.51-3.09,1.61,3.22s-4.4,8.4-5.32,9.85-2.29,1.27-3.49.75c-2.47-1.07-5.76-2.82-6.14-3.59-.8-1.64.42-2.68,1.11-3.3.39-.34,3.45,2.07,6.21,2.76Z" style="fill:#2fc3cb"/><path d="M433.66,165c1.55,1.19,2.83.6,3-1.85.79-14,2.15-59.73-6.79-95.44-10.51-42-85.92-54.17-135.72-39.42-40.79,12.07-37.1,65.69-23,97.05,11.31,25.1,63.65,30.43,96.16,23C409.12,138.82,414.29,150.06,433.66,165Z" style="fill:#95c3e2"/><path d="M314.09,114.26a4.29,4.29,0,0,1,1.15-3,3.35,3.35,0,0,1,3.53-1,2.5,2.5,0,0,0,2.41-1.42l.1-.2a2.63,2.63,0,0,0-1.17-2.6,3.22,3.22,0,0,1-1.68-2.64,3.33,3.33,0,0,1,.94-2.3c.66-.71,1.73-2.4,1-3.44a2.78,2.78,0,0,0-2.94-.86,2.79,2.79,0,0,1-2.53-.62,3.25,3.25,0,0,1-1-2.43c0-1,.05-2.14-1.34-2.68-1.14-.43-2.47.52-3.06,1.3a3.29,3.29,0,0,1-2.1,1.43A2.3,2.3,0,0,1,305,92.79a2.81,2.81,0,0,0-3.3-.93c-.93.42-1.58,1.4-1.2,3a2.42,2.42,0,0,1-.84,2.38,3.51,3.51,0,0,1-3.22.92c-.9-.14-2.54.38-2.85,1.55s.74,2.43,1.39,2.88a2.83,2.83,0,0,1,1.33,2.43,3.48,3.48,0,0,1-1.29,2.56,2.52,2.52,0,0,0-.84,3,2.26,2.26,0,0,0,2.47,1.23,3.19,3.19,0,0,1,3,.55,3.32,3.32,0,0,1,1,2.71,2.67,2.67,0,0,0,1.27,2.55c1.21.61,2.48-.46,2.93-1.09a3.44,3.44,0,0,1,2.31-1.62,3,3,0,0,1,2.62,1.19,2.4,2.4,0,0,0,2.91.86C314.09,116.4,314.15,115.38,314.09,114.26Zm-3.62-4.33a6.41,6.41,0,1,1,2.85-8.6A6.4,6.4,0,0,1,310.47,109.93Z" style="fill:#305d81"/><path d="M339.52,102.71a3.64,3.64,0,0,1,1.82-3,4,4,0,0,1,3.93-.6,3.32,3.32,0,0,0,3.58-1.1c.67-1,1.18-2.33-.56-4.24a4.27,4.27,0,0,1-1.05-4,4.32,4.32,0,0,1,2.31-2.62,3.16,3.16,0,0,0,1.67-3.78c-.43-2-2.6-2-3.78-2.3a4.39,4.39,0,0,1-2.84-2,4.72,4.72,0,0,1-.57-3.35c.18-1.25.47-2.91-1.53-4-1.4-.75-3.14.08-4.07,1a4.5,4.5,0,0,1-6.45-.87,3.21,3.21,0,0,0-3.68-2,3.36,3.36,0,0,0-2.48,3.61,3.58,3.58,0,0,1-1.72,3.4,3.92,3.92,0,0,1-3.72.33,3.34,3.34,0,0,0-3.9,1.45,3.41,3.41,0,0,0,.8,3.95,4.8,4.8,0,0,1,.78,4.16,3.9,3.9,0,0,1-2.14,2.75A2.94,2.94,0,0,0,314.36,93,2.73,2.73,0,0,0,317,95.3c1.27.18,2.85.34,3.84,1.66a5.16,5.16,0,0,1,.9,4,3.49,3.49,0,0,0,1.39,3.43,3,3,0,0,0,3.84-.54,4.77,4.77,0,0,1,3.44-1.61,4,4,0,0,1,3.07,2.27,3.07,3.07,0,0,0,3.51,1.77C338.92,105.84,339.36,104.18,339.52,102.71ZM335.3,95.8a8.25,8.25,0,1,1,5.47-10.32A8.26,8.26,0,0,1,335.3,95.8Z" style="fill:#fff"/><path d="M614.31,154.49a2.45,2.45,0,0,1-1.29-.67c-1.93-1.53-3.78-3-5.59-4.49-14.24-11.52-25.49-20.62-45.95-20.62a87.27,87.27,0,0,0-14.58,1.35c-2.84.49-6.86,1.48-11.53,2.62-12.62,3.09-31.69,7.77-48.79,7.77h0c-18.09,0-30.4-5.28-36.6-15.68-12.26-20.59-15.3-47.1-7.93-69.18,3.89-11.66,12.44-27.15,31.12-34.82,13.5-5.54,30.91-8.59,49-8.59,40.24,0,88.57,15.46,92.33,59.05,2.92,33.91.9,71.3.21,82C614.68,154,614.47,154.49,614.31,154.49Z" style="fill:#fff"/><path d="M522.18,11.18v2c23,0,44.47,4.89,60.51,13.77,18.55,10.26,29.2,25.6,30.82,44.37,2.92,33.83.9,71.14.22,81.79l-.1-.08c-1.92-1.52-3.79-3-5.59-4.48-14.39-11.64-25.75-20.84-46.57-20.84a87.14,87.14,0,0,0-14.75,1.37c-2.87.49-6.91,1.48-11.59,2.63-12.58,3.08-31.58,7.74-48.57,7.74-17.71,0-29.73-5.11-35.74-15.19C438.72,103.91,435.71,77.72,443,55.9c3.82-11.45,12.22-26.68,30.55-34.21,13.38-5.49,30.65-8.51,48.64-8.51v-2m0,0c-18.2,0-35.81,3.08-49.41,8.66-38.42,15.77-45,69.68-23.67,105.44,7.34,12.32,21.73,16.17,37.46,16.17,23.5,0,50-8.59,60.5-10.4a84.31,84.31,0,0,1,14.41-1.34c22.71,0,34,11.54,50.92,24.89a3.42,3.42,0,0,0,1.91.89c.81,0,1.32-.73,1.42-2.25.76-11.78,2.69-48.42-.22-82.09-3.67-42.58-50.12-60-93.32-60Z" style="fill:#d6edfb"/><path d="M506.51,110,503,100l3.59-1.25,2.16,6.2L511.49,96l3.64,1.11-3.08,10.12-2.74-.84.8,2.29-3.6,1.25Zm-26.3-17.25-3.09-2.23,6.19-8.57,3.09,2.22-6.19,8.58ZM500.93,94l-3.49-10,3.6-1.26,3.48,10L500.93,94ZM517,91.08,513.34,90l3.08-10.12L520.06,81,517,91.08Zm36.88-1.69-3.11-2.2,6.12-8.63,3.1,2.2-6.11,8.63ZM490.11,79,487,76.77l6.18-8.58,3.09,2.22L490.11,79Zm59.37,9.51-5.35-9.13,3.29-1.92,5.34,9.13-3.28,1.92ZM495.35,78l-2.3-6.59-1.52-1.09L495,65.5l3.93,11.26L495.35,78Zm26.56-3.13-3.64-1.1,3.08-10.12L525,64.77l-3.08,10.11Zm41.74.7-3.11-2.2,6.12-8.63,3.1,2.2-6.11,8.63Zm-22.72-1.69-5.35-9.13,3.28-1.92L544.21,72l-3.28,1.92Zm32.5-12.12-3.1-2.2,4.22-5.94,3.1,2.2-4.22,5.94Zm-46.59-3.08-3.64-1.1,3.08-10.12,3.64,1.1-3.08,10.12Zm5.53.6L527,50.16l3.28-1.92,5.35,9.13-3.29,1.92Z" style="fill:#f8d25f"/><path d="M556.07,87.89a4.66,4.66,0,1,1-4.65-4.65A4.66,4.66,0,0,1,556.07,87.89Z" style="fill:#f8d25f"/><path d="M532.66,48.86A4.66,4.66,0,1,1,528,44.2,4.66,4.66,0,0,1,532.66,48.86Z" style="fill:#f8d25f"/><path d="M513.56,107.81a4.66,4.66,0,1,1-4.65-4.65A4.66,4.66,0,0,1,513.56,107.81Z" style="fill:#f8d25f"/><path d="M498.93,69.34a4.66,4.66,0,1,1-4.65-4.66A4.65,4.65,0,0,1,498.93,69.34Z" style="fill:#f8d25f"/><path d="M571.19,50.8c-.85.62-.55,1.25,0,1.63s8.91,6.18,9.39,6.46a1.26,1.26,0,0,0,1.78-1.09c.54-3.56,1.62-10.68,1.91-12.48.46-2.83-.84-3.29-3.9-1.14C578.11,45.74,573.5,49.11,571.19,50.8Z" style="fill:#f8d25f"/><polygon points="471.08 105.44 467.99 103.22 474.18 94.64 477.26 96.86 471.08 105.44 471.08 105.44" style="fill:#f8d25f"/><path d="M654.74,99.68c-8.41-1.74-17,8-24.21,16-1,1.15-2.94,1.6-2.51-1.74.35-2.66-1.18-28.78,4.24-61.94,5.87-35.93,76.86-43.46,96.58-35,23.4,10,19,51.29,11.3,69.56-9.57,22.62-34.62,22.07-60.9,17.69C674.32,103.35,658.4,100.44,654.74,99.68Z" style="fill:#95c3e2"/><path d="M712.51,53.68a22.52,22.52,0,1,0-21.69,28.65,22.86,22.86,0,0,0,6.14-.85A22.56,22.56,0,0,0,712.51,53.68Zm-3.6-.69-6.77,1.91a31.3,31.3,0,0,0-3.46-7.15,26.48,26.48,0,0,0,3.43-3.62A19.35,19.35,0,0,1,708.91,53ZM684.82,74.6a28.12,28.12,0,0,0,4.5,4.47,19,19,0,0,1-6.85-1.86A24.13,24.13,0,0,1,684.82,74.6ZM681,54.33c.42,0,.84,0,1.27,0a22.33,22.33,0,0,0,5.15-.61l1.39,4.9-7.14,2A29.19,29.19,0,0,1,681,54.33Zm15.74-9.18A29.18,29.18,0,0,0,692,40.51a19.19,19.19,0,0,1,7.34,2A24.64,24.64,0,0,1,696.78,45.15Zm-7.14,4.56-2.41-8.52a25.23,25.23,0,0,1,7,6A23.6,23.6,0,0,1,689.64,49.71Zm6.51,0a28,28,0,0,1,2.91,6l-7.14,2-1.4-5A26.45,26.45,0,0,0,696.15,49.76Zm-9.56.92a19.28,19.28,0,0,1-5.33.44,25.67,25.67,0,0,1,2.9-9.06Zm3.13,11,1.4,5a24.52,24.52,0,0,0-5.72,3.18,29.25,29.25,0,0,1-2.84-6.12ZM692,69.79l2.51,8.89a23.5,23.5,0,0,1-7.26-6.17A21.63,21.63,0,0,1,692,69.79Zm3.06-.93a17.37,17.37,0,0,1,5.51-.24,23.62,23.62,0,0,1-3,9.19Zm-.87-3.08-1.39-4.92,7.15-2a29.09,29.09,0,0,1,.8,6.57A20.72,20.72,0,0,0,694.18,65.78ZM679.73,44a29.39,29.39,0,0,0-1.67,6.72,19.84,19.84,0,0,1-3.61-1.13A19.51,19.51,0,0,1,679.73,44ZM673,52.42a22.69,22.69,0,0,0,4.85,1.51,31.81,31.81,0,0,0,.8,7.61l-6.77,1.92A19.22,19.22,0,0,1,673,52.42Zm-.26,14.12,6.76-1.91A32.2,32.2,0,0,0,682.92,72a28.31,28.31,0,0,0-3.23,3.61A19.39,19.39,0,0,1,672.72,66.54Zm29.49,8.88a27.93,27.93,0,0,0,1.49-6.2A20.38,20.38,0,0,1,707,70.43,19.09,19.09,0,0,1,702.21,75.42Zm6.29-7.8A22.59,22.59,0,0,0,703.93,66a32.12,32.12,0,0,0-.9-8l6.76-1.91A19.32,19.32,0,0,1,708.5,67.62Z" style="fill:#fff"/><path d="M298.67,56.1c-6.1-.61-11.08,6.1-16.22,11.79-.75.82-2.34,1.29-2.36-1.11A183.09,183.09,0,0,1,284,27.34a22.35,22.35,0,0,1,2.38-7.08c11.39-18.8,39.28-22.17,59-19.42a12.91,12.91,0,0,1,6.06,2c2,1.53,3,4,3.79,6.44,4,12.85,6.94,33.08-3.95,43.54-8.83,8.48-23.48,6.93-34.59,5.84C313.15,58.32,301.44,56.38,298.67,56.1Z" style="fill:#f8d25f"/><path d="M329.18,34.15a1.56,1.56,0,0,0,1.54,1.59h0a1.56,1.56,0,0,0,1.59-1.53l.14-7.4a1.56,1.56,0,0,0-1.53-1.6h0a1.57,1.57,0,0,0-1.6,1.54Z" style="fill:#fff"/><path d="M323.42,34A1.56,1.56,0,0,0,325,35.63h0a1.56,1.56,0,0,0,1.6-1.53l.14-7.4a1.56,1.56,0,0,0-1.53-1.6h0a1.57,1.57,0,0,0-1.6,1.54Z" style="fill:#fff"/><path d="M317.59,33.93a1.56,1.56,0,0,0,1.53,1.59h0a1.56,1.56,0,0,0,1.6-1.53l.14-7.41A1.56,1.56,0,0,0,319.33,25h0a1.56,1.56,0,0,0-1.6,1.53Z" style="fill:#fff"/><path d="M312,33.82a1.56,1.56,0,0,0,1.54,1.59h0a1.56,1.56,0,0,0,1.59-1.53l.14-7.4a1.56,1.56,0,0,0-1.53-1.6h0a1.57,1.57,0,0,0-1.6,1.54Z" style="fill:#fff"/><rect x="320.48" y="26.55" width="3.91" height="24.4" transform="translate(277.49 360.39) rotate(-88.9)" style="fill:#fff"/><polygon points="314.22 20.03 322.55 16.25 331.23 20.36 334.99 20.43 334.92 24.34 310.52 23.87 310.6 19.96 314.22 20.03" style="fill:#fff"/><g style="clip-path:url(#clip-path)"><path d="M544.52,77.11c1.42-1.42,10.27-3.82,16.84,4.26,5.49,6.76,2.67,15.88,1.62,21.91-1,5.76-1.7,13.14,5.33,13.66,5.22,16-15.59,12.64-15.59,12.64s-14-1-21.58-6.33c-3.67-2.6-13.4-12.43-8.91-17.44,6.35-7.09,6.38-8.77,9.6-22.14C534.15,76.24,541.38,74.64,544.52,77.11Z" style="fill:#003853"/><path d="M450.66,100.07a64.56,64.56,0,0,0-1-17.07c-3.17,1.24-1.53,8.08-1.53,8.08s-11-13.92-11.64-14.51-2.09.35-2.09.35-1.73-1.53-1.67.13,4.52,9.16,4.52,9.16-4-4.6-4.29-5.1-1.89,1.08.48,5.11c.9,1.53,5.94,13.13,11,13.28.21.49,3,3.72,3,3.72Z" style="fill:#f0c0a7"/><path d="M569.55,274.43c-.26-10.42-3.77-38.26-13.2-58.64-14.87-32.13-39.4-28.15-50.32-1.4-8.51,20.83-8.14,41.72-3.37,60h30.18c.06-6.16.14-12.14.22-13.3s1.57,5.88,3,13.3Z" style="fill:#144665"/><path d="M566,132s-11.33-8.84-20.6-11.89-31.64,3.23-31.64,3.23-6.17,19.26-2.91,35.35-4.8,55.68-4.8,55.68,36.64,4.64,51,1.26C559.33,178.31,566,132,566,132Z" style="fill:#fff"/><path d="M451.58,97.28c13.27,22.68,24.78,32.32,30,37.53,11.89-3.25,22.56-8.69,29-11.11a1.46,1.46,0,0,1,.29-.17c3.37-1.34,12.49-3.18,19.46-3.63-.8,1.34-10,10.5-13.27,22.92-.24,1.45-.52,2.83-.84,4.08a30.64,30.64,0,0,0,.51,11.58c5.36,22.26-6.06,50.21-9.66,55.78-1.61,2.5-2.78,4.51-2.78,4.51s-4.73-2.64-4.27-5c.95-4.93,10.91-12.74,10.55-31.18-.28-14.22-1.76-16.39-3.23-27.09a63.86,63.86,0,0,1-.51-6.83c-7.83-1.25-16.81-.18-28,.47a11.76,11.76,0,0,1-8.3-2.43c-.32-.22-.64-.46-1-.73-11-9-24.32-44-24.32-44A33.79,33.79,0,0,1,451.58,97.28Z" style="fill:#144665"/><path d="M550.41,109.21s-2.26,9.26.68,14c-.31,3.56-4.22,16.66-15,14.36-11-2.34-.83-19.79-.24-23.6a68.55,68.55,0,0,1,1.7-7.62Z" style="fill:#e1b39d"/><path d="M532.28,96.39c-.66,4.39-1.3,14.29,1.89,19.18,2,3,8.1,4.13,10.44,2.15a34.27,34.27,0,0,0,8.53-10.85c2.28-.74,5.47-5.18,1.3-6.64-7,1.2-9.89-4-14-15.86C534.89,87.36,533,92,532.28,96.39Z" style="fill:#f0c0a7"/><path d="M532.56,199.48c-7.95-1.46-7.3-9.66-7.3-9.66s33.13,6.54,31.91,8.76S540.51,200.93,532.56,199.48Z" style="fill:#adcbd9"/><path d="M531.29,184.46a127,127,0,0,0-18.39-2.33c.43,3.38,7.48,3.45,7.48,3.45s-16.21,7.35-16.93,7.79-.17,2.1-.17,2.1-1.91,1.31-.27,1.66S513,195,513,195s-5.45,2.77-6,2.93.58,2.1,5.07.77c1.71-.5,14.21-2.58,15.58-7.46.53-.09,4.05-.2,4.05-.2Z" style="fill:#f0c0a7"/><path d="M567.12,224.18a47.24,47.24,0,0,1-4.49-40.11c7.62-23,10.27-34.63,11-40.51-1.6-5.62-4.08-10.35-7.3-12.6a100.59,100.59,0,0,0-12.64-7.08,40.52,40.52,0,0,1,1.64,15.94c-2.23,23.42-6.44,67.14-7.67,77.23-1.69,14,10.18,12.09,11.66,11.66S567.12,224.18,567.12,224.18Z" style="fill:#144665"/><path d="M527.71,183.58l46.1,3.63s-9.3-18.59-13.47-28.3,12.11-18.49,12.11-18.49,17,44.72,17.27,53.18-16,9.63-32.74,5.12-28.57-6.92-28.57-6.92Z" style="fill:#144665"/><path d="M611.61,232.82S603.27,203,603.05,202a2.32,2.32,0,0,0-2.61-1.68c-1.68.12-29.89-.06-30.62.08a1.24,1.24,0,0,0-1,1.57c.22.71,9,31.33,9,31.33Z" style="fill:#003853"/><path d="M635.57,233.26l-24-.45-33.77.49s.42,2.86,2.4,3c3.4,0,52.32-.05,53.54,0C635.38,236.39,635.57,233.26,635.57,233.26Z" style="fill:#003853"/><polygon points="600.53 202.55 571.99 202.46 580.87 233.18 608.94 233.11 600.53 202.55" style="fill:#fff"/><polygon points="583.46 224.28 579.03 224.28 580.33 228.88 584.76 228.88 583.46 224.28" style="fill:#aedeeb"/><polygon points="589.13 220.17 584.69 220.17 587.15 228.88 591.59 228.88 589.13 220.17" style="fill:#68c2d4"/><polygon points="593.99 214.11 589.55 214.11 593.72 228.88 598.15 228.88 593.99 214.11" style="fill:#6ba1c4"/><polygon points="599.67 210.08 595.24 210.08 600.54 228.88 604.98 228.88 599.67 210.08" style="fill:#fcce5b"/><path d="M335.41,123.87a75.33,75.33,0,0,1,26.71-11.64c1-.2.58-2.8.58-2.8a32.81,32.81,0,0,1,8.44-1c6.77-.13,14.67,2.29,14.67,2.29a24.87,24.87,0,0,0,.24,2.55,96.22,96.22,0,0,1,25.11,10.68c2.4,9-2.09,36.37-6.29,60.2a299.76,299.76,0,0,1,2.33,30.75c-15.09,7.49-50.68,7.8-61.23,2.53a87.67,87.67,0,0,1,2.17-23.17C346.43,181.81,335.41,123.87,335.41,123.87Z" style="fill:#fff"/><path d="M365.59,69.93c3-.88,3.21-2.68,4.63-3.51,7.24-4.2,21.68,1.75,20.19,10.68,2.4,2.94,2,4.89-1.81,17.51-4.84.62-22.06-.26-24.84-.35C359,79.48,360.67,71.35,365.59,69.93Z" style="fill:#003853"/><path d="M379.65,117.59a13.34,13.34,0,0,0,5.26-2.13c.06-8.36,1.74-16.95,1.79-19.27-1.52,1.26-4.64,11.93-6.73,11a8.06,8.06,0,0,0-6.3.17c-1.74.65-6.93-7.12-8.68-9.53.38,3.71-.08,8-1.38,15.14,5.8,6.1,8.11,5.21,9.45,5.28s2.18,3.31,2.18,3.31a16.71,16.71,0,0,1,2.81-.51C378.77,121,378.38,117.73,379.65,117.59Z" style="fill:#e1b39d"/><path d="M388.22,79.34c1.13,2.5-.11,4.82-.1,7.89,0,1.25.41,1.54.84,1.25.52-.49.44-1,1.11-1,1.24.13.35,3.81-1.15,7.53-.12,2.61-4.66,12.85-7,15-1.29,1.46-7.61,2.21-10.62-.55-2.61-2-6.19-8.87-7.08-14.16-2.14-3-3.42-8.35-1.9-8.76.77,0,2.17,2.15,2.59,4,.24.57,1.44-.34,1.35-2,0-2.85-1.15-8,3-13.41,3.95.14,6.93,1.4,11,3.14C384.91,80.13,386.07,79.82,388.22,79.34Z" style="fill:#f0c0a7"/><path d="M377.71,274.43c.1-1.73,1.06-6.93,1.63-13.58.7,4.12,1.33,8.76,2,13.58h27.32c-.24-36.32-1.41-59.58-1.41-59.58s-26.85,9.47-61.27,2.56c-1.77,14.63-.1,24.12.63,57Z" style="fill:#144665"/><path d="M379.63,117.59c6.86-2.51,6.18-6.9,6.18-6.9l2.72,3.22a22.92,22.92,0,0,1-3.32,8.75C383,122.06,379.62,118,379.63,117.59Z" style="fill:#adcbd9"/><path d="M362.7,109.43s1.82,6.12,10.35,8.83c-1.59,2.42-3.3,5.07-4.53,6.79a26.9,26.9,0,0,1-8.6-12.22Z" style="fill:#adcbd9"/><path d="M369.34,166.75,349.9,142.27l-4.63,35L347,187.42s18.66,1.06,30.57-5.6a15.48,15.48,0,0,0,6.72-7.69s6.19,5.59,20.76,9c1.22-7.07,2.23-12.6,2.23-12.6L382,164Z" style="fill:#adcbd9"/><path d="M373,121.41a3.49,3.49,0,0,1,3.36-2.73,3.87,3.87,0,0,1,3.9,2.5,15.12,15.12,0,0,1-.91,3.86c4.15,11.57,14.72,60.28,16.06,73.09a3.2,3.2,0,0,1-.31,2.09,34,34,0,0,1-5.88,8.37c-.49.48-1.09,1.38-2.85-.16a57.75,57.75,0,0,1-7.52-6.68c-1.38-1.78-1.79-1.75-1.79-3-.68-24.17,1.84-50.44-1.34-72.57Z" style="fill:#e8ac4c"/><path d="M370.66,158.83a39.75,39.75,0,0,0-5-4.64c-2.54-1.8-4.88.86-4.88.86s-5.32.12-8.06.24c-1,3.71.36,11,.36,11s7.85-.18,14.49-.78a37.72,37.72,0,0,1,4.42.73Z" style="fill:#f0c0a7"/><path d="M411.16,123.93c3.66,4.59,16,27.69,15.06,49.26-.42,1.09-5,4.67-8,4.78-15.77.55-49.2-11.4-49.2-11.4l1.42-8,35,1.22-1.25-13.88Z" style="fill:#fff"/><path d="M397.89,153.09s-1.82-1.59-1.3-2.78,3.34-.8,3.34-.8,2.5-1.53,3.92-1.41,1,1.53,2.89,2,1.48,2.39,3.12,2.56,1.7,3.34.29,4.42c-1.17.88-2.7,2.58-5.39,2.84a3.49,3.49,0,0,1-1.42-.2Z" style="fill:#f0c0a7"/><path d="M343.08,125.92c-3.2-1.84-6.65-2.27-7.67-2-4.2,12-1,43.22,5.83,55.24,1.93,3,5.25,2.78,6.75,2.5,24.53-4.57,55.66-20.8,55.66-20.8s-1.67-7.32-6.84-8.12C394.26,153.54,355,165,355,165s-.23-11.44-2.57-19.84Z" style="fill:#fff"/><path d="M694,152.13a10.17,10.17,0,0,1-.95-3.26c0-.09-.59-3.64.29-3.35.64.21,2.19,1.84,1.89,3.23.21.15.49.48.66.56.53-1.66.63-2.36,1.26-2.69,1.29-.68,1.38,1.15,1.09,2.2.53-.06,1.83-.13,1.23,2.48,0,.1,0,.28,0,.31,1.41.22,3.3,1,6.51-.3.46-.66-.67-2.05-1.38-2.81-2.31-2.44-3.09-3.55-1.37-5.3.69.37,2.79,3.09,7.26,5.85a9,9,0,0,1,3.38,4.38c2.1,1.79,12.11,8.74,12.7,9.07-.23.75-4,3.48-4.53,5.05-2.12-1.57-7.73-7.15-11.76-9.64-3.4.32-9.33.12-10-.3-1.61-.8-4.32-1.78-4.52-2.74C693,153.8,694,152.13,694,152.13Z" style="fill:#f0c0a7"/><path d="M755.69,228.19s-1.63,3-3.45,6.27c-1,1.8-2.65,1.78-5.25,1.92-1.43.07-1.89-1.14-9.53.16-1.92-2.11,5.43-3.34,5.43-3.34s-3.5-.64-6.89-1a45.8,45.8,0,0,0-6.22,3.39c-1.91,1.13-3.1.29-3.27-.22,1.16-1.43,5.79-4.75,6.94-5.75,3-2.62,4.64-2.87,7.72-1.76a42.92,42.92,0,0,0,6.09,1.42l3.06-7.05Z" style="fill:#f0c0a7"/><path d="M780,122s-13.92-1.17-22.52,15.54c-6.62,12.85-3.76,25.77-11.25,37.52-4.2-3.13-30.09-20.57-30.09-20.57l-5.22,5.69s13,16.53,26.23,26.34c11.2,8.26,16.82,3.93,20.09.79s27.2-39.38,27.2-39.38Z" style="fill:#fff"/><path d="M832.85,205.53s-7.06-14.38-10.08-24.54C815,145.76,813.3,127.93,800,118.91c-2.21-1.5-22.82-10.79-22.82-10.79l-.26-2.14-7.7.3S759,122,758.3,123c.74,1.6,2.12,4.06,3.22,6-.4,24.35,1.47,34.27,10.83,51.89,6.31,11.89,7.2,20.09,12.18,34.8C818.45,225.36,832.85,205.53,832.85,205.53Z" style="fill:#fff"/><path d="M788.64,193.33c-6.65,10-9.65,5.22-12.18-4.11s14.53-53.72,18.8-49.05C800.94,146.38,799.87,176.4,788.64,193.33Z" style="fill:#adcbd9"/><path d="M782.78,274.43l1.43-59.67L828,213.08S812.83,251,810,276.91Z" style="fill:#003853"/><path d="M833.06,282c-1.17-17.38-.07-36.48.39-45.6.74-14.9,3-19.67-.84-31-13.85,9.46-39.15,9-39.15,9l13.92,64.71Z" style="fill:#144665"/><path d="M763.85,123.4a13.53,13.53,0,0,0-3-4.83,43.75,43.75,0,0,0-8-5.23c-1.48-.64-5.7-.65-5.7-.65s-1-22.5,9.08-23.29,14.5,11,14.5,11,1,4.19,5.91,7.85C780.34,111,763.85,123.4,763.85,123.4Z" style="fill:#e1b39d"/><path d="M764,122.34s-1.14,1.06-1.64,4.13a14.77,14.77,0,0,0,.48,3.54,305.3,305.3,0,0,0-5.65,36.42c-2.31,28.18-3.55,38.59-3.55,38.59l6.71,9.61,10.36-10.35s-2.78-10.86-6.15-37.36a129.79,129.79,0,0,1,1.07-36.61s2.43-2.93,4.28-5.08A42.53,42.53,0,0,0,764,122.34Z" style="fill:#e8ac4c"/><path d="M776.9,106l3.81,3.74L769.87,127s-3.59-.26-7.43-4.84C770.74,117.92,776.9,106,776.9,106Z" style="fill:#adcbd9"/><path d="M773.28,137.43c-5.38,20.48-5.34,27.63-6.15,33-1.72,12.79-19.24,57.49-19.24,57.49l8.9,3.1s18.15-33.34,25.25-44.85c1.31-3.71,12.39-20.3,16.44-43C803.53,114.8,780.71,109.14,773.28,137.43Z" style="fill:#fff"/><path d="M759.2,92s2-2.64,4.89,1.11-2.93,8.3-2.93,8.3-3,9.31-7.18,10.28a55.07,55.07,0,0,1-8.34,1.13c-.44,0-1.16,0-1.29-.45s-1.13-12.59-1.13-12.59-1.76-.15-1.2-1.78c2.2-6.47,2.63-11.64,5.08-13.36,0,0,6-7.74,8.95-4.71S759.2,92,759.2,92Z" style="fill:#f0c0a7"/><path d="M755,94.48c-.67,1.32,2.76,3.43,3.82,1s3.18-2.54,4.72-1,.85,4.91,2.26,7.39c.93,1.63,4.29,1.71,6.34,1.39-.56-4.19,2.17-18.29-.4-20.35s-10.44-6.67-17.84-6.65-11.74,2.91-7.48,9C763.76,78,755.38,93.74,755,94.48Z" style="fill:#144665"/><path d="M326.23,232.53s9.16-32.79,9.4-33.85a2.55,2.55,0,0,1,2.87-1.84c1.85.13,32.83-.07,33.64.09a1.35,1.35,0,0,1,1.06,1.72c-.24.78-9.86,34.42-9.86,34.42Z" style="fill:#003853"/><path d="M301.94,233l24.3-.49,37.1.54s-.47,3.13-2.63,3.32c-3.74.05-55.45,0-56.8,0C302.14,236.46,301.94,233,301.94,233Z" style="fill:#003853"/><polygon points="338.41 199.29 369.75 199.19 360.01 232.94 329.17 232.86 338.41 199.29" style="fill:#fff"/><path d="M349.48,218.83l4.35-10.41c3.74,1.64,5.42,6.85,3.76,12.3-1.81,6-6.91,9.93-11.39,8.88-3.2-.74-5.21-3.86-5.44-7.74Z" style="fill:#95dbe2"/><path d="M341.05,216.26l0-.09c1.75-6,6.82-10,11.32-9a5.46,5.46,0,0,1,1.08.35l-4.22,10.38Z" style="fill:#fcce5b"/><path d="M348.66,218.42l0,.07-8.7,3.21a13.83,13.83,0,0,1,.51-4.82Z" style="fill:#6ba1c4"/><path d="M318,228.16l3.13.29s15.25-8.88,19.9,5.05c-.91.77-2.32.37-3.07-1-.71.48-2,.23-3.93-1.42s-4.19-1.22-5.84.74c-.66.78.62,1.22,3.76,1.5,3.43.3,3.87,1.58,3.85,2.7-1.11.65-7.38,0-9.91,0a5.1,5.1,0,0,1-4.14-1.68l-6.4.07Z" style="fill:#f0c0a7"/><path d="M278.15,172.29s10.53,43.78,12.86,52.25c14.27,1.64,19.56,2.33,29.62,3.6a26.08,26.08,0,0,0-1.12,8.32s-23.05,2.75-34-.37-28.32-50-28.32-50Z" style="fill:#fff"/><path d="M315.59,274.43c-.12-3.18-4.09-18.51-10.56-19.83-12-2.46-58.41-5.34-58.41-5.34s-27.49-2.83-36.14-3.83c-.77,3.4-1.18,22.82,3.15,29Z" style="fill:#003853"/><path d="M250.29,251.43c2.23-12.38,20.36-32.72,26.8-49.67,2.71-7.14,4.12-23.62,1.73-29.61-.15-.39,2.36-4.84,2.16-5.19-4.73-8.54-17.94-13.19-17.94-13.19l-4.07-.28.13,2.91s-17.37,2.59-31.65,28.89c-6.49,12-16,44.35-19.74,62C206.63,252.33,249.82,254.06,250.29,251.43Z" style="fill:#fff"/><path d="M292.55,154.26c-3-.24-13.94,6.81-17,13.13-7.9-4.19-13.17-11.69-14.69-12.08a20.07,20.07,0,0,0,6.16-7.62S282,113.77,292.55,154.26Z" style="fill:#e1b39d"/><path d="M226.76,233.71c8.13,8.78,30.13,1.54,30.13,1.54l13-16.56s-11.25-4.63-9-13.32c7.72-29.63-11.84-23.94-18.87-14.71C224.51,213.65,225.42,224.61,226.76,233.71Z" style="fill:#adcbd9"/><path d="M275.62,168.92s2,.94,2.23,4.23a6,6,0,0,1-.69,3.38A80.83,80.83,0,0,1,281.5,206c-1,25.55-1.13,32.91-1.13,32.91s-5.71,7.36-6.06,7.79a1.16,1.16,0,0,1-2.05-.05l-4.93-9.31s3.32-7.56,7.2-32.32c2.68-17.09.14-27.93.14-27.93s-1.43-2-3.29-4.22A17.12,17.12,0,0,0,275.62,168.92Z" style="fill:#177e9d"/><path d="M277.07,167.72a14.59,14.59,0,0,1-6.12,6.44c-6.8-12.58-15.15-16.49-15.15-16.49s1.51-2.19,3.17-4.1C265.78,156.1,277.07,167.72,277.07,167.72Z" style="fill:#adcbd9"/><path d="M297.41,210.19a82.34,82.34,0,0,1,13-5.95c.59,3.19-5.76,5.29-5.76,5.29s16.81,1.94,17.58,2.12.77,1.86.77,1.86a1.43,1.43,0,0,1,.87.43,1.1,1.1,0,0,1-.33,1.62c-1.37.8-9.2.65-9.2.65s5.45.6,6,.58.08,2.07-4.37,2.18c-1.7,0-13.61,1.8-16.28-2.22a30.61,30.61,0,0,1-3.95-.78Z" style="fill:#f0c0a7"/><path d="M298,209.87s-40.94,3.86-44.12,4.18c-1-2.45,9.87-21.37,9-37.58-.52-10-11.79-17.6-19.62-6.81-7.11,9.81-10.26,30.39-12.08,44.9-1,8-.54,14.67,13,15.18,18.87.72,54.16-10.86,54.16-10.86Z" style="fill:#fff"/><path d="M296,274.43c0-.73-1.15-9.71-5.81-11.64-11.55-4.78-39.33-13.25-39.33-13.25s-35.71-1.32-43.14-2.32c-.67,3.39-2.85,19,2.26,27.21Z" style="fill:#144665"/><path d="M292.09,158.33c-2.78-.66-4.53-2.12-7.35-2.85-4-1-3.72-5.88-3.72-5.88l-.33-3.77s-3.81-2.05-4.78-3.73c-.39-.68-2.34-3.9.95-4.65,4.86-1.11,2.54-13.1,2.54-13.1l6.61-.85,5.24,3.77,6,17.39a1.12,1.12,0,0,1-1.26,1c-1.18,0-1,.22-1,.22s-.89,10.81-1,11.35A1.52,1.52,0,0,1,292.09,158.33Z" style="fill:#f0c0a7"/><path d="M269.6,125.87c5.58-8,17.77-2.88,21.44-7.45a5.76,5.76,0,0,1,.57,9.8c-5.12-1.21-10,.72-9,4.31.07.66,1.84,5,.89,7.56-.35,1.31-.74,1.87-2.29,1-.66-1.68-2.21-4.49-5.56-3.21-2,.76-.12,9.68-8.78,10.19C267.05,145.5,262.8,129,269.6,125.87Z" style="fill:#144665"/><path d="M294.89,150.58a3.81,3.81,0,0,0,.43-4.87c-2.22.06-2.58,2.67-3.78,3.75-6.82-1.58-8.84-5.59-8.17-8.59,1.16-5.23-2.88-9.82-3-10.69-3.25,3.52.32,8.91.65,11.76.22,2-1.23,4.59-1.23,4.59a8.05,8.05,0,0,0-.68,5.38c1.11,4.9,8,7.92,12.73,7.94S294.89,150.58,294.89,150.58Z" style="fill:#144665"/><path d="M234.56,122.86l2.88-2.39s1.68-4.66,3.47-8.85c1.68-3.94,8.85-5.41,9.68-5.84,1.32,1.61-2.35,3.25-4.14,3.86a4.12,4.12,0,0,1,1.34,3.67c-.36,1.29-2.78,2.53-3.34,1.12a1.6,1.6,0,0,0-.69,1.75c.14.82.63.94,2.25-.18,3.14-2.18,3.94-1.66,4.7-1.09-.48.92-5.55,5.28-6.71,7.25a2.68,2.68,0,0,1-2.94,1.46l-4.46,3.85Z" style="fill:#f0c0a7"/><path d="M235.5,122C217.92,136.47,208,142,203,144.79s-3.64,16.08,7,11.64,28.69-28.37,28.69-28.37A12.06,12.06,0,0,0,235.5,122Z" style="fill:#003853"/><path d="M161.66,141.77c6.67-2.31,21.94,5.78,42.27,2.43,8.65-1.42,13.87,11.72,1.24,13.4s-27.47,3.38-34.56,7.6C166.62,160.32,158.35,142.92,161.66,141.77Z" style="fill:#003853"/><path d="M145.37,221.6l33.39-.35s-3-30.3.61-35.51,4-6.57,3.81-11.25c-1.93-4-14.41-20.32-20.27-30.48s-15.1-6.79-15.1-6.79Z" style="fill:#fff"/><path d="M131.78,276.67c1.92-12.72-4.56-30.17-1.76-37.74.56-2.17,25.82-16.14,35.2-9.21,4.26,3.15-2.81,30.23-2.81,30.23s-1.55,5.76-3.81,14.48Z" style="fill:#003853"/><path d="M145.55,266.71c-6.08-12.17-9.76-17.3-8.79-26.78a48.46,48.46,0,0,1,9.37-24.29s17.24,4.2,31.42,5.34c-.11,13-4.11,33.56-4.11,33.56S158.51,265.62,145.55,266.71Z" style="fill:#144665"/><path d="M173.09,130.46c-6,2-9.68,14.82-9.71,17.24-2,4.29-14.56-10.61-14.56-10.61s3.37-3.29,3.76-7.28-1.72-19.55-1.72-19.55S178.55,128.68,173.09,130.46Z" style="fill:#e1b39d"/><path d="M145.23,107.69s-9.8-4-11,6.17,5.22,26.07,4.63,29.09-3.78,5.49,4.09,2.6-1.25-23.32-.26-26.9a11.47,11.47,0,0,1,2.94-5.31Z" style="fill:#003853"/><path d="M159.18,116.23s-4.11-3.62-5.83,1.28,6.42,6,6.42,6,5.39,6.91,10.1,7.21a64.4,64.4,0,0,0,6.86-.28,1,1,0,0,0,1-.92c0-.47-.28-11.46-.28-11.46s2.76-1,1.21-2.12c-8-5.68-4-13.8-12.22-15.35Z" style="fill:#f0c0a7"/><path d="M169.92,97.06s17.21,4.58,1.55,17.34S169.92,97.06,169.92,97.06Z" style="fill:#003853"/><path d="M166.91,117.17s-3,1.8-5.65.41c-1.7-.9-3.34-1.62-4.66.46s.54,6.34-.42,9.39a4.33,4.33,0,0,1-3.33,3,17.46,17.46,0,0,0-3.55-1.61c-2.42-.86-9.59-18.27-7.25-21.13s12.42-11.15,20.54-12.88,9.61,4.36,6.39,12S166.91,117.17,166.91,117.17Z" style="fill:#003853"/><path d="M194.2,235.79a2.72,2.72,0,0,1-3.73.89l-21.31-13.06a2.7,2.7,0,0,1-.9-3.72l18.41-30.05a2.71,2.71,0,0,1,3.73-.89l21.31,13a2.7,2.7,0,0,1,.89,3.73Z" style="fill:#305d81"/><path d="M146.18,276.43l-4.61-9.95s-9.59-17.25-4-31.61c2.25-5.74,26.48-9.26,34.49-7.64,4.21,14.51,6.78,34.65,7,37.3.27,3.72.46,6.94.59,9.9Z" style="fill:#144665"/><path d="M132.09,247.38s12.87,4.46,18.35,4.11c4.46-4.8,5.15-23.32,5.15-23.32Z" style="fill:#003853"/><path d="M124.3,158a8.37,8.37,0,0,1,1.92-3.41c1.25-1.08,21.59-17.37,21.59-17.37s16.37,22.27,18.45,50.5c.44,10.15-3.5,24-18.73,59-6.75,1.26-11.58,1.74-21.49-.1.69-22.87,15.33-32.7,13.2-55.61C137.87,176.15,124.3,158,124.3,158Z" style="fill:#144665"/><path d="M148.73,135.35l-7,5.42s14.34,20.09,17.95,19.06C157.82,154.51,148.73,135.35,148.73,135.35Z" style="fill:#305d81"/><path d="M160.3,215.4l2.88-7.69s-27,6.09-25.14,7.79C142.75,219.89,160.3,215.4,160.3,215.4Z" style="fill:#003853"/><path d="M179.18,202.09l-.82,0s2.55,2.37,12,4.81c1.66.42.17,2.3.17,2.3s1.88,1.29.27,1.64a20.81,20.81,0,0,1-5.3-.3s3.52.82,3.62,1.38c.05.28-.16,1-1.76,1a42.22,42.22,0,0,1-7.47-.6c-1.69-.48-7.33.09-8.69-4.73-.52-.08-4-.19-4-.19l.41-6.46s6.56-1.36,13.45-2Z" style="fill:#f0c0a7"/><path d="M169.61,200.22l-44.55,2.71s7.85-17.71,12-27.27S124.3,158,124.3,158s-15.94,43.51-16.23,51.84,15.72,9.49,32.26,5,28.59-6.56,28.59-6.56Z" style="fill:#144665"/><path d="M459.34,274.42H450.1v-25.9c0-1.35,0-3-3.57-3H292.8c-3.57,0-3.57,1.68-3.57,3v25.9H280v-25.9c0-7.46,5-12.28,12.82-12.28H446.53c7.78,0,12.81,4.82,12.81,12.28v25.9Z" style="fill:#0a86b7"/><path d="M689,228.47c8.31.49,9.76,3.71,9.76,3.71s-9,13.34-16.72,13.08c-3-4.19-5.33-8.3-5.33-8.3S680.66,228,689,228.47Z" style="fill:#003853"/><path d="M596.05,221.91a5.2,5.2,0,0,0-2.66.31c-.44.22-3.51,1.79-3.83,2.1s-1.57.9-1.24,1.43a1.56,1.56,0,0,0,2,.43,26.88,26.88,0,0,0,3.37-1.84l1,.12a10.74,10.74,0,0,0-1.61,1.06c-.26.3-3.69,4.65-3.63,5s.92,1,1.5.64c-.26.93,1.17.89,2,.55s4.65-2.6,4.65-2.6-2.78,3.28-2.82,3.52.66.66,1.19.48c1.9-.63,4.08-3.72,4.08-3.72a33.69,33.69,0,0,1,3.36-.35c2.84,1,5.59.41,6.91-.9,2.06-.48,28.83-1.55,28.83-1.55s7.36-11,6.89-12c-14.68,2.9-37.26,9.05-37.26,9.05S596.86,222,596.05,221.91Z" style="fill:#f0c0a7"/><path d="M650.4,176.74c-6.16,10.64-8.37,36.37-11.89,38.41-4.85,1.66-13.27,4.06-13.27,4.06l2.13,8s16.77.25,22.64-2.62c3.81-2.16,8.6-18,16.86-34.19C682.65,159.44,664.82,151.82,650.4,176.74Z" style="fill:#144665"/><path d="M691.71,274.43c11.13-13.52,6-26.19,6-26.19l-40.05.79s-41.91,10.28-47.41,11.86-6.45,5.88-5.64,13.54Z" style="fill:#144665"/><path d="M626.39,274.43a36.71,36.71,0,0,0-1.74-5.81c-1.73-4.76-17.95-10.83-21.37-.23-.59,1.81.15,5.09.28,6Z" style="fill:#f0c0a7"/><path d="M692.28,248.71s-8.44,3.37-16.91,2.68c-8.9-.73-8.68-1.87-17.72-2.33,0,0,.35-36.37-4.43-40.34-3.84-3.19-5.79-3.59-6.1-9.24.31-3.66,9.78-21.31,13.53-32.15S673.88,158,673.88,158Z" style="fill:#fff"/><path d="M652.73,119.34s-17.39,4.26-1.1,17.63S652.73,119.34,652.73,119.34Z" style="fill:#003853"/><path d="M676.05,125.34s4.76,2.4,5.94,13.07,2.36,25.78,3,28.93.72.42-6.62-4.32c-3.32-2.14-8.93-3.21-10.26-6.28a12.52,12.52,0,0,1-.92-6.7Z" style="fill:#003853"/><path d="M648.85,145.81s11.36,24,11.86,26.47c2.86,4,13.17-14.27,13.17-14.27a10.78,10.78,0,0,1-4.47-5.86c-1.16-4-2.84-20.88-2.84-20.88Z" style="fill:#e1b39d"/><path d="M663.07,135.26s2.74-.92,4.51,4.2-4.06,5.63-4.06,5.63a16.31,16.31,0,0,1-8.22,8.64,7.76,7.76,0,0,1-2.63.73,70.23,70.23,0,0,1-7.17-.32,1,1,0,0,1-1-1c0-.5.32-12,.32-12s-2.87-1.07-1.25-2.21c8.41-5.9,4.2-14.39,12.81-16Z" style="fill:#f0c0a7"/><path d="M655.78,139.41s3.51,1.79,5.66-.29,4.38-1.25,5.14,1.2-.84,8.69.47,14.15,8.71,7.1,8.71,7.1-3.71-7.66-1.19-8.54,6.11-22.6,3.68-25.59S669,118,660.52,116.16s-10.35,5.46-6.84,13.4C656.55,136.07,655.78,139.41,655.78,139.41Z" style="fill:#003853"/><path d="M699,174c-8.19-5.17-24.43-14.6-24.43-14.6s-12.23,23-9,50.53c1.46,9.82,1.47,13.62,22.58,44.4,6.72,0,12-2.75,16.47-6-4.1-18.51-12.82-22.38-14.43-36.9S707.15,179.18,699,174Z" style="fill:#144665"/><path d="M672.87,158.52l6.6,3.49s-8.76,20.06-12.41,19.74C667.87,176.3,672.87,158.52,672.87,158.52Z" style="fill:#305d81"/><path d="M692.38,223.29s-19.1,4.57-20.17,4.58c-2.42-1.89-6.41-3.34-11.71-5.6-.82,3.27,3.69,4.12,4,5.69-4.4,1.13-14.07.48-14.89.62s-1.23,2-1.23,2-2.6,1.11-1.22,2,9.73.84,9.73.84-6.57.45-6.62,1c-.13,1.58,2.87,1.89,7.62,2,1.77,0,11.94.54,12.92-2,.52.11,27-3.35,27-3.35Z" style="fill:#f0c0a7"/><path d="M686,224.48l18.72-4.92s-8.63-17.32-14.36-25.74,5.94-26.43,10.64-17.5,18.46,37.37,20.28,45.31-7.07,8.54-23.68,10.74c-5.14.68-9.44.82-9.44.82Z" style="fill:#144665"/><path d="M764.13,274.42h-9.25v-25.9c0-1.36,0-3-3.57-3H559.73c-3.57,0-3.57,1.68-3.57,3v25.9h-9.25v-25.9c0-7.47,5-12.29,12.82-12.29H751.31c7.79,0,12.82,4.82,12.82,12.29v25.9Z" style="fill:#0a86b7"/></g></g></g></g></svg>