<svg id="e6wdEQ275vI1" xmlns="http://www.w3.org/2000/svg" xmlns:xlink="http://www.w3.org/1999/xlink" viewBox="0 0 938.05 290.23" shape-rendering="geometricPrecision" text-rendering="geometricPrecision">
<style><![CDATA[
#e6wdEQ275vI8_tr {animation: e6wdEQ275vI8_tr__tr 1200ms linear 1 normal forwards}@keyframes e6wdEQ275vI8_tr__tr { 0% {transform: translate(142.829609px,66.134604px) rotate(0deg)} 33.333333% {transform: translate(142.829609px,66.134604px) rotate(-10.440206deg)} 66.666667% {transform: translate(142.829609px,66.134604px) rotate(15.849814deg)} 83.333333% {transform: translate(142.829609px,66.134604px) rotate(-0.324308deg)} 100% {transform: translate(142.829609px,66.134604px) rotate(-0.324308deg)}} #e6wdEQ275vI10_tr {animation: e6wdEQ275vI10_tr__tr 1200ms linear 1 normal forwards}@keyframes e6wdEQ275vI10_tr__tr { 0% {transform: translate(307.404432px,104.382191px) rotate(0deg)} 83.333333% {transform: translate(307.404432px,104.382191px) rotate(-271.425308deg)} 100% {transform: translate(307.404432px,104.382191px) rotate(-271.425308deg)}} #e6wdEQ275vI11_tr {animation: e6wdEQ275vI11_tr__tr 1200ms linear 1 normal forwards}@keyframes e6wdEQ275vI11_tr__tr { 0% {transform: translate(332.780057px,88.068394px) rotate(2.081257deg)} 83.333333% {transform: translate(332.780057px,88.068394px) rotate(-269.726128deg)} 100% {transform: translate(332.780057px,88.068394px) rotate(-269.726128deg)}} #e6wdEQ275vI14_ts {animation: e6wdEQ275vI14_ts__ts 1200ms linear 1 normal forwards}@keyframes e6wdEQ275vI14_ts__ts { 0% {transform: translate(527.385025px,78.387232px) scale(0.071954,0.139943)} 75% {transform: translate(527.385025px,78.387232px) scale(1.002984,0.994047)} 100% {transform: translate(527.385025px,78.387232px) scale(1.002984,0.994047)}} #e6wdEQ275vI16 {animation: e6wdEQ275vI16_c_o 1200ms linear 1 normal forwards}@keyframes e6wdEQ275vI16_c_o { 0% {opacity: 0} 58.333333% {opacity: 0} 83.333333% {opacity: 1} 100% {opacity: 1}} #e6wdEQ275vI17 {animation: e6wdEQ275vI17_c_o 1200ms linear 1 normal forwards}@keyframes e6wdEQ275vI17_c_o { 0% {opacity: 0} 25% {opacity: 0} 58.333333% {opacity: 1} 100% {opacity: 1}} #e6wdEQ275vI18 {animation: e6wdEQ275vI18_c_o 1200ms linear 1 normal forwards}@keyframes e6wdEQ275vI18_c_o { 0% {opacity: 0} 25% {opacity: 1} 100% {opacity: 1}} #e6wdEQ275vI22 {animation: e6wdEQ275vI22_c_o 1200ms linear 1 normal forwards}@keyframes e6wdEQ275vI22_c_o { 0% {opacity: 0} 33.333333% {opacity: 1} 100% {opacity: 1}} #e6wdEQ275vI24 {animation: e6wdEQ275vI24_c_o 1200ms linear 1 normal forwards}@keyframes e6wdEQ275vI24_c_o { 0% {opacity: 0} 41.666667% {opacity: 1} 100% {opacity: 1}} #e6wdEQ275vI34_tr {animation: e6wdEQ275vI34_tr__tr 1200ms linear 1 normal forwards}@keyframes e6wdEQ275vI34_tr__tr { 0% {transform: translate(481.246552px,147.523476px) rotate(0deg)} 41.666667% {transform: translate(481.246552px,147.523476px) rotate(-2.116305deg)} 100% {transform: translate(481.246552px,147.523476px) rotate(-2.116305deg)}} #e6wdEQ275vI35_tr {animation: e6wdEQ275vI35_tr__tr 1200ms linear 1 normal forwards}@keyframes e6wdEQ275vI35_tr__tr { 0% {transform: translate(441.50061px,89.74847px) rotate(0.155547deg)} 33.333333% {transform: translate(441.50061px,89.74847px) rotate(-5.899078deg)} 58.333333% {transform: translate(441.50061px,89.74847px) rotate(5.425802deg)} 100% {transform: translate(441.50061px,89.74847px) rotate(5.425802deg)}} #e6wdEQ275vI66_tr {animation: e6wdEQ275vI66_tr__tr 1200ms linear 1 normal forwards}@keyframes e6wdEQ275vI66_tr__tr { 0% {transform: translate(738.648224px,156.634858px) rotate(-6.249615deg)} 50% {transform: translate(738.648224px,156.634858px) rotate(-6.249615deg)} 75% {transform: translate(738.648224px,156.634858px) rotate(-2.112093deg)} 100% {transform: translate(738.648224px,156.634858px) rotate(-2.112093deg)}} #e6wdEQ275vI100_tr {animation: e6wdEQ275vI100_tr__tr 1200ms linear 1 normal forwards}@keyframes e6wdEQ275vI100_tr__tr { 0% {transform: translate(205.883011px,135.489998px) rotate(-1.422263deg)} 41.666667% {transform: translate(205.883011px,135.489998px) rotate(-8.702832deg)} 75% {transform: translate(205.883011px,135.489998px) rotate(-5.081318deg)} 100% {transform: translate(205.883011px,135.489998px) rotate(-5.081318deg)}} #e6wdEQ275vI122_tr {animation: e6wdEQ275vI122_tr__tr 1200ms linear 1 normal forwards}@keyframes e6wdEQ275vI122_tr__tr { 0% {transform: translate(630.649231px,197.508324px) rotate(0deg)} 33.333333% {transform: translate(630.649231px,197.508324px) rotate(9.459981deg)} 75% {transform: translate(630.649231px,197.508324px) rotate(-0.506569deg)} 100% {transform: translate(630.649231px,197.508324px) rotate(-0.506569deg)}}
]]></style>
<g><g><g><path d="M252.25,10.75c-19.11,9.25-37.56,22.37-58.6,25.07-28.12,3.61-55.3-7.61-80.6-17.43C73.48,3,-3.74,-11.58,0.14,55.11c1.52,26,14.53,42.41,32.43,59.61C49.76,131.23,57.7,147.66,51,171.18c-5.44,19-18.31,34.43-26.33,52.25C16,242.57,14.18,273,35.94,283.93c27.56,13.82,63.45,2.14,90.12-8.45c30.8-12.22,60.6-30,94.41-32c33.39-2,58.57,22,92.74,15c14.17-2.93,27.27-9.59,41.17-13.6c37.08-10.7,76.86-1.89,113.64,9.8c39.37,12.5,77.1,32.05,119.74,24.14c21.57-4,41.42-14.05,63.06-18.53c25.52-5.28,52-1.9,77.33,2.36l92.22,15.5c24.47,4.1,53.27,14.4,65-16.91c8.82-23.48,2.9-48.73-2.72-71.67-8.1-33.05-10.88-61.57,21.59-82.12c4-2.54,8.28-4.66,12-7.57c3.499259-2.80407,6.583282-6.090103,9.16-9.76c26.75-36.92,9.9-90.37-40.09-88.39C854.07,3,821.37,17.5,790.66,23.38c-18.14,3.47-34.71,10.85-52.23,1.68-6.74-3.53-12.37-9.11-19.52-11.71-11.83-4.3-25.12.33-37.3,4.65-28.83,9.61-57.74,17.68-87,25.83-26.11,7.26-54.35-10.3-79.21-19.49-5.44-2-11-4-16.73-4.6-7.15-.7-14.3.87-21.24,2.68-26,6.78-49.62,14.25-76.67,9.16-26.73-5-53.2-12.26-79.11-20.5s-43.78-12.63-68.92-.56Z" fill="#d6edfb" fill-rule="evenodd"/><path d="M204.64,129.58c-.264913-.11201-.493435-.29552-.66-.53-.74-.9-12.1-14.47-12.1-14.47l-.55.07c-.31,0-31.53,4.14-56,4.9h-1.9c-12.25,0-22-3.83-28.84-11.38C91.44,93.81,90.7,68.84,92.39,50.42c1.6-17.45,27.37-23.64,49-23.64c9.287357-.055114,18.543253,1.084228,27.54,3.39c26,7.09,35.2,15.85,37.71,36c2.26,18.19-1.11,55.61-1.81,62.92-.002161.180903-.06964.354929-.19.49Z" fill="#fff"/><path d="M141.35,25.78v2c9.199401-.058394,18.36806,1.067523,27.28,3.35c13.69,3.73,22.27,7.86,27.81,13.38c5.16,5.15,7.91,11.67,9.17,21.82c2.12,17.06-.86,52.26-1.67,61.11L193,114.36l-.71-.85-1.09.15c-.31,0-31.48,4.13-55.91,4.89h-1.87c-12,0-21.42-3.72-28.1-11-12.89-14.12-13.6-38.8-11.93-57c1.53-16.77,26.79-22.73,48-22.73v-2m0,0c-24,0-48.36,7.13-50,24.55-2.22,24.26-1.11,70.25,42,70.25h1.93c24.82-.77,56.12-4.91,56.12-4.91l11.75,14c.324594.495196.851922.821115,1.44.89.61,0,1.05-.56,1.13-1.35.87-9.18,4-45.44,1.8-63.14-2.44-19.69-10.72-29.34-38.43-36.89-9.084717-2.329275-18.431612-3.478731-27.81-3.42Z" fill="#d6edfb"/><g id="e6wdEQ275vI8_tr" transform="translate(142.829609,66.134604) rotate(0)"><path d="M133,65.45l-2.35-4.83c-1.681707-3.446257-.251257-7.603293,3.195-9.285s7.603293-.251257,9.285,3.195l1.49,3.06L147.77,56l-1.49-3c-1.639849-3.358297-4.946762-5.586642-8.675057-5.845639s-7.311554,1.490701-9.4,4.59-2.364792,7.077342-.724943,10.435639L129.83,67l-2.14,1L136,85.14l23.24-11.35-8.35-17.1Zm16.51-3.09l1.61,3.22c0,0-4.4,8.4-5.32,9.85s-2.29,1.27-3.49.75c-2.47-1.07-5.76-2.82-6.14-3.59-.8-1.64.42-2.68,1.11-3.3.39-.34,3.45,2.07,6.21,2.76Z" transform="translate(-142.829609,-66.134604)" fill="#2fc3cb"/></g><path d="M433.66,165c1.55,1.19,2.83.6,3-1.85.79-14,2.15-59.73-6.79-95.44-10.51-42-85.92-54.17-135.72-39.42-40.79,12.07-37.1,65.69-23,97.05c11.31,25.1,63.65,30.43,96.16,23c41.81-9.52,46.98,1.72,66.35,16.66Z" fill="#95c3e2"/><g id="e6wdEQ275vI10_tr" transform="translate(307.404432,104.382191) rotate(0)"><path d="M314.09,114.26c-.019734-1.11121.392542-2.186714,1.15-3c.873321-1.005318,2.259164-1.397908,3.53-1c1.017746.062434,1.97142-.499482,2.41-1.42l.1-.2c.154349-1.021218-.303314-2.038248-1.17-2.6-.978693-.53044-1.61399-1.528762-1.68-2.64.004863-.859229.341666-1.68332.94-2.3.66-.71,1.73-2.4,1-3.44-.719438-.849423-1.876205-1.187797-2.94-.86-.893973.223864-1.840822-.00817-2.53-.62-.660525-.633127-1.02358-1.515349-1-2.43c0-1,.05-2.14-1.34-2.68-1.14-.43-2.47.52-3.06,1.3-.480289.738623-1.236764,1.253747-2.1,1.43-.931902.192186-1.885936-.209303-2.4-1.01-.761536-1.022897-2.116407-1.404724-3.3-.93-.93.42-1.58,1.4-1.2,3c.188616.888094-.13572,1.807046-.84,2.38-.848417.831933-2.060134,1.178137-3.22.92-.9-.14-2.54.38-2.85,1.55s.74,2.43,1.39,2.88c.836565.522825,1.340503,1.443554,1.33,2.43-.042241.999035-.51218,1.931628-1.29,2.56-.93863.686419-1.285704,1.925967-.84,3c.448452.923366,1.462874,1.428523,2.47,1.23c1.028545-.337565,2.158097-.130481,3,.55.729438.703387,1.097706,1.701393,1,2.71-.103359,1.0237.390697,2.015704,1.27,2.55c1.21.61,2.48-.46,2.93-1.09.502942-.845456,1.343784-1.435138,2.31-1.62c1.019-.075397,2.006308.373037,2.62,1.19.642723.9413,1.858849,1.300705,2.91.86c1.4-.56,1.46-1.58,1.4-2.7Zm-3.62-4.33c-2.316798,1.165112-5.107369.819484-7.069909-.875649s-2.710354-4.405763-1.894585-6.867381s3.034381-4.189188,5.620854-4.376799s5.03117,1.201704,6.19364,3.519829c.764235,1.518069.893258,3.277779.358617,4.891082s-1.689035,2.947695-3.208617,3.708918Z" transform="translate(-307.421799,-104.382191)" fill="#305d81"/></g><g id="e6wdEQ275vI11_tr" transform="translate(332.780057,88.068394) rotate(2.081257)"><path d="M339.52,102.71c.052825-1.245709.739569-2.377705,1.82-3c1.110844-.882919,2.606308-1.111234,3.93-.6c1.305993.405646,2.727108-.031009,3.58-1.1.67-1,1.18-2.33-.56-4.24-1.015393-1.063595-1.412089-2.574815-1.05-4c.366864-1.159566,1.205523-2.110772,2.31-2.62c1.41757-.670992,2.128499-2.280162,1.67-3.78-.43-2-2.6-2-3.78-2.3-1.181371-.247865-2.208558-.971236-2.84-2-.599321-1.007172-.8025-2.201294-.57-3.35.18-1.25.47-2.91-1.53-4-1.4-.75-3.14.08-4.07,1-.960289.767517-2.192771,1.108758-3.411063.94443s-2.316317-.819916-3.038937-1.81443c-.56288-1.485337-2.127453-2.335649-3.68-2-1.60512.425223-2.658918,1.959178-2.48,3.61.127489,1.369659-.541073,2.691234-1.72,3.4-1.104562.731562-2.503907.855698-3.72.33-1.479053-.484337-3.096601.117059-3.9,1.45-.623168,1.350251-.299445,2.948633.8,3.95.890328,1.190992,1.178399,2.727372.78,4.16-.241399,1.202094-1.034049,2.220685-2.14,2.75-1.313304.621017-1.976139,2.108145-1.56,3.5.207759,1.304349,1.319487,2.2729,2.64,2.3c1.27.18,2.85.34,3.84,1.66.839575,1.151807,1.165326,2.599591.9,4-.230947,1.315095.308682,2.646697,1.39,3.43c1.239966.782611,2.863965.554236,3.84-.54.874353-.989728,2.119901-1.572674,3.44-1.61c1.341728.187924,2.497135,1.042248,3.07,2.27.589345,1.359928,2.066133,2.104633,3.51,1.77c1.93-.44,2.37-2.1,2.53-3.57ZM335.3,95.8c-4.354731,1.332364-8.965408-1.115789-10.300953-5.469546s1.10924-8.966221,5.462021-10.304946s8.967028,1.102691,10.308932,5.454492c1.338716,4.360234-1.11008,8.980265-5.47,10.32Z" transform="translate(-332.797424,-88.068394)" fill="#fff"/></g><path d="M614.31,154.49c-.487878-.087691-.93768-.32131-1.29-.67-1.93-1.53-3.78-3-5.59-4.49-14.24-11.52-25.49-20.62-45.95-20.62-4.889237.040774-9.766399.492364-14.58,1.35-2.84.49-6.86,1.48-11.53,2.62-12.62,3.09-31.69,7.77-48.79,7.77v0c-18.09,0-30.4-5.28-36.6-15.68-12.26-20.59-15.3-47.1-7.93-69.18c3.89-11.66,12.44-27.15,31.12-34.82c13.5-5.54,30.91-8.59,49-8.59c40.24,0,88.57,15.46,92.33,59.05c2.92,33.91.9,71.3.21,82-.03.77-.24,1.26-.4,1.26Z" transform="translate(0-.34277)" fill="#fff"/><path d="M522.18,11.18v2c23,0,44.47,4.89,60.51,13.77c18.55,10.26,29.2,25.6,30.82,44.37c2.92,33.83.9,71.14.22,81.79l-.1-.08c-1.92-1.52-3.79-3-5.59-4.48-14.39-11.64-25.75-20.84-46.57-20.84-4.94664.037173-9.881132.495496-14.75,1.37-2.87.49-6.91,1.48-11.59,2.63-12.58,3.08-31.58,7.74-48.57,7.74-17.71,0-29.73-5.11-35.74-15.19-12.1-20.35-15.11-46.54-7.82-68.36c3.82-11.45,12.22-26.68,30.55-34.21c13.38-5.49,30.65-8.51,48.64-8.51v-2m0,0c-18.2,0-35.81,3.08-49.41,8.66-38.42,15.77-45,69.68-23.67,105.44c7.34,12.32,21.73,16.17,37.46,16.17c23.5,0,50-8.59,60.5-10.4c4.756048-.858859,9.577138-1.307177,14.41-1.34c22.71,0,34,11.54,50.92,24.89.527127.490297,1.19553.801752,1.91.89.81,0,1.32-.73,1.42-2.25.76-11.78,2.69-48.42-.22-82.09-3.67-42.58-50.12-60-93.32-60Z" fill="#d6edfb"/><g id="e6wdEQ275vI14_ts" transform="translate(527.385025,78.387232) scale(0.071954,0.139943)"><path d="M506.51,110L503,100l3.59-1.25l2.16,6.2L511.49,96l3.64,1.11-3.08,10.12-2.74-.84.8,2.29-3.6,1.25Zm-26.3-17.25l-3.09-2.23l6.19-8.57l3.09,2.22-6.19,8.58ZM500.93,94l-3.49-10l3.6-1.26l3.48,10L500.93,94ZM517,91.08L513.34,90l3.08-10.12L520.06,81L517,91.08Zm36.88-1.69l-3.11-2.2l6.12-8.63l3.1,2.2-6.11,8.63ZM490.11,79L487,76.77l6.18-8.58l3.09,2.22L490.11,79Zm59.37,9.51l-5.35-9.13l3.29-1.92l5.34,9.13-3.28,1.92ZM495.35,78l-2.3-6.59-1.52-1.09L495,65.5l3.93,11.26L495.35,78Zm26.56-3.13l-3.64-1.1l3.08-10.12L525,64.77l-3.08,10.11Zm41.74.7l-3.11-2.2l6.12-8.63l3.1,2.2-6.11,8.63Zm-22.72-1.69l-5.35-9.13l3.28-1.92L544.21,72l-3.28,1.92Zm32.5-12.12l-3.1-2.2l4.22-5.94l3.1,2.2-4.22,5.94Zm-46.59-3.08l-3.64-1.1l3.08-10.12l3.64,1.1-3.08,10.12Zm5.53.6L527,50.16l3.28-1.92l5.35,9.13-3.29,1.92Z" transform="translate(-527.385025,-78.730001)" fill="#f8d25f"/></g><path d="M556.07,87.89c.004044,1.886608-1.129843,3.589511-2.872071,4.313354s-3.749.325789-5.083036-1.008247-1.73209-3.340808-1.008247-5.083036s2.426746-2.876115,4.313354-2.872071c2.565842.0055,4.6445,2.084158,4.65,4.65Z" fill="#f8d25f"/><path id="e6wdEQ275vI16" d="M532.66,48.86c0,1.884794-1.135373,3.583999-2.876695,4.305279s-3.745672.322589-5.078423-1.010161-1.73144-3.3371-1.010161-5.078423s2.420485-2.876695,4.305279-2.876695c2.573647,0,4.66,2.086353,4.66,4.66Z" opacity="0" fill="#f8d25f"/><path id="e6wdEQ275vI17" d="M513.56,107.81c.004044,1.886608-1.129843,3.589511-2.872071,4.313354s-3.749.325789-5.083036-1.008247-1.73209-3.340808-1.008247-5.083036s2.426746-2.876115,4.313354-2.872071c2.565842.0055,4.6445,2.084158,4.65,4.65Z" opacity="0" fill="#f8d25f"/><path id="e6wdEQ275vI18" d="M498.93,69.34c-.000004,1.885703-1.136462,3.585537-2.879013,4.306227s-3.747682.320164-5.079642-1.014661-1.728178-3.340812-1.003747-5.081811s2.426703-2.873802,4.312402-2.869755c1.234991-.000003,2.419255.491279,3.291587,1.365487s1.361069,2.059525,1.358413,3.294513Z" opacity="0" fill="#f8d25f"/><path d="M571.19,50.8c-.85.62-.55,1.25,0,1.63s8.91,6.18,9.39,6.46c.380779.173043.822608.145855,1.179298-.072568s.581746-.599608.600702-1.017432c.54-3.56,1.62-10.68,1.91-12.48.46-2.83-.84-3.29-3.9-1.14-2.26,1.56-6.87,4.93-9.18,6.62Z" fill="#f8d25f"/><polygon points="471.08,105.44 467.99,103.22 474.18,94.64 477.26,96.86 471.08,105.44 471.08,105.44" fill="#f8d25f"/><path d="M654.74,99.68c-8.41-1.74-17,8-24.21,16-1,1.15-2.94,1.6-2.51-1.74.35-2.66-1.18-28.78,4.24-61.94c5.87-35.93,76.86-43.46,96.58-35c23.4,10,19,51.29,11.3,69.56-9.57,22.62-34.62,22.07-60.9,17.69-4.92-.9-20.84-3.81-24.5-4.57Z" fill="#95c3e2"/><path id="e6wdEQ275vI22" d="M712.51,53.68c-3.166852-11.194852-14.339747-18.134712-25.778609-16.01196s-19.377878,12.60928-18.317256,24.194993s10.771711,20.45645,22.405865,20.466967c2.075766-.003252,4.141417-.289214,6.14-.85c11.957396-3.39968,18.911312-15.831762,15.55-27.8Zm-3.6-.69l-6.77,1.91c-.84501-2.5206-2.007704-4.923276-3.46-7.15c1.254665-1.09608,2.40309-2.30812,3.43-3.62c3.089802,2.223434,5.455156,5.30883,6.8,8.87ZM684.82,74.6c1.326619,1.654944,2.836219,3.154481,4.5,4.47-2.3799-.184204-4.703777-.815213-6.85-1.86.718896-.925927,1.504309-1.798237,2.35-2.61ZM681,54.33c.42,0,.84,0,1.27,0c1.734532-.002624,3.462851-.207338,5.15-.61l1.39,4.9-7.14,2c-.450522-2.066206-.675175-4.175253-.67-6.29Zm15.74-9.18c-1.398503-1.721801-2.988775-3.278523-4.74-4.64c2.555619.170154,5.051319.850181,7.34,2-.786383.942538-1.642099,1.824995-2.56,2.64Zm-7.14,4.56l-2.41-8.52c2.68205,1.553082,5.054994,3.587034,7,6-1.419187,1.005075-2.945119,1.850206-4.55,2.52Zm6.51,0c1.205546,1.87694,2.182472,3.891221,2.91,6l-7.14,2-1.4-5c2.002297-.750524,3.906194-1.741088,5.67-2.95Zm-9.56.92c-1.747598.393568-3.54152.541659-5.33.44.39376-3.174303,1.377312-6.247054,2.9-9.06Zm3.13,11l1.4,5c-2.040196.799645-3.963995,1.869169-5.72,3.18-1.17956-1.923626-2.132565-3.977284-2.84-6.12ZM692,69.79l2.51,8.89c-2.815907-1.539372-5.28668-3.639188-7.26-6.17c1.461762-1.104155,3.057872-2.018138,4.75-2.72Zm3.06-.93c1.812164-.372934,3.672273-.453955,5.51-.24-.355716,3.237402-1.377105,6.366258-3,9.19Zm-.87-3.08l-1.39-4.92l7.15-2c.515743,2.152434.784146,4.356697.8,6.57-2.194663-.233997-4.412619-.115842-6.57.35ZM679.73,44c-.81952,2.166369-1.380076,4.42202-1.67,6.72-1.236577-.26083-2.445403-.639217-3.61-1.13c1.371744-2.195147,3.166598-4.095381,5.28-5.59ZM673,52.42c1.555052.683279,3.181911,1.189786,4.85,1.51-.040515,2.559616.228094,5.114765.8,7.61l-6.77,1.92c-.720215-3.710078-.330642-7.550154,1.12-11.04Zm-.26,14.12l6.76-1.91c.824245,2.591214,1.973391,5.06759,3.42,7.37-1.177828,1.108841-2.25845,2.316594-3.23,3.61-3.182543-2.253649-5.611599-5.414558-6.97-9.07Zm29.49,8.88c.731726-2.003009,1.23165-4.083229,1.49-6.2c1.125974.308638,2.223344.713461,3.28,1.21-1.279491,1.941133-2.902799,3.63222-4.79,4.99Zm6.29-7.8c-1.467187-.70374-3.006119-1.246893-4.59-1.62.036693-2.693858-.265682-5.381631-.9-8l6.76-1.91c.761396,3.88473.311086,7.909589-1.29,11.53Z" opacity="0" fill="#fff"/><path d="M298.67,56.1c-6.1-.61-11.08,6.1-16.22,11.79-.75.82-2.34,1.29-2.36-1.11-.127622-13.249418,1.18339-26.473544,3.91-39.44.390571-2.476796,1.195138-4.870212,2.38-7.08c11.39-18.8,39.28-22.17,59-19.42c2.155538.149046,4.239193.836721,6.06,2c2,1.53,3,4,3.79,6.44c4,12.85,6.94,33.08-3.95,43.54-8.83,8.48-23.48,6.93-34.59,5.84-3.54-.34-15.25-2.28-18.02-2.56Z" transform="translate(-.081665-.103429)" fill="#f8d25f"/><g id="e6wdEQ275vI24" transform="translate(0-2.636319)" opacity="0"><path d="M329.18,34.15c-.008024.415465.150042.816963.439144,1.115451s.685346.469299,1.100856.474549v0c.41376.008033.813756-.148667,1.111956-.435614s.470164-.680623.478044-1.094386l.14-7.4c.010731-.415471-.14477-.818048-.432006-1.118426s-.682459-.47372-1.097994-.481574v0c-.416412-.008033-.818952.149721-1.119027.438544s-.473092.685041-.480973,1.101456Z" fill="#fff"/><path d="M323.42,34c-.019321.429224.139244.847413.438289,1.155922s.712094.480021,1.141711.474078v0c.415471.010731.818048-.14477,1.118426-.432006s.47372-.682459.481574-1.097994l.14-7.4c.010731-.415471-.14477-.818048-.432006-1.118426s-.682459-.47372-1.097994-.481574v0c-.416412-.008033-.818952.149721-1.119027.438544s-.473092.685041-.480973,1.101456Z" transform="translate(-.270453 0)" fill="#fff"/><path d="M317.59,33.93c-.008033.41376.148667.813756.435614,1.111956s.680623.470164,1.094386.478044v0c.415471.010731.818048-.14477,1.118426-.432006s.47372-.682459.481574-1.097994l.14-7.41c.011155-.857752-.672333-1.563576-1.53-1.58v0c-.415471-.010731-.818048.14477-1.118426.432006s-.47372.682459-.481574,1.097994Z" transform="translate(-.270452 0)" fill="#fff"/><path d="M312,33.82c-.008024.415465.150042.816963.439144,1.115451s.685346.469299,1.100856.474549v0c.41376.008033.813756-.148667,1.111956-.435614s.470164-.680623.478044-1.094386l.14-7.4c.010731-.415471-.14477-.818048-.432006-1.118426s-.682459-.47372-1.097994-.481574v0c-.416412-.008033-.818952.149721-1.119027.438544s-.473092.685041-.480973,1.101456Z" fill="#fff"/><rect width="3.91" height="24.4" rx="0" ry="0" transform="matrix(.019197-.999816 0.999816 0.019197 309.916906 40.478738)" fill="#fff"/><polygon points="314.22,20.03 322.55,16.25 331.23,20.36 334.99,20.43 334.92,24.34 310.52,23.87 310.6,19.96 314.22,20.03" transform="translate(-.270452 0)" fill="#fff"/></g><g transform="translate(0-2.29355)" clip-path="url(#e6wdEQ275vI138)"><g><path d="M544.52,77.11c1.42-1.42,10.27-3.82,16.84,4.26c5.49,6.76,2.67,15.88,1.62,21.91-1,5.76-1.7,13.14,5.33,13.66c5.22,16-15.59,12.64-15.59,12.64s-14-1-21.58-6.33c-3.67-2.6-13.4-12.43-8.91-17.44c6.35-7.09,6.38-8.77,9.6-22.14c2.32-7.43,9.55-9.03,12.69-6.56Z" fill="#003853"/><g id="e6wdEQ275vI34_tr" transform="translate(481.246552,147.523476) rotate(0)"><g transform="translate(-481.246551,-147.523476)"><g id="e6wdEQ275vI35_tr" transform="translate(441.50061,89.74847) rotate(0.155547)"><g transform="translate(-441.50061,-89.74847)"><path d="M450.66,100.07c.424997-5.70917.088714-11.449507-1-17.07-3.17,1.24-1.53,8.08-1.53,8.08s-11-13.92-11.64-14.51-2.09.35-2.09.35-1.73-1.53-1.67.13s4.52,9.16,4.52,9.16-4-4.6-4.29-5.1-1.89,1.08.48,5.11c.9,1.53,5.94,13.13,11,13.28.21.49,3,3.72,3,3.72Z" fill="#f0c0a7"/></g></g><path d="M451.58,97.28c13.27,22.68,24.78,32.32,30,37.53c11.89-3.25,22.56-8.69,29-11.11.089799-.067643.18711-.124688.29-.17c3.37-1.34,12.49-3.18,19.46-3.63-.8,1.34-10,10.5-13.27,22.92-.24,1.45-.52,2.83-.84,4.08-.568325,3.857291-.395228,7.787607.51,11.58c5.36,22.26-6.06,50.21-9.66,55.78-1.61,2.5-2.78,4.51-2.78,4.51s-4.73-2.64-4.27-5c.95-4.93,10.91-12.74,10.55-31.18-.28-14.22-1.76-16.39-3.23-27.09-.292052-2.265905-.462297-4.54585-.51-6.83-7.83-1.25-16.81-.18-28,.47-2.974888.273647-5.942416-.595159-8.3-2.43-.32-.22-.64-.46-1-.73-11-9-24.32-44-24.32-44c1.931848-1.810839,4.069849-3.388329,6.37-4.7Z" fill="#144665"/></g></g><path d="M569.55,274.43c-.26-10.42-3.77-38.26-13.2-58.64-14.87-32.13-39.4-28.15-50.32-1.4-8.51,20.83-8.14,41.72-3.37,60h30.18c.06-6.16.14-12.14.22-13.3s1.57,5.88,3,13.3Z" fill="#144665"/><path d="M566,132c0,0-11.33-8.84-20.6-11.89s-31.64,3.23-31.64,3.23-6.17,19.26-2.91,35.35-4.8,55.68-4.8,55.68s36.64,4.64,51,1.26C559.33,178.31,566,132,566,132Z" fill="#fff"/><path d="M550.41,109.21c0,0-2.26,9.26.68,14-.31,3.56-4.22,16.66-15,14.36-11-2.34-.83-19.79-.24-23.6.421446-2.570233.989033-5.114358,1.7-7.62Z" fill="#e1b39d"/><path d="M532.28,96.39c-.66,4.39-1.3,14.29,1.89,19.18c2,3,8.1,4.13,10.44,2.15c3.549718-3.000769,6.451896-6.692285,8.53-10.85c2.28-.74,5.47-5.18,1.3-6.64-7,1.2-9.89-4-14-15.86-5.55,2.99-7.44,7.63-8.16,12.02Z" fill="#f0c0a7"/><path d="M532.56,199.48c-7.95-1.46-7.3-9.66-7.3-9.66s33.13,6.54,31.91,8.76-16.66,2.35-24.61.9Z" fill="#adcbd9"/><path d="M531.29,184.46c-6.065059-1.223597-12.211427-2.002337-18.39-2.33.43,3.38,7.48,3.45,7.48,3.45s-16.21,7.35-16.93,7.79-.17,2.1-.17,2.1-1.91,1.31-.27,1.66s9.99-2.13,9.99-2.13-5.45,2.77-6,2.93.58,2.1,5.07.77c1.71-.5,14.21-2.58,15.58-7.46.53-.09,4.05-.2,4.05-.2Z" fill="#f0c0a7"/><path d="M567.12,224.18c-7.420273-12.025557-9.067594-26.741376-4.49-40.11c7.62-23,10.27-34.63,11-40.51-1.6-5.62-4.08-10.35-7.3-12.6-4.037682-2.660746-8.261969-5.026881-12.64-7.08c1.602303,5.151187,2.159871,10.570471,1.64,15.94-2.23,23.42-6.44,67.14-7.67,77.23-1.69,14,10.18,12.09,11.66,11.66s7.8-4.53,7.8-4.53Z" fill="#144665"/><path d="M527.71,183.58l46.1,3.63c0,0-9.3-18.59-13.47-28.3s12.11-18.49,12.11-18.49s17,44.72,17.27,53.18-16,9.63-32.74,5.12-28.57-6.92-28.57-6.92Z" fill="#144665"/><path d="M611.61,232.82c0,0-8.34-29.82-8.56-30.82-.312119-1.145228-1.43833-1.870145-2.61-1.68-1.68.12-29.89-.06-30.62.08-.352001.054902-.663383.258549-.854772.55903s-.244294.668765-.145228,1.01097c.22.71,9,31.33,9,31.33Z" fill="#003853"/><path d="M635.57,233.26l-24-.45-33.77.49c0,0,.42,2.86,2.4,3c3.4,0,52.32-.05,53.54,0c1.64.09,1.83-3.04,1.83-3.04Z" fill="#003853"/><polygon points="600.53,202.55 571.99,202.46 580.87,233.18 608.94,233.11 600.53,202.55" fill="#fff"/><polygon points="583.46,224.28 579.03,224.28 580.33,228.88 584.76,228.88 583.46,224.28" fill="#aedeeb"/><polygon points="589.13,220.17 584.69,220.17 587.15,228.88 591.59,228.88 589.13,220.17" fill="#68c2d4"/><polygon points="593.99,214.11 589.55,214.11 593.72,228.88 598.15,228.88 593.99,214.11" fill="#6ba1c4"/><polygon points="599.67,210.08 595.24,210.08 600.54,228.88 604.98,228.88 599.67,210.08" fill="#fcce5b"/><path d="M335.41,123.87c8.060991-5.58125,17.134003-9.535194,26.71-11.64c1-.2.58-2.8.58-2.8c2.758079-.697845,5.59521-1.033998,8.44-1c6.77-.13,14.67,2.29,14.67,2.29.036149.853558.116255,1.704686.24,2.55c8.834851,2.349079,17.28985,5.945232,25.11,10.68c2.4,9-2.09,36.37-6.29,60.2c1.303742,10.203234,2.081437,20.466812,2.33,30.75-15.09,7.49-50.68,7.8-61.23,2.53-.309487-7.785447.420273-15.57741,2.17-23.17-1.71-12.45-12.73-70.39-12.73-70.39Z" fill="#fff"/><path d="M365.59,69.93c3-.88,3.21-2.68,4.63-3.51c7.24-4.2,21.68,1.75,20.19,10.68c2.4,2.94,2,4.89-1.81,17.51-4.84.62-22.06-.26-24.84-.35-4.76-14.78-3.09-22.91,1.83-24.33Z" fill="#003853"/><path d="M379.65,117.59c1.885807-.324528,3.679726-1.050963,5.26-2.13.06-8.36,1.74-16.95,1.79-19.27-1.52,1.26-4.64,11.93-6.73,11-2.036037-.800728-4.310109-.739364-6.3.17-1.74.65-6.93-7.12-8.68-9.53.38,3.71-.08,8-1.38,15.14c5.8,6.1,8.11,5.21,9.45,5.28s2.18,3.31,2.18,3.31c.920396-.249878,1.860496-.420501,2.81-.51.72-.05.33-3.32,1.6-3.46Z" fill="#e1b39d"/><path d="M388.22,79.34c1.13,2.5-.11,4.82-.1,7.89c0,1.25.41,1.54.84,1.25.52-.49.44-1,1.11-1c1.24.13.35,3.81-1.15,7.53-.12,2.61-4.66,12.85-7,15-1.29,1.46-7.61,2.21-10.62-.55-2.61-2-6.19-8.87-7.08-14.16-2.14-3-3.42-8.35-1.9-8.76.77,0,2.17,2.15,2.59,4c.24.57,1.44-.34,1.35-2c0-2.85-1.15-8,3-13.41c3.95.14,6.93,1.4,11,3.14c4.65,1.86,5.81,1.55,7.96,1.07Z" fill="#f0c0a7"/><path d="M377.71,274.43c.1-1.73,1.06-6.93,1.63-13.58.7,4.12,1.33,8.76,2,13.58h27.32c-.24-36.32-1.41-59.58-1.41-59.58s-26.85,9.47-61.27,2.56c-1.77,14.63-.1,24.12.63,57Z" fill="#144665"/><path d="M379.63,117.59c6.86-2.51,6.18-6.9,6.18-6.9l2.72,3.22c-.493085,3.113965-1.623308,6.092718-3.32,8.75-2.21-.6-5.59-4.66-5.58-5.07Z" fill="#adcbd9"/><path d="M362.7,109.43c0,0,1.82,6.12,10.35,8.83-1.59,2.42-3.3,5.07-4.53,6.79-3.963203-3.179402-6.944925-7.416221-8.6-12.22Z" fill="#adcbd9"/><path d="M369.34,166.75L349.9,142.27l-4.63,35L347,187.42c0,0,18.66,1.06,30.57-5.6c3.045394-1.729373,5.414377-4.440307,6.72-7.69s6.19,5.59,20.76,9c1.22-7.07,2.23-12.6,2.23-12.6L382,164Z" fill="#adcbd9"/><path d="M373,121.41c.352078-1.578651,1.742707-2.708536,3.36-2.73c1.710285-.122672,3.297389.894702,3.9,2.5-.132546,1.321039-.438511,2.618867-.91,3.86c4.15,11.57,14.72,60.28,16.06,73.09.136275.711671.026981,1.448524-.31,2.09-1.526696,3.070557-3.509126,5.892485-5.88,8.37-.49.48-1.09,1.38-2.85-.16-2.696177-2.003717-5.212385-4.238859-7.52-6.68-1.38-1.78-1.79-1.75-1.79-3-.68-24.17,1.84-50.44-1.34-72.57Z" fill="#e8ac4c"/><path d="M370.66,158.83c-1.530636-1.687077-3.20346-3.239458-5-4.64-2.54-1.8-4.88.86-4.88.86s-5.32.12-8.06.24c-1,3.71.36,11,.36,11s7.85-.18,14.49-.78c1.486495.15555,2.962431.399313,4.42.73Z" fill="#f0c0a7"/><path d="M411.16,123.93c3.66,4.59,16,27.69,15.06,49.26-.42,1.09-5,4.67-8,4.78-15.77.55-49.2-11.4-49.2-11.4l1.42-8l35,1.22-1.25-13.88Z" fill="#fff"/><path d="M397.89,153.09c0,0-1.82-1.59-1.3-2.78s3.34-.8,3.34-.8s2.5-1.53,3.92-1.41s1,1.53,2.89,2s1.48,2.39,3.12,2.56s1.7,3.34.29,4.42c-1.17.88-2.7,2.58-5.39,2.84-.482075.032345-.965614-.035759-1.42-.2Z" fill="#f0c0a7"/><path d="M343.08,125.92c-3.2-1.84-6.65-2.27-7.67-2-4.2,12-1,43.22,5.83,55.24c1.93,3,5.25,2.78,6.75,2.5c24.53-4.57,55.66-20.8,55.66-20.8s-1.67-7.32-6.84-8.12C394.26,153.54,355,165,355,165s-.23-11.44-2.57-19.84Z" fill="#fff"/><g id="e6wdEQ275vI66_tr" transform="translate(738.648224,156.634858) rotate(-6.249615)"><g transform="translate(-738.648224,-156.634857)"><path d="M694,152.13c-.497121-1.02575-.818263-2.127773-.95-3.26c0-.09-.59-3.64.29-3.35.64.21,2.19,1.84,1.89,3.23.21.15.49.48.66.56.53-1.66.63-2.36,1.26-2.69c1.29-.68,1.38,1.15,1.09,2.2.53-.06,1.83-.13,1.23,2.48c0,.1,0,.28,0,.31c1.41.22,3.3,1,6.51-.3.46-.66-.67-2.05-1.38-2.81-2.31-2.44-3.09-3.55-1.37-5.3.69.37,2.79,3.09,7.26,5.85c1.558601,1.068902,2.741159,2.60133,3.38,4.38c2.1,1.79,12.11,8.74,12.7,9.07-.23.75-4,3.48-4.53,5.05-2.12-1.57-7.73-7.15-11.76-9.64-3.4.32-9.33.12-10-.3-1.61-.8-4.32-1.78-4.52-2.74-2.76-1.07-1.76-2.74-1.76-2.74Z" fill="#f0c0a7"/><path d="M780,122c0,0-13.92-1.17-22.52,15.54-6.62,12.85-3.76,25.77-11.25,37.52-4.2-3.13-30.09-20.57-30.09-20.57l-5.22,5.69c0,0,13,16.53,26.23,26.34c11.2,8.26,16.82,3.93,20.09.79s27.2-39.38,27.2-39.38Z" fill="#fff"/></g></g><path d="M755.69,228.19c0,0-1.63,3-3.45,6.27-1,1.8-2.65,1.78-5.25,1.92-1.43.07-1.89-1.14-9.53.16-1.92-2.11,5.43-3.34,5.43-3.34s-3.5-.64-6.89-1c-2.157743.967725-4.237295,2.101114-6.22,3.39-1.91,1.13-3.1.29-3.27-.22c1.16-1.43,5.79-4.75,6.94-5.75c3-2.62,4.64-2.87,7.72-1.76c1.992772.620784,4.028173,1.095377,6.09,1.42l3.06-7.05Z" fill="#f0c0a7"/><path d="M832.85,205.53c0,0-7.06-14.38-10.08-24.54-7.77-35.23-9.47-53.06-22.77-62.08-2.21-1.5-22.82-10.79-22.82-10.79l-.26-2.14-7.7.3c0,0-10.22,15.72-10.92,16.72.74,1.6,2.12,4.06,3.22,6-.4,24.35,1.47,34.27,10.83,51.89c6.31,11.89,7.2,20.09,12.18,34.8c33.92,9.67,48.32-10.16,48.32-10.16Z" fill="#fff"/><path d="M788.64,193.33c-6.65,10-9.65,5.22-12.18-4.11s14.53-53.72,18.8-49.05c5.68,6.21,4.61,36.23-6.62,53.16Z" fill="#adcbd9"/><path d="M782.78,274.43l1.43-59.67L828,213.08c0,0-15.17,37.92-18,63.83Z" fill="#003853"/><path d="M833.06,282c-1.17-17.38-.07-36.48.39-45.6.74-14.9,3-19.67-.84-31-13.85,9.46-39.15,9-39.15,9l13.92,64.71Z" fill="#144665"/><path d="M763.85,123.4c-.6466-1.804318-1.669176-3.450666-3-4.83-2.467664-2.030263-5.150335-3.78406-8-5.23-1.48-.64-5.7-.65-5.7-.65s-1-22.5,9.08-23.29s14.5,11,14.5,11s1,4.19,5.91,7.85c3.7,2.75-12.79,15.15-12.79,15.15Z" fill="#e1b39d"/><path d="M764,122.34c0,0-1.14,1.06-1.64,4.13.016183,1.195074.177361,2.383767.48,3.54-2.615051,12.015141-4.501821,24.177296-5.65,36.42-2.31,28.18-3.55,38.59-3.55,38.59l6.71,9.61l10.36-10.35c0,0-2.78-10.86-6.15-37.36-1.375621-12.192562-1.015368-24.518592,1.07-36.61s2.43-2.93,4.28-5.08c-1.892427-1.114482-3.868336-2.080705-5.91-2.89Z" fill="#e8ac4c"/><path d="M776.9,106l3.81,3.74L769.87,127c0,0-3.59-.26-7.43-4.84c8.3-4.24,14.46-16.16,14.46-16.16Z" fill="#adcbd9"/><path d="M773.28,137.43c-5.38,20.48-5.34,27.63-6.15,33-1.72,12.79-19.24,57.49-19.24,57.49l8.9,3.1c0,0,18.15-33.34,25.25-44.85c1.31-3.71,12.39-20.3,16.44-43c5.05-28.37-17.77-34.03-25.2-5.74Z" fill="#fff"/><path d="M759.2,92c0,0,2-2.64,4.89,1.11s-2.93,8.3-2.93,8.3-3,9.31-7.18,10.28c-2.747105.588856-5.535245.966626-8.34,1.13-.44,0-1.16,0-1.29-.45s-1.13-12.59-1.13-12.59-1.76-.15-1.2-1.78c2.2-6.47,2.63-11.64,5.08-13.36c0,0,6-7.74,8.95-4.71s3.15,12.07,3.15,12.07Z" fill="#f0c0a7"/><path d="M755,94.48c-.67,1.32,2.76,3.43,3.82,1s3.18-2.54,4.72-1s.85,4.91,2.26,7.39c.93,1.63,4.29,1.71,6.34,1.39-.56-4.19,2.17-18.29-.4-20.35s-10.44-6.67-17.84-6.65-11.74,2.91-7.48,9c17.34-7.26,8.96,8.48,8.58,9.22Z" fill="#144665"/><path d="M326.23,232.53c0,0,9.16-32.79,9.4-33.85.345832-1.256678,1.583679-2.050281,2.87-1.84c1.85.13,32.83-.07,33.64.09.380473.066488.714246.292758.916886.62157s.254738.728673.143114,1.09843c-.24.78-9.86,34.42-9.86,34.42Z" fill="#003853"/><path d="M301.94,233l24.3-.49l37.1.54c0,0-.47,3.13-2.63,3.32-3.74.05-55.45,0-56.8,0-1.77.09-1.97-3.37-1.97-3.37Z" fill="#003853"/><polygon points="338.41,199.29 369.75,199.19 360.01,232.94 329.17,232.86 338.41,199.29" fill="#fff"/><path d="M349.48,218.83l4.35-10.41c3.74,1.64,5.42,6.85,3.76,12.3-1.81,6-6.91,9.93-11.39,8.88-3.2-.74-5.21-3.86-5.44-7.74Z" fill="#95dbe2"/><path d="M341.05,216.26v-.09c1.75-6,6.82-10,11.32-9c.371184.078821.73314.196121,1.08.35l-4.22,10.38Z" fill="#fcce5b"/><path d="M348.66,218.42v.07l-8.7,3.21c-.115059-1.624162.057592-3.255882.51-4.82Z" fill="#6ba1c4"/><path d="M318,228.16l3.13.29c0,0,15.25-8.88,19.9,5.05-.91.77-2.32.37-3.07-1-.71.48-2,.23-3.93-1.42s-4.19-1.22-5.84.74c-.66.78.62,1.22,3.76,1.5c3.43.3,3.87,1.58,3.85,2.7-1.11.65-7.38,0-9.91,0-1.564921.106437-3.091773-.513155-4.14-1.68l-6.4.07Z" fill="#f0c0a7"/><path d="M278.15,172.29c0,0,10.53,43.78,12.86,52.25c14.27,1.64,19.56,2.33,29.62,3.6-.820175,2.694655-1.198407,5.504382-1.12,8.32s-23.05,2.75-34-.37-28.32-50-28.32-50Z" fill="#fff"/><path d="M315.59,274.43c-.12-3.18-4.09-18.51-10.56-19.83-12-2.46-58.41-5.34-58.41-5.34s-27.49-2.83-36.14-3.83c-.77,3.4-1.18,22.82,3.15,29Z" fill="#003853"/><path d="M250.29,251.43c2.23-12.38,20.36-32.72,26.8-49.67c2.71-7.14,4.12-23.62,1.73-29.61-.15-.39,2.36-4.84,2.16-5.19-4.73-8.54-17.94-13.19-17.94-13.19l-4.07-.28.13,2.91c0,0-17.37,2.59-31.65,28.89-6.49,12-16,44.35-19.74,62-1.08,5.04,42.11,6.77,42.58,4.14Z" fill="#fff"/><path d="M292.55,154.26c-3-.24-13.94,6.81-17,13.13-7.9-4.19-13.17-11.69-14.69-12.08c2.651353-1.992058,4.767757-4.610078,6.16-7.62s14.98-33.92,25.53,6.57Z" fill="#e1b39d"/><path d="M226.76,233.71c8.13,8.78,30.13,1.54,30.13,1.54l13-16.56c0,0-11.25-4.63-9-13.32c7.72-29.63-11.84-23.94-18.87-14.71-17.51,22.99-16.6,33.95-15.26,43.05Z" fill="#adcbd9"/><path d="M275.62,168.92c0,0,2,.94,2.23,4.23.105832,1.16992-.134086,2.345171-.69,3.38c3.259876,9.469637,4.731527,19.462627,4.34,29.47-1,25.55-1.13,32.91-1.13,32.91s-5.71,7.36-6.06,7.79c-.210204.374844-.610423.602755-1.040056.592276s-.818264-.25763-1.009944-.642276l-4.93-9.31c0,0,3.32-7.56,7.2-32.32c2.68-17.09.14-27.93.14-27.93s-1.43-2-3.29-4.22c1.627519-1.066168,3.061388-2.401966,4.24-3.95Z" fill="#177e9d"/><path d="M277.07,167.72c-1.320933,2.730672-3.460136,4.981729-6.12,6.44-6.8-12.58-15.15-16.49-15.15-16.49s1.51-2.19,3.17-4.1c6.81,2.53,18.1,14.15,18.1,14.15Z" fill="#adcbd9"/><path d="M297.41,210.19c4.152626-2.356498,8.502351-4.347334,13-5.95.59,3.19-5.76,5.29-5.76,5.29s16.81,1.94,17.58,2.12.77,1.86.77,1.86c.331257.037539.638989.189637.87.43.191418.252134.264932.574514.201744.884707s-.25695.578128-.531744.735293c-1.37.8-9.2.65-9.2.65s5.45.6,6,.58.08,2.07-4.37,2.18c-1.7,0-13.61,1.8-16.28-2.22-1.332358-.173031-2.651878-.433594-3.95-.78Z" fill="#f0c0a7"/><path d="M298,209.87c0,0-40.94,3.86-44.12,4.18-1-2.45,9.87-21.37,9-37.58-.52-10-11.79-17.6-19.62-6.81-7.11,9.81-10.26,30.39-12.08,44.9-1,8-.54,14.67,13,15.18c18.87.72,54.16-10.86,54.16-10.86Z" fill="#fff"/><path d="M296,274.43c0-.73-1.15-9.71-5.81-11.64-11.55-4.78-39.33-13.25-39.33-13.25s-35.71-1.32-43.14-2.32c-.67,3.39-2.85,19,2.26,27.21Z" fill="#144665"/><path d="M292.09,158.33c-2.78-.66-4.53-2.12-7.35-2.85-4-1-3.72-5.88-3.72-5.88l-.33-3.77c0,0-3.81-2.05-4.78-3.73-.39-.68-2.34-3.9.95-4.65c4.86-1.11,2.54-13.1,2.54-13.1l6.61-.85l5.24,3.77l6,17.39c-.029912.301664-.180829.578319-.418278.76677s-.541146.272602-.841722.23323c-1.18,0-1,.22-1,.22s-.89,10.81-1,11.35c-.098141.402712-.356487.747877-.715204.955556s-.786689.259855-1.184796.144444Z" fill="#f0c0a7"/><path d="M269.6,125.87c5.58-8,17.77-2.88,21.44-7.45c1.763993.946911,2.909755,2.741875,3.026006,4.740574s-.813688,3.914393-2.456006,5.059426c-5.12-1.21-10,.72-9,4.31.07.66,1.84,5,.89,7.56-.35,1.31-.74,1.87-2.29,1-.66-1.68-2.21-4.49-5.56-3.21-2,.76-.12,9.68-8.78,10.19.18-2.57-4.07-19.07,2.73-22.2Z" fill="#144665"/><path d="M294.89,150.58c1.303266-1.305238,1.484391-3.356591.43-4.87-2.22.06-2.58,2.67-3.78,3.75-6.82-1.58-8.84-5.59-8.17-8.59c1.16-5.23-2.88-9.82-3-10.69-3.25,3.52.32,8.91.65,11.76.22,2-1.23,4.59-1.23,4.59-.842054,1.66072-1.082364,3.561993-.68,5.38c1.11,4.9,8,7.92,12.73,7.94s3.05-9.27,3.05-9.27Z" fill="#144665"/><g id="e6wdEQ275vI100_tr" transform="translate(205.883011,135.489998) rotate(-1.422263)"><g transform="translate(-205.883011,-135.489998)"><path d="M234.56,122.86l2.88-2.39c0,0,1.68-4.66,3.47-8.85c1.68-3.94,8.85-5.41,9.68-5.84c1.32,1.61-2.35,3.25-4.14,3.86c1.035188.920305,1.538651,2.299193,1.34,3.67-.36,1.29-2.78,2.53-3.34,1.12-.584836.37225-.863412,1.078784-.69,1.75.14.82.63.94,2.25-.18c3.14-2.18,3.94-1.66,4.7-1.09-.48.92-5.55,5.28-6.71,7.25-.532445,1.100114-1.741735,1.700647-2.94,1.46l-4.46,3.85Z" fill="#f0c0a7"/><path d="M235.5,122c-17.58,14.47-27.5,20-32.5,22.79s-3.64,16.08,7,11.64s28.69-28.37,28.69-28.37c-.45541-2.285814-1.563423-4.390692-3.19-6.06Z" fill="#003853"/><path d="M161.66,141.77c6.67-2.31,21.94,5.78,42.27,2.43c8.65-1.42,13.87,11.72,1.24,13.4s-27.47,3.38-34.56,7.6c-3.99-4.88-12.26-22.28-8.95-23.43Z" fill="#003853"/></g></g><path d="M145.37,221.6l33.39-.35c0,0-3-30.3.61-35.51s4-6.57,3.81-11.25c-1.93-4-14.41-20.32-20.27-30.48s-15.1-6.79-15.1-6.79Z" fill="#fff"/><path d="M131.78,276.67c1.92-12.72-4.56-30.17-1.76-37.74.56-2.17,25.82-16.14,35.2-9.21c4.26,3.15-2.81,30.23-2.81,30.23s-1.55,5.76-3.81,14.48Z" fill="#003853"/><path d="M145.55,266.71c-6.08-12.17-9.76-17.3-8.79-26.78.849222-8.799785,4.089498-17.199605,9.37-24.29s17.24,4.2,31.42,5.34c-.11,13-4.11,33.56-4.11,33.56s-14.93,11.08-27.89,12.17Z" fill="#144665"/><path d="M173.09,130.46c-6,2-9.68,14.82-9.71,17.24-2,4.29-14.56-10.61-14.56-10.61s3.37-3.29,3.76-7.28-1.72-19.55-1.72-19.55s27.69,18.42,22.23,20.2Z" fill="#e1b39d"/><path d="M145.23,107.69c0,0-9.8-4-11,6.17s5.22,26.07,4.63,29.09-3.78,5.49,4.09,2.6-1.25-23.32-.26-26.9c.48541-2.001886,1.500968-3.836108,2.94-5.31Z" fill="#003853"/><path d="M159.18,116.23c0,0-4.11-3.62-5.83,1.28s6.42,6,6.42,6s5.39,6.91,10.1,7.21c2.290019.028711,4.579939-.064755,6.86-.28.522494.001674.958203-.399178,1-.92c0-.47-.28-11.46-.28-11.46s2.76-1,1.21-2.12c-8-5.68-4-13.8-12.22-15.35Z" fill="#f0c0a7"/><path d="M169.92,97.06c0,0,17.21,4.58,1.55,17.34s-1.55-17.34-1.55-17.34Z" fill="#003853"/><path d="M166.91,117.17c0,0-3,1.8-5.65.41-1.7-.9-3.34-1.62-4.66.46s.54,6.34-.42,9.39c-.465831,1.54139-1.748527,2.696972-3.33,3-1.119529-.667491-2.310282-1.207522-3.55-1.61-2.42-.86-9.59-18.27-7.25-21.13s12.42-11.15,20.54-12.88s9.61,4.36,6.39,12-2.07,10.36-2.07,10.36Z" fill="#003853"/><path d="M194.2,235.79c-.787188,1.271707-2.453433,1.669283-3.73.89l-21.31-13.06c-.613968-.372786-1.05409-.974847-1.222994-1.672985s-.052668-1.434803.322994-2.047015l18.41-30.05c.376323-.612973.980892-1.051196,1.680526-1.218133s1.436932-.048891,2.049474.328133l21.31,13c.615069.374471,1.055068.979123,1.222196,1.679557s.047534,1.438607-.332196,2.050443Z" fill="#305d81"/><path d="M146.18,276.43l-4.61-9.95c0,0-9.59-17.25-4-31.61c2.25-5.74,26.48-9.26,34.49-7.64c4.21,14.51,6.78,34.65,7,37.3.27,3.72.46,6.94.59,9.9Z" fill="#144665"/><path d="M132.09,247.38c0,0,12.87,4.46,18.35,4.11c4.46-4.8,5.15-23.32,5.15-23.32Z" fill="#003853"/><path d="M124.3,158c.361552-1.272415,1.019535-2.44102,1.92-3.41c1.25-1.08,21.59-17.37,21.59-17.37s16.37,22.27,18.45,50.5c.44,10.15-3.5,24-18.73,59-6.75,1.26-11.58,1.74-21.49-.1.69-22.87,15.33-32.7,13.2-55.61C137.87,176.15,124.3,158,124.3,158Z" fill="#144665"/><path d="M148.73,135.35l-7,5.42c0,0,14.34,20.09,17.95,19.06-1.86-5.32-10.95-24.48-10.95-24.48Z" fill="#305d81"/><path d="M160.3,215.4l2.88-7.69c0,0-27,6.09-25.14,7.79c4.71,4.39,22.26-.1,22.26-.1Z" fill="#003853"/><path d="M179.18,202.09h-.82c0,0,2.55,2.37,12,4.81c1.66.42.17,2.3.17,2.3s1.88,1.29.27,1.64c-1.772229.126666-3.553384.025846-5.3-.3s3.52.82,3.62,1.38c.05.28-.16,1-1.76,1-2.502863.02182-5.002708-.178971-7.47-.6-1.69-.48-7.33.09-8.69-4.73-.52-.08-4-.19-4-.19l.41-6.46c0,0,6.56-1.36,13.45-2Z" fill="#f0c0a7"/><path d="M169.61,200.22l-44.55,2.71c0,0,7.85-17.71,12-27.27s-12.76-17.66-12.76-17.66-15.94,43.51-16.23,51.84s15.72,9.49,32.26,5s28.59-6.56,28.59-6.56Z" fill="#144665"/><path d="M459.34,274.42h-9.24v-25.9c0-1.35,0-3-3.57-3h-153.73c-3.57,0-3.57,1.68-3.57,3v25.9h-9.23v-25.9c0-7.46,5-12.28,12.82-12.28h153.71c7.78,0,12.81,4.82,12.81,12.28v25.9Z" fill="#0a86b7"/><path d="M689,228.47c8.31.49,9.76,3.71,9.76,3.71s-9,13.34-16.72,13.08c-3-4.19-5.33-8.3-5.33-8.3s3.95-8.96,12.29-8.49Z" fill="#003853"/><g id="e6wdEQ275vI122_tr" transform="translate(630.649231,197.508324) rotate(0)"><g transform="translate(-630.649231,-197.508324)"><path d="M596.05,221.91c-.898525-.130671-1.815604-.023794-2.66.31-.44.22-3.51,1.79-3.83,2.1s-1.57.9-1.24,1.43c.466521.621453,1.319285.804797,2,.43c1.165758-.532217,2.291964-1.147119,3.37-1.84l1,.12c-.567354.304361-1.10619.659123-1.61,1.06-.26.3-3.69,4.65-3.63,5s.92,1,1.5.64c-.26.93,1.17.89,2,.55s4.65-2.6,4.65-2.6-2.78,3.28-2.82,3.52.66.66,1.19.48c1.9-.63,4.08-3.72,4.08-3.72c1.113442-.172781,2.234852-.289595,3.36-.35c2.84,1,5.59.41,6.91-.9c2.06-.48,28.83-1.55,28.83-1.55s7.36-11,6.89-12c-14.68,2.9-37.26,9.05-37.26,9.05s-11.92-1.64-12.73-1.73Z" fill="#f0c0a7"/><path d="M650.4,176.74c-6.16,10.64-8.37,36.37-11.89,38.41c0,0-13.27,4.06-13.27,4.06l2.13,8c0,0,16.77.25,22.64-2.62c3.81-2.16,8.6-18,16.86-34.19c15.78-30.96-2.05-38.58-16.47-13.66Z" fill="#144665"/></g></g><path d="M691.71,274.43c11.13-13.52,6-26.19,6-26.19l-40.05.79c0,0-41.91,10.28-47.41,11.86s-6.45,5.88-5.64,13.54Z" fill="#144665"/><path d="M626.39,274.43c-.418752-1.981345-1.000738-3.924642-1.74-5.81-1.73-4.76-17.95-10.83-21.37-.23-.59,1.81.15,5.09.28,6Z" fill="#f0c0a7"/><path d="M692.28,248.71c0,0-8.44,3.37-16.91,2.68-8.9-.73-8.68-1.87-17.72-2.33c0,0,.35-36.37-4.43-40.34-3.84-3.19-5.79-3.59-6.1-9.24.31-3.66,9.78-21.31,13.53-32.15s13.23-9.33,13.23-9.33Z" fill="#fff"/><path d="M652.73,119.34c0,0-17.39,4.26-1.1,17.63s1.1-17.63,1.1-17.63Z" fill="#003853"/><path d="M676.05,125.34c0,0,4.76,2.4,5.94,13.07s2.36,25.78,3,28.93.72.42-6.62-4.32c-3.32-2.14-8.93-3.21-10.26-6.28-.915465-2.106656-1.233744-4.424557-.92-6.7Z" fill="#003853"/><path d="M648.85,145.81c0,0,11.36,24,11.86,26.47c2.86,4,13.17-14.27,13.17-14.27-2.132206-1.367494-3.714758-3.44216-4.47-5.86-1.16-4-2.84-20.88-2.84-20.88Z" fill="#e1b39d"/><path d="M663.07,135.26c0,0,2.74-.92,4.51,4.2s-4.06,5.63-4.06,5.63c-1.551117,3.814373-4.487591,6.900885-8.22,8.64-.826651.396808-1.717089.643964-2.63.73-2.393892.015606-4.787016-.091201-7.17-.32-.552285,0-1-.447715-1-1c0-.5.32-12,.32-12s-2.87-1.07-1.25-2.21c8.41-5.9,4.2-14.39,12.81-16Z" fill="#f0c0a7"/><path d="M655.78,139.41c0,0,3.51,1.79,5.66-.29s4.38-1.25,5.14,1.2-.84,8.69.47,14.15s8.71,7.1,8.71,7.1-3.71-7.66-1.19-8.54s6.11-22.6,3.68-25.59-9.25-9.44-17.73-11.28-10.35,5.46-6.84,13.4c2.87,6.51,2.1,9.85,2.1,9.85Z" fill="#003853"/><path d="M699,174c-8.19-5.17-24.43-14.6-24.43-14.6s-12.23,23-9,50.53c1.46,9.82,1.47,13.62,22.58,44.4c6.72,0,12-2.75,16.47-6-4.1-18.51-12.82-22.38-14.43-36.9s16.96-32.25,8.81-37.43Z" fill="#144665"/><path d="M672.87,158.52l6.6,3.49c0,0-8.76,20.06-12.41,19.74.81-5.45,5.81-23.23,5.81-23.23Z" fill="#305d81"/><path d="M692.38,223.29c0,0-19.1,4.57-20.17,4.58-2.42-1.89-6.41-3.34-11.71-5.6-.82,3.27,3.69,4.12,4,5.69-4.4,1.13-14.07.48-14.89.62s-1.23,2-1.23,2-2.6,1.11-1.22,2s9.73.84,9.73.84-6.57.45-6.62,1c-.13,1.58,2.87,1.89,7.62,2c1.77,0,11.94.54,12.92-2c.52.11,27-3.35,27-3.35Z" fill="#f0c0a7"/><path d="M686,224.48l18.72-4.92c0,0-8.63-17.32-14.36-25.74s5.94-26.43,10.64-17.5s18.46,37.37,20.28,45.31-7.07,8.54-23.68,10.74c-5.14.68-9.44.82-9.44.82Z" fill="#144665"/><path d="M764.13,274.42h-9.25v-25.9c0-1.36,0-3-3.57-3h-191.58c-3.57,0-3.57,1.68-3.57,3v25.9h-9.25v-25.9c0-7.47,5-12.29,12.82-12.29h191.58c7.79,0,12.82,4.82,12.82,12.29v25.9Z" fill="#0a86b7"/></g><clipPath id="e6wdEQ275vI138"><path d="M252.25,10.75c-19.11,9.25-37.56,22.37-58.6,25.07-28.12,3.61-55.3-7.61-80.6-17.43C73.48,3,-3.74,-11.58,0.14,55.11c1.52,26,14.53,42.41,32.43,59.61C49.76,131.23,57.7,147.66,51,171.18c-5.44,19-18.31,34.43-26.33,52.25C16,242.57,14.18,273,35.94,283.93c27.56,13.82,63.45,2.14,90.12-8.45c30.8-12.22,60.6-30,94.41-32c33.39-2,58.57,22,92.74,15c14.17-2.93,27.27-9.59,41.17-13.6c37.08-10.7,76.86-1.89,113.64,9.8c39.37,12.5,77.1,32.05,119.74,24.14c21.57-4,41.42-14.05,63.06-18.53c25.52-5.28,52-1.9,77.33,2.36l92.22,15.5c24.47,4.1,53.27,14.4,65-16.91c8.82-23.48,2.9-48.73-2.72-71.67-8.1-33.05-10.88-61.57,21.59-82.12c4-2.54,8.28-4.66,12-7.57c3.499259-2.80407,6.583282-6.090103,9.16-9.76c26.75-36.92,9.9-90.37-40.09-88.39C854.07,3,821.37,17.5,790.66,23.38c-18.14,3.47-34.71,10.85-52.23,1.68-6.74-3.53-12.37-9.11-19.52-11.71-11.83-4.3-25.12.33-37.3,4.65-28.83,9.61-57.74,17.68-87,25.83-26.11,7.26-54.35-10.3-79.21-19.49-5.44-2-11-4-16.73-4.6-7.15-.7-14.3.87-21.24,2.68-26,6.78-49.62,14.25-76.67,9.16-26.73-5-53.2-12.26-79.11-20.5s-43.78-12.63-68.92-.56Z" clip-rule="evenodd" fill="none"/></clipPath></g></g></g></g></svg>
