<?xml version="1.0" encoding="UTF-8"?>
<!DOCTYPE svg PUBLIC "-//W3C//DTD SVG 1.1//EN" "http://www.w3.org/Graphics/SVG/1.1/DTD/svg11.dtd">
<!-- Creator: CorelDRAW 2019 (64-Bit) -->
<svg xmlns="http://www.w3.org/2000/svg" xml:space="preserve" width="9.5746mm" height="6.8889mm" version="1.1" style="shape-rendering:geometricPrecision; text-rendering:geometricPrecision; image-rendering:optimizeQuality; fill-rule:evenodd; clip-rule:evenodd"
viewBox="0 0 5.75 4.14"
 xmlns:xlink="http://www.w3.org/1999/xlink"
 xmlns:xodm="http://www.corel.com/coreldraw/odm/2003">
 <defs>
  <style type="text/css">
   <![CDATA[
    .fil1 {fill:url(#id0)}
    .fil0 {fill:url(#id1);fill-rule:nonzero}
   ]]>
  </style>
  <linearGradient id="id0" gradientUnits="userSpaceOnUse" x1="0.98" y1="3.49" x2="4.79" y2="3.79">
   <stop offset="0" style="stop-opacity:1; stop-color:#166792"/>
   <stop offset="1" style="stop-opacity:1; stop-color:#23AFE4"/>
  </linearGradient>
  <linearGradient id="id1" gradientUnits="userSpaceOnUse" xlink:href="#id0" x1="-0.34" y1="1.3" x2="6.09" y2="1.7">
  </linearGradient>
 </defs>
 <g id="Слой_x0020_1">
  <metadata id="CorelCorpID_0Corel-Layer"/>
  <g id="_1797433698768">
   <path class="fil0" d="M0.86 1.14l-0.22 -0.02 0 -0.88 -0.42 -0.04 0 0.88 -0.22 -0.02 0 -1.05 0.86 0.08 0 1.05zm0.54 0.07c-0.11,-0.01 -0.21,-0.06 -0.28,-0.13 -0.07,-0.08 -0.11,-0.17 -0.11,-0.29l0 -0.02c0,-0.08 0.02,-0.15 0.05,-0.21 0.03,-0.06 0.07,-0.1 0.13,-0.13 0.06,-0.03 0.12,-0.04 0.19,-0.03 0.11,0.01 0.19,0.05 0.25,0.13 0.06,0.07 0.09,0.17 0.09,0.3l0 0.09 -0.5 -0.05c0.01,0.05 0.03,0.09 0.06,0.13 0.03,0.03 0.08,0.05 0.13,0.06 0.08,0.01 0.14,-0.02 0.19,-0.07l0.1 0.13c-0.03,0.04 -0.07,0.07 -0.13,0.09 -0.05,0.02 -0.11,0.03 -0.18,0.02zm-0.02 -0.65c-0.04,-0 -0.08,0.01 -0.1,0.03 -0.03,0.03 -0.04,0.06 -0.05,0.12l0.29 0.03 0 -0.02c-0,-0.05 -0.01,-0.08 -0.04,-0.11 -0.02,-0.03 -0.06,-0.04 -0.1,-0.05zm1.17 0.36c0,0.12 -0.03,0.21 -0.08,0.28 -0.05,0.07 -0.13,0.1 -0.22,0.09 -0.08,-0.01 -0.14,-0.04 -0.19,-0.1l0 0.37 -0.21 -0.02 0 -1.08 0.19 0.02 0.01 0.08c0.05,-0.06 0.12,-0.08 0.2,-0.07 0.1,0.01 0.17,0.05 0.23,0.13 0.05,0.08 0.08,0.18 0.08,0.3l0 0.01zm-0.21 -0.04c0,-0.07 -0.01,-0.13 -0.04,-0.17 -0.03,-0.04 -0.06,-0.07 -0.11,-0.07 -0.07,-0.01 -0.11,0.01 -0.14,0.06l0 0.32c0.03,0.05 0.07,0.08 0.14,0.09 0.1,0.01 0.15,-0.07 0.15,-0.23zm0.7 0.48c-0.11,-0.01 -0.21,-0.06 -0.28,-0.13 -0.07,-0.08 -0.11,-0.17 -0.11,-0.29l0 -0.02c0,-0.08 0.02,-0.15 0.05,-0.21 0.03,-0.06 0.07,-0.1 0.13,-0.13 0.06,-0.03 0.12,-0.04 0.19,-0.03 0.11,0.01 0.19,0.05 0.25,0.13 0.06,0.07 0.09,0.17 0.09,0.3l0 0.09 -0.5 -0.05c0.01,0.05 0.03,0.09 0.06,0.13 0.03,0.03 0.08,0.05 0.13,0.06 0.08,0.01 0.14,-0.02 0.19,-0.07l0.1 0.13c-0.03,0.04 -0.07,0.07 -0.13,0.09 -0.05,0.02 -0.11,0.03 -0.18,0.02zm-0.02 -0.65c-0.04,-0 -0.08,0.01 -0.1,0.03 -0.03,0.03 -0.04,0.06 -0.05,0.12l0.29 0.03 0 -0.02c-0,-0.05 -0.01,-0.08 -0.04,-0.11 -0.02,-0.03 -0.06,-0.04 -0.1,-0.05zm0.94 -0.06l0.21 0.02 0 0.78 -0.21 -0.02 0 -0.48 -0.26 0.46 -0.21 -0.02 0 -0.78 0.21 0.02 0 0.48 0.26 -0.46zm0.12 -0.31c0,0.06 -0.02,0.11 -0.07,0.15 -0.05,0.03 -0.11,0.05 -0.18,0.04 -0.07,-0.01 -0.14,-0.03 -0.18,-0.08 -0.05,-0.04 -0.07,-0.1 -0.07,-0.16l0.15 0.01c0,0.03 0.01,0.05 0.03,0.07 0.02,0.02 0.04,0.03 0.07,0.03 0.03,0 0.06,-0 0.07,-0.02 0.02,-0.01 0.03,-0.04 0.03,-0.07l0.15 0.01zm0.9 0.57l-0.25 -0.02 0 0.61 -0.21 -0.02 0 -0.61 -0.25 -0.02 0 -0.17 0.71 0.07 0 0.17zm0.58 -0.11l0.21 0.02 0 0.78 -0.21 -0.02 0 -0.48 -0.26 0.46 -0.21 -0.02 0 -0.78 0.21 0.02 0 0.48 0.26 -0.46zm-4.5 1.68l-0.21 -0.02 0 -0.3 -0.26 -0.03 0 0.3 -0.21 -0.02 0 -0.78 0.21 0.02 0 0.31 0.26 0.03 0 -0.31 0.21 0.02 0 0.78zm0.62 0.06c-0.01,-0.02 -0.02,-0.04 -0.02,-0.07 -0.05,0.05 -0.12,0.07 -0.2,0.07 -0.08,-0.01 -0.14,-0.04 -0.19,-0.09 -0.05,-0.05 -0.08,-0.11 -0.08,-0.18 0,-0.08 0.03,-0.14 0.09,-0.18 0.06,-0.04 0.15,-0.05 0.27,-0.04l0.1 0.01 0 -0.04c0,-0.04 -0.01,-0.07 -0.03,-0.09 -0.02,-0.02 -0.05,-0.04 -0.09,-0.04 -0.04,-0 -0.06,0 -0.08,0.02 -0.02,0.01 -0.03,0.04 -0.03,0.07l-0.21 -0.02c0,-0.05 0.01,-0.09 0.04,-0.12 0.03,-0.04 0.07,-0.06 0.12,-0.08 0.05,-0.02 0.11,-0.02 0.17,-0.02 0.1,0.01 0.17,0.04 0.23,0.1 0.06,0.05 0.09,0.12 0.09,0.21l0 0.34c0,0.07 0.01,0.13 0.03,0.17l0 0.01 -0.21 -0.02zm-0.17 -0.16c0.03,0 0.06,-0 0.09,-0.01 0.03,-0.01 0.05,-0.03 0.06,-0.05l0 -0.13 -0.08 -0.01c-0.1,-0.01 -0.16,0.02 -0.17,0.09l-0 0.01c0,0.03 0.01,0.05 0.03,0.07 0.02,0.02 0.04,0.03 0.08,0.03zm1.21 0.11c0.04,0 0.07,-0 0.09,-0.02 0.02,-0.02 0.04,-0.05 0.04,-0.08l0.2 0.02c-0,0.05 -0.01,0.1 -0.04,0.14 -0.03,0.04 -0.07,0.07 -0.12,0.09 -0.05,0.02 -0.1,0.03 -0.16,0.02 -0.11,-0.01 -0.2,-0.06 -0.27,-0.13 -0.06,-0.08 -0.1,-0.18 -0.1,-0.3l0 -0.01c0,-0.12 0.03,-0.21 0.1,-0.28 0.06,-0.07 0.15,-0.09 0.26,-0.08 0.1,0.01 0.18,0.05 0.24,0.11 0.06,0.06 0.09,0.14 0.09,0.23l-0.2 -0.02c-0,-0.04 -0.01,-0.07 -0.04,-0.1 -0.02,-0.03 -0.06,-0.04 -0.1,-0.05 -0.05,-0 -0.09,0.01 -0.11,0.04 -0.02,0.03 -0.04,0.09 -0.04,0.17l0 0.02c0,0.08 0.01,0.14 0.04,0.18 0.02,0.04 0.06,0.06 0.11,0.06zm0.9 0.24c-0.01,-0.02 -0.02,-0.04 -0.02,-0.07 -0.05,0.05 -0.12,0.07 -0.2,0.07 -0.08,-0.01 -0.14,-0.04 -0.19,-0.09 -0.05,-0.05 -0.08,-0.11 -0.08,-0.18 0,-0.08 0.03,-0.14 0.09,-0.18 0.06,-0.04 0.15,-0.05 0.27,-0.04l0.1 0.01 0 -0.04c0,-0.04 -0.01,-0.07 -0.03,-0.09 -0.02,-0.02 -0.05,-0.04 -0.09,-0.04 -0.04,-0 -0.06,0 -0.08,0.02 -0.02,0.01 -0.03,0.04 -0.03,0.07l-0.21 -0.02c0,-0.05 0.01,-0.09 0.04,-0.12 0.03,-0.04 0.07,-0.06 0.12,-0.08 0.05,-0.02 0.11,-0.02 0.17,-0.02 0.1,0.01 0.17,0.04 0.23,0.1 0.06,0.05 0.09,0.12 0.09,0.21l0 0.34c0,0.07 0.01,0.13 0.03,0.17l0 0.01 -0.21 -0.02zm-0.17 -0.16c0.03,0 0.06,-0 0.09,-0.01 0.03,-0.01 0.05,-0.03 0.06,-0.05l0 -0.13 -0.08 -0.01c-0.1,-0.01 -0.16,0.02 -0.17,0.09l-0 0.01c0,0.03 0.01,0.05 0.03,0.07 0.02,0.02 0.04,0.03 0.08,0.03zm0.99 -0.54l0.21 0.02 0 0.78 -0.21 -0.02 0 -0.48 -0.26 0.46 -0.21 -0.02 0 -0.78 0.21 0.02 0 0.48 0.26 -0.46zm0.12 -0.31c0,0.06 -0.02,0.11 -0.07,0.15 -0.05,0.03 -0.11,0.05 -0.18,0.04 -0.07,-0.01 -0.14,-0.03 -0.18,-0.08 -0.05,-0.04 -0.07,-0.1 -0.07,-0.16l0.15 0.01c0,0.03 0.01,0.05 0.03,0.07 0.02,0.02 0.04,0.03 0.07,0.03 0.03,0 0.06,-0 0.07,-0.02 0.02,-0.01 0.03,-0.04 0.03,-0.07l0.15 0.01zm0.9 0.57l-0.25 -0.02 0 0.61 -0.21 -0.02 0 -0.61 -0.25 -0.02 0 -0.17 0.71 0.07 0 0.17z"/>
   <polygon class="fil1" points="3.73,3.59 1.19,3.34 1.19,3.58 3.73,3.83 3.73,4.14 4.59,3.79 3.73,3.28 "/>
  </g>
 </g>
</svg>
