<?xml version="1.0" encoding="UTF-8"?>
<!DOCTYPE svg PUBLIC "-//W3C//DTD SVG 1.1//EN" "http://www.w3.org/Graphics/SVG/1.1/DTD/svg11.dtd">
<!-- Creator: CorelDRAW 2019 (64-Bit) -->
<svg xmlns="http://www.w3.org/2000/svg" xml:space="preserve" width="8.5359mm" height="6.4628mm" version="1.1" style="shape-rendering:geometricPrecision; text-rendering:geometricPrecision; image-rendering:optimizeQuality; fill-rule:evenodd; clip-rule:evenodd"
viewBox="0 0 4.56 3.45"
 xmlns:xlink="http://www.w3.org/1999/xlink"
 xmlns:xodm="http://www.corel.com/coreldraw/odm/2003">
 <defs>
  <style type="text/css">
   <![CDATA[
    .fil1 {fill:url(#id0)}
    .fil0 {fill:url(#id1);fill-rule:nonzero}
   ]]>
  </style>
  <linearGradient id="id0" gradientUnits="userSpaceOnUse" x1="0.61" y1="3.01" x2="4" y2="3.1">
   <stop offset="0" style="stop-opacity:1; stop-color:#166792"/>
   <stop offset="1" style="stop-opacity:1; stop-color:#23AFE4"/>
  </linearGradient>
  <linearGradient id="id1" gradientUnits="userSpaceOnUse" xlink:href="#id0" x1="-0.27" y1="1.13" x2="4.84" y2="1.17">
  </linearGradient>
 </defs>
 <g id="Слой_x0020_1">
  <metadata id="CorelCorpID_0Corel-Layer"/>
  <path class="fil0" d="M1.38 0.73l0.21 -0.7 0.22 0.01 -0.33 0.92 -0.2 -0.01 -0.33 -0.95 0.21 0.01 0.21 0.72zm0.7 0.27l-0.19 -0.01 0 -0.7 0.19 0.01 0 0.7zm-0.2 -0.89c0,-0.03 0.01,-0.05 0.03,-0.07 0.02,-0.02 0.04,-0.03 0.08,-0.02 0.03,0 0.06,0.01 0.08,0.03 0.02,0.02 0.03,0.04 0.03,0.07 0,0.03 -0.01,0.05 -0.03,0.07 -0.02,0.02 -0.04,0.02 -0.08,0.02 -0.03,-0 -0.06,-0.01 -0.08,-0.03 -0.02,-0.02 -0.03,-0.04 -0.03,-0.07zm0.73 0.72c0,-0.02 -0.01,-0.04 -0.03,-0.06 -0.02,-0.01 -0.06,-0.03 -0.11,-0.04 -0.17,-0.04 -0.25,-0.12 -0.25,-0.22 0,-0.06 0.03,-0.11 0.08,-0.15 0.05,-0.04 0.12,-0.06 0.2,-0.05 0.09,0 0.16,0.03 0.21,0.07 0.05,0.04 0.08,0.1 0.08,0.17l-0.19 -0.01c0,-0.03 -0.01,-0.05 -0.03,-0.07 -0.02,-0.02 -0.04,-0.03 -0.08,-0.03 -0.03,-0 -0.06,0 -0.07,0.02 -0.02,0.01 -0.03,0.03 -0.03,0.05 0,0.02 0.01,0.04 0.03,0.05 0.02,0.01 0.05,0.03 0.1,0.04 0.05,0.01 0.09,0.02 0.12,0.04 0.1,0.04 0.15,0.11 0.15,0.19 0,0.06 -0.03,0.11 -0.08,0.15 -0.05,0.04 -0.13,0.05 -0.21,0.05 -0.06,-0 -0.11,-0.02 -0.16,-0.04 -0.05,-0.02 -0.08,-0.05 -0.11,-0.09 -0.03,-0.04 -0.04,-0.08 -0.04,-0.12l0.18 0.01c0,0.03 0.01,0.06 0.04,0.08 0.02,0.02 0.05,0.03 0.09,0.03 0.04,0 0.06,-0 0.08,-0.02 0.02,-0.01 0.03,-0.03 0.03,-0.05zm0.5 0.22l-0.19 -0.01 0 -0.7 0.19 0.01 0 0.7zm-0.2 -0.89c0,-0.03 0.01,-0.05 0.03,-0.07 0.02,-0.02 0.04,-0.03 0.08,-0.02 0.03,0 0.06,0.01 0.08,0.03 0.02,0.02 0.03,0.04 0.03,0.07 0,0.03 -0.01,0.05 -0.03,0.07 -0.02,0.02 -0.04,0.02 -0.08,0.02 -0.03,-0 -0.06,-0.01 -0.08,-0.03 -0.02,-0.02 -0.03,-0.04 -0.03,-0.07zm0.57 0.03l0 0.17 0.12 0.01 0 0.14 -0.12 -0.01 0 0.35c0,0.03 0.01,0.04 0.01,0.06 0.01,0.01 0.03,0.02 0.06,0.02 0.02,0 0.04,0 0.05,-0l0 0.14c-0.04,0.01 -0.07,0.01 -0.11,0.01 -0.13,-0.01 -0.2,-0.07 -0.2,-0.21l0 -0.38 -0.1 -0 0 -0.14 0.1 0 0 -0.17 0.19 0.01zm-2.82 1.67l0.09 -0.44 0.18 0.01 -0.18 0.69 -0.16 -0.01 -0.13 -0.44 -0.13 0.43 -0.16 -0.01 -0.18 -0.71 0.18 0.01 0.09 0.45 0.13 -0.44 0.13 0.01 0.13 0.45zm0.68 0.3c-0.1,-0 -0.19,-0.04 -0.25,-0.11 -0.06,-0.07 -0.1,-0.15 -0.1,-0.26l0 -0.02c0,-0.07 0.01,-0.13 0.04,-0.19 0.03,-0.05 0.07,-0.09 0.12,-0.12 0.05,-0.03 0.11,-0.04 0.17,-0.04 0.1,0 0.17,0.04 0.23,0.1 0.05,0.06 0.08,0.15 0.08,0.26l0 0.08 -0.44 -0.02c0.01,0.05 0.02,0.08 0.05,0.11 0.03,0.03 0.07,0.04 0.12,0.05 0.07,0 0.13,-0.02 0.17,-0.07l0.09 0.11c-0.03,0.04 -0.07,0.07 -0.11,0.09 -0.05,0.02 -0.1,0.03 -0.16,0.03zm-0.02 -0.57c-0.04,-0 -0.07,0.01 -0.09,0.03 -0.02,0.02 -0.04,0.06 -0.04,0.11l0.26 0.01 0 -0.01c-0,-0.04 -0.01,-0.07 -0.03,-0.1 -0.02,-0.02 -0.05,-0.04 -0.09,-0.04zm1.04 0.27c0,0.11 -0.02,0.2 -0.07,0.26 -0.05,0.06 -0.11,0.09 -0.2,0.08 -0.08,-0 -0.14,-0.04 -0.18,-0.1l-0.01 0.07 -0.17 -0.01 0 -0.99 0.19 0.01 0 0.36c0.04,-0.05 0.1,-0.07 0.17,-0.07 0.08,0 0.15,0.04 0.2,0.1 0.05,0.06 0.07,0.15 0.07,0.27l0 0.01zm-0.19 -0.02c0,-0.07 -0.01,-0.12 -0.03,-0.16 -0.02,-0.03 -0.06,-0.05 -0.1,-0.05 -0.06,-0 -0.1,0.02 -0.12,0.07l0 0.28c0.02,0.05 0.06,0.08 0.12,0.08 0.06,0 0.1,-0.03 0.12,-0.08 0.01,-0.03 0.01,-0.07 0.01,-0.13zm0.68 0.2c0,-0.02 -0.01,-0.04 -0.03,-0.06 -0.02,-0.01 -0.06,-0.03 -0.11,-0.04 -0.17,-0.04 -0.25,-0.12 -0.25,-0.22 0,-0.06 0.03,-0.11 0.08,-0.15 0.05,-0.04 0.12,-0.06 0.2,-0.05 0.09,0 0.16,0.03 0.21,0.07 0.05,0.04 0.08,0.1 0.08,0.17l-0.19 -0.01c0,-0.03 -0.01,-0.05 -0.03,-0.07 -0.02,-0.02 -0.04,-0.03 -0.08,-0.03 -0.03,-0 -0.06,0 -0.07,0.02 -0.02,0.01 -0.03,0.03 -0.03,0.05 0,0.02 0.01,0.04 0.03,0.05 0.02,0.01 0.05,0.03 0.1,0.04 0.05,0.01 0.09,0.02 0.12,0.04 0.1,0.04 0.15,0.11 0.15,0.19 0,0.06 -0.03,0.11 -0.08,0.15 -0.05,0.04 -0.13,0.05 -0.21,0.05 -0.06,-0 -0.11,-0.02 -0.16,-0.04 -0.05,-0.02 -0.08,-0.05 -0.11,-0.09 -0.03,-0.04 -0.04,-0.08 -0.04,-0.12l0.18 0.01c0,0.03 0.01,0.06 0.04,0.08 0.02,0.02 0.05,0.03 0.09,0.03 0.04,0 0.06,-0 0.08,-0.02 0.02,-0.01 0.03,-0.03 0.03,-0.05zm0.5 0.22l-0.19 -0.01 0 -0.7 0.19 0.01 0 0.7zm-0.2 -0.89c0,-0.03 0.01,-0.05 0.03,-0.07 0.02,-0.02 0.04,-0.02 0.08,-0.02 0.03,0 0.06,0.01 0.08,0.03 0.02,0.02 0.03,0.04 0.03,0.07 0,0.03 -0.01,0.05 -0.03,0.07 -0.02,0.02 -0.04,0.03 -0.08,0.02 -0.03,-0 -0.06,-0.01 -0.08,-0.03 -0.02,-0.02 -0.03,-0.04 -0.03,-0.07zm0.57 0.03l0 0.17 0.12 0.01 0 0.14 -0.12 -0.01 0 0.35c0,0.03 0.01,0.04 0.01,0.06 0.01,0.01 0.03,0.02 0.06,0.02 0.02,0 0.04,0 0.05,-0l0 0.14c-0.04,0.01 -0.07,0.01 -0.11,0.01 -0.13,-0.01 -0.2,-0.07 -0.2,-0.21l0 -0.38 -0.1 -0 0 -0.14 0.1 0 0 -0.17 0.19 0.01zm0.54 0.91c-0.1,-0 -0.19,-0.04 -0.25,-0.11 -0.06,-0.07 -0.1,-0.15 -0.1,-0.26l0 -0.02c0,-0.07 0.01,-0.13 0.04,-0.19 0.03,-0.05 0.07,-0.09 0.12,-0.12 0.05,-0.03 0.11,-0.04 0.17,-0.04 0.1,0 0.17,0.04 0.23,0.1 0.05,0.06 0.08,0.15 0.08,0.26l0 0.08 -0.44 -0.02c0.01,0.05 0.02,0.08 0.05,0.11 0.03,0.03 0.07,0.04 0.12,0.05 0.07,0 0.13,-0.02 0.17,-0.07l0.09 0.11c-0.03,0.04 -0.07,0.07 -0.11,0.09 -0.05,0.02 -0.1,0.03 -0.16,0.03zm-0.02 -0.57c-0.04,-0 -0.07,0.01 -0.09,0.03 -0.02,0.02 -0.04,0.06 -0.04,0.11l0.26 0.01 0 -0.01c-0,-0.04 -0.01,-0.07 -0.03,-0.1 -0.02,-0.02 -0.05,-0.04 -0.09,-0.04z"/>
  <polygon class="fil1" points="3.06,2.97 0.79,2.86 0.79,3.08 3.06,3.18 3.06,3.45 3.82,3.11 3.06,2.69 "/>
 </g>
</svg>
