<?xml version="1.0" encoding="UTF-8"?>
<!DOCTYPE svg PUBLIC "-//W3C//DTD SVG 1.1//EN" "http://www.w3.org/Graphics/SVG/1.1/DTD/svg11.dtd">
<!-- Creator: CorelDRAW 2020 (64-Bit) -->
<svg xmlns="http://www.w3.org/2000/svg" xml:space="preserve" width="26.5166mm" height="38.6247mm" version="1.1" style="shape-rendering:geometricPrecision; text-rendering:geometricPrecision; image-rendering:optimizeQuality; fill-rule:evenodd; clip-rule:evenodd"
viewBox="0 0 517.31 753.53"
 xmlns:xlink="http://www.w3.org/1999/xlink"
 xmlns:xodm="http://www.corel.com/coreldraw/odm/2003">
 <defs>
  <style type="text/css">
   <![CDATA[
    .fil3 {fill:#4FC0EC}
    .fil0 {fill:black}
    .fil2 {fill:#59595B}
    .fil1 {fill:#B0D0D0}
    .fil4 {fill:#D8ECE7}
    .fil5 {fill:white}
   ]]>
  </style>
 </defs>
 <g id="Слой_x0020_1">
  <metadata id="CorelCorpID_0Corel-Layer"/>
  <g id="_1549626320">
   <path class="fil0" d="M101.53 154.19c-29.75,-2.89 -78.61,-7.02 -86.85,20.72 -6.64,22.34 13.99,39.68 29.84,50.62 4.67,3.22 15.17,7.9 18.15,10.6 -7.25,3.85 -56.27,9.5 -48.82,35.73 2.7,9.52 13.26,17.24 20.66,22.02 11.16,7.2 23.31,9.92 29.22,13.43 -1.87,1.69 -5.51,3.24 -7.3,4.72 -2.22,1.84 -4.48,3.93 -5.79,6.32 -2.31,4.2 -1.72,5.57 -1.83,10.31 -0.09,4.07 -2.61,5.26 -1.6,10.22 1.81,8.92 19.3,17.02 29.74,19.58l-1.93 1.31c-5.1,2.67 -10.67,4.86 -15.18,8.36 -4.01,3.12 -8.72,11.04 -3.9,18.19 7.24,10.72 29.65,7.93 44.41,6.91 -3.27,10.6 -12.25,27.03 7.37,28.32 -4.57,1.56 -9.5,10.05 -11.17,10.4 -2.67,0.54 -6.42,-6.66 -14.1,-8.75 -19.16,-5.22 -20.25,17.81 -23.36,21.05 -1.07,1.11 -5,3.4 -6.71,4.65 -1.64,1.21 -5.16,3.7 -6.05,4.71 -2.63,-8.9 0.61,-19.04 -12.75,-14.26 -16.75,5.99 -34.9,37.44 -33.48,55.18 0.41,5.09 9.83,12.31 14.69,14.8 10.93,5.59 36.24,11.74 47.62,5.13 6.47,-3.76 -0.41,-16.48 -1.93,-22.15 20.62,-0.36 33.32,18.74 39.98,33.83 23.48,53.2 29.22,105.54 82.09,139.91 -2.59,8.95 -6.75,18.47 -9.09,27.77 -0.22,0.87 -0.24,1.33 -0.63,2.2 -2.11,4.71 -17.54,3.88 -29.28,14.16 -4.66,4.08 -16.07,15.34 -14.98,26.32 2.96,1.82 5.89,2.48 9.49,2.97 1.15,4.65 5.29,4.88 12.45,6.46 5.86,1.3 11.71,1.81 17.93,2.24 2.17,3.43 -1.19,1.4 2.52,2.9 7.34,2.95 30.56,2.64 37.8,2.12 13.35,-0.95 28,-3.12 40.22,-6.59 18.91,-5.38 18.51,-5.28 22.84,-24.19l4.92 -29.89c1.44,-12.85 0.14,-10.96 13.26,-14.21 4.69,39.13 -7.51,57.75 49.24,60.05 10.77,0.44 45.32,0.9 53.51,-3.88 3.14,-1.84 4.05,-1.8 8.47,-2.11 7,-0.49 16.41,-0.85 21.74,-5.43 2.97,-2.55 5.83,-2.45 8.98,-5.37 0.85,-11.8 -8.74,-21.25 -15.19,-25.51 -12.93,-8.53 -31.31,-7.75 -32.5,-8.7 -2.25,-1.79 -15.5,-45.49 -18.59,-54.1 -2.96,-8.21 0.09,-6.42 5.28,-16 14.48,-26.77 17.76,-44.79 16.99,-79.08 18.73,6.85 25.34,8.33 42.38,-2.44 12.63,-7.99 21,-15.68 29.81,-26.43 4.02,-4.9 7.53,-10.73 10.89,-16.86 0.83,-1.51 4.02,-8.88 4.65,-9.58 1.64,-1.81 19.44,-5.23 28,-14.03 2.69,-2.76 12.1,-11.33 9.54,-17.93l-12.97 -1.94c4.51,-4.35 14.94,-11.33 17.13,-13.52 -1.59,-3.97 -5.08,-6.58 -8.79,-8.44 -5.81,-2.9 -8.2,-2.13 -14.55,-3.23 1.37,-2.72 3.24,-5.9 4.93,-8.75 1.61,-2.72 4.27,-6.33 5.27,-8.77 -10.69,-8.83 -26.6,-2.04 -35.19,4.47 -4.35,3.3 -7.86,9.67 -12.26,11.94 -6.08,3.14 -15.99,0.86 -22.35,0.02 -2.87,-9.41 -12.2,-19.64 -24.99,-18.66 2.54,12.4 -2.3,13.16 -4.43,24.54 -2.1,11.21 0.02,17.15 4.38,25.37 -2.35,3.8 -5.07,6.5 -7.83,10.3 -1.99,2.74 -5.65,7.95 -7.15,11.02 -8.47,-0.95 -17.29,-4.29 -25.09,-7.21 -4.65,-1.74 -3.77,-1.14 -5.85,-5.53l-15.82 -28.51c11.02,-6.94 19.86,-5.26 46.81,-27.39 12.22,-10.04 25.08,-23.97 34.36,-40.41 8.44,-14.95 17.02,-36.1 17.56,-56.76 0.68,-25.95 -11.14,-37.7 -36,-39 -5.11,-54.85 -29.83,-105.32 -75.71,-129.32 -16.87,-8.82 -33.67,-11.75 -54.64,-13.75 -7.32,-28.51 -36.28,-69.3 -58.44,-86.73 -3.19,-2.51 -5.53,-4.56 -9.11,-7.24 -5.92,-4.41 -13.11,-8.79 -19.97,-12.77 -13.8,-8 -28.94,-15.1 -47.1,-18.38 -40.84,-7.38 -75.43,1.66 -73.65,51.67 0.91,25.64 9.84,54.92 19.52,77.91 3.25,7.72 7.68,15.38 10.32,22.34z"/>
   <path class="fil1" d="M291.26 185.43l-14.76 -7.57c-26.81,-13.24 -69.28,-20.78 -97.88,-13.37 -8.09,2.1 -26.8,17.75 -33.22,24.42 -7.62,7.92 -7.72,6.42 -16.18,18.72 -13.89,20.19 -22.16,42.9 -23.98,68.44 -0.49,6.91 -1.12,41.39 4.69,44.11 0.9,0.42 1.16,0.46 2.19,0.74 1.37,0.38 2.44,0.6 3.95,1.05 7.2,2.15 14.9,5.08 21.43,8.47 9.08,4.71 17.61,10.58 24.41,16.14 12.67,10.34 31.54,28.25 36.97,43.17 -7.48,1.61 -13.7,2.56 -20.8,4.81 -6.24,1.99 -13.16,5.07 -19.03,6.55 1.26,1.9 0.87,1.21 2.63,2.66 1.23,1.01 1.76,1.42 2.76,2.19l18.56 12.03c18.1,10.07 40.76,16.97 61.81,20.12 12.32,1.84 18.33,-1.68 30.52,-8.94 17.34,-10.33 31.35,-23.57 41.16,-40.69 5.19,-9.05 17.21,-33.33 16.09,-45.21 -0.63,-6.69 -1.36,-12.42 -0.75,-19.04 2.8,1.16 1.97,1.39 4.29,3.28 16.94,13.82 33.59,28.36 57.4,15.59 6.99,-3.75 11.04,-8.4 15.03,-15.57 3.93,-7.07 5.43,-16.21 3.32,-25.19 -5.54,-23.5 -50.85,8.31 -59.58,13.22 2.19,-7.16 8.09,-11.21 12.32,-15.63 1.01,-1.05 0.33,-0.24 1.05,-1.16 -1.04,-1.9 -9.7,-13.13 -14.62,-21.76 -3.85,-6.77 -8.32,-17.72 -10.67,-25.62 -12.97,-43.59 10.92,-75.32 34.4,-49.36 17.11,18.92 23.05,59.14 24.11,84.79 11.18,-0.2 16.72,2.24 19.72,11.6 5.5,17.21 -1.01,34.99 -13.51,46.25 -6.2,5.59 -3.53,-0.38 -7.18,8.48 -1.4,3.41 -3.82,8.51 -7.43,8.85l-3.6 -7.72c-1.29,0.09 -2.45,0.21 -3.73,0.47 -2.42,0.5 -1.77,0.08 -3.22,1.16 -3.4,5.11 -3.02,23.93 -1.67,30.5 3.63,17.66 2.89,11.68 -4.35,25 9.57,-4.82 25.24,-20.07 31.45,-27.3 8.71,-10.13 15.94,-21.28 22.76,-35.62 5.63,-11.83 11.99,-32.84 10.01,-48.27 -2.3,-17.87 -15.06,-24.26 -33.58,-25.66 -1.49,-16.96 -6.85,-37.26 -12.45,-52.17 -5.64,-15.02 -19.49,-40.61 -30.48,-49.95 -5.05,-4.3 -8.31,-9.16 -17.46,-15.28 -15.94,-10.67 -39.31,-20.8 -60.8,-20.33 2.15,16.09 6.98,20.24 7.88,48.58z"/>
   <path class="fil1" d="M33.09 472.68c0.11,-4.56 0.26,-5.57 2.58,-8.43 2.01,-2.48 3.32,-4.01 5.38,-6.05l-2 -13.59c-15.92,3.21 -30.82,30.6 -33.97,49.89 9.29,11.39 40.6,20.17 53.53,14.24l-2.95 -13.2c-1.82,-5.95 -2.11,-3.92 -18.67,-5.5 16.98,-6.82 37.71,-4.54 52.89,6.12 2.45,1.72 3.11,3 5.11,4.87 19.25,18 38.93,54.96 56.45,78.79 10.67,14.51 34.08,39.37 54.24,43.61 1.13,-2.16 2.94,-4.03 4.68,-5.73 -3.18,19.13 -24.06,51.52 -28.65,79.72 18.3,0.04 30.18,5.92 39.18,15.35 -20.07,-3.08 -24.37,-10.95 -51.41,-5.09 -8.43,1.83 -15.25,4.92 -20.92,8.95 -4.17,2.97 -12.95,11.06 -13.81,16.86l4.79 0.39c2.96,-13.21 18.69,-25.97 35.55,-23.31l-0.88 0.84c-4.47,3.43 -11.22,5.28 -17.69,10.32 -2.26,1.76 -12.83,12.73 -11.69,17.09 4.72,1.63 18.72,2.54 24.31,2.12 1.78,-3.09 2.32,-6.61 4.09,-9.6 5.81,-9.82 14.57,-15.76 27.48,-15.58l-1.25 1.16c-4.73,3.84 -10.05,7.28 -14.24,11.44 -4.2,4.17 -8.93,10.1 -10.22,17.94 25.81,1.41 51.18,-2.44 75.29,-9.8 11.92,-3.64 9.77,-5.01 12.27,-16.89 3.42,-16.28 6.03,-32.62 7.44,-49.44 1.52,-18.15 1.17,-37 2.66,-54.9 0.49,-1.52 2.5,-1.75 3.68,-2.91 18.15,-17.72 18.01,-62.37 15.25,-84.42 -2.62,-20.88 -13.72,-60.88 -26.72,-79.35 -2.96,-4.21 -12.6,-2.75 -18.08,-3.33 -5.58,-0.59 -10.74,-1.6 -16.22,-2.23l1.92 11.67c8.52,-0.11 13.69,2.99 16.48,8.48 -10.96,-2.2 -14.12,-2.92 -24.34,1.35 -18.05,7.55 -40.18,22.17 -51.74,35.82 -5.64,6.66 -6.69,11.14 -5.22,21.92 3.1,22.74 16.14,40.92 36.36,51.2l1.37 -4.32c6.16,6.11 2.59,9.45 17.43,16.86 2.35,1.17 6.01,2.06 7.92,3.13 -4.52,6.8 -13.95,0.09 -17.8,0.56 4.99,7.1 22.27,5.29 30.33,-0.46 12.01,-8.57 3.7,-16.93 2.34,-28.99 1.99,0.99 4.77,3.84 6.03,5.5 2.06,2.69 2.85,5.84 4.35,8.63 10.31,-5.42 1.6,-19.82 0.45,-27.14 1.76,0.65 3.59,1.9 4.89,3.11l4.09 4.92c0.51,-14.98 -12.96,-22.66 -22.38,-28.63 -8.09,-5.13 -23.99,-16.06 -26.79,-23.83 4.44,0.93 7.7,3.35 11.08,4.96 6.02,-4.92 17.6,-14.22 28.89,-14.38 -1.26,2.47 -3.3,3.4 -5.26,5.34 -4.85,4.78 -11.55,8.24 -16.27,13.55 3.51,3.77 11.11,7.2 15.67,9.88 10.61,6.25 21.94,14.78 22.69,28.55 0.21,3.95 -0.49,7.62 -2.18,10.6 -3.38,5.95 -2.38,0.61 -3.56,9.26 -0.51,3.74 -2.63,6.24 -4.56,8.26l-7.03 5.78c-3.91,4.52 -2.83,8.32 -12.36,13.29 -13.29,6.92 -32.45,3.72 -36.72,-8.74 1.4,-2.34 1.99,-2.4 3.06,-4.48 -6.72,-5.9 -2.03,-2.04 -12.69,-7.03 -13.75,-6.42 -22.94,-16.04 -30.44,-30.06 -4.71,-8.79 -8.07,-20.25 -8.18,-31.76 -0.14,-14.06 6.25,-17.9 13.38,-27 -7.39,-10.86 -2.85,-14.93 -3.26,-17.75 -1.39,-0.65 0.71,-0.86 -0.86,0.11 -3.91,2.42 -2.81,4.72 -10.26,2.34 -9.29,-2.97 -19.52,-10.31 -24.83,-17.91 -1.86,-2.66 -1.44,-3.41 -2.54,-5.63 -8.02,2.06 -21.92,-3.31 -27.74,-6.77 -6.59,-3.92 -2.3,-5.65 -13.08,-3.8 -13.4,2.3 -26.78,9.23 -36.76,16.63 -4.86,3.61 -10.37,7.5 -14.31,12.03 -2.25,2.59 -2.25,3.27 -4.99,4.58z"/>
   <path class="fil2" d="M114.74 162.68c-6,0.45 -19.69,-1.9 -26.79,-2.34 -18.43,-1.13 -68.24,-2.08 -65.96,23.73 1.69,19.03 28.08,37.55 44.25,45.32 3.59,1.72 6.66,3.13 10.29,4.65 2.55,1.07 8.23,2.91 10.21,4.45l1 0.94c-17.03,2.1 -71.38,12.11 -66,30.87 3.58,12.46 30.7,25.32 43.75,30.29 4.06,1.55 16.27,4.66 18.64,6 -4.69,2.67 -23.69,5.13 -27.71,16.38 18.65,-5.59 20.55,-6.49 43.14,-4.65 -4.36,-32.52 -5.09,-52.18 5.14,-82.56 9.82,-29.16 35.87,-62.35 63.77,-76.42 9.6,-4.84 28.26,-7.01 40.51,-6.76 18.48,0.37 41.1,5.89 57.77,12.96 5.17,2.19 11.92,6.23 16.49,7.66 -3.91,-37.46 -23.18,-74.54 -40.67,-98.09 -2.52,-3.4 -5.32,-6.08 -7.86,-9.21 -6.67,-8.25 -18.3,-18.44 -27.2,-24.76 -25.33,-18.01 -71.69,-40.85 -104.18,-29.53 -18.95,6.61 -23.67,22.35 -22.18,46.54 1.79,29.01 10.84,56.27 21.91,81.76 3.53,8.13 8.32,15.55 11.66,22.76z"/>
   <path class="fil0" d="M226.42 367.62c-0.87,1.18 -0.23,0.36 -1.22,1.35l-3.21 3.08c29.8,-8.99 38.25,-9.11 68.86,-10.08 5.97,-0.19 22.57,0.73 26.76,-0.19l-7.41 -2.48c4.98,-18.4 4.91,-27.92 -1.39,-46.46 -2.44,-7.19 -14.27,-31.83 -18.17,-37.36 -12.16,-17.2 -38.73,-42.11 -73.63,-36.94 -32.56,4.81 -45.94,36.31 -40.01,67.3 4.07,21.25 16.54,37.95 32.42,50.86 3.61,2.93 12.14,9.36 16.99,10.92z"/>
   <path class="fil1" d="M436.04 430.51l-1.18 4.18c-1.6,-1.4 -6.04,-9.99 -7.96,-12.88 -2.13,-3.22 -6.96,-9.61 -10.37,-10.16 -0.3,8.47 -4.68,15.06 -4.46,25.19 0.24,11.17 4.86,14.49 8.75,20.66 -3.44,1.86 -1.53,-0.95 -4.84,2.73l-7.3 8.33c-6.06,6.52 -12.93,18.19 -19.63,21.61l1.07 -7.05 -20.16 -6.76c5.78,18.23 13.64,28.71 16.62,53.98 14.92,3.47 21.07,13.95 48.7,-8.84 9.86,-8.13 26.17,-25.95 29.62,-38.77 -4.29,-0.11 -9.94,0.21 -13.2,-1.74 11.19,-3.07 20.23,-3.77 30.95,-8.19 8.37,-3.45 19.92,-10.73 23.27,-16.72 -8.7,-0.09 -23.46,-2.87 -26.56,-10.54 12.52,1.31 7.11,3.8 22.61,-6.8 1.58,-1.08 1.87,-1.28 3.46,-2.21l3.44 -2.71c-14.69,-4.41 -20.41,-4.21 -35.02,0.65 3.85,-6.69 9.72,-7.01 12.35,-11.52l9.61 -14.49c-23.13,-1.46 -28.27,18.18 -40.29,21.52 -6.71,1.87 -12.67,1.31 -19.48,0.52z"/>
   <path class="fil3" d="M281.06 357.14c7.55,-32.14 -21,-79.37 -56.35,-87.56 -33.99,-7.88 -46.78,27.04 -36.02,52.33 2.6,6.12 5.33,10.63 8.66,15.55 5.65,8.36 15.84,18.1 24.6,23.8 8.9,5.8 5.85,5.48 16.2,2.26 20.17,-6.26 38.74,-4.33 42.91,-6.39z"/>
   <path class="fil2" d="M98.54 360.17c-5.37,2.48 -14.79,3.09 -21.84,6.31 -6.14,2.81 -14.65,6.84 -15.22,14.14 5.87,9.69 37.17,6.33 49.45,5.64 -5.45,13.6 -22.98,39.53 13.71,21.78 6.66,-3.22 13.33,-6.11 20.17,-9.04 13.71,-5.88 28.82,-10.61 44.85,-13.55 -3.9,-9.21 -24.59,-27.81 -33.46,-34.57 -11.86,-9.04 -28.24,-18.51 -46.21,-22.85 -9.74,-2.35 -20.68,-3.52 -31.27,-2.92 -8.47,0.48 -22.4,3.67 -23.96,10.24 -2.44,10.27 34.76,20.63 43.79,24.82z"/>
   <path class="fil1" d="M298.57 675c0.38,9.22 1.34,18.87 2.09,28.07 0.77,9.49 1.77,17.94 9.06,20.98 18,7.49 55.28,6.51 78.08,6.08 -3.6,-19.13 -17.27,-23.13 -26.27,-28.98 15.49,-7.06 29.7,11.48 31.79,24.92l23.83 -1.08c-2.37,-13.83 -23.65,-22.29 -30.12,-26.21 8.47,-6.13 24.97,4.25 30.99,13.05 5.99,8.76 1.42,9.25 7.4,8.1 -0.04,-7.79 -13.78,-18.25 -20.59,-21.24 -9.54,-4.18 -30.84,-4.76 -34.99,-6.95 1.61,-0.64 3.35,-1.53 5.23,-1.93l-7.04 -22.6c-2.82,3.33 -5.07,6.8 -10.83,6.35 -16.26,-1.27 -13.48,-30.15 1.22,-29.4 -4.23,2.57 -5.05,2.15 -7.39,6.61 -10.08,19.23 16.64,26.68 13.63,11.8 -3.07,-2.03 -3.27,-1.64 -5.44,1.23 0.08,-4.41 2.64,-4.87 6.39,-3.62l-5.49 -18.6c-0.72,-2.54 -0.85,-4.38 -2.49,-6.22 -9.35,13.3 -42.64,35.48 -59.07,39.63z"/>
   <path class="fil4" d="M260.23 439.46l30.62 2.31c-5.77,3.67 -16.89,4.01 -24.51,4.75 2.91,6.36 8.88,14.99 10.78,21.9 16.47,-4.52 16.71,-5.66 35.97,-9.23 14.03,-2.6 26.62,-3.63 41.18,-2.27 -2.92,-7.47 -10.43,-16.79 -11.95,-21.07 -9.79,1.34 -17.16,6.64 -29.22,5.69 10.38,-4.89 21.29,-8.85 31.29,-13.8 10.81,-5.35 18.74,-12.94 24.74,-21.49 -2.47,-1.98 -16.71,-1.66 -29.99,-36.21l-5.57 -17.51c-3.86,26.17 -26.29,57.33 -47.55,72.38 -11.78,8.34 -14.65,8.47 -25.8,14.55z"/>
   <path class="fil4" d="M291.34 511.59c0.6,6.72 2.27,13.75 2.96,20.76 0.64,6.54 0.26,16.48 1.28,22.19 19.7,5.45 67.3,3.43 85.5,-3.1 -0.01,-18.46 -2.7,-30.66 -6.72,-47.07 -15.82,-2.82 -27.18,-2.37 -43.51,-0.45 -8.51,1 -33.47,4.37 -39.51,7.68z"/>
   <path class="fil5" d="M184.08 291.09c1.65,-2.76 2.46,-6.68 4.21,-9.47 5.45,-8.68 13.63,-14.61 25.01,-15.27 26.43,-1.53 52.12,23.38 62.44,45.36 7.46,15.89 9.2,26.64 7.21,46.04l24.37 0.85c2.72,-11.66 4.05,-17.99 1.41,-30.76 -5.18,-25.1 -22.58,-52.57 -41.02,-65.75 -44.3,-31.67 -84.7,-6.61 -83.63,28.99z"/>
   <path class="fil4" d="M295.31 558.05c-0.76,8.4 -1.07,15.59 -2.74,23.56 -1.77,8.46 -4.57,13.76 -6.49,20.38 9.17,7.09 52.3,7.01 67.95,3.42 14.32,-3.29 16,-3.77 20.55,-17.19 3.49,-10.29 5.98,-21.21 6.37,-32.92 -37.23,6.16 -46.64,7.67 -85.64,2.76z"/>
   <path class="fil4" d="M278.9 471.6c1.4,5.18 4.54,11.96 6.42,17.75 1.18,3.62 3.94,16.38 5.52,18.47 27.57,-5.43 52.26,-11.75 82.1,-7.27 -1.52,-7.88 -6.83,-19.73 -10.05,-26.81 -6.16,-13.55 -3.69,-14.77 -22.93,-14.19 -16.47,0.5 -48.12,6.02 -61.06,12.04z"/>
   <path class="fil5" d="M116.99 419.77c5.12,2.36 8.15,1.97 11.18,6.08 3.59,4.84 3.05,8.52 5.37,12.57 6.01,5.75 15.8,-9.9 29.56,1.63 9.05,7.58 5.54,19.07 7.44,22.46 0.78,1.39 4.61,4.41 5.84,4.64 2.6,0.48 8.51,-2.2 17.48,1.24 5.79,2.22 3.19,1.98 13.33,-3.42 12.35,-6.58 1.43,-2.38 13.84,-16.06 2.3,-2.53 4.05,-2.49 3.65,-7.31 -28.92,-5.07 -58.14,-22.11 -74.15,-36.57 -2.52,0.69 -31.88,13.6 -33.54,14.75z"/>
   <path class="fil4" d="M325.72 612.01c-7.57,0 -15.12,-0.68 -22.43,-1.89 -3.5,-0.58 -6.78,-1.17 -10.01,-2 -3.26,-0.83 -6.63,-2.28 -9.63,-2.74 -3.54,8.85 -9.78,8.42 -8.57,14.39 4.35,21.44 0.28,20.64 8.98,23.15 15.61,4.51 38.09,4.86 51.99,-1.43 7.34,-3.32 27.45,-27.22 30.82,-36.47 -12.37,4.99 -25.98,6.98 -41.15,6.98z"/>
   <path class="fil3" d="M369.67 296.01c3.32,-0.97 7.21,-3.53 10.99,-4.95 2.11,-0.8 3.76,-1.09 5.95,-1.85 3.29,-1.14 2.63,-1.45 2.86,-5.73 1.78,-33.64 -21.11,-77.63 -39.92,-70.52 -4.99,1.88 -4.99,4.77 -5.32,11.06 -1.19,22.64 5.91,44.56 18.58,62.59 2.39,3.4 5.25,6.5 6.86,9.41z"/>
   <path class="fil0" d="M218.56 294.47c-22.88,-2.47 0.03,31.67 3.82,36.46 24.14,30.52 50.7,36.74 39.07,7.9 -2.43,-6.02 -7.88,-14.67 -11.19,-18.75 -3.82,-4.7 -6.89,3.23 -19.18,-8.51 -5.27,-5.04 -9.08,-8.93 -12.52,-17.1z"/>
   <path class="fil4" d="M174.63 649.51c0.52,-7.63 1.15,-12.04 3.13,-18.98 1.57,-5.52 4.99,-11.21 6.2,-15.57 -13.61,-9.15 -14.95,-13.6 -21.22,-18.15 -4.7,2.92 -10.16,16.53 -11.41,21.56 -1.22,4.89 -0.78,4.96 1.75,8.22 6.34,8.15 13.7,17.1 21.56,22.93z"/>
   <path class="fil4" d="M147.78 618.22c6.98,-15.28 -1.03,-4.08 12.21,-24.06l-10.75 -13.55c-3.4,-4.38 -6.82,-9.45 -9.92,-14.07 -2.71,1.65 -7.11,6.93 -9.12,10.78 -2.84,5.44 0.38,9.21 2.81,14.55 2.62,5.78 11.43,24.03 14.77,26.35z"/>
   <path class="fil0" d="M371.28 292.37c4.98,-4.61 2.96,-28.92 -1.07,-34.53 -2.66,-3.7 -4.6,-3.67 -7.92,-12.7 -3.33,-9.07 -2.18,-15.25 -6.24,-13.62 -6.45,2.59 -1.16,28.44 0.4,34.36 2.23,8.4 7.34,26.12 14.83,26.5z"/>
   <path class="fil4" d="M278.67 669.76c12.55,-2.2 27.39,-8.85 38.58,-15.02l10.97 -7.16c-23.33,2.53 -27.32,2.81 -49.41,-2.76l-0.13 24.94z"/>
   <path class="fil4" d="M186.46 657.8c2.07,-7.13 8.39,-17.58 12.05,-24.29 1.7,-3.12 3.72,-5.31 4.77,-8.04 -1.31,-0.88 -15.48,-7.72 -16.35,-7.93 -4.33,6.01 -10.25,26.17 -8.69,33.55 0.62,2.93 5.66,5.83 8.22,6.71z"/>
   <path class="fil5" d="M346.64 211.68c22.32,-9.66 39.02,29.66 42.97,48.14 0.97,4.54 1.63,9.02 1.98,13.79 0.22,3.07 -0.59,12.53 0.33,14.14l3.93 -0.78c-0.43,-20.34 -9.63,-55.41 -20,-71.77 -7.93,-12.51 -22.61,-23.43 -29.2,-3.52z"/>
   <path class="fil2" d="M137.09 450.38c2.03,5.33 16.1,16.29 24.75,17.6 2.88,-8.15 2.42,-18.85 -3.78,-23.61 -7.63,-5.87 -17.89,1.37 -20.97,6.01z"/>
   <path class="fil2" d="M344.65 364.45c5.44,0.54 10.35,2.63 14.39,4.92 3.09,1.75 9.34,6.74 10.45,8.75 0.37,-3.76 0.03,-7.72 0.42,-11.73 0.35,-3.62 1.5,-7.64 1.24,-11.11l-7.7 -1.47 -4.04 8.29c-4.59,-0.64 -8.2,-6.1 -9.82,-11.04 -1.26,-3.86 -0.56,-6.72 -10.06,-11.51 0.61,9.96 3.1,16.38 5.12,24.91z"/>
   <path class="fil4" d="M114.18 542.57c0.69,4.73 4.29,12.52 6,17.28 1.76,4.92 4.95,12.12 6.14,16.78 1.96,-2.09 5.15,-7.75 7.51,-9.97 1.58,-1.49 1.61,-0.98 3.13,-3.1 -0.68,-1.98 -15.24,-24.76 -16.79,-26.1 -2.35,1.72 -3.45,3.87 -5.98,5.11z"/>
   <path class="fil5" d="M373.09 399.52c3.09,-13.12 -14.69,-27.68 -26.12,-29.77 1.42,5.12 6.54,14.64 9.3,18.75 2.96,4.39 8.81,12.77 16.82,11.02z"/>
   <path class="fil2" d="M102.38 435.25c2.96,4.77 16.83,9.5 24.6,9.28 0.96,-8.24 -2.01,-16.17 -8.08,-17.92 -8.6,-2.48 -13.71,3.34 -16.51,8.64z"/>
   <path class="fil0" d="M161.06 229.26c1.71,-6.94 7.14,-17.64 11.31,-21.21 6.36,-5.45 11.88,-7.73 20.63,-12.15 -18.86,-4.69 -36.94,14 -31.94,33.35z"/>
   <path class="fil0" d="M213.73 665.96c-1.33,-7.92 -12.85,-6.66 -13.8,0.23 -1.9,13.66 23.14,18.49 28.25,0.54 1.91,-6.71 -2.5,-15.75 -8,-15.83 6.41,0.62 10.1,20.8 -4.4,24.09 -12.24,2.77 -17.61,-11.9 -8.87,-12.45 3.73,-0.23 5.42,1.82 6.82,3.42z"/>
   <path class="fil0" d="M309.81 160.19c31.83,-2.86 27.78,3.87 41.62,10.66 -2.25,-6.35 -9.62,-12.24 -16.62,-14.98 -7.02,-2.75 -19.48,-0.5 -23.77,3.05 -1.08,0.9 -0.42,0.26 -1.23,1.27z"/>
   <path class="fil4" d="M99.03 509.83c-0.2,0.6 -0.33,0.31 -0.1,1.56l13.65 27.61c0.06,0.09 0.2,0.28 0.31,0.41 1.62,-1.51 4.27,-3.26 5.37,-5.04 -4.03,-7.59 -10.91,-15.56 -16.25,-22.62 -1.77,-2.34 -0.41,-2.26 -2.99,-1.92z"/>
   <path class="fil2" d="M66.99 439.73c4.97,-1.49 8.4,-3.6 14.98,-5.32 0.84,-0.22 2.08,-0.48 2.82,-0.72l2.48 -1.11c-8.55,-8.71 -17.78,-3.25 -20.29,7.15z"/>
   <path class="fil2" d="M174.01 475.85c0.4,3.37 1.79,6.09 3.08,8.49l13.1 -9.6c-5.46,-2.83 -11.35,-0.85 -16.18,1.1z"/>
  </g>
 </g>
</svg>
