<?xml version="1.0" encoding="utf-8"?>
<!-- Generator: Adobe Illustrator 25.2.3, SVG Export Plug-In . SVG Version: 6.00 Build 0)  -->
<svg version="1.1" id="Слой_1" xmlns:xodm="http://www.corel.com/coreldraw/odm/2003"
	 xmlns="http://www.w3.org/2000/svg" xmlns:xlink="http://www.w3.org/1999/xlink" x="0px" y="0px" viewBox="0 0 850.4 307.9"
	 style="enable-background:new 0 0 850.4 307.9;" xml:space="preserve">
<style type="text/css">
	.st0{fill:#D7EEFC;}
	.st1{fill:#B0D0D0;}
	.st2{fill:#A3C5C4;}
	.st3{fill:#D8ECE7;}
	.st4{fill:#A3C5C4;stroke:#A3C5C4;stroke-width:0.216;stroke-miterlimit:10;}
	.st5{fill:#FEFEFE;}
	.st6{fill:#9AB0B2;}
	.st7{fill:#A5C5C5;}
	.st8{fill:#C5E3E3;}
	.st9{fill:#D5E9DD;}
	.st10{clip-path:url(#SVGID_2_);}
	.st11{fill:#D7EEFC;stroke:#8BB1AF;stroke-width:0.216;stroke-miterlimit:10;}
	.st12{fill:#D7EEFC;stroke:#8BB1AF;stroke-width:0.216;stroke-linecap:round;stroke-linejoin:round;stroke-miterlimit:10;}
	.st13{fill:none;stroke:#8BB1AF;stroke-width:0.216;stroke-linecap:round;stroke-linejoin:round;stroke-miterlimit:10;}
	.st14{fill-rule:evenodd;clip-rule:evenodd;fill:#FDFDFD;}
	.st15{fill-rule:evenodd;clip-rule:evenodd;fill:#C4E2E2;}
</style>
<g id="Слой_x0020_1">
	<polygon class="st0" points="0,307.6 850.4,307.6 850.4,0 0,0 	"/>
	<g id="_3799773936">
		<polygon class="st1" points="681.5,294.9 599,294.9 599,228.9 681.5,228.9 		"/>
	</g>
	<polygon class="st2" points="179.4,299.7 208.1,299.7 208.1,108.5 179.4,108.5 	"/>
	<polygon class="st2" points="201.1,299.7 190.9,299.7 190.9,86.7 201.1,86.7 	"/>
	<polygon class="st2" points="201.1,299.7 169.2,299.7 169.2,185 201.1,185 	"/>
	<polygon class="st2" points="196,299.7 173.7,299.7 173.7,193.2 196,193.2 	"/>
	<polygon class="st2" points="185.2,209.7 173.7,209.7 173.7,201.1 185.2,201.1 	"/>
	<polygon class="st2" points="185.2,223.6 173.7,223.6 173.7,215 185.2,215 	"/>
	<polygon class="st2" points="185.2,238.2 173.7,238.2 173.7,229.6 185.2,229.6 	"/>
	<polygon class="st2" points="185.2,252.1 173.7,252.1 173.7,243.4 185.2,243.4 	"/>
	<polygon class="st2" points="185.2,266.9 173.7,266.9 173.7,258.3 185.2,258.3 	"/>
	<polygon class="st2" points="185.2,280.7 173.7,280.7 173.7,272.1 185.2,272.1 	"/>
	<polygon class="st3" points="185.2,295.4 173.7,295.4 173.7,286.7 185.2,286.7 	"/>
	<polygon class="st4" points="198.1,181.2 196,181.2 196,92.3 198.1,92.3 	"/>
	<polygon class="st3" points="169.3,299.7 95.4,299.7 95.4,288.9 169.3,288.9 	"/>
	<path class="st3" d="M184.5,281.1c0,7.9-23.3,14.2-52.1,14.2c-28.8,0-52.1-6.4-52.1-14.2c0-7.9,23.3-14.2,52.1-14.2
		C161.2,266.9,184.5,273.2,184.5,281.1z"/>
	<polygon class="st3" points="267.5,302.9 261.9,302.9 261.9,132.1 267.5,132.1 	"/>
	<polygon class="st3" points="272.7,302.9 267.1,302.9 267.1,138 272.7,138 	"/>
	<polygon class="st3" points="253.5,302.9 256.8,302.9 256.8,126.8 253.5,126.8 	"/>
	<path class="st2" d="M291.3,154.3c0,6.9-4.9,12.5-11,12.5h-42.5c-6.1,0-11-5.6-11-12.5c0-6.9,4.9-12.5,11-12.5h42.5
		C286.4,141.8,291.3,147.4,291.3,154.3z"/>
	<path class="st2" d="M283,166.6h-23.8V142H283c0,0,8,3.4,8.4,12.5C291.7,163.2,283,166.6,283,166.6z"/>
	<path class="st2" d="M291.3,213.9c0,6.9-4.9,12.5-11,12.5h-42.5c-6.1,0-11-5.6-11-12.5c0-6.9,4.9-12.5,11-12.5h42.5
		C286.4,201.4,291.3,207,291.3,213.9z"/>
	<path class="st2" d="M291.3,243.7c0,6.9-4.9,12.5-11,12.5h-42.5c-6.1,0-11-5.6-11-12.5c0-6.9,4.9-12.5,11-12.5h42.5
		C286.4,231.2,291.3,236.8,291.3,243.7z"/>
	<path class="st2" d="M291.3,274.6c0,6.9-4.9,12.5-11,12.5h-42.5c-6.1,0-11-5.6-11-12.5c0-6.9,4.9-12.5,11-12.5h42.5
		C286.4,262.1,291.3,267.7,291.3,274.6z"/>
	<path class="st2" d="M291.3,184.1c0,6.9-4.9,12.5-11,12.5h-42.5c-6.1,0-11-5.6-11-12.5c0-6.9,4.9-12.5,11-12.5h42.5
		C286.4,171.6,291.3,177.2,291.3,184.1z"/>
	<path class="st2" d="M283,196.4h-23.8v-24.7H283c0,0,8,3.4,8.4,12.5C291.7,193,283,196.4,283,196.4z"/>
	<path class="st2" d="M283,226h-23.8v-24.7H283c0,0,8,3.4,8.4,12.5C291.7,222.6,283,226,283,226z"/>
	<path class="st2" d="M283,256h-23.8v-24.7H283c0,0,8,3.4,8.4,12.5C291.7,252.6,283,256,283,256z"/>
	<path class="st2" d="M283,286.9h-23.8v-24.7H283c0,0,8,3.4,8.4,12.5C291.7,283.4,283,286.9,283,286.9L283,286.9z"/>
	<polygon class="st2" points="312.3,280.7 345.8,280.7 345.8,204.7 312.3,204.7 	"/>
	<polygon class="st2" points="306.2,204.7 371,204.7 371,192.2 306.2,192.2 	"/>
	<polygon class="st2" points="308.1,199.9 365.6,199.9 365.6,194.6 308.1,194.6 	"/>
	<polygon class="st2" points="337.8,280.7 345.8,280.7 345.8,207.5 337.8,207.5 	"/>
	<polygon class="st2" points="333.3,280.7 324.9,280.7 324.9,207.5 333.3,207.5 	"/>
	<polygon class="st2" points="337.8,267.2 345.8,267.2 345.8,248.7 337.8,248.7 	"/>
	<polygon class="st3" points="324.9,267.2 333.3,267.2 333.3,248.7 324.9,248.7 	"/>
	<polygon class="st2" points="322.6,193.2 350.8,193.2 350.8,164.8 322.6,164.8 	"/>
	<polygon class="st2" points="322.6,192.2 334.9,192.2 334.9,164.8 322.6,164.8 	"/>
	<polygon class="st2" points="337.8,184.3 347.4,184.3 347.4,169.3 337.8,169.3 	"/>
	<polygon class="st2" points="324.9,184.3 335.2,184.3 335.2,169.3 324.9,169.3 	"/>
	<polygon class="st2" points="345.8,280.7 365.6,280.7 365.6,204.7 345.8,204.7 	"/>
	<polygon class="st2" points="322.6,251.5 294,251.5 294,210.6 322.6,210.6 	"/>
	<polygon class="st3" points="355.7,263.3 377.4,263.3 377.4,229.2 355.7,229.2 	"/>
	<polygon class="st2" points="734.4,279.4 80.2,279.4 80.2,307.6 734.4,307.6 	"/>
	<path class="st2" d="M617.6,247.1c0,9.2-4.9,16.7-11,16.7H599V285h-5.1h-0.5h-5.1v-21.2h-5.1V285h-3.3v-21.2h-3.7V285H570v-21.2
		h-5.8c-6.1,0-11-7.5-11-16.7c0-9.2,4.9-16.7,11-16.7h5.8v-7.8h-5.8c-6.1,0-11-7.5-11-16.7c0-9.2,4.9-16.7,11-16.7h5.8v-6.4h-5.8
		c-6.1,0-11-7.5-11-16.7c0-9.2,4.9-16.7,11-16.7h5.8v-6.4h-5.8c-6.1,0-11-7.5-11-16.7c0-9.2,4.9-16.7,11-16.7h5.8V103h-5.8
		c-6.1,0-11-7.5-11-16.7c0-9.2,4.9-16.7,11-16.7h5.8v-5.1h6.1v5.1h3.7v-20h3.3v20h5.1V56.7h5.6v7.8h5.1v5.1h7.7
		c0.6,0,1.2,0.1,1.9,0.2h0.8c0,0,0.4,0.2,0.9,0.7c4.3,2.2,7.4,8.5,7.4,15.8l0,0.2l0,0c0.1,3.6-0.7,6.5-1.7,8.8
		c-1.3,3-3.2,5.3-5.4,6.6c-0.7,0.6-1.2,0.8-1.2,0.8h-0.8c-0.6,0.2-1.2,0.2-1.8,0.2H599v6.4h7.7c0.6,0,1.3,0.1,1.9,0.2h0.7
		c0,0,0.4,0.2,0.9,0.7c4.3,2.2,7.4,8.5,7.4,15.8l0,0.2l0,0c0.1,3.6-0.6,6.5-1.7,8.8c-1.3,3-3.2,5.4-5.4,6.6
		c-0.7,0.5-1.2,0.8-1.2,0.8h-0.7c-0.6,0.2-1.2,0.2-1.9,0.2H599v6.4h7.7c6.1,0,11,7.5,11,16.7c0,9.2-4.9,16.7-11,16.7H599v6.4h7.7
		c6.1,0,11,7.5,11,16.7c0,9.2-4.9,16.7-11,16.7H599v7.8h7.7C612.7,230.4,617.6,237.9,617.6,247.1L617.6,247.1z M588.2,142.9h-5.1
		v6.4h5.1V142.9z M579.8,142.9h-3.7v6.4h3.7V142.9z M576.1,109.4h3.7V103h-3.7V109.4z M583.1,109.4h5.1V103h-5.1V109.4z
		 M576.1,230.4h3.7v-7.8h-3.7V230.4z M583.1,230.4h5.1v-7.8h-5.1V230.4z M588.2,189.1v-6.4h-5.1v6.4H588.2z M579.8,189.1v-6.4h-3.7
		v6.4H579.8z"/>
	<path class="st3" d="M535.7,307.6v-26.5h23.8c0,0,8,4.6,8.4,16.7c0.1,4.1-0.9,7.3-2.2,9.7L535.7,307.6L535.7,307.6z"/>
	<polygon class="st3" points="645.7,278.9 679.2,278.9 679.2,202.9 645.7,202.9 	"/>
	<polygon class="st3" points="639.6,202.9 704.3,202.9 704.3,190.4 639.6,190.4 	"/>
	<polygon class="st3" points="641.5,198.1 699,198.1 699,192.8 641.5,192.8 	"/>
	<polygon class="st3" points="671.2,278.9 679.2,278.9 679.2,205.7 671.2,205.7 	"/>
	<polygon class="st3" points="671.2,265.4 679.2,265.4 679.2,246.9 671.2,246.9 	"/>
	<polygon class="st3" points="656,191.4 684.1,191.4 684.1,163 656,163 	"/>
	<polygon class="st3" points="671.2,182.5 680.7,182.5 680.7,167.5 671.2,167.5 	"/>
	<polygon class="st3" points="679.2,278.9 699,278.9 699,202.9 679.2,202.9 	"/>
	<polygon class="st3" points="689.1,261.5 710.8,261.5 710.8,227.4 689.1,227.4 	"/>
	<path class="st2" d="M396.9,41.1c0,6,3.6,11.3,9,14.3v2.8h-10.6v6.8h10.6v2.1h-10.6V74h10.6v2.1h-10.6v6.8h10.6V85h-10.6v6.8h10.6
		V94h-10.6v6.8h10.6v2.1h-10.6v6.8h10.6v2.1h-10.6v6.8h10.6v2.1h-10.6v6.8h10.6v2.1h-10.6v6.8h10.6v2.1h-10.6v6.8h10.6v2.1h-10.6
		v6.8h10.6v2.1h-10.6v6.8h10.6v2.1h-10.6v6.8h10.6v2.3h-10.6v4.4h-18.5v128.8H456V178.8h-18.7v-4.4H428v-2.3h9.4v-6.8H428v-2.1h9.4
		v-6.8H428v-2.1h9.4v-6.8H428v-2.1h9.4v-6.8H428v-2.1h9.4v-6.8H428v-2.1h9.4v-6.8H428v-2.1h9.4v-6.8H428v-2.1h9.4v-6.8H428v-2.1h9.4
		V94H428v-2.1h9.4V85H428v-2.1h9.4v-6.8H428V74h9.4v-6.8H428v-2.1h9.4v-6.8H428v-2.8c5.4-3.1,9-8.3,9-14.3c0-9.5-9-17.2-20.1-17.2
		C405.9,24,396.9,31.6,396.9,41.1L396.9,41.1z"/>
	<polygon class="st2" points="487.1,134.8 467.5,134.8 467.5,117 487.1,117 	"/>
	<polygon class="st2" points="473.1,122.5 471,122.5 471,78.2 473.1,78.2 	"/>
	<polygon class="st4" points="479,122.5 477,122.5 477,100.4 479,100.4 	"/>
	<polygon class="st2" points="484,122.5 482.1,122.5 482.1,91.9 484,91.9 	"/>
	<path class="st4" d="M498.3,186.3c0,35.2-9.5,63.8-21.3,63.8c-11.8,0-21.3-28.5-21.3-63.8c0-35.2,9.5-63.8,21.3-63.8
		C488.8,122.5,498.3,151.1,498.3,186.3z"/>
	<polygon class="st3" points="498.3,275.5 455.7,275.5 455.7,186.3 498.3,186.3 	"/>
	<polygon class="st3" points="481,197.4 473.1,197.4 473.1,129.8 481,129.8 	"/>
	<polygon class="st3" points="467.5,279.4 461.9,279.4 461.9,176.9 467.5,176.9 	"/>
	<polygon class="st3" points="473.1,279.4 481,279.4 481,206.5 473.1,206.5 	"/>
	<path class="st2" d="M550.1,263.1c0,10.6-10,19.2-22.3,19.2c-12.3,0-22.3-8.6-22.3-19.2c0-10.6,10-19.2,22.3-19.2
		C540.1,243.9,550.1,252.5,550.1,263.1z"/>
	<polygon class="st3" points="553.9,275.7 509.6,275.7 509.6,253.9 553.9,253.9 	"/>
	<polygon class="st2" points="529.1,243.9 526.5,243.9 526.5,125 529.1,125 	"/>
	<path class="st2" d="M553.2,231c0,1-11.4,1.8-25.5,1.8c-14.1,0-25.5-0.8-25.5-1.8c0-1,11.4-1.8,25.5-1.8
		C541.8,229.2,553.2,230,553.2,231L553.2,231z"/>
	<path class="st2" d="M550.8,221c0,1-10.4,1.8-23.2,1.8c-12.8,0-23.2-0.8-23.2-1.8c0-1,10.4-1.8,23.2-1.8
		C540.4,219.2,550.8,220,550.8,221z"/>
	<path class="st2" d="M552.2,203.5c0,1-9.3,1.8-20.7,1.8c-11.4,0-20.7-0.8-20.7-1.8c0-1,9.3-1.8,20.7-1.8
		C543,201.6,552.2,202.5,552.2,203.5z"/>
	<path class="st2" d="M545.2,198.3c0,1-8,1.8-17.8,1.8c-9.8,0-17.8-0.8-17.8-1.8c0-1,8-1.8,17.8-1.8
		C537.3,196.5,545.2,197.3,545.2,198.3z"/>
	<path class="st2" d="M542,187.8c0,1-6.5,1.8-14.5,1.8c-8,0-14.5-0.8-14.5-1.8c0-1,6.5-1.8,14.5-1.8C535.5,186,542,186.8,542,187.8z
		"/>
	<polygon class="st2" points="529.8,178.9 523.2,178.9 523.2,166.9 529.8,166.9 	"/>
	<polygon class="st2" points="528.8,177 524.1,177 524.1,169 528.8,169 	"/>
	<path class="st2" d="M538.8,147.3c0,7-5,12.7-11.1,12.7c-6.1,0-11.1-5.7-11.1-12.7c0-7,5-12.7,11.1-12.7
		C533.9,134.6,538.8,140.2,538.8,147.3z"/>
	<path class="st2" d="M533.3,121.9c0,3.6-2.6,6.6-5.8,6.6c-3.2,0-5.8-2.9-5.8-6.6c0-3.6,2.6-6.6,5.8-6.6
		C530.7,115.3,533.3,118.2,533.3,121.9z"/>
	<polygon class="st2" points="362.9,182.3 336.3,182.3 336.3,113.2 362.9,113.2 	"/>
	<polygon class="st2" points="367.8,113.2 316.3,113.2 316.3,101.8 367.8,101.8 	"/>
	<polygon class="st2" points="366.2,108.9 320.5,108.9 320.5,104.1 366.2,104.1 	"/>
	<polygon class="st2" points="342.6,182.3 336.3,182.3 336.3,115.7 342.6,115.7 	"/>
	<polygon class="st2" points="346.3,182.3 352.9,182.3 352.9,115.7 346.3,115.7 	"/>
	<polygon class="st2" points="342.6,170 336.3,170 336.3,153.2 342.6,153.2 	"/>
	<polygon class="st4" points="352.9,170 346.3,170 346.3,153.2 352.9,153.2 	"/>
	<polygon class="st2" points="354.7,102.8 332.3,102.8 332.3,77 354.7,77 	"/>
	<polygon class="st2" points="354.7,101.8 345,101.8 345,77 354.7,77 	"/>
	<polygon class="st4" points="342.6,94.7 335.1,94.7 335.1,81.1 342.6,81.1 	"/>
	<polygon class="st2" points="352.9,94.7 344.7,94.7 344.7,81.1 352.9,81.1 	"/>
	<polygon class="st2" points="336.3,182.3 320.5,182.3 320.5,113.2 336.3,113.2 	"/>
	<polygon class="st2" points="354.7,155.8 377.4,155.8 377.4,118.6 354.7,118.6 	"/>
	<polygon class="st2" points="328.4,166.4 311.1,166.4 311.1,135.5 328.4,135.5 	"/>
	<path class="st5" d="M59.1,198.9c0-6.1-5-10.9-11-10.9c-2.2,0-4,0.6-5.8,1.6c-2.6-3.4-6.6-5.7-11.2-5.7c-7.8,0-14.1,6.3-14.1,14.2
		v0.8c-3.6,1.6-6,5.1-6,9.3c0,5.7,4.4,10.1,10,10.1H55c5.6,0,10-4.5,10-10.1C65.1,204,62.7,200.6,59.1,198.9L59.1,198.9z"/>
	<path class="st5" d="M148.4,122.6c0-3.7-3.1-6.7-6.8-6.7c-1.4,0-2.5,0.4-3.6,1c-1.6-2.1-4.1-3.5-6.9-3.5c-4.8,0-8.6,3.8-8.6,8.7
		v0.5c-2.2,1-3.7,3.1-3.7,5.7c0,3.5,2.7,6.2,6.1,6.2h20.9c3.4,0,6.1-2.7,6.1-6.2C152.1,125.6,150.6,123.5,148.4,122.6L148.4,122.6z"
		/>
	<path class="st5" d="M81.7,90.1c0-8.5-7-15.2-15.4-15.2c-3.1,0-5.6,0.8-8.1,2.3c-3.7-4.8-9.3-7.9-15.7-7.9
		c-10.9,0-19.6,8.7-19.6,19.8v1.1c-5,2.3-8.4,7.1-8.4,13c0,7.9,6.2,14.1,14,14.1H76c7.8,0,14-6.2,14-14.1
		C90.1,97.1,86.7,92.3,81.7,90.1z"/>
	<path class="st5" d="M811.8,109.2c0-6.1-5-10.9-11.1-10.9c-2.2,0-4,0.6-5.8,1.6c-2.6-3.4-6.6-5.7-11.3-5.7
		c-7.8,0-14.1,6.3-14.1,14.2v0.8c-3.6,1.6-6,5.1-6,9.3c0,5.7,4.4,10.1,10,10.1h34.1c5.6,0,10-4.5,10-10.1
		C817.8,114.2,815.4,110.8,811.8,109.2L811.8,109.2z"/>
	<g id="_3799747488">
		<polygon class="st2" points="184.5,302.2 178.8,302.2 178.8,195.8 184.5,195.8 		"/>
		<polygon class="st2" points="243.5,305.5 237.4,305.5 237.4,140.5 243.5,140.5 		"/>
		<g>
			<polygon class="st6" points="200.4,307.6 200.4,111 223.6,111 223.6,307.6 			"/>
		</g>
		<g>
			<polygon class="st1" points="233.6,126.8 189.4,126.9 189.4,118.4 233.6,118.4 			"/>
		</g>
		<g>
			<polygon class="st1" points="233.6,137.9 189.4,137.9 189.4,129.5 233.6,129.5 			"/>
		</g>
		<g>
			<polygon class="st1" points="233.7,149 189.4,149 189.4,140.6 233.7,140.6 			"/>
		</g>
		<g>
			<polygon class="st1" points="233.7,160.1 189.4,160.1 189.4,151.7 233.7,151.6 			"/>
		</g>
		<g>
			<polygon class="st1" points="233.7,171.1 189.4,171.2 189.4,162.7 233.7,162.7 			"/>
		</g>
		<g>
			<polygon class="st1" points="233.7,182.2 189.4,182.2 189.4,173.8 233.7,173.8 			"/>
		</g>
		<g>
			<polygon class="st1" points="233.7,193.3 189.4,193.3 189.4,184.9 233.7,184.8 			"/>
		</g>
		<g>
			<polygon class="st1" points="233.7,204.3 189.4,204.4 189.4,195.9 233.7,195.9 			"/>
		</g>
		<g>
			<polygon class="st1" points="233.7,215.4 189.5,215.4 189.4,207 233.7,207 			"/>
		</g>
		<g>
			<polygon class="st1" points="233.7,226.8 189.5,226.9 189.5,217.8 233.7,217.8 			"/>
		</g>
		<g>
			<polygon class="st1" points="233.7,237.3 189.5,237.9 189.4,229.4 233.6,228.9 			"/>
		</g>
		<g>
			<polygon class="st1" points="233.7,248.6 189.4,248.6 189.4,240.2 233.7,240.2 			"/>
		</g>
		<g>
			<polygon class="st1" points="233.7,259.7 189.4,259.7 189.4,251.3 233.7,251.3 			"/>
		</g>
		<g>
			<polygon class="st1" points="233.7,271 189.4,271 189.4,262.5 233.7,262.5 			"/>
		</g>
		<g>
			<polygon class="st1" points="233.7,282 189.4,282 189.4,273.6 233.7,273.6 			"/>
		</g>
		<g>
			<polygon class="st1" points="233.7,293.1 189.4,293.1 189.4,284.7 233.7,284.7 			"/>
		</g>
		<g>
			<polygon class="st1" points="233.7,304.2 189.4,304.2 189.4,295.7 233.7,295.7 			"/>
		</g>
		<g>
			<polygon class="st1" points="189.4,307.6 189.4,306.8 233.7,306.8 233.7,307.6 			"/>
		</g>
	</g>
	<polygon class="st7" points="118.4,307.6 118.4,225.1 159.4,225.1 159.4,307.6 	"/>
	<polygon class="st2" points="118.4,307.6 118.4,228.8 128.2,228.8 128.2,307.6 	"/>
	<polygon class="st2" points="144,307.6 144,228.8 133.8,228.8 133.8,307.6 	"/>
	<g id="_3799778256">
		<polygon class="st2" points="146.8,209.9 112.3,209.9 112.3,172.5 146.8,172.5 		"/>
	</g>
	<g id="_3799778640">
		<polygon class="st2" points="146.8,208.6 131.8,208.6 131.8,172.5 146.8,172.5 		"/>
	</g>
	<g id="_3799779024">
		<polygon class="st2" points="128.2,198.2 116.5,198.2 116.5,178.5 128.2,178.5 		"/>
	</g>
	<g id="_3799779408">
		<polygon class="st2" points="144,198.2 131.4,198.2 131.4,178.5 144,178.5 		"/>
	</g>
	<polygon class="st1" points="94.1,307.6 94.1,225.1 118.4,225.1 118.4,307.6 	"/>
	<g id="_3799780128">
		<polygon class="st8" points="146.8,286.9 181.8,286.9 181.8,232.9 146.8,232.9 		"/>
	</g>
	<g id="_3799780608">
		<polygon class="st8" points="106.3,302.4 79.7,302.4 79.7,257.5 106.3,257.5 		"/>
	</g>
	<g id="_3799780992">
		<polygon class="st2" points="166.9,225.1 87.6,225.1 87.6,197.3 166.9,197.3 		"/>
	</g>
	<polygon class="st9" points="164.5,215.5 90.5,215.5 90.5,200.1 164.5,200.1 	"/>
	<g id="_3799781808">
		<polygon class="st1" points="252.4,307.6 252.4,78.6 279.1,78.6 279.1,307.6 		"/>
	</g>
	<g id="_3799782192">
		<polygon class="st6" points="255.9,307.6 255.9,78.6 257.5,78.6 257.5,307.6 		"/>
	</g>
	<g id="_3799782576">
		<polygon class="st6" points="261.9,307.6 261.9,78.6 263.5,78.6 263.5,307.6 		"/>
	</g>
	<g id="_3799782960">
		<polygon class="st6" points="266.8,307.6 266.8,78.6 268.3,78.6 268.3,307.6 		"/>
	</g>
	<g id="_3790080368">
		<polygon class="st6" points="272.2,307.6 272.2,78.6 273.7,78.6 273.7,307.6 		"/>
	</g>
	<g id="_3790105856">
		<polygon class="st6" points="267.3,78.6 264.6,78.6 264.6,26.4 267.3,26.4 		"/>
	</g>
	<g id="_3790099184">
		<path class="st2" d="M287.4,72.4c0,6-9.7,10.9-21.6,10.9c-11.9,0-21.6-4.9-21.6-10.9s9.7-10.9,21.6-10.9
			C277.7,61.6,287.4,66.4,287.4,72.4z"/>
	</g>
	<g id="_3790114832">
		<path class="st6" d="M273.7,60.1c0,1.2-3.3,2.2-7.5,2.2c-4.1,0-7.5-1-7.5-2.2c0-1.2,3.3-2.2,7.5-2.2
			C270.4,57.9,273.7,58.9,273.7,60.1z"/>
	</g>
	<path class="st6" d="M554.6,272.5h-1.9c27.8,0,33.3,14.7,33.3,35.5h-2.8h-61h-2.5c0-22.2,6.9-35.5,33-35.5h-1.9v-14.2
		c-20.3-0.1-36.6-2.6-36.6-5.6c0-3,16.2-5.5,36.6-5.6v-5c-18.4-0.1-33.1-2.1-33.1-4.6c0-2.5,14.7-4.5,33.1-4.6v-6.5
		c-16.3-0.1-29.2-1.8-29.2-3.9c0-2.1,12.9-3.8,29.2-3.9v-8.2c-14-0.1-25.2-1.7-25.2-3.7c0-2,11.1-3.6,25.2-3.7v-9
		c-11.3-0.1-20.3-1.1-20.3-2.4c0-1.3,9-2.3,20.3-2.4v-14.8h3.8v14.8c10.9,0.1,19.3,1.1,19.3,2.4c0,1.2-8.5,2.2-19.3,2.4v9
		c13.5,0.2,24.1,1.8,24.1,3.7c0,1.9-10.6,3.5-24.1,3.7v8.2c16.1,0.1,28.8,1.8,28.8,3.9c0,2.1-12.7,3.8-28.8,3.9v6.5
		c18.1,0.2,32.5,2.1,32.5,4.6c0,2.4-14.3,4.4-32.5,4.6v5c20,0.2,35.9,2.6,35.9,5.6c0,3-15.9,5.4-35.9,5.6V272.5L554.6,272.5z"/>
	<g id="_3790102736">
		<polygon class="st8" points="708.2,200.5 651.4,200.5 651.4,307.6 708.2,307.6 		"/>
	</g>
	<g id="_3789392032">
		<polygon class="st1" points="681.5,307.6 681.5,200.5 697.9,200.5 697.9,307.6 		"/>
	</g>
	<g id="_3789403120">
		<polygon class="st8" points="678.1,260.3 658.3,260.3 658.3,233.2 678.1,233.2 		"/>
	</g>
	<g id="_3789399424">
		<polygon class="st8" points="678,290.6 658.3,290.6 658.3,263.6 678,263.6 		"/>
	</g>
	<g id="_3789382720">
		<polygon class="st6" points="693.6,307.6 693.6,200.5 703.1,200.5 703.1,307.6 		"/>
	</g>
	<polygon class="st6" points="314.8,307.6 314.8,222 341,222 341,307.6 	"/>
	<g id="_3789371296">
		<g>
			<path class="st8" d="M327.8,307c0,0.2,0,0.5-0.1,0.7h-3.8c-0.1-0.2-0.1-0.4-0.1-0.7c0-1.1,0.9-2,2-2
				C326.9,305,327.8,305.8,327.8,307L327.8,307z"/>
			<path class="st8" d="M322.6,307c0,0.2,0,0.5-0.1,0.7h-3.8c-0.1-0.2-0.1-0.4-0.1-0.7c0-1.1,0.9-2,2-2
				C321.8,305,322.6,305.8,322.6,307L322.6,307z"/>
			<path class="st8" d="M332.9,307c0,0.2,0,0.5-0.1,0.7H329c-0.1-0.2-0.1-0.4-0.1-0.7c0-1.1,0.9-2,2-2
				C332,305,332.9,305.8,332.9,307L332.9,307z"/>
			<path class="st8" d="M338,307c0,0.2,0,0.5-0.1,0.7h-3.8c-0.1-0.2-0.1-0.4-0.1-0.7c0-1.1,0.9-2,2-2C337.1,305,338,305.8,338,307
				L338,307z"/>
			<path class="st8" d="M327.8,301c0,1.1-0.9,2-2,2c-1.1,0-2-0.9-2-2c0-1.1,0.9-2,2-2C326.9,299,327.8,299.9,327.8,301z"/>
			<path class="st8" d="M322.6,301c0,1.1-0.9,2-2,2c-1.1,0-2-0.9-2-2c0-1.1,0.9-2,2-2C321.8,299,322.6,299.9,322.6,301z"/>
			<path class="st8" d="M332.9,301c0,1.1-0.9,2-2,2c-1.1,0-2-0.9-2-2c0-1.1,0.9-2,2-2C332,299,332.9,299.9,332.9,301z"/>
			<path class="st8" d="M338,301c0,1.1-0.9,2-2,2c-1.1,0-2-0.9-2-2c0-1.1,0.9-2,2-2C337.1,299,338,299.9,338,301z"/>
			<path class="st8" d="M327.8,295c0,1.1-0.9,2-2,2c-1.1,0-2-0.9-2-2c0-1.1,0.9-2,2-2C326.9,293,327.8,293.9,327.8,295z"/>
			<path class="st8" d="M322.6,295c0,1.1-0.9,2-2,2c-1.1,0-2-0.9-2-2c0-1.1,0.9-2,2-2C321.8,293,322.6,293.9,322.6,295z"/>
			<path class="st8" d="M332.9,295c0,1.1-0.9,2-2,2c-1.1,0-2-0.9-2-2c0-1.1,0.9-2,2-2C332,293,332.9,293.9,332.9,295z"/>
			<path class="st8" d="M338,295c0,1.1-0.9,2-2,2c-1.1,0-2-0.9-2-2c0-1.1,0.9-2,2-2C337.1,293,338,293.9,338,295z"/>
			<path class="st8" d="M327.8,289c0,1.1-0.9,2-2,2c-1.1,0-2-0.9-2-2c0-1.1,0.9-2,2-2C326.9,287,327.8,287.9,327.8,289z"/>
			<path class="st8" d="M322.6,289c0,1.1-0.9,2-2,2c-1.1,0-2-0.9-2-2c0-1.1,0.9-2,2-2C321.8,287,322.6,287.9,322.6,289z"/>
			<path class="st8" d="M332.9,289c0,1.1-0.9,2-2,2c-1.1,0-2-0.9-2-2c0-1.1,0.9-2,2-2C332,287,332.9,287.9,332.9,289z"/>
			<path class="st8" d="M338,289c0,1.1-0.9,2-2,2c-1.1,0-2-0.9-2-2c0-1.1,0.9-2,2-2C337.1,287,338,287.9,338,289z"/>
			<path class="st8" d="M327.8,283c0,1.1-0.9,2-2,2c-1.1,0-2-0.9-2-2c0-1.1,0.9-2,2-2C326.9,281,327.8,281.9,327.8,283z"/>
			<path class="st8" d="M322.6,283c0,1.1-0.9,2-2,2c-1.1,0-2-0.9-2-2c0-1.1,0.9-2,2-2C321.8,281,322.6,281.9,322.6,283z"/>
			<path class="st8" d="M332.9,283c0,1.1-0.9,2-2,2c-1.1,0-2-0.9-2-2c0-1.1,0.9-2,2-2C332,281,332.9,281.9,332.9,283z"/>
			<path class="st8" d="M338,283c0,1.1-0.9,2-2,2c-1.1,0-2-0.9-2-2c0-1.1,0.9-2,2-2C337.1,281,338,281.9,338,283z"/>
			<path class="st8" d="M327.8,277c0,1.1-0.9,2-2,2c-1.1,0-2-0.9-2-2c0-1.1,0.9-2,2-2C326.9,275,327.8,275.9,327.8,277z"/>
			<path class="st8" d="M322.6,277c0,1.1-0.9,2-2,2c-1.1,0-2-0.9-2-2c0-1.1,0.9-2,2-2C321.8,275,322.6,275.9,322.6,277z"/>
			<path class="st8" d="M332.9,277c0,1.1-0.9,2-2,2c-1.1,0-2-0.9-2-2c0-1.1,0.9-2,2-2C332,275,332.9,275.9,332.9,277z"/>
			<path class="st8" d="M338,277c0,1.1-0.9,2-2,2c-1.1,0-2-0.9-2-2c0-1.1,0.9-2,2-2C337.1,275,338,275.9,338,277z"/>
			<path class="st8" d="M327.8,270.8c0,1.1-0.9,2-2,2c-1.1,0-2-0.9-2-2c0-1.1,0.9-2,2-2C326.9,268.8,327.8,269.7,327.8,270.8z"/>
			<path class="st8" d="M322.6,270.8c0,1.1-0.9,2-2,2c-1.1,0-2-0.9-2-2c0-1.1,0.9-2,2-2C321.8,268.8,322.6,269.7,322.6,270.8z"/>
			<path class="st8" d="M332.9,270.8c0,1.1-0.9,2-2,2c-1.1,0-2-0.9-2-2c0-1.1,0.9-2,2-2C332,268.8,332.9,269.7,332.9,270.8z"/>
			<path class="st8" d="M338,270.8c0,1.1-0.9,2-2,2c-1.1,0-2-0.9-2-2c0-1.1,0.9-2,2-2C337.1,268.8,338,269.7,338,270.8z"/>
			<path class="st8" d="M327.8,264.8c0,1.1-0.9,2-2,2c-1.1,0-2-0.9-2-2c0-1.1,0.9-2,2-2C326.9,262.8,327.8,263.7,327.8,264.8z"/>
			<path class="st8" d="M322.6,264.8c0,1.1-0.9,2-2,2c-1.1,0-2-0.9-2-2c0-1.1,0.9-2,2-2C321.8,262.8,322.6,263.7,322.6,264.8z"/>
			<path class="st8" d="M332.9,264.8c0,1.1-0.9,2-2,2c-1.1,0-2-0.9-2-2c0-1.1,0.9-2,2-2C332,262.8,332.9,263.7,332.9,264.8z"/>
			<path class="st8" d="M338,264.8c0,1.1-0.9,2-2,2c-1.1,0-2-0.9-2-2c0-1.1,0.9-2,2-2C337.1,262.8,338,263.7,338,264.8z"/>
			<path class="st8" d="M327.8,258.8c0,1.1-0.9,2-2,2c-1.1,0-2-0.9-2-2c0-1.1,0.9-2,2-2C326.9,256.8,327.8,257.7,327.8,258.8z"/>
			<path class="st8" d="M322.6,258.8c0,1.1-0.9,2-2,2c-1.1,0-2-0.9-2-2c0-1.1,0.9-2,2-2C321.8,256.8,322.6,257.7,322.6,258.8z"/>
			<path class="st8" d="M332.9,258.8c0,1.1-0.9,2-2,2c-1.1,0-2-0.9-2-2c0-1.1,0.9-2,2-2C332,256.8,332.9,257.7,332.9,258.8z"/>
			<path class="st8" d="M338,258.8c0,1.1-0.9,2-2,2c-1.1,0-2-0.9-2-2c0-1.1,0.9-2,2-2C337.1,256.8,338,257.7,338,258.8z"/>
			<path class="st8" d="M327.8,252.8c0,1.1-0.9,2-2,2c-1.1,0-2-0.9-2-2c0-1.1,0.9-2,2-2C326.9,250.8,327.8,251.7,327.8,252.8z"/>
			<path class="st8" d="M322.6,252.8c0,1.1-0.9,2-2,2c-1.1,0-2-0.9-2-2c0-1.1,0.9-2,2-2C321.8,250.8,322.6,251.7,322.6,252.8z"/>
			<path class="st8" d="M332.9,252.8c0,1.1-0.9,2-2,2c-1.1,0-2-0.9-2-2c0-1.1,0.9-2,2-2C332,250.8,332.9,251.7,332.9,252.8z"/>
			<path class="st8" d="M338,252.8c0,1.1-0.9,2-2,2c-1.1,0-2-0.9-2-2c0-1.1,0.9-2,2-2C337.1,250.8,338,251.7,338,252.8z"/>
			<path class="st8" d="M327.8,246.8c0,1.1-0.9,2-2,2c-1.1,0-2-0.9-2-2c0-1.1,0.9-2,2-2C326.9,244.8,327.8,245.7,327.8,246.8z"/>
			<path class="st8" d="M322.6,246.8c0,1.1-0.9,2-2,2c-1.1,0-2-0.9-2-2c0-1.1,0.9-2,2-2C321.8,244.8,322.6,245.7,322.6,246.8z"/>
			<path class="st8" d="M332.9,246.8c0,1.1-0.9,2-2,2c-1.1,0-2-0.9-2-2c0-1.1,0.9-2,2-2C332,244.8,332.9,245.7,332.9,246.8z"/>
			<path class="st8" d="M338,246.8c0,1.1-0.9,2-2,2c-1.1,0-2-0.9-2-2c0-1.1,0.9-2,2-2C337.1,244.8,338,245.7,338,246.8z"/>
			<path class="st8" d="M327.8,240.8c0,1.1-0.9,2-2,2c-1.1,0-2-0.9-2-2c0-1.1,0.9-2,2-2C326.9,238.8,327.8,239.7,327.8,240.8z"/>
			<path class="st8" d="M322.6,240.8c0,1.1-0.9,2-2,2c-1.1,0-2-0.9-2-2c0-1.1,0.9-2,2-2C321.8,238.8,322.6,239.7,322.6,240.8z"/>
			<path class="st8" d="M332.9,240.8c0,1.1-0.9,2-2,2c-1.1,0-2-0.9-2-2c0-1.1,0.9-2,2-2C332,238.8,332.9,239.7,332.9,240.8z"/>
			<path class="st8" d="M338,240.8c0,1.1-0.9,2-2,2c-1.1,0-2-0.9-2-2c0-1.1,0.9-2,2-2C337.1,238.8,338,239.7,338,240.8z"/>
			<path class="st8" d="M327.8,234.8c0,1.1-0.9,2-2,2c-1.1,0-2-0.9-2-2c0-1.1,0.9-2,2-2C326.9,232.8,327.8,233.7,327.8,234.8z"/>
			<path class="st8" d="M322.6,234.8c0,1.1-0.9,2-2,2c-1.1,0-2-0.9-2-2c0-1.1,0.9-2,2-2C321.8,232.8,322.6,233.7,322.6,234.8z"/>
			<path class="st8" d="M332.9,234.8c0,1.1-0.9,2-2,2c-1.1,0-2-0.9-2-2c0-1.1,0.9-2,2-2C332,232.8,332.9,233.7,332.9,234.8z"/>
			<path class="st8" d="M338,234.8c0,1.1-0.9,2-2,2c-1.1,0-2-0.9-2-2c0-1.1,0.9-2,2-2C337.1,232.8,338,233.7,338,234.8z"/>
			<path class="st8" d="M327.8,228.8c0,1.1-0.9,2-2,2c-1.1,0-2-0.9-2-2c0-1.1,0.9-2,2-2C326.9,226.8,327.8,227.7,327.8,228.8z"/>
			<path class="st8" d="M322.6,228.8c0,1.1-0.9,2-2,2c-1.1,0-2-0.9-2-2c0-1.1,0.9-2,2-2C321.8,226.8,322.6,227.7,322.6,228.8z"/>
			<path class="st8" d="M332.9,228.8c0,1.1-0.9,2-2,2c-1.1,0-2-0.9-2-2c0-1.1,0.9-2,2-2C332,226.8,332.9,227.7,332.9,228.8z"/>
			<path class="st8" d="M338,228.8c0,1.1-0.9,2-2,2c-1.1,0-2-0.9-2-2c0-1.1,0.9-2,2-2C337.1,226.8,338,227.7,338,228.8z"/>
		</g>
	</g>
	<g id="_3789374320">
		<polygon class="st1" points="332.9,221.8 323.8,221.8 323.8,166.4 332.9,166.4 		"/>
	</g>
	<g id="_3792025648">
		<path class="st8" d="M330.3,218.9c0,1.1-0.9,2-2,2c-1.1,0-2-0.9-2-2c0-1.1,0.9-2,2-2C329.4,216.9,330.3,217.8,330.3,218.9z"/>
	</g>
	<g id="_3792056944">
		<path class="st8" d="M330.3,212.9c0,1.1-0.9,2-2,2c-1.1,0-2-0.9-2-2c0-1.1,0.9-2,2-2C329.4,210.9,330.3,211.8,330.3,212.9z"/>
	</g>
	<g id="_3792027568">
		<path class="st8" d="M330.3,206.9c0,1.1-0.9,2-2,2c-1.1,0-2-0.9-2-2c0-1.1,0.9-2,2-2C329.4,204.9,330.3,205.8,330.3,206.9z"/>
	</g>
	<g id="_3792053104">
		<path class="st8" d="M330.3,200.9c0,1.1-0.9,2-2,2c-1.1,0-2-0.9-2-2c0-1.1,0.9-2,2-2C329.4,198.9,330.3,199.8,330.3,200.9z"/>
	</g>
	<g id="_3792077200">
		<path class="st8" d="M330.3,194.9c0,1.1-0.9,2-2,2c-1.1,0-2-0.9-2-2c0-1.1,0.9-2,2-2C329.4,192.9,330.3,193.8,330.3,194.9z"/>
	</g>
	<g id="_3792064768">
		<path class="st8" d="M330.3,188.9c0,1.1-0.9,2-2,2c-1.1,0-2-0.9-2-2c0-1.1,0.9-2,2-2C329.4,186.9,330.3,187.8,330.3,188.9z"/>
	</g>
	<g id="_3791682208">
		<path class="st8" d="M330.3,182.9c0,1.1-0.9,2-2,2c-1.1,0-2-0.9-2-2c0-1.1,0.9-2,2-2C329.4,180.9,330.3,181.8,330.3,182.9z"/>
	</g>
	<g id="_3791686576">
		<path class="st8" d="M330.3,176.9c0,1.1-0.9,2-2,2c-1.1,0-2-0.9-2-2c0-1.1,0.9-2,2-2C329.4,174.9,330.3,175.8,330.3,176.9z"/>
	</g>
	<g id="_3791685568">
		<path class="st8" d="M330.3,170.7c0,1.1-0.9,2-2,2c-1.1,0-2-0.9-2-2c0-1.1,0.9-2,2-2C329.4,168.7,330.3,169.6,330.3,170.7z"/>
	</g>
	<g id="_3791688352">
		<polygon class="st1" points="346.7,307.6 346.7,206.4 412.3,206.4 412.3,307.6 		"/>
	</g>
	<g id="_3791654176">
		<polygon class="st2" points="360,307.6 360,195.2 365.3,195.2 365.3,307.6 		"/>
	</g>
	<g id="_3791630416">
		<polygon class="st6" points="385.6,307.6 385.6,230.6 373.4,230.6 373.4,307.6 		"/>
	</g>
	<polygon class="st2" points="486.5,307.6 486.5,183.1 490.2,183.1 490.2,307.6 	"/>
	<polygon class="st1" points="461.8,307.6 461.8,183.1 467.6,183.1 467.6,307.6 	"/>
	<polygon class="st8" points="474.4,307.6 474.4,173.6 471.2,173.6 471.2,307.6 	"/>
	<g id="_3791683504">
		<path class="st6" d="M507.7,197c0,5.9-4.7,10.7-10.6,10.7h-41c-5.8,0-10.6-4.8-10.6-10.7c0-5.9,4.7-10.7,10.6-10.7h41
			C503,186.4,507.7,191.2,507.7,197z"/>
	</g>
	<g id="_3791626384">
		<path class="st6" d="M507.7,247.8c0,5.9-4.7,10.7-10.6,10.7h-41c-5.8,0-10.6-4.8-10.6-10.7c0-5.9,4.7-10.7,10.6-10.7h41
			C503,237.2,507.7,242,507.7,247.8z"/>
	</g>
	<g id="_3791683072">
		<path class="st6" d="M507.7,273.3c0,5.9-4.7,10.7-10.6,10.7h-41c-5.8,0-10.6-4.8-10.6-10.7c0-5.9,4.7-10.7,10.6-10.7h41
			C503,262.6,507.7,267.4,507.7,273.3z"/>
	</g>
	<g id="_3791644624">
		<path class="st6" d="M507.7,222.4c0,5.9-4.7,10.7-10.6,10.7h-41c-5.8,0-10.6-4.8-10.6-10.7c0-5.9,4.7-10.7,10.6-10.7h41
			C503,211.8,507.7,216.6,507.7,222.4L507.7,222.4z"/>
	</g>
	<path class="st2" d="M499.7,283.8h-23v-21h23c0,0,7.7,2.9,8.1,10.7C508.1,280.8,499.7,283.8,499.7,283.8z M499.7,233h-23v-21h23
		c0,0,7.7,2.9,8.1,10.7C508.1,230,499.7,233,499.7,233z M499.7,207.5h-23v-21h23c0,0,7.7,2.9,8.1,10.7
		C508.1,204.6,499.7,207.5,499.7,207.5L499.7,207.5z M499.7,258.2h-23v-21h23c0,0,7.7,2.9,8.1,10.7
		C508.1,255.3,499.7,258.2,499.7,258.2z"/>
	<polygon class="st8" points="479.3,307.6 479.3,178.1 484.8,178.1 484.8,307.6 	"/>
	<g id="_3791633200">
		<polygon class="st2" points="716.9,201 646.2,201 646.2,184.8 716.9,184.8 		"/>
	</g>
	<g>
		<defs>
			<rect id="SVGID_1_" x="397.6" y="26.3" width="37" height="34.3"/>
		</defs>
		<clipPath id="SVGID_2_">
			<use xlink:href="#SVGID_1_"  style="overflow:visible;"/>
		</clipPath>
		<g class="st10">
		</g>
	</g>
	<g id="_3791661808">
		<polygon class="st11" points="415.1,48.1 411.9,48.5 409.1,50.1 406.5,49.4 405,47.3 403.9,46.4 403.5,41.4 404.8,38.4 
			404.6,36.1 406.3,34.6 408.3,31.1 411.3,31 414.1,29.4 416.2,30.2 418.3,29.4 421.1,31 424.1,31.1 426.2,34.6 427.8,36.1 
			427.6,38.4 428.9,41.4 428.5,46.4 427.4,47.3 425.9,49.4 423.3,50.1 420.5,48.5 417.3,48.1 416.2,47.7 		"/>
		<path class="st11" d="M431,37.2c0,0-0.1-0.1-0.1-0.1c-0.3-0.3-0.6-0.5-0.9-0.7c-0.1-0.1-0.2-0.2-0.3-0.3c-0.1-0.1,0-0.3-0.2-0.3
			c0,0-0.1,0-0.1,0c-0.3,0.2-0.3,0.5-0.4,0.8c-0.2,0.5-0.7,0.9-0.8,1.5c0,0.2,0,0.4,0.2,0.5c0,0,0.1,0,0.1,0l0,0
			c0.4,0,0.8,0.2,1.2,0.1c0.1,0,0.1,0,0.2,0l0,0c1,2.3,1.1,4.8,0.1,7.2c-1,2.2-2.9,4-5.2,4.7c-1.7,0.5-3.4,1.1-5,2
			c-1.3,0.8-2.9,1.8-3.6,3.3c-0.6-1.5-2.2-2.5-3.6-3.3c-1.6-0.9-3.2-1.5-5-2c-2.3-0.7-4.3-2.5-5.2-4.7c-1-2.4-0.9-4.9,0.1-7.2l0,0
			c0.1,0,0.1,0,0.2,0c0.4,0,0.8-0.1,1.2-0.1l0,0c0,0,0.1,0,0.1,0c0.2-0.1,0.2-0.3,0.2-0.5c-0.1-0.6-0.7-0.9-0.8-1.5
			c-0.1-0.3-0.1-0.7-0.4-0.8c0,0-0.1,0-0.1,0c-0.2,0-0.1,0.2-0.2,0.3c-0.1,0.1-0.2,0.2-0.3,0.3c-0.3,0.2-0.6,0.4-0.9,0.7
			c0,0-0.1,0.1-0.1,0.1c-0.2,0.3-0.5,0.7-0.5,1.1c0,0.2,0.1,0.2,0.2,0.3l0,0c0,0,0,0,0.1,0c0.3,0,0.6,0.1,0.9,0.2l0,0
			c-0.6,1.3-0.9,2.8-0.9,4.2c0,3.2,2.3,6.7,5.2,7.9c1.2,0.5,2.5,0.9,3.8,1.4c2.4,0.9,5.6,2.8,6,5.5c0.4-2.8,3.6-4.6,6-5.5
			c1.3-0.5,2.6-0.8,3.8-1.4c2.9-1.3,5.2-4.7,5.2-7.9c0-1.4-0.3-2.9-0.9-4.2l0,0c0.3-0.1,0.6-0.2,0.9-0.2c0,0,0,0,0.1,0h0
			c0.1,0,0.2-0.1,0.2-0.3C431.5,37.9,431.2,37.5,431,37.2L431,37.2z"/>
		<path class="st12" d="M401.5,37.1c0.3-0.3,0.6-0.5,0.9-0.7c0.1-0.1,0.2-0.2,0.3-0.3c0.1-0.1,0-0.3,0.2-0.3c0,0,0.1,0,0.1,0
			c0.3,0.2,0.3,0.5,0.4,0.8c0.2,0.5,0.7,0.9,0.8,1.5c0,0.2,0,0.4-0.2,0.5c-0.1,0-0.2,0-0.3,0c-0.2-0.1-0.5-0.2-0.7-0.3
			c-0.3-0.1-0.7-0.2-1-0.1c-0.3,0.1-1,0.6-1.1,0c0-0.4,0.3-0.8,0.5-1.1C401.5,37.2,401.5,37.1,401.5,37.1L401.5,37.1z"/>
		<path class="st13" d="M401.2,38.1c0.1-0.3,0.3-0.6,0.6-0.9"/>
		<path class="st13" d="M401.7,37.9c0.2-0.3,0.4-0.7,0.6-1"/>
		<path class="st13" d="M402.4,37.8c0.1-0.3,0.2-0.6,0.2-0.8"/>
		<path class="st13" d="M403.1,37.9c0-0.3-0.1-0.5-0.1-0.8"/>
		<path class="st13" d="M403.5,38c0-0.2-0.1-0.4-0.2-0.6"/>
		<path class="st13" d="M403.9,38.3c0-0.2-0.1-0.4-0.3-0.6"/>
		<path class="st13" d="M401.1,38.5c0.3,0,0.6,0.1,0.9,0.2"/>
		<path class="st13" d="M402.6,38.8c0.1,0,0.1,0,0.2,0c0.4,0,0.8-0.1,1.2-0.1"/>
		<path class="st13" d="M402.4,38.2c-0.8,1.4-1.2,3.1-1.2,4.7c0,3.2,2.3,6.7,5.2,7.9c1.2,0.5,2.5,0.9,3.8,1.4c2.4,0.9,5.6,2.8,6,5.5
			"/>
		<path class="st12" d="M430.9,37.1c-0.3-0.3-0.6-0.5-0.9-0.7c-0.1-0.1-0.2-0.2-0.3-0.3c-0.1-0.1,0-0.3-0.2-0.3c0,0-0.1,0-0.1,0
			c-0.3,0.2-0.3,0.5-0.4,0.8c-0.2,0.5-0.7,0.9-0.8,1.5c0,0.2,0,0.4,0.2,0.5c0.1,0,0.2,0,0.3,0c0.2-0.1,0.5-0.2,0.7-0.3
			c0.3-0.1,0.7-0.2,1-0.1c0.3,0.1,1,0.6,1.1,0c0-0.4-0.3-0.8-0.5-1.1C431,37.2,430.9,37.1,430.9,37.1L430.9,37.1z"/>
		<path class="st13" d="M431.2,38.1c-0.1-0.3-0.3-0.6-0.6-0.9"/>
		<path class="st13" d="M430.7,37.9c-0.2-0.3-0.4-0.7-0.6-1"/>
		<path class="st13" d="M430.1,37.8c-0.1-0.3-0.2-0.6-0.2-0.8"/>
		<path class="st13" d="M429.3,37.9c0-0.3,0.1-0.5,0.1-0.8"/>
		<path class="st13" d="M428.9,38c0-0.2,0.1-0.4,0.2-0.6"/>
		<path class="st13" d="M431.3,38.5c-0.3,0-0.6,0.1-0.9,0.2"/>
		<path class="st13" d="M429.9,38.8c-0.1,0-0.1,0-0.2,0c-0.4,0-0.8-0.1-1.2-0.1"/>
		<path class="st13" d="M430.1,38.2c0.8,1.4,1.2,3.1,1.2,4.7c0,3.2-2.3,6.7-5.2,7.9c-1.2,0.5-2.5,0.9-3.8,1.4
			c-2.4,0.9-5.6,2.8-6,5.5"/>
		<path class="st13" d="M429.6,38.3c1.2,2.5,1.4,5.2,0.3,7.7c-1,2.2-2.9,4-5.2,4.7c-1.7,0.5-3.4,1.1-5,2c-1.3,0.8-2.9,1.8-3.6,3.3
			c-0.6-1.5-2.2-2.5-3.6-3.3c-1.6-0.9-3.2-1.5-5-2c-2.3-0.7-4.3-2.5-5.2-4.7c-1.1-2.5-0.9-5.2,0.3-7.7"/>
		<line class="st13" x1="416.2" y1="36.9" x2="411.3" y2="31"/>
		<polyline class="st13" points="413.4,43.3 409.6,47.6 414.5,46.3 411.9,48.5 409.6,47.6 406,45.6 406.5,49.4 409.6,47.6 		"/>
		<polyline class="st13" points="416.2,30.2 414.1,29.4 411.3,31 408.3,31.1 406.3,34.6 404.6,36.1 404.8,38.4 403.5,41.4 
			403.9,46.4 405,47.3 406.5,49.4 409.1,50.1 411.9,48.5 415.1,48.1 		"/>
		<polyline class="st13" points="411.3,31 411.3,36.1 406.3,34.6 		"/>
		<polyline class="st13" points="408.3,31.1 411.3,36.1 413.3,38.3 		"/>
		<polyline class="st13" points="412.4,40.6 406,45.6 405,47.3 		"/>
		<polyline class="st13" points="416.2,36.9 411.3,36.1 412.4,40.6 		"/>
		<line class="st13" x1="412.4" y1="40.6" x2="404.8" y2="38.4"/>
		<line class="st13" x1="416.2" y1="36.9" x2="414.1" y2="29.4"/>
		<polyline class="st13" points="411.3,36.1 404.6,36.1 412.4,40.6 		"/>
		<polyline class="st13" points="412.4,40.6 409.6,47.6 409.1,50.1 		"/>
		<polyline class="st13" points="416.2,44.5 415.1,48.1 414.5,46.3 413.4,43.3 		"/>
		<line class="st13" x1="403.5" y1="41.4" x2="406" y2="45.6"/>
		<line class="st13" x1="416.2" y1="44.5" x2="416.2" y2="47.7"/>
		<line class="st13" x1="412.4" y1="40.6" x2="403.5" y2="41.4"/>
		<line class="st13" x1="416.2" y1="36.9" x2="416.2" y2="30.2"/>
		<line class="st13" x1="416.2" y1="44.5" x2="414.5" y2="46.3"/>
		<line class="st13" x1="416.2" y1="36.9" x2="421.1" y2="31"/>
		<polyline class="st13" points="419,43.3 422.8,47.6 418,46.3 420.5,48.5 422.8,47.6 426.4,45.6 425.9,49.4 422.8,47.6 		"/>
		<polyline class="st13" points="416.2,30.2 418.3,29.4 421.1,31 424.1,31.1 426.2,34.6 427.8,36.1 427.6,38.4 428.9,41.4 
			428.5,46.4 427.4,47.3 425.9,49.4 423.3,50.1 420.5,48.5 417.3,48.1 		"/>
		<polyline class="st13" points="421.1,31 421.1,36.1 426.2,34.6 		"/>
		<polyline class="st13" points="424.1,31.1 421.1,36.1 419.2,38.3 		"/>
		<polyline class="st13" points="420,40.6 426.4,45.6 427.4,47.3 		"/>
		<polyline class="st13" points="416.2,36.9 421.1,36.1 420,40.6 		"/>
		<line class="st13" x1="420" y1="40.6" x2="427.6" y2="38.4"/>
		<line class="st13" x1="416.2" y1="36.9" x2="418.3" y2="29.4"/>
		<polyline class="st13" points="421.1,36.1 427.8,36.1 420,40.6 		"/>
		<polyline class="st13" points="420,40.6 422.8,47.6 423.3,50.1 		"/>
		<polyline class="st13" points="416.2,44.5 417.3,48.1 418,46.3 419,43.3 		"/>
		<line class="st13" x1="428.9" y1="41.4" x2="426.4" y2="45.6"/>
		<line class="st13" x1="420" y1="40.6" x2="428.9" y2="41.4"/>
		<line class="st13" x1="416.2" y1="44.5" x2="418" y2="46.3"/>
		<path class="st12" d="M417.2,40.7c0,0.6-0.4,1-1,1c-0.6,0-1-0.4-1-1c0-0.6,0.4-1,1-1C416.8,39.7,417.2,40.2,417.2,40.7z"/>
		<path class="st12" d="M419.2,40.7c0,1.6-1.3,3-3,3s-3-1.3-3-3c0-1.6,1.3-3,3-3S419.2,39.1,419.2,40.7z"/>
		<path class="st12" d="M420,40.7c0,2.1-1.7,3.8-3.8,3.8c-2.1,0-3.8-1.7-3.8-3.8c0-2.1,1.7-3.8,3.8-3.8
			C418.3,36.9,420,38.6,420,40.7z"/>
		<path class="st13" d="M417.1,39.1c0.5,0.3,0.9,0.9,0.9,1.6c0,0.7-0.4,1.3-0.9,1.6"/>
		<path class="st13" d="M415.3,42.3c-0.5-0.3-0.9-0.9-0.9-1.6c0-0.7,0.4-1.3,0.9-1.6"/>
		<line class="st13" x1="413.7" y1="39.1" x2="418.7" y2="39.1"/>
		<line class="st13" x1="413.7" y1="42.3" x2="418.7" y2="42.3"/>
		<line class="st13" x1="415.1" y1="48.1" x2="416.2" y2="47.7"/>
		<line class="st13" x1="417.3" y1="48.1" x2="416.2" y2="47.7"/>
	</g>
</g>
<rect x="267.3" y="28.6" class="st14" width="30.1" height="18"/>
<rect x="267.3" y="34.6" class="st15" width="30.1" height="6"/>
</svg>
