<?xml version="1.0" encoding="UTF-8"?>
<!DOCTYPE svg PUBLIC "-//W3C//DTD SVG 1.1//EN" "http://www.w3.org/Graphics/SVG/1.1/DTD/svg11.dtd">
<!-- Creator: CorelDRAW Home & Student 2019 -->
<svg xmlns="http://www.w3.org/2000/svg" xml:space="preserve" width="241.065mm" height="445.979mm" version="1.1" style="shape-rendering:geometricPrecision; text-rendering:geometricPrecision; image-rendering:optimizeQuality; fill-rule:evenodd; clip-rule:evenodd"
viewBox="0 0 7407.72 13704.54"
 xmlns:xlink="http://www.w3.org/1999/xlink">
 <defs>
  <style type="text/css">
   <![CDATA[
    .str0 {stroke:#15111C;stroke-width:29.51;stroke-linecap:round;stroke-linejoin:round;stroke-miterlimit:22.9256}
    .str1 {stroke:#9C4B28;stroke-width:16.26;stroke-linecap:round;stroke-linejoin:round;stroke-miterlimit:22.9256}
    .fil8 {fill:none}
    .fil26 {fill:#2B2A29}
    .fil24 {fill:black}
    .fil6 {fill:black}
    .fil34 {fill:#114040}
    .fil3 {fill:#1A1715}
    .fil27 {fill:#1A1A1A}
    .fil5 {fill:#1A1A1A}
    .fil4 {fill:#211B1E}
    .fil28 {fill:#295959}
    .fil10 {fill:#302D2B}
    .fil16 {fill:#303030}
    .fil7 {fill:#312D2B}
    .fil18 {fill:#333333}
    .fil2 {fill:#333333}
    .fil30 {fill:#336666}
    .fil23 {fill:#352119}
    .fil11 {fill:#504E4D}
    .fil31 {fill:gray}
    .fil17 {fill:#C96D45}
    .fil25 {fill:#D48266}
    .fil21 {fill:#D4D4D4}
    .fil13 {fill:#DD9565}
    .fil1 {fill:#E58E62}
    .fil29 {fill:#E6E6E6}
    .fil19 {fill:#EA9B6C}
    .fil12 {fill:#EC9B7F}
    .fil14 {fill:#EFA475}
    .fil22 {fill:#F4B485}
    .fil33 {fill:#FF9999}
    .fil0 {fill:#FFB47F}
    .fil32 {fill:#FFCC99}
    .fil9 {fill:white}
    .fil15 {fill:white}
    .fil20 {fill:white}
   ]]>
  </style>
 </defs>
 <g id="Слой_x0020_1">
  <metadata id="CorelCorpID_0Corel-Layer"/>
  <path class="fil0" d="M2852.61 6545.46c0,0 -0.88,81.44 -30.52,155.86 -29.64,74.43 -52.2,225.91 -30.13,269.81 22.08,43.91 37.05,218.34 37.05,218.34 0,0 -59.75,-26.04 -72.67,15.28 -12.92,41.33 62.33,83.04 62.33,83.04l3.87 48.46c0,0 -66.79,12.54 -57.09,61.36 9.71,48.81 65.15,34.23 99.25,37.96 -26.51,17.79 -50.93,92.33 -25.59,115.76 25.34,23.43 186.46,-19.52 186.46,-19.52l166.87 -104.23c0,0 58.32,-218 96.26,-288.69 37.93,-70.68 6.77,-138.65 -29.4,-230.85 -36.17,-92.2 -83.49,-216.52 -99.67,-317.64 -16.18,-101.12 -27.01,-169.89 -27.01,-169.89 0,0 -316.27,-73.08 -280.02,124.94zm121.78 676.64c0,0 -9.42,-133.59 -5.9,-150.47 3.52,-16.88 42.29,10.9 42.29,10.9l30.2 76.26 -27.13 55.48 -39.46 7.83z"/>
  <path class="fil1" d="M2828.63 7524.8c14.65,-13.35 42.85,-36.53 82.11,-57.41 59.46,-31.63 83.35,-9.54 83.35,-9.54 0,0 6.39,-50.48 25.98,-84.74 19.59,-34.26 53.11,-33.48 53.11,-33.48 0,0 -16.91,-57.94 0.91,-83.76 17.82,-25.82 47.24,-22.78 47.24,-22.78 0,0 -53.06,-18.86 -46.51,-65.16 6.56,-46.3 43.84,-56.14 43.84,-56.14 0,0 -89.78,5.61 -68.27,-32.9 21.52,-38.52 8.81,-42.21 -13.12,-14.14 -21.92,28.07 -29.26,1.15 -13.93,-35.03 13.94,-32.91 -51.53,-15.95 -53.6,38.97 7.58,-10.12 41.02,13.85 41.02,13.85l30.2 76.26 -27.13 55.48 -39.46 7.83c0,0 -6.4,177.64 -71.55,203.74 -11.66,4.67 -24.98,8.01 -38.97,10.34 -19.34,13.89 -37.28,57.46 -35.23,88.63z"/>
  <path class="fil2" d="M2894.82 2968.07c0,0 93.32,494.21 118.91,1021.12 12.58,259.08 5.81,554.11 25.99,756.9 33.69,338.58 197.59,1034.91 227.68,1923.38 -94.41,12.7 -307.64,-10.88 -494.21,86.2 -186.57,97.09 -704.61,-2899.92 121.64,-3787.6z"/>
  <path class="fil3" d="M3440.49 5800.91c-146.27,-91.48 -182.77,-497.01 -218.65,-675.21 0,0 115.47,-34.64 150.11,-46.19 34.64,-11.55 389.36,-100.85 493.29,-158.27 103.93,-57.42 339.17,-127.81 395.97,-139.36 56.8,-11.55 231.53,-76.16 231.53,-145.44 60,-109.28 259.56,-686.16 282.65,-755.45 15.51,252.11 -54.37,616.92 -43.48,869.98 11.75,273.02 13.02,625.87 -52.22,749.96l-1239.2 299.99z"/>
  <path class="fil4" d="M2232.83 959.73c0,0 49.86,-237.64 15.24,-341.24 -11.74,-61.04 13.63,-100.69 29.35,-161.66 34.05,-131.94 -34.13,-329.08 -173.49,-357.61 0,0 61.09,78.97 53.08,123.45 -5.12,28.44 -79.01,-65.91 -227.11,-132.75 -158.88,-71.71 -503.28,-157.44 -749.79,-5.77 0,0 128.92,-3.35 211.96,-0.33 -153.71,25.4 -418.19,8.14 -502.6,239.86 57.8,-28.48 119.37,-58.58 174.38,-72.38 -46.63,25.87 -101.51,48.59 -140.39,148.58 -38.88,99.99 -24.26,225.28 -24.26,225.28 0,0 9.52,-20.76 32.87,-51.92 -30.94,211.28 95.99,683.64 269.64,981.43 0,0 1027.08,44.52 1031.1,-594.95z"/>
  <path class="fil5" d="M1643.37 12217.82l-11.59 263.91 -23.81 27.1 4.63 172.65c20.19,45.23 289.49,87.78 477.43,57.63l117.4 -67.6c107.92,46.78 224.97,143.47 453.89,161.99 271.9,22 590.88,-27.85 622.7,-81.94 31.82,-54.09 38.21,-134.32 -49.87,-165.94 -33.36,-11.97 -191.26,-22.14 -311.65,-79.05 -197.46,-93.35 -431.01,-262.31 -488.62,-399.83 -92.73,-221.37 -748.78,-24.47 -790.51,111.07z"/>
  <path class="fil5" d="M1019.53 12401.37c24.61,7.5 223.11,295.58 430.99,403.01 99.22,43.55 358.39,119.74 347.59,239.15 0.34,3.93 11.7,3.53 11.86,7.18 7.69,13.43 6.7,45.22 1.16,48.48 -15.51,9.13 -99.82,50.8 -385.07,79.53 -251.48,25.19 -432.36,6.4 -542.76,-82.77 -98.27,-72.76 -197.78,-126.76 -202.77,-128.76l-97.27 43.06c0,0 -277.2,-62.5 -318.65,-100.07 -4.36,-4.61 -16.11,-95.89 -15.98,-161.65 0.02,-9.3 13.2,-11.09 13,-16.1 2.44,-89.63 14.53,-179.14 14.53,-179.14 0,0 567.85,-247.91 743.38,-151.94z"/>
  <path class="fil6" d="M583.25 13010.27l-4.39 -113.02c23.39,14.59 84.5,55.04 101.66,69.96 -6.39,3.1 -43.61,31.11 -97.27,43.06z"/>
  <path class="fil6" d="M2874.66 6596.48c-13.92,949.08 -135.68,1458.64 -369.88,2484.36 -11.04,48.38 -16.02,442.12 -58.43,638.6 -88.09,408.18 -131.95,1613.93 -54.04,1933.36 77.91,319.43 30.61,287.04 49,312.97 18.39,25.93 54.31,206.71 54.31,206.71 -181.37,154.61 -806.73,233.55 -883.91,147.48 0,0 -64.92,-170.88 -22.21,-252.95 16.06,-30.86 -55.82,-103.93 -49.39,-285.6 7.02,-198.49 3.44,-892.02 69.5,-1414.66 74.16,-586.73 119.35,-506.9 101.03,-663.82 -18.52,-158.73 16.58,-193.68 21.99,-396.47 4.92,-184.32 -36.82,-590.32 -31.92,-989.3 0.65,-52.85 2.3,-105.67 4.72,-157.69 -69.48,344.42 -151.94,676.07 -229.96,890.87 -69.63,191.69 -78.98,473.63 -121.4,594.7 -69.84,199.35 -136.03,228.44 -141.44,406.88 -8.69,286.83 -130.01,860.87 -121.32,1243.31 8.69,382.44 -23.74,639.39 15.35,748.12 39.09,108.73 32.43,130.21 -0.02,164.52 19.99,110.88 98.96,259.01 59.98,332.65 -285.97,-21.4 -908.84,154.03 -921.34,43.4 -3.16,-73.76 58.53,-155.88 45.05,-226.35 -5.6,-29.29 -82.55,-49.42 -82.67,-120.29 -1.17,-676.47 88.34,-1318.86 125.81,-1583.79 79.83,-564.51 247.83,-962.85 248.64,-1566.42 0.93,-703.08 -2.19,-1801.11 74.17,-2437.26 80.95,-674.4 174.86,-1026.87 456.55,-1012.93 156.55,29 1407.51,61.86 1602.43,113.66l159.42 845.94z"/>
  <path class="fil5" d="M530.54 6636.88c72.04,55.76 455.54,108.46 901.88,126.9 282.78,11.68 736.12,-60.88 824.32,-532.21 68.42,381.27 419.79,476.75 552.69,436.26 63.64,-19.39 116.25,-41.84 154.9,-67.6 0.23,-336.7 -95.31,-725.74 -117.29,-1260.88 -19.96,-485.99 -23.56,-800.61 19.59,-1292.61 20.72,-236.3 47.24,-611.87 61.05,-796.02 13.64,-181.93 56.98,-427.79 -166.41,-640.28 -152.9,-145.44 -508.81,-327.09 -821.92,-505.67l-838.11 -64.65c-267.53,203.31 -659.47,391.89 -781.6,447 -122.14,55.11 -222.03,89.12 -244.65,280.62 -22.63,191.5 -57.87,357.27 -43.21,606.51 14.66,249.24 345,1689.98 418.31,1748.62 73.31,58.64 298.37,165.21 298.37,165.21 -76.71,255.71 -194.95,1170.01 -217.92,1348.8z"/>
  <path class="fil7" d="M6751.35 12739.98l-32.76 283.58c-19.22,57.05 -58.99,112.79 -91.47,163.44 -42.49,66.28 -121.83,416.33 -350.82,470.92 -392.52,93.57 -650.37,82.42 -430.39,-379.13 119.81,-186.12 334.14,-484.27 334.14,-658.67 0,-174.4 571.29,119.85 571.29,119.85z"/>
  <path class="fil7" d="M5405.99 12492.24c6.31,74.55 12.61,149.1 18.92,223.65 -10.5,58.65 -21,117.3 -31.5,175.95 -143.72,28.1 -287.45,25.41 -431.17,12.34 -4.74,-22.37 -9.49,-44.74 -14.24,-67.11 0,0 -371.91,71.21 -404.08,82.13 -209.03,33.67 -288.46,34.28 -500.27,30.99 -280.25,-4.36 -293.31,-106.82 -271.47,-182.96 21.84,-76.13 188.23,-67.64 362.63,-111.02 174.4,-43.38 496.85,-310.17 540.53,-406.96 43.68,-96.79 730.65,242.99 730.65,242.99z"/>
  <path class="fil3" d="M6648.93 7343.01c43.68,54.3 0,893.84 0,893.84l0 818c0,43.38 130.73,370.64 141.65,479.53 10.92,108.89 32.75,425.23 43.68,447.07 10.92,21.84 130.73,490.74 108.89,905.05 -21.84,414.31 -43.38,1133.75 -65.81,1253.85 -22.43,120.1 -143.96,212.82 -111.21,256.49 32.75,43.68 45.69,146.9 34.78,179.66 -10.92,32.76 -43.68,228.99 -43.68,228.99 0,0 -228.99,-43.68 -305.13,-65.51 -76.13,-21.84 -338.18,-32.75 -338.18,-32.75l46.1 -284.1c0,-43.68 -83.82,-229 -61.98,-250.83 21.84,-21.84 70.47,-250.02 92.31,-435.34 21.84,-185.32 0,-894.13 0,-894.13 0,0 -76.43,-141.65 -65.51,-250.83 10.92,-109.18 10.92,-250.53 10.92,-250.53 -75.66,-131.34 -127.63,-275.76 -152.6,-425.31 -32.75,-228.99 -228.99,-883.22 -228.99,-883.22 0,0 -21.84,665.14 0,774.03 4.82,26.49 7.29,53.47 7.29,80.34 0,42.74 -6.13,85.32 -18.17,126.3 2.75,36.15 4.4,72.67 4.4,109.04 0,36.36 -1.65,72.89 -4.46,109.09 -10.92,76.43 -32.75,403.39 -43.68,610.55 -10.92,207.16 -141.65,1068.53 -141.65,1155.88 0,87.35 -65.51,185.32 -65.51,185.32l-43.68 348.8c0,0 -32.46,43.68 -185.32,21.84 -152.86,-21.84 -665.14,-295.09 -665.14,-295.09 0,0 88.53,-97.97 76.43,-185.32 -12.1,-87.35 -32.75,-218.07 21.84,-272.37 54.59,-54.3 152.56,-120.1 130.73,-272.67 -21.84,-152.56 65.51,-337.88 65.51,-534.42 0,-196.53 66.46,-478.99 33.41,-597.02 -33.05,-118.04 -43.68,-436.15 -141.65,-1122.83 -97.97,-686.69 -185.61,-1995.43 -185.61,-1995.43l1150.87 -429.07 899.15 493.1z"/>
  <path class="fil8 str0" d="M5883.75 7092.18c7.67,20.66 15.94,41.31 24.2,61.67"/>
  <polygon class="fil9" points="5842.14,2687.31 6234.62,3025.19 5122.41,5074.91 4762.69,5195.02 4795.15,3755.85 5340.48,2927.22 "/>
  <path class="fil0" d="M6060.22 2676.39c0,0 -76.43,-65.51 -88.53,-131.02 -12.1,-65.51 -180.01,-725.05 -180.01,-725.05l-483.95 539.73 0 457.98c0,98.27 -56.36,262.34 -56.36,262.34l23.61 173.81 632.39 -359.72 152.86 -218.07z"/>
  <path class="fil10" d="M6017.11 2537.65l179.14 243.49c0,0 218.08,141.65 305.42,174.4 62.36,23.38 386.08,77.46 517.64,208.41 442.59,440.54 -76.85,2000.57 -201.59,3011.05l12.09 1328.53c-614.89,118.31 -1356.39,110.91 -1587.61,90.3 -98.27,21.84 -457.69,-239.62 -457.69,-239.62l-272.67 239.62 76.13 -970.27 54.59 -741.28 -21.47 -1345.48c21.84,-65.51 131.54,-846.48 163.41,-956.25 31.87,-109.77 32.46,-130.73 174.4,-250.53 141.94,-119.81 185.32,-196.24 185.32,-196.24l119.81 -109.18c0,0 -98.27,437.92 -174.4,644.48 -76.13,206.56 -239.91,741.57 -228.99,828.62 10.92,87.05 10.92,599.63 10.92,599.63 0,0 120.1,-621.47 163.48,-654.22 43.38,-32.75 468.91,-980.59 468.91,-980.59l295.09 -621.47 218.06 -303.4z"/>
  <path class="fil11" d="M4870.69 5096.75c0,0 120.1,-621.47 163.48,-654.22 43.38,-32.75 469.79,-980.01 469.79,-980.01l295.09 -621.47 212.74 -324.66 184.45 264.76 -216.01 264.11 -133.38 -2.36 -98.27 575.43 -658.06 947.25 -219.85 531.17z"/>
  <path class="fil11" d="M5264.05 3025.19c0,0 -98.27,437.33 -174.4,643.9 -76.13,206.56 -239.91,741.57 -228.99,828.62 10.92,87.05 10.92,599.63 10.92,599.63l-70.53 -686.38 236.08 -1047.29 88.53 -75.25 -23.02 -96.5 42.2 -56.95 119.22 -109.77z"/>
  <path class="fil0" d="M4672.51 1893.72c209.53,-195.03 135.19,-304.82 172.79,-480.23 48.57,-401.08 602.5,-484.21 602.5,-484.21l16.52 16.82 0.92 -20.28c0,0 615.78,-158.45 752.45,382.95 152.17,600.63 -161.9,732.49 -226.4,850.54 -20.17,36.68 -302.53,-95.03 -357.75,-134.54 -20.64,167.05 -54.51,365.02 -158.57,419.42 -157.25,83.81 -507.14,183.11 -583,151.16 -101.86,2.16 -110.4,-118.21 -94.99,-150.26 15.41,-32.04 -13.54,-130.01 -13.54,-130.01 0,0 -39.53,-17.57 -28.62,-37.39 12.95,-24.57 38.37,-15.76 81.18,-27.66 78.33,-21.79 111.02,-65.52 110.5,-77.24 -65.12,28.25 -157.44,19.84 -181.97,7.92 -12.41,-15.4 -29.12,-29.91 -19.11,-42.62 40.25,-51.54 11.02,-108.96 -4.96,-110.9 -43.71,-5.93 -133.25,-76.36 -67.95,-133.48z"/>
  <path class="fil12" d="M4946.5 2172.8c-65.12,28.25 -157.44,19.84 -181.97,7.92 -7.5,-9.31 -16.56,-18.29 -20.36,-26.75 6.2,-5.2 23.88,-15.52 55.15,-0.47 39.95,19.24 124.27,29.64 143.54,17.76l3.64 1.54z"/>
  <path class="fil13" d="M4957.87 1802.34c61.24,-23.83 87.77,-37.52 139,-73.98 -22.98,63.57 -76.83,76.84 -139,73.98z"/>
  <path class="fil14" d="M5053.17 1667.81c0,0 -128.77,-96.05 -164.32,-69.76 -35.55,26.3 6.62,137.73 42.56,150.11 35.94,12.37 215.08,-7.39 121.76,-80.35z"/>
  <path class="fil14" d="M4762.9 2103.42c10.39,-39.71 -10.01,-74.71 -22.44,-76.22 -30.31,-4.11 -82.62,-39.23 -90.11,-79.42 15.85,23.71 60.42,43.7 98.1,45.46 37.68,1.76 98.48,6.63 101.11,-51.23 2.63,-57.86 30.42,43.38 0.68,79.49 -29.74,36.11 -57.3,48.25 -87.35,81.93z"/>
  <path class="fil15" d="M4965.9 1650.95c12.95,-1.56 108.22,28.55 106.36,69.27 -1.85,40.72 -111.92,52.88 -113.77,46.36 -1.85,-6.52 -14.99,-95.17 7.41,-115.63z"/>
  <path class="fil16" d="M4927.98 1700.98c3.77,-33.81 21.93,-58.33 39.31,-54.43 17.37,3.9 29.14,34.51 25.36,68.59 -3.78,34.07 -21.93,58.59 -39.31,54.69 -17.37,-3.9 -29.31,-35.56 -25.35,-68.85z"/>
  <path class="fil13" d="M4981.5 2183.7c-0.5,0.13 -1.01,0.18 -1.52,0.16 -0.51,-0.02 -1.08,-0.02 -1.5,-0.29 -1.78,-1.16 -2.67,-3.29 -2.58,-5.41 0.05,-1 0.27,-2.03 0.83,-2.86 11.33,-17.11 -5.21,-38.75 -5.5,-39.06 -0.41,-0.88 -0.59,-1.84 -0.55,-2.81 0.15,-3.34 2.98,-5.93 6.33,-5.78 1.34,0.06 2.78,0.41 3.64,1.43 7.74,9.14 11.47,21.06 10.93,33.04 -0.31,6.85 -1.75,13.73 -5.14,19.68 -0.86,1.51 -2.83,2.01 -4.57,1.93 -0.12,-0.01 -0.38,0.09 -0.37,-0.03l0 -0z"/>
  <path class="fil3" d="M6076.48 2106.45c-90.05,79.89 -137.16,175.44 -154.86,297.74 -38.93,-97.29 -145.56,-226.16 -207.33,-308.11 -61.77,-81.95 -150.85,-149.99 -209.82,-240 -22.08,-41.93 -49.68,-81.02 -81.77,-115.89l-24.33 21.63c-115.62,-164.45 -140,-381.76 -160.62,-588.28 -0.96,-6.5 -1.32,-13.08 -1.02,-19.63 0.3,-6.55 1.25,-13.08 2.81,-19.43 5.55,-13.84 14.81,-25.92 26.75,-34.86 48.73,-42.86 104.09,-78 162.81,-105.7 472.06,-222.66 866.28,-22.37 878.42,506.08 8.29,360.74 -165.39,548.4 -231.05,606.44z"/>
  <path class="fil0" d="M5596.4 1655.29c1.65,0.01 3.35,0.06 5.01,0.13 51.66,2.35 96.88,35.57 114.57,84.15 2.83,11.86 3.99,24.09 3.44,36.29 -1.23,27.08 -10.89,53.16 -27.59,74.5 -24.44,30.69 -55.56,55.57 -90.92,72.57 -41.62,21.76 -92.69,37.93 -134.45,16.02 -35.18,-22.33 -55.71,-61.82 -53.82,-103.45 0.22,-4.84 0.75,-9.68 1.57,-14.45 11.39,-97.12 80.17,-169.19 182.2,-165.76z"/>
  <path class="fil13" d="M5494.49 1882.31c-3.21,-0.3 -5.63,-3.08 -5.49,-6.31 0.09,-1.91 1.07,-3.67 2.65,-4.74 10.18,-6.03 16.64,-16.8 17.18,-28.62 0.67,-14.76 -7.96,-28.37 -21.6,-34.04 -3.81,-1.3 -7.1,-3.79 -9.38,-7.1 -1.19,-2.18 -1.76,-4.66 -1.65,-7.15 0.05,-1.19 0.26,-2.37 0.62,-3.5 4.2,-15.4 12.85,-29.26 24.85,-39.8 19.65,-21.55 44.51,-37.77 72.18,-47.05 10.01,-3.24 20.54,-4.68 31.05,-4.2 19.55,0.89 38.25,8.31 53.09,21.06 9.9,8.05 15.4,20.33 14.82,33.09 -0.07,1.52 -0.23,3.05 -0.47,4.56 -0.81,2.84 -3.46,4.74 -6.4,4.61 -0.26,-0.01 -0.52,-0.04 -0.77,-0.08 -2.69,-0.78 -4.5,-3.3 -4.37,-6.1 0.02,-0.36 0.06,-0.72 0.15,-1.07 0.06,-0.59 0.1,-1.18 0.13,-1.77 0.43,-9.55 -3.67,-18.74 -11.05,-24.8 -12.78,-10.76 -28.79,-17.02 -45.49,-17.78 -9.34,-0.42 -18.69,0.88 -27.55,3.84 -25.7,8.65 -48.78,23.82 -66.9,43.96 -10.34,8.96 -17.94,20.74 -21.85,33.86 -0.12,0.45 -0.19,0.9 -0.22,1.36 -0.02,0.46 0.01,0.92 0.09,1.37l3.03 0.14c16.12,7.14 27.06,22.54 28.5,40.11 0.27,2.5 0.35,5.03 0.24,7.54 -0.71,15.71 -8.92,30.13 -22.05,38.77 -0.55,0.11 -1.12,0.15 -1.67,0.13 -0.56,-0.02 -1.12,-0.12 -1.66,-0.28z"/>
  <path class="fil17" d="M5307.73 2679.61c59.48,-47.63 107.2,-121.7 145.15,-196.08 61.57,-120.3 99.08,-331.46 99.08,-331.46 -101.46,230.68 -427.8,385.33 -644.62,445.81 58.44,15.09 221.36,-20.25 370.1,-70.49l30.29 152.21z"/>
  <path class="fil3" d="M5134.35 1607.27l-4.54 -0.21c-70.59,-22.11 -143.82,-36.8 -217.55,-43 -9.72,-0.39 -17.22,-8.61 -16.78,-18.3 0.44,-9.69 8.66,-17.19 18.35,-16.75 76.88,6.11 153.19,21.29 226.65,44.57 7.51,2.42 12.52,9.62 12.16,17.55 -0.44,9.68 -8.64,17.18 -18.32,16.75l0.03 -0.61z"/>
  <path class="fil3" d="M6235.07 1326.86c-11.54,-112.35 -45.5,-247.75 -109.04,-342.47 -61.7,-83.46 -205.26,-153.68 -302.71,-171.15 -430.81,-87.41 -1094.71,233.58 -1114.72,200.64 29.95,28.81 66.52,50.01 106.41,61.58 -76.98,17.4 -155.74,26.21 -234.62,26.26 78.25,92.71 220.34,95.54 343.67,90.54 -72.87,49.84 -158.32,78.61 -246.43,82.82 76.47,51.56 165.78,81.1 257.96,85.29 9.31,0.42 18.76,0.55 28.03,0.48 115.59,-1.41 228.45,-42.67 344.44,-39.51 67.23,5.31 134.55,15.74 200.32,30.95 165.41,29.96 343,58.66 509.25,36.82 75.1,-9.28 148.66,-30.43 217.42,-62.26l0.02 0.01z"/>
  <line class="fil8 str0" x1="4862.14" y1="5149.57" x2="4782.46" y2= "7286.65" />
  <path class="fil8 str0" d="M4989.61 5422.24c0,-46.28 -16.12,-83.8 -36,-83.8 -19.88,0 -36,37.52 -36,83.8 0,46.28 16.12,83.8 36,83.8 19.88,0 36,-37.52 36,-83.8z"/>
  <path class="fil8 str0" d="M4973.68 6043.71c0,-46.28 -16.12,-83.8 -36,-83.8 -19.88,0 -36,37.52 -36,83.8 0,46.28 16.12,83.8 36,83.8 19.88,0 36,-37.52 36,-83.8z"/>
  <path class="fil8 str0" d="M4941.81 6755.47c0,-46.28 -16.12,-83.8 -36,-83.8 -19.88,0 -36,37.52 -36,83.8 0,46.28 16.12,83.8 36,83.8 19.88,0 36,-37.52 36,-83.8z"/>
  <line class="fil8 str0" x1="5595.15" y1="4062.45" x2="5956.34" y2= "4136.81" />
  <path class="fil2" d="M1714.64 7491.26c0,0 -155.79,955.71 -248.07,1167.94 -92.27,212.23 -109.27,691.51 -141.33,844.46 -32.07,152.95 -88.17,228.83 -149.36,321.57 -40.45,61.3 -74.78,98.7 -103.92,118.21 21.57,-110.12 98.18,-499.82 134.29,-803.15 36.11,-303.33 220.78,-1666.41 228.54,-1868.34 7.77,-201.93 -271.83,-310.66 -388.32,-318.42 -35.49,-82.65 225.88,-58.16 379.53,-60.37 307.93,-4.44 450.4,-23.93 539.35,13.64 71.1,30.03 -225.31,93.73 -259.93,113.87 -34.63,20.15 202.39,-10.93 184.54,18.46 -17.85,29.38 -119.96,48.49 -138.41,103.86 -18.45,55.36 -9.22,200.64 -36.91,348.28z"/>
  <path class="fil2" d="M2307.48 9489.83c0,0 108.37,-491.87 212.23,-794.02 103.86,-302.15 334.17,-1703.4 296.63,-1728.57 -37.54,-25.17 -109.63,-14.75 -119.65,-28.34 -10.01,-13.59 130.12,-77.06 125.66,-111.27 -4.45,-34.2 -369.05,47.56 -523.02,104.47 -153.96,56.91 48.29,55.05 137.42,31.5 89.13,-23.55 -316.89,256.59 -354.09,369.02 -37.2,112.43 13.53,1461.56 -19.78,1700.46 -33.3,238.91 -23.63,702.67 244.59,456.74z"/>
  <path class="fil2" d="M849.71 5595.63c0,0 372.34,58.16 572.3,52.35 199.96,-5.81 -20.69,244.31 -317.18,250.13 -296.49,5.82 -372.34,-308.29 -255.12,-302.48z"/>
  <path class="fil2" d="M2209.53 4121.02c65.35,434.28 65.49,1042.26 87.8,1494.83 50.03,1014.99 -225.1,1236.34 -1233.4,1128.77 -120.46,-12.85 -238.53,-29.03 -358.05,-48.69 935.9,68.28 1601.57,252.2 1562.03,-968.84 -17.15,-529.69 -24.78,-1079.14 -58.38,-1606.06z"/>
  <path class="fil0" d="M3245.87 5243.05c0,0 -172.27,-93.63 -264.34,-150.11 -92.06,-56.49 -161.66,-80.52 -196.3,-68.97 -34.64,11.55 -288.06,149.8 -288.06,149.8l-103.92 46.19 -302.43 -89.3 -80.21 438.48 336.45 123.64c0,0 276.82,218.47 403.84,218.47 127.02,0 103.61,-46.19 103.61,-46.19 0,0 161.35,-23.09 161.35,-57.74 0,-34.64 127.02,-80.83 127.02,-138.26 0,-57.43 57.74,-34.64 57.74,-34.64l121.71 0 -76.46 -391.36z"/>
  <path class="fil1" d="M3245.87 5243.05c0,0 -12.67,-6.89 -32.96,-18.04 34.55,157.1 -20.2,210.8 -91.67,132.83 -74.07,-80.81 -278.34,-228.96 -278.34,-228.96 0,0 -47.14,15.71 -175.08,58.36 -106.21,35.4 -136.62,-11.17 -143.89,-28.02l-3.73 2.03c-4.54,23.38 -1.1,41.33 7.59,54.71 24.56,37.78 91.02,39.04 137.79,22.91 65.09,-22.44 123.45,-76.32 204.26,-24.69 80.81,51.63 318.75,251.41 291.81,320.99 -26.94,69.58 -92.03,29.18 -145.91,-4.49 31.42,38.16 87.54,123.46 42.65,166.11 -44.9,42.65 -145.91,-24.7 -145.91,-24.7 0,0 60.61,101.02 0,125.71 -78.57,31.43 -157.12,-42.65 -157.12,-42.65 0,0 53.87,62.85 24.69,101.01 -19.76,35.93 -114.28,24.41 -151.24,18.38 45.83,21.89 89.03,36.7 122.09,36.7 127.02,0 111.03,-48.05 111.03,-48.05 42.64,18.54 166.91,-30.51 165.06,-74.43 55.61,-8.69 112.2,-56.73 112.2,-114.15 55.61,5.6 81.83,-40.2 81.83,-40.2l101.32 0 -76.46 -391.36zm-897.17 -36.25l-257.61 -79.93 -80.48 442.27 336.45 123.64c0,0 106.96,84.4 218.41,148.29 -27.13,-29.15 -62.95,-65.36 -112.64,-110.09 -130.67,-117.6 -213.32,-95.09 -187.29,-161.16 26.02,-66.07 69.2,-291.25 83.16,-363.01z"/>
  <path class="fil2" d="M867.66 10655.23c0,0 -146.41,1374.94 -101.85,1425.87 44.56,50.92 190.96,114.58 229.16,159.14 38.19,44.55 -496.51,273.71 -502.87,305.54 -6.37,31.83 598.35,-44.56 642.91,-63.66 44.56,-19.1 -44.56,-229.16 -95.48,-318.27 -50.93,-89.11 6.37,-229.15 0,-381.93 -6.37,-152.77 -25.47,-1145.78 -31.83,-1285.83 -6.36,-140.04 -89.11,-63.66 -140.04,159.14z"/>
  <path class="fil2" d="M2318.99 9999.55c0,0 -12.73,1394.04 12.73,1553.18 25.46,159.14 108.21,350.1 57.29,362.83 -50.92,12.73 -248.25,146.41 -248.25,146.41 0,0 260.99,-50.92 273.72,-19.1 12.73,31.83 12.73,114.58 12.73,114.58 0,0 -388.29,152.77 -572.89,159.14 -184.6,6.36 108.22,-82.75 178.23,-133.67 70.02,-50.92 -31.83,-114.58 19.1,-190.97 50.92,-76.39 95.48,-1782.33 267.35,-1992.39z"/>
  <path class="fil18" d="M2268.96 6166.35c54.48,343.47 178.94,436.53 510.06,503.69l-155.1 -5.71c-245.45,-44.72 -380.35,-255.56 -354.97,-497.99z"/>
  <path class="fil2" d="M2348.37 4315.75c25.07,0 45.38,27.84 45.38,62.19 0,34.35 -20.32,62.19 -45.38,62.19 -25.07,0 -45.38,-27.84 -45.38,-62.19 0,-34.35 20.32,-62.19 45.38,-62.19z"/>
  <path class="fil19" d="M1165.08 2266.87c64.41,89.21 479.09,555.73 726.02,582.53 235.72,25.58 294.63,-511.15 156.81,-584.99 -106.64,-57.13 -107.2,-224.49 -71.43,-509.86 35.77,-285.38 -857.43,-653.35 -833.31,-456.51 24.35,198.66 101.54,450.78 10.08,687.4 -60.67,156.94 -36.61,212.34 11.84,281.43z"/>
  <path class="fil17" d="M2121.13 2480.43c1.14,-100.44 -22.91,-189.07 -73.22,-216.02 -106.64,-57.13 -107.2,-224.48 -71.43,-509.86 32.08,-255.93 -682.88,-578.21 -813.38,-500.03 4.54,5.6 9.12,11.42 13.76,17.65 0,0 25.53,314.7 126.98,501.23 92.11,99.16 227.53,193.8 451.59,270.64 149.47,51.26 85.89,154.45 79.8,301.74 -7.5,181.4 100.04,232.38 0.02,429.47 0,0 148.1,-115.47 285.87,-294.83z"/>
  <path class="fil2" d="M2244.5 4243.91l-1229.08 -1412.46 139.5 -292.35 -189.63 6.12 -95.95 -352.32 214.56 -255.92c-27.79,19.85 645.45,886.65 1160.6,2306.94z"/>
  <path class="fil2" d="M2240.4 4234.88c157.58,-383.98 253.53,-985.48 303.31,-1609.01 -53.86,-43.39 -116.71,-86.78 -170.57,-130.17 41.89,-41.89 58.03,-86.13 81.96,-110.07 -39.27,-32.4 -444.84,-450.03 -464.3,-284.55 49.99,133.54 170.76,333.92 233.01,982.1 76.31,650.87 -23.8,1142.73 16.59,1151.71z"/>
  <path class="fil20" d="M2222.41 4193.46c0,0 -353.89,-853.12 -492.91,-1137.49 -139.02,-284.37 -408.37,-709.79 -445.76,-767.57 -37.38,-16.99 -77.74,92.83 -101.58,124.9 -44.24,25.28 -141.47,-335.14 -109.88,-463.22 31.6,-128.09 82.34,-246.75 124.23,-207.14 0,13.59 -16.5,151.49 88.65,272.97 105.15,121.48 235.79,174.3 242.11,224.86 6.32,50.56 202.22,195.9 252.77,309.65 50.56,113.75 69.51,189.58 69.51,189.58 0,0 56.97,-91.26 38.96,-242.39 -18,-151.13 8.09,-194.17 48.11,-251.34 43.9,-62.7 -8.46,-205.23 -11.99,-308.24 -2.74,-79.87 86.47,-2.54 178.65,160.79 74.21,131.49 62.3,145.79 53.85,147.91 -10.52,2.64 -47.86,-43.56 -86.4,-62.83 -75.83,-37.91 50.56,176.94 126.39,631.94 75.83,455 63.19,1150.13 25.28,1377.63z"/>
  <path class="fil21" d="M2137.81 3991.01c-113.6,-270.5 -312.24,-738.53 -408.31,-935.04 -139.02,-284.37 -408.37,-709.79 -445.76,-767.57 -4.4,-2 -8.85,-2.23 -13.3,-1.04 32.86,-18.03 117.46,-61.91 158.03,-59.21 50.98,3.4 78.17,13.6 91.76,61.18 13.59,47.58 88.36,95.16 156.33,159.73 67.97,64.57 95.16,159.73 122.35,210.71 27.19,50.98 -91.76,-173.32 -180.12,-224.3 -88.36,-50.98 -105.35,-101.96 -163.13,-78.17 -57.78,23.79 203.91,356.85 411.22,866.62 136.47,335.59 225.8,615.18 270.93,767.09zm-88.98 -1805.84c-14.61,36.05 84.64,248.74 148.3,630.67 64.05,384.26 64.98,939.79 40.89,1240.27 -8.08,-397.76 -74.72,-1026.29 -128.5,-1307.85 -53.78,-281.56 -121.01,-456.84 -165.95,-377.3 -44.95,79.54 -55.04,126.66 -37.28,27.96 17.76,-98.7 102.53,-118.06 84.91,-166.99 -12.13,-33.67 30.12,-43.74 57.64,-46.75zm-791.83 109.73l-0.02 0.02 0 -0.01 0.02 -0.01z"/>
  <path class="fil22" d="M1194.5 1323.66c0,0 77.22,302.51 138.65,372.12 61.43,69.61 250.63,225.65 364.72,254.29 114.09,28.64 254.85,27.63 307.95,-25.58 53.1,-53.2 199.34,-453.62 223.39,-587.51 24.05,-133.88 -13.08,-188.86 5.47,-347.46 18.55,-158.59 -50.62,-358.29 -174.63,-349.38 -67.32,4.84 -73.56,30.5 -125.7,33.85 -43.92,2.82 -121.61,-16.11 -257.79,-41.65 -172.26,-32.31 -291.21,26.19 -340.6,220.41 -9.96,39.16 8.23,103.58 1.82,139.5 -25.38,142.24 -50.87,223.67 -37.03,224.18 0,0 -67.83,-69.84 -96.43,-162.77 -28.61,-92.92 -188.92,-94.15 -205.47,9.38 -16.55,103.53 79.52,288.64 195.67,260.6z"/>
  <path class="fil17" d="M1722.33 1660.03c0,0 -49.05,-12.57 -52.84,-32.69 -1.83,-9.72 9.26,-12.96 20.07,-6.32 10.14,6.23 19.38,18.93 30.9,27.59 23.82,17.89 19.53,12.67 1.87,11.43z"/>
  <path class="fil17" d="M2020.35 1668.9c0,0 25.4,-0.21 38.22,-16.13 12.83,-15.93 -4.3,-19.55 -17.49,-5.26 -13.2,14.29 -41.07,21.1 -20.73,21.39z"/>
  <path class="fil14" d="M1194.5 1323.66c0,0 77.22,302.51 138.65,372.12 61.43,69.61 259.73,227.93 364.72,254.29 105,26.36 210.63,27.19 276.31,-4.02 -17.56,-0.55 -16.63,-2.62 -75.12,3.58 -58.49,6.2 -216.9,-62.28 -280.58,-109.6 -118.75,-88.23 -140.19,-174.66 -66.3,-332.69 34.49,-73.77 -81.06,-132.94 -106.15,-176.75 -98.65,-172.23 38.75,-293.9 48.55,-344.06 9.79,-50.15 -63.18,-240.84 -80,-292.64 -34.55,37.3 -71.34,114.39 -78.62,158.86 -7.45,45.49 8.61,92.66 2.22,128.35 -25.52,142.64 -51.3,234.83 -37.44,235.33 0,0 -67.83,-69.84 -96.43,-162.77 -28.61,-92.92 -188.92,-94.15 -205.47,9.38 -16.55,103.53 79.51,288.64 195.67,260.6zm642.53 83.38c0,0 -89.72,51.27 -89.72,93.99 0,42.72 136.71,55.54 179.43,89.71 42.72,34.18 98.26,-51.26 115.34,-76.9 17.09,-25.63 0,-34.18 -38.45,-4.27 -38.45,29.91 -106.8,-42.72 -145.25,-29.9 -38.45,12.81 -38.45,-17.09 -21.36,-72.63zm396.11 -245.5c-2.82,-36.02 -5.45,-74.42 -2.71,-123.29 -24.09,1.37 -61.26,15.09 -127.59,32.85 -97.04,25.99 -110.9,95.31 -110.9,95.31 -1.47,27.09 14.04,78.53 69.12,82.47 -75.92,-66.69 -20.61,-98.39 5.4,-115.39 45.05,-29.45 101.27,0.31 119.57,22.53 18.3,22.21 31.37,12.04 47.12,5.53zm-401.11 -82.5c0,0 70.85,80.31 32.9,138.23 -37.95,57.92 -139.97,55.78 -182.46,50.05 44.16,-12.94 143.87,-31.48 102.73,-98.01 -18,-29.11 -62.58,-61.27 -120.16,-59.9 -106.27,2.53 -118.92,43.01 -118.92,43.01 0,0 -136.63,-60.72 17.71,-101.21 154.35,-40.49 240.38,2.53 268.21,27.83z"/>
  <path class="fil15" d="M1779.97 1198.66c-4.44,-21.45 -13.37,-37.82 -25.62,-49.63 -41.34,-39.91 -120.41,-28.06 -191.44,14.62 14.73,26.27 68.86,64.86 133.89,55.82 65.03,-9.04 47.19,-28.71 83.17,-20.81z"/>
  <path class="fil15" d="M2032.64 1184.7c6.59,-8.19 22.56,-24.98 43.64,-37.71 20.69,-12.5 46.31,-21.1 72.86,-13.87 21.45,5.84 29.06,21.48 27.47,38.15 -2.38,25.01 -25.45,52.34 -53.6,52.41 -37.97,0.1 -64.47,-10.97 -90.37,-38.97z"/>
  <path class="fil1" d="M1554.9 1186.34c47.58,51.11 93.11,43.75 162.94,58.18 -50.07,7.34 -156.53,17.91 -162.94,-58.18z"/>
  <path class="fil17" d="M1545.11 1152.98c34.66,-57.33 201.69,-65.5 247.07,-10.15 -52.14,-32.74 -183.37,-26.52 -247.07,10.15z"/>
  <path class="fil17" d="M2038.65 1143.33c40.85,-41.23 146.3,-49.69 166.98,2.48 -35.01,-30.4 -92.83,-30.28 -166.98,-2.48z"/>
  <path class="fil1" d="M2089.68 1235.78c50.92,-3.21 62.32,-1.3 100.3,-34.87 -2,51.11 -55.89,63.99 -100.3,34.87z"/>
  <path class="fil23" d="M1721.7 1127.99c21.3,0.85 35.13,22.16 30.88,47.58 -4.25,25.42 -24.97,45.34 -46.27,44.49 -21.3,-0.85 -35.13,-22.16 -30.88,-47.58 4.25,-25.42 24.97,-45.34 46.27,-44.49z"/>
  <path class="fil23" d="M2150.38 1131.78c17.72,4.82 26.97,28.99 20.67,53.99 -6.3,25 -25.77,41.36 -43.49,36.55 -17.72,-4.82 -26.97,-28.99 -20.67,-53.99 6.3,-25 25.77,-41.37 43.49,-36.55z"/>
  <path class="fil24" d="M1781.7 1171.32c-78.92,-80.91 -181.39,7.26 -252.42,-13.99 85.09,-8.61 209.97,-89.46 252.42,13.99z"/>
  <path class="fil24" d="M2046.26 1166.45c106.57,-83.73 148.49,-30.98 147.91,8.13 -24.56,-40.24 -69.84,-49.5 -147.91,-8.13z"/>
  <path class="fil15" d="M1737.25 1146.51c4.55,0.18 7.8,5.56 7.26,12.02 -0.53,6.45 -4.66,11.54 -9.2,11.35 -4.55,-0.18 -7.8,-5.56 -7.26,-12.01 0.54,-6.45 4.66,-11.54 9.2,-11.35z"/>
  <path class="fil15" d="M2161.26 1156.39c4.93,1.26 7.78,7.91 6.36,14.86 -1.41,6.95 -6.55,11.56 -11.48,10.3 -4.93,-1.26 -7.78,-7.91 -6.37,-14.86 1.41,-6.95 6.55,-11.56 11.48,-10.3z"/>
  <path class="fil12" d="M1706.23 1654.17c0,0 70.89,87.85 127.56,101.34 57.07,13.59 98.71,8.19 129.11,-4.52 30.39,-12.71 60.58,-83 60.58,-83 0,0 -178.64,37.26 -317.24,-13.82z"/>
  <path class="fil25" d="M1688.45 1637.95c7.27,15.95 45.22,35.08 103.79,46.84 41.69,4.13 52.74,8.42 83.7,20 25.51,9.41 45.18,9.12 75.67,-12.6 41.56,-25.57 77.03,-11.18 96.16,-34.01 -17.81,6.84 -10.27,3.84 -44.03,-2.62 -24.63,-6.06 -34.79,-13.98 -71.66,10.89 -27,17.52 -39,-22.45 -91.52,-16.52 -52.52,5.94 -85.49,27.92 -152.12,-11.98z"/>
  <path class="fil17" d="M2022.58 1378.34c0,0 -22.36,-132.29 -13.46,-181.17 12.3,-67.54 35.77,-104.29 94.68,-139.9 -8.19,-5.64 -46.64,-3.96 -77.64,18.36 -71.58,51.53 -61.06,127.61 -3.58,302.72z"/>
  <path class="fil17" d="M1847.33 1385.52c-39.69,27.59 -69.8,103.89 -16.07,136.87 -9.39,-0.47 -14.63,-2.05 -23.72,-5.65 -61.77,-31.33 -1.24,-115.73 39.79,-131.22zm160.38 141.05c46.25,-16.08 50.5,-67.19 32.68,-112.65 24.56,48.01 40.77,120.49 -32.68,112.65zm31.77 -65.09c-5.5,56.71 -52.8,92.28 -84.25,93.59 -40.45,1.69 -76.37,-45.02 -103.73,-37.55 38.43,-29.96 78.43,18.78 120.35,15.91 34.04,-2.33 56.77,-32.11 67.63,-71.95z"/>
  <path class="fil17" d="M1158.88 1072.09c17.29,30.54 27.17,57.53 34.22,91.83 -6.22,-24.86 -11.38,-39.11 -26.01,-59.86 -44.61,5 -39.73,101.83 -6.15,133.52 -47.22,-38.36 -56.74,-143.97 0.62,-145.37 -3.45,-4.71 -7.19,-9.25 -11.25,-13.59 -0.02,-0.02 -5.82,-5.87 -6.64,-6.59 -25.63,-22.31 -68.08,-41.09 -93.21,-8.15 -5.87,7.64 -9.15,14.73 -11.07,24.16 -1.14,-10.69 -1.51,-18.28 0.94,-28.94 17.76,-58.31 84.05,-35.49 112.92,4.55 0.97,1.39 5.25,7.36 5.63,8.43zm-120.2 40.1c21.05,79.35 83.45,140.97 93.66,146.67 -4.11,0.45 -2.16,0.6 -5.85,-0.27l0.15 0.08c-53.61,-24.25 -92.39,-80.61 -87.96,-146.48z"/>
  <path class="fil26" d="M4901.77 1637.3c107.4,6.31 137.95,23.3 197.37,105.62 -69.49,-49.63 -115.77,-75 -197.37,-105.62z"/>
  <path class="fil27" d="M1825.08 1048.4c40.4,8.45 67.92,30.94 55.94,73.54 -62.14,-42.14 -296.27,-37.64 -389.28,-58.67 18.21,-9.52 49.03,-21.49 86.87,-24.38 75.22,-5.74 175.62,-5.31 246.48,9.51z"/>
  <path class="fil27" d="M2018 1110.65c4.67,-64.53 78.65,-75.58 158.57,-82.42 36.78,-3.15 72.51,-14.19 72.95,7.65 -3.11,29.67 -65.49,41.4 -97,44.76 -44.25,4.71 -89.42,13.05 -134.52,30z"/>
  <path class="fil2" d="M1586.2 87.71c161.72,-59.36 679.36,254.17 404.48,544.85 -6.12,6.48 -18.15,9.49 -26.12,12.19 9.92,-15.93 4.28,-8.63 16.8,-21.99l-0.88 0.84 32.44 -55.51c102.96,-227.5 -246.19,-452.79 -426.73,-480.38zm15.77 173.42c216.12,-24.05 455.3,93.36 370.1,332.04 -3.77,10.56 -15.24,18.5 -23.27,25.3 2.63,-22 0.17,-11.43 7.18,-31.76l-0.73 1.81c19.33,-227.36 -162.3,-277.64 -353.29,-327.39zm415.15 -15.76c184.12,108.32 201.68,314.55 15.76,388.87 116.06,-162.77 107.99,-207.37 -15.76,-388.87z"/>
  <path class="fil15" d="M4939.92 1681.29c1.88,-10.14 7.91,-17.15 13.08,-15.59 5.17,1.56 8.05,11.07 6.16,21.29 -1.89,10.22 -7.92,17.23 -13.09,15.67 -5.17,-1.56 -8.08,-11.39 -6.15,-21.37z"/>
  <path class="fil14" d="M1649.82 1664.13c-12.31,-41.28 16.01,-67.81 57.04,-50.99 -38.1,6.35 -50.46,21.71 -57.04,50.99zm405.67 -45.1c27.58,10.44 22.8,45.19 6,63.34 4.79,-21.39 5.27,-41.24 -6,-63.34z"/>
  <path class="fil28" d="M4558.96 4998.06c167.68,-128.46 1146.09,-501.97 1241.42,-515.99 12.41,10.1 517.58,1793.19 520.4,1914.35 -30.29,121.15 -1216.62,398.81 -1216.62,398.81 0,0 -479.58,-1549.8 -545.21,-1797.16z"/>
  <path class="fil29" d="M4575.56 5002.22c19.76,-38.22 1167.2,-458.19 1225.74,-450.76 28.91,12.37 466.11,1781.28 466.11,1781.28 -391.52,129.48 -783.04,258.96 -1174.56,388.44 0,0 -360.06,-1108.56 -517.29,-1718.96z"/>
  <path class="fil30" d="M5070.4 6795.07c0,0 -522.77,-1708.58 -519.32,-1780.36 36.4,-39.19 1283.79,-430.48 1311.92,-420.46 24.28,54.74 495.45,1760.62 493.88,1795.92 -6.5,50.13 -1173.3,443.34 -1286.48,404.9z"/>
  <path class="fil0" d="M5607.8 5870.21c0,0 -172.26,36.34 -231.93,9.34 -59.67,-27 -201.08,-131.04 -295.21,-150.76 -94.13,-19.73 -267.58,-115.18 -297.73,-152.38 -42.85,-52.88 -128.56,64.35 -9.9,174.82 40.97,38.15 68.55,42.01 95.73,53.56 50.05,21.27 85.52,30.06 107.06,54.81 33.24,38.18 -92.8,105.94 -122.36,119.37 -29.56,13.43 -19.19,-53.51 -58.9,-57.38 -39.71,-3.87 -140.23,34.61 -132.77,87.02 7.46,52.41 46.71,81.56 46.71,81.56 0,0 -28.5,21.81 -15.6,65.87 12.89,44.06 65.1,81.19 65.1,81.19 0,0 -20.56,27.47 -3.66,73.57 16.9,46.11 78.44,64.77 78.44,64.77 0,0 -23.02,44.44 2.21,78.7 25.22,34.27 128.26,113.29 179.21,98.94 50.95,-14.35 134.71,-60.81 218.85,-71.36 84.14,-10.55 132.72,-53.18 207.41,-108.52 74.69,-55.34 158.83,-65.9 229,-91.49 70.17,-25.6 158.64,-83.84 -61.64,-411.63z"/>
  <path class="fil11" d="M7104.18 3315.5c0,0 -108.81,-241.8 -386.87,-132.99 -278.07,108.81 -416.45,689.86 -326.43,834.2 90.02,144.34 27.53,293.51 164.6,731.69 137.07,438.18 -31.61,299.15 77.19,422.08 -169.33,69.79 -621.47,436.65 -1190.16,617.97 -11.49,3.66 230.23,709.86 371.6,655.46 207.81,-79.96 1239.48,-579.87 1440.37,-724.57 39.5,-28.45 157.23,-258.55 153.12,-409.76 -14.63,-536.86 -124.2,-1569.6 -303.43,-1994.08z"/>
  <path class="fil8 str1" d="M4715.68 6095.16c0,0 57.07,43.12 88.78,65.94m39.4 225.44l57.07 29.17m-130.91 -171.1l58.14 35.99m5.51 -298.68c0,0 -41.81,-25.73 -71.82,-28.94"/>
  <path class="fil8 str1" d="M2527.79 5215.95c24.56,37.78 91.02,39.04 137.79,22.91 65.09,-22.44 123.45,-76.32 204.26,-24.69 60.82,38.86 200.39,169.43 269.56,249.65 35.16,40.78 56.57,125.21 109.14,146.38m-425.61 227.5c0,0 27.8,27.81 72.3,22.24m85.27 -113.08c0,0 20.39,35.22 44.49,37.07m81.56 -174.25c0,0 31.52,38.93 38.93,66.73"/>
  <polygon class="fil31" points="2685.8,5429.38 2720.59,5413.53 2768.21,5518.06 2663.68,5565.67 2655.75,5548.26 2629.72,5564.43 2617.09,5544.11 2505.02,5557.29 2498.77,5504.11 2456.57,5467.11 2287.51,5499.99 2272.19,5437.46 2189.33,5443.38 2181.72,5370.95 2062.91,5359.02 2078.26,5206.11 2231.17,5210.09 2229.25,5229.19 2363.89,5222.28 2367.21,5280.16 2451.82,5256.34 2466.03,5329.38 2489.04,5303.13 2589.52,5391.24 2626.54,5359.74 2666.3,5406.47 2666.65,5406.25 2668.08,5408.57 "/>
  <path class="fil0" d="M2697.43 5496.74l-385.06 -150.11c-2.96,6.64 -6.81,12.89 -11.53,18.62l356.66 136.94 39.93 -5.45zm-381.32 -160.26l385.17 150.16 -25.97 -31.14 -355.73 -143.07c-0.03,8.28 -1.2,16.36 -3.47,24.05zm338.57 176.23l-361.92 -138.96c-3.08,2.82 -6.43,5.47 -10.02,7.91l5.53 14.77 -11.77 30.82 -50.69 -19.76 11.72 -30.67 12.74 -7.42c-1.74,-8.74 -2.2,-17.43 -1.48,-25.89l-99.54 -38.8 -35.96 4.61 -27.2 -56.71 57.85 -23.57 23.57 27.82 99.9 38.95c5.1,-6.64 11.15,-12.68 18.06,-17.95l-4.62 -14.49 11.71 -30.68 50.69 19.76 -11.78 30.82 -14.37 7.43c0.75,3.27 1.32,6.53 1.73,9.77l362.4 145.75 47.46 56.91 -73.04 9.96 -1 -0.38zm-380.76 -209.38l0.53 -0.29c6.49,-3.35 13.97,-4.07 20.89,-1.37 6.79,2.65 11.8,8.1 14.41,14.81 0.38,-8.06 -0.48,-16.39 -2.64,-24.78 -1.11,-4.32 -2.56,-8.68 -4.37,-13.03l-2.86 1.61c-10.46,6.13 -19.22,13.99 -25.96,23.05zm4.15 9.33c-4.18,2.16 -7.73,6.01 -9.65,11.03 -1.92,5.02 -1.85,10.28 -0.19,14.71 1.66,4.44 4.91,8.05 9.35,9.79 4.45,1.73 9.26,1.27 13.43,-0.89 4.18,-2.16 7.73,-6.01 9.65,-11.03 1.91,-5.02 1.85,-10.28 0.19,-14.71 -1.66,-4.44 -4.92,-8.06 -9.35,-9.78 -4.45,-1.73 -9.26,-1.27 -13.43,0.89zm17.26 43.86l-0.71 0.38c-6.49,3.35 -13.97,4.07 -20.89,1.38 -6.92,-2.7 -11.98,-8.32 -14.56,-15.19l-0.47 -1.36c-1.29,11.55 -0.04,23.68 4.08,35.77l1.09 3.02c4.06,-1.77 7.87,-3.77 11.42,-5.98 8.06,-5.02 14.76,-11.11 20.04,-18zm-21.41 30.46c-3.63,1.93 -7.47,3.68 -11.52,5.23l-3.98 1.52 -1.72 -3.96c-1.13,-2.59 -2.15,-5.24 -3.06,-7.91l-0.74 -2.26 -7.91 4.6 -6.37 16.69 32.81 12.79 6.31 -16.53 -3.81 -10.18zm35.66 -117.98c1.82,3.87 3.38,7.78 4.7,11.7l9.87 -5.1 6.32 -16.53 -32.82 -12.8 -6.37 16.68 2.86 8.99 1.65 -0.99c2.46,-1.44 5.06,-2.82 7.76,-4.11l4.09 -1.96 1.93 4.11zm-54.99 49.52c1.82,-4.68 4.03,-9.2 6.6,-13.53l-99.6 -38.83 -20.9 -24.66 -40.65 16.56 19.1 39.84 31.86 -4.08 99.39 38.74c1.01,-4.8 2.42,-9.49 4.19,-14.04z"/>
  <path class="fil31" d="M2185.97 5481.12c0.22,-0.07 0.44,-0.13 0.67,-0.18 19.85,-4.51 38.56,-0.22 53.58,13.62 6.11,5.63 12.71,14.25 15.96,22.03 0.85,2.02 0.95,4.16 0.38,6.12 5.15,3.16 10.02,6.72 14.49,10.68 10.25,9.07 19.89,20.51 25.43,33.14 9.08,25.88 -0.27,78.15 -38.21,75.59 -4.15,-3.07 -5.2,-8.03 -4.31,-12.86 3,-16.16 -16.69,-35.93 -33.16,-5.01 -2.89,5.42 -4.23,13.19 -4.52,20.46l-188.39 -69.23c-5.66,-10.93 -10.12,-22.94 -12.05,-34.91l7.97 -43.59c12.03,-18.13 35.99,-34.19 53.36,-43.98 17.84,-10.05 64.85,-32.93 85.25,-23.41 12.34,5.76 19.53,29.47 23.54,51.52z"/>
  <g id="_748073776">
   <path class="fil32" d="M2041.56 5580.51c-10.45,-17.08 -24.9,-47.66 -13.47,-72.43 16.83,-36.46 109.39,-79.94 130.43,-70.12 21.04,9.82 37.87,143.05 2.81,159.88 -15.52,-3.59 -34.1,-3.09 -42.74,10.98l-77.03 -28.31z"/>
   <path class="fil33" d="M2192.52 5515.35c0,0 2.4,32.61 -7.19,62.35 -9.59,29.74 -19.18,34.05 -34.05,29.26 -12.25,-3.95 -20.6,-1.71 -25.3,4.56l53.88 19.8c2.41,-6.29 15.4,-23.06 36.65,-31.56 33.57,-13.43 48.92,18.23 46.52,31.18 -2.4,12.95 23.98,-6.71 24.46,-26.86 0.48,-20.15 -21.1,-31.18 -21.1,-31.18 0,0 15.83,2.4 21.58,10.07 5.76,7.67 6.23,-16.79 -23.03,-42.69 -29.26,-25.9 -72.43,-28.78 -72.43,-24.94zm14.75 126.05c0.49,-6.83 1.89,-14.91 5.4,-21.49 7.67,-14.39 11.99,-11.99 11.99,-11.99 0,0 -21.1,0.96 -37.89,20.14 -1.7,1.95 -3.09,3.33 -4.19,4.26l24.69 9.07zm-18.58 -151.47l1.44 15.83c17.9,-3.65 36.97,0.86 57.56,14.39 0,0 -16.79,-39.81 -58.99,-30.22z"/>
  </g>
  <path class="fil2" d="M2013.95 5779.61c94.47,-192.34 178.34,-438.21 227.25,-645.92 0,0 -920.12,-450.03 -983.36,-467.4 -63.24,-17.37 -71.87,-127.42 -107.24,-104.25 -35.38,23.17 -141.49,92.67 -128.98,57.92 12.52,-34.75 71.99,-92.67 32.69,-139 -39.3,-46.33 -119.02,-641.14 -163.97,-907.55 -5.97,-35.42 -152.43,-145.26 -172.49,-174.81 -32.08,-47.24 128.54,79.17 119.69,22.97 -28.36,-180 -85.35,-472.44 -136.86,-548.96 -77.96,-115.83 -427.16,-320.83 -546.01,-156.38 -118.85,164.45 -146.89,665.53 -154.56,735.04 -7.66,69.5 420.39,1656.95 448.1,1703.29 27.71,46.33 800.9,422.35 1565.75,625.06z"/>
  <path class="fil34" d="M4793.17 5325.52l5.6 -99.77c0.31,-3.36 2.8,-5.35 5.82,-6.38l20.41 -6.93c1.45,-0.49 2.9,-0.99 4.35,-1.48 2.51,-0.85 4.06,1.33 4.77,3.4 1.34,3.95 -1.28,6.56 -4.81,7.76 -1.11,0.38 -5.33,1.9 -5.97,2.81 -0.5,1.93 2.5,10.99 3.16,12.95l27.7 81.57c0.76,2.24 3.69,10.52 5.74,11.83 1.67,1.06 4.16,0.49 5.88,-0.1 3.22,-1.09 8.28,-2.07 9.72,2.17 1.14,3.36 -1.17,5.64 -4.16,6.66 -2.94,1 -6.01,1.82 -9.01,2.61 -2.97,0.79 -6,1.6 -8.91,2.59 -3.61,1.23 -7.21,2.67 -10.75,4.09 -3.54,1.42 -7.15,2.87 -10.77,4.1 -2.99,1.02 -6.21,0.62 -7.36,-2.75 -1.41,-4.17 2.95,-6.47 6.16,-7.56 2.55,-0.86 5.05,-2.26 6.45,-4.65 1.27,-2.16 -1.35,-10.36 -2.09,-12.52l-27.42 -80.76 -5.28 107.58c-0.05,0.97 -0.12,1.94 -0.24,2.91 -0.22,1.78 -1.24,3.21 -2.96,3.79 -3.1,1.05 -5.42,-1.28 -6.85,-3.76l-64.71 -80.93 19.84 74.65c1.38,4.66 3.67,11.58 6.83,15.36 2.42,2.89 6.57,2.06 9.69,1 3.22,-1.09 8.28,-2.07 9.72,2.17 1.24,3.65 -1.81,5.86 -4.85,6.89 -2.79,0.95 -5.71,1.71 -8.56,2.46 -2.73,0.72 -5.55,1.45 -8.22,2.36 -2.68,0.91 -5.36,2.04 -7.96,3.13 -2.63,1.11 -5.35,2.27 -8.05,3.18 -2.95,1 -5.83,0.27 -6.9,-2.9 -1.34,-3.95 2.28,-6.24 5.47,-7.32 2.11,-0.72 5.63,-2.19 6.17,-4.69 0.66,-3.11 -0.5,-8.04 -1.31,-11.06l-23.99 -89.5c-0.32,-1.32 -1.77,-6.8 -2.93,-7.58 -1.28,-0.58 -6.55,1.08 -7.81,1.51 -3.53,1.2 -7.2,0.73 -8.54,-3.22 -0.7,-2.07 -0.8,-4.75 1.71,-5.6 1.45,-0.49 2.9,-0.99 4.36,-1.48l21.32 -7.24c2.19,-0.74 4.58,-0.76 6.27,1.02 1.16,1.21 2.22,2.58 3.2,3.88l60.04 73.75zm257.18 0.53l9.22 -3.13 10.81 31.83 -8.03 4.67c-5.33,-11.83 -21.45,-26.15 -43.51,-16.13 -14.56,6.61 -15.75,21.24 -5.99,32.55 5.03,5.82 13.35,9.82 23.45,13.38 29.71,10.46 68.71,30.39 68.71,30.39 0,0 4.25,-16.39 -1.57,-30.77 -5.82,-14.38 -20.08,-13.73 -23.99,-12.87 -3.91,0.86 -4.36,-4.59 -4.36,-4.59l46.49 -15.79c0,0 2.3,4.02 -0.35,5.85 -2.65,1.83 -12.11,11.12 -8.15,25.53 3.96,14.41 1.59,34.96 1.59,34.96 0,0 17.82,9.83 26.22,11.18 8.4,1.35 13,-1.61 15.68,2.15 2.68,3.76 -5.42,6.04 -16.31,9.74 -10.89,3.7 -19.28,3.74 -24.75,1.4 -5.47,-2.35 -9.11,-3.44 -9.11,-3.44 0,0 -10.92,20.64 -43.17,30.72 -32.25,10.08 -54.19,-18.91 -55.05,-38.65 -0.86,-19.74 7.34,-31.51 9.58,-35.77 -2.69,-1.19 -18.13,-11.6 -20.87,-29.82 -2.74,-18.22 14.09,-35.14 33.81,-36.23 19.72,-1.09 20.12,-4.82 19.66,-7.15zm-26.8 76.99c11.19,3.16 47.32,25.03 75.94,36.65 -2.23,5.32 -26.71,31.87 -57.62,17.29 -29.66,-16.58 -22.28,-48.56 -18.32,-53.94zm-77.11 -108.92c0.61,-1.75 1.55,-4.05 3.42,-4.69 2.26,-0.77 4.07,0.61 4.8,2.73 1.12,3.31 -1.68,8.28 -3.3,11.03 -5.7,9.67 -14.03,16.19 -24.63,19.78 -7.8,2.65 -15.75,2.99 -23.77,1.07 -8.23,-1.96 -15.43,-6.02 -21.65,-11.78 -6.29,-5.83 -10.93,-12.8 -13.69,-20.94 -3.06,-9.01 -3.51,-18.18 -1.39,-27.44 2.12,-9.26 6.37,-17.47 12.66,-24.57 6,-6.78 13.2,-11.98 21.79,-14.9 4.17,-1.41 8.75,-2.07 13.13,-2.39 4.24,-0.32 8.97,-0.21 13.03,1.24 2.17,0.53 3.52,2.44 4.38,4.4 0.78,1.79 1.44,3.65 1.85,5.44 1.05,3.06 4.44,12.2 -0.43,13.86 -3.24,1.1 -8.06,-3.11 -10.32,-5.03 -3.44,-2.93 -7.16,-5.73 -11.1,-7.94 -3.23,-1.82 -6.61,-1.74 -10.04,-0.58 -6.56,2.23 -11.03,7.14 -14.22,13.16 -5.91,11.15 -6.31,22.67 -2.28,34.56 3.4,10 9.59,17.77 18.43,23.52 8.34,5.43 17.16,7.17 26.67,3.94 7.56,-2.57 13.18,-7.26 16.67,-14.47zm41.53 -65.38c-0.01,0.02 -0.01,0.03 -0.02,0.04 -0.46,0.88 -0.89,1.77 -1.31,2.67 -0.36,0.78 -0.71,1.56 -1.09,2.48 -0.57,1.21 -1.16,2.41 -1.75,3.61 -0.43,0.86 -0.84,1.87 -0.97,2.83 -0.07,0.53 -0.1,1.17 0.07,1.68l10.26 30.22c0.83,2.44 3.51,10.12 5.45,11.82 1.36,1.19 7.53,-0.58 8.93,-1.02 3.07,-1.04 7.41,-1.61 8.73,2.28 1.12,3.32 -0.79,5.73 -3.87,6.78 -3.39,1.15 -6.91,2.12 -10.36,3.07 -3.44,0.94 -6.93,1.92 -10.32,3.07 -3.46,1.17 -6.9,2.56 -10.28,3.93 -3.47,1.41 -7,2.82 -10.54,4.03 -3.05,1.04 -5.88,0.11 -6.96,-3.1 -1.29,-3.81 2.25,-6.01 5.31,-7.05 1.92,-0.65 5.93,-2.12 7.31,-3.68 0.85,-0.97 0.93,-2.08 0.65,-3.32 -0.76,-3.4 -2.02,-7.02 -3.14,-10.32l-27.5 -80.97c-0.84,-2.46 -3.5,-10.14 -5.39,-11.91 -1.2,-1.12 -7.64,0.87 -8.92,1.31 -3.18,1.08 -7.25,1.32 -8.57,-2.55 -1.1,-3.25 0.41,-5.83 3.57,-6.9 3.55,-1.2 7.2,-2.23 10.82,-3.23 3.36,-0.92 6.78,-1.87 10.09,-2.99 3.46,-1.17 6.9,-2.57 10.29,-3.93 3.39,-1.37 6.85,-2.77 10.31,-3.95 3.19,-1.08 6.12,-0.14 7.26,3.22 1.34,3.95 -2.28,6.24 -5.47,7.32 -1.39,0.47 -7.41,2.7 -7.77,4.43 -0.51,2.53 2.04,10.25 2.87,12.69l12.17 35.85 21.18 -47.79c0.85,-2.09 4.88,-12.08 4.53,-14.14 -0.67,-1.96 -2.49,-1.4 -4.09,-0.85 -3.21,1.09 -8.07,1.92 -9.49,-2.24 -1.1,-3.24 0.41,-5.83 3.56,-6.9 3.47,-1.18 7.06,-2.17 10.59,-3.15 3.44,-0.95 6.94,-1.92 10.32,-3.07 2.99,-1.01 5.97,-2.24 8.89,-3.45 2.94,-1.22 5.95,-2.47 8.96,-3.49 3.02,-1.03 5.68,0.08 6.74,3.18 1.44,4.26 -2.78,6.63 -6.09,7.76 -3.55,1.2 -8.05,3.04 -10.83,5.65 -4.9,4.61 -8.35,11.31 -10.84,17.62l-12.5 28.07c-0.51,1.09 -2.33,4.99 -2.54,5.54 0.31,0.43 1.38,1.17 1.82,1.48 0.84,0.58 2.19,1.48 2.99,2.29l47.99 33.44c5.14,3.43 12.61,8.82 18.16,11.37 3.15,1.45 6.35,1.8 9.72,1.05 3.06,-1.01 7.3,-1.51 8.61,2.32 1.23,3.64 -1.44,5.95 -4.55,7.01 -3.77,1.28 -7.66,2.38 -11.49,3.46 -3.91,1.1 -7.86,2.23 -11.71,3.54 -3.14,1.07 -6.29,2.36 -9.36,3.61 -3.24,1.32 -6.55,2.67 -9.86,3.8 -2.91,0.99 -6.56,1.11 -7.75,-2.39 -1.34,-3.95 2.69,-6.16 5.77,-7.21 1.58,-0.53 7.31,-2.49 6.43,-5.09 -0.68,-2.01 -7.53,-6.66 -9.33,-7.85l-42.03 -29.59c-0.64,-0.47 -2.49,-1.79 -3.66,-2.38zm103.4 26.07c1.51,-0.77 3.41,-1.98 4.12,-3.56 0.33,-0.73 0.8,-1.98 0.52,-2.8 -1.08,-3.19 -2.17,-6.38 -3.25,-9.58l-12.61 -37.13c-0.6,-1.76 -3.39,-9.64 -4.97,-10.64 -0.09,-0.05 -0.17,-0.1 -0.25,-0.16 -0.6,-0.38 -3.02,0.33 -3.61,0.53l-2.3 0.78c-2.44,0.83 -5.02,0.34 -5.94,-2.35 -1.09,-3.21 1.78,-5.91 4.03,-7.57 2.33,-1.8 4.46,-4.28 6.27,-6.59 1.77,-2.24 3.62,-4.95 4.62,-7.84 0.73,-1.73 1.89,-4.37 3.8,-5.02 3.1,-1.05 5.11,1.4 6.02,4.08l22.4 65.96c1.08,3.2 2.17,6.39 3.25,9.58 0.28,0.82 1.4,1.53 2.11,1.9 1.58,0.85 3.92,0.61 5.55,0.29 2.9,-0.62 7.52,-1.16 8.75,2.47 0.95,2.8 -0.33,5.14 -3.09,6.07 -2.86,0.97 -5.86,1.76 -8.78,2.54 -2.89,0.76 -5.86,1.55 -8.69,2.51 -2.83,0.96 -5.67,2.15 -8.43,3.3 -2.86,1.19 -5.8,2.42 -8.73,3.41 -2.68,0.91 -5.33,0.21 -6.3,-2.66 -0.74,-2.18 -0.34,-4.4 1.65,-5.72 1.17,-0.78 2.49,-1.36 3.82,-1.83zm-18.39 -102.87c-3.03,1.03 -6.01,0.62 -8.73,-1.05 -2.75,-1.69 -4.59,-4.2 -5.62,-7.25 -1.08,-3.17 -1.02,-6.37 0.22,-9.47 1.17,-2.95 3.17,-5.29 6.21,-6.32 3.03,-1.03 5.99,-0.62 8.67,1.12 2.67,1.73 4.43,4.25 5.45,7.26 2.33,6.85 1.28,13.18 -6.2,15.72zm63.9 8.08c0.73,-1.27 1.42,-2.57 1.74,-3.16 2.35,-4.4 5.15,-8.56 8.48,-12.28 3.46,-3.86 7.8,-6.5 12.68,-8.16 9.75,-3.31 19.1,-2.39 27.54,3.54 4.18,2.77 7.49,6.38 9.62,10.93 2.36,5.06 4.32,10.43 6.12,15.72l10.6 31.21c1.04,3.07 2.08,6.4 3.32,9.4 0.37,0.9 1.39,1.67 2.18,2.16 1.4,0.86 3.92,0.53 5.43,0.21 2.9,-0.6 7.51,-1.15 8.74,2.48 0.91,2.69 -0.15,5.08 -2.85,6 -2.94,1 -6.01,1.82 -9.01,2.61 -2.89,0.76 -5.85,1.55 -8.69,2.52 -2.83,0.96 -5.67,2.15 -8.43,3.29 -2.86,1.19 -5.8,2.42 -8.73,3.41 -2.67,0.91 -5.33,0.21 -6.31,-2.66 -0.74,-2.18 -0.34,-4.4 1.65,-5.72 1.23,-0.82 2.67,-1.43 4.07,-1.91 1.14,-0.56 4.76,-2.48 4.67,-3.85 -0.2,-3.25 -2.24,-8.96 -3.3,-12.07l-10.66 -31.4c-1.68,-4.95 -5.04,-13.89 -9.34,-17.3 -5.31,-4.55 -11.4,-4.77 -17.84,-2.59 -6.64,2.25 -11.04,6.84 -13.74,13.22 -1.07,2.72 -1.98,5.88 -1.86,8.83 0.12,3.19 1.09,6.66 2.11,9.66l11.27 33.18c1.04,3.07 2.09,6.4 3.32,9.4 0.37,0.91 1.38,1.67 2.18,2.16 1.35,0.83 3.79,0.53 5.3,0.24 1.4,-0.47 2.91,-0.86 4.38,-0.96 2.29,-0.16 3.99,1.19 4.72,3.33 0.95,2.8 -0.33,5.14 -3.08,6.07 -3.02,1.03 -6.16,1.87 -9.24,2.69 -2.73,0.72 -5.56,1.45 -8.23,2.36 -2.91,0.99 -5.81,2.18 -8.65,3.37 -2.79,1.16 -5.65,2.37 -8.51,3.34 -2.68,0.91 -5.33,0.21 -6.31,-2.66 -1.3,-3.83 2.47,-6.25 5.39,-7.5 0.98,-0.47 4.86,-2.47 4.77,-3.9 -0.21,-3.26 -2.24,-8.96 -3.29,-12.07l-12.61 -37.13c-0.6,-1.76 -3.39,-9.65 -5.03,-10.68 -0.84,-0.49 -2.98,0.14 -3.79,0.41l-2.52 0.86c-2.41,0.82 -4.84,0.16 -5.71,-2.43 -0.65,-1.92 -0.24,-3.81 1.18,-5.25 0.84,-0.85 1.73,-1.62 2.67,-2.27 2.22,-1.67 4.42,-4.3 6.18,-6.45 1.83,-2.25 3.89,-5.09 4.9,-8.02 0.74,-1.73 1.89,-4.37 3.8,-5.02 3.05,-1.04 4.93,1.61 5.79,4.16l2.95 8.69zm135.18 -45.56c0.57,1.09 1.06,2.26 1.52,3.4 0.64,1.58 1.06,3.24 1.23,4.94 0.23,2.25 -0.54,4.4 -2.81,5.17 -3.01,1.02 -6.44,-3.01 -8.17,-4.99 -2.41,-2.75 -5.23,-5.02 -8.54,-6.58 -3.6,-1.69 -8.5,-0.58 -12.06,0.63 -3.72,1.26 -6.54,3.74 -8.74,6.97 -2.18,3.2 -2.76,6.51 -1.51,10.21 1.27,3.74 3.49,6.43 7.37,7.44 5.84,1.53 13.1,1.87 19.11,2.06 7.14,0.22 15.15,1.13 21.76,4.02 6.69,2.92 10.56,9.04 12.84,15.74 2.15,6.34 2.32,12.75 0.01,19.04 -2.25,6.1 -5.97,11.24 -10.87,15.48 -4.65,4.03 -9.89,7.29 -15.72,9.27 -8.68,2.95 -17.6,3.79 -26.78,2.07 -1.83,-0.46 -3.55,-1.36 -4.57,-3.02 -0.89,-1.43 -1.55,-3.24 -2.12,-4.92l-4.04 -13.39c-0.03,-0.1 -0.05,-0.19 -0.07,-0.29 -0.48,-2.8 -0.63,-6.82 2.67,-7.94 4.19,-1.43 7.74,4.82 9.39,7.74 2.38,4.21 5.41,8.04 9.3,10.93 4.08,3.02 10.19,1.7 14.57,0.22 5.23,-1.78 9.39,-4.91 12.45,-9.53 2.97,-4.48 3.42,-9.18 1.69,-14.26 -3.14,-9.24 -13.2,-11.15 -21.81,-11.29 -7.96,-0.13 -17.01,-0.61 -24.74,-2.68 -7.26,-1.94 -11.61,-7.41 -13.97,-14.38 -2.85,-8.4 -1.04,-16.42 3.68,-23.8 4.96,-7.43 12.5,-12.04 20.82,-14.87 3.33,-1.13 7.15,-1.8 10.62,-2.36 3.09,-0.49 7.26,-1.13 10.5,-0.76 2.49,0.41 4.16,2.14 5.15,4.39 0.76,1.72 1.38,3.51 1.84,5.34zm100.41 -5.41l-55.49 18.84c-0.94,0.32 -4.18,1.47 -4.7,1.94 -0.18,0.71 0.51,2.95 0.74,3.63 3.48,10.26 9.48,18.58 18.6,24.44 8.79,5.64 18.02,6.56 27.85,3.23 4.15,-1.41 8.54,-3.51 11.6,-6.73 2.58,-2.7 4.85,-5.7 6.61,-9 0.88,-1.65 2.84,-5.74 4.72,-6.38 2.3,-0.78 4.26,0.41 5.02,2.66 1.29,3.79 -2.46,10.22 -4.27,13.29 -5.95,10.77 -14.88,18.06 -26.49,22 -8.13,2.76 -16.41,3.21 -24.77,1.18 -8.38,-2.04 -15.67,-6.19 -21.92,-12.16 -6.38,-6.1 -10.98,-13.37 -13.82,-21.74 -4.56,-13.44 -4.53,-26.81 2.26,-39.46 6.67,-12.42 16.55,-21.07 29.9,-25.6 11.42,-3.88 22.61,-3.36 32.7,3.59 6.83,4.71 11.47,11.16 14.13,19.01 1.01,2.97 0.62,6.14 -2.68,7.26zm67.98 9.53l2.81 -52.38c0.14,-1.92 0.45,-6.35 -0.17,-8.17 -1.45,-4.26 -5.41,-3.49 -8.93,-2.3 -2.47,0.84 -6.79,1.95 -7.94,-1.45 -1.01,-2.99 0.2,-5.53 3.18,-6.55l29.35 -9.97c3.12,-1.06 5.74,0.24 6.81,3.38 0.96,2.84 -3,4.59 -4.99,5.6 -2.5,1.19 -4.18,2.98 -5,5.8 -2.26,6.4 -2.61,17.02 -2.77,23.86l-5.13 105.99c0.09,2.39 0.19,6.51 -0.86,8.7 -1.16,2.43 -4.67,3.79 -7.06,4.6 -0.96,0.33 -1.97,0.64 -3,0.9l-0.33 -0.96c0.49,-8.43 1.25,-25.41 1.26,-26.81l0.91 -17.84c0.15,-1.38 0.39,-4.15 -0.06,-5.49 -0.34,-1 -1.2,-2.16 -1.87,-2.97 -1.03,-1.26 -2.09,-2.5 -3.32,-3.79l-45.02 -53.47c-2.38,-2.9 -5.05,-6.03 -7.91,-8.46 -1.77,-1.51 -3.72,-1.55 -5.86,-0.82 -2.47,0.84 -6.78,1.95 -7.94,-1.45 -1.16,-3.42 0.99,-5.8 4.1,-6.86l35.54 -12.07c2.98,-1.01 5.49,0.27 6.51,3.26 1.15,3.39 -2.94,5.14 -5.41,5.98 -1.91,0.65 -3.64,1.61 -5.14,2.97 -0.99,0.9 -1.15,1.77 -0.73,3.03 0.59,1.73 3.42,5.12 4.6,6.53l34.39 41.21zm-159 239.19l4.45 16.08c0.69,2.03 1.64,5.11 1.22,7.25 -0.44,2.19 -2.78,4.93 -4.32,6.67 -8.92,9.06 -19.33,16.09 -31.38,20.18 -11.38,3.86 -22.96,4.3 -34.65,1.45 -11.83,-2.88 -22.2,-8.59 -31.09,-16.96 -9.01,-8.49 -15.47,-18.68 -19.45,-30.41 -3.06,-9.02 -4.39,-18.37 -3.48,-27.87 0.88,-9.11 3.37,-17.8 7.44,-25.99 4.05,-8.16 9.51,-15.32 16.36,-21.31 6.86,-6 14.66,-10.46 23.29,-13.39 10.22,-3.47 20.78,-5 31.57,-4.61 2.5,0.09 5.59,0.54 7.2,2.71 1.42,1.9 2.7,4.87 3.66,7.04l5.59 12.65c0.93,2.75 0.18,5.4 -2.72,6.39 -3.11,1.05 -8.27,-4.27 -10.26,-6.16 -4.03,-3.82 -8.66,-6.68 -13.87,-8.57 -6.05,-2.19 -13.19,-0.79 -19.08,1.21 -13.43,4.56 -22.48,13.29 -26.58,26.99 -4.36,14.57 -3.13,29.27 1.74,43.6 4.61,13.58 12.3,25 23.75,33.63 11.8,8.89 25.08,13.7 39.47,8.82 6.37,-2.16 12.58,-5.72 15.78,-11.9 2.95,-5.72 4.65,-11.85 5.25,-18.26 0.26,-2.84 0.62,-11.77 3.99,-12.91 3.12,-1.06 5.57,0.49 6.13,3.67zm68.56 16.7c-13.17,4.47 -26.08,3.56 -38.54,-2.66 -12.74,-6.36 -21.22,-16.58 -25.8,-30.08 -4.36,-12.83 -4.12,-25.56 1.69,-37.85 6.1,-12.91 16.55,-21.16 29.95,-25.71 12.37,-4.2 24.81,-4.42 36.81,0.93 13.66,5.76 22.48,16.19 27.22,30.15 4.58,13.49 4.09,26.77 -2.15,39.57 -6.14,12.6 -15.94,21.16 -29.18,25.66zm55.07 -110.99c0.74,-1.24 1.47,-2.62 1.82,-3.27 2.18,-4.02 4.74,-7.84 7.72,-11.31 3.36,-3.93 7.92,-6.46 12.76,-8.1 4.92,-1.67 10.23,-2.36 15.26,-0.69 4.21,1.39 8,3.58 11.27,6.58 0.56,0.51 1.51,1.44 2.43,2.22 0.68,-1.4 1.34,-2.97 1.87,-4.12 2.13,-4.6 4.85,-8.86 8.08,-12.75 3.51,-4.22 7.96,-7.16 13.15,-8.92 8.61,-2.93 16.93,-2.18 24.71,2.74 7.64,5.06 12.57,17.34 15.4,25.66l11.47 33.77c1.04,3.07 2.09,6.4 3.32,9.4 0.37,0.91 1.38,1.67 2.18,2.16 1.4,0.86 3.93,0.53 5.43,0.21 2.9,-0.61 7.51,-1.15 8.74,2.48 0.91,2.69 -0.14,5.08 -2.85,6 -2.94,1 -6.01,1.82 -9.01,2.61 -2.89,0.77 -5.86,1.55 -8.69,2.52 -2.83,0.96 -5.67,2.15 -8.43,3.3 -2.86,1.19 -5.8,2.42 -8.73,3.41 -2.68,0.91 -5.33,0.21 -6.31,-2.66 -0.74,-2.19 -0.34,-4.4 1.65,-5.72 1.24,-0.82 2.67,-1.43 4.07,-1.91 1.14,-0.56 4.75,-2.48 4.66,-3.85 -0.21,-3.26 -2.24,-8.96 -3.29,-12.07l-11.4 -33.57c-1.6,-4.72 -4.73,-13.37 -8.4,-17.06 -2.03,-2.28 -4.77,-3.42 -7.72,-3.92 -2.97,-0.51 -5.99,-0.39 -8.74,0.94 -5.45,2.64 -9.65,6.53 -12.28,11.98 -1.06,2.3 -2.33,5.6 -2.06,8.19 0.33,3.31 1.66,7.34 2.73,10.49l11.94 35.15c1.08,3.19 2.17,6.38 3.25,9.58 0.28,0.82 1.4,1.52 2.11,1.91 1.58,0.84 3.91,0.61 5.55,0.29 2.9,-0.62 7.52,-1.16 8.75,2.47 0.91,2.69 -0.14,5.08 -2.85,6 -2.94,1 -6.01,1.82 -9.01,2.61 -2.89,0.77 -5.86,1.55 -8.69,2.52 -2.83,0.96 -5.67,2.15 -8.43,3.29 -2.86,1.19 -5.8,2.42 -8.73,3.41 -2.67,0.91 -5.33,0.21 -6.31,-2.66 -0.74,-2.18 -0.34,-4.4 1.65,-5.72 1.17,-0.78 2.49,-1.36 3.82,-1.82 1.51,-0.77 3.41,-1.98 4.13,-3.56 0.33,-0.73 0.8,-1.98 0.52,-2.8 -1.08,-3.19 -2.17,-6.38 -3.25,-9.58l-11.4 -33.57c-1.61,-4.74 -4.7,-13.38 -8.17,-17.13 -2.04,-2.3 -4.85,-3.4 -7.81,-3.88 -2.87,-0.46 -5.97,-0.44 -8.62,0.89 -5.35,2.69 -9.73,6.53 -12.32,12.01 -1.1,2.32 -2.31,5.56 -2.06,8.18 0.33,3.3 1.67,7.35 2.73,10.48l11.94 35.15c1.08,3.19 2.17,6.39 3.25,9.58 0.28,0.82 1.4,1.52 2.11,1.9 1.58,0.84 3.92,0.61 5.55,0.29 2.9,-0.62 7.52,-1.16 8.75,2.47 0.95,2.8 -0.33,5.14 -3.08,6.07 -2.86,0.97 -5.86,1.76 -8.78,2.53 -2.89,0.77 -5.86,1.55 -8.69,2.52 -2.83,0.96 -5.67,2.15 -8.43,3.3 -2.86,1.19 -5.8,2.42 -8.73,3.41 -2.68,0.91 -5.33,0.21 -6.3,-2.67 -0.74,-2.18 -0.34,-4.39 1.65,-5.72 1.17,-0.78 2.49,-1.36 3.82,-1.83 1.51,-0.77 3.41,-1.98 4.13,-3.56 0.33,-0.73 0.79,-1.97 0.51,-2.79 -1.08,-3.19 -2.17,-6.38 -3.25,-9.58l-12.61 -37.13c-0.6,-1.76 -3.39,-9.64 -4.96,-10.64 -0.1,-0.05 -0.17,-0.1 -0.25,-0.15 -0.6,-0.38 -3.02,0.33 -3.61,0.53l-2.29 0.78c-2.44,0.83 -5.03,0.34 -5.94,-2.35 -1.09,-3.21 1.78,-5.92 4.03,-7.57 2.33,-1.8 4.46,-4.28 6.27,-6.59 1.76,-2.24 3.62,-4.96 4.62,-7.84 0.73,-1.73 1.89,-4.37 3.8,-5.01 3.11,-1.05 5.11,1.4 6.02,4.08 0.46,1.37 1.75,5.29 2.87,8.02zm149.78 -53.28c6.08,-9.29 14.08,-17.33 24.74,-21.1 11.91,-4.22 23.7,-1.46 34.45,4.57 5.4,3.03 10.03,7.05 13.89,11.9 4.02,5.05 7,10.75 9.07,16.85 3.02,8.88 3.83,17.99 2.13,27.2 -1.63,8.82 -5.26,16.74 -11.15,23.49 -6.08,6.97 -13.85,11.66 -22.55,14.61 -6.27,2.13 -14.03,2.38 -20.37,2.2 -0.69,0.05 -1.4,0.11 -2.09,0.17 -0.24,0.02 -0.49,0.03 -0.75,0.05 0.18,1.14 0.73,2.81 0.93,3.42l7.18 21.13c1.04,3.08 2.09,6.39 3.32,9.4 0.37,0.91 1.38,1.67 2.18,2.16 1.35,0.83 3.79,0.53 5.3,0.24 1.4,-0.47 2.91,-0.86 4.38,-0.96 2.3,-0.15 3.99,1.19 4.72,3.33 0.96,2.81 -0.33,5.14 -3.09,6.08 -3.02,1.03 -6.15,1.87 -9.23,2.69 -2.73,0.72 -5.56,1.45 -8.23,2.36 -2.92,0.99 -5.81,2.18 -8.65,3.37 -2.79,1.16 -5.65,2.37 -8.51,3.34 -2.68,0.91 -5.33,0.21 -6.31,-2.66 -1.3,-3.83 2.47,-6.25 5.39,-7.5 0.98,-0.47 4.86,-2.47 4.77,-3.9 -0.21,-3.26 -2.23,-8.96 -3.29,-12.08l-27.7 -81.56c-0.6,-1.76 -3.39,-9.65 -5.04,-10.68 -0.83,-0.49 -2.98,0.14 -3.79,0.42l-2.52 0.85c-2.41,0.82 -4.84,0.16 -5.72,-2.42 -0.65,-1.92 -0.24,-3.82 1.18,-5.26 0.84,-0.85 1.73,-1.62 2.67,-2.27 2.22,-1.68 4.42,-4.3 6.18,-6.45 1.83,-2.25 3.89,-5.09 4.9,-8.02 0.74,-1.73 1.89,-4.37 3.81,-5.02 3.05,-1.04 4.92,1.62 5.78,4.16l2 5.9zm151.06 27.26c-0.99,1.41 -2.21,3.6 -2.79,4.58 -2.46,4.19 -5.36,8.07 -8.66,11.63 -3.56,3.84 -7.94,6.53 -12.89,8.21 -5.06,1.72 -10.19,1.85 -15.21,-0.05 -5.25,-1.98 -8.61,-5.98 -10.4,-11.26 -2.45,-7.2 -1.18,-14.07 2.87,-20.41 4.39,-6.86 9.66,-13.17 15.37,-18.95l11.8 -11.94c0.8,-0.8 3.54,-3.65 3.84,-4.67 0.14,-1.12 -1.15,-5.03 -1.52,-6.12l-2.95 -8.69c-1.24,-3.64 -3.32,-9.12 -6,-11.96 -2.07,-2.19 -6.19,-1.12 -8.62,-0.3 -3.9,1.32 -7.93,3.48 -10.05,7.17 -2.36,4.13 -3.32,9.78 -3.76,14.42 -0.18,3.43 -0.81,7.83 -3.29,10.35 -2.21,2.36 -5.04,4.88 -8.15,5.93 -2.85,0.97 -5.25,-0.3 -6.21,-3.13 -2.2,-6.48 -0.1,-13.04 3.2,-18.63 3.17,-6.04 7.45,-11.26 12.54,-15.77 5,-4.42 10.65,-8 16.99,-10.15 6.43,-2.18 13.82,-3.37 20.2,-0.49 2.62,1.06 5.09,2.68 6.37,5.3 1.41,2.89 2.55,6.32 3.58,9.36l15.83 46.61c0.81,2.39 4.62,13.45 8.67,12.07 1.27,-0.43 2.12,-1.72 2.67,-2.88 0.8,-1.67 2.05,-4.23 3.91,-4.86 2.26,-0.77 4.07,0.61 4.79,2.73 1.06,3.11 -0.95,7.04 -2.57,9.78 -2.99,4.41 -7.17,9.34 -12.37,11.11 -3.05,1.03 -6.07,0.79 -8.77,-1 -2.48,-1.64 -4.69,-3.82 -6.63,-6.07 -0.33,-0.38 -1.13,-1.29 -1.81,-1.91zm44.34 -90.49c0.73,-1.27 1.42,-2.56 1.74,-3.16 2.35,-4.4 5.15,-8.56 8.48,-12.28 3.46,-3.86 7.8,-6.5 12.68,-8.16 9.75,-3.31 19.09,-2.39 27.54,3.55 4.18,2.76 7.49,6.38 9.62,10.93 2.36,5.06 4.32,10.43 6.12,15.72l10.6 31.2c1.04,3.08 2.08,6.4 3.31,9.4 0.37,0.9 1.39,1.67 2.19,2.16 1.4,0.86 3.92,0.52 5.43,0.21 2.9,-0.6 7.51,-1.15 8.74,2.48 0.91,2.69 -0.15,5.08 -2.85,6 -2.94,1 -6.01,1.82 -9.01,2.61 -2.89,0.77 -5.85,1.55 -8.69,2.52 -2.83,0.96 -5.67,2.15 -8.43,3.3 -2.86,1.19 -5.8,2.42 -8.73,3.41 -2.68,0.91 -5.33,0.21 -6.31,-2.66 -0.74,-2.18 -0.34,-4.4 1.65,-5.72 1.23,-0.82 2.67,-1.43 4.07,-1.91 1.14,-0.56 4.75,-2.48 4.67,-3.85 -0.21,-3.26 -2.24,-8.96 -3.29,-12.08l-10.66 -31.4c-1.68,-4.95 -5.04,-13.88 -9.35,-17.3 -5.31,-4.55 -11.4,-4.77 -17.84,-2.59 -6.64,2.26 -11.04,6.84 -13.74,13.22 -1.07,2.72 -1.98,5.88 -1.86,8.83 0.12,3.19 1.09,6.66 2.11,9.66l11.27 33.18c1.04,3.07 2.09,6.4 3.32,9.39 0.37,0.91 1.38,1.67 2.18,2.16 1.35,0.83 3.79,0.53 5.3,0.24 1.4,-0.47 2.91,-0.86 4.38,-0.96 2.3,-0.15 3.99,1.19 4.72,3.33 0.95,2.8 -0.33,5.14 -3.08,6.07 -3.02,1.03 -6.16,1.87 -9.24,2.69 -2.73,0.72 -5.56,1.45 -8.23,2.36 -2.91,0.99 -5.81,2.19 -8.65,3.37 -2.78,1.16 -5.65,2.37 -8.51,3.34 -2.67,0.91 -5.33,0.21 -6.3,-2.66 -1.3,-3.83 2.47,-6.25 5.39,-7.5 0.98,-0.47 4.86,-2.47 4.77,-3.9 -0.2,-3.26 -2.24,-8.96 -3.29,-12.07l-12.61 -37.13c-0.6,-1.76 -3.39,-9.65 -5.03,-10.68 -0.84,-0.49 -2.98,0.14 -3.79,0.42l-2.52 0.85c-2.41,0.82 -4.84,0.16 -5.71,-2.42 -0.65,-1.92 -0.25,-3.81 1.18,-5.26 0.84,-0.85 1.73,-1.62 2.67,-2.27 2.22,-1.67 4.42,-4.3 6.18,-6.45 1.83,-2.25 3.89,-5.09 4.9,-8.02 0.73,-1.73 1.89,-4.37 3.8,-5.01 3.05,-1.04 4.93,1.61 5.79,4.16l2.95 8.69zm138.48 14.62l2.8 -52.38c0.14,-1.92 0.45,-6.35 -0.17,-8.17 -1.44,-4.26 -5.41,-3.49 -8.93,-2.3 -2.47,0.84 -6.79,1.95 -7.94,-1.45 -1.01,-2.99 0.2,-5.53 3.18,-6.55l29.35 -9.97c3.12,-1.06 5.74,0.24 6.8,3.38 0.96,2.84 -2.99,4.59 -4.99,5.6 -2.5,1.19 -4.18,2.98 -5,5.79 -2.26,6.4 -2.61,17.02 -2.77,23.86l-5.13 105.99c0.09,2.39 0.19,6.51 -0.86,8.7 -1.16,2.43 -4.67,3.79 -7.06,4.6 -0.82,0.28 -1.69,0.55 -2.57,0.79l-0.31 -0.91c0.37,-10.13 0.81,-25.51 0.81,-26.75l0.91 -17.84c0.15,-1.38 0.39,-4.15 -0.06,-5.49 -0.34,-1 -1.2,-2.16 -1.87,-2.97 -1.03,-1.26 -2.09,-2.5 -3.32,-3.79l-45.02 -53.47c-2.38,-2.9 -5.06,-6.03 -7.91,-8.46 -1.77,-1.51 -3.72,-1.55 -5.86,-0.82 -2.47,0.84 -6.78,1.95 -7.94,-1.45 -1.16,-3.42 0.99,-5.8 4.09,-6.86l35.54 -12.07c2.98,-1.01 5.49,0.27 6.51,3.26 1.15,3.39 -2.94,5.14 -5.41,5.98 -1.91,0.65 -3.64,1.61 -5.13,2.96 -0.99,0.9 -1.16,1.77 -0.73,3.04 0.58,1.72 3.43,5.12 4.6,6.53l34.39 41.21zm-578.1 -53.23c-0.64,1.31 -0.86,3.89 -0.96,5.33 -0.11,1.71 -0.18,4.15 0.1,5.48 0.77,0.32 3.48,-0.5 4.23,-0.76l14.9 -5.06c5.95,-2.02 14.76,-4.98 20.06,-8.51 2.92,-1.8 4.32,-3.94 3.16,-7.35 -1.31,-3.86 -4.27,-6.65 -7.7,-8.69 -4.93,-2.94 -10.64,-2.3 -15.86,-0.53 -9.54,3.24 -15.24,9.89 -17.77,19.63 -0.04,0.17 -0.1,0.31 -0.17,0.46zm37.21 257.45c8.98,-3.05 13.99,-9.78 16.39,-18.83 2.68,-10.1 2.33,-20.11 -1.04,-30.03 -2.27,-6.68 -5.65,-12.77 -10.12,-18.22 -4.19,-5.12 -9.28,-9.15 -15.4,-11.68 -5.78,-2.39 -11.6,-2.47 -17.51,-0.46 -9.02,3.06 -14.65,9.22 -17.36,18.35 -2.94,9.9 -2.39,19.78 0.93,29.56 3.52,10.39 9.69,18.93 18.2,25.79 7.79,6.28 16.31,8.79 25.91,5.53zm271.42 -134.5c-3.4,-10.03 -9.04,-18.82 -18.27,-24.19 -7.71,-4.23 -15.65,-5.3 -24,-2.47 -7.75,2.63 -13.63,7.31 -15.55,15.52 -0.03,0.12 -0.07,0.24 -0.11,0.35 -1.42,3.53 0.3,9.6 1.46,13l10.4 30.61c1.96,5.79 5.38,13.14 11.2,15.87 5.24,2.33 10.63,2.09 15.99,0.27 9.47,-3.21 15.69,-9.57 19,-19.01 3.49,-9.96 3.28,-19.95 -0.11,-29.96zm74.17 -27.57l-13.39 14.49c-5,5.52 -10.05,13.16 -7.41,20.94 0.9,2.66 2.41,4.82 5.06,5.89 2.77,1.12 5.61,0.88 8.39,-0.06 6.14,-2.09 10.22,-6.43 12.84,-12.33 0.81,-1.84 1.72,-4.39 1.55,-6.44 -0.22,-2.56 -1.25,-5.72 -2.07,-8.14l-4.02 -11.85c-0.17,-0.48 -0.54,-1.58 -0.94,-2.51z"/>
 </g>
</svg>
