<?xml version="1.0" encoding="UTF-8" standalone="no"?>
<!-- Creator: CorelDRAW 2019 (64-Bit) -->

<svg
   xmlns:dc="http://purl.org/dc/elements/1.1/"
   xmlns:cc="http://creativecommons.org/ns#"
   xmlns:rdf="http://www.w3.org/1999/02/22-rdf-syntax-ns#"
   xmlns:svg="http://www.w3.org/2000/svg"
   xmlns="http://www.w3.org/2000/svg"
   xmlns:xlink="http://www.w3.org/1999/xlink"
   xmlns:sodipodi="http://sodipodi.sourceforge.net/DTD/sodipodi-0.dtd"
   xmlns:inkscape="http://www.inkscape.org/namespaces/inkscape"
   xml:space="preserve"
   width="8.5359mm"
   height="6.3387mm"
   version="1.1"
   style="shape-rendering:geometricPrecision; text-rendering:geometricPrecision; image-rendering:optimizeQuality; fill-rule:evenodd; clip-rule:evenodd"
   viewBox="0 0 4.7 3.49"
   id="svg18"
   sodipodi:docname="konti-en.svg"
   inkscape:version="0.92.4 (5da689c313, 2019-01-14)"><metadata
   id="metadata22"><rdf:RDF><cc:Work
       rdf:about=""><dc:format>image/svg+xml</dc:format><dc:type
         rdf:resource="http://purl.org/dc/dcmitype/StillImage" /></cc:Work></rdf:RDF></metadata><sodipodi:namedview
   pagecolor="#ffffff"
   bordercolor="#666666"
   borderopacity="1"
   objecttolerance="10"
   gridtolerance="10"
   guidetolerance="10"
   inkscape:pageopacity="0"
   inkscape:pageshadow="2"
   inkscape:window-width="1600"
   inkscape:window-height="845"
   id="namedview20"
   showgrid="false"
   inkscape:zoom="9.8508635"
   inkscape:cx="16.130835"
   inkscape:cy="11.978645"
   inkscape:window-x="-8"
   inkscape:window-y="-8"
   inkscape:window-maximized="1"
   inkscape:current-layer="Слой_x0020_1" />
 <defs
   id="defs10">
  <style
   type="text/css"
   id="style2">
   <![CDATA[
    .fil1 {fill:url(#id0)}
    .fil0 {fill:url(#id1);fill-rule:nonzero}
   ]]>
  </style>
  <linearGradient
   id="id0"
   gradientUnits="userSpaceOnUse"
   x1="0.63"
   y1="3.32"
   x2="4.13"
   y2="3.01">
   <stop
   offset="0"
   style="stop-opacity:1; stop-color:#166792"
   id="stop4" />
   <stop
   offset="1"
   style="stop-opacity:1; stop-color:#23AFE4"
   id="stop6" />
  </linearGradient>
  <linearGradient
   id="id1"
   gradientUnits="userSpaceOnUse"
   xlink:href="#id0"
   x1="-0.28"
   y1="1.49"
   x2="4.98"
   y2="0.92">
  </linearGradient>
 </defs>
 <g
   id="Слой_x0020_1">
  <metadata
   id="CorelCorpID_0Corel-Layer" />
  <path
   class="fil0"
   d="M1.42 0.88l0.22 -0.74 0.22 -0.02 -0.34 0.99 -0.21 0.01 -0.34 -0.94 0.22 -0.02 0.22 0.71zm0.72 0.19l-0.19 0.01 0 -0.72 0.19 -0.01 0 0.72zm-0.2 -0.89c0,-0.03 0.01,-0.05 0.03,-0.07 0.02,-0.02 0.05,-0.03 0.08,-0.03 0.03,-0 0.06,0.01 0.08,0.02 0.02,0.02 0.03,0.04 0.03,0.07 0,0.03 -0.01,0.05 -0.03,0.07 -0.02,0.02 -0.05,0.03 -0.08,0.03 -0.03,0 -0.06,-0.01 -0.08,-0.02 -0.02,-0.02 -0.03,-0.04 -0.03,-0.07zm0.75 0.65c0,-0.02 -0.01,-0.04 -0.03,-0.05 -0.02,-0.01 -0.06,-0.02 -0.11,-0.03 -0.17,-0.02 -0.26,-0.09 -0.26,-0.2 0,-0.06 0.03,-0.12 0.08,-0.17 0.05,-0.05 0.12,-0.07 0.21,-0.08 0.09,-0.01 0.16,0.01 0.22,0.05 0.05,0.04 0.08,0.09 0.08,0.16l-0.19 0.01c0,-0.03 -0.01,-0.05 -0.03,-0.07 -0.02,-0.02 -0.05,-0.02 -0.08,-0.02 -0.03,0 -0.06,0.01 -0.08,0.03 -0.02,0.02 -0.03,0.04 -0.03,0.06 0,0.02 0.01,0.04 0.03,0.05 0.02,0.01 0.05,0.02 0.1,0.03 0.05,0.01 0.09,0.01 0.12,0.02 0.1,0.03 0.15,0.09 0.15,0.18 0,0.07 -0.03,0.12 -0.08,0.16 -0.06,0.04 -0.13,0.07 -0.22,0.08 -0.06,0 -0.11,-0 -0.16,-0.02 -0.05,-0.02 -0.08,-0.05 -0.11,-0.08 -0.03,-0.04 -0.04,-0.08 -0.04,-0.12l0.18 -0.01c0,0.03 0.01,0.06 0.04,0.08 0.02,0.02 0.06,0.02 0.09,0.02 0.04,-0 0.06,-0.01 0.08,-0.03 0.02,-0.02 0.03,-0.03 0.03,-0.06zm0.51 0.16l-0.19 0.01 0 -0.72 0.19 -0.01 0 0.72zm-0.2 -0.89c0,-0.03 0.01,-0.05 0.03,-0.07 0.02,-0.02 0.05,-0.03 0.08,-0.03 0.03,-0 0.06,0.01 0.08,0.02 0.02,0.02 0.03,0.04 0.03,0.07 0,0.03 -0.01,0.05 -0.03,0.07 -0.02,0.02 -0.05,0.03 -0.08,0.03 -0.03,0 -0.06,-0.01 -0.08,-0.02 -0.02,-0.02 -0.03,-0.04 -0.03,-0.07zm0.59 -0.03l0 0.18 0.12 -0.01 0 0.14 -0.12 0.01 0 0.36c0,0.03 0.01,0.05 0.02,0.06 0.01,0.01 0.03,0.02 0.06,0.01 0.02,-0 0.04,-0 0.06,-0.01l0 0.15c-0.04,0.01 -0.08,0.02 -0.12,0.03 -0.13,0.01 -0.2,-0.05 -0.21,-0.19l0 -0.39 -0.11 0.01 0 -0.14 0.11 -0.01 0 -0.18 0.19 -0.01zm-2.91 2.06l0.09 -0.46 0.19 -0.01 -0.18 0.73 -0.16 0.01 -0.14 -0.44 -0.14 0.46 -0.16 0.01 -0.18 -0.71 0.19 -0.01 0.09 0.45 0.13 -0.47 0.14 -0.01 0.13 0.45zm0.71 0.23c-0.11,0.01 -0.19,-0.02 -0.26,-0.08 -0.07,-0.06 -0.1,-0.14 -0.1,-0.25l0 -0.02c0,-0.07 0.01,-0.14 0.04,-0.2 0.03,-0.06 0.07,-0.11 0.12,-0.14 0.05,-0.03 0.11,-0.05 0.18,-0.06 0.1,-0.01 0.18,0.02 0.23,0.08 0.06,0.06 0.08,0.14 0.08,0.26l0 0.08 -0.46 0.03c0.01,0.05 0.02,0.08 0.06,0.11 0.03,0.03 0.07,0.04 0.12,0.03 0.07,-0.01 0.13,-0.04 0.17,-0.09l0.09 0.1c-0.03,0.04 -0.07,0.08 -0.12,0.1 -0.05,0.03 -0.1,0.04 -0.16,0.05zm-0.02 -0.59c-0.04,0 -0.07,0.02 -0.09,0.05 -0.02,0.03 -0.04,0.07 -0.05,0.11l0.27 -0.02 0 -0.02c-0,-0.04 -0.01,-0.07 -0.03,-0.1 -0.02,-0.02 -0.05,-0.03 -0.09,-0.03zm1.07 0.15c0,0.12 -0.02,0.21 -0.07,0.27 -0.05,0.07 -0.12,0.1 -0.21,0.11 -0.08,0.01 -0.14,-0.02 -0.19,-0.08l-0.01 0.08 -0.17 0.01 0 -1.02 0.19 -0.01 0 0.37c0.04,-0.05 0.1,-0.08 0.17,-0.09 0.09,-0.01 0.16,0.02 0.21,0.08 0.05,0.06 0.07,0.15 0.07,0.27l0 0.01zm-0.19 -0c0,-0.07 -0.01,-0.13 -0.03,-0.16 -0.02,-0.03 -0.06,-0.05 -0.1,-0.04 -0.06,0 -0.1,0.03 -0.13,0.08l0 0.28c0.02,0.05 0.07,0.07 0.13,0.07 0.06,-0 0.1,-0.04 0.12,-0.1 0.01,-0.03 0.01,-0.07 0.01,-0.13zm0.7 0.12c0,-0.02 -0.01,-0.04 -0.03,-0.05 -0.02,-0.01 -0.06,-0.02 -0.11,-0.03 -0.17,-0.02 -0.26,-0.09 -0.26,-0.2 0,-0.06 0.03,-0.12 0.08,-0.17 0.05,-0.05 0.12,-0.07 0.21,-0.08 0.09,-0.01 0.16,0.01 0.22,0.05 0.05,0.04 0.08,0.09 0.08,0.16l-0.19 0.01c0,-0.03 -0.01,-0.05 -0.03,-0.07 -0.02,-0.02 -0.05,-0.02 -0.08,-0.02 -0.03,0 -0.06,0.01 -0.08,0.03 -0.02,0.02 -0.03,0.04 -0.03,0.06 0,0.02 0.01,0.04 0.03,0.05 0.02,0.01 0.05,0.02 0.1,0.03 0.05,0.01 0.09,0.01 0.12,0.02 0.1,0.03 0.15,0.09 0.15,0.18 0,0.07 -0.03,0.12 -0.08,0.16 -0.06,0.04 -0.13,0.07 -0.22,0.08 -0.06,0 -0.11,-0 -0.16,-0.02 -0.05,-0.02 -0.08,-0.05 -0.11,-0.08 -0.03,-0.04 -0.04,-0.07 -0.04,-0.12l0.18 -0.01c0,0.03 0.01,0.06 0.04,0.08 0.02,0.02 0.06,0.02 0.09,0.02 0.04,-0 0.06,-0.01 0.08,-0.03 0.02,-0.02 0.03,-0.03 0.03,-0.06zm0.51 0.16l-0.19 0.01 0 -0.72 0.19 -0.01 0 0.72zm-0.2 -0.89c0,-0.03 0.01,-0.05 0.03,-0.07 0.02,-0.02 0.05,-0.03 0.08,-0.03 0.03,-0 0.06,0.01 0.08,0.02 0.02,0.02 0.03,0.04 0.03,0.07 0,0.03 -0.01,0.05 -0.03,0.07 -0.02,0.02 -0.05,0.03 -0.08,0.03 -0.03,0 -0.06,-0.01 -0.08,-0.02 -0.02,-0.02 -0.03,-0.04 -0.03,-0.07zm0.59 -0.03l0 0.18 0.12 -0.01 0 0.14 -0.12 0.01 0 0.36c0,0.03 0.01,0.05 0.02,0.06 0.01,0.01 0.03,0.02 0.06,0.01 0.02,-0 0.04,-0 0.06,-0.01l0 0.15c-0.04,0.01 -0.08,0.02 -0.12,0.03 -0.13,0.01 -0.2,-0.05 -0.21,-0.19l0 -0.39 -0.11 0.01 0 -0.14 0.11 -0.01 0 -0.18 0.19 -0.01zm0.56 0.87c-0.11,0.01 -0.19,-0.02 -0.26,-0.08 -0.07,-0.06 -0.1,-0.14 -0.1,-0.25l0 -0.02c0,-0.07 0.01,-0.14 0.04,-0.2 0.03,-0.06 0.07,-0.11 0.12,-0.14 0.05,-0.03 0.11,-0.05 0.18,-0.06 0.1,-0.01 0.18,0.02 0.23,0.08 0.06,0.06 0.08,0.14 0.08,0.26l0 0.08 -0.46 0.03c0.01,0.05 0.02,0.08 0.06,0.11 0.03,0.03 0.07,0.04 0.12,0.03 0.07,-0.01 0.13,-0.04 0.17,-0.09l0.09 0.1c-0.03,0.04 -0.07,0.08 -0.12,0.1 -0.05,0.03 -0.1,0.04 -0.16,0.05zm-0.02 -0.59c-0.04,0 -0.07,0.02 -0.09,0.05 -0.02,0.03 -0.04,0.07 -0.05,0.11l0.27 -0.02 0 -0.02c-0,-0.04 -0.01,-0.07 -0.03,-0.1 -0.02,-0.02 -0.05,-0.03 -0.09,-0.03z"
   id="path13" />
  <polygon
   class="fil1"
   points="3.16,2.99 0.82,3.15 0.82,3.37 3.16,3.21 3.16,3.49 3.94,3.05 3.16,2.71 "
   id="polygon15" />
 </g>
</svg>