<?xml version="1.0" encoding="UTF-8"?>
<!DOCTYPE svg PUBLIC "-//W3C//DTD SVG 1.1//EN" "http://www.w3.org/Graphics/SVG/1.1/DTD/svg11.dtd">
<!-- Creator: CorelDRAW 2019 (64-Bit) -->
<svg xmlns="http://www.w3.org/2000/svg" xml:space="preserve" width="9.5746mm" height="6.3906mm" version="1.1" style="shape-rendering:geometricPrecision; text-rendering:geometricPrecision; image-rendering:optimizeQuality; fill-rule:evenodd; clip-rule:evenodd"
viewBox="0 0 5.92 3.95"
 xmlns:xlink="http://www.w3.org/1999/xlink"
 xmlns:xodm="http://www.corel.com/coreldraw/odm/2003">
 <defs>
  <style type="text/css">
   <![CDATA[
    .fil1 {fill:url(#id0)}
    .fil0 {fill:url(#id1);fill-rule:nonzero}
   ]]>
  </style>
  <linearGradient id="id0" gradientUnits="userSpaceOnUse" x1="1.01" y1="3.74" x2="4.94" y2="3.42">
   <stop offset="0" style="stop-opacity:1; stop-color:#166792"/>
   <stop offset="1" style="stop-opacity:1; stop-color:#23AFE4"/>
  </linearGradient>
  <linearGradient id="id1" gradientUnits="userSpaceOnUse" xlink:href="#id0" x1="-0.36" y1="1.69" x2="6.28" y2="1.06">
  </linearGradient>
 </defs>
 <g id="Слой_x0020_1">
  <metadata id="CorelCorpID_0Corel-Layer"/>
  <g id="_1796390353232">
   <path class="fil0" d="M0.88 1.34l-0.22 0.01 0 -0.9 -0.43 0.03 0 0.9 -0.22 0.01 0 -1.09 0.88 -0.05 0 1.09zm0.55 -0.02c-0.12,0.01 -0.21,-0.02 -0.29,-0.09 -0.07,-0.07 -0.11,-0.16 -0.11,-0.28l0 -0.02c0,-0.08 0.02,-0.15 0.05,-0.22 0.03,-0.07 0.08,-0.12 0.13,-0.16 0.06,-0.04 0.12,-0.06 0.2,-0.06 0.11,-0.01 0.2,0.02 0.26,0.09 0.06,0.07 0.09,0.16 0.09,0.29l0 0.09 -0.51 0.03c0.01,0.05 0.03,0.09 0.06,0.12 0.04,0.03 0.08,0.04 0.13,0.04 0.08,-0.01 0.15,-0.04 0.19,-0.1l0.11 0.11c-0.03,0.05 -0.08,0.09 -0.13,0.11 -0.05,0.03 -0.12,0.05 -0.18,0.05zm-0.02 -0.66c-0.04,0 -0.08,0.02 -0.1,0.05 -0.03,0.03 -0.04,0.07 -0.05,0.13l0.3 -0.02 0 -0.02c-0,-0.05 -0.01,-0.08 -0.04,-0.11 -0.02,-0.02 -0.06,-0.04 -0.11,-0.03zm1.2 0.18c0,0.12 -0.03,0.23 -0.08,0.3 -0.06,0.08 -0.13,0.12 -0.23,0.13 -0.08,0 -0.15,-0.02 -0.2,-0.07l0 0.38 -0.22 0.01 0 -1.12 0.2 -0.01 0.01 0.08c0.05,-0.07 0.12,-0.1 0.2,-0.11 0.1,-0.01 0.18,0.03 0.23,0.1 0.05,0.07 0.08,0.17 0.08,0.3l0 0.01zm-0.22 -0c0,-0.08 -0.01,-0.13 -0.04,-0.17 -0.03,-0.04 -0.07,-0.06 -0.12,-0.05 -0.07,0 -0.11,0.03 -0.14,0.09l0 0.33c0.03,0.05 0.07,0.08 0.14,0.07 0.1,-0.01 0.15,-0.09 0.15,-0.26zm0.72 0.38c-0.12,0.01 -0.21,-0.02 -0.29,-0.09 -0.07,-0.07 -0.11,-0.16 -0.11,-0.28l0 -0.02c0,-0.08 0.02,-0.15 0.05,-0.22 0.03,-0.07 0.08,-0.12 0.13,-0.16 0.06,-0.04 0.12,-0.06 0.2,-0.06 0.11,-0.01 0.2,0.02 0.26,0.09 0.06,0.07 0.09,0.16 0.09,0.29l0 0.09 -0.51 0.03c0.01,0.05 0.03,0.09 0.06,0.12 0.04,0.03 0.08,0.04 0.13,0.04 0.08,-0.01 0.15,-0.04 0.19,-0.1l0.11 0.11c-0.03,0.05 -0.08,0.09 -0.13,0.11 -0.05,0.03 -0.12,0.05 -0.18,0.05zm-0.02 -0.66c-0.04,0 -0.08,0.02 -0.1,0.05 -0.03,0.03 -0.04,0.07 -0.05,0.13l0.3 -0.02 0 -0.02c-0,-0.05 -0.01,-0.08 -0.04,-0.11 -0.02,-0.02 -0.06,-0.04 -0.11,-0.03zm0.96 -0.22l0.22 -0.01 0 0.81 -0.22 0.01 0 -0.5 -0.27 0.51 -0.22 0.01 0 -0.81 0.22 -0.01 0 0.5 0.27 -0.51zm0.13 -0.33c0,0.07 -0.02,0.12 -0.07,0.16 -0.05,0.04 -0.11,0.07 -0.19,0.07 -0.08,0 -0.14,-0.01 -0.19,-0.05 -0.05,-0.04 -0.07,-0.09 -0.07,-0.16l0.15 -0.01c0,0.03 0.01,0.05 0.03,0.07 0.02,0.02 0.04,0.02 0.08,0.02 0.03,-0 0.06,-0.01 0.08,-0.03 0.02,-0.02 0.03,-0.04 0.03,-0.07l0.15 -0.01zm0.92 0.44l-0.26 0.02 0 0.63 -0.22 0.01 0 -0.63 -0.25 0.02 0 -0.17 0.73 -0.04 0 0.17zm0.59 -0.21l0.22 -0.01 0 0.81 -0.22 0.01 0 -0.5 -0.27 0.51 -0.22 0.01 0 -0.81 0.22 -0.01 0 0.5 0.27 -0.51zm-4.63 2.46l-0.22 0.01 0 -0.31 -0.27 0.02 0 0.31 -0.22 0.01 0 -0.81 0.22 -0.01 0 0.32 0.27 -0.02 0 -0.32 0.22 -0.01 0 0.81zm0.63 -0.04c-0.01,-0.02 -0.02,-0.04 -0.02,-0.07 -0.05,0.06 -0.12,0.09 -0.2,0.1 -0.08,0 -0.14,-0.01 -0.2,-0.06 -0.05,-0.04 -0.08,-0.1 -0.08,-0.17 0,-0.09 0.03,-0.15 0.1,-0.2 0.06,-0.05 0.16,-0.08 0.27,-0.09l0.1 -0.01 0 -0.05c0,-0.04 -0.01,-0.07 -0.03,-0.09 -0.02,-0.02 -0.05,-0.03 -0.09,-0.03 -0.04,0 -0.06,0.01 -0.09,0.03 -0.02,0.02 -0.03,0.04 -0.03,0.07l-0.22 0.01c0,-0.05 0.01,-0.09 0.04,-0.13 0.03,-0.04 0.07,-0.08 0.12,-0.1 0.05,-0.03 0.11,-0.04 0.18,-0.04 0.1,-0.01 0.18,0.01 0.24,0.06 0.06,0.05 0.09,0.11 0.09,0.21l0 0.35c0,0.08 0.01,0.13 0.03,0.17l0 0.01 -0.22 0.01zm-0.18 -0.14c0.03,-0 0.06,-0.01 0.09,-0.03 0.03,-0.02 0.05,-0.04 0.06,-0.06l0 -0.14 -0.08 0c-0.11,0.01 -0.17,0.05 -0.17,0.12l-0 0.01c0,0.03 0.01,0.05 0.03,0.06 0.02,0.02 0.04,0.02 0.08,0.02zm1.24 -0.09c0.04,-0 0.07,-0.02 0.1,-0.04 0.02,-0.02 0.04,-0.05 0.04,-0.09l0.2 -0.01c-0,0.05 -0.02,0.11 -0.04,0.15 -0.03,0.05 -0.07,0.09 -0.12,0.11 -0.05,0.03 -0.11,0.04 -0.17,0.05 -0.12,0.01 -0.21,-0.02 -0.27,-0.09 -0.07,-0.07 -0.1,-0.17 -0.1,-0.3l0 -0.01c0,-0.12 0.03,-0.23 0.1,-0.3 0.07,-0.08 0.16,-0.12 0.27,-0.13 0.1,-0.01 0.18,0.02 0.24,0.07 0.06,0.05 0.09,0.13 0.09,0.22l-0.2 0.01c-0,-0.04 -0.01,-0.08 -0.04,-0.1 -0.02,-0.02 -0.06,-0.04 -0.1,-0.03 -0.05,0 -0.09,0.02 -0.11,0.06 -0.03,0.04 -0.04,0.1 -0.04,0.18l0 0.02c0,0.08 0.01,0.14 0.04,0.18 0.03,0.03 0.06,0.05 0.12,0.05zm0.93 0.1c-0.01,-0.02 -0.02,-0.04 -0.02,-0.07 -0.05,0.06 -0.12,0.09 -0.2,0.1 -0.08,0 -0.14,-0.01 -0.2,-0.06 -0.05,-0.04 -0.08,-0.1 -0.08,-0.17 0,-0.09 0.03,-0.15 0.1,-0.2 0.06,-0.05 0.16,-0.08 0.27,-0.09l0.1 -0.01 0 -0.05c0,-0.04 -0.01,-0.07 -0.03,-0.09 -0.02,-0.02 -0.05,-0.03 -0.09,-0.03 -0.04,0 -0.06,0.01 -0.09,0.03 -0.02,0.02 -0.03,0.04 -0.03,0.07l-0.22 0.01c0,-0.05 0.01,-0.09 0.04,-0.13 0.03,-0.04 0.07,-0.08 0.12,-0.1 0.05,-0.03 0.11,-0.04 0.18,-0.04 0.1,-0.01 0.18,0.01 0.24,0.06 0.06,0.05 0.09,0.11 0.09,0.21l0 0.35c0,0.08 0.01,0.13 0.03,0.17l0 0.01 -0.22 0.01zm-0.18 -0.14c0.03,-0 0.06,-0.01 0.09,-0.03 0.03,-0.02 0.05,-0.04 0.06,-0.06l0 -0.14 -0.08 0c-0.11,0.01 -0.17,0.05 -0.17,0.12l-0 0.01c0,0.03 0.01,0.05 0.03,0.06 0.02,0.02 0.04,0.02 0.08,0.02zm1.02 -0.72l0.22 -0.01 0 0.81 -0.22 0.01 0 -0.5 -0.27 0.51 -0.22 0.01 0 -0.81 0.22 -0.01 0 0.5 0.27 -0.51zm0.13 -0.33c0,0.07 -0.02,0.12 -0.07,0.16 -0.05,0.04 -0.11,0.07 -0.19,0.07 -0.08,0 -0.14,-0.01 -0.19,-0.05 -0.05,-0.04 -0.07,-0.09 -0.07,-0.16l0.15 -0.01c0,0.03 0.01,0.05 0.03,0.07 0.02,0.02 0.04,0.02 0.08,0.02 0.03,-0 0.06,-0.01 0.08,-0.03 0.02,-0.02 0.03,-0.04 0.03,-0.07l0.15 -0.01zm0.92 0.44l-0.26 0.02 0 0.63 -0.22 0.01 0 -0.63 -0.25 0.02 0 -0.17 0.73 -0.04 0 0.17z"/>
   <polygon class="fil1" points="3.85,3.39 1.22,3.55 1.22,3.8 3.85,3.64 3.85,3.95 4.73,3.46 3.85,3.07 "/>
  </g>
 </g>
</svg>
