<svg id="Логотип" xmlns="http://www.w3.org/2000/svg" xmlns:xlink="http://www.w3.org/1999/xlink" viewBox="0 0 347.52 121.44"><defs><linearGradient id="Безымянный_градиент_4" x1="166.61" y1="1145.99" x2="202" y2="1149.63" gradientTransform="matrix(0.76, 0, 0, -0.76, -97.9, 914.52)" gradientUnits="userSpaceOnUse"><stop offset="0" stop-color="#166792"/><stop offset="1" stop-color="#23afe4"/></linearGradient><linearGradient id="Безымянный_градиент_4-2" x1="225.27" y1="1154.89" x2="228.3" y2="1119.45" xlink:href="#Безымянный_градиент_4"/><linearGradient id="Безымянный_градиент_4-3" x1="234.13" y1="1096.61" x2="198.69" y2="1093.33" xlink:href="#Безымянный_градиент_4"/><linearGradient id="Безымянный_градиент_4-4" x1="175.7" y1="1087.43" x2="172.65" y2="1123.21" xlink:href="#Безымянный_градиент_4"/></defs><path id="path54" d="M112.11,29.12h2.09l15.94,40.67a3.79,3.79,0,0,0,3.92,2.46h1.39v2.28H117.71V72.25h1.43a9.32,9.32,0,0,0,3.91-.59,1.39,1.39,0,0,0,.78-1.29,3.1,3.1,0,0,0-.22-1.07l-3.67-9.42H102.36l-2.09,5.39a10.59,10.59,0,0,0-.82,3.42,3.13,3.13,0,0,0,1.37,2.52,6.46,6.46,0,0,0,4,1.06h1.51v2.28H90.17V72.27a6.72,6.72,0,0,0,4.11-1.14,9.84,9.84,0,0,0,2.77-4.27l15.06-37.72Zm-.84,8.56-7.93,19.84H119Zm25.35,8.63,10.16-.49V57.19a25.22,25.22,0,0,1,3.9-8.5,7,7,0,0,1,5.67-2.89A5,5,0,0,1,160,47.19a5,5,0,0,1,1.37,3.73,4.41,4.41,0,0,1-.92,2.95,3,3,0,0,1-2.31,1.05A2.79,2.79,0,0,1,156,54a3.41,3.41,0,0,1-.82-2.44,3.84,3.84,0,0,1,.46-1.85,3.69,3.69,0,0,0,.45-.94c0-.29-.19-.45-.56-.45a4.53,4.53,0,0,0-2.8,1.44,13.15,13.15,0,0,0-3.32,5.53,30.08,30.08,0,0,0-1.79,8.75v6.06a1.79,1.79,0,0,0,.72,1.56,4.36,4.36,0,0,0,2.48.55h3.57v2.28H136.82V72.23h2.79a3.54,3.54,0,0,0,2.15-.55,1.63,1.63,0,0,0,.72-1.35V52.4a4.26,4.26,0,0,0-.88-3,3.25,3.25,0,0,0-2.5-.93h-2.48V46.31Zm35.27-11.45h2V46.31h9.12v2.77h-9.12V67.21A5.31,5.31,0,0,0,175,70.8a3.51,3.51,0,0,0,2.79,1.25,4.18,4.18,0,0,0,3.44-1.91c1-1.27,1.5-3.36,1.66-6.29h2q-.18,5.62-2.56,8.36a7.79,7.79,0,0,1-6.15,2.73A7.51,7.51,0,0,1,170.78,73a6.69,6.69,0,0,1-2-5v-19h-4.92V47A7.91,7.91,0,0,0,169,44.16c1.76-2.23,2.7-5.33,2.85-9.34Zm17.45-4.8h23.14q6.83,0,10.43,3a9.41,9.41,0,0,1,3.62,7.54A9,9,0,0,1,224,47a17.29,17.29,0,0,1-7.62,4.16c4.2.88,7.34,2.29,9.45,4.16A9.25,9.25,0,0,1,229,62.52a10.06,10.06,0,0,1-1.78,5.88,13.4,13.4,0,0,1-6,4.33,23.88,23.88,0,0,1-9.43,1.78H189.34V72.23H193a4.2,4.2,0,0,0,2.42-.55,1.49,1.49,0,0,0,.76-1.23V34.86a2.41,2.41,0,0,0-.74-1.91,3.29,3.29,0,0,0-2.19-.65h-3.9V30.06Zm13.24,20.39H211a8.39,8.39,0,0,0,6.17-2.27c1.52-1.5,2.3-4,2.3-7.42a9.63,9.63,0,0,0-1.09-5,6.15,6.15,0,0,0-3.18-2.6,22.14,22.14,0,0,0-7.21-.82c-2.42,0-3.93.18-4.51.53a2,2,0,0,0-.88,1.84V50.45Zm0,2.28V69.86a2.24,2.24,0,0,0,.7,1.8,4.06,4.06,0,0,0,2.54.61h5.39c3.56,0,6.19-.79,7.91-2.37s2.56-4,2.56-7.34A9.59,9.59,0,0,0,219,55.37a9.84,9.84,0,0,0-7.3-2.64Zm41-23.16V70.35a1.66,1.66,0,0,0,.51,1.29,2.8,2.8,0,0,0,1.81.61h3v2.28h-16V72.25h2.82a2.8,2.8,0,0,0,2.05-.67,2.52,2.52,0,0,0,.68-1.87V35.47a2.68,2.68,0,0,0-.82-2.19,4.06,4.06,0,0,0-2.75-1h-2.54V30l11.21-.49Zm16.13-.06a3.11,3.11,0,0,1,2.36,1,3.27,3.27,0,0,1,1,2.4,3.14,3.14,0,0,1-1,2.34,3.31,3.31,0,0,1-4.76,0,3.27,3.27,0,0,1-1-2.36,3.11,3.11,0,0,1,1-2.36A3.2,3.2,0,0,1,259.67,29.51ZM251.8,46.33,263.07,46V70.23a1.73,1.73,0,0,0,.49,1.41,2.65,2.65,0,0,0,1.74.61h3.18v2.28H252.4V72.25h3A2.25,2.25,0,0,0,258,69.73V52a3.21,3.21,0,0,0-1-2.54,4.26,4.26,0,0,0-2.87-.86H251.8V46.33ZM275.08,64c1.25,3.43,2.66,5.8,4.28,7.12a9,9,0,0,0,6,2,7.78,7.78,0,0,0,5-1.43A4.43,4.43,0,0,0,292.09,68a3.77,3.77,0,0,0-.64-2.19,4,4,0,0,0-1.78-1.43A42.86,42.86,0,0,0,283.75,63a23.4,23.4,0,0,1-6.36-1.9,7.16,7.16,0,0,1-2.8-2.71,7.5,7.5,0,0,1-1-3.77A8.55,8.55,0,0,1,275.65,49a9.24,9.24,0,0,1,7.5-3.2,11.3,11.3,0,0,1,6.79,2.28l2-2.1h1.23l.78,10h-2a12.54,12.54,0,0,0-3.58-6.13,8.4,8.4,0,0,0-5.56-1.87,6.82,6.82,0,0,0-4.5,1.38,4.32,4.32,0,0,0-1.62,3.4,3.59,3.59,0,0,0,1.51,2.93c1,.8,2.91,1.43,5.78,1.88a46.77,46.77,0,0,1,6.5,1.38,7.91,7.91,0,0,1,3.83,2.8,7.63,7.63,0,0,1,1.35,4.59,8.15,8.15,0,0,1-2.93,6.32,10.85,10.85,0,0,1-7.44,2.58,12.65,12.65,0,0,1-7.78-2.71l-2.18,2.52h-1.59l-.6-11.21h2Zm28.5,0c1.25,3.43,2.65,5.8,4.28,7.12a9,9,0,0,0,5.95,2,7.74,7.74,0,0,0,5-1.43A4.44,4.44,0,0,0,320.59,68a3.77,3.77,0,0,0-.64-2.19,4,4,0,0,0-1.78-1.43A43.26,43.26,0,0,0,312.25,63a23.38,23.38,0,0,1-6.37-1.9,7.13,7.13,0,0,1-2.79-2.71,7.51,7.51,0,0,1-1-3.77A8.6,8.6,0,0,1,304.14,49a9.26,9.26,0,0,1,7.5-3.2,11.31,11.31,0,0,1,6.8,2.28l2-2.1h1.23l.79,10h-2a12.53,12.53,0,0,0-3.57-6.13,8.41,8.41,0,0,0-5.57-1.87,6.79,6.79,0,0,0-4.49,1.38,4.32,4.32,0,0,0-1.62,3.4,3.61,3.61,0,0,0,1.5,2.93q1.47,1.2,5.79,1.88A47.13,47.13,0,0,1,319,59a7.91,7.91,0,0,1,3.83,2.8,7.63,7.63,0,0,1,1.35,4.59,8.15,8.15,0,0,1-2.93,6.32,10.88,10.88,0,0,1-7.45,2.58A12.62,12.62,0,0,1,306,72.6l-2.19,2.52h-1.58l-.6-11.21h2Z" style="fill:#2b2a29"/><g id="g66"><polygon id="polygon56" points="30.64 25.58 54.73 31.79 47.48 52.2 38.75 55.58 30.64 25.58" style="fill-rule:evenodd;fill:url(#Безымянный_градиент_4)"/><polygon id="polygon58" points="89.33 36.23 82.79 59.86 62.42 52.59 59.18 43.8 89.33 36.23" style="fill-rule:evenodd;fill:url(#Безымянный_градиент_4-2)"/><polygon id="polygon60" points="78.81 94.35 55.19 87.87 62.23 67.58 70.97 64.27 78.81 94.35" style="fill-rule:evenodd;fill:url(#Безымянный_градиент_4-3)"/><polygon id="polygon62" points="20.31 83.92 26.99 59.78 47.46 67.42 50.72 76.29 20.31 83.92" style="fill-rule:evenodd;fill:url(#Безымянный_градиент_4-4)"/><polygon id="polygon64" points="54.73 31.79 62.83 52.67 83.05 59.92 62.36 67.65 55.19 87.87 47.38 67.38 26.87 59.74 47.48 52.2 54.73 31.79" style="fill:#fefefe;fill-rule:evenodd"/></g><path d="M95.79,89.62c-2.66,0-4.41-2-4.41-4.93,0-2.67,1.63-4.92,4.49-4.92A3.72,3.72,0,0,1,99.81,83H98.17a2.21,2.21,0,0,0-2.33-1.81c-2,0-2.79,1.79-2.79,3.52s.77,3.53,2.78,3.53c1.53,0,2.23-1,2.41-2.41h1.65A3.9,3.9,0,0,1,95.79,89.62Z" style="fill:#2b2a29"/><path d="M108.23,81.41h-3v8h-1.65v-8h-3V80h7.66Z" style="fill:#2b2a29"/><path d="M113.76,80c1.94,0,3.28.9,3.28,2.87A2.77,2.77,0,0,1,114,85.77h-2.66V89.4h-1.65V80Zm-2.44,4.46h2.31c1.07,0,1.79-.44,1.79-1.55s-.89-1.54-1.94-1.54h-2.16Z" style="fill:#2b2a29"/><path d="M125.76,89.4H124l-.9-2.5h-3.73l-.93,2.5h-1.71L120.36,80h1.76Zm-4.51-7.71-1.47,4h2.87Z" style="fill:#2b2a29"/><path d="M132.52,81.41h-3v8h-1.66v-8h-3V80h7.66Z" style="fill:#2b2a29"/><path d="M140.71,81.37h-5.14v2.5h4.77V85.2h-4.77V88h5.22V89.4h-6.86V80h6.78Z" style="fill:#2b2a29"/><path d="M142.62,89.4V80H149v1.43h-4.74v8Z" style="fill:#2b2a29"/><path d="M150.36,80H152V87.2L156.06,80H158V89.4h-1.65V82.18l-4.05,7.22h-1.92Z" style="fill:#2b2a29"/><path d="M165.72,89.4V85.51h-1.88l-2.67,3.89h-2.06L162,85.35a2.57,2.57,0,0,1-2-2.76C160,81,161.08,80,163.09,80h4.29V89.4Zm0-8.07h-2.46c-1.12,0-1.64.42-1.64,1.4a1.4,1.4,0,0,0,1.61,1.52h2.49Z" style="fill:#2b2a29"/><path d="M171.41,89.4h-1.8V87.61h1.8Z" style="fill:#2b2a29"/><path d="M184.45,81.41h-3v8h-1.65v-8h-3V80h7.66Z" style="fill:#2b2a29"/><path d="M192.58,89.4h-1.77l-.9-2.5h-3.73l-.93,2.5h-1.7L187.19,80h1.75Zm-4.51-7.71-1.47,4h2.87Z" style="fill:#2b2a29"/><path d="M197.92,83.74l4,5.66h-2.06l-3.09-4.51-1.35,1.35V89.4h-1.64V80h1.64v4.27L199.6,80h2.09Z" style="fill:#2b2a29"/><path d="M210,81.41h-3v8H205.3v-8h-3V80H210Z" style="fill:#2b2a29"/><path d="M211.35,80H213V87.2L217.05,80H219V89.4h-1.65V82.18l-4,7.22h-1.92Z" style="fill:#2b2a29"/><path d="M225.37,83.74l4,5.66h-2l-3.09-4.51-1.35,1.35V89.4h-1.64V80h1.64v4.27L227.06,80h2.09Z" style="fill:#2b2a29"/><path d="M238.59,89.4h-1.77l-.9-2.5h-3.73l-.93,2.5h-1.7L233.2,80H235Zm-4.51-7.71-1.47,4h2.87Z" style="fill:#2b2a29"/><path d="M241.56,89.4h-1.8V87.61h1.8Z" style="fill:#2b2a29"/><path d="M252,80c1.94,0,3.28.9,3.28,2.87a2.77,2.77,0,0,1-3.06,2.92h-2.66V89.4h-1.65V80Zm-2.44,4.46h2.3c1.08,0,1.8-.44,1.8-1.55s-.9-1.54-1.94-1.54h-2.16Z" style="fill:#2b2a29"/><path d="M263.76,81.37h-5.14v2.5h4.77V85.2h-4.77V88h5.22V89.4H257V80h6.78Z" style="fill:#2b2a29"/><path d="M269.06,89.61c-2.24,0-4-1.06-4-3.33h1.62c0,1.45,1.1,2,2.44,2s1.85-.58,1.85-1.65-.69-1.51-1.76-1.51h-1.15V83.86h1.15a1.44,1.44,0,0,0,1.51-1.47c0-.84-.61-1.33-1.67-1.33s-1.94.48-2.05,1.66h-1.57c.08-2.11,1.6-3,3.52-3s3.4.78,3.4,2.56a2.18,2.18,0,0,1-1.51,2v0a2.24,2.24,0,0,1,1.78,2.3C272.65,87.84,271.7,89.61,269.06,89.61Z" style="fill:#2b2a29"/><path d="M273.5,80h1.83l2.27,5,2.33-5h1.79l-3.67,7.5c-.79,1.61-1.64,2.14-2.68,2.14a3,3,0,0,1-1.11-.23V88a2,2,0,0,0,1.05.23c.61,0,.94-.54,1.43-1.45l0,0Z" style="fill:#2b2a29"/><path d="M288.14,89.4v-8h-2.91l-.18,4.48c-.1,2.64-1.17,3.68-2.52,3.68a3.4,3.4,0,0,1-1-.17V88.13a2.1,2.1,0,0,0,.65.1c.68,0,1.19-.39,1.27-2.79l.19-5.46h6.15V89.4Z" style="fill:#2b2a29"/><path d="M296.25,89.4h-4.17V80h1.65v3.6h2.52c2.06,0,3.21,1,3.21,2.89S298.3,89.4,296.25,89.4Zm-.1-4.47h-2.42v3.12h2.45c1.09,0,1.63-.52,1.63-1.54A1.49,1.49,0,0,0,296.15,84.93Z" style="fill:#2b2a29"/><path d="M307.14,81.41h-3v8h-1.65v-8h-3V80h7.66Z" style="fill:#2b2a29"/><path d="M315.27,89.4H313.5l-.9-2.5h-3.73L308,89.4h-1.71L309.88,80h1.76Zm-4.51-7.71-1.46,4h2.87Z" style="fill:#2b2a29"/><path d="M322,81.41h-3v8h-1.65v-8h-3V80H322Z" style="fill:#2b2a29"/><path d="M323.73,89.4h-1.8V87.61h1.8Z" style="fill:#2b2a29"/></svg>