<svg id="Логотип" xmlns="http://www.w3.org/2000/svg" xmlns:xlink="http://www.w3.org/1999/xlink" viewBox="0 0 347.52 121.44"><defs><linearGradient id="Безымянный_градиент_4" x1="166.61" y1="1145.99" x2="202" y2="1149.63" gradientTransform="matrix(0.76, 0, 0, -0.76, -97.9, 914.52)" gradientUnits="userSpaceOnUse"><stop offset="0" stop-color="#166792"/><stop offset="1" stop-color="#23afe4"/></linearGradient><linearGradient id="Безымянный_градиент_4-2" x1="225.27" y1="1154.89" x2="228.3" y2="1119.45" xlink:href="#Безымянный_градиент_4"/><linearGradient id="Безымянный_градиент_4-3" x1="234.13" y1="1096.61" x2="198.69" y2="1093.33" xlink:href="#Безымянный_градиент_4"/><linearGradient id="Безымянный_градиент_4-4" x1="175.7" y1="1087.43" x2="172.65" y2="1123.21" xlink:href="#Безымянный_градиент_4"/></defs><path id="path54" d="M112.11,29.12h2.09l15.94,40.67a3.79,3.79,0,0,0,3.92,2.46h1.39v2.28H117.71V72.25h1.43a9.32,9.32,0,0,0,3.91-.59,1.39,1.39,0,0,0,.78-1.29,3.1,3.1,0,0,0-.22-1.07l-3.67-9.42H102.36l-2.09,5.39a10.59,10.59,0,0,0-.82,3.42,3.13,3.13,0,0,0,1.37,2.52,6.46,6.46,0,0,0,4,1.06h1.51v2.28H90.17V72.27a6.72,6.72,0,0,0,4.11-1.14,9.84,9.84,0,0,0,2.77-4.27l15.06-37.72Zm-.84,8.56-7.93,19.84H119Zm25.35,8.63,10.16-.49V57.19a25.22,25.22,0,0,1,3.9-8.5,7,7,0,0,1,5.67-2.89A5,5,0,0,1,160,47.19a5,5,0,0,1,1.37,3.73,4.41,4.41,0,0,1-.92,2.95,3,3,0,0,1-2.31,1.05A2.79,2.79,0,0,1,156,54a3.41,3.41,0,0,1-.82-2.44,3.84,3.84,0,0,1,.46-1.85,3.69,3.69,0,0,0,.45-.94c0-.29-.19-.45-.56-.45a4.53,4.53,0,0,0-2.8,1.44,13.15,13.15,0,0,0-3.32,5.53,30.08,30.08,0,0,0-1.79,8.75v6.06a1.79,1.79,0,0,0,.72,1.56,4.36,4.36,0,0,0,2.48.55h3.57v2.28H136.82V72.23h2.79a3.54,3.54,0,0,0,2.15-.55,1.63,1.63,0,0,0,.72-1.35V52.4a4.26,4.26,0,0,0-.88-3,3.25,3.25,0,0,0-2.5-.93h-2.48V46.31Zm35.27-11.45h2V46.31h9.12v2.77h-9.12V67.21A5.31,5.31,0,0,0,175,70.8a3.51,3.51,0,0,0,2.79,1.25,4.18,4.18,0,0,0,3.44-1.91c1-1.27,1.5-3.36,1.66-6.29h2q-.18,5.62-2.56,8.36a7.79,7.79,0,0,1-6.15,2.73A7.51,7.51,0,0,1,170.78,73a6.69,6.69,0,0,1-2-5v-19h-4.92V47A7.91,7.91,0,0,0,169,44.16c1.76-2.23,2.7-5.33,2.85-9.34Zm17.45-4.8h23.14q6.83,0,10.43,3a9.41,9.41,0,0,1,3.62,7.54A9,9,0,0,1,224,47a17.29,17.29,0,0,1-7.62,4.16c4.2.88,7.34,2.29,9.45,4.16A9.25,9.25,0,0,1,229,62.52a10.06,10.06,0,0,1-1.78,5.88,13.4,13.4,0,0,1-6,4.33,23.88,23.88,0,0,1-9.43,1.78H189.34V72.23H193a4.2,4.2,0,0,0,2.42-.55,1.49,1.49,0,0,0,.76-1.23V34.86a2.41,2.41,0,0,0-.74-1.91,3.29,3.29,0,0,0-2.19-.65h-3.9V30.06Zm13.24,20.39H211a8.39,8.39,0,0,0,6.17-2.27c1.52-1.5,2.3-4,2.3-7.42a9.63,9.63,0,0,0-1.09-5,6.15,6.15,0,0,0-3.18-2.6,22.14,22.14,0,0,0-7.21-.82c-2.42,0-3.93.18-4.51.53a2,2,0,0,0-.88,1.84V50.45Zm0,2.28V69.86a2.24,2.24,0,0,0,.7,1.8,4.06,4.06,0,0,0,2.54.61h5.39c3.56,0,6.19-.79,7.91-2.37s2.56-4,2.56-7.34A9.59,9.59,0,0,0,219,55.37a9.84,9.84,0,0,0-7.3-2.64Zm41-23.16V70.35a1.66,1.66,0,0,0,.51,1.29,2.8,2.8,0,0,0,1.81.61h3v2.28h-16V72.25h2.82a2.8,2.8,0,0,0,2.05-.67,2.52,2.52,0,0,0,.68-1.87V35.47a2.68,2.68,0,0,0-.82-2.19,4.06,4.06,0,0,0-2.75-1h-2.54V30l11.21-.49Zm16.13-.06a3.11,3.11,0,0,1,2.36,1,3.27,3.27,0,0,1,1,2.4,3.14,3.14,0,0,1-1,2.34,3.31,3.31,0,0,1-4.76,0,3.27,3.27,0,0,1-1-2.36,3.11,3.11,0,0,1,1-2.36A3.2,3.2,0,0,1,259.67,29.51ZM251.8,46.33,263.07,46V70.23a1.73,1.73,0,0,0,.49,1.41,2.65,2.65,0,0,0,1.74.61h3.18v2.28H252.4V72.25h3A2.25,2.25,0,0,0,258,69.73V52a3.21,3.21,0,0,0-1-2.54,4.26,4.26,0,0,0-2.87-.86H251.8V46.33ZM275.08,64c1.25,3.43,2.66,5.8,4.28,7.12a9,9,0,0,0,6,2,7.78,7.78,0,0,0,5-1.43A4.43,4.43,0,0,0,292.09,68a3.77,3.77,0,0,0-.64-2.19,4,4,0,0,0-1.78-1.43A42.86,42.86,0,0,0,283.75,63a23.4,23.4,0,0,1-6.36-1.9,7.16,7.16,0,0,1-2.8-2.71,7.5,7.5,0,0,1-1-3.77A8.55,8.55,0,0,1,275.65,49a9.24,9.24,0,0,1,7.5-3.2,11.3,11.3,0,0,1,6.79,2.28l2-2.1h1.23l.78,10h-2a12.54,12.54,0,0,0-3.58-6.13,8.4,8.4,0,0,0-5.56-1.87,6.82,6.82,0,0,0-4.5,1.38,4.32,4.32,0,0,0-1.62,3.4,3.59,3.59,0,0,0,1.51,2.93c1,.8,2.91,1.43,5.78,1.88a46.77,46.77,0,0,1,6.5,1.38,7.91,7.91,0,0,1,3.83,2.8,7.63,7.63,0,0,1,1.35,4.59,8.15,8.15,0,0,1-2.93,6.32,10.85,10.85,0,0,1-7.44,2.58,12.65,12.65,0,0,1-7.78-2.71l-2.18,2.52h-1.59l-.6-11.21h2Zm28.5,0c1.25,3.43,2.65,5.8,4.28,7.12a9,9,0,0,0,5.95,2,7.74,7.74,0,0,0,5-1.43A4.44,4.44,0,0,0,320.59,68a3.77,3.77,0,0,0-.64-2.19,4,4,0,0,0-1.78-1.43A43.26,43.26,0,0,0,312.25,63a23.38,23.38,0,0,1-6.37-1.9,7.13,7.13,0,0,1-2.79-2.71,7.51,7.51,0,0,1-1-3.77A8.6,8.6,0,0,1,304.14,49a9.26,9.26,0,0,1,7.5-3.2,11.31,11.31,0,0,1,6.8,2.28l2-2.1h1.23l.79,10h-2a12.53,12.53,0,0,0-3.57-6.13,8.41,8.41,0,0,0-5.57-1.87,6.79,6.79,0,0,0-4.49,1.38,4.32,4.32,0,0,0-1.62,3.4,3.61,3.61,0,0,0,1.5,2.93q1.47,1.2,5.79,1.88A47.13,47.13,0,0,1,319,59a7.91,7.91,0,0,1,3.83,2.8,7.63,7.63,0,0,1,1.35,4.59,8.15,8.15,0,0,1-2.93,6.32,10.88,10.88,0,0,1-7.45,2.58A12.62,12.62,0,0,1,306,72.6l-2.19,2.52h-1.58l-.6-11.21h2Z" style="fill:#2b2a29"/><g id="g66"><polygon id="polygon56" points="30.64 25.58 54.73 31.79 47.48 52.2 38.75 55.58 30.64 25.58" style="fill-rule:evenodd;fill:url(#Безымянный_градиент_4)"/><polygon id="polygon58" points="89.33 36.23 82.79 59.86 62.42 52.59 59.18 43.8 89.33 36.23" style="fill-rule:evenodd;fill:url(#Безымянный_градиент_4-2)"/><polygon id="polygon60" points="78.81 94.35 55.19 87.87 62.23 67.58 70.97 64.27 78.81 94.35" style="fill-rule:evenodd;fill:url(#Безымянный_градиент_4-3)"/><polygon id="polygon62" points="20.31 83.92 26.99 59.78 47.46 67.42 50.72 76.29 20.31 83.92" style="fill-rule:evenodd;fill:url(#Безымянный_градиент_4-4)"/><polygon id="polygon64" points="54.73 31.79 62.83 52.67 83.05 59.92 62.36 67.65 55.19 87.87 47.38 67.38 26.87 59.74 47.48 52.2 54.73 31.79" style="fill:#fefefe;fill-rule:evenodd"/></g><path d="M98.16,83.63c-.12-1.4-1-2-2.43-2s-2.13.58-2.13,1.55.69,1.13,2.84,1.69c1.89.49,4,.94,4,3.34s-2.25,3.5-4.44,3.5c-2.65,0-4.71-1.25-4.71-4h1.93c0,1.72,1.3,2.4,2.89,2.4s2.4-.66,2.4-1.76-1-1.36-2.61-1.79c-2.36-.61-4.2-1-4.2-3.27,0-2,1.62-3.27,4.13-3.27,2.27,0,4.07,1,4.17,3.52Z" style="fill:#2b2a29"/><path d="M110.57,82H107V91.5h-2V82h-3.56v-1.7h9.08Z" style="fill:#2b2a29"/><path d="M117.52,80.33c2,0,3.77.8,3.77,3.11a2.7,2.7,0,0,1-1.86,2.74c1.43.32,1.57,1.4,1.67,2.54.11,1.34.14,2.28.59,2.78h-2.1a5.25,5.25,0,0,1-.36-2.23c-.11-1.75-.55-2.38-2.45-2.38h-2.6V91.5h-2V80.33Zm-3.34,5.1h2.59c1.28,0,2.57-.19,2.57-1.79s-1.14-1.71-2.32-1.71h-2.84Z" style="fill:#2b2a29"/><path d="M133.1,91.5H131l-1.07-3h-4.42l-1.1,3h-2l4.31-11.18h2.09Zm-5.35-9.14L126,87.06h3.4Z" style="fill:#2b2a29"/><path d="M141.12,82h-3.57V91.5h-2V82H132v-1.7h9.09Z" style="fill:#2b2a29"/><path d="M150.83,82h-6.11v3h5.67v1.59h-5.67v3.29h6.2V91.5h-8.14V80.33h8.05Z" style="fill:#2b2a29"/><path d="M162.87,91.5h-1.25l-.3-1.33a4.17,4.17,0,0,1-3.48,1.6c-3.14,0-5.29-2.34-5.29-5.77,0-3.25,2-5.9,5.46-5.9,2.32,0,4.47,1.36,4.72,3.79h-1.9A2.63,2.63,0,0,0,158,81.74c-2.15,0-3.47,1.62-3.47,4.22s1.32,4.22,3.53,4.22a2.92,2.92,0,0,0,3-3.15h-3V85.52h4.78Z" style="fill:#2b2a29"/><path d="M170.26,87.06V91.5h-1.93V87.06l-4.22-6.73h2.26l3,4.94,2.93-4.94h2.2Z" style="fill:#2b2a29"/><path d="M176.26,91.5h-2.14V89.38h2.14Z" style="fill:#2b2a29"/><path d="M191.71,82h-3.56V91.5h-2V82h-3.56v-1.7h9.08Z" style="fill:#2b2a29"/><path d="M201.36,91.5h-2.1l-1.07-3h-4.42l-1.1,3h-2L195,80.32H197ZM196,82.36l-1.74,4.7h3.4Z" style="fill:#2b2a29"/><path d="M207.51,91.77c-3.16,0-5.23-2.32-5.23-5.85,0-3.17,1.93-5.84,5.32-5.84a4.41,4.41,0,0,1,4.67,3.81h-1.94a2.62,2.62,0,0,0-2.76-2.15c-2.35,0-3.31,2.12-3.31,4.18s.91,4.18,3.29,4.18c1.82,0,2.65-1.2,2.86-2.85h2A4.62,4.62,0,0,1,207.51,91.77Z" style="fill:#2b2a29"/><path d="M222.54,82H219V91.5h-2V82h-3.56v-1.7h9.09Z" style="fill:#2b2a29"/><path d="M226.21,91.5h-2V80.33h2Z" style="fill:#2b2a29"/><path d="M233.67,91.77c-3.15,0-5.22-2.32-5.22-5.85,0-3.17,1.93-5.84,5.32-5.84a4.41,4.41,0,0,1,4.67,3.81H236.5a2.62,2.62,0,0,0-2.76-2.15c-2.36,0-3.31,2.12-3.31,4.18s.91,4.18,3.29,4.18c1.82,0,2.65-1.2,2.86-2.85h2A4.63,4.63,0,0,1,233.67,91.77Z" style="fill:#2b2a29"/><path d="M246.85,83.63c-.12-1.4-1-2-2.43-2s-2.13.58-2.13,1.55.69,1.13,2.84,1.69c1.89.49,4,.94,4,3.34s-2.25,3.5-4.44,3.5c-2.65,0-4.71-1.25-4.71-4h1.93c0,1.72,1.3,2.4,2.89,2.4s2.4-.66,2.4-1.76-1-1.36-2.61-1.79c-2.36-.61-4.2-1-4.2-3.27,0-2,1.62-3.27,4.13-3.27,2.27,0,4.07,1,4.17,3.52Z" style="fill:#2b2a29"/><path d="M253.32,91.5h-2.14V89.38h2.14Z" style="fill:#2b2a29"/><path d="M266,80.33c2,0,3.77.8,3.77,3.11a2.71,2.71,0,0,1-1.85,2.74c1.42.32,1.57,1.4,1.66,2.54.11,1.34.14,2.28.59,2.78h-2.1a5.41,5.41,0,0,1-.36-2.23c-.11-1.75-.55-2.38-2.44-2.38h-2.61V91.5h-1.94V80.33Zm-3.34,5.1h2.59c1.29,0,2.57-.19,2.57-1.79s-1.14-1.71-2.32-1.71h-2.84Z" style="fill:#2b2a29"/><path d="M280.22,82h-6.1v3h5.66v1.59h-5.66v3.29h6.19V91.5h-8.14V80.33h8.05Z" style="fill:#2b2a29"/><path d="M288.63,83.63c-.13-1.4-1.05-2-2.43-2s-2.14.58-2.14,1.55.69,1.13,2.84,1.69c1.9.49,4,.94,4,3.34s-2.24,3.5-4.43,3.5c-2.66,0-4.71-1.25-4.71-4h1.93c0,1.72,1.3,2.4,2.88,2.4s2.41-.66,2.41-1.76-1-1.36-2.61-1.79c-2.37-.61-4.2-1-4.2-3.27,0-2,1.61-3.27,4.12-3.27,2.28,0,4.08,1,4.18,3.52Z" style="fill:#2b2a29"/><path d="M302.09,87.17c0,3.08-1.54,4.55-4.55,4.55-3.17,0-4.61-1.49-4.61-4.58V80.33h2v7.2c0,1.73.92,2.57,2.68,2.57,2.23,0,2.56-1.28,2.56-3.18V80.33h2Z" style="fill:#2b2a29"/><path d="M312.38,91.5h-7.65V80.33h2v9.48h5.68Z" style="fill:#2b2a29"/><path d="M320.71,82h-3.56V91.5h-2V82h-3.56v-1.7h9.08Z" style="fill:#2b2a29"/><path d="M322.72,91.5h-2.13V89.38h2.13Z" style="fill:#2b2a29"/></svg>