<?xml version="1.0" encoding="UTF-8"?>
<!DOCTYPE svg PUBLIC "-//W3C//DTD SVG 1.1//EN" "http://www.w3.org/Graphics/SVG/1.1/DTD/svg11.dtd">
<!-- Creator: CorelDRAW 2020 (64-Bit) -->
<svg xmlns="http://www.w3.org/2000/svg" xml:space="preserve" width="300mm" height="108.627mm" version="1.1" style="shape-rendering:geometricPrecision; text-rendering:geometricPrecision; image-rendering:optimizeQuality; fill-rule:evenodd; clip-rule:evenodd"
viewBox="0 0 29999.98 10862.71"
 xmlns:xlink="http://www.w3.org/1999/xlink"
 xmlns:xodm="http://www.corel.com/coreldraw/odm/2003">
 <defs>
  <style type="text/css">
   <![CDATA[
    .str0 {stroke:#A3C5C4;stroke-width:7.62;stroke-miterlimit:22.9256}
    .str1 {stroke:#8BB1AF;stroke-width:7.62;stroke-miterlimit:10}
    .str2 {stroke:#8BB1AF;stroke-width:7.62;stroke-linecap:round;stroke-linejoin:round;stroke-miterlimit:10}
    .fil11 {fill:none;fill-rule:nonzero}
    .fil4 {fill:#FEFEFE;fill-rule:nonzero}
    .fil5 {fill:#FEFEFE;fill-rule:nonzero}
    .fil3 {fill:#D8ECE7;fill-rule:nonzero}
    .fil9 {fill:#D5E9DD;fill-rule:nonzero}
    .fil8 {fill:#C5E3E3;fill-rule:nonzero}
    .fil1 {fill:#B0D0D0;fill-rule:nonzero}
    .fil7 {fill:#A5C5C5;fill-rule:nonzero}
    .fil2 {fill:#A3C5C4;fill-rule:nonzero}
    .fil6 {fill:#9AB0B2;fill-rule:nonzero}
    .fil0 {fill:#D7EEFC;fill-rule:nonzero}
    .fil10 {fill:#D7EEFC;fill-rule:nonzero}
   ]]>
  </style>
   <clipPath id="id0">
    <rect x="14027.86" y="928.22" width="1303.85" height="1210.73"/>
   </clipPath>
 </defs>
 <g id="Слой_x0020_1">
  <metadata id="CorelCorpID_0Corel-Layer"/>
  <polygon class="fil0" points="-0,10852.25 29999.98,10852.25 29999.98,0 -0,0 "/>
  <g id="_3799773936">
   <polygon class="fil1" points="24042.97,10402.37 21130.21,10402.37 21130.21,8075.82 24042.97,8075.82 "/>
  </g>
  <polygon class="fil2" points="6329.99,10571.88 7340.67,10571.88 7340.67,3827.23 6329.99,3827.23 "/>
  <polygon class="fil2" points="7093.58,10571.88 6734.26,10571.88 6734.26,3060.18 7093.58,3060.18 "/>
  <polygon class="fil2" points="7093.58,10571.88 5970.65,10571.88 5970.65,6525.1 7093.58,6525.1 "/>
  <polygon class="fil2" points="6913.92,10571.88 6127.84,10571.88 6127.84,6816.05 6913.92,6816.05 "/>
  <polygon class="fil2" points="6532.12,7397.93 6127.84,7397.93 6127.84,7093.74 6532.12,7093.74 "/>
  <polygon class="fil2" points="6532.12,7887.28 6127.84,7887.28 6127.84,7583.08 6532.12,7583.08 "/>
  <polygon class="fil2" points="6532.12,8403.03 6127.84,8403.03 6127.84,8098.9 6532.12,8098.9 "/>
  <polygon class="fil2" points="6532.12,8892.33 6127.84,8892.33 6127.84,8588.17 6532.12,8588.17 "/>
  <polygon class="fil2" points="6532.12,9414.78 6127.84,9414.78 6127.84,9110.56 6532.12,9110.56 "/>
  <polygon class="fil2" points="6532.12,9903.98 6127.84,9903.98 6127.84,9599.94 6532.12,9599.94 "/>
  <polygon class="fil3" points="6532.12,10419.78 6127.84,10419.78 6127.84,10115.66 6532.12,10115.66 "/>
  <polygon class="fil2 str0" points="6989.41,6391.46 6913.92,6391.46 6913.92,3256.16 6989.41,3256.16 "/>
  <polygon class="fil3" points="5973.77,10571.88 3366.88,10571.88 3366.88,10190.9 5973.77,10190.9 "/>
  <path class="fil3" d="M6509.94 9916.92c0,277.39 -823.6,502.25 -1839.63,502.25 -1015.94,0 -1839.6,-224.86 -1839.6,-502.25 0,-277.33 823.66,-502.14 1839.6,-502.14 1016.03,0 1839.63,224.81 1839.63,502.14z"/>
  <polygon class="fil3" points="9438.28,10687.34 9240.68,10687.34 9240.68,4660.39 9438.28,4660.39 "/>
  <polygon class="fil3" points="9619.35,10687.34 9421.76,10687.34 9421.76,4866.95 9619.35,4866.95 "/>
  <polygon class="fil3" points="8944.37,10687.34 9059.64,10687.34 9059.64,4472.66 8944.37,4472.66 "/>
  <path class="fil2" d="M10277.72 5442.67c0,243.73 -173.21,441.25 -386.91,441.25l-1498.13 0c-213.69,0 -386.87,-197.52 -386.87,-441.25 0,-243.65 173.18,-441.24 386.87,-441.24l1498.13 0c213.7,0 386.91,197.59 386.91,441.24z"/>
  <path class="fil2" d="M9982.61 5877.63l-840.88 0 0 -869.87 840.88 0c0,0 282.85,120.82 295.11,441.18 11.72,306.74 -295.11,428.69 -295.11,428.69z"/>
  <path class="fil2" d="M10277.72 7545.57c0,243.67 -173.21,441.29 -386.91,441.29l-1498.13 0c-213.69,0 -386.87,-197.62 -386.87,-441.29 0,-243.68 173.18,-441.2 386.87,-441.2l1498.13 0c213.7,0 386.91,197.52 386.91,441.2z"/>
  <path class="fil2" d="M10277.72 8597c0,243.65 -173.21,441.18 -386.91,441.18l-1498.13 0c-213.69,0 -386.87,-197.53 -386.87,-441.18 0,-243.71 173.18,-441.2 386.87,-441.2l1498.13 0c213.7,0 386.91,197.49 386.91,441.2z"/>
  <path class="fil2" d="M10277.72 9686.01c0,243.66 -173.21,441.2 -386.91,441.2l-1498.13 0c-213.69,0 -386.87,-197.54 -386.87,-441.2 0,-243.7 173.18,-441.29 386.87,-441.29l1498.13 0c213.7,0 386.91,197.59 386.91,441.29z"/>
  <path class="fil2" d="M10277.72 6494.14c0,243.68 -173.21,441.27 -386.91,441.27l-1498.13 0c-213.69,0 -386.87,-197.59 -386.87,-441.27 0,-243.67 173.18,-441.22 386.87,-441.22l1498.13 0c213.7,0 386.91,197.55 386.91,441.22z"/>
  <path class="fil2" d="M9982.61 6928.98l-840.88 0 0 -869.76 840.88 0c0,0 282.85,120.75 295.11,441.2 11.72,306.65 -295.11,428.56 -295.11,428.56z"/>
  <path class="fil2" d="M9982.61 7974.14l-840.88 0 0 -869.77 840.88 0c0,0 282.85,120.75 295.11,441.2 11.72,306.68 -295.11,428.57 -295.11,428.57z"/>
  <path class="fil2" d="M9982.61 9031.91l-840.88 0 0 -869.78 840.88 0c0,0 282.85,120.73 295.11,441.21 11.72,306.57 -295.11,428.57 -295.11,428.57z"/>
  <path class="fil2" d="M9982.61 10120.92l-840.88 0 0 -869.86 840.88 0c0,0 282.85,120.81 295.11,441.31 11.72,306.63 -295.11,428.55 -295.11,428.55z"/>
  <polygon class="fil2" points="11018.05,9902.37 12200.37,9902.37 12200.37,7220.83 11018.05,7220.83 "/>
  <polygon class="fil2" points="10803.12,7220.83 13087.06,7220.83 13087.06,6779.57 10803.12,6779.57 "/>
  <polygon class="fil2" points="10870.29,7053.59 12899.02,7053.59 12899.02,6866.38 10870.29,6866.38 "/>
  <polygon class="fil2" points="11918.27,9902.37 12200.37,9902.37 12200.37,7319.13 11918.27,7319.13 "/>
  <polygon class="fil2" points="11757.04,9902.37 11461.44,9902.37 11461.44,7319.13 11757.04,7319.13 "/>
  <polygon class="fil2" points="11918.27,9425.46 12200.37,9425.46 12200.37,8772.87 11918.27,8772.87 "/>
  <polygon class="fil3" points="11461.44,9425.46 11757.04,9425.46 11757.04,8772.87 11461.44,8772.87 "/>
  <polygon class="fil2" points="11380.83,6815.14 12375.01,6815.14 12375.01,5815.25 11380.83,5815.25 "/>
  <polygon class="fil2" points="11380.83,6779.57 11814.97,6779.57 11814.97,5815.25 11380.83,5815.25 "/>
  <polygon class="fil2" points="11918.27,6501.39 12254.15,6501.39 12254.15,5974.27 11918.27,5974.27 "/>
  <polygon class="fil2" points="11461.44,6501.39 11824.19,6501.39 11824.19,5974.27 11461.44,5974.27 "/>
  <polygon class="fil2" points="12200.37,9902.37 12899.02,9902.37 12899.02,7220.83 12200.37,7220.83 "/>
  <polygon class="fil2" points="11380.83,8873.27 10373.16,8873.27 10373.16,7430.08 11380.83,7430.08 "/>
  <polygon class="fil3" points="12549.64,9287.41 13315.49,9287.41 13315.49,8086.76 12549.64,8086.76 "/>
  <polygon class="fil2" points="25906.6,9857.46 2830.7,9857.46 2830.7,10852.25 25906.6,10852.25 "/>
  <path class="fil2" d="M21788.58 8716.85c0,325.78 -173.2,589.9 -386.88,589.9l-271.5 0 0 748.74 -181.1 0 -16.42 0 -181.1 0 0 -748.74 -181.16 0 0 748.74 -115.2 0 0 -748.74 -131.67 0 0 748.74 -214.09 0 0 -748.74 -205.96 0c-213.62,0 -386.85,-264.12 -386.85,-589.9 0,-325.77 173.23,-589.78 386.85,-589.78l205.96 0 0 -276.03 -205.96 0c-213.62,0 -386.85,-264.1 -386.85,-589.9 0,-325.78 173.23,-589.78 386.85,-589.78l205.96 0 0 -225.86 -205.96 0c-213.62,0 -386.85,-264.13 -386.85,-589.82 0,-325.81 173.23,-589.86 386.85,-589.86l205.96 0 0 -225.85 -205.96 0c-213.62,0 -386.85,-264.08 -386.85,-589.84 0,-325.75 173.23,-589.79 386.85,-589.79l205.96 0 0 -225.93 -205.96 0c-213.62,0 -386.85,-264.07 -386.85,-589.86 0,-325.69 173.23,-589.76 386.85,-589.76l205.96 0 0 -179.82 214.09 0 0 179.82 131.67 0 0 -706.91 115.2 0 0 706.91 181.16 0 0 -455.94 197.52 0 0 276.12 181.1 0 0 179.82 271.5 0c22.25,0 44.05,2.9 65.27,8.4l26.47 0c0,0 12.87,7.37 33.2,23.05 152.37,79.21 261.94,299.26 261.94,558.31l-0.06 6.92 0.06 1.52c3.61,126.3 -23.03,229.12 -61.6,311.01 -44.85,105.95 -111.37,188.57 -190,233.32 -26.22,19.5 -43.54,28.71 -43.54,28.71l-26.55 0c-21.19,5.48 -42.97,8.38 -65.19,8.38l-271.5 0 0 225.93 271.5 0c22.29,0 44.13,2.91 65.39,8.43l26.35 0c0,0 12.84,7.34 33.12,22.97 152.41,79.16 262.02,299.24 262.02,558.39l-0.06 6.92 0.06 1.52c3.6,125.85 -22.86,228.41 -61.23,310.14 -44.95,106.61 -111.82,189.67 -190.9,234.47 -25.93,19.24 -43.01,28.32 -43.01,28.32l-26.19 0c-21.3,5.56 -43.21,8.47 -65.55,8.47l-271.5 0 0 225.85 271.5 0c213.68,0 386.88,264.05 386.88,589.86 0,325.69 -173.2,589.82 -386.88,589.82l-271.5 0 0 225.86 271.5 0c213.68,0 386.88,264 386.88,589.78 0,325.8 -173.2,589.9 -386.88,589.9l-271.5 0 0 276.03 271.5 0c213.68,0 386.88,264.01 386.88,589.78zm-1037 -3676.88l-181.16 0 0 225.85 181.16 0 0 -225.85zm-296.36 0l-131.67 0 0 225.85 131.67 0 0 -225.85zm-131.67 -1179.63l131.67 0 0 -225.93 -131.67 0 0 225.93zm246.87 0l181.16 0 0 -225.93 -181.16 0 0 225.93zm-246.87 4266.73l131.67 0 0 -276.03 -131.67 0 0 276.03zm246.87 0l181.16 0 0 -276.03 -181.16 0 0 276.03zm181.16 -1455.71l0 -225.86 -181.16 0 0 225.86 181.16 0zm-296.36 0l0 -225.86 -131.67 0 0 225.86 131.67 0z"/>
  <path class="fil3" d="M18898.19 10852.25l0 -933.81 840.79 0c0,0 282.91,161.51 295.15,589.9 4.11,143.85 -31.04,257.25 -78.37,343.91l-1057.57 0z"/>
  <polygon class="fil3" points="22778.29,9838.67 23960.56,9838.67 23960.56,7157.12 22778.29,7157.12 "/>
  <polygon class="fil3" points="22563.32,7157.12 24847.28,7157.12 24847.28,6715.77 22563.32,6715.77 "/>
  <polygon class="fil3" points="22630.48,6989.9 24659.15,6989.9 24659.15,6802.65 22630.48,6802.65 "/>
  <polygon class="fil3" points="23678.42,9838.67 23960.56,9838.67 23960.56,7255.45 23678.42,7255.45 "/>
  <polygon class="fil3" points="23678.42,9361.76 23960.56,9361.76 23960.56,8709.19 23678.42,8709.19 "/>
  <polygon class="fil3" points="23141.05,6751.39 24135.25,6751.39 24135.25,5751.5 23141.05,5751.5 "/>
  <polygon class="fil3" points="23678.42,6437.68 24014.33,6437.68 24014.33,5910.55 23678.42,5910.55 "/>
  <polygon class="fil3" points="23960.56,9838.67 24659.15,9838.67 24659.15,7157.12 23960.56,7157.12 "/>
  <polygon class="fil3" points="24309.91,9223.71 25075.66,9223.71 25075.66,8023.04 24309.91,8023.04 "/>
  <path class="fil2" d="M14001.01 1450.52c0,211.2 126.66,397.09 318.55,505.32l0 99.74 -372.59 0 0 239.7 372.59 0 0 75.18 -372.59 0 0 239.67 372.59 0 0 75.22 -372.59 0 0 239.7 372.59 0 0 75.11 -372.59 0 0 239.74 372.59 0 0 75.18 -372.59 0 0 239.71 372.59 0 0 75.17 -372.59 0 0 239.66 372.59 0 0 75.18 -372.59 0 0 239.73 372.59 0 0 75.24 -372.59 0 0 239.64 372.59 0 0 75.22 -372.59 0 0 239.67 372.59 0 0 75.24 -372.59 0 0 239.56 372.59 0 0 75.23 -372.59 0 0 239.71 372.59 0 0 75.24 -372.59 0 0 239.65 372.59 0 0 75.21 -372.59 0 0 239.66 372.59 0 0 79.88 -372.59 0 0 155.75 -652.56 0 0 4542.82 2792.84 0 0 -4542.82 -658.42 0 0 -155.75 -330.47 0 0 -79.88 330.47 0 0 -239.66 -330.47 0 0 -75.21 330.47 0 0 -239.65 -330.47 0 0 -75.24 330.47 0 0 -239.71 -330.47 0 0 -75.23 330.47 0 0 -239.56 -330.47 0 0 -75.24 330.47 0 0 -239.67 -330.47 0 0 -75.22 330.47 0 0 -239.64 -330.47 0 0 -75.24 330.47 0 0 -239.73 -330.47 0 0 -75.18 330.47 0 0 -239.66 -330.47 0 0 -75.17 330.47 0 0 -239.71 -330.47 0 0 -75.18 330.47 0 0 -239.74 -330.47 0 0 -75.11 330.47 0 0 -239.7 -330.47 0 0 -75.22 330.47 0 0 -239.67 -330.47 0 0 -75.18 330.47 0 0 -239.7 -330.47 0 0 -99.67c191.96,-108.22 318.63,-294.15 318.63,-505.39 0,-334.17 -316.91,-605.03 -708.02,-605.03 -390.92,0 -707.96,270.86 -707.96,605.03z"/>
  <polygon class="fil2" points="17184.54,4754.6 16493.93,4754.6 16493.93,4127.2 17184.54,4127.2 "/>
  <polygon class="fil2" points="16691.27,4323.28 16614.56,4323.28 16614.56,2760.34 16691.27,2760.34 "/>
  <polygon class="fil2 str0" points="16899.52,4323.28 16828.43,4323.28 16828.43,3541.85 16899.52,3541.85 "/>
  <polygon class="fil2" points="17074.93,4323.28 17009.08,4323.28 17009.08,3242.1 17074.93,3242.1 "/>
  <path class="fil2 str0" d="M17579.35 6572.36c0,1242.18 -336.3,2249.1 -750.92,2249.1 -414.72,0 -750.95,-1006.92 -750.95,-2249.1 0,-1242.11 336.23,-2249.08 750.95,-2249.08 414.62,0 750.92,1006.97 750.92,2249.08z"/>
  <polygon class="fil3" points="17579.35,9717.8 16077.48,9717.8 16077.48,6572.36 17579.35,6572.36 "/>
  <polygon class="fil3" points="16968.14,6964.5 16688.63,6964.5 16688.63,4578.11 16968.14,4578.11 "/>
  <polygon class="fil3" points="16491.35,9857.83 16294.04,9857.83 16294.04,6239.11 16491.35,6239.11 "/>
  <polygon class="fil3" points="16688.63,9857.83 16968.14,9857.83 16968.14,7283.76 16688.63,7283.76 "/>
  <path class="fil2" d="M19405.31 9282.48c0,373.84 -351.51,677.06 -785.13,677.06 -433.64,0 -785.18,-303.22 -785.18,-677.06 0,-373.93 351.54,-676.96 785.18,-676.96 433.62,0 785.13,303.03 785.13,676.96z"/>
  <polygon class="fil3" points="19540.76,9725.8 17977.84,9725.8 17977.84,8956.77 19540.76,8956.77 "/>
  <polygon class="fil2" points="18665.44,8605.52 18574.83,8605.52 18574.83,4411.33 18665.44,4411.33 "/>
  <path class="fil2" d="M19516.65 8148.19c0,35.18 -403.12,63.63 -900.35,63.63 -497.21,0 -900.32,-28.45 -900.32,-63.63 0,-35.28 403.11,-63.8 900.32,-63.8 497.23,0 900.35,28.52 900.35,63.8z"/>
  <path class="fil2" d="M19431.31 7795.11c0,35.21 -366.43,63.79 -818.47,63.79 -451.96,0 -818.45,-28.58 -818.45,-63.79 0,-35.22 366.49,-63.72 818.45,-63.72 452.04,0 818.47,28.5 818.47,63.72z"/>
  <path class="fil2" d="M19481.62 7177.41c0,35.27 -326.78,63.71 -729.87,63.71 -403.06,0 -729.84,-28.44 -729.84,-63.71 0,-35.22 326.78,-63.76 729.84,-63.76 403.09,0 729.87,28.54 729.87,63.76z"/>
  <path class="fil2" d="M19234.91 6994.4c0,35.18 -280.68,63.75 -627.02,63.75 -346.37,0 -627.02,-28.57 -627.02,-63.75 0,-35.21 280.65,-63.77 627.02,-63.77 346.34,0 627.02,28.56 627.02,63.77z"/>
  <path class="fil2" d="M19121.54 6626.44c0,35.24 -229.7,63.8 -513.04,63.8 -283.37,0 -513.07,-28.56 -513.07,-63.8 0,-35.21 229.7,-63.72 513.07,-63.72 283.34,0 513.04,28.51 513.04,63.72z"/>
  <polygon class="fil2" points="18691.87,6309.89 18457.85,6309.89 18457.85,5887.96 18691.87,5887.96 "/>
  <polygon class="fil2" points="18654.15,6245.24 18488.03,6245.24 18488.03,5961.12 18654.15,5961.12 "/>
  <path class="fil2" d="M19008.9 5194.81c0,247.27 -175.75,447.72 -392.6,447.72 -216.8,0 -392.55,-200.45 -392.55,-447.72 0,-247.25 175.75,-447.73 392.55,-447.73 216.85,0 392.6,200.48 392.6,447.73z"/>
  <path class="fil2" d="M18812.57 4299.38c0,128.41 -91.24,232.43 -203.81,232.43 -112.53,0 -203.86,-104.02 -203.86,-232.43 0,-128.42 91.33,-232.45 203.86,-232.45 112.57,0 203.81,104.03 203.81,232.45z"/>
  <polygon class="fil2" points="12802.71,6430.89 11862.59,6430.89 11862.59,3993.66 12802.71,3993.66 "/>
  <polygon class="fil2" points="12973.66,3993.66 11157.48,3993.66 11157.48,3592.59 12973.66,3592.59 "/>
  <polygon class="fil2" points="12920.2,3841.64 11307.04,3841.64 11307.04,3671.47 12920.2,3671.47 "/>
  <polygon class="fil2" points="12086.94,6430.89 11862.59,6430.89 11862.59,4083.01 12086.94,4083.01 "/>
  <polygon class="fil2" points="12215.11,6430.89 12450.17,6430.89 12450.17,4083.01 12215.11,4083.01 "/>
  <polygon class="fil2" points="12086.94,5997.41 11862.59,5997.41 11862.59,5404.3 12086.94,5404.3 "/>
  <polygon class="fil2 str0" points="12450.17,5997.41 12215.11,5997.41 12215.11,5404.3 12450.17,5404.3 "/>
  <polygon class="fil2" points="12514.28,3624.93 11723.7,3624.93 11723.7,2716.15 12514.28,2716.15 "/>
  <polygon class="fil2" points="12514.28,3592.59 12169.06,3592.59 12169.06,2716.15 12514.28,2716.15 "/>
  <polygon class="fil2 str0" points="12086.94,3339.77 11819.86,3339.77 11819.86,2860.68 12086.94,2860.68 "/>
  <polygon class="fil2" points="12450.17,3339.77 12161.71,3339.77 12161.71,2860.68 12450.17,2860.68 "/>
  <polygon class="fil2" points="11862.59,6430.89 11307.04,6430.89 11307.04,3993.66 11862.59,3993.66 "/>
  <polygon class="fil2" points="12514.28,5495.57 13315.52,5495.57 13315.52,4183.83 12514.28,4183.83 "/>
  <polygon class="fil2" points="11584.84,5871.99 10975.88,5871.99 10975.88,4780.69 11584.84,4780.69 "/>
  <path class="fil4" d="M2083.7 7018.25c0,-214.05 -177.14,-385.21 -389.81,-385.21 -77.8,0 -141.56,21.26 -205.68,57.05 -92.22,-121.21 -233.81,-199.52 -396.85,-199.52 -276.42,0 -496.15,221.16 -496.15,499.36l0 28.32c-127.46,57.09 -212.72,178.27 -212.72,328.18 0,199.51 156.03,356.53 354.27,356.53l1204.64 0c198.28,0 354.25,-157.02 354.25,-356.53 0.76,-149.91 -84.47,-271.09 -211.95,-328.18z"/>
  <path class="fil4" d="M5234.56 4323.51c0,-131.08 -108.46,-235.89 -238.68,-235.89 -47.65,0 -86.66,13.05 -125.93,34.95 -56.49,-74.22 -143.16,-122.17 -242.96,-122.17 -169.26,0 -303.77,135.42 -303.77,305.74l0 17.37c-78.07,34.93 -130.25,109.14 -130.25,200.9 0,122.17 95.51,218.3 216.91,218.3l737.57 0c121.35,0 216.85,-96.13 216.85,-218.3 0.47,-91.76 -51.73,-165.97 -129.74,-200.9z"/>
  <path class="fil4" d="M2881.15 3177.16c0,-298.74 -247.27,-537.69 -544.14,-537.69 -108.62,0 -197.56,29.69 -287.06,79.68 -128.8,-169.21 -326.4,-278.49 -553.93,-278.49 -385.85,0 -692.54,308.66 -692.54,696.98l0 39.52c-177.94,79.66 -296.89,248.84 -296.89,458.07 0,278.47 217.76,497.64 494.49,497.64l1681.43 0c276.72,0 494.44,-219.17 494.44,-497.64 1.06,-209.23 -117.9,-378.41 -295.8,-458.07z"/>
  <path class="fil5" d="M28638.33 3851.37c0,-214.02 -177.15,-385.22 -389.86,-385.22 -77.77,0 -141.55,21.29 -205.63,57.09 -92.25,-121.21 -233.81,-199.56 -396.89,-199.56 -276.4,0 -496.09,221.2 -496.09,499.38l0 28.31c-127.53,57.08 -212.73,178.27 -212.73,328.19 0,199.52 155.99,356.51 354.22,356.51l1204.68 0c198.25,0 354.21,-156.99 354.21,-356.51 0.78,-149.92 -84.45,-271.11 -211.91,-328.19z"/>
  <g id="_3799747488">
   <polygon class="fil2" points="6509.99,10661.48 6307.84,10661.48 6307.84,6905.65 6509.99,6905.65 "/>
   <polygon class="fil2" points="8588.37,10776.93 8374.34,10776.93 8374.34,4956.54 8588.37,4956.54 "/>
   <g>
    <polygon class="fil6" points="7068.81,10852.25 7068.81,3916.82 7889.13,3916.82 7889.13,10852.25 "/>
   </g>
   <g>
    <polygon class="fil1" points="8242.37,4474.83 6681.61,4475.71 6681.44,4178.44 8242.2,4177.56 "/>
   </g>
   <g>
    <polygon class="fil1" points="8242.59,4865.39 6681.83,4866.28 6681.67,4569 8242.43,4568.11 "/>
   </g>
   <g>
    <polygon class="fil1" points="8242.81,5255.99 6682.05,5256.88 6681.87,4959.56 8242.64,4958.67 "/>
   </g>
   <g>
    <polygon class="fil1" points="8243.02,5646.55 6682.26,5647.43 6682.11,5350.11 8242.87,5349.23 "/>
   </g>
   <g>
    <polygon class="fil1" points="8243.25,6037.12 6682.49,6038 6682.32,5740.7 8243.08,5739.81 "/>
   </g>
   <g>
    <polygon class="fil1" points="8243.48,6427.71 6682.72,6428.6 6682.55,6131.31 8243.3,6130.42 "/>
   </g>
   <g>
    <polygon class="fil1" points="8243.69,6818.28 6682.93,6819.16 6682.77,6521.82 8243.53,6520.93 "/>
   </g>
   <g>
    <polygon class="fil1" points="8243.92,7208.78 6683.16,7209.67 6682.99,6912.44 8243.74,6911.56 "/>
   </g>
   <g>
    <polygon class="fil1" points="8244.13,7599.39 6683.37,7600.27 6683.21,7302.96 8243.97,7302.07 "/>
   </g>
   <g>
    <polygon class="fil1" points="8244.33,8002.15 6683.57,8003.03 6683.38,7683.29 8244.14,7682.41 "/>
   </g>
   <g>
    <polygon class="fil1" points="8245.09,8370.92 6684.46,8390.91 6680.71,8093.7 8241.34,8073.71 "/>
   </g>
   <g>
    <polygon class="fil1" points="8243.28,8771.54 6682.52,8771.54 6682.52,8474.28 8243.28,8474.28 "/>
   </g>
   <g>
    <polygon class="fil1" points="8243.28,9162.2 6682.52,9162.2 6682.52,8864.83 8243.28,8864.83 "/>
   </g>
   <g>
    <polygon class="fil1" points="8243.28,9558.53 6682.52,9558.53 6682.52,9261.28 8243.28,9261.28 "/>
   </g>
   <g>
    <polygon class="fil1" points="8243.28,9949.04 6682.52,9949.04 6682.52,9651.75 8243.28,9651.75 "/>
   </g>
   <g>
    <polygon class="fil1" points="8243.28,10339.62 6682.52,10339.62 6682.52,10042.36 8243.28,10042.36 "/>
   </g>
   <g>
    <polygon class="fil1" points="8243.28,10730.26 6682.52,10730.26 6682.52,10432.89 8243.28,10432.89 "/>
   </g>
   <g>
    <polygon class="fil1" points="6682.52,10852.25 6682.52,10823.47 8243.27,10823.47 8243.27,10852.25 "/>
   </g>
  </g>
  <polygon class="fil7" points="4176.09,10852.25 4176.09,7940.6 5623.61,7940.6 5623.61,10852.25 "/>
  <polygon class="fil2" points="4176.09,10852.25 4176.09,8070.27 4521.52,8070.27 4521.52,10852.25 "/>
  <polygon class="fil2" points="5080.77,10852.25 5080.77,8070.27 4718.91,8070.27 4718.91,10852.25 "/>
  <g id="_3799778256">
   <polygon class="fil2" points="5179.46,7405.35 3962.25,7405.35 3962.25,6086.39 5179.46,6086.39 "/>
  </g>
  <g id="_3799778640">
   <polygon class="fil2" points="5179.46,7358.43 4647.93,7358.43 4647.93,6086.39 5179.46,6086.39 "/>
  </g>
  <g id="_3799779024">
   <polygon class="fil2" points="4521.51,6991.52 4110.23,6991.52 4110.23,6296.23 4521.51,6296.23 "/>
  </g>
  <g id="_3799779408">
   <polygon class="fil2" points="5080.76,6991.52 4636.62,6991.52 4636.62,6296.23 5080.76,6296.23 "/>
  </g>
  <polygon class="fil1" points="3320.71,10852.25 3320.71,7940.6 4176.09,7940.6 4176.09,10852.25 "/>
  <g id="_3799780128">
   <polygon class="fil8" points="5179.46,10120.32 6413.13,10120.32 6413.13,8216.55 5179.46,8216.55 "/>
  </g>
  <g id="_3799780608">
   <polygon class="fil8" points="3748.41,10666.61 2810.78,10666.61 2810.78,9082.84 3748.41,9082.84 "/>
  </g>
  <g id="_3799780992">
   <polygon class="fil2" points="5886.77,7940.6 3090.4,7940.6 3090.4,6958.91 5886.77,6958.91 "/>
  </g>
  <polygon class="fil9" points="5804.54,7602.91 3194.03,7602.91 3194.03,7059.75 5804.54,7059.75 "/>
  <g id="_3799781808">
   <polygon class="fil1" points="8904.35,10852.25 8904.35,2774.49 9847.47,2774.49 9847.47,10852.25 "/>
  </g>
  <g id="_3799782192">
   <polygon class="fil6" points="9029,10852.25 9029,2774.49 9083.41,2774.49 9083.41,10852.25 "/>
  </g>
  <g id="_3799782576">
   <polygon class="fil6" points="9239.9,10852.25 9239.9,2774.49 9294.31,2774.49 9294.31,10852.25 "/>
  </g>
  <g id="_3799782960">
   <polygon class="fil6" points="9412.19,10852.25 9412.19,2774.49 9466.59,2774.49 9466.59,10852.25 "/>
  </g>
  <g id="_3790080368">
   <polygon class="fil6" points="9602.65,10852.25 9602.65,2774.49 9657.06,2774.49 9657.06,10852.25 "/>
  </g>
  <g id="_3790105856">
   <polygon class="fil6" points="9429.68,2774.49 9335.75,2774.49 9335.75,930.89 9429.68,930.89 "/>
  </g>
  <g id="_3790099184">
   <path class="fil2" d="M10137.69 2555.45c0,211.73 -341.06,383.33 -761.78,383.33 -420.73,0 -761.74,-171.6 -761.74,-383.33 0,-211.73 341.01,-383.32 761.74,-383.32 420.72,0 761.78,171.59 761.78,383.32z"/>
  </g>
  <g id="_3790114832">
   <path class="fil6" d="M9657.05 2121.72c0,42.78 -117.76,77.44 -263.01,77.44 -145.2,0 -262.97,-34.66 -262.97,-77.44 0,-42.7 117.77,-77.39 262.97,-77.39 145.25,0 263.01,34.69 263.01,77.39z"/>
  </g>
  <path class="fil6" d="M19563.79 9611.67l-67.73 0c982.14,0 1173.76,518.48 1173.76,1251.04l-98.18 0 -2151.05 0 -87.11 0c0,-781.69 244.67,-1251.04 1162.58,-1251.04l-67.73 0 0 -499.72c-717.16,-4.33 -1289.72,-91.41 -1289.72,-197.93 0,-106.83 572.56,-193.56 1289.72,-197.87l0 -177.6c-649.3,-3.93 -1166.65,-74.87 -1166.65,-161.96 0,-87.07 517.35,-158.05 1166.65,-161.98l0 -228.1c-573.67,-4.1 -1028.9,-64.76 -1028.9,-139.2 0,-74.35 455.23,-135.06 1028.9,-139.16l0 -288.15c-494.76,-3.59 -887.94,-60.71 -887.94,-130.83 0,-69.95 393.18,-127.24 887.94,-130.84l0 -317.53c-400.14,-2.84 -716.64,-39.34 -716.64,-83.87 0,-44.6 316.5,-81.05 716.64,-83.88l0 -521.15 135.46 0 0 521.48c383.45,4.65 681.72,40.26 681.72,83.55 0,43.23 -298.27,78.88 -681.72,83.54l0 318.24c477.3,6.08 851.21,62.25 851.21,130.46 0,68.38 -373.91,124.38 -851.21,130.45l0 288.62c568.29,4.83 1017.49,65.22 1017.49,139.07 0,73.94 -449.2,134.28 -1017.49,139.11l0 228.35c638.98,5.37 1144.77,75.73 1144.77,161.82 0,86.11 -505.79,156.43 -1144.77,161.8l0 177.93c706.35,6.03 1266.5,92.03 1266.5,197.7 0,105.36 -560.15,191.7 -1266.5,197.76l0 499.89z"/>
  <g id="_3790102736">
   <polygon class="fil8" points="24985.27,7073.68 22979.08,7073.68 22979.08,10852.25 24985.27,10852.25 "/>
  </g>
  <g id="_3789392032">
   <polygon class="fil1" points="24042.97,10852.25 24042.97,7073.68 24620.53,7073.68 24620.53,10852.25 "/>
  </g>
  <g id="_3789403120">
   <polygon class="fil8" points="23921.46,9181.76 23223.64,9181.76 23223.64,8226.07 23921.46,8226.07 "/>
  </g>
  <g id="_3789399424">
   <polygon class="fil8" points="23919.46,10252.28 23221.64,10252.28 23221.64,9298.77 23919.46,9298.77 "/>
  </g>
  <g id="_3789382720">
   <polygon class="fil6" points="24468.5,10852.25 24468.5,7073.68 24802.88,7073.68 24802.88,10852.25 "/>
  </g>
  <polygon class="fil6" points="11105.63,10852.25 11105.63,7832.75 12028.41,7832.75 12028.41,10852.25 "/>
  <g id="_3789371296">
   <g>
    <path class="fil8" d="M11563.06 10828.84c0,8.21 -1.39,16.08 -3.94,23.41l-132.85 0c-2.55,-7.33 -3.94,-15.2 -3.94,-23.41 0,-39.14 31.49,-70.83 70.39,-70.83 38.83,0 70.34,31.69 70.34,70.83z"/>
    <path class="fil8" d="M11382.07 10828.84c0,8.21 -1.39,16.08 -3.93,23.41l-132.85 0c-2.55,-7.33 -3.93,-15.2 -3.93,-23.41 0,-39.14 31.48,-70.83 70.36,-70.83 38.9,0 70.35,31.69 70.35,70.83z"/>
    <path class="fil8" d="M11744.05 10828.84c0,8.21 -1.39,16.08 -3.94,23.41l-132.91 0c-2.56,-7.33 -3.95,-15.2 -3.95,-23.41 0,-39.14 31.55,-70.83 70.43,-70.83 38.82,0 70.37,31.69 70.37,70.83z"/>
    <path class="fil8" d="M11925.04 10828.84c0,8.21 -1.39,16.08 -3.94,23.41l-132.85 0c-2.56,-7.33 -3.94,-15.2 -3.94,-23.41 0,-39.14 31.48,-70.83 70.39,-70.83 38.79,0 70.34,31.69 70.34,70.83z"/>
    <path class="fil8" d="M11563.06 10617.26c0,39.06 -31.51,70.78 -70.34,70.78 -38.9,0 -70.38,-31.72 -70.38,-70.78 0,-39.16 31.48,-70.8 70.38,-70.8 38.83,0 70.34,31.64 70.34,70.8z"/>
    <path class="fil8" d="M11382.08 10617.26c0,39.06 -31.46,70.78 -70.36,70.78 -38.89,0 -70.36,-31.72 -70.36,-70.78 0,-39.16 31.47,-70.8 70.36,-70.8 38.9,0 70.36,31.64 70.36,70.8z"/>
    <path class="fil8" d="M11744.05 10617.26c0,39.06 -31.56,70.78 -70.36,70.78 -38.89,0 -70.44,-31.72 -70.44,-70.78 0,-39.16 31.55,-70.8 70.44,-70.8 38.8,0 70.36,31.64 70.36,70.8z"/>
    <path class="fil8" d="M11925.05 10617.26c0,39.06 -31.57,70.78 -70.34,70.78 -38.93,0 -70.4,-31.72 -70.4,-70.78 0,-39.16 31.47,-70.8 70.4,-70.8 38.77,0 70.34,31.64 70.34,70.8z"/>
    <path class="fil8" d="M11563.1 10405.56c0,39.11 -31.54,70.85 -70.36,70.85 -38.87,0 -70.4,-31.74 -70.4,-70.85 0,-39.11 31.53,-70.86 70.4,-70.86 38.82,0 70.36,31.75 70.36,70.86z"/>
    <path class="fil8" d="M11382.08 10405.56c0,39.11 -31.46,70.85 -70.35,70.85 -38.86,0 -70.37,-31.74 -70.37,-70.85 0,-39.11 31.51,-70.86 70.37,-70.86 38.89,0 70.35,31.75 70.35,70.86z"/>
    <path class="fil8" d="M11744.05 10405.56c0,39.11 -31.49,70.85 -70.36,70.85 -38.84,0 -70.44,-31.74 -70.44,-70.85 0,-39.11 31.6,-70.86 70.44,-70.86 38.87,0 70.36,31.75 70.36,70.86z"/>
    <path class="fil8" d="M11925.11 10405.56c0,39.11 -31.47,70.85 -70.4,70.85 -38.86,0 -70.4,-31.74 -70.4,-70.85 0,-39.11 31.54,-70.86 70.4,-70.86 38.93,0 70.4,31.75 70.4,70.86z"/>
    <path class="fil8" d="M11563.1 10193.94c0,39.1 -31.54,70.79 -70.36,70.79 -38.87,0 -70.4,-31.69 -70.4,-70.79 0,-39.15 31.53,-70.89 70.4,-70.89 38.82,0 70.36,31.74 70.36,70.89z"/>
    <path class="fil8" d="M11382.08 10193.94c0,39.1 -31.46,70.79 -70.35,70.79 -38.86,0 -70.37,-31.69 -70.37,-70.79 0,-39.15 31.51,-70.89 70.37,-70.89 38.89,0 70.35,31.74 70.35,70.89z"/>
    <path class="fil8" d="M11744.05 10193.94c0,39.1 -31.49,70.79 -70.36,70.79 -38.84,0 -70.44,-31.69 -70.44,-70.79 0,-39.15 31.6,-70.89 70.44,-70.89 38.87,0 70.36,31.74 70.36,70.89z"/>
    <path class="fil8" d="M11925.11 10193.94c0,39.1 -31.47,70.79 -70.4,70.79 -38.86,0 -70.4,-31.69 -70.4,-70.79 0,-39.15 31.54,-70.89 70.4,-70.89 38.93,0 70.4,31.74 70.4,70.89z"/>
    <path class="fil8" d="M11563.1 9982.28c0,39.08 -31.54,70.75 -70.36,70.75 -38.87,0 -70.4,-31.67 -70.4,-70.75 0,-39.11 31.53,-70.83 70.4,-70.83 38.82,0 70.36,31.72 70.36,70.83z"/>
    <path class="fil8" d="M11382.08 9982.28c0,39.08 -31.46,70.75 -70.35,70.75 -38.86,0 -70.37,-31.67 -70.37,-70.75 0,-39.11 31.51,-70.83 70.37,-70.83 38.89,0 70.35,31.72 70.35,70.83z"/>
    <path class="fil8" d="M11744.05 9982.28c0,39.08 -31.49,70.75 -70.36,70.75 -38.84,0 -70.44,-31.67 -70.44,-70.75 0,-39.11 31.6,-70.83 70.44,-70.83 38.87,0 70.36,31.72 70.36,70.83z"/>
    <path class="fil8" d="M11925.11 9982.28c0,39.08 -31.47,70.75 -70.4,70.75 -38.86,0 -70.4,-31.67 -70.4,-70.75 0,-39.11 31.54,-70.83 70.4,-70.83 38.93,0 70.4,31.72 70.4,70.83z"/>
    <path class="fil8" d="M11563.1 9770.65c0,39.09 -31.54,70.78 -70.36,70.78 -38.87,0 -70.4,-31.69 -70.4,-70.78 0,-39.19 31.53,-70.83 70.4,-70.83 38.82,0 70.36,31.64 70.36,70.83z"/>
    <path class="fil8" d="M11382.08 9770.65c0,39.09 -31.46,70.78 -70.35,70.78 -38.86,0 -70.37,-31.69 -70.37,-70.78 0,-39.19 31.51,-70.83 70.37,-70.83 38.89,0 70.35,31.64 70.35,70.83z"/>
    <path class="fil8" d="M11744.05 9770.65c0,39.09 -31.49,70.78 -70.36,70.78 -38.84,0 -70.44,-31.69 -70.44,-70.78 0,-39.19 31.6,-70.83 70.44,-70.83 38.87,0 70.36,31.64 70.36,70.83z"/>
    <path class="fil8" d="M11925.11 9770.65c0,39.09 -31.47,70.78 -70.4,70.78 -38.86,0 -70.4,-31.69 -70.4,-70.78 0,-39.19 31.54,-70.83 70.4,-70.83 38.93,0 70.4,31.64 70.4,70.83z"/>
    <path class="fil8" d="M11563.1 9553.73c0,39.19 -31.54,70.87 -70.36,70.87 -38.87,0 -70.4,-31.68 -70.4,-70.87 0,-39.05 31.53,-70.79 70.4,-70.79 38.82,0 70.36,31.74 70.36,70.79z"/>
    <path class="fil8" d="M11382.08 9553.73c0,39.19 -31.46,70.87 -70.35,70.87 -38.86,0 -70.37,-31.68 -70.37,-70.87 0,-39.05 31.51,-70.79 70.37,-70.79 38.89,0 70.35,31.74 70.35,70.79z"/>
    <path class="fil8" d="M11744.05 9553.73c0,39.19 -31.49,70.87 -70.36,70.87 -38.84,0 -70.44,-31.68 -70.44,-70.87 0,-39.05 31.6,-70.79 70.44,-70.79 38.87,0 70.36,31.74 70.36,70.79z"/>
    <path class="fil8" d="M11925.11 9553.73c0,39.19 -31.47,70.87 -70.4,70.87 -38.86,0 -70.4,-31.68 -70.4,-70.87 0,-39.05 31.54,-70.79 70.4,-70.79 38.93,0 70.4,31.74 70.4,70.79z"/>
    <path class="fil8" d="M11563.1 9342.08c0,39.2 -31.54,70.84 -70.36,70.84 -38.87,0 -70.4,-31.64 -70.4,-70.84 0,-39.05 31.53,-70.74 70.4,-70.74 38.82,0 70.36,31.69 70.36,70.74z"/>
    <path class="fil8" d="M11382.08 9342.08c0,39.2 -31.46,70.84 -70.35,70.84 -38.86,0 -70.37,-31.64 -70.37,-70.84 0,-39.05 31.51,-70.74 70.37,-70.74 38.89,0 70.35,31.69 70.35,70.74z"/>
    <path class="fil8" d="M11744.05 9342.08c0,39.2 -31.49,70.84 -70.36,70.84 -38.84,0 -70.44,-31.64 -70.44,-70.84 0,-39.05 31.6,-70.74 70.44,-70.74 38.87,0 70.36,31.69 70.36,70.74z"/>
    <path class="fil8" d="M11925.11 9342.08c0,39.2 -31.47,70.84 -70.4,70.84 -38.86,0 -70.4,-31.64 -70.4,-70.84 0,-39.05 31.54,-70.74 70.4,-70.74 38.93,0 70.4,31.69 70.4,70.74z"/>
    <path class="fil8" d="M11563.1 9130.5c0,39.07 -31.54,70.84 -70.36,70.84 -38.87,0 -70.4,-31.77 -70.4,-70.84 0,-39.12 31.53,-70.8 70.4,-70.8 38.82,0 70.36,31.68 70.36,70.8z"/>
    <path class="fil8" d="M11382.08 9130.5c0,39.07 -31.46,70.84 -70.35,70.84 -38.86,0 -70.37,-31.77 -70.37,-70.84 0,-39.12 31.51,-70.8 70.37,-70.8 38.89,0 70.35,31.68 70.35,70.8z"/>
    <path class="fil8" d="M11744.05 9130.5c0,39.07 -31.49,70.84 -70.36,70.84 -38.84,0 -70.44,-31.77 -70.44,-70.84 0,-39.12 31.6,-70.8 70.44,-70.8 38.87,0 70.36,31.68 70.36,70.8z"/>
    <path class="fil8" d="M11925.11 9130.5c0,39.07 -31.47,70.84 -70.4,70.84 -38.86,0 -70.4,-31.77 -70.4,-70.84 0,-39.12 31.54,-70.8 70.4,-70.8 38.93,0 70.4,31.68 70.4,70.8z"/>
    <path class="fil8" d="M11563.1 8918.82c0,39.09 -31.54,70.84 -70.36,70.84 -38.87,0 -70.4,-31.75 -70.4,-70.84 0,-39.1 31.53,-70.78 70.4,-70.78 38.82,0 70.36,31.68 70.36,70.78z"/>
    <path class="fil8" d="M11382.08 8918.82c0,39.09 -31.46,70.84 -70.35,70.84 -38.86,0 -70.37,-31.75 -70.37,-70.84 0,-39.1 31.51,-70.78 70.37,-70.78 38.89,0 70.35,31.68 70.35,70.78z"/>
    <path class="fil8" d="M11744.05 8918.82c0,39.09 -31.49,70.84 -70.36,70.84 -38.84,0 -70.44,-31.75 -70.44,-70.84 0,-39.1 31.6,-70.78 70.44,-70.78 38.87,0 70.36,31.68 70.36,70.78z"/>
    <path class="fil8" d="M11925.11 8918.82c0,39.09 -31.47,70.84 -70.4,70.84 -38.86,0 -70.4,-31.75 -70.4,-70.84 0,-39.1 31.54,-70.78 70.4,-70.78 38.93,0 70.4,31.68 70.4,70.78z"/>
    <path class="fil8" d="M11563.16 8707.17c0,39.16 -31.52,70.88 -70.42,70.88 -38.87,0 -70.4,-31.72 -70.4,-70.88 0,-39.06 31.53,-70.75 70.4,-70.75 38.9,0 70.42,31.69 70.42,70.75z"/>
    <path class="fil8" d="M11382.13 8707.17c0,39.16 -31.51,70.88 -70.4,70.88 -38.86,0 -70.37,-31.72 -70.37,-70.88 0,-39.06 31.51,-70.75 70.37,-70.75 38.89,0 70.4,31.69 70.4,70.75z"/>
    <path class="fil8" d="M11744.05 8707.17c0,39.16 -31.41,70.88 -70.36,70.88 -38.84,0 -70.37,-31.72 -70.37,-70.88 0,-39.06 31.53,-70.75 70.37,-70.75 38.95,0 70.36,31.69 70.36,70.75z"/>
    <path class="fil8" d="M11925.11 8707.17c0,39.16 -31.47,70.88 -70.36,70.88 -38.9,0 -70.44,-31.72 -70.44,-70.88 0,-39.06 31.54,-70.75 70.44,-70.75 38.89,0 70.36,31.69 70.36,70.75z"/>
    <path class="fil8" d="M11563.16 8495.61c0,39.04 -31.52,70.79 -70.42,70.79 -38.87,0 -70.4,-31.75 -70.4,-70.79 0,-39.17 31.53,-70.87 70.4,-70.87 38.9,0 70.42,31.7 70.42,70.87z"/>
    <path class="fil8" d="M11382.13 8495.61c0,39.04 -31.51,70.79 -70.4,70.79 -38.86,0 -70.37,-31.75 -70.37,-70.79 0,-39.17 31.51,-70.87 70.37,-70.87 38.89,0 70.4,31.7 70.4,70.87z"/>
    <path class="fil8" d="M11744.05 8495.61c0,39.04 -31.41,70.79 -70.36,70.79 -38.84,0 -70.37,-31.75 -70.37,-70.79 0,-39.17 31.53,-70.87 70.37,-70.87 38.95,0 70.36,31.7 70.36,70.87z"/>
    <path class="fil8" d="M11925.11 8495.61c0,39.04 -31.47,70.79 -70.36,70.79 -38.9,0 -70.44,-31.75 -70.44,-70.79 0,-39.17 31.54,-70.87 70.44,-70.87 38.89,0 70.36,31.7 70.36,70.87z"/>
    <path class="fil8" d="M11563.16 8283.93c0,39.1 -31.52,70.84 -70.42,70.84 -38.87,0 -70.4,-31.74 -70.4,-70.84 0,-39.15 31.53,-70.84 70.4,-70.84 38.9,0 70.42,31.69 70.42,70.84z"/>
    <path class="fil8" d="M11382.13 8283.93c0,39.1 -31.51,70.84 -70.4,70.84 -38.86,0 -70.37,-31.74 -70.37,-70.84 0,-39.15 31.51,-70.84 70.37,-70.84 38.89,0 70.4,31.69 70.4,70.84z"/>
    <path class="fil8" d="M11744.05 8283.93c0,39.1 -31.41,70.84 -70.36,70.84 -38.84,0 -70.37,-31.74 -70.37,-70.84 0,-39.15 31.53,-70.84 70.37,-70.84 38.95,0 70.36,31.69 70.36,70.84z"/>
    <path class="fil8" d="M11925.11 8283.93c0,39.1 -31.47,70.84 -70.36,70.84 -38.9,0 -70.44,-31.74 -70.44,-70.84 0,-39.15 31.54,-70.84 70.44,-70.84 38.89,0 70.36,31.69 70.36,70.84z"/>
    <path class="fil8" d="M11563.16 8072.26c0,39.17 -31.52,70.83 -70.42,70.83 -38.87,0 -70.4,-31.66 -70.4,-70.83 0,-39.11 31.53,-70.81 70.4,-70.81 38.9,0 70.42,31.7 70.42,70.81z"/>
    <path class="fil8" d="M11382.13 8072.26c0,39.17 -31.51,70.83 -70.4,70.83 -38.86,0 -70.37,-31.66 -70.37,-70.83 0,-39.11 31.51,-70.81 70.37,-70.81 38.89,0 70.4,31.7 70.4,70.81z"/>
    <path class="fil8" d="M11744.05 8072.26c0,39.17 -31.41,70.83 -70.36,70.83 -38.84,0 -70.37,-31.66 -70.37,-70.83 0,-39.11 31.53,-70.81 70.37,-70.81 38.95,0 70.36,31.7 70.36,70.81z"/>
    <path class="fil8" d="M11925.11 8072.26c0,39.17 -31.47,70.83 -70.36,70.83 -38.9,0 -70.44,-31.66 -70.44,-70.83 0,-39.11 31.54,-70.81 70.44,-70.81 38.89,0 70.36,31.7 70.36,70.81z"/>
   </g>
  </g>
  <g id="_3789374320">
   <polygon class="fil1" points="11744.05,7823.5 11422.34,7823.5 11422.34,5871.99 11744.05,5871.99 "/>
  </g>
  <g id="_3792025648">
   <path class="fil8" d="M11653.58 7721.39c0,39.04 -31.5,70.79 -70.42,70.79 -38.85,0 -70.36,-31.75 -70.36,-70.79 0,-39.14 31.51,-70.82 70.36,-70.82 38.92,0 70.42,31.68 70.42,70.82z"/>
  </g>
  <g id="_3792056944">
   <path class="fil8" d="M11653.58 7509.73c0,39.09 -31.5,70.8 -70.42,70.8 -38.85,0 -70.36,-31.71 -70.36,-70.8 0,-39.13 31.51,-70.84 70.36,-70.84 38.92,0 70.42,31.71 70.42,70.84z"/>
  </g>
  <g id="_3792027568">
   <path class="fil8" d="M11653.58 7298.09c0,39.08 -31.5,70.83 -70.42,70.83 -38.85,0 -70.36,-31.75 -70.36,-70.83 0,-39.13 31.51,-70.81 70.36,-70.81 38.92,0 70.42,31.68 70.42,70.81z"/>
  </g>
  <g id="_3792053104">
   <path class="fil8" d="M11653.58 7086.43c0,39.16 -31.5,70.76 -70.42,70.76 -38.85,0 -70.36,-31.6 -70.36,-70.76 0,-39.13 31.51,-70.8 70.36,-70.8 38.92,0 70.42,31.67 70.42,70.8z"/>
  </g>
  <g id="_3792077200">
   <path class="fil8" d="M11653.58 6874.78c0,39.16 -31.5,70.81 -70.38,70.81 -38.86,0 -70.36,-31.65 -70.36,-70.81 0,-39.12 31.5,-70.83 70.36,-70.83 38.88,0 70.38,31.71 70.38,70.83z"/>
  </g>
  <g id="_3792064768">
   <path class="fil8" d="M11653.58 6663.14c0,39.07 -31.5,70.84 -70.38,70.84 -38.86,0 -70.36,-31.77 -70.36,-70.84 0,-39.1 31.5,-70.79 70.36,-70.79 38.88,0 70.38,31.69 70.38,70.79z"/>
  </g>
  <g id="_3791682208">
   <path class="fil8" d="M11653.58 6451.43c0,39.18 -31.5,70.86 -70.38,70.86 -38.86,0 -70.36,-31.68 -70.36,-70.86 0,-39.01 31.5,-70.7 70.36,-70.7 38.88,0 70.38,31.69 70.38,70.7z"/>
  </g>
  <g id="_3791686576">
   <path class="fil8" d="M11653.58 6239.88c0,39.08 -31.5,70.81 -70.38,70.81 -38.86,0 -70.36,-31.73 -70.36,-70.81 0,-39.17 31.5,-70.78 70.36,-70.78 38.88,0 70.38,31.61 70.38,70.78z"/>
  </g>
  <g id="_3791685568">
   <path class="fil8" d="M11653.58 6022.93c0,39.22 -31.5,70.95 -70.38,70.95 -38.86,0 -70.36,-31.73 -70.36,-70.95 0,-39.05 31.5,-70.81 70.36,-70.81 38.88,0 70.38,31.76 70.38,70.81z"/>
  </g>
  <g id="_3791688352">
   <polygon class="fil1" points="12231.67,10852.25 12231.67,7280.61 14545.73,7280.61 14545.73,10852.25 "/>
  </g>
  <g id="_3791654176">
   <polygon class="fil2" points="12700.06,10852.25 12700.06,6886.32 12886.78,6886.32 12886.78,10852.25 "/>
  </g>
  <g id="_3791630416">
   <polygon class="fil6" points="13604.06,10852.25 13604.06,8134.27 13173.41,8134.27 13173.41,10852.25 "/>
  </g>
  <polygon class="fil2" points="17163.9,10852.25 17163.9,6460.46 17292.48,6460.46 17292.48,10852.25 "/>
  <polygon class="fil1" points="16290.01,10852.25 16290.01,6460.46 16496.74,6460.46 16496.74,10852.25 "/>
  <polygon class="fil8" points="16735.21,10852.25 16735.21,6124.32 16623.92,6124.32 16623.92,10852.25 "/>
  <g id="_3791683504">
   <path class="fil6" d="M17911.77 6951.17c0,207.64 -167.32,376.07 -373.73,376.07l-1447.01 0c-206.36,0 -373.65,-168.43 -373.65,-376.07 0,-207.71 167.29,-376.1 373.65,-376.1l1447.01 0c206.41,0 373.73,168.39 373.73,376.1z"/>
  </g>
  <g id="_3791626384">
   <path class="fil6" d="M17911.77 8743.58c0,207.69 -167.32,376.05 -373.73,376.05l-1447.01 0c-206.36,0 -373.65,-168.36 -373.65,-376.05 0,-207.78 167.29,-376.11 373.65,-376.11l1447.01 0c206.41,0 373.73,168.33 373.73,376.11z"/>
  </g>
  <g id="_3791683072">
   <path class="fil6" d="M17911.77 9639.69c0,207.79 -167.32,376.22 -373.73,376.22l-1447.01 0c-206.36,0 -373.65,-168.43 -373.65,-376.22 0,-207.65 167.29,-375.97 373.65,-375.97l1447.01 0c206.41,0 373.73,168.32 373.73,375.97z"/>
  </g>
  <g id="_3791644624">
   <path class="fil6" d="M17911.77 7847.34c0,207.72 -167.32,376.11 -373.73,376.11l-1447.01 0c-206.36,0 -373.65,-168.39 -373.65,-376.11 0,-207.66 167.29,-376.05 373.65,-376.05l1447.01 0c206.41,0 373.73,168.39 373.73,376.05z"/>
  </g>
  <path class="fil2" d="M17626.73 10010.44l-812.14 0 0 -741.46 812.14 0c0,0 273.17,103.03 285.04,376.17 11.29,261.32 -285.04,365.29 -285.04,365.29zm0 -1792.37l-812.14 0 0 -741.42 812.14 0c0,0 273.17,102.97 285.04,376.11 11.29,261.34 -285.04,365.31 -285.04,365.31zm0 -896.2l-812.14 0 0 -741.39 812.14 0c0,0 273.17,102.99 285.04,376.07 11.29,261.34 -285.04,365.32 -285.04,365.32zm0 1787.01l-812.14 0 0 -741.41 812.14 0c0,0 273.17,102.95 285.04,376.11 11.29,261.28 -285.04,365.3 -285.04,365.3z"/>
  <polygon class="fil8" points="16910.18,10852.25 16910.18,6284.34 17101.01,6284.34 17101.01,10852.25 "/>
  <g id="_3791633200">
   <polygon class="fil2" points="25289.21,7091.53 22796.78,7091.53 22796.78,6517.68 25289.21,6517.68 "/>
  </g>
  <g style="clip-path:url(#id0)">
   <image x="14027.86" y="928.22" width="1303.85" height="1210.73" xlink:href="общий+_Images\общий+_ImgID1.png"/>
  </g>
  <g id="_3791661808">
   <polygon class="fil10 str1" points="14644.55,1698.22 14530.3,1711.82 14433.73,1767.58 14339.88,1741.74 14286.83,1666.93 14248.75,1638.37 14233.78,1460.19 14281.39,1354.1 14273.23,1275.21 14331.72,1222.16 14403.8,1098.38 14511.26,1092.94 14607.83,1037.18 14682.99,1064.38 14758.14,1037.18 14854.71,1092.94 14962.17,1098.38 15034.24,1222.16 15092.73,1275.21 15084.57,1354.1 15132.18,1460.19 15117.22,1638.37 15079.13,1666.93 15026.09,1741.74 14932.24,1767.58 14835.67,1711.82 14721.42,1698.22 14682.99,1684.28 "/>
   <path class="fil10 str1" d="M15205.11 1312.82c-1.52,-1.69 -3.09,-3.33 -4.7,-4.93 -9.36,-9.27 -20.15,-17.05 -30.8,-24.75 -3.9,-2.82 -7.46,-5.74 -9.84,-9.99 -1.83,-3.26 -1.42,-9.49 -6.94,-9.44 -1.29,0.01 -2.49,0.63 -3.56,1.36 -8.99,6.21 -9.32,19.03 -12.86,29.37 -6.58,19.2 -26.27,32.59 -29.7,52.6 -1.16,6.74 0.75,15.18 7.22,17.38 1.08,0.37 2.19,0.52 3.31,0.53l0 0c13.95,1.19 27.03,5.42 41,4.62 2,-0.12 3.97,-0.32 5.94,-0.59l0.78 -0.18c35.79,82.78 39.91,170.61 3.11,254.42 -34.01,77.45 -103.42,140.99 -184.81,165.03 -60.32,17.82 -119.85,39.84 -174.65,70.98 -47.32,26.88 -103.33,64 -125.64,115.68 -22.3,-51.68 -78.31,-88.8 -125.62,-115.68 -54.81,-31.14 -114.34,-53.16 -174.65,-70.98 -81.4,-24.04 -150.8,-87.58 -184.82,-165.03 -36.8,-83.81 -32.68,-171.64 3.11,-254.42l0.78 0.18c1.97,0.27 3.95,0.47 5.94,0.59 13.98,0.8 27.05,-3.43 41,-4.62l0 0c1.12,-0.01 2.23,-0.16 3.31,-0.53 6.47,-2.2 8.38,-10.64 7.23,-17.38 -3.43,-20.01 -23.13,-33.4 -29.7,-52.6 -3.54,-10.34 -3.87,-23.16 -12.87,-29.37 -1.06,-0.73 -2.27,-1.35 -3.55,-1.36 -5.53,-0.05 -5.12,6.18 -6.95,9.44 -2.38,4.25 -5.93,7.17 -9.83,9.99 -10.65,7.7 -21.44,15.48 -30.81,24.75 -1.61,1.6 -3.18,3.24 -4.7,4.93 -8.33,9.26 -18.96,24.14 -18,37.25 0.45,6.04 3.45,8.49 7.64,8.92l0 0c0.75,0.08 1.54,0.09 2.35,0.04 10.61,0.23 20.83,3.22 31.1,6l0.8 0.18c-22.3,45.08 -31.63,99.38 -32.1,148.92 -1.09,114.36 79.64,234.76 183.53,279.67 43.7,18.9 89.77,31.5 134.21,48.2 83.98,31.58 197.35,97.82 212.6,195.6 15.26,-97.78 128.63,-164.02 212.62,-195.6 44.43,-16.7 90.5,-29.3 134.2,-48.2 103.89,-44.91 184.62,-165.31 183.53,-279.67 -0.47,-49.54 -9.8,-103.84 -32.1,-148.92l0.8 -0.18c10.28,-2.78 20.49,-5.77 31.1,-6 0.81,0.05 1.6,0.04 2.35,-0.04l0.01 0c4.19,-0.43 7.18,-2.88 7.63,-8.92 0.96,-13.11 -9.67,-27.99 -18,-37.25z"/>
   <path class="fil10 str2" d="M14165.55 1307.89c9.37,-9.27 20.16,-17.05 30.8,-24.75 3.91,-2.82 7.46,-5.74 9.84,-9.99 1.83,-3.26 1.43,-9.49 6.95,-9.44 1.28,0.01 2.49,0.63 3.55,1.36 9,6.21 9.32,19.03 12.87,29.37 6.57,19.2 26.27,32.59 29.7,52.6 1.16,6.74 -0.75,15.18 -7.23,17.38 -3.14,1.07 -6.59,0.38 -9.75,-0.61 -8.68,-2.7 -16.57,-7.44 -24.96,-10.91 -11.53,-4.76 -24.56,-7.08 -36.53,-3.55 -9.2,2.72 -36.52,19.99 -37.94,0.72 -0.96,-13.12 9.67,-27.99 18,-37.25 1.52,-1.69 3.09,-3.33 4.7,-4.93z"/>
   <path class="fil11 str2" d="M14154.92 1343.57c4.49,-11.47 11.17,-22.07 19.58,-31.07"/>
   <path class="fil11 str2" d="M14171.22 1337.44c5.82,-12 12.56,-23.56 20.16,-34.52"/>
   <path class="fil11 str2" d="M14194.41 1334.74c3.43,-9.83 6.34,-19.83 8.74,-29.96"/>
   <path class="fil11 str2" d="M14221.12 1338.79c-0.06,-9.37 -1.84,-18.72 -5.23,-27.45"/>
   <path class="fil11 str2" d="M14233.92 1340.13c-1.46,-6.93 -3.85,-13.66 -7.09,-19.96"/>
   <path class="fil11 str2" d="M14248.72 1350.7c-1.4,-7.66 -4.69,-14.96 -9.49,-21.09"/>
   <path class="fil11 str2" d="M14150.49 1358.99c11.46,-0.22 22.41,3.06 33.45,6.04"/>
   <path class="fil11 str2" d="M14201.78 1368.98c1.97,0.27 3.95,0.48 5.94,0.59 13.98,0.8 27.05,-3.43 41,-4.62"/>
   <path class="fil11 str2" d="M14194.2 1347.9c-29.17,48 -41.02,110.17 -41.56,166.23 -1.09,114.37 79.64,234.76 183.53,279.67 43.7,18.9 89.77,31.5 134.21,48.2 83.98,31.58 197.35,97.82 212.6,195.6"/>
   <path class="fil10 str2" d="M15200.41 1307.89c-9.36,-9.27 -20.15,-17.05 -30.8,-24.75 -3.9,-2.82 -7.46,-5.74 -9.84,-9.99 -1.82,-3.26 -1.42,-9.49 -6.94,-9.44 -1.29,0.01 -2.5,0.63 -3.56,1.36 -8.99,6.21 -9.32,19.03 -12.86,29.37 -6.58,19.2 -26.27,32.59 -29.7,52.6 -1.16,6.74 0.75,15.18 7.22,17.38 3.14,1.07 6.59,0.38 9.76,-0.61 8.67,-2.7 16.56,-7.44 24.96,-10.91 11.52,-4.76 24.56,-7.08 36.52,-3.55 9.2,2.72 36.52,19.99 37.94,0.72 0.96,-13.12 -9.67,-27.99 -18,-37.25 -1.52,-1.69 -3.09,-3.33 -4.7,-4.93z"/>
   <path class="fil11 str2" d="M15211.04 1343.57c-4.49,-11.47 -11.17,-22.07 -19.57,-31.07"/>
   <path class="fil11 str2" d="M15194.74 1337.44c-5.81,-12 -12.56,-23.56 -20.15,-34.52"/>
   <path class="fil11 str2" d="M15171.55 1334.74c-3.42,-9.83 -6.34,-19.83 -8.73,-29.96"/>
   <path class="fil11 str2" d="M15144.85 1338.79c0.06,-9.37 1.84,-18.72 5.23,-27.45"/>
   <path class="fil11 str2" d="M15132.05 1340.13c1.46,-6.93 3.85,-13.66 7.09,-19.96"/>
   <path class="fil11 str2" d="M15215.48 1358.99c-11.47,-0.22 -22.42,3.06 -33.46,6.04"/>
   <path class="fil11 str2" d="M15164.18 1368.98c-1.96,0.27 -3.94,0.48 -5.94,0.59 -13.97,0.8 -27.05,-3.43 -41,-4.62"/>
   <path class="fil11 str2" d="M15171.76 1347.9c29.18,48 41.03,110.17 41.56,166.23 1.09,114.37 -79.64,234.76 -183.53,279.67 -43.7,18.9 -89.77,31.5 -134.21,48.2 -83.98,31.58 -197.34,97.82 -212.6,195.6"/>
   <path class="fil11 str2" d="M15156.77 1351.03c43.19,87.9 50.75,182.35 11.3,272.19 -34.02,77.45 -103.42,140.99 -184.81,165.04 -60.32,17.81 -119.84,39.83 -174.65,70.97 -47.31,26.88 -103.33,64 -125.63,115.69 -22.3,-51.69 -78.32,-88.81 -125.63,-115.69 -54.81,-31.14 -114.34,-53.16 -174.65,-70.97 -81.4,-24.05 -150.8,-87.59 -184.82,-165.04 -39.45,-89.84 -31.89,-184.29 11.3,-272.19"/>
   <line class="fil11 str2" x1="14682.99" y1="1303.24" x2="14511.26" y2= "1092.94" />
   <polyline class="fil11 str2" points="14584.15,1527.52 14451.41,1677.81 14621.43,1632.93 14530.3,1711.82 14451.41,1677.81 14322.2,1609.81 14339.88,1741.74 14451.41,1677.81 "/>
   <polyline class="fil11 str2" points="14682.99,1064.38 14607.83,1037.18 14511.26,1092.94 14403.81,1098.38 14331.72,1222.16 14273.23,1275.2 14281.39,1354.09 14233.79,1460.19 14248.75,1638.37 14286.83,1666.93 14339.88,1741.74 14433.73,1767.58 14530.3,1711.82 14644.55,1698.22 "/>
   <polyline class="fil11 str2" points="14511.26,1092.94 14509.9,1272.48 14331.72,1222.16 "/>
   <polyline class="fil11 str2" points="14403.8,1098.38 14509.9,1272.48 14578.71,1351.08 "/>
   <polyline class="fil11 str2" points="14549.87,1432.31 14322.19,1609.81 14286.83,1666.93 "/>
   <polyline class="fil11 str2" points="14682.99,1303.24 14509.9,1272.49 14549.87,1432.31 "/>
   <line class="fil11 str2" x1="14549.87" y1="1432.31" x2="14281.39" y2= "1354.09" />
   <line class="fil11 str2" x1="14682.99" y1="1303.24" x2="14607.83" y2= "1037.18" />
   <polyline class="fil11 str2" points="14509.9,1272.49 14273.23,1275.21 14549.87,1432.31 "/>
   <polyline class="fil11 str2" points="14549.87,1432.31 14451.41,1677.82 14433.73,1767.58 "/>
   <polyline class="fil11 str2" points="14682.99,1569.47 14644.55,1698.22 14621.43,1632.93 14584.15,1527.51 "/>
   <line class="fil11 str2" x1="14233.78" y1="1460.19" x2="14322.19" y2= "1609.81" />
   <line class="fil11 str2" x1="14682.99" y1="1569.47" x2="14682.99" y2= "1684.28" />
   <line class="fil11 str2" x1="14549.87" y1="1432.31" x2="14233.78" y2= "1460.19" />
   <line class="fil11 str2" x1="14682.99" y1="1303.24" x2="14682.99" y2= "1064.38" />
   <line class="fil11 str2" x1="14682.99" y1="1569.47" x2="14621.43" y2= "1632.93" />
   <line class="fil11 str2" x1="14682.99" y1="1303.24" x2="14854.71" y2= "1092.94" />
   <polyline class="fil11 str2" points="14781.83,1527.52 14914.56,1677.81 14744.54,1632.93 14835.67,1711.82 14914.56,1677.81 15043.77,1609.81 15026.08,1741.74 14914.56,1677.81 "/>
   <polyline class="fil11 str2" points="14682.99,1064.38 14758.14,1037.18 14854.71,1092.94 14962.16,1098.38 15034.25,1222.16 15092.73,1275.2 15084.57,1354.09 15132.17,1460.19 15117.22,1638.37 15079.13,1666.93 15026.09,1741.74 14932.24,1767.58 14835.67,1711.82 14721.42,1698.22 "/>
   <polyline class="fil11 str2" points="14854.71,1092.94 14856.07,1272.48 15034.24,1222.16 "/>
   <polyline class="fil11 str2" points="14962.17,1098.38 14856.08,1272.48 14787.26,1351.08 "/>
   <polyline class="fil11 str2" points="14816.1,1432.31 15043.77,1609.81 15079.13,1666.93 "/>
   <polyline class="fil11 str2" points="14682.99,1303.24 14856.07,1272.49 14816.1,1432.31 "/>
   <line class="fil11 str2" x1="14816.1" y1="1432.31" x2="15084.57" y2= "1354.09" />
   <line class="fil11 str2" x1="14682.99" y1="1303.24" x2="14758.14" y2= "1037.18" />
   <polyline class="fil11 str2" points="14856.07,1272.49 15092.73,1275.21 14816.1,1432.31 "/>
   <polyline class="fil11 str2" points="14816.1,1432.31 14914.56,1677.82 14932.24,1767.58 "/>
   <polyline class="fil11 str2" points="14682.99,1569.47 14721.42,1698.22 14744.54,1632.93 14781.83,1527.51 "/>
   <line class="fil11 str2" x1="15132.18" y1="1460.19" x2="15043.77" y2= "1609.81" />
   <line class="fil11 str2" x1="14816.1" y1="1432.31" x2="15132.18" y2= "1460.19" />
   <line class="fil11 str2" x1="14682.99" y1="1569.47" x2="14744.54" y2= "1632.93" />
   <path class="fil10 str2" d="M14718.27 1436.35c0,19.49 -15.79,35.29 -35.28,35.29 -19.49,0 -35.29,-15.8 -35.29,-35.29 0,-19.48 15.8,-35.28 35.29,-35.28 19.49,0 35.28,15.8 35.28,35.28z"/>
   <path class="fil10 str2" d="M14787.34 1436.35c0,57.64 -46.72,104.35 -104.35,104.35 -57.63,0 -104.35,-46.71 -104.35,-104.35 0,-57.62 46.72,-104.34 104.35,-104.34 57.63,0 104.35,46.72 104.35,104.34z"/>
   <path class="fil10 str2" d="M14816.1 1436.35c0,73.52 -59.6,133.12 -133.12,133.12 -73.51,0 -133.11,-59.6 -133.11,-133.12 0,-73.51 59.6,-133.11 133.11,-133.11 73.52,0 133.12,59.6 133.12,133.11z"/>
   <path class="fil11 str2" d="M14715.99 1380.9c18.88,11.25 31.52,31.88 31.52,55.45 0,23.59 -12.64,44.21 -31.52,55.47"/>
   <path class="fil11 str2" d="M14649.99 1491.82c-18.88,-11.26 -31.53,-31.89 -31.53,-55.47 0,-23.57 12.65,-44.2 31.53,-55.46"/>
   <line class="fil11 str2" x1="14594.6" y1="1380.9" x2="14771.38" y2= "1380.9" />
   <line class="fil11 str2" x1="14594.6" y1="1491.8" x2="14771.38" y2= "1491.8" />
   <line class="fil11 str2" x1="14644.55" y1="1698.22" x2="14682.99" y2= "1684.28" />
   <line class="fil11 str2" x1="14721.42" y1="1698.22" x2="14682.98" y2= "1684.28" />
  </g>
 </g>
</svg>
