<?xml version="1.0" encoding="utf-8"?>
<!-- Generator: Adobe Illustrator 26.0.3, SVG Export Plug-In . SVG Version: 6.00 Build 0)  -->
<svg version="1.1" id="Слой_1" xmlns="http://www.w3.org/2000/svg" xmlns:xlink="http://www.w3.org/1999/xlink" x="0px"
  y="0px" viewBox="0 0 358.9 224.6" style="enable-background:new 0 0 358.9 224.6;" xml:space="preserve">
  <style type="text/css">
    .st0 {
      fill-rule: evenodd;
      clip-rule: evenodd;
      fill: #3B3634;
    }

    .st1 {
      fill-rule: evenodd;
      clip-rule: evenodd;
    }

    .st2 {
      fill-rule: evenodd;
      clip-rule: evenodd;
      fill: #383838;
    }

    .st3 {
      fill-rule: evenodd;
      clip-rule: evenodd;
      fill: #3F3F41;
    }

    .st4 {
      fill-rule: evenodd;
      clip-rule: evenodd;
      fill: #F3AB77;
    }

    .st5 {
      fill-rule: evenodd;
      clip-rule: evenodd;
      fill: #A2CCD2;
    }

    .st6 {
      fill-rule: evenodd;
      clip-rule: evenodd;
      fill: #BBDEEE;
    }

    .st7 {
      fill-rule: evenodd;
      clip-rule: evenodd;
      fill: #181613;
    }

    .st8 {
      fill-rule: evenodd;
      clip-rule: evenodd;
      fill: #24211F;
    }

    .st9 {
      fill-rule: evenodd;
      clip-rule: evenodd;
      fill: #8FC9D0;
    }

    .st10 {
      fill-rule: evenodd;
      clip-rule: evenodd;
      fill: #F3AD75;
    }

    .st11 {
      fill-rule: evenodd;
      clip-rule: evenodd;
      fill: #ABD5E1;
    }

    .st12 {
      fill-rule: evenodd;
      clip-rule: evenodd;
      fill: #C79B66;
    }

    .st13 {
      fill-rule: evenodd;
      clip-rule: evenodd;
      fill: #F8D29D;
    }

    .st14 {
      fill-rule: evenodd;
      clip-rule: evenodd;
      fill: #7C4415;
    }

    .st15 {
      fill-rule: evenodd;
      clip-rule: evenodd;
      fill: #E8A662;
    }

    .st16 {
      fill-rule: evenodd;
      clip-rule: evenodd;
      fill: #1D1616;
    }

    .st17 {
      fill-rule: evenodd;
      clip-rule: evenodd;
      fill: #F6D09D;
    }

    .st18 {
      fill-rule: evenodd;
      clip-rule: evenodd;
      fill: #E7A260;
    }

    .st19 {
      fill-rule: evenodd;
      clip-rule: evenodd;
      fill: #E1A05E;
    }

    .st20 {
      fill-rule: evenodd;
      clip-rule: evenodd;
      fill: #FFFFFF;
    }

    .st21 {
      fill-rule: evenodd;
      clip-rule: evenodd;
      fill: #1C1C1A;
    }

    .st22 {
      fill-rule: evenodd;
      clip-rule: evenodd;
      fill: #BB8046;
    }

    .st23 {
      fill: #868486;
    }

    .st24 {
      fill: #757272;
    }

    .st25 {
      fill: #848484;
    }

    .st26 {
      fill: #5B5654;
    }

    .st27 {
      fill: #FFFFFF;
    }

    .st28 {
      fill: none;
      stroke: #999999;
      stroke-miterlimit: 10;
    }

    .st29 {
      fill: none;
      stroke: #E70005;
      stroke-miterlimit: 10;
    }

    .st30 {
      fill: none;
      stroke: #64BFFF;
      stroke-miterlimit: 10;
    }

    .st31 {
      fill: #59595B;
    }

    .st32 {
      fill-rule: evenodd;
      clip-rule: evenodd;
      fill: #B9BBBC;
    }

    .st33 {
      fill-rule: evenodd;
      clip-rule: evenodd;
      fill: #59595B;
    }

    .st34 {
      fill-rule: evenodd;
      clip-rule: evenodd;
      fill: #A9A9AD;
    }

    .st35 {
      fill-rule: evenodd;
      clip-rule: evenodd;
      fill: #343436;
    }

    .st36 {
      fill-rule: evenodd;
      clip-rule: evenodd;
      fill: #504D69;
    }

    .st37 {
      fill-rule: evenodd;
      clip-rule: evenodd;
      fill: #00384F;
    }

    .st38 {
      fill-rule: evenodd;
      clip-rule: evenodd;
      fill: #00465E;
    }

    .st39 {
      fill-rule: evenodd;
      clip-rule: evenodd;
      fill: #FACEBE;
    }

    .st40 {
      fill-rule: evenodd;
      clip-rule: evenodd;
      fill: #D9B2A2;
    }

    .st41 {
      fill-rule: evenodd;
      clip-rule: evenodd;
      fill: #414141;
    }

    .st42 {
      fill-rule: evenodd;
      clip-rule: evenodd;
      fill: #6D6E70;
    }

    .st43 {
      fill: #3F3F41;
    }

    .st44 {
      fill: #525456;
    }

    .st45 {
      fill-rule: evenodd;
      clip-rule: evenodd;
      fill: #AB6062;
    }

    .st46 {
      fill-rule: evenodd;
      clip-rule: evenodd;
      fill: #49A2AB;
    }

    .st47 {
      fill: #B08F8B;
    }

    .st48 {
      fill-rule: evenodd;
      clip-rule: evenodd;
      fill: #F59B67;
    }

    .st49 {
      fill: #A96434;
    }

    .st50 {
      fill: #54C2CC;
    }

    .st51 {
      fill-rule: evenodd;
      clip-rule: evenodd;
      fill: #747575;
    }

    .st52 {
      fill: #F97300;
    }

    .st53 {
      fill: #282923;
    }

    .st54 {
      fill: #4D514A;
    }

    .st55 {
      fill: none;
      stroke: #D9B368;
      stroke-width: 0.5;
      stroke-miterlimit: 10;
    }

    .st56 {
      opacity: 0.1;
    }

    .st57 {
      fill: none;
      stroke: #FFFFFF;
      stroke-width: 0.5;
      stroke-miterlimit: 10;
    }

    .st58 {
      fill: none;
      stroke: #4D514A;
      stroke-width: 0.5;
      stroke-linecap: round;
      stroke-miterlimit: 10;
    }

    .st59 {
      fill-rule: evenodd;
      clip-rule: evenodd;
      fill: #DCC0A4;
    }

    .st60 {
      fill-rule: evenodd;
      clip-rule: evenodd;
      fill: #EFD5BB;
    }

    .st61 {
      fill-rule: evenodd;
      clip-rule: evenodd;
      fill: #FCFCFA;
    }

    .st62 {
      fill-rule: evenodd;
      clip-rule: evenodd;
      fill: #422818;
    }

    .st63 {
      fill-rule: evenodd;
      clip-rule: evenodd;
      fill: #110F0A;
    }

    .st64 {
      fill-rule: evenodd;
      clip-rule: evenodd;
      fill: #E8B71D;
    }

    .st65 {
      fill-rule: evenodd;
      clip-rule: evenodd;
      fill: #38444D;
    }

    .st66 {
      fill-rule: evenodd;
      clip-rule: evenodd;
      fill: #313F49;
    }

    .st67 {
      fill-rule: evenodd;
      clip-rule: evenodd;
      fill: #425259;
    }

    .st68 {
      fill-rule: evenodd;
      clip-rule: evenodd;
      fill: #3D4B54;
    }

    .st69 {
      fill-rule: evenodd;
      clip-rule: evenodd;
      fill: #3B4D59;
    }

    .st70 {
      fill-rule: evenodd;
      clip-rule: evenodd;
      fill: #FFC703;
    }

    .st71 {
      fill: #808081;
    }

    .st72 {
      fill: #89898B;
    }

    .st73 {
      fill-rule: evenodd;
      clip-rule: evenodd;
      fill: #DEB223;
    }

    .st74 {
      fill: #1A1A1A;
    }

    .st75 {
      fill: #333333;
    }

    .st76 {
      fill: #8C6200;
    }
  </style>
  <g id="Слой_2_00000055668965992539191760000017026159430128267681_">
    <g id="Экран_01">
      <g id="_03">
        <polygon class="st0" points="98.6,110.9 102.2,110.7 102.5,112.9 98.5,113.1 			" />
        <polygon class="st0" points="103.7,110.6 107.3,110.5 107.6,112.7 103.6,112.9 			" />
        <polygon class="st0" points="108.9,110.4 112.4,110.2 112.8,112.4 108.8,112.6 			" />
        <polygon class="st0" points="114,110.1 117.6,110 117.9,112.2 113.9,112.4 			" />
        <polygon class="st0" points="119.2,109.9 122.7,109.7 123.1,112 119,112.2 			" />
        <polygon class="st0" points="124.3,109.7 127.9,109.5 128.2,111.7 124.2,111.9 			" />
        <polygon class="st0" points="129.4,109.4 133,109.2 133.4,111.5 129.3,111.7 			" />
        <path class="st1" d="M95.6,113.5c0-0.3,0.1-0.6,0.3-0.8c0.2-0.2,0.5-0.4,0.8-0.4l41.7-2c0.3,0,0.6,0.1,0.8,0.3
				c0.2,0.2,0.4,0.5,0.4,0.8v0.7c0,0.6-0.5,1.2-1.1,1.2c0,0,0,0,0,0l-41.8,2c-0.6,0-1.2-0.5-1.2-1.1L95.6,113.5z" />
        <path class="st1" d="M136.4,112.2l1.1-0.2v1.3l-0.2,2h-0.8C136.5,115.3,136.4,112.2,136.4,112.2z" />
        <path class="st2"
          d="M345.7,51.6c0.6,0.3,0.9,0.9,0.9,1.5l-4.8,62.9h-7.2l3.7-54.3l-1.7-6.6l-2-6h5.1L345.7,51.6z" />
        <path class="st3" d="M336,49.2l-58,0.7c-5.5,0.1-3.9,10-3.9,10c0,0,0,0.1,0,0.2l2.2,54.8c0.1,1,2.9,1.2,3.9,1.2h54.4l2.4-29.4
				c0,0,2.4-20.9,2.9-27.9c0.7-8.8-4.2-9.6-4.4-9.6L336,49.2z" />
        <path class="st4" d="M259.7,103.5l-4.5,2.3c0,0-0.1,0-0.1,0h-19.6l-10.6,1.3c0,0-1.9,1.2-2,1.9c0.1,0.9,0.6,1.7,1.2,2.2
				c0,0,2.4,1.1,2.5,1.1l37.2-2.5c0.7,0,1.4-0.4,1.9-1c0.4-0.6,0.5-1.3,0.2-1.9l-0.9-2.2c0-0.1-0.1-0.1-0.1-0.1l-5.1-1.1
				C259.8,103.5,259.7,103.5,259.7,103.5z" />
        <path class="st5" d="M290.9,56.7l-2.6,14c0,0.1-1.6,29.5-1.6,29.6l-15.2,8.1c-0.9,0.8-6.2,2.6-6.4,1.4l-0.5-2.8
				c-0.2-0.7-0.6-1.2-1.2-1.6l-1.2-0.8l-1.9-1l1.3-0.9c0.6-0.6,1.4-1.1,2.2-1.2l1.9-0.2c0,0-0.8-0.1-0.7-0.7s2.3-1.2,2.3-1.2
				s-1-0.8-1-1.2c0.1-1.9,2.7-1.3,3-1.2c0,0,2.3,0.9,2.7-1.3c0.1-0.6,0.3-1.1,0.6-1.6l3.8-3.3c1.1-0.9,1.9-2.1,2.5-3.4l2.9-7.4
				c0.1-0.4,0.8-2.6,0.9-3c0.5-2.3,2.2-9.9,3.3-13.1c0.9-2.2,2.1-4.3,3.5-6.2L290.9,56.7z" />
        <path class="st6" d="M312.6,51.8l6.7,3.3l6.7,2.6l-4.7,7l0.6,17l-2.7,11.7l0.6,13v9h-39.4l-14.2,0.9l5.9-11.8l7.4-2.2
				c2-2.4,7.3-28.9,7.3-28.9c0.3-1,0.5-1.9,0.5-2.9l0.4-7c0,0,1.7-5.7,3.2-6.9C295.3,53.2,312.6,51.8,312.6,51.8z" />
        <path class="st7" d="M253.8,114.9h38.8c1.3,0.1,2.4-0.9,2.4-2.1c0.1-1.3-0.9-2.4-2.1-2.4c-0.1,0-0.2,0-0.3,0h-38.8
				c-1.3-0.1-2.4,0.9-2.4,2.1c-0.1,1.3,0.9,2.4,2.1,2.4C253.6,114.9,253.7,114.9,253.8,114.9z" />
        <path class="st8"
          d="M229.2,108.6h27.3l2.3,6.3h-29.6c-1.3,0-2.3-1-2.3-2.3v-2.3C226.9,109,228,108.6,229.2,108.6z" />
        <path class="st9" d="M322,63.1c1.9,7,1.1,10.3,1.4,17.6c0.1,3.9-0.1,8-1.9,11.4c-0.7,1.3-1.6,2.4-2.2,3.7s-0.3,3.5,0.1,4.9
				c-1.4-0.3-2.8-0.1-4.1,0.4c2.3-7.6,3.9-15.5,3.3-23.4c-0.1-1.5-0.3-3-0.4-4.4c0-1.7,0.1-3.4,0.3-5.1c0.2-2.2,0.5-4.3,0.9-6.5
				c0.3-1.1,1-1.3,1.8-2.2L322,63.1z" />
        <path class="st10" d="M322.7,101.7c-1.2-1.2-2.9-1.7-4.5-1.3l-8.1,1.6l-6.7,1.3c-0.1,0-12.4,1-12.4,1.1c-0.5,0.1-3.1,0.5-3.1,0.5
				c-1.1-0.2-2.2-0.4-3.2-0.8l-9.4-3.2c-1-0.6-2.2-0.5-3.1,0.2l-3.3,2c-0.8,0.3-1.5,1-1.7,1.8l-1.9,5l0.6,1h5l1.7,0.8
				c0.6,0.3,1.3,0.3,1.9,0l1.1-0.5c0.4-0.2,5.9,2.5,14.5-0.3c1.1-0.4,4.3,0.9,5,1.2c0.1,0,6.2,1.5,8.7,1.5h11.9l6.8-0.5
				c0.1,0,0.2,0,0.3-0.1c0.6-0.2,2.6-1.1,2.6-1.1c0.6-0.3,1.1-0.8,1.4-1.4c1.1-2,0.7-4.4-0.9-5.9L322.7,101.7z" />
        <path class="st11" d="M324.2,57.4c0.8,0,2.4,0.4,2.8,1.1c0,0,3.4,5.2,4,7.2c2.4,7.7,6.4,31.5,6.4,31.5c0.2,0.6-1.1,3-1.5,3.5
				l-5.6,8c-0.5,0.8-3.2,2.3-4,2.2c0-1.4-0.2-2.7-0.5-4.1c-0.7-1.7-3.9-4.9-3.9-4.9c-1.3-0.6-2.7-1.1-4.2-1.2l2.3-9.2
				c0.1-0.2,1.3-7.6,1.6-10.2c0.1-0.5,0-1.1-0.1-1.6c-0.5-1.8-1.7-6.2-1.8-7.2c0-0.1,0-0.2,0-0.4c0.1-1.4,0.6-11.6,1-11.9l1.6-2.3
				C322.9,57.6,323.5,57.4,324.2,57.4z" />
        <path class="st12" d="M274.9,102.8c0.6,0.8,1.1,1.6,1.5,2.5c0.4,0.9,0.8,1.7,1.2,2.6c0-0.3-0.1-0.6-0.1-0.9
				c-0.3-1.3-0.9-2.6-1.9-3.6C275.4,103.2,275.2,103,274.9,102.8z" />
        <path class="st12" d="M273.5,109.5c0.2,0,0.3,0,0.5,0c0.3,0,0.6,0.1,0.9,0.3c0.2,0.2,0.4,0.5,0.5,0.8c0.1,0.2,0.1,0.3,0,0.5
				c0.2-0.1,0.3-0.3,0.3-0.5c0-0.4-0.1-0.9-0.4-1.2c-0.3-0.3-0.8-0.4-1.2-0.3C273.8,109.3,273.7,109.3,273.5,109.5z" />
        <path class="st12" d="M274,106.1l-0.8,0.5c-0.6,0.4-1.2,0.9-1.6,1.4c-0.3,0.3-0.4,0.7-0.5,1.1c0,0.3-0.1,0.7-0.1,1
				c0,0.4,0.1,0.7,0.2,1c-0.1-0.3-0.1-0.6,0-0.9c0-0.3,0.1-0.6,0.2-0.9c0.1-0.3,0.3-0.6,0.5-0.9c0.5-0.5,0.9-1,1.5-1.5
				C273.6,106.6,273.8,106.4,274,106.1z" />
        <path class="st12" d="M271.5,104.8c-0.2,0.3-0.4,0.6-0.7,0.9l-0.8,0.8c-0.5,0.6-1,1.1-1.5,1.7l-0.1,0.2l0.2,0.1
				c0.2,0.1,0.4,0.3,0.5,0.5l0.5,0.6c0.4,0.4,0.7,0.8,1.1,1.1c-0.3-0.4-0.6-0.9-0.9-1.3c-0.1-0.2-0.3-0.4-0.5-0.7
				c-0.2-0.2-0.4-0.4-0.6-0.6v0.3c0.5-0.5,1-1.1,1.5-1.7C270.8,106.2,271.2,105.6,271.5,104.8z" />
        <path class="st12" d="M270.6,103.6c-0.3,0.4-0.6,0.7-0.9,1c-0.6,0.6-1.4,1.3-2.2,2l-0.3,0.3l-0.1,0.1c0,0.1-0.1,0-0.1,0.2v0.1
				c0,0.1,0,0.1,0,0.3s0.2,0.5,0.3,0.7c0.2,0.5,0.4,0.9,0.5,1.3c0.3,0.8,0.5,1.2,0.5,1.2s-0.1-0.5-0.3-1.3c-0.1-0.4-0.2-0.8-0.4-1.3
				l-0.2-0.8c0,0.1,0-0.1,0-0.1l0,0c0,0.1,0,0.1,0,0.1s0,0,0.1,0l0.3-0.3c0.7-0.7,1.4-1.4,2.1-2.1
				C270.2,104.5,270.4,104.1,270.6,103.6z" />
        <polygon class="st3" points="247.5,72.3 246.4,72.3 246.4,73.5 257.2,110.3 258.9,110.3 			" />
        <polygon class="st1" points="213.7,72.3 226.9,110.3 257.2,110.3 246.4,73.5 246.4,72.3 			" />
        <path class="st13" d="M309.9,40c-0.4,4.1,0.3,8.2,1.9,12c-0.7,1-2.1,4.5-6.8,5.3c-5,0.9-6.4-0.6-7.9-2.7
				c-0.1-0.2-0.4-0.2-0.6-0.3c0.3-0.8,0.5-1.6,0.6-2.5c0.5-3.4,0.1-6.9,0.1-10.5C299,41.1,309.9,40,309.9,40z" />
        <path class="st13" d="M315.5,9c2.3,6.1,1.2,12.8,1.8,19.3c0.3,1.9,0.4,3.8,0.1,5.7c-0.6,3.1-3,5.5-5.6,7.3s-5.5,2.9-8.2,4.6
				c-1,0.8-2.3,1.4-3.6,1.6c-1.6,0-3.1-0.7-4.2-1.8c-1.3-1.1-2.6-2.3-3.7-3.6c-1.5-1.5-2.8-3.2-3.7-5.1c-2-4.5-0.7-9.6-1-14.5
				c-0.1-2.3-0.7-4.6-0.8-6.9c-0.2-2.3,0.3-4.6,1.5-6.6c1.3-1.5,2.9-2.7,4.8-3.4c2.5-1.1,5.1-2,7.8-2.6c2.4-0.6,4.8-0.7,7.2-0.4
				c2.4,0.4,4.6,1.7,6.1,3.7c0.3,0.4,1.2,1.8,1.1,2.3L315.5,9z" />
        <path class="st14" d="M320,20.6c0.5-3.1,0.4-6.2-0.1-9.3c-0.5-2.9-2.2-5.4-4-7.7c-0.6-0.9-1.6-1.6-2.6-2
				c-0.7-0.1-1.4-0.2-2.1-0.1c-4.7,0-9.5-2.5-13.9-1c-3.4,1.1-5.9,4.4-9.4,5.4c0.4,0.6,0.9,1,1.6,1.3c-1.7,0.5-2.8,2.9-3,4.7
				c-0.4,4.3,0.6,7.4,1.2,11.7c0.5-4.2,0.8-6.1,1.3-10.3c3.9,0.8,7.9,1.3,11.9,1.2c4.5-0.3,9-0.9,13.5-1.9c0,0,1,2.7,1.2,4.2
				c0.5,2.2,1.1,6.6,1.6,8.9c0.2,0.9,0.3-0.3,1.2-0.1c0.1-0.9,0.1-1.8,0-2.7c0-0.9,0.7-2,1.6-1.9L320,20.6z" />
        <path class="st13"
          d="M317.9,22c0.3-0.8,0.9-1.4,1.7-1.7c1.1-0.2,2.1,0.2,2.7,1.1c0.8,2-0.6,3.8-0.4,4.5c0.2,0.5,0.2,1.1,0.1,1.7
				c-0.5,2.1-2,2.5-4.3,2.5c-0.4,0-0.5-0.3-0.6-0.6c-0.1-0.2-0.2-0.4-0.1-0.6c0-2,0.4-4,1.1-5.8C318,22.8,318,22.4,317.9,22z" />
        <path class="st15" d="M321.4,25.1c0.1-0.4,0.1-0.9,0-1.4c0-0.5-0.2-1-0.6-1.4c-0.4-0.4-1-0.4-1.4-0.1c-0.4,0.4-0.3,1.1-0.6,1.6
				c-0.2,0.2-0.3,0.4-0.4,0.5c-0.1,0.3,0.1,0.6,0.3,0.8c0.2,0.2,0.5,0.3,0.8,0.4c0.1,0,0.2,0.1,0.2,0.2c0,0.1,0,0.2-0.1,0.3
				c-0.3,0.5-0.9,0.9-1.1,1.4c-0.1,0.2-0.1,0.4,0,0.5c0.1,0.1,0.3,0.1,0.4,0c1.1-0.3,1.9-1.4,1.9-2.5l-0.6,1
				c-0.1,0.2-0.3,0.5-0.6,0.5l0.3-0.6c0.2-0.2,0.2-0.5,0.2-0.8c-0.1-0.4-0.6-0.5-0.8-0.8c-0.2-0.2-0.3-0.6-0.2-0.9
				c0.1-0.3,0.2-0.6,0.4-0.8c0.1-0.1,0.2-0.2,0.3-0.3c0.3-0.1,0.5,0,0.7,0.2c0.1,0.2,0.2,0.5,0.3,0.7
				C321.1,24.2,321.3,24.7,321.4,25.1L321.4,25.1z" />
        <path class="st16" d="M317.8,21.9c-0.4-1.3-1.9-2.2-3.2-2.5c-2.1-0.5-4.3-0.6-6.5-0.3c-1.8,0.2-3.5,0.8-5.2,1
				c-4.3,0.5-8.7-0.8-13-0.4c-1,0-2,0.4-2.8,1c-0.5,0.4-0.7,1.1-0.3,1.7c0.1,0.1,0.3,0.2,0.4,0.3c0.5,0.6,0.9,1.3,1.1,2.1
				c0.5,1.7,1.3,3.2,2.2,4.7c0.2,0.4,0.6,0.8,1,1c0.5,0.2,1,0.2,1.5,0.2l2.9-0.1c0.7,0,1.3-0.1,1.9-0.4c0.7-0.5,1.2-1.2,1.4-2.1
				c0.3-1,0.5-1.6,0.7-2.6c0.1-0.6,0.3-2.2,0.8-2.5c0.5-0.4,1.3-0.4,1.8,0c0.5,0.4,0.7,1.5,0.9,2.1c0.8,1.8,1.3,3.9,3,4.9
				c0.9,0.5,2,0.7,3,0.7c1.2,0,2.4-0.1,3.6-0.2c0.5-0.1,1-0.2,1.4-0.5c0.6-0.4,1-1,1.2-1.7c0.5-1.2,0.9-2.5,1.2-3.8
				c0-0.1,0.4,1.1,0.6,1.1c0.2-0.8,0.5-1.7,0.8-2.5C318.2,22.8,317.8,22.1,317.8,21.9z" />
        <path class="st17" d="M315.7,22.4c0.3,1.7-0.1,3.5-1.1,5c-0.8,1.2-0.4,1-1.5,1.7c-1.2,0.3-2.3,0.4-3.5,0.4
				c-1.2,0.1-2.4-0.2-3.4-0.7c-0.7-0.5-1.3-1.3-1.6-2.1c-0.6-1-0.9-2.1-1-3.3c0-0.5,0.2-1.1,0.5-1.5c0.4-0.4,0.8-0.7,1.3-0.9
				c0.8-0.3,1.7-0.5,2.6-0.5c1.7,0,3.3,0.1,5,0.3C314,20.8,315.5,21.6,315.7,22.4z" />
        <path class="st17" d="M298.8,22c0.2,0.4,0.3,0.7,0.3,1.1c0,0.7,0,1.4-0.2,2.1c-0.2,0.9-0.5,1.8-1,2.7c-0.2,0.5-0.6,1-1.1,1.3
				c-0.6,0.2-1.2,0.3-1.8,0.4c-1,0.3-2.1,0.2-3.1-0.3c-0.6-0.5-1.1-1.1-1.4-1.8c-0.5-1.2-0.9-2.5-1-3.9c-0.1-0.5-0.1-1,0.1-1.5
				c0.4-0.4,0.8-0.7,1.2-1c0.4-0.2,0.9-0.3,1.3-0.4c1.7-0.1,3.5-0.1,5.2,0.2C297.9,21.1,298.5,21.5,298.8,22z" />
        <path class="st18" d="M300.3,26.7c-0.4,1.2-0.5,2.5-0.4,3.8c0.1,0.5,0.6,1,1.1,1.1c0.8,0.1,1.6,0,2.3-0.2c-0.4,0.5-1,0.9-1.6,1
				c-1,0.3-2.1-0.3-2.4-1.3c-0.1-0.3-0.1-0.6,0-0.9C299.4,29,299.7,27.8,300.3,26.7L300.3,26.7z" />
        <path class="st19" d="M317.6,29.8c0.1,3-0.3,6-1.2,8.8c-0.4,0.7-0.9,1.3-1.5,1.8c-0.6,0.7-1.3,1.2-2.1,1.6
				c-0.4,0.2-0.9,0.2-1.3,0.4c-0.4,0.2-0.8,0.5-1.2,0.9c-1.1,0.9-2.2,1.7-3.4,2.5c-1.5,1-3.1,1.8-4.8,2.3c-1.7,0.5-3.6,0.1-5.1-0.9
				c-0.6-0.6-1.2-1.2-1.7-1.9c-1.7-2-3.9-3.4-5.7-5.2c-0.5-0.5-0.9-1-1.2-1.6c-0.2-0.7-0.4-1.4-0.5-2.1c-0.9-3.1-0.3-7.2-0.4-8.5
				c0-0.2,0.9,9.8,4.8,11.5c2.4,1.1,4,4.2,6.5,4.9c0.2-0.3,0.3-0.5,0.4-0.8c0.1-0.3,0.5-0.5,0.8-0.4c0.5,0.1,0.5,0.7,0.8,1.1
				c0.4,0.5,1.2,0.5,1.8,0.4c0.7-0.1,1.5-0.3,2.2-0.6c1.3-0.7,2.4-1.8,3-3.2c0.7-1.3,1.7-1.8,2.5-3c1.9-2.7,4.8-5.4,5.8-8.6
				c0.2-1.2,0.6-2.4,1.1-3.4L317.6,29.8z" />
        <path class="st19" d="M309.6,35.6c-0.1-0.7-0.5-1.3-1-1.7c-0.5-0.3-1-0.5-1.5-0.5c-0.9-0.3-1.8-0.3-2.7,0
				c-0.4,0.2-2.8,1.9-4.2,2.2s-4.8-3-6.5-2c-1.1,0.7-0.9,1.9-0.8,2.5c-0.1-0.7,0.3-1.4,1-1.6c0.6,0,1.1,0.1,1.6,0.5
				c2.7,1.3,4.5,1.3,7.6,0.8c1.4-0.3,2.8-0.8,4.1-1.5c0.8-0.5,2.1,0.4,2.5,1.6C309.6,35.8,309.6,35.7,309.6,35.6z" />
        <path class="st20" d="M307.6,35.6c-8.2,3.5-13.1,0.5-13.8,0.4c1,0.9,1.4,2.3,2.5,3.1c1.1,0.7,2.5,1.1,3.8,0.9
				c1.3-0.1,2.5-0.4,3.7-0.8c1.1-0.6,2-1.4,2.7-2.4C307,36.4,307.3,36.1,307.6,35.6L307.6,35.6z" />
        <path class="st19" d="M291.1,24.8c0.3,1.7,1.9,2.8,3.6,2.4c1.3-0.3,2.3-1.3,2.5-2.6c-0.3-1.7-1.9-2.8-3.6-2.4
				C292.3,22.5,291.3,23.5,291.1,24.8z" />
        <path class="st20" d="M291.1,24.8c0,1.3,1.4,2.3,3.1,2.3s3-1.1,3-2.4s-1.4-2.3-3.1-2.3S291.1,23.5,291.1,24.8z" />
        <path class="st21" d="M295.5,26c0,0.3-0.1,0.9-0.3,1c-0.6,0.2-1.4,0.2-2,0c-0.2-0.1-0.4-0.5-0.4-0.8c-0.1-0.7,0.4-1.4,1.1-1.5
				c0.7-0.1,1.4,0.4,1.5,1.1C295.5,25.9,295.5,25.9,295.5,26L295.5,26z" />
        <path class="st20" d="M295,26.7c0,0.1,0.1,0.1,0.1,0.1c0,0,0,0,0,0c0.1,0,0.1,0,0.1-0.1c0,0,0,0,0,0c0-0.1,0-0.1-0.1-0.1
				c0,0,0,0,0,0C295,26.6,295,26.7,295,26.7z" />
        <path class="st21" d="M297.1,24.1c0,0,0-0.1-0.1-0.3c-0.1-0.3-0.2-0.5-0.4-0.7c-0.6-0.6-1.4-1-2.2-1.1c-0.5,0-0.9,0-1.4,0.2
				c-0.4,0.2-0.7,0.4-1,0.7c-0.2,0.3-0.5,0.6-0.6,0.9l0.2-0.2c0.2-0.2,0.4-0.4,0.6-0.5c0.6-0.5,1.4-0.7,2.1-0.6
				c0.8,0.1,1.5,0.3,2.1,0.8C296.7,23.5,297,23.8,297.1,24.1z" />
        <path class="st20" d="M294.6,25.6c0,0.3,0.3,0.6,0.6,0.5c0.3,0,0.6-0.3,0.5-0.6s-0.3-0.6-0.6-0.5C294.8,25,294.6,25.3,294.6,25.6
				C294.6,25.6,294.6,25.6,294.6,25.6z" />
        <path class="st19" d="M305.3,24.8c0.3,1.7,1.9,2.8,3.6,2.5c1.3-0.2,2.3-1.3,2.5-2.6c-0.3-1.7-1.9-2.8-3.6-2.5
				C306.5,22.4,305.5,23.5,305.3,24.8z" />
        <path class="st20" d="M305.3,24.8c0,1.3,1.4,2.4,3.1,2.3s3-1.1,3-2.5s-1.4-2.4-3.1-2.3S305.3,23.5,305.3,24.8z" />
        <path class="st21" d="M309.6,26c0,0.3-0.1,1-0.3,1c-0.6,0.2-1.4,0.2-2,0c-0.2-0.1-0.4-0.6-0.4-0.8c-0.1-0.7,0.4-1.4,1.2-1.5
				C308.9,24.6,309.6,25.2,309.6,26C309.6,26,309.6,26,309.6,26z" />
        <path class="st20" d="M309,26.9c0,0.1,0.1,0.1,0.2,0.1c0.1,0,0.1-0.1,0.1-0.2c0-0.1-0.1-0.1-0.2-0.1C309,26.7,309,26.8,309,26.9
				C309,26.9,309,26.9,309,26.9z" />
        <path class="st21" d="M311.2,23.9c-0.1-0.3-0.3-0.6-0.5-0.8c-0.6-0.6-1.4-1-2.3-1.1c-0.5,0-0.9,0-1.4,0.2c-0.4,0.2-0.7,0.4-1,0.7
				c-0.3,0.3-0.5,0.7-0.6,1c0-0.1,0.1-0.2,0.2-0.3c0.2-0.2,0.4-0.4,0.6-0.5c0.6-0.5,1.4-0.7,2.1-0.6c0.8,0.1,1.5,0.4,2.1,0.9
				C310.8,23.5,311,23.7,311.2,23.9z" />
        <path class="st20" d="M308.6,25.6c0,0.4,0.3,0.7,0.6,0.7s0.7-0.3,0.7-0.6c0,0,0-0.1,0-0.1c0-0.4-0.3-0.6-0.7-0.6
				C308.9,25,308.6,25.3,308.6,25.6z" />
        <path class="st22" d="M298.4,18.4c-1.4-0.4-2.9-0.6-4.4-0.6c-2.3,0.1-4.6,1.5-4.9,1.4s3.3-4.9,9.4-2.1
				C299,17.4,298.4,18.4,298.4,18.4z" />
        <path class="st22" d="M310.8,17.8c1.6,0.4,3.2,0.9,4.8,1.6c0.3,0.2-3.1-5.4-10.8-2.6c-0.8,0.3-0.4,1.2-0.1,1.4
				c0.5,0.2,3.5-0.3,4.8-0.5C309.9,17.6,310.3,17.7,310.8,17.8z" />
        <path class="st8" d="M172.9,115.3h-23.2c0.7,13.3,10.3-23.2,4.6-17.7c-3.8,3.7,17.4-3.7,21.2,0
				C178.6,100.4,168.5,125.4,172.9,115.3z" />
        <rect x="74.7" y="115.3" class="st23" width="284.2" height="8.1" />
        <rect x="91.6" y="123.2" class="st24" width="257.6" height="8" />
        <rect x="96" y="130.8" class="st25" width="245.6" height="84.4" />
        <rect x="97" y="131.2" class="st26" width="245.5" height="5.2" />
        <polygon class="st0" points="201.8,101.1 124.4,101.6 131.2,55.5 207.1,46.1 			" />
        <g>
          <polygon class="st27" points="198.9,97.8 127.2,99 133,57.4 203.4,49.8 				" />
          <polyline class="st28" points="137.2,60.6 132.6,94.1 193.9,92.4 				" />
          <polyline class="st29" points="135,89.5 139.4,87.3 142.5,88.8 149.1,84.9 155,85.1 161.8,80 166.9,81.4 171.8,70.3 174.9,70.3
					177.8,62.9 181.9,57.9 186.5,59.8 195.9,56 				" />
          <polyline class="st30"
            points="135.1,91.8 142,91.1 147.2,91.9 156.4,87.3 164.4,88.6 176.1,79.1 182.9,79 194.7,69.6 				" />
        </g>
        <rect x="143.3" y="113.2" width="36.2" height="2.1" />
        <rect x="210" y="99" class="st31" width="8.5" height="1.1" />
        <path class="st32" d="M213.5,80.2l-0.9,0.1l-0.2-1.9c0-0.1,0-0.1,0.1-0.2l0.1-0.1h0.4c0.1,0,0.2,0.1,0.2,0.2c0,0,0,0,0,0
				L213.5,80.2z" />
        <path class="st33" d="M214.3,81.2l-2.3,0.2l-0.2-1.7c0-0.1,0-0.1,0.1-0.2c0.1-0.1,0.1-0.1,0.2-0.1l1.7-0.2c0.1,0,0.2,0,0.2,0.1
				c0.1,0.1,0.1,0.1,0.1,0.2L214.3,81.2z" />
        <path class="st3"
          d="M212.9,79.2l1-0.1c0.1,0,0.2,0,0.2,0.1c0.1,0.1,0.1,0.1,0.1,0.2l0.2,1.7l-1.3-0.3L212.9,79.2z" />
        <polygon class="st33" points="213.6,97.2 211.9,80.2 214.2,80 215.9,97 			" />
        <polygon class="st3" points="214.7,97.1 212.9,80.1 214.2,80 215.9,97 			" />
        <polygon class="st34" points="214.2,80.1 214.2,79.8 211.6,80.1 211.6,80.1 211.5,80.1 211.4,80.3 211.9,84.8 212.1,84.8
				212.4,84.7 212.2,83.7 212,83.4 211.7,80.5 211.7,80.4 211.9,80.3 			" />
        <polygon class="st3" points="218.1,78.6 216.9,78.5 215.2,94.6 216.3,94.7 			" />
        <polygon class="st35" points="217.5,78.6 216.9,78.5 215.2,94.6 215.8,94.6 			" />
        <path class="st3" d="M218.3,74.6c0-0.1-0.6-0.2-0.7-0.1l-0.9,5.1l1.3,0.1l-0.4,3.5l0,0c0,0,0,0,0.2-0.7s0.5-2.9,0.5-3.2
				C218.4,77.8,218.2,76.5,218.3,74.6z" />
        <polygon class="st36" points="218.1,79.5 216.6,79.4 216.6,79.7 218,79.8 			" />
        <polygon class="st37" points="209.8,80.7 211.7,93.4 213,93.3 211.1,80.5 210.4,80.3 			" />
        <polygon class="st38" points="209.8,80.7 211.7,93.4 212.4,93.4 210.4,80.2 			" />
        <path class="st39" d="M211.1,80.5l-1.1-3l-0.2,3.1c0.1,0.1,0.2,0.3,0.3,0.3s0-0.5,0.4-0.5s0.3,0.4,0.5,0.4S211.1,80.5,211.1,80.5
				z" />
        <path class="st40" d="M210,77.6l-0.2,3.1c0.1,0.1,0.2,0.3,0.3,0.3s0-0.5,0.4-0.5l0,0L210,77.6z" />
        <polygon class="st41" points="210.3,78.4 210,77.6 209.9,78.5 			" />
        <path class="st42" d="M219.3,85.8v12.8c0,0.5-0.3,0.9-0.8,1H210c-0.5-0.1-0.9-0.5-0.8-1V85.8H219.3z" />
        <rect x="209.1" y="85.8" class="st43" width="10.2" height="1.4" />
        <rect x="214.2" y="85.8" class="st44" width="5.1" height="1.4" />
        <path class="st45" d="M220.4,103.9c0.4,0,0.8,0.4,0.7,0.8v4.3c0,0.4-0.3,0.8-0.7,0.8H194c-0.4,0-0.8-0.4-0.7-0.8v-4.3
				c0-0.4,0.3-0.8,0.7-0.8H220.4z" />
        <path class="st46" d="M220.5,100.1c0.3,0,0.6,0.2,0.6,0.6v2.8c0,0.3-0.3,0.6-0.6,0.6h-23.4c-0.3,0-0.6-0.2-0.6-0.6v-2.8
				c0-0.3,0.3-0.6,0.6-0.6H220.5z" />
        <rect x="194.6" y="103.9" class="st47" width="0.6" height="6" />
        <rect x="195.4" y="103.9" class="st47" width="0.6" height="6" />
        <rect x="196.3" y="103.9" class="st47" width="0.6" height="6" />
        <rect x="218.5" y="105.3" class="st47" width="0.6" height="3.2" />
        <rect x="219.4" y="105.3" class="st47" width="0.6" height="3.2" />
        <path class="st48" d="M221.8,110c0.4,0,0.8,0.3,0.8,0.8v4c0,0.4-0.4,0.8-0.8,0.8h-29.2c-0.4,0-0.8-0.3-0.8-0.8c0,0,0,0,0,0v-4
				c0-0.4,0.4-0.8,0.8-0.8c0,0,0,0,0,0H221.8z" />
        <rect x="216.4" y="110" class="st49" width="1.3" height="5.5" />
        <rect x="218.3" y="110" class="st49" width="1.3" height="5.5" />
        <rect x="198.3" y="101.2" class="st50" width="2.6" height="2.1" />
        <rect x="212.2" y="101.2" class="st50" width="7.1" height="2.1" />
        <path class="st51" d="M219.3,98.5V87.1h-5.1v12.5h4.3C219,99.5,219.4,99,219.3,98.5z" />
        <path class="st52" d="M130.1,200.3c1.5,2.3,3.6,4.1,6.2,5.1c-3.7,4.3-8.8,8.4-14.2,9.9c-1.9-2.6-3.1-5.7-3.4-8.9
				C122.4,204.3,126.3,202.4,130.1,200.3z" />
        <path class="st53" d="M157.9,202c-1.6-1.8-2.9-2.4-5.3-2c-1.9,0.3-4.6,2-6.5,2.6c-3.7,1.1-8.3,1.5-12.3,0.2c-0.1,1,0,1.7,0,2.7
				c-4.4,4.3-8.4,6.7-14.5,6.2c0.1,3.9,0.6,7.4,2.6,8.9C135.2,217.2,147.5,210.8,157.9,202z" />
        <path class="st54" d="M158.5,201.4c-5.4,4.6-11.4,8.6-17.7,11.9c-6.3,3.3-12.9,5.8-19.7,7.6l1.5,3.7l12.2-4.3l-0.9-1.9
				c11.6-4.8,19.7-10.4,25.4-15.8L158.5,201.4z" />
        <path class="st55" d="M119.3,211.7c6.1,0.4,10.1-1.9,14.5-6.2c0.6-0.6,1-1.3,1.8-1.7c1.1-0.4,2.3-0.5,3.5-0.3
				c1,0,1.9-0.1,2.9-0.2c0.7-0.2,1.4,0,2,0.4c1.2,0.8,0.8,2.3,0.7,3.5" />
        <g class="st56">
          <path class="st57" d="M144.7,207.1c-2,1.8-4.3,3.2-6.9,4c-1.5,0.3-3,0.9-4.3,1.8c-1.2,1-1.6,2.7-1,4.1" />
          <path class="st57" d="M132.9,206.3c1,0.3,2.1,0.5,3.1,0.7c0.9,0.1,1.8,0.2,2.7,0.1c0.4-0.1,0.9,0,1.2,0.2
					c0.2,0.3,0.4,0.6,0.4,0.9c0.1,0.6,0.1,1.3,0.1,1.9" />
        </g>
        <line class="st58" x1="137" y1="202.8" x2="136.9" y2="205.3" />
        <line class="st58" x1="142.3" y1="202.5" x2="142.6" y2="205.2" />
        <line class="st58" x1="139.6" y1="202.6" x2="139.8" y2="205.4" />
        <path class="st59" d="M62.7,112.6c8.1,0.9,13.6-4,21.6-2.9c0.6,0.1-0.8-4-1.6-4c-2.7-0.1-12.5-2.2-14-2
				c-1.2,0.1-11.8-2.8-12.9-2.1C53.7,103.1,62.2,112.7,62.7,112.6z" />
        <path class="st59"
          d="M87.9,94.4c-1.4,2.1-1.1,10.1-1.1,10.1l-4.1,1.3l0.4,3.4l1.1,0.6c0,0,7.6-0.9,9.3-2.6
				c0.6-0.6,1.1-3.2,1.1-3.2l2.1,0.8l-1.1,2c-0.1,0.4-0.2,0.7-0.1,1.1c0.1,0.2,0.9,0.6,0.9,0.6s1.4,0.2,1.7-0.1
				c0.5-0.5,0.3-2.6,0.3-2.6l0.2-1.6l-3.6-2.7l3.7,1.6l1,0.8l-0.2,2l0.7,1.2c0.5,0.4,1.2,0.4,1.7,0c0.1-0.1,0-0.6,0-0.6l0.3-3
				l-1-1.9l-3.2-1.4l-1.5-0.5l1.9-0.8l1.4,1.4l1.3,0.8c0,0,0.8,0.6,1.4,0.1c0.1-0.5,0.2-0.9,0.1-1.4l-1.6-2.4l-1.7-1.4l-2.1,0.6
				l-2.4,1.3l-1.7,0.9l-1,0.7l-1.7-1c-0.3-0.3-0.5-0.6-0.7-1c-0.2-0.6,0-1.2,0.5-1.7c0.9-0.4,1.9-0.8,2.9-1.1
				c0.7-0.1,1.5-0.3,2.2-0.5c0.3-0.2,1-0.9,0.9-1.2c-0.2-0.6-1.8-1.1-2.4-1c-1,0.2-1.9,0.5-2.8,0.9C91,92.7,88.4,93.7,87.9,94.4z" />
        <path class="st60" d="M48.4,106.7c-0.2,0.4,4,6.6,4.1,7c0.2,1.6,6.6,2.1,8.2,1.8c7.8-1.5,15.7-1.9,23.6-2.2
				c0.8-0.1,1.6,0,2.4,0.2c0.5,0.2,2.2,0,2.7,0.2c2.2,0.9,4.4-5.4-1-5.2c-8.5,0.2-16.9-0.8-25.4-1.2c-1.6-0.1-6.3-3.6-7-2.1
				L48.4,106.7z" />
        <path class="st60"
          d="M90.4,97.4c-1.5,2.3-1.4,8.7-0.7,11.2c0.3,1.1-3,0.6-3,0.6l0.2,3.7l4.1,1.1c0,0,5.6-2.1,6.8-3.6
				c0.6-0.7,0.8-3.5,0.8-3.5l2.3,0.6l-1,2.2c-0.1,0.4-0.1,0.8,0,1.2c0.3,0.3,0.6,0.5,1,0.5c0.4,0.1,1.5,0.1,1.8-0.3
				c0.4-0.6,0-2.8,0-2.8v-1.7l-4.1-2.4l4.1,1.3l1.1,0.7c-0.1,0.7-0.1,1.4,0,2.1c0.1,0.5,0.4,0.9,0.8,1.2c0.6,0.2,1.3,0.1,1.8-0.2
				c0.2-0.4,0.3-0.9,0.3-1.3c0-0.8-0.1-1.7-0.3-2.5c-0.3-0.7-0.8-1.3-1.3-1.9l-3.6-1.1l-1.6-0.4l2-1.1l1.6,1.3l1.5,0.7
				c0.4,0.3,1,0.3,1.5,0c0.6-0.5,0-1.5,0-1.5l-2-2.3l-2-1.3l-2.1,0.9l-2.4,1.6l-1.7,1.1l-1.5,0.6l-1.3-0.6l-1-1.4
				c-0.1-0.5,0.1-1.1,0.6-1.4c0.9-0.6,1.9-1.1,2.9-1.5l2.3-0.8l0.8-1.4L96.4,94l-2.9,1.3C93.5,95.3,90.9,96.6,90.4,97.4z" />
        <path class="st61"
          d="M43.8,61c-0.2-3-8.9-8.2-8.9-8.2l2.7,9.6c0,0,2.8,1.8,3.9,1.7C42.7,63.5,43.6,62.4,43.8,61z" />
        <path class="st20" d="M43,60c-0.7,1.7-1.7,3.4-2.8,4.8c-1.6-1-3-2.3-4.2-3.8c-0.6-1-1-2-1.3-3.1c-0.3-0.7-0.4-1.5-0.5-2.2
				c0.1-1.3,0.4-2.6,1-3.7c1.3,3.7,4.3,6.5,8.1,7.5c-0.2,0.2-0.4,0.5-0.5,0.7L43,60z" />
        <path class="st60"
          d="M42.8,36c1.9,1.2,4.6,5.8,2.6,12.4c-0.7,2.4,4.5,4.8,4.6,8.1c0.1,0.6-0.3,1.1-0.8,1.4
				c-1.2,0.8-2,0.6-4.3,0.2c-0.8-0.1-0.4,2.6-1.1,2.9c-1.7,0.8-6.5-0.6-7.4-4.5c0.8,4.2,1.1,6,5.1,7.5c0.3,0.9-0.7,1.7-1.6,1.9
				s-2.2,2.6-2.4,4.8c-0.1,1-1.9,0.3-2.8-0.3c-1.8-1.6-3.5-3.3-5.1-5.2c0,0-3.4,6.1-3.5,7.6c-2.8-2.5-9.5,0.8-12.3-1.6l6.8-18.1
				c-3.4-1.1-3-4.4-2.9-8c-0.1-2.1,0.5-4.2,1.7-6c1.6-2.1,4.1-3.2,6.6-4.1c2.1-0.9,4.2-1.6,6.4-1.9C36,32.7,42.8,36,42.8,36z" />
        <path class="st62" d="M18.9,25.5c0.2-3.3,4.4-4.4,7.7-4.6c-1.5,1.8-4,2-4.7,4.2c2.8-1.7,6.1-2.6,9.5-2.5
				c-0.8,0.7-1.3,1.5-1.6,2.5c3.7-1.4,7.8-1.6,11.7-0.6c3.9,1.1,7,4.1,8.2,7.9c1.1,3.8-0.3,9.8-3.6,11.9c0.1-1.2-0.2-3.2-1.5-6.2
				c-0.5,1.5-1,2.2-1.6,3.8c-2.8-0.6-5.6,0.1-7.8,1.9l4-5.1c-4.8,3-9.9,6.3-12.3,11.5c0.1-3-0.1-6.8-2.8-8.2
				c-0.4-0.2-0.8-0.3-1.2-0.3c-0.6,0.2-1.2,0.7-1.4,1.3c-1.9,3.7-0.9,8.2,2.3,10.8c-1.2,1.1-1.9,2.7-1.9,4.3
				c-0.4-0.7-0.9-1.5-1.3-2.2c-0.1,0.7-0.5,1.4-1.1,1.9c0.3-1,0.3-2-0.1-3c-4.6-0.2-8.2-3.8-8.5-8.4c0.1,0.4-0.5,0.6-0.8,0.3
				c-0.3-0.3-0.4-0.6-0.3-1c-0.1-3.6-0.2-7.3,0.7-10.8s3.2-6.8,6.6-8.1l-5.7,1.6c1.6-2.5,4.6-3.8,7.5-3.4L18.9,25.5z" />
        <path class="st59" d="M41.7,55.3c0,0,0.2,0.2,0.3,0.5l0.2,0.3c0,0.1,0.1,0.1,0.2,0.2c0.1,0.2,0.3,0.3,0.5,0.3
				c0.2,0.1,0.5,0.1,0.7,0.1c0.2,0.1,0.4,0.2,0.6,0.4c0.1,0.2,0.2,0.4,0.2,0.6c-0.1-0.2-0.2-0.3-0.4-0.4c-0.1-0.1-0.3-0.2-0.5-0.2
				c-0.2,0-0.5,0-0.7-0.1c-0.3-0.1-0.5-0.3-0.7-0.5c-0.1-0.1-0.1-0.2-0.2-0.3c0-0.1-0.1-0.2-0.1-0.3C41.8,55.7,41.7,55.5,41.7,55.3z
				" />
        <path class="st59" d="M40.8,44.4c0.4,0.1,0.8,0.2,1.1,0.3c0.4,1.3,0.2,4.7-2.3,4.6c-1.6-0.3-3-1-4.1-2.2
				C35.8,46,38.7,44.1,40.8,44.4z" />
        <path class="st59" d="M24.4,50.7c-0.4-0.3-0.8-0.7-0.9-1.2c-0.1-0.3-0.1-0.5-0.1-0.8c0-0.3,0-0.5-0.1-0.8c0-0.1-0.1-0.3-0.1-0.4
				c-0.1-0.2-0.1-0.4-0.1-0.6c-0.1-0.3,0-0.7,0.1-1c0.1-0.1,0.1-0.1,0.2-0.1c0.5,0.1,0.7,0.7,0.9,1.4c0.1,0.2,0.1,0.5,0.2,0.7
				L24.3,48c-0.4,0.4-0.3,2.4,0.1,2.6L24.4,50.7z" />
        <path class="st20" d="M35.6,47.2c1.2-1.7,3.2-2.7,5.3-2.4c0.3,0,0.6,0.1,0.9,0.2c0.4,1.2,0.1,4.2-2,4.1
				C38.2,49.1,35.6,47.2,35.6,47.2z" />
        <path class="st59" d="M40,65.7c-0.4,0.2-0.7,0.5-0.9,0.9c-0.7-1-1.2-2.2-1.5-3.3C38.3,64.2,39.1,65,40,65.7z" />
        <path class="st63" d="M41.9,47.3c-0.4,1.2-1,2-1.5,1.8s-0.6-1.2-0.2-2.4s1-2,1.5-1.8S42.3,46.2,41.9,47.3z" />
        <path class="st20" d="M41.2,46.2c0,0.3-0.2,0.5-0.5,0.5c-0.3,0-0.5-0.2-0.5-0.5c0-0.3,0.2-0.5,0.5-0.5c0,0,0,0,0,0
				C40.9,45.7,41.2,45.9,41.2,46.2z" />
        <path class="st20" d="M40.8,47.3c0,0.1-0.1,0.2-0.2,0.2c0,0,0,0,0,0c-0.1,0-0.2,0-0.2-0.1c0-0.1,0-0.2,0.1-0.2c0,0,0.1,0,0.1,0
				C40.7,47.2,40.7,47.2,40.8,47.3C40.7,47.3,40.8,47.3,40.8,47.3z" />
        <path class="st64" d="M22.4,85.7c-0.9,4.3-0.4,9.6,2.7,11.7c4.3,2.8,23.2,13.8,28.7,15.2c0,0,3.4-0.1,8-12.6
				c0,0-15-9.4-27.7-15.5C29.5,82.3,23.3,81.4,22.4,85.7z" />
        <path class="st52" d="M138.2,180.6c2.3,1.5,5,2.2,7.8,1.9c-1.5,5.5-4.3,11.4-8.6,15c-2.8-1.5-5.2-3.8-6.9-6.5
				C133,187.6,135.6,184.1,138.2,180.6z" />
        <path class="st53" d="M164.1,170.3c-2.2-0.9-3.6-1-5.7,0.4c-1.6,1.1-3.3,3.8-4.8,5.1c-3.1,2.8-6.9,4.7-11,5.4
				c0.4,1,0.8,1.5,1.1,2.5c-2.1,5.8-4.8,9.6-10.5,11.8c1.7,3.5,3.7,6.4,6.2,7C149.9,193.7,158.3,182.7,164.1,170.3z" />
        <path class="st54" d="M164.4,169.5c-2.9,6.5-6.6,12.6-10.9,18.3c-4.3,5.6-9.2,10.8-14.6,15.3l2.9,2.7l9.2-9.1l-1.6-1.3
				c8.4-9.2,13.4-17.8,16.3-25.2L164.4,169.5z" />
        <path class="st55" d="M133.3,195.5c5.7-2.2,8.4-6,10.5-11.8c0.2-0.8,0.5-1.6,0.9-2.3c0.8-1,1.9-1.3,3-1.8
				c0.9-0.4,1.7-0.9,2.5-1.4c0.6-0.4,1.3-0.6,2-0.4c1.4,0.2,1.7,1.7,2.1,2.9" />
        <g class="st56">
          <path class="st57" d="M154.3,180.6c-1,2.5-2.6,4.8-4.5,6.6c-1.2,1-2.3,2.1-3.2,3.5c-0.6,1.4-0.3,3.1,0.9,4.2" />
          <path class="st57" d="M143.3,184.9c1-0.2,2.1-0.4,3.1-0.7c0.9-0.3,1.7-0.6,2.5-1.1c0.3-0.3,0.8-0.4,1.2-0.3
					c0.3,0.1,0.6,0.4,0.7,0.7c0.4,0.5,0.7,1.1,0.9,1.7" />
        </g>
        <line class="st58" x1="145.5" y1="179.9" x2="146.5" y2="182.3" />
        <line class="st58" x1="150.2" y1="177.4" x2="151.6" y2="179.8" />
        <line class="st58" x1="147.8" y1="178.6" x2="149.2" y2="181.1" />
        <path class="st65" d="M76.7,155.4c-0.2,0,18.8,5.5,18.8,5.5c8.7,9.6,12.2,26.8,17.4,39.4c3.1,7.4,4.4,9.9,4.7,9.8
				c3.3-0.9,15.7-17.8,15.2-18.2l-36.6-41.2L76.7,155.4z" />
        <path class="st66" d="M115.6,207.2c1,2.2,1.6,3.5,1.8,3.4c2.6-1.1,16.9-11.1,19.8-15.3c-1.7-0.6-4.9-2.1-4.9-2.1
				S116.3,206.9,115.6,207.2z" />
        <path class="st67" d="M29.1,140.3c0.5,2.8,1.7,7.7,6.5,10.5s60.2,5.9,60.2,5.9s19.8,26.5,31.6,36.4c2.8,2.4,3.1,2.5,3.2,2.3
				c0.5-1,12.1-17.1,11-17.6c-3.6-1.8-27.1-23.4-32.6-28.5c-5-4.7-6.3-6.8-14.3-7.9c-8.3-1.2-39.7-5.5-41.8-5.6
				C50.4,135.5,29.1,140.3,29.1,140.3z" />
        <path class="st68" d="M39.6,140c0.1,0.1,0.2,0.1,0.2,0.2c3.7,3.1,8.1,5.3,12.8,6.2c4,0.4,7.9,0.5,11.9,0.4
				c9.4-0.1,21.2-0.1,29,2.6c12,4.2,41.7,36.3,41.8,36.4l-0.7,0.6c-0.1-0.1-29.7-32-41.4-36.1c-7.6-2.6-19.4-2.6-28.7-2.5
				c-4,0.1-8,0-12-0.4c-4.9-1-9.5-3.2-13.2-6.4l-0.2-0.2L39.6,140z" />
        <path class="st69" d="M123,191.6c2.1,1.7,2.3,1.8,2.4,1.6c0.5-1,11.4-16.2,10.4-16.6c-0.5-0.3-1-0.6-1.4-1
				c-1.5,2.5-5.8,9.4-7.9,12C125.1,189.3,123.8,190.7,123,191.6z" />
        <path class="st70" d="M26.2,72.9c-3.4-3.5-9.4-4.6-10.5-4.8c-1.6-0.3-2.1-0.8-2.9-0.5c-0.2,0.1-0.3,0.4-1.3,1.3
				c-0.1,0.1,1.3,0.1,0.9,0.7c-0.8,1.1-3.6,3.6-4.1,7.2c-0.7,5.2,0.9,6.9,2.1,17.7c1.8,15.6,7,35.9,14.7,46.7s4.5,11.1,5.2,9.8
				s7.5-6.1,12.9-7.7s23-6.7,23-6.7S59.7,130,54,123.5c-7.5-8.4-6-27.7-16.5-35.8C33.7,84.9,27.1,73.8,26.2,72.9z" />
        <rect x="51" y="161.2" class="st71" width="5.3" height="28.4" />
        <rect x="53.7" y="161.2" class="st72" width="2.7" height="28.4" />
        <path class="st3" d="M49.5,185.6h8.4v19l19.5,3.3c1.3,0.1,2.3,1.1,2.4,2.4c0.1,1.3-0.9,2.4-2.2,2.4c-0.1,0-0.2,0-0.2,0l-21.2-3.6
				h-4.9L30,212.8c-1.3,0.1-2.4-0.9-2.4-2.2c0-0.1,0-0.2,0-0.2c0.1-1.3,1.1-2.3,2.4-2.4l19.5-3.3L49.5,185.6z" />
        <path class="st3" d="M29.7,216.2c1.8,0,3.3-1.5,3.3-3.3c0-1.8-1.5-3.3-3.3-3.3c-1.8,0-3.3,1.5-3.3,3.3l0,0
				C26.5,214.7,27.9,216.2,29.7,216.2z" />
        <path class="st3" d="M77.3,216.2c1.8,0,3.3-1.5,3.3-3.3c0-1.8-1.5-3.3-3.3-3.3c-1.8,0-3.3,1.5-3.3,3.3l0,0
				C74,214.7,75.5,216.2,77.3,216.2z" />
        <path class="st3" d="M53.5,216.2c1.8,0,3.3-1.5,3.3-3.3s-1.5-3.3-3.3-3.3s-3.3,1.5-3.3,3.3l0,0C50.3,214.7,51.8,216.2,53.5,216.2
				z" />
        <path class="st42" d="M35.2,162h41.5c1.7-0.1,3.2,1.2,3.3,3c0.1,1.7-1.2,3.2-3,3.3c-0.1,0-0.2,0-0.4,0H35.2
				c-1.7,0.1-3.2-1.2-3.3-3c-0.1-1.7,1.2-3.2,3-3.3C35,162,35.1,162,35.2,162z" />
        <path class="st70" d="M24,84.6c-1.6,4.1-1.9,9.6,1.1,12c4,3.4,21.9,17.1,27.3,19.2c0,0,3.5,0.4,10-11.4c0,0-14.1-11.5-26.3-19.4
				c-2.3-1.5-4.9-2.5-7.6-2.9C26.4,82,24.7,82.7,24,84.6z" />
        <path class="st73" d="M22.9,88.4c-0.4,3.2,0.1,6.3,2.1,8c4,3.4,21.9,17.1,27.3,19.2c0,0,3.5,0.4,10-11.4c0,0-4.9,7.6-7.7,8.3
				S29.2,98,26,94.3S22.9,88.6,22.9,88.4z" />
        <path class="st3" d="M7,72.9c-19.8-14.2,8.1,68.4,13,83.8c3.6,11.3,64.1,8.2,69.7,7.2c2.7-0.5,4.5-4,1.2-7.8
				c-2.9-3.4-44.2-2.4-50.7-4.3s-7-0.4-14-17.5S12.7,100,10.4,88S7,72.9,7,72.9z" />
        <path class="st2" d="M3.3,71.2c-11.9-0.3,12.2,71.2,16.7,85.4c3.6,11.3,64.1,8.2,69.7,7.2c1.4-0.3,2.6-1.3,2.9-2.8
				c-3.1-4.2-26.3,0.7-38.9-0.6s-25.9-3.6-27.2-5.4C15.4,139.8,6.2,90.6,3.3,71.2z" />
        <path class="st3" d="M61.9,156.4c1.4-6.8,1.1-24.8-6.7-32c-9-8.3-30.3-6.2-41.3-6.7l0.5,7.2c16.3-0.3,46.1-6.5,41.4,31.1
				L61.9,156.4z" />
        <polygon class="st73" points="12.5,69.6 19.1,71.2 22.8,72.9 27.6,74.8 28.7,76.6 20.7,72.6 17.7,71.6 			" />
        <rect x="172.8" y="160.1" class="st74" width="61.2" height="61.7" />
        <polygon class="st75" points="189.7,160.1 195,160.1 195,146.9 189.7,152.3 			" />
        <polygon class="st75" points="217.1,160.1 211.7,160.1 211.7,146.9 217.1,152.3 			" />
        <rect x="195" y="146.9" class="st76" width="16.7" height="5.4" />
      </g>
    </g>
  </g>
  <g>
  </g>
</svg>