<?xml version="1.0" encoding="utf-8"?>
<!-- Generator: Adobe Illustrator 26.0.3, SVG Export Plug-In . SVG Version: 6.00 Build 0)  -->
<svg version="1.1" id="Слой_1" xmlns="http://www.w3.org/2000/svg" xmlns:xlink="http://www.w3.org/1999/xlink" x="0px" y="0px"
	 viewBox="0 0 389.8 239.5" style="enable-background:new 0 0 389.8 239.5;" xml:space="preserve">
<style type="text/css">
	.st0{fill:#868486;}
	.st1{fill:#757272;}
	.st2{fill:#848484;}
	.st3{fill:#3BB177;}
	.st4{fill:#A5B3B7;}
	.st5{fill:#2A935C;}
	.st6{fill:#90D6AF;}
	.st7{fill:#FFFFFF;}
	.st8{fill:#8EA5AD;}
	.st9{opacity:0.42;fill:#465F66;enable-background:new    ;}
	.st10{fill:#C0C7C9;}
	.st11{fill:#88A7BA;}
	.st12{fill:#6690AB;}
	.st13{fill:#5D7687;}
	.st14{fill:#EF910A;}
	.st15{fill:#FFB72A;}
	.st16{opacity:0.5;fill:#B75004;enable-background:new    ;}
	.st17{fill:#FFC255;}
	.st18{fill:#484442;}
	.st19{fill:#484B4B;}
	.st20{fill-rule:evenodd;clip-rule:evenodd;fill:#484B4B;}
	.st21{fill:#ECECEC;}
	.st22{fill:#889DAB;}
	.st23{fill-rule:evenodd;clip-rule:evenodd;fill:#AEAEB0;}
	.st24{fill-rule:evenodd;clip-rule:evenodd;fill:#C2C2C5;}
	.st25{fill-rule:evenodd;clip-rule:evenodd;fill:#999999;}
	.st26{fill-rule:evenodd;clip-rule:evenodd;fill:#757272;}
	.st27{fill-rule:evenodd;clip-rule:evenodd;fill:#484442;}
	.st28{fill:#5E5B5D;}
	.st29{fill:url(#SVGID_1_);}
	.st30{fill-rule:evenodd;clip-rule:evenodd;fill:#B9B7AD;}
	.st31{fill-rule:evenodd;clip-rule:evenodd;fill:#D3D2CC;}
	.st32{fill-rule:evenodd;clip-rule:evenodd;fill:#FFFFFF;}
	.st33{fill-rule:evenodd;clip-rule:evenodd;fill:#CCCCCC;}
	.st34{fill:#1190C7;}
	.st35{fill-rule:evenodd;clip-rule:evenodd;fill:#1190C7;}
	.st36{fill:#E5E5E4;}
	.st37{fill:#4B8CCA;}
	.st38{fill-rule:evenodd;clip-rule:evenodd;fill:#4B8CCA;}
	.st39{fill-rule:evenodd;clip-rule:evenodd;fill:#E1AE8B;}
	.st40{fill-rule:evenodd;clip-rule:evenodd;fill:#F1CCAE;}
	.st41{fill-rule:evenodd;clip-rule:evenodd;fill:#545453;}
	.st42{fill-rule:evenodd;clip-rule:evenodd;fill:#422611;}
	.st43{fill-rule:evenodd;clip-rule:evenodd;fill:#36231C;}
	.st44{fill-rule:evenodd;clip-rule:evenodd;fill:#E6E6E6;}
	.st45{fill-rule:evenodd;clip-rule:evenodd;fill:#3A3A38;}
	.st46{fill-rule:evenodd;clip-rule:evenodd;fill:#110F0A;}
	.st47{fill-rule:evenodd;clip-rule:evenodd;fill:#E5E3E1;}
	.st48{fill-rule:evenodd;clip-rule:evenodd;fill:#3B2416;}
	.st49{fill-rule:evenodd;clip-rule:evenodd;fill:#C9A488;}
	.st50{fill-rule:evenodd;clip-rule:evenodd;fill:#6D4428;}
	.st51{fill-rule:evenodd;clip-rule:evenodd;fill:#030505;}
	.st52{fill-rule:evenodd;clip-rule:evenodd;fill:#E5E5E3;}
	.st53{fill-rule:evenodd;clip-rule:evenodd;fill:#F8D7C9;}
	.st54{fill-rule:evenodd;clip-rule:evenodd;fill:#6D6D6D;}
	.st55{fill:#6D6D6D;}
	.st56{fill-rule:evenodd;clip-rule:evenodd;fill:#6D6E70;}
	.st57{fill:#202C30;}
	.st58{fill-rule:evenodd;clip-rule:evenodd;fill:#F3C3B0;}
	.st59{fill-rule:evenodd;clip-rule:evenodd;fill:#E7BBA7;}
	.st60{fill-rule:evenodd;clip-rule:evenodd;fill:#CE8246;}
	.st61{fill:#35454C;}
	.st62{fill-rule:evenodd;clip-rule:evenodd;fill:#B56215;}
	.st63{fill-rule:evenodd;clip-rule:evenodd;fill:#464747;}
	.st64{fill-rule:evenodd;clip-rule:evenodd;fill:#333435;}
	.st65{fill-rule:evenodd;clip-rule:evenodd;fill:#4B5D67;}
	.st66{fill-rule:evenodd;clip-rule:evenodd;fill:#35454C;}
	.st67{fill:#4B5D67;}
	.st68{fill-rule:evenodd;clip-rule:evenodd;fill:#FFA822;}
	.st69{fill-rule:evenodd;clip-rule:evenodd;fill:#4B5964;}
	.st70{opacity:0.22;fill-rule:evenodd;clip-rule:evenodd;fill:#592500;enable-background:new    ;}
	.st71{fill-rule:evenodd;clip-rule:evenodd;fill:#984907;}
	.st72{fill-rule:evenodd;clip-rule:evenodd;fill:#D7A679;}
	.st73{fill-rule:evenodd;clip-rule:evenodd;fill:#E0A980;}
	.st74{fill-rule:evenodd;clip-rule:evenodd;fill:#ECF3EC;}
	.st75{fill-rule:evenodd;clip-rule:evenodd;fill:#E5AE82;}
	.st76{fill-rule:evenodd;clip-rule:evenodd;fill:#EEAB7E;}
	.st77{fill-rule:evenodd;clip-rule:evenodd;fill:#4F2D18;}
	.st78{fill-rule:evenodd;clip-rule:evenodd;fill:#FCFCFC;}
	.st79{fill-rule:evenodd;clip-rule:evenodd;fill:#462D1A;}
	.st80{fill-rule:evenodd;clip-rule:evenodd;fill:#2F94AB;}
	.st81{fill-rule:evenodd;clip-rule:evenodd;}
	.st82{fill-rule:evenodd;clip-rule:evenodd;fill:#795438;}
	.st83{fill-rule:evenodd;clip-rule:evenodd;fill:#ECBEA9;}
	.st84{fill-rule:evenodd;clip-rule:evenodd;fill:#57595B;}
	.st85{fill-rule:evenodd;clip-rule:evenodd;fill:#425259;}
	.st86{fill-rule:evenodd;clip-rule:evenodd;fill:#5D6E7B;}
	.st87{fill-rule:evenodd;clip-rule:evenodd;fill:#C20500;}
	.st88{opacity:0.44;fill:url(#SVGID_00000130637321069090087120000008022534523392322183_);enable-background:new    ;}
	.st89{fill:#016896;}
	.st90{fill:#0C8EC0;}
	.st91{fill:#14AADF;}
	.st92{fill:#D7EBE6;}
	.st93{opacity:0.22;fill:#016896;enable-background:new    ;}
</style>
<g id="Слой_2_00000132800668851072332470000017413208982111109516_">
	<g id="Экран_01">
		<g id="_04">
			<rect x="184.9" y="128.4" class="st0" width="202" height="7"/>
			<rect x="189.8" y="134.8" class="st1" width="193.4" height="7.2"/>
			<rect x="197.5" y="141.9" class="st2" width="178.2" height="72.1"/>
			<g>
				<circle class="st3" cx="367.9" cy="200.7" r="21.9"/>
				<circle class="st4" cx="367.9" cy="200.7" r="18"/>

					<ellipse transform="matrix(0.2178 -0.976 0.976 0.2178 91.9058 516.0729)" class="st5" cx="367.9" cy="200.7" rx="18" ry="18.1"/>
				<circle class="st6" cx="367.9" cy="200.7" r="16.6"/>
				<g>
					<path class="st7" d="M365.6,200.9c0.5-0.7,1.1-1.5,2-2.3c0.6-0.5,1-1,1.2-1.3c0.3-0.3,0.4-0.7,0.4-1.1c0-0.5-0.2-0.9-0.6-1.2
						c-0.4-0.3-1-0.4-1.6-0.4c-0.7,0-1.4,0.2-2,0.6c-0.6,0.4-1.1,1-1.5,1.7l-6-3c0.9-1.7,2.2-3,4-4c1.8-1,3.9-1.4,6.5-1.4
						c2.7,0,5,0.6,6.7,1.7c1.7,1.1,2.6,2.7,2.6,4.7c0,0.9-0.2,1.8-0.5,2.5c-0.3,0.7-0.7,1.3-1.2,1.8c-0.4,0.5-1,1-1.7,1.6
						c-0.7,0.6-1.2,1.1-1.5,1.5c-0.3,0.4-0.5,0.8-0.5,1.3h-6.9C364.9,202.5,365.2,201.6,365.6,200.9z M365.2,211.8
						c-0.8-0.8-1.2-1.7-1.2-2.9c0-1.1,0.4-2.1,1.2-2.8c0.8-0.8,1.9-1.1,3.2-1.1s2.4,0.4,3.2,1.1c0.8,0.8,1.2,1.7,1.2,2.8
						c0,1.1-0.4,2.1-1.2,2.9c-0.8,0.8-1.9,1.2-3.2,1.2S366,212.5,365.2,211.8z"/>
				</g>
			</g>
			<g>
				<circle class="st8" cx="333.6" cy="200.7" r="21.9"/>
				<circle class="st4" cx="333.6" cy="200.7" r="18"/>

					<ellipse transform="matrix(0.2178 -0.976 0.976 0.2178 65.0607 482.5768)" class="st9" cx="333.6" cy="200.7" rx="18" ry="18.1"/>
				<circle class="st10" cx="333.6" cy="200.7" r="16.6"/>
				<path class="st11" d="M325,200.7l8.7-13.6l8.7,13.6l-8.7,4.9L325,200.7z"/>
				<path class="st12" d="M333.6,187.1l8.7,13.6l-8.7,4.9V187.1z"/>
				<path class="st11" d="M325,202.5l8.7,5l8.7-5l-8.7,11.8L325,202.5z"/>
				<path class="st12" d="M333.6,207.5l8.7-5l-8.7,11.8V207.5z M325,200.7l8.7-3.7l8.7,3.7l-8.7,4.9L325,200.7z"/>
				<path class="st13" d="M333.6,197l8.7,3.7l-8.7,4.9V197z"/>
			</g>
			<g>
				<circle class="st14" cx="299.2" cy="200.7" r="21.9"/>
				<circle class="st15" cx="299.2" cy="200.7" r="18"/>

					<ellipse transform="matrix(0.2178 -0.976 0.976 0.2178 38.1184 448.9451)" class="st16" cx="299.1" cy="200.7" rx="18" ry="18.1"/>
				<circle class="st17" cx="299.2" cy="200.7" r="16.6"/>
				<path class="st14" d="M308.5,201.5c-0.7-0.8-1.7-1.4-2.8-1.6c1.5-0.7,2.4-2.4,2.1-4.1c-0.1-0.6-0.2-1.3-0.6-1.8
					c-0.3-0.5-0.8-0.9-1.3-1.2c-0.6-0.3-1.2-0.6-1.8-0.7c-0.7-0.2-1.5-0.3-2.2-0.4v-4h-2.4v3.9h-1.9v-3.9h-2.4v4h-4.9v2.6h1.8
					c0.7-0.1,1.3,0.4,1.4,1.1v4.5l0,0v6.4c0,0.5-0.4,0.8-0.9,0.8c0,0,0,0,0,0h-1.8l-0.5,2.9h4.9v4h2.4v-4h1.9v4h2.4v-4
					c0.8,0,1.5-0.1,2.3-0.2c0.7-0.1,1.3-0.3,1.9-0.6c0.6-0.2,1.1-0.5,1.5-0.9c0.4-0.4,0.8-0.9,1-1.4c0.3-0.6,0.5-1.3,0.5-2
					C309.3,203.6,309.1,202.5,308.5,201.5z M297.6,194.4h1.5c0.3,0,0.6,0,0.9,0c0.3,0,0.7,0.1,1,0.1c0.3,0.1,0.6,0.2,0.9,0.3
					c0.3,0.1,0.5,0.3,0.8,0.4c0.2,0.2,0.4,0.4,0.5,0.7c0.1,0.3,0.2,0.6,0.2,0.9c0,0.3,0,0.6-0.1,0.8c-0.1,0.2-0.2,0.4-0.4,0.6
					c-0.2,0.2-0.4,0.3-0.6,0.4c-0.2,0.1-0.5,0.2-0.8,0.3l-0.8,0.2c-0.3,0-0.6,0.1-0.9,0.1h-0.8h-1.3L297.6,194.4L297.6,194.4z
					 M304.2,205.2c-0.1,0.2-0.2,0.4-0.4,0.6c-0.2,0.2-0.4,0.4-0.6,0.5c-0.2,0.1-0.5,0.2-0.8,0.3c-0.3,0.1-0.6,0.2-0.9,0.2
					c-0.3,0.1-0.6,0.1-0.9,0.1s-0.6,0-0.9,0.1h-0.8h-1.3v-5.3h0.8h1c0.3,0,0.6,0,1.1,0.1c0.4,0,0.8,0.1,1.2,0.1
					c0.3,0.1,0.7,0.2,1,0.3c0.3,0.1,0.6,0.3,0.9,0.5c0.2,0.2,0.4,0.5,0.6,0.7C304.4,204,304.4,204.6,304.2,205.2L304.2,205.2z"/>
			</g>
			<rect x="197.5" y="141.9" class="st18" width="178" height="4.1"/>
			<rect x="264.7" y="126.1" class="st19" width="27.8" height="2.2"/>
			<path class="st20" d="M275.9,126.1h1.1v-2.3h-0.9v2.3H275.9z M274.8,126.1v-2.3h0.9v2.3H274.8z"/>
			<path class="st20" d="M279.2,111.3l4-19.2l-2.2-0.5l-1.8,8.7v4.2l2.6-12.7l0.5,0.1l-3.2,15.2L279.2,111.3L279.2,111.3z
				 M275.2,119.6l4-19.2v4.2l-3.2,15.2l0.5,0.1l2.6-12.7v4.2l-1.8,8.7L275.2,119.6L275.2,119.6z"/>
			<path class="st20" d="M313.1,78.8l-0.8-2.1l-13.8,5.5v0.9l14.1-5.7l0.2,0.5l-14.3,5.7v0.9L313.1,78.8z M298.5,82.3v0.9L284.1,89
				l0.2,0.5l14.1-5.7v0.9l-13.8,5.5l-0.8-2.1L298.5,82.3L298.5,82.3z"/>
			<path class="st20" d="M309.5,70.5c0.7-0.4,1.4-0.7,2.2-0.9l2.9,3.6c3.3,0.1,6.3,1.9,8,4.7c-2.1,1.1-4.3,2.3-6.5,3.6
				s-4.3,2.7-6.2,4.1c-1.8-2.8-1.9-6.3-0.5-9.3l-1.8-4.2C308.2,71.4,308.9,70.9,309.5,70.5z"/>
			<path class="st20" d="M282.5,87.6c1.3,0,2.3,1,2.3,2.3c0,1.3-1,2.3-2.3,2.3v-0.5c0.5,0,1-0.2,1.3-0.6c0.7-0.8,0.7-1.9-0.1-2.7
				c-0.3-0.3-0.8-0.5-1.3-0.5V87.6z M280.8,88.3c-0.9,0.9-0.9,2.4,0,3.3c0,0,0,0,0,0c0.4,0.4,1,0.7,1.6,0.7v-0.5
				c-1,0-1.9-0.8-1.9-1.9c0-1,0.8-1.9,1.9-1.9v-0.5C281.8,87.6,281.2,87.9,280.8,88.3L280.8,88.3z"/>
			<path class="st20" d="M275.9,119.5c1.3,0,2.3,1,2.3,2.3c0,1.3-1,2.3-2.3,2.3l0,0v-0.5c1,0,1.9-0.8,1.9-1.9c0-1-0.8-1.9-1.9-1.9
				V119.5z M275.9,124.2v-0.5c-1,0-1.9-0.8-1.9-1.9c0-1,0.8-1.9,1.9-1.9v-0.5c-1.3,0-2.3,1-2.3,2.3
				C273.5,123.1,274.6,124.2,275.9,124.2z"/>
			<path class="st21" d="M301.3,88.3h57.8c1.6,0,2.9,1.2,2.9,2.8c0,0,0,0,0,0.1V123c0,1.6-1.3,2.9-2.9,2.9l0,0h-57.8
				c-1.6,0-2.9-1.3-2.9-2.9l0,0V91.2C298.4,89.6,299.7,88.4,301.3,88.3C301.3,88.3,301.3,88.3,301.3,88.3z"/>
			<rect x="301.3" y="91.2" class="st22" width="57.8" height="31.8"/>
			<path class="st23" d="M296.2,124.7h68c1,0,1.8,0.8,1.8,1.8c0,1-0.8,1.8-1.8,1.8h-68c-1,0-1.8-0.8-1.8-1.8
				S295.2,124.7,296.2,124.7z"/>
			<path class="st24" d="M294.4,126.5H366v-1.4c0-0.2-0.2-0.4-0.4-0.4h-70.8c-0.2,0-0.4,0.2-0.4,0.4l0,0L294.4,126.5z"/>
			<path class="st25" d="M322.7,124.7h15l0,0c0,0.2-0.2,0.4-0.4,0.4h-14.3C322.9,125.1,322.7,124.9,322.7,124.7L322.7,124.7
				L322.7,124.7z"/>
			<path class="st26" d="M330.2,90.3c0.3,0,0.6-0.3,0.6-0.6c0-0.3-0.3-0.6-0.6-0.6c-0.3,0-0.6,0.3-0.6,0.6
				C329.6,90.1,329.9,90.3,330.2,90.3C330.2,90.3,330.2,90.3,330.2,90.3z"/>
			<path class="st27" d="M330.2,90.1c0.2,0,0.3-0.1,0.3-0.3c0-0.2-0.1-0.3-0.3-0.3c-0.2,0-0.3,0.1-0.3,0.3
				C329.9,89.9,330,90.1,330.2,90.1z"/>
			<rect x="301.3" y="91.2" class="st28" width="57.8" height="31.8"/>

				<linearGradient id="SVGID_1_" gradientUnits="userSpaceOnUse" x1="330.19" y1="151.03" x2="330.19" y2="119.81" gradientTransform="matrix(1 0 0 -1 0 242)">
				<stop  offset="0" style="stop-color:#9746DF"/>
				<stop  offset="1" style="stop-color:#2074FB"/>
			</linearGradient>
			<rect x="301.4" y="91.4" class="st29" width="57.6" height="31.5"/>
			<path class="st7" d="M338.8,107.1c0.3,0.1,0.6-0.1,0.7,0.3s-0.3,0.5-0.5,0.6c-0.3,0.1-0.5,0.3-0.6,0.6c-0.3,0.8-1,1.4-1.9,1.5
				c-1,0.2-2.1-0.3-2.6-1.2c-0.1-0.2-0.2-0.4-0.6-0.3c-0.2,0.1-0.4,0-0.4-0.2c0,0,0,0,0-0.1c0-0.2,0-0.5,0.2-0.5s0.4-0.3,0.5-0.7
				c0.1-0.9,0.8-1.7,1.7-1.9c0.9-0.3,1.8,0,2.4,0.6c0.3,0.3,0.4,0.6,0.9,0.4S339.2,106.6,338.8,107.1z M334.5,107.3
				c0.2,0.1,0.3-0.1,0.4-0.1c0.3-0.1,0.5-0.1,0.6,0.2s-0.1,0.5-0.4,0.6s-0.3,0.1-0.5,0.2s-0.2,0.1-0.1,0.3c0.3,0.5,0.8,0.9,1.4,0.9
				c0.5,0.1,1-0.2,1.3-0.6c-0.3,0.1-0.5,0.2-0.7,0.2s-0.5,0.1-0.6-0.2s0.1-0.5,0.3-0.6s0.8-0.3,1.2-0.4c0.2,0,0.3-0.2,0.3-0.3
				c0,0,0-0.1,0-0.1c-0.2-0.7-0.8-1.3-1.6-1.3C335.3,106,334.6,106.5,334.5,107.3z M337.1,104.7c0,0.3,0.2,0.5,0.5,0.6
				c0,0,0.1,0,0.1,0c0.4,0,0.5-0.2,0.5-0.6s-0.2-0.5-0.5-0.4S337,104.3,337.1,104.7z"/>
			<path class="st7" d="M341.5,107.1c0,0.8,0,1.6,0,2.3c0,0.3-0.2,0.3-0.4,0.3s-0.5,0-0.5-0.3c0-1.1,0-2.2,0-3.2
				c0-0.2-0.1-0.5,0.2-0.5s0.5-0.1,0.8,0.2c0.5,0.7,1,1.3,1.5,1.9l0.4,0.4c0-0.8,0-1.5,0-2.1c0-0.3,0.1-0.4,0.4-0.4s0.4,0.1,0.4,0.4
				c0,1,0,2.1,0,3.1c0,0.2,0.1,0.4-0.1,0.5c-0.3,0.1-0.6,0-0.8-0.2C342.8,108.7,342.2,108,341.5,107.1z M311.8,109.4
				c0,0.3,0.1,0.3,0.3,0.3c0.5,0,0.6-0.1,0.6-0.6c0-0.2,0-0.4,0-0.7c0-0.2-0.1-0.4,0.1-0.4c0.2-0.1,0.4,0,0.6,0.2
				c0.2,0.4,0.5,0.7,0.8,1.1c0.2,0.3,0.5,0.4,0.8,0.4c0.3,0,0.4-0.1,0.2-0.4s-0.5-0.7-0.8-1.1c-0.1-0.2-0.2-0.2,0.1-0.4
				c0.5-0.3,0.8-0.9,0.6-1.5c-0.3-0.5-0.7-0.8-1.3-0.8c-0.5,0-1,0-1.6,0c-0.3,0-0.4,0.1-0.4,0.4c0,0.6,0,1.1,0,1.7
				S311.8,108.8,311.8,109.4z M312.7,106.4c0-0.1,0.1-0.1,0.2-0.1c0.3,0,0.6,0,0.9,0.1c0.2,0,0.4,0.2,0.4,0.5c0,0.3-0.2,0.5-0.5,0.5
				c-0.1,0-0.3,0-0.4,0c-0.3,0-0.6-0.2-0.7-0.6C312.6,106.7,312.6,106.5,312.7,106.4z M353,108.8c0.2,0.2,0.2,0.4,0.3,0.6
				c0.2,0.5,0.6,0.3,0.9,0.2s0-0.3,0-0.5c-0.4-1.1-0.9-2.2-1.3-3.2c-0.1-0.2-0.2-0.3-0.5-0.3s-0.5-0.2-0.7,0.2
				c-0.5,1.3-1,2.5-1.6,3.8c0.4,0,0.9,0.1,1-0.3s0.5-0.6,0.9-0.6C352.3,108.8,352.6,108.8,353,108.8C353,108.8,353,108.8,353,108.8z
				 M351.6,108.1c0.1-0.5,0.3-1,0.5-1.5l0.6,1.5H351.6z M323.6,109.3c0,0.4,0.2,0.4,0.5,0.4s0.4-0.2,0.4-0.4c0-1.1,0-1.1,1.1-1.2
				c0.6,0,1.2-0.5,1.2-1.1c0,0,0-0.1,0-0.1c0-0.7-0.5-1.2-1.2-1.2c0,0,0,0-0.1,0c-0.5,0-1.1,0-1.6,0c-0.3,0-0.4,0.1-0.4,0.3
				c0,0.6,0,1.1,0,1.6S323.7,108.7,323.6,109.3L323.6,109.3z M324.5,106.9c0-0.4,0.1-0.6,0.6-0.6c0.2,0,0.4,0,0.5,0.1
				c0.3,0.1,0.3,0.3,0.3,0.6c0,0.2-0.2,0.4-0.4,0.4c-0.2,0-0.3,0-0.5,0C324.6,107.5,324.5,107.3,324.5,106.9L324.5,106.9z
				 M308.5,109c-0.7,0.1-1.4-0.4-1.5-1c0-0.1,0-0.2,0-0.3c0-1,0.8-1.4,1.9-1.2c0.1,0,0.4,0.3,0.5-0.1c0-0.2,0.1-0.6-0.3-0.7
				c-0.9-0.2-1.8,0-2.5,0.6c-0.5,0.7-0.6,1.7-0.2,2.5c0.5,0.8,1.5,1.2,2.4,1c0.6-0.1,0.8-0.4,0.6-1C309,108.9,308.8,109,308.5,109z
				 M329,105.6c-0.2,0-0.4,0-0.4,0.3s0,0.5,0.4,0.5c0.2,0,0.4,0,0.6,0s0.4,0.1,0.4,0.4c0,0.9,0,1.7,0,2.6c0,0.4,0.2,0.3,0.5,0.3
				s0.4,0,0.4-0.3c0-0.6,0-1.3,0-1.9c0-1,0-1,1-1c0.3,0,0.4-0.2,0.4-0.4s-0.1-0.4-0.4-0.4c-0.5,0-0.9,0-1.4,0S329.5,105.7,329,105.6
				z M318,106.4c0.8,0.8,1.2,1.9,1,3c0,0.2,0,0.3,0.3,0.3s0.6-0.1,0.5-0.5c-0.1-0.9,0.1-1.8,0.8-2.4c0.3-0.3,0.5-0.7,0.7-1.1
				c-0.8-0.1-0.8-0.1-1.2,0.4l-0.1,0.1c-0.6,0.8-0.6,0.9-1.1,0c-0.3-0.5-0.6-0.8-1.4-0.6C317.7,105.9,317.8,106.1,318,106.4z
				 M347,109.6L347,109.6c0.7,0.3,0.9,0.2,0.9-0.4v-2.9c0-0.7-0.2-0.8-0.9-0.5c0,0,0,0,0,0.1l0,0v3.6V109.6z M347,105.9L347,105.9
				C347,105.8,347,105.8,347,105.9C347,105.8,346.9,105.8,347,105.9c-0.1,0-0.1,0-0.1,0H347z M353.1,108.9L353.1,108.9
				c0-0.1-0.1-0.1-0.1,0H353.1z M347,109.6L347,109.6L347,109.6C347,109.5,346.9,109.5,347,109.6c-0.1-0.1-0.1,0-0.1,0L347,109.6z"
				/>
			<polygon class="st30" points="322.8,131.5 314.9,133.7 335,141.3 348.6,128.4 			"/>
			<polygon class="st31" points="322.3,129.7 314.4,131.9 334.5,139.6 348.6,128.4 			"/>
			<polygon class="st32" points="322.3,128.4 314.4,130.6 334.5,138.2 348.6,128.4 			"/>
			<path class="st33" d="M291.5,117.9v-0.4c0-0.6-0.5-1.1-1.1-1.1h-7.7c-0.6,0-1.1,0.5-1.1,1.1v9.8c0,0.6,0.5,1.1,1.1,1.1h7.7
				c0.6,0,1.1-0.5,1.1-1.1v-3.1c1.2,0,2.3-1.4,2.3-3.2S292.8,117.9,291.5,117.9z M291.5,123.1v-4.2c0.8,0,1.4,0.9,1.4,2.1
				S292.3,123.1,291.5,123.1z"/>
			<rect x="315.4" y="77" transform="matrix(0.973 -0.2307 0.2307 0.973 -9.9588 75.7262)" class="st34" width="6.8" height="6.8"/>
			<polygon class="st35" points="315.7,78.8 322.4,77.2 322.6,78.1 315.9,79.7 			"/>
			<path class="st32" d="M320.3,82.1c0-0.1,0-0.2,0-0.2c0-0.1,0-0.1,0-0.2c0-0.1,0-0.1,0.1-0.1c0-0.1,0.1-0.1,0.1-0.2
				c0.1-0.1,0.2-0.2,0.3-0.4c0.1-0.1,0.1-0.2,0.1-0.4c0-0.1,0-0.3,0-0.4c0-0.1-0.1-0.3-0.2-0.4c-0.1-0.1-0.2-0.2-0.3-0.3
				c-0.1-0.1-0.2-0.1-0.3-0.1c-0.1,0-0.2,0-0.3,0h-0.3h-0.2c-0.1,0-0.2,0.1-0.3,0.1c-0.1,0.1-0.2,0.1-0.3,0.2
				c-0.1,0.1-0.2,0.2-0.2,0.3c-0.1,0.1-0.1,0.3-0.1,0.4c0,0.2,0,0.3,0,0.5l0.7-0.2l0,0c0-0.1,0-0.1,0-0.2c0-0.1,0-0.1,0-0.2
				c0-0.1,0.1-0.1,0.1-0.2c0.1-0.1,0.2-0.1,0.3-0.1c0.1,0,0.1,0,0.2,0c0.1,0,0.1,0,0.2,0c0.1,0,0.1,0.1,0.2,0.1
				c0.1,0.1,0.1,0.2,0.1,0.2c0,0.1,0,0.2,0,0.3c0,0.1-0.1,0.2-0.2,0.3c-0.1,0.1-0.2,0.2-0.2,0.3c-0.1,0.1-0.1,0.2-0.1,0.3
				c0,0.1,0,0.2,0,0.3c0,0.1,0,0.2,0.1,0.3L320.3,82.1L320.3,82.1z M320.5,82.4L320.5,82.4l-0.8,0.2l0.2,0.7l0.8-0.2L320.5,82.4z"/>

				<rect x="340.4" y="88" transform="matrix(8.963770e-02 -0.996 0.996 8.963770e-02 221.9688 425.7662)" class="st7" width="7" height="7"/>

				<rect x="343.6" y="85" transform="matrix(8.963770e-02 -0.996 0.996 8.963770e-02 225.1765 423.2991)" class="st36" width="1" height="7"/>

				<rect x="343.2" y="88.7" transform="matrix(8.976350e-02 -0.996 0.996 8.976350e-02 221.6368 425.2591)" class="st37" width="0.5" height="5.4"/>

				<rect x="343.2" y="89.7" transform="matrix(9.011109e-02 -0.9959 0.9959 9.011109e-02 220.4722 426.074)" class="st37" width="0.5" height="5.4"/>
			<polygon class="st38" points="340.6,92.9 346,93.4 346,93.9 340.6,93.4 			"/>

				<rect x="341.6" y="92.9" transform="matrix(9.011109e-02 -0.9959 0.9959 9.011109e-02 217.1847 426.261)" class="st37" width="0.5" height="2.7"/>
			<path class="st39" d="M51.3,32.1c-1.6-0.2-3.2-0.4-4.7-0.9c-0.4-0.2-1-0.2-1.4,0c-0.2,0.2-0.4,0.4-0.4,0.6
				c-0.1,0.8,0.4,1.6,1.1,2c0.8,0.3,1.6,0.5,2.4,0.5l2.3,0.1c0.1,0,0.3,0,0.4-0.1c0.1-0.1,0.1-0.3,0.1-0.5c-0.1-0.6,0-1.1,0.2-1.6
				L51.1,32L51.3,32.1z"/>
			<path class="st40" d="M52.4,26.9c-1.6-0.5-3.2-0.8-4.9-0.9c-0.6-0.1-1.3,0-1.8,0.2c-0.6,0.2-1,0.8-0.9,1.5c0.1,0.6,0.6,1,1.1,1.2
				c2.1,1,5,0.2,6.5,2.1c-0.9,0.2-1.8,0.6-2.6,1.1c-0.8,0.5-1.3,1.3-1.4,2.3c-0.1,0.5,0.2,0.9,0.7,1.1c0.4,0,0.7-0.1,1-0.4
				c1.2-0.9,2.6-1.5,4.1-1.6l-5.5,3c-0.4,0.1-0.7,0.4-0.9,0.8c-0.2,0.7,0.6,1.3,1.3,1.2c0.7-0.1,1.3-0.5,1.8-0.9
				c1.1-0.7,2.3-1.3,3.6-1.5c-2.1,0.7-4.1,1.9-5.7,3.5c-0.3,0.3-0.6,0.7-0.5,1.2c0.1,0.3,0.4,0.6,0.7,0.7c0.9,0.2,1.9,0,2.7-0.5
				c0.7-0.5,1.6-1,2.4-1.4c0.4,0.8,1.4,1.1,1.7,1.9c0.1,0.3,0.2,0.7,0.2,1c0.2,1.5,0.6,3,1.2,4.4c1.4-0.7,3.1-0.8,4.6-0.3L57.3,32
				c-0.1-0.5-0.4-1.1-0.7-1.5c-0.3-0.3-0.5-0.6-0.9-0.9C54.5,28.5,52.4,26.9,52.4,26.9z"/>
			<path class="st41" d="M38.1,83.5c7.1,1.8,14.4,2.5,21.7,2.2c1,0.1,2.1-0.2,3-0.7c1.4-1,1.6-3,1.6-4.8c0.1-10.4-1.1-34.8-1.3-34.8
				c-2.8,0.2-5.5,0.8-8.2,1.6c-0.3,9.4-0.5,18.9-0.7,28.3c0.1-0.5-0.4-0.9-0.9-1.1c-2.5-1.2-4.9-2.5-7.2-4c-2.3-1.4-4.7-2.8-7.1-4.2
				c-0.9-0.5-1.8-1.2-2.5-1.9l2,8.6L38.1,83.5z"/>
			<path class="st39" d="M16.6,38.2c0.2,1.4,1.9,7.7,2.2,9.3c0.3,1.8,0.4,3.7,0.4,5.6c0,2-0.5,3.3-0.4,5.3c0.1,2.5,2.4,10,4.2,10.5
				s3.5,2.5,5.4,3c0.8,0.2,5.4-7.2,4.3-7.1c-0.7,0,0.3-8.3,0.2-9.8c-2.8-1-4.2-3.3-6.8-5c-1.4-1-2.3-2.6-3.3-4s0.9-3.2,0.2-4.6
				c-0.2-0.5-5.4-2.2-5.5-2.8L16.6,38.2z"/>
			<path class="st40" d="M25.9,24.3c0-0.1-0.3-0.1-0.1-0.1c2.9-0.2,16.9,2.6,17.2,2.5c1.6-0.5,1.4,3.6,1.3,4.6
				c-0.3,1.8-0.5,3.1-0.7,5s0.8,3,0.7,5c-0.2,3.8-1.9,6.4-3.4,9.8c-0.4,1-1.5,2.3-1.5,3.4c-0.2,1-0.5,2-1.2,2.9
				c-1.1,1.6-3.4,1-4.9,0.5c-3.5-1.1-6.6-3.1-9.2-5.8c-2.9-3.1-3.7-5.2-2.9-9.3c-3,0.1-4.6-3.5-4.1-6.1c0.2-1.4,1.2-2.7,2.8-2.5
				s2.6,0.7,2.8,2.1c0.4-2.1,1.2-4,2.5-5.7c1.5-2.3-0.4-4.1,0.4-6.3L25.9,24.3z"/>
			<path class="st42" d="M41,19.7c-2.4-2.6-4.7-5.3-14.1-4.8c-1.1,0.1-1.1,1.3-2.1,1.3c-2.8,0-5-0.2-6.6,0.7s-3.6,3-5,4.5
				c-2,2.1-1.4,7.4-1.4,9.6c0,3.7,2.3,7.2,4.1,10.6c0.9,1.7,1.9,4.3,3.2,5.6c1.6-3.2-1.6-6.4-1.8-9.3C17.2,36,18,34.3,20,34.5
				c1.5,0.1,2.5,1.3,3.2,2.6V37c0.3-1.1,0.2-2.2,0.8-3.2c0.5-0.8,1.6-3.1,2.1-3.9c1.2-1.9,0.2-2.9-0.2-4.9c1.6,0.2,4.1-0.4,5.4,0.5
				s2-3.1,3.5-2s3.6,2.9,5.2,1.7c1.2-0.9,2.7,3,3.7,1.9C46,24.5,43.2,22,41,19.7z"/>
			<path class="st43" d="M27.5,34.8c1-0.9,2.3-1.3,3.7-1.4c1.2-0.1,4.7-0.5,5.5,0.4s-0.1,1.4-1,1.2s-1.5-0.8-2.3-1
				c-1.7-0.2-3.5,0.1-5.1,0.6c-0.4,0.2-0.9,0.4-1.2,0.7L27.5,34.8z"/>
			<path class="st43" d="M39.3,34.6c0.4-1,1.7-1.7,2.6-2.3c1.3-0.8,2-1.3,2.3,0.5c-0.6,0.5-1.8,0.3-2.6,0.5
				c-0.8,0.2-1.5,0.5-2.1,1.1L39.3,34.6z"/>
			<path class="st39" d="M20.4,39.4c0.6-0.3,1.2,0.5,1.5-0.2c0.2-0.5-0.4-1.4-0.7-1.8c-0.9-1.3-2.2-1.4-2.4,0.4
				c-0.2,1.2,0,3,1.2,3.7s0.9,0.1,0.7-0.6L20.4,39.4z"/>
			<path class="st39" d="M31.4,49.6c1.1,1.2,2.5,2.1,4.1,2.7c1.7,0.5,3.4,0.4,3.8-1.5c-1,0.9-3.2,0.4-4.3,0
				C34.3,50.5,31.5,50.2,31.4,49.6z"/>
			<path class="st39" d="M31.6,49.2c1,0.6,2.5,0.4,3.8,0.3c1.5,0,2.9,0.1,4.3,0.2c0,0.1,0,0.2,0.1,0.2c-1.4,0.7-3.2,0.2-4.7,0.2
				c-0.7,0.2-1.4,0.2-2.1,0C32.6,49.9,32.1,49.5,31.6,49.2z"/>
			<path class="st44" d="M10.5,62.6c2.4-0.7,7-3.2,8.3-5.3c-0.2,4.8,6.1,13.4,9.6,14.6c2.3-1.4,3.9-8.2,4.2-10.4
				c0.8,1.7,2.5,2.2,3.5,3.9c1,1.7,1.6,3.6,1.9,5.5C38.8,76.2,38,81.6,38,87c0,3.9,0.1,7.9,0.5,11.8c0.2,1.3,0.3,2.7,0.3,4
				c-0.1,1.8-0.7,3.5-1,5.3c-0.2,1.4-0.2,2.9,0.2,4.3c0.4,1.3,0.9,2.6,1.5,3.8c2.5,5.5,3.9,11.5,4.2,17.5c0.1,0.4,0,0.8-0.2,1.1
				c-0.3,0.3-0.7,0.4-1.1,0.4l-19.6,1.9c-1.4,0.2-2.8,0.2-4.1-0.1c-0.7-0.2-1.4-0.6-2.1-0.8c-1.3-0.3-2.6-0.3-3.9-0.1l-5.1,0.6
				c-1.1,0.1-2.4,0.4-3,1.4c-1.5-6.3,5.5-32.1,4.7-38.6c-0.7-5.1-9.2-27.8-5-32.9C6.1,64.9,8.2,63.5,10.5,62.6z"/>
			<path class="st45" d="M42.3,128.6c2.2,7,4.6,14.5,5.9,21.8c1.1,5.9,4.2,22.5,4.3,25.3c0,2.8-0.5,5.5-1.4,8.2
				c-2.3,8.4-5.8,33.6-6.1,33.6c-2.7,0.8-8.8,2.4-11.5-1.2c0,0,2.2-24.8,7.1-33.2c0.7-1.4,1-2.9,0.9-4.4c0-2.3-4.9-9.4-5.8-11.4
				c-3.2-7.6-6.8-21.6-7.1-21.7c-0.5-0.1-1.1,0-1.6,0.2c-2,0.9-2.3,11.8-2.3,18.3c0,9.9-0.1,17.8-2.1,22.9c-0.5,1.1-1.1,2.2-1.5,3.4
				c-0.6,1.9-0.9,3.8-0.9,5.7c-0.4,6-5.2,24.3-3.7,23c-6.9,5.6-9.2-1.8-9.2-1.8c2.4-14.7,2.3-36,0.8-50.8c-0.4-3.9-0.9-7.7-1.5-11.6
				c-1-7-1.4-14.3-2.7-21.2c6.4-0.3,13.2-1,19.6-1.3C29.7,132.2,37,131.8,42.3,128.6z"/>
			<path class="st46" d="M32,219.4c0.2-0.8,0.5-1.5,0.9-2.3c2.8,2.6,7,2.9,12.5,1.2l10.6,7.5c5.2,0.6,7.8,2.9,7.6,6.9
				c-5,1.4-10.3,1.4-15.3,0l-8.7-4.4v2.3l-8.9-2.8c0-1.3,0-2.7,0.2-4C31.2,222.3,31.5,220.8,32,219.4z"/>
			<path class="st46" d="M5.4,228.4l2.2-9.2c0.3,2.8,4.4,4,9.3,0.8l1.8,4.7l1.9,5.7c2.3,4.1,2.3,7.1,0,8.9
				c-6.2,0.8-10.6-1.1-13.1-5.8l-0.9-3.4L5.4,228.4z"/>
			<path class="st47" d="M28.3,38.6c0.4-0.6,1-1.1,1.5-1.5c0.7-0.4,1.4-0.7,2.2-0.7c1.6-0.1,2.7,1.3,3.3,2.5
				c0.1,0.1,0.1,0.3,0.2,0.4c-0.8,0.2-1.5,0.4-2.3,0.5c-0.9,0-1.7,0-2.5-0.1C29.8,39.8,28.9,39.3,28.3,38.6L28.3,38.6z"/>
			<path class="st48" d="M29.1,37.8c0.3-0.3,0.6-0.5,0.9-0.8c0.6-0.5,1.4-0.7,2.2-0.7c0.4,0,0.8,0.1,1.1,0.3
				c0.4,0.1,0.8,0.3,1.1,0.6c0.3,0.3,0.6,0.6,0.8,1c0.2,0.3,0.1,0.6,0.3,0.9c0,0.1,0.1,0.2,0.1,0.3c-0.5-0.5-0.7-1.4-1.3-1.9
				c-0.6-0.5-1.4-0.9-2.2-0.9c-0.7-0.1-1.3,0.1-1.9,0.5c-0.7,0.3-1.2,0.8-1.7,1.3L29.1,37.8z"/>
			<path class="st49" d="M28.6,38.9c0.2,0.2,0.5,0.4,0.8,0.6c0.3,0.1,0.7,0.3,1,0.3c0.7,0.2,4.5,0.4,5.2-0.4
				c-0.6,0.2-1.2,0.4-1.8,0.4c-1.1,0-2.2,0-3.3-0.2c-0.3-0.1-0.3-0.1-0.5-0.2c-0.3-0.1-0.6-0.2-0.8-0.3l-0.8-0.6L28.6,38.9z"/>
			<path class="st48" d="M34,38.1c0.1,0.9-0.5,1.6-1.4,1.7c-0.9,0.1-1.6-0.5-1.7-1.4c0,0,0-0.1,0-0.1c0-0.9,0.6-1.6,1.5-1.6
				C33.2,36.7,33.9,37.3,34,38.1z"/>
			<path class="st50" d="M34,38.1c0.1,0.8-0.6,1.5-1.4,1.6c-0.8,0.1-1.5-0.6-1.6-1.4s0.6-1.5,1.4-1.6C33.2,36.7,33.9,37.3,34,38.1z"
				/>
			<path class="st51" d="M34,38.1c0.1,0.6-0.4,1.2-1,1.3s-1.2-0.4-1.3-1s0.4-1.2,1-1.3c0,0,0,0,0.1,0C33.4,37.1,33.9,37.5,34,38.1z"
				/>
			<path class="st52" d="M32.5,38.4c0,0.3-0.2,0.6-0.5,0.6c0,0,0,0,0,0c-0.3,0-0.6-0.2-0.6-0.5c0-0.3,0.2-0.6,0.5-0.6
				C32.2,37.9,32.5,38.1,32.5,38.4z"/>
			<path class="st47" d="M38.5,38.8c0.3-0.4,0.4-1.3,0.8-1.7c0.5-0.3,1-0.5,1.6-0.6c1.2-0.2,1.8,0.7,2.3,1.6c0.1,0.2,0,0.5-0.1,0.7
				c-0.4,0.3-0.9,0.5-1.4,0.6c-0.5,0.1-1.1,0.1-1.6,0C39.7,39.3,39.1,39.1,38.5,38.8z"/>
			<path class="st48" d="M42.8,37.9c0,0.8-0.7,1.4-1.5,1.3c-0.8,0-1.4-0.7-1.3-1.5l0,0c0-0.8,0.7-1.4,1.5-1.3
				C42.2,36.5,42.8,37.1,42.8,37.9z"/>
			<path class="st50" d="M42.8,37.9c0,0.7-0.7,1.3-1.4,1.3s-1.3-0.7-1.3-1.4s0.7-1.3,1.4-1.3S42.8,37.2,42.8,37.9z"/>
			<path class="st49" d="M38.5,38.8l0.5,0.2c0.3,0.1,0.7,0.2,1,0.3c0.7,0.2,1.5,0.2,2.3-0.1c0.4-0.1,0.7-0.3,1-0.6
				c-0.3,0.5-0.8,0.8-1.4,0.9C40.7,39.7,39.5,39.5,38.5,38.8z"/>
			<path class="st48" d="M38.5,38.8c0.3-0.7,0.7-1.4,1.3-1.9c0.7-0.4,1.5-0.4,2.2-0.1c0.7,0.4,1.2,1,1.4,1.8c0-0.7-0.4-1.3-0.9-1.7
				c-0.6-0.5-1.4-0.6-2.1-0.5c-0.5,0.2-0.9,0.5-1.2,0.8L38.5,38.8z"/>
			<path class="st39" d="M39.4,34.5c-2,1.6-1,6.3-0.1,8.3c0.5,1,1.6,2.9-0.1,3.3c-0.9,0.2-1.9-0.8-2.8-0.7c-0.5,0-0.8,0-1,0.6
				c-0.3,1.1,1.4,0.7,2.1,0.9s1.7,0.3,2.2-0.1c1.1-0.9,0.3-3.2-0.2-4.2C38.6,40.5,37.4,36.4,39.4,34.5z"/>
			<path class="st42" d="M39.9,20.8c-2.8-1-1.9-4.7-12.5-2.5c-6,1.2-7.1,2.2-7.1-1.9c0-1.1-0.1-2.3-0.3-3.4c0,0-1.2,3.5-1.8,3.8
				l-5-4.1c0,0,3.9,6.1,2.9,5.1c-1.3-1.2-5-0.4-5-0.4s3.8,1.5,2.8,1.6c-2.1,0.1-4.5,5.2-4.5,5.2s3.9-2.8,5.4-2.6
				c1.9,0.2,6.6,4.5,6.6,4.5l6.3,5.1c0.9-0.6-0.8-3.5-0.8-3.5l3.7,3.5c0.9-0.5-0.9-4-0.9-4l4.2,4.5c0.9-0.5,0-3.7,0-3.7
				s5.3,3.1,5.3,3.7c0,0.8,1-2.9,1-2.9c1.4,0.7,2.7,1.6,3.9,2.6c1.2,1,0.7-4.2,0.7-4.2l4.8,1.3C50,28.8,52.4,25.3,39.9,20.8z"/>
			<path class="st42" d="M19.1,17.4c2.8-3.3,9-6.9,9-6.9l1.4,3.8c0.4-0.7,9.7-4.9,8.7-3.9c-0.3,0.4-3.5,4.2-3.4,4.2
				s10.9-3.5,8.7-1.9c-0.8,0.5-3.2,2.3-3.2,2.3c-2.4-0.4,9.7,1.6,7.1,2.2c-1.8,0.4-3.2,0.8-3.2,0.8s3.8,0.6,3.8,2l-3.8,0.5
				c0,0,3.5,0.7,3.4,1.8L44.7,23L19.1,17.4z"/>
			<path class="st51" d="M42.7,37.8c-0.1,0.5-0.7,0.9-1.2,0.8c-0.3-0.1-0.6-0.3-0.7-0.6c0.1-0.5,0.7-0.9,1.2-0.8
				C42.3,37.2,42.5,37.4,42.7,37.8z"/>
			<path class="st52" d="M41.4,38c0,0.3-0.2,0.5-0.4,0.5c-0.3,0-0.5-0.2-0.5-0.4s0.2-0.5,0.4-0.5c0,0,0,0,0,0
				C41.1,37.5,41.3,37.7,41.4,38C41.4,38,41.4,38,41.4,38z"/>
			<path class="st41" d="M30.7,85.1c0.6,2.7,1.8,8.6,2.2,11.3c0.9,5.3,1.5,10.7,2.2,16c1,7.4,4.5,21.7-1.3,28
				c-1.9,1.9-4.3,3.2-7,3.8c-5.1,1.1-10.6,0.1-15.6-0.5c-1.1-0.2-2.2-0.2-3.3-0.1c-1.9,0.3-3.6,0.6-5.5,1c-3.2-16.9,7.5-36.2,3-52.9
				C4.2,87.8,2,84.2,0.9,80.3c-1.1-3.4-1.1-7.1-0.1-10.6c1-3.3,4.8-5.2,7.8-6.5s6.2-2.5,8.9-4.4l1.1,3.4l4.5,6.8l4.5,6.8L30.7,85.1z
				"/>
			<path class="st41" d="M32.6,61.1c1.9,1.1,3.6,2.5,5.1,4.1c1.3,1.4,2.2,3.1,2.6,4.9c0.3,2.3-0.3,4.9-0.6,7.2
				c-0.1,1.1-0.2,2.2-0.3,3.3c-0.4,8-0.2,16,0.6,23.9c0.3,3.6,1,7.1,2.1,10.5c0.4,1.4,0.8,2.9,1.1,4.3c1.2,5,1.4,6.1,2.7,11.1
				c0.4,1.5,0.6,3.1,0.9,4.6c0.2,1,0.7,2.3,0.8,3.1c-1.5-0.1-3-0.6-4.4-1.4c-1.3-1-2.2-2.3-2.8-3.9c-1.3-3-1.1-4.2-1.5-7.4
				c-0.5-4-0.8-5.6-1-9.3l-1.5-21.1c-0.1-1-0.2-2-0.3-3c-0.1-1.8-0.1-3.7,0-5.5c0.2-3.9,0.2-7.9-0.2-11.8c-0.4-3.1-0.7-6.5-2.2-9.2
				l-1.4-2.6L32.6,61.1z"/>
			<path class="st53" d="M55.2,92.9c-0.5-0.5-0.6-1.3-0.3-1.9c0.3-0.6,0.6-1.2,1-1.8c0.5-1,0.8-2.1,0.7-3.2
				c-0.1-0.6-0.2-1.2-0.1-1.8c0-0.6,0.5-1.2,1.1-1.3c0.4,0,0.7,0.1,1,0.3c0.4,0.2,0.8,0.6,1,1c0.3,1-0.7,2.2-0.4,3.2
				c0.3,0.7,1.1,1.1,1.8,1c0.7-0.1,1.5-0.3,2.2-0.6c1.2-0.3,2.4-0.4,3.7-0.3c0.6,0,1.1,0.1,1.6,0.3c0.6,0.2,0.9,0.7,1,1.3
				c0,1-1.2,1.6-2.2,1.8c0.3,0.5,0.4,1,0.5,1.5c0.1,0.5-0.2,1-0.7,1.3c-0.3,0.1-0.6,0.2-0.8,0.3c-0.7,0.5-0.2,1.5-0.3,2.3
				c-0.2,1-0.9,1.8-1.8,2.1c-2,1-4.2,1-6.2,0.2c-0.5-0.3-1-0.5-1.5-0.6c-1.1-0.1-2.1,0.2-3,0.9c-0.3-1.8-0.9-3.6-1.8-5.2
				c1.3-0.2,2.7-0.5,3.9-0.9L55.2,92.9z"/>
			<path class="st54" d="M56.1,99.7c-1-2.4-1.7-4.8-2.2-7.3c-6.9,1.5-13.7,3.6-20.2,6.3L19.1,81.1c-1.6-2-8.4-13.9-10.4-15.6
				C5.8,63.2-4,69.5,3.2,81c4.3,5.7,8.9,11.2,13.7,16.5c1.8,2,3.8,3.9,5.9,5.5c2.8,2,10.5,8,12,8.2c0.7,0.1,1.4,0,2.1-0.3
				C44.2,108.9,56.1,99.7,56.1,99.7z"/>
			<path class="st54" d="M20.4,71.2c1.5,2.2,3,4.4,4.6,6.6c3.3,4.7,5.8,9.9,7.3,15.4c-0.3-2.9-0.8-5.8-1.3-8.6
				c-0.5-2.8-1.2-5.6-2.1-8.4c-0.8-2.4-1.9-4.7-3.3-6.8c-1.3-2.1-2.5-4.3-3.7-6.5c-1.6-2.7-2.6-5.8-2.8-9c0,2.1-2,3.6-2.9,5.3
				c-0.7,1.6-0.7,3.3,0,4.9c0.6,1.5,1.3,3,2.3,4.3l2.8-0.3L20.4,71.2z"/>
			<path class="st55" d="M36,67.2c1.3,4.2,1.7,8.6,1.3,13c-0.3,3.9-1.4,8-1.3,11.8c-0.1-4.4,0.2-9-0.4-13.4
				c-0.6-3.5-1.6-6.9-3.1-10.1l-0.8-1.8l-0.2-0.5c0.5-1.8,0.9-3.7,1.1-5.6c0.9,1.3,1.7,2.6,2.4,4L34.2,66L36,67.2z"/>
			<path class="st54" d="M22,118c0.1,1.5-0.1,4.2-1.5,5.2s-4.1,0.8-5.7,0.9c-1.1,0-2.1,0-3.1,0c-1.4,0.1-2.9-0.3-4.1-1
				c-0.4-0.2-0.7-0.6-0.8-1c-0.1-0.4-0.1-0.8,0-1.2l0.3-2.8c3.3-0.8,6.6-1.3,10-1.2C18.8,116.9,20.4,117.3,22,118z"/>
			<path class="st56" d="M286.7,213.6c-1.3,1.9,1.1,5.8-0.1,7c-2.5-1-10.9-1.4-12.6-0.7s2.1-5.3,4-6.9s3.1-1.3,3.1-1.3L286.7,213.6z
				"/>
			<path class="st57" d="M204.3,89.4c-2.4,1.7-5,3-7.8,3.9C198,90.5,200.7,89.3,204.3,89.4z"/>
			<path class="st58" d="M206.1,111c-0.8,0.2-12.4-29.5-12.9-30.2s2.4-7.1,2.9-8.2c0.8-1.9,4.2-2.9,6-3.2c1.3,1.5-1.2,3.7-3.7,4.6
				c0,0-0.3,6.9,0.4,7.1c0.3,0.1,2.4,4.1,3.4,9c0.3,1.7,9.7,16.2,9.6,16.3L206.1,111z"/>
			<path class="st59" d="M199.9,90.9c0.3,1.1,3.7,6.7,6,10.6l0.9,1.5c0.5-0.8,0.9-1.6,1.2-2.4l-0.1-0.1c-2.6-4.2-5.7-9.3-5.9-10.3
				c-0.1-0.3-0.1-0.7-0.2-1h-2.1C199.7,89.8,199.7,90.4,199.9,90.9z"/>
			<path class="st60" d="M211.4,104.7l-3.2-4.1l0,0c0,0,0.1,0.3,0.3,0.7c0.6,1.4,1.3,2.8,2.1,4.1c0.2,0.6,0.4,1.2,0.5,1.8
				c0.4,2,0.8,5,0.8,4.8s0.7-5.7,0.7-5.7s11.2-4.4,14.3-8.6l-0.4-1.6c-0.4-0.2-7.6,2.7-7.9,2.3L211.4,104.7z"/>
			<path class="st61" d="M235.1,77.5c-4,3.1-7.2,7-10.5,10.7c-3.5,3.9-6.6,8.1-9.7,12.3c-0.3-0.2-0.7-0.1-0.9,0.1
				c-0.2,0.3-0.2,0.6-0.1,0.9c-0.3-0.2-0.8-0.3-1.2-0.1c-0.4,0.3-0.5,0.7-0.5,1.1c-3.4-3.9-6-8.4-7.8-13.2c-2.4,1.7-5,3-7.8,3.9
				c3.4,8.5,8.1,16.4,13.8,23.5c1,1.3,2.9,1.5,4.2,0.5c7.3-5.8,14.4-12.2,19.8-19.8l0.6-14.8L235.1,77.5z"/>
			<path class="st61" d="M236,77.1c-4.6,2.4-4.3,7.2-4.7,11.7c-0.4,5.8-1.2,11.6-2.4,17.2c-1.1,4.7-2.2,9.4-3.4,14.1
				c-1.6,6-3.3,12.4-2.7,18.7c0.4,3.6,2.7,5.8,6.1,6.9c0.8,0.3,1.7,0.4,2.6,0.5l5.9-6.4L236,77.1z"/>
			<path class="st62" d="M259.8,38.7c0,0-5.5-4.5-7.2-4.2c-1.4,0.2,5.2-2.5,5.2-2.5l-6.4,0.5c-0.3-0.6,1.3-6.5,1.3-6.5
				s-4.1,1.8-4.9,3.1c-2.4,3.4,2.1,8.4,3.8,9.3c1.3,0.7,4.8,7.7,4.8,7.7s-0.9-8-2.6-9.3C252.9,36.1,259.8,38.7,259.8,38.7z"/>
			<path class="st63" d="M201.1,209.5c-0.6,0.1-2.9,1.7-9.1,4.4s-10.2,2-11.2,3.8s-1.1,4,1.9,4.6s17.8-0.3,21-0.4s4.3,0.1,4.7-0.8
				s-0.4-6.3-1.1-8.5S201.1,209.5,201.1,209.5z"/>
			<path class="st64" d="M180.3,218.8c-0.5,1.5,0,3.1,2.4,3.5c2.9,0.6,17.8-0.3,21-0.4s4.3,0.1,4.7-0.8c0.1-0.6,0.1-1.2,0.1-1.8
				c-0.8,0.4-1.7,0.8-2.5,1.2c-1.7,0.8-18.5,0.9-20.8,0.7s-2.8-1.2-4-2C180.9,219,180.6,218.8,180.3,218.8z"/>
			<path class="st63" d="M286.9,209.9c-0.6,0.1-3.2,1-9.1,4.4c-7.5,4.3-9.5,12-6,13c0,0,10.8,1.5,16.7-0.2c3.3-1,4.2-2.6,2.7-8.6
				c-0.6-2.2-0.6-4.2-1.1-5.8C289.5,211.3,288.3,210.3,286.9,209.9z"/>
			<path class="st65" d="M236.5,130.2c-2.3,7-3.8,11.5-3.8,11.5l-27.6,23.4c-3.4,2.9-10.8,36.8-11.8,41.4s-3.3,7-1.5,7.8
				s16.6,6.7,16.5,3.5s4.5-38.3,6.3-41.2s18.1-13.8,21.1-15.9s8.3-6.6,8.3-6.6s6.3,26.4,8.5,28.5s23.1,33.6,23.1,33.6
				c2.1,0.4,4.2,0.6,6.3,0.6c3.5,0,6.5-1.1,7.8-2.1c0.8-0.7,1.5-1.4,2.1-2.2l-26.2-36.8l-2.9-21.7c-0.3-2.1,2.1-6,0.8-11.4
				c-0.9-3.6-2.4-7-4.4-10.1L236.5,130.2z"/>
			<path class="st66" d="M233.3,139.9c-0.4,1.2-0.6,1.8-0.6,1.8l-27.6,23.4c-3.4,2.9-10.8,36.8-11.8,41.4s-3.3,7-1.5,7.8
				s16.6,6.7,16.5,3.5s4.5-38.3,6.3-41.2s18.1-13.8,21.1-15.9s8.3-6.6,8.3-6.6l-4.9-11.2L233.3,139.9z"/>
			<path class="st67" d="M232,98.4c-0.1-2,0-4,0.1-5.9c0-2,0.1-4.1,0.3-6.1c0.4-3.4,0.8-6.7,1.4-10.1c0.2-1.4,0.5-2.8,0.9-4.1
				c0.2-0.5,0.4-1,0.8-1.4c0.1-0.2,1.1-0.9,1.1-1l-0.3,9.2L232,98.4z"/>
			<path class="st68" d="M240.4,69.5c-2.9,1.8-4.5,3.3-5.2,6.7c-1.4,7.4-2.5,14.9-3.3,22.3c-0.5,4.8,0.1,9.5,0.1,14.3
				c0,6.2-0.2,12.5-0.4,18.7c-0.1,3.2-0.8,7-0.3,10.2c0.3,1.9,7.1,6.4,11.1,4.3c3.5-1.6,7.1-2.9,10.8-3.8l-8.4-70.6L240.4,69.5z"/>
			<path class="st69" d="M262.5,139.3c-3.2,2-14.3,3.8-20,6.7c-2.5,1.3-6.1,0.1-8.5-1.4c1,0.9,2.1,1.8,3.3,2.4
				c3,1.6,5.6-0.8,10.1-1.9c3.9-0.9,13.2-3.5,15.6-4.2C262.9,140.3,262.7,139.8,262.5,139.3z"/>
			<path class="st70" d="M231.9,120.4c-0.1,5-0.7,20.6-0.5,21.5c0.1,0.2,0.2,0.5,0.3,0.7c0.6,0.8,1.4,1.5,2.3,2.1
				c2.4,1.6,6,2.8,8.5,1.4c3.9-2.1,10.5-3.6,15.2-4.9l0.2-0.1c1.6-0.4,3.1-1,4.6-1.8c0.6-0.3,0.9-0.7,0.9-1.1
				c0-0.9-0.8-6.7-1.7-13.6l0,0c-0.2-1.3-0.4-2.7-0.6-4c-0.2,1.2-0.3,2.7-0.5,4.2l0,0c-0.4,2.7-0.5,5.5-0.4,8.3
				c0.1,0.5,0.1,0.9,0.1,1.3c0.1,2.1-0.8,3.1-4.4,4.6c-4.3,1.8-12.5,5.4-16.9,5.2s-4.4-2.6-5.5-5.3s1.5-4.5,2.2-6.6
				s-1.3-2.9-2.1-6.4c-0.5-2.1-1.4-5.9-2.1-8.7C231.8,118.3,231.9,119.3,231.9,120.4z"/>
			<path class="st64" d="M270.1,224.4c3.2,0.1,13.1,1.4,16.8,0.9c2-0.3,3.8-1.3,4.9-2.9c0.2,3-0.9,4.1-3.4,4.8
				c-5.9,1.7-16.7,0.2-16.7,0.2C270.5,227,270,225.9,270.1,224.4z"/>
			<path class="st58" d="M246.7,56.9c-0.3,3.8-0.4,7.6-0.3,11.4c-0.7,4.6-9.2,10.5-11,9.4c-0.4-0.3,0.2-9.3,0.2-9.3L246.7,56.9z"/>
			<path class="st58" d="M246.7,50.9c0.2-1.3-0.1-0.6,1.1-1.3c1-0.8,2.5-0.6,3.4,0.3c1.7,2.2-1.1,5.8-2.6,7.3
				c-0.9,0.9-1.3,0.5-2.4,0.2c-0.3,1.5-0.8,2.9-0.9,4.4c-0.2,1.3-0.9,2.5-2,3.3c-2,1.6-4.8,3.6-7.4,3.8c-1.5,0.1-2.9,0.1-4.4,0
				c-1.6,0-2.5-0.1-3.6-1.3c-1-1-1.6-2.2-1.9-3.6c-0.4-1.5-0.9-3.1-1.5-4.5c-1.3-2.6-1.1-7.2-0.9-8.7c0.2-1.2,0.1-2.4-0.1-3.5
				c-0.3-1.4-0.2-2.8,0.3-4.2c0.5-1.6,1.1-3.2,1.5-4.9c1.3,0.2,2.6,0.2,3.9,0.1c1.8,0,3.6,0.2,5.4,0.1s3.7-0.1,5.5-0.2
				c0.7,0,1.5-0.1,2.2-0.1c1.1,0,1,0.5,1.3,1.4c0.7,1.9,1.8,3.8,2.2,5.8c0.4,1.3,0.5,2.7,0.3,4.1c-0.2,1-0.3,2-0.3,3
				c0.1,0.9,0.4-1.1,1.1-1.1c0.2,0-0.7,0.2-0.7,0.1L246.7,50.9z"/>
			<path class="st71" d="M233.8,47.4c0-0.6,0.4-1.1,1-1.2c0.8-0.2,1.7-0.3,2.6-0.2c1,0,2,0,3,0.1c0.8,0.2,1.6,0.6,2.2,1.2
				c0.3,0.2,0.5,0.5,0.4,0.7c-0.4-0.1-0.6-0.3-0.9-0.5c-0.3-0.2-0.7-0.3-1.1-0.4c-0.9-0.2-1.8-0.3-2.8-0.3c-0.8,0-1.6,0-2.4,0.2
				c-0.4,0.1-0.8,0.1-1.1,0.2s-0.5,0.4-0.9,0.3L233.8,47.4z"/>
			<path class="st72" d="M231.9,50.8c-0.1,1-0.3,2.1-0.7,3c-0.5,0.9-0.8,1.7-1.1,2.7c-0.2,0.4-0.4,0.9-0.4,1.4
				c0.1,0.6,0.6,0.6,1.1,0.7c0.5,0.1,1.1,0.2,1.6,0.3c0.4,0,0.9-0.2,1.3-0.2c0.2,0,0.3,0,0.4-0.1c-1,0.6-5.3,1.2-4.7-1.1
				c0.1-0.4,0.4-0.9,0.5-1.3c0.2-0.4,0.3-0.9,0.6-1.3c0.4-0.8,0.8-1.7,1.1-2.6C231.7,51.9,231.8,50.9,231.9,50.8z"/>
			<path class="st62" d="M226.6,37.1c0.6,0.8-0.3,1.9-0.6,2.6c-0.4,0.9-0.7,1.8-1.1,2.6c-0.8,1.7-1.9,3.4-1.6,5.4l0,0
				c-0.8-1.1-1.6-2.2-2.2-3.3c-0.7-1.4-0.6-3,0.2-4.3c0.6-1,1.2-0.9,1.5-2c0.4-1.6,1.3-1.6,3.8-1.2c0,0.3-0.1,0.6-0.2,0.8
				L226.6,37.1z"/>
			<path class="st73" d="M247,52.8c0.1-0.1,0.1-0.4,0.2-0.6c0-0.2,0.1-0.4,0.2-0.5c0.2-0.3,0.6-0.6,0.9-0.8c0.4-0.3,0.8-0.4,1.2-0.3
				c0.4,0.1,0.8,0.4,1,0.7c0.5,0.6,0,1.8-0.2,2.3c-0.1,0.4-0.4,0.8-0.7,1c-0.4,0.2-0.7,0.5-1,0.8c-0.3,0.3-0.5,0.9-0.8,1.2
				c-0.3,0.3-0.9,0.3-1.2,0c1.1,0.2,1.2-0.6,1.7-1.3c0.2-0.4,0.5-0.7,0.9-0.9c0.4-0.3,0.8-0.5,1-0.9c0.2-0.4,0.3-0.9,0.3-1.3
				c-0.1-0.4-0.3-0.8-0.7-1.1c-0.9-0.7-1.5,0-2.1,0.6c-0.2,0.2-0.3,0.5-0.3,0.7c-0.1,0.2-0.2,0.6-0.4,0.6
				C246.9,53,246.9,52.9,247,52.8L247,52.8z"/>
			<path class="st74" d="M232.8,64.3c-1.2,0.2-3.9-0.5-4.3-1.9c0.7,0.1,3-0.5,3.7-0.4s3,0.3,4.2,0.5
				C236.4,62.5,235.6,63.8,232.8,64.3z"/>
			<path class="st75" d="M236.5,62.5c-1,0.8-2.1,1.4-3.4,1.6c-0.9,0.1-3.2-0.1-4.1-1.3c-0.1-0.2-0.5-0.3-0.6-0.4
				c0.6,1.6,2.1,2.8,3.9,2.9c1.5,0.1,3-1.4,3.6-2.1C236.1,63,236.3,62.7,236.5,62.5L236.5,62.5z"/>
			<path class="st76" d="M236.4,62.4c-0.1,0-2.6-1.4-3.3-1.3c-0.7,0.1-1.3,0.1-2,0.1c-1,0.1-1.9,1.2-2.8,1.1c0.8,0.5,2.6-0.3,4-0.2
				L236.4,62.4z"/>
			<path class="st77" d="M232.8,64.1c-1.6,0.1-3.2-0.5-4.2-1.7c3,3.1,7.1,0.8,7.5,0.6C235,63.6,233.9,64,232.8,64.1z"/>
			<path class="st71" d="M224.3,47.7c0-0.4,0.2-0.8,0.6-1c0.5-0.3,1.1-0.5,1.7-0.6c0.6-0.1,1.3-0.1,1.9,0c0.6,0.1,1.1,0.4,1.5,0.9
				c0.2,0.2,0.3,0.6,0.1,0.7s-0.4-0.1-0.6-0.2c-0.2-0.2-0.4-0.3-0.6-0.4c-0.6-0.2-1.2-0.2-1.7-0.2c-0.5,0-1,0.1-1.5,0.2
				c-0.2,0.1-0.5,0.2-0.7,0.2C224.7,47.6,224.5,47.9,224.3,47.7L224.3,47.7z"/>
			<path class="st78" d="M242.2,48.3c0.1,0.7-0.3,1.3-0.4,1.9c1.7,0.2,3.4,0.6,5,1.2c0.2-0.4,0.4-0.8,0.7-1.2
				C247,49.9,242.2,48.3,242.2,48.3z"/>
			<path class="st46" d="M222.3,47.5c-0.2,0.2-0.3,0.6-0.1,0.9c0.1,0.3,0.4,0.5,0.5,0.8c0.1,0.3,0.2,0.7,0.2,1c0,0.7,0,1.5,0.1,2.2
				c0.2,0.8,0.7,1.5,1.4,2c0.7,0.5,1.5,0.8,2.3,0.9c0.9,0,1.8-0.2,2.6-0.6c0.9-0.5,1.5-1.3,1.8-2.2c0.4-1,0.4-1.5,0.8-2.5
				c0.2-0.3,0.6-0.4,0.9-0.3c0.3,0.8,0.6,1.7,0.9,2.5c0.4,0.7,0.8,1.4,1.4,2c0.8,0.6,1.7,1,2.7,1.2c1.3,0.2,2.7-0.2,3.6-1.1
				c1-0.9,1.6-2.2,1.7-3.5c0-0.4,0-0.8,0.2-1.1c0.1-0.4,0.5-0.6,0.7-1s0.2-0.9-0.2-1.1c-0.1-0.1-0.2-0.1-0.3-0.1
				c-1-0.1-2.1-0.2-3.1-0.3c-0.9-0.1-1.9-0.1-2.8-0.1c-1.8,0.2-3.6,0.9-5.4,0.9c-1.6,0-3.2-0.7-4.8-0.7c-0.7,0-1.5,0.1-2.2,0.1
				C224.1,47.6,222.3,47.5,222.3,47.5z"/>
			<path class="st58" d="M223.7,50.9c0,1,0.3,2,0.9,2.8c0.6,0.5,1.3,0.8,2.1,0.9c0.5,0.1,1.1,0,1.6-0.2c1-0.5,1.8-1.4,2.2-2.5
				c0.2-0.5,0.6-2.2-0.4-3c-1.1-0.6-2.4-0.9-3.7-0.9c-0.9,0-1.8,0.4-2.4,1C223.9,49.8,223.8,50.3,223.7,50.9z"/>
			<path class="st58" d="M234.7,52.8c0.9,1.5,1.4,1.5,1.6,1.6c0.9,0.4,1.9,0.6,2.9,0.4c0.8,0,1.5-0.4,2.1-1c0.2-0.3,0.3-0.5,0.4-0.8
				c0.4-1,0.5-2,0.5-3c0-0.6-0.2-1.2-0.6-1.6c-0.3-0.2-0.6-0.3-0.9-0.3c-0.9-0.2-1.8-0.2-2.6-0.2c-1,0-2.4-0.1-3.1,0.6
				C233.1,50.3,234.4,52.4,234.7,52.8z"/>
			<path class="st32" d="M240.4,51.7c-0.4,0.2-0.9,0.3-1.4,0.3c-1.1,0.1-2.1,0.1-3.2,0c-0.3,0-1.3-0.2-1.4-0.5s0.5-0.9,0.7-1.1
				s0.4-0.3,0.6-0.5s0.2-0.5,0.4-0.7c0.3-0.4,0.8-0.6,1.3-0.5c0.9-0.1,1.8,0.1,2.5,0.5c0.4,0.2,0.6,0.6,0.9,0.9
				c0.2,0.2,0.7,0.5,0.7,0.7c-0.1,0,0,0-0.1,0S240.7,51.5,240.4,51.7z"/>
			<path class="st79" d="M241.5,50.8c-0.6-0.8-1.4-1.5-2.3-2c-0.9-0.4-1.9-0.4-2.9,0c-0.5,0.3-0.9,0.7-1.2,1.2
				c-0.3,0.4-0.6,0.9-0.8,1.3c0.2-0.1,0.3-0.6,0.8-1c0.3-0.3,0.6-0.6,0.9-0.9c0.7-0.8,1.9-0.7,2.9-0.6c0.5,0.2,1,0.4,1.5,0.8
				c0.2,0.2,0.4,0.4,0.6,0.6C241.2,50.5,241.4,50.7,241.5,50.8z"/>
			<path class="st80" d="M235.9,50c-0.2,0.9,0.4,1.8,1.4,2c0.9,0.1,1.8-0.5,1.9-1.4c0,0,0,0,0,0c0.2-0.9-0.4-1.8-1.4-2c0,0,0,0,0,0
				C237,48.5,236.1,49.1,235.9,50C235.9,50,235.9,50,235.9,50z"/>
			<path class="st32" d="M238,49.6c0,0.2,0.1,0.4,0.3,0.5c0.2,0,0.4-0.1,0.4-0.3c0,0,0,0,0,0c0-0.2-0.1-0.4-0.3-0.5
				S238,49.4,238,49.6L238,49.6z"/>
			<path class="st81" d="M236.3,50.3c-0.1,0.4,0.2,0.8,0.6,0.9c0.4,0.1,0.8-0.2,0.9-0.6c0.1-0.4-0.2-0.8-0.6-0.9
				C236.8,49.6,236.4,49.8,236.3,50.3C236.3,50.3,236.3,50.3,236.3,50.3z"/>
			<path class="st32" d="M237,50.5c0,0.1,0.1,0.3,0.2,0.3c0,0,0,0,0,0c0.1,0,0.2,0,0.3-0.2c0,0,0,0,0,0c0-0.1-0.1-0.3-0.2-0.3
				C237.2,50.3,237,50.4,237,50.5z"/>
			<path class="st32" d="M230.3,50.8c-0.4-0.7-0.9-1.3-1.5-1.8c-0.3-0.2-0.6-0.4-0.9-0.5c-0.3-0.1-0.7-0.1-1,0.1
				c-0.3,0.1-0.6,0.3-0.9,0.5c-0.1,0.1-0.2,0-0.3,0.2c-0.2,0.2-0.3,0.4-0.5,0.5c-0.1,0.1-0.1,0.2,0,0.4c0.1,0.2,0.2,0.3,0.3,0.4
				c0.2,0.3,0.6,0.5,0.9,0.6c0.8,0.2,1.5,0.2,2.3,0.2c0.3,0,1.8,0,1.8-0.5L230.3,50.8z"/>
			<path class="st82" d="M230,50.5c-0.4-0.7-0.9-1.3-1.6-1.8c-0.7-0.3-1.5-0.3-2.2,0.1c-0.6,0.3-1,0.7-1.3,1.3
				c0.2-0.2,0.5-0.4,0.8-0.6c0.3-0.3,0.6-0.5,1-0.7c0.7-0.2,1.4-0.2,2,0.2c0.3,0.2,0.6,0.5,0.8,0.8c0.1,0.1,0.2,0.3,0.3,0.4
				C229.8,50.3,229.9,50.3,230,50.5c-0.1,0,0.3,0.5,0.3,0.5L230,50.5z"/>
			<path class="st80" d="M226,49.9c-0.1,0.8,0.4,1.5,1.2,1.7c0.8,0.1,1.5-0.4,1.7-1.2s-0.4-1.5-1.2-1.7
				C226.8,48.5,226.1,49,226,49.9C226,49.8,226,49.8,226,49.9z"/>
			<path class="st32" d="M227.7,49.4c0,0.2,0.1,0.4,0.3,0.4c0.2,0,0.4-0.1,0.4-0.3s-0.1-0.4-0.3-0.4
				C227.9,49.1,227.7,49.2,227.7,49.4L227.7,49.4z"/>
			<path class="st81" d="M226.3,50c0,0.4,0.2,0.7,0.6,0.7c0.4,0,0.7-0.2,0.7-0.6c0-0.3-0.2-0.7-0.6-0.7
				C226.7,49.4,226.4,49.6,226.3,50C226.3,50,226.3,50,226.3,50z"/>
			<path class="st32" d="M226.9,50.2c0,0.1,0,0.2,0.2,0.2c0,0,0,0,0,0c0.1,0,0.2-0.1,0.2-0.2c0,0,0,0,0,0c0-0.1,0-0.2-0.2-0.2
				c0,0,0,0,0,0C227,50,226.9,50.1,226.9,50.2C226.9,50.2,226.9,50.2,226.9,50.2z"/>
			<path class="st72" d="M229.6,51.7c-0.3,0-0.6,0.1-0.9,0.2s-0.8,0.1-1.1,0c-0.8-0.1-1.6-0.3-2.2-0.8
				C226.6,51.6,228.1,51.8,229.6,51.7L229.6,51.7z"/>
			<path class="st72" d="M239.7,52.1c-0.3,0.1-3.6,0.4-4.1,0.1c1.5,0.3,3,0.3,4.4-0.1L239.7,52.1z"/>
			<path class="st62" d="M245.7,51.5c-0.8,1.7-0.3,1.2,1.1,0c0.8-0.7,1.7-1.4,2.7-2l1.5,0.4c0.8-2.4,1.3-5,1.5-7.5
				c0.5-9.1-7.5-14.9-14.6-16c-6.6-1-19.9-1.4-19.6-1c1.6,2.1,3.8,4.3,4,5.7c0,0-3.6,0.5-9.2,1.2c2.8,2.1,6,3.8,9.4,4.8
				c3.2,0.8,4.3,0.3,4.3,0.3s-5,3.2-4.4,3.3s5.7-0.6,11.2-0.8s7.5-1.7,7.1-1.2s-4.8,3.4-4.4,3.2s3.3-0.1,5.3-0.9
				c1.2-0.5,2.4-1.1,3.5-1.9C246.1,42.9,247.3,48,245.7,51.5z"/>
			<path class="st62" d="M240.7,39.1c-1.7,0.7-3.5,1.3-5.4,1.6c-5.5,0.9-4.6,0.5-12.8,0.2c0,0,2.1-0.9,2.9-1.1c2,0,5.9,0.4,8.4,0.3
				c2.4,0,4.8-0.4,7-1.2c0.2-0.1,0.3-0.1,0.2,0.1C240.9,38.9,240.8,39,240.7,39.1z"/>
			<path class="st62" d="M241.8,41.2c1.2-0.5,2.4-1.1,3.5-1.9c0.7,3.4,1.3,7.3,0,10.7h-0.6c0-1.2-0.4-7.9-0.5-8.2s-0.2-0.5-2.7-0.2
				c-0.7,0.1-1.5,0.2-2.2,0.2C240.2,41.7,241,41.5,241.8,41.2z"/>
			<path class="st83" d="M235.6,68.5c0,0.1-0.1,0.2,0,0.2c2.3-0.6,3.8-2.4,5.3-4.2c1.4-1.7,2.6-3.4,4-5c-0.5,1.1-0.5,2.2-1.2,3.4
				c-0.8,1.3-1.8,2.6-2.9,3.7c-0.7,0.9-1.6,1.6-2.7,2.1C237.5,68.8,235.5,69.2,235.6,68.5z"/>
			<path class="st62" d="M247.9,30.6c1.3-4.1-9.2-3.5-9.2-3.5l1.1,1.6c-0.4-0.7-9.5-3-8.5-1.9c0.3,0.3,1.1,1.1,0.9,1.1
				c0,0-7.8-1.1-6.6-0.6c0.5,0.2,0.9,0.5,1.1,1c2.4-0.4-3.9,3-3.9,3s-3.8,0.6-3.8,2l3.8,0.5c0,0-3.5,0.7-3.4,1.8l2.8,0.7
				c-0.2,0-5,1.9-4.2,2.3C225.1,41.7,245.6,38,247.9,30.6z"/>
			<path class="st62" d="M251.8,38.7c3.2-2.9-6.5-17.4-6.5-17.4l0.3,6.4c0.1-1.8-6.1-7.4-6.2-6.9c0,0,1.6,5.5,1.2,4.9
				c-1.4-2.2-8-8.2-7.6-7.6c0.6,1.6,1.2,3.3,1.6,5c2.3,0.8-9-5.2-7.4-3.1c0.9,1.2,1.8,2.5,2.5,3.8c0,0-4.8-1.2-6.1-1.6l3.1,5.7
				c-0.1-0.1-2.1,3-1.6,3.8C229.7,37.8,246.1,43.9,251.8,38.7z"/>
			<path class="st71" d="M245.9,49.5c0.1,2.4-1.9,5.4-0.3,3.4s0.8-4.9,1.4-7.9s-0.7-8-0.7-8s-3.6,2.1-4.9,2.8s-4.3,1.8-4.3,1.8
				c1.5-0.1,3-0.4,4.4-0.9c1.2-0.5,2.4-1.1,3.5-1.9c0.8,3.6,1.4,7.7-0.2,11.2L245.9,49.5z"/>
			<path class="st71" d="M249.8,43.2c0.1,1.8,0.2,3.6,0.1,5.3c0.6-0.8,1-1.8,1.1-2.8c0.4-2.1-0.6-8.5-0.6-8.3
				c0.5,1.4,0.9,2.9,1.1,4.4c0.1,1.5,0.2,3.1,0.2,3.1c0.2-2,0.2-4.1,0.1-6.2c-0.2-2.5-3.1-6.9-3.1-6.9c2.7,2.8,4.2,6.6,3.9,10.5
				c-0.2,2.4-0.7,4.8-1.4,7.1c-0.4-0.3-1-0.4-1.5-0.3c-0.3,0.1-0.7,0.2-1,0.4c0.1-0.9,0.1-2,0.2-3.3c0.1-3.1-0.2-6.2-0.9-9.3
				C248.1,37,249.6,41.7,249.8,43.2z"/>
			<path class="st71" d="M230.9,39.3c2.2-0.2,10.9-1.9,12-2.1c-2.1,1-4.4,1.7-6.8,2c-3.1,0.4-6.2,0.7-8.4,0.9
				c-1.6,0.1-2.7,0.2-2.9,0.2c0,0,0,0,0-0.1l2.9-0.4C228.9,39.5,230.1,39.4,230.9,39.3z"/>
			<path class="st58" d="M212.7,76l-3.3-5.4c-0.7-1.1-3.6-1.6-4.2-3c-1.6-3.2,6.9,1.3,6.9,1.3c0.2,0,3.9,7.3,3.9,7.3l-2.7,1.2
				L212.7,76z"/>
			<path class="st58" d="M214.1,75.7c-0.2-0.1-2.9-0.9-4.6-1.4c-1.2,0-2.3,0.1-3.4,0.3c-0.4,0-4.5,1.5-4.5,1.8s-0.5,0.7,0.7,1.5
				s3.5-0.7,3.7-0.8c1.1-0.1,2.2-0.1,3.2-0.1c0.2,0,3.7,2.1,4,2c0.8-0.5,1.3-1.3,1.3-2.2C214.5,75.6,214.1,75.7,214.1,75.7z"/>
			<path class="st58" d="M214.4,77.3c-0.4,0-6.1,0-6.5,0.1s-5.3,3.9-5.2,4.2c0.4,1.2,1.6,0.9,2.2,0.8c0.8-0.3,1.5-0.7,2.2-1.2
				c0.7-0.4,1.5-0.7,2.2-0.9c0.2,0,5,0.8,5.3,0.5c0.6-0.7,0.9-1.6,0.6-2.5C214.7,77.1,214.4,77.3,214.4,77.3z"/>
			<path class="st58" d="M214.6,80.4c-0.3,0-4.7,0.3-5,0.4c-1.4,1-2.6,2.2-3.8,3.5c0.1,0.2-0.1,0.6,0.9,0.9c0.8,0.1,1.7-0.2,2.3-0.8
				c0.1-0.1,0.7-0.4,1.3-0.7s1.2-0.6,1.3-0.7c1.1,0.1,2.2,0,3.2-0.1c0.4-0.5,0.6-1.3,0.3-1.9C214.9,80.2,214.6,80.4,214.6,80.4z"/>
			<path class="st58" d="M220,81.7c-0.4-0.9-4.4-6.2-4.4-6.2l-2.9,0.5l0.6,7.1c0.1,0.8,0.2,1.6,0.4,2.5c0.7,2.8,1.8,4.8,3.6,5.5
				c2.5,6.5,10.5,22.9,10.5,22.9l4.3-4.9c0,0-10-21.3-10.4-21.5C221,85,220,81.7,220,81.7z"/>
			<polygon class="st84" points="222.7,89.3 217.9,92.8 216.6,90.9 221,88.4 			"/>
			<path class="st85" d="M220.9,86.9c1.2,0,2.2,0.8,2.4,2c0.4,0.9,0,1.9-0.9,2.3c-0.1,0.1-0.3,0.1-0.4,0.1c-1.2,0-2.2-0.8-2.5-2
				c-0.4-0.9,0-1.9,0.9-2.3C220.6,87,220.8,86.9,220.9,86.9z"/>
			<path class="st56" d="M221.4,87.2c0.9,0,1.7,0.7,1.9,1.6c0.3,0.7-0.1,1.5-0.8,1.8c-0.1,0-0.2,0.1-0.3,0.1c-0.9,0-1.7-0.7-1.9-1.6
				c-0.3-0.7,0.1-1.5,0.8-1.8C221.2,87.2,221.3,87.2,221.4,87.2z"/>
			<path class="st84" d="M221.6,87.2h-0.2c-0.7,0.1-1.2,0.8-1.1,1.5c0,0,0,0.1,0,0.1c0,0.1,0,0.2,0.1,0.2c0,0.2,0.1,0.3,0.2,0.4v0.1
				c0.2,0.3,0.4,0.6,0.8,0.8c0.1,0,0.1,0.1,0.2,0.1c0.1-0.1,0.1-0.3,0.1-0.4c0.2-0.4,0.3-0.8,0.3-1.2c0-0.1,0-0.1,0-0.2
				c0-0.2,0-0.5-0.1-0.7C221.6,87.7,221.6,87.5,221.6,87.2z"/>
			<path class="st59" d="M228.1,108.2c-0.7-1.3-2.1-3.4-3.1-5.3c-0.3-0.5-0.6-1-0.8-1.5c-1.9-3.6-3.9-7.3-5-9.5l-1.2,0.9
				c1,2.4,2.5,5.7,4,8.9c0.2,0.6,0.5,1.1,0.8,1.7c1.1,2.4,2.8,5.9,3.7,7.7c0.4-0.6,0.5-1.4,0.9-1.9
				C227.5,108.9,228,108.3,228.1,108.2z"/>
			<path class="st59" d="M216.8,90.8l1.4-0.8c-0.5-0.5-1-1-1.5-1.5c-0.1-0.1-0.2-0.3-0.4-0.4c-0.4-0.5-0.8-1-1.1-1.6
				c-0.5-1.1-1-2.3-1.3-3.4c-0.2-0.6-0.2-0.9-0.2-0.9l-0.5,0.1l0.1,0.9c0.1,0.8,0.2,1.6,0.4,2.5c0.2,1,0.6,2,1,2.9
				c0.3,0.5,0.6,1,1,1.5C216,90.3,216.4,90.6,216.8,90.8z"/>
			<path class="st59" d="M211.7,83c0.1,0,0.4,0,0.9,0h0.7l-0.1-0.9l-0.7,0.1l-1.2,0.2c0,0-0.9,0.6-1.8,1.1c-0.6,0.4-1.2,0.7-1.8,0.9
				c-0.6,0.1-1.2,0.1-1.8-0.2c0.1,0.2-0.1,0.6,0.9,0.9c0.8,0.1,1.7-0.2,2.3-0.8c0.1,0,0.2-0.1,0.5-0.3l0.8-0.4
				C211,83.4,211.6,83.1,211.7,83z"/>
			<path class="st61" d="M246.9,71c-0.8,2-2.1,3.8-3.8,5.1c-1.8,1.3-3.3,2.9-4.6,4.8c-1.3,1.9-2.2,4-2.8,6.2
				c-1.3,4.8-0.9,10-0.3,14.9c0.7,6.4,2,12.7,3.6,18.9c1.3,5.4,3.1,10.8,5.1,16c1.1,2.8,2.7,5.4,4.8,7.5c2,2,4.5,3.6,7.2,4.4
				c4,1.2,8.3,0.7,12.5,0.2c-3.7-10-5.8-21-7.4-31.5c-1.3-8.6-1.9-17.3-3.1-26c-0.4-4.1-1.4-8-3-11.8
				C253.5,75.9,250.6,72.8,246.9,71z"/>
			<path class="st67" d="M243,77.5c0.7-0.6,1.4-1.1,1.7-1.3c0.9-0.8,1.9-1.6,2.9-2.3c0.4-0.3,0.8-0.6,1.1-0.9c1.1-1.3-0.4-4-1-5.3
				c-0.2-0.4-0.3-0.8-0.6-1.1c0-0.1-0.9-0.8-0.8-0.7c0.3,1.1,0.2,2.2-0.2,3.2c-0.4,0.9-0.9,1.7-1.6,2.5c-1.2,1.5-2.7,2.9-3.9,4.3
				c-2.9,3.4-4.7,7.6-5.4,12c-0.8,4.6-0.3,8.9,0,13.5c0-4.7,0.6-9.4,1.9-14c0.7-3.1,2.2-5.9,4.3-8.2l0.6-2L243,77.5z"/>
			<path class="st67" d="M246.3,80.1c-3.1-1.5-6.8,1-7.1,4.3l-0.9,9.1c-0.3,2.6-1,5.2-1.9,7.7c-0.4,1.2-0.9,2.4-1.2,3.6
				c-0.3,1-0.8,2.2-0.3,3.1c-0.1-0.3-0.3-0.5-0.6-0.6c-0.3-0.1-0.8,0.3-0.6,0.5c-2.6-4.1-6.6-12.8-8.1-16.6c-3,1.1-5.7,2.9-7.9,5.2
				c1.7,5.5,4,10.7,6.9,15.6c2.6,4.5,6.3,8.4,10.6,11.4c1.6,1,3.7,0.6,4.8-1c0,0,0,0,0,0c1-1.5,1.9-3,2-3.4c1.1-2.1,2-4.3,2.8-6.6
				c1.5-4.2,2.7-8.4,3.7-12.8l0.4-1.5c1-4.2,1.9-9,0.8-13.2C249.1,83,248.1,81,246.3,80.1z"/>
			<path class="st86" d="M291.6,213.5c-1.3,1.2-2.6,2.3-4.1,3.2c-1.4,0.8-6.5,1.1-8.7,0.9s-5.3-0.2-5.5-0.7s0.4-1.1,0.2-2.2
				c-0.2-0.6-0.2-1.3,0-1.9c0,0,5.7,0.6,8,0s7.9-4.8,7.9-4.8C290.7,207.8,293.2,213.2,291.6,213.5z"/>
			<path class="st87" d="M286.6,121.4c0.3-0.5,0.7-0.9,1.2-1.2c0.4-0.2,0.9-0.2,1.3,0c0.5,0.5,0.7,1.3,0.3,1.9
				c-0.3,0.6-0.8,1.2-1.3,1.7l-1.5,1.6l-1.5-1.6c-0.5-0.5-1-1.1-1.3-1.7c-0.4-0.6-0.2-1.5,0.3-1.9c0.4-0.2,0.9-0.2,1.3,0
				C285.9,120.5,286.3,120.9,286.6,121.4z"/>

				<linearGradient id="SVGID_00000003810296819959927820000004614172961343500417_" gradientUnits="userSpaceOnUse" x1="130.635" y1="22.01" x2="130.635" y2="224.79" gradientTransform="matrix(1 0 0 -1 0 242)">
				<stop  offset="0" style="stop-color:#AFCFCF"/>
				<stop  offset="1" style="stop-color:#AFCFCF;stop-opacity:0"/>
			</linearGradient>

				<rect x="92.7" style="opacity:0.44;fill:url(#SVGID_00000003810296819959927820000004614172961343500417_);enable-background:new    ;" width="75.9" height="220"/>
			<path class="st89" d="M130.3,35.7c0.1,1.9-0.9,3.7-2.6,4.7c-0.9,0.5-1.8,0.9-2.8,1.1c-1.1,0.2-2.2,0.4-3.3,0.4h-11.9V17.7h14
				c0.8,0,1.6,0.2,2.3,0.5c0.7,0.4,1.3,0.8,1.7,1.4c0.5,0.6,0.9,1.3,1.1,2c0.3,0.7,0.4,1.5,0.4,2.3c0,1.1-0.3,2.3-0.9,3.2
				c-0.6,1-1.5,1.9-2.6,2.3C128.6,30.2,130.5,32.8,130.3,35.7L130.3,35.7z M116.3,23.4v3.7h4.5c0.4,0,0.9-0.1,1.2-0.4
				c0.4-0.4,0.6-0.9,0.6-1.5c0.1-0.5-0.1-1-0.5-1.4c-0.3-0.3-0.7-0.4-1.1-0.4H116.3z M123.5,34.4c0-0.5-0.2-1.1-0.5-1.5
				c-0.3-0.4-0.7-0.6-1.2-0.6h-5.5v4.1h5.2c0.5,0,1-0.2,1.4-0.5C123.4,35.4,123.6,34.9,123.5,34.4L123.5,34.4z"/>
			<path class="st90" d="M120.5,62.8V38.6h6.7V57h11v5.8H120.5z"/>
			<path class="st91" d="M116.1,82.5c-1.7,0-3.4-0.3-5-1c-1.5-0.7-2.8-1.6-3.8-2.8c-1.1-1.1-1.9-2.5-2.5-3.9c-0.6-1.5-0.9-3-0.9-4.6
				c0-1.6,0.3-3.1,0.9-4.6c0.6-1.5,1.5-2.8,2.6-3.9c1.1-1.1,2.4-2,3.9-2.7c1.6-0.7,3.3-1,5-1c1.7,0,3.4,0.3,5,1
				c4.4,2.1,7.2,6.4,7.2,11.3c0,1.6-0.3,3.1-0.9,4.6c-1.2,3-3.6,5.3-6.5,6.6C119.4,82.1,117.8,82.5,116.1,82.5z M110.6,70.2
				c0,0.8,0.1,1.6,0.3,2.4c0.2,0.7,0.6,1.4,1,2c1,1.3,2.5,2.1,4.2,2c0.9,0,1.7-0.2,2.5-0.6c0.7-0.4,1.3-0.9,1.7-1.5
				c0.5-0.6,0.8-1.3,1-2.1c0.2-0.8,0.3-1.6,0.3-2.3c0-0.8-0.1-1.6-0.3-2.4c-0.2-0.7-0.5-1.4-1-2c-0.5-0.6-1.1-1.1-1.7-1.4
				c-0.8-0.4-1.6-0.5-2.4-0.5c-0.9,0-1.7,0.2-2.5,0.6c-0.7,0.3-1.3,0.8-1.7,1.4c-0.5,0.6-0.8,1.3-1,2
				C110.7,68.6,110.6,69.4,110.6,70.2z"/>
			<path class="st89" d="M111.7,89.8c0-1.5,0.3-3,0.8-4.4c0.6-1.4,1.4-2.7,2.5-3.8c1.1-1.2,2.4-2.1,3.9-2.8
				c3.6-1.5,7.8-1.4,11.3,0.4c1.6,0.9,3,2.2,3.8,3.8l-5.1,3.6c-0.2-0.5-0.5-1-0.9-1.5c-0.4-0.4-0.8-0.7-1.2-0.9
				c-0.4-0.2-0.9-0.4-1.4-0.5c-0.5-0.1-0.9-0.1-1.4-0.1c-1.6-0.1-3.2,0.7-4.2,2c-0.4,0.6-0.8,1.3-1,2c-0.2,0.7-0.3,1.5-0.3,2.3
				c0,0.8,0.1,1.6,0.4,2.4c0.2,0.7,0.6,1.4,1.1,2c0.5,0.6,1.1,1.1,1.8,1.4c0.7,0.4,1.5,0.5,2.3,0.5c0.5,0,0.9-0.1,1.4-0.2
				c0.5-0.1,0.9-0.3,1.4-0.5c0.4-0.2,0.8-0.5,1.2-0.9c0.4-0.4,0.7-0.9,0.8-1.4l5.4,3.2c-0.4,0.9-0.9,1.8-1.7,2.5
				c-0.7,0.7-1.6,1.3-2.5,1.8c-1,0.5-2,0.8-3,1.1c-1,0.2-2.1,0.4-3.2,0.4c-1.7,0-3.4-0.3-4.9-1.1c-1.5-0.7-2.8-1.7-3.8-2.8
				c-1.1-1.2-1.9-2.5-2.5-4C112,92.9,111.7,91.3,111.7,89.8z"/>
			<path class="st90" d="M125.2,123.7V99.5h6.7v9.2l7.4-9.2h7.5l-8.8,10.8l9.4,13.4h-7.6l-6-8.9l-1.8,1.9v7L125.2,123.7z"/>
			<path class="st89" d="M99.9,122.4c0-1.5,0.3-3,0.8-4.4c0.6-1.4,1.4-2.7,2.4-3.8c1.1-1.2,2.4-2.1,3.9-2.8c1.6-0.7,3.4-1,5.2-1
				c2.1-0.1,4.2,0.4,6.1,1.4c1.6,0.9,3,2.2,3.8,3.8l-5.1,3.6c-0.2-0.5-0.5-1-0.9-1.5c-0.4-0.4-0.8-0.7-1.2-0.9
				c-0.4-0.2-0.9-0.4-1.4-0.5c-0.5-0.1-0.9-0.1-1.4-0.1c-1.6-0.1-3.2,0.7-4.2,2c-0.5,0.6-0.8,1.3-1,2c-0.2,0.7-0.3,1.5-0.3,2.3
				c0,0.8,0.1,1.6,0.4,2.4c0.2,0.7,0.6,1.4,1.1,2c0.5,0.6,1.1,1.1,1.8,1.4c0.7,0.4,1.5,0.5,2.3,0.5c0.5,0,0.9-0.1,1.4-0.1
				c0.5-0.1,0.9-0.3,1.4-0.5c0.4-0.2,0.8-0.6,1.2-0.9c0.4-0.4,0.7-0.9,0.8-1.4l5.4,3.2c-0.4,0.9-0.9,1.7-1.7,2.4
				c-0.8,0.7-1.6,1.3-2.5,1.8c-1,0.5-2,0.8-3,1.1c-1,0.3-2.1,0.4-3.2,0.5c-1.7,0-3.4-0.3-4.9-1.1c-1.5-0.7-2.8-1.6-3.8-2.8
				c-1.1-1.2-1.9-2.5-2.5-4C100.1,125.6,99.9,124,99.9,122.4z"/>
			<path class="st90" d="M140,126.8V151h-6.6v-9.5h-8.1v9.5h-6.6v-24.2h6.6v8.9h8.1v-8.9H140z"/>
			<path class="st91" d="M116.3,142.8h6.1l8.4,24.2H124l-1.5-4.7h-6.4l-1.4,4.7h-6.8L116.3,142.8z M121.5,157.8l-2.1-7.5l-2.2,7.5
				H121.5z"/>
			<path class="st89" d="M128.2,181.8v-24.2h6.6v24.2H128.2z"/>
			<path class="st90" d="M132.6,188.4v11.9H126v-24.2h5.2l9.7,12.3v-12.3h6.6v24.2h-5.3L132.6,188.4z"/>
			<path class="st92" d="M172.1,68.8c3.6,0.1,6.5-2.8,6.6-6.3c0.1-3.6-2.8-6.5-6.3-6.6c-0.6,0-1.2,0.1-1.8,0.2
				c0.2-0.7,0.2-1.4,0.2-2.1c0-5.1-4.1-9.3-9.3-9.4c-4.4,0-8.2,3-9.1,7.3c-4-3.5-10.1-3.1-13.6,0.9s-3.1,10.1,0.9,13.6
				c1.8,1.5,4,2.4,6.4,2.4H172.1z"/>
			<path class="st92" d="M104.6,110.3c3.2-0.1,5.7-2.8,5.6-6c-0.1-3-2.5-5.4-5.6-5.6c-0.1,0-0.3,0-0.4,0c-0.5-4.2-4.4-7.2-8.6-6.7
				c-3.9,0.5-6.7,3.7-6.8,7.6c0,1.1,0.2,2.1,0.6,3.1h-0.1c-2.1,0-3.8,1.7-3.8,3.8c0,2.1,1.7,3.8,3.8,3.8L104.6,110.3z"/>
			<path class="st92" d="M161.7,153.5c2,0,3.6-1.6,3.6-3.6c0-2-1.6-3.6-3.6-3.6c-0.3,0-0.6,0-0.9,0.1c0-0.2,0.1-0.5,0.1-0.7
				c0-3.4-2.8-6.1-6.2-6.1c-3.1,0-5.7,2.4-6,5.5c-0.6-0.3-1.2-0.4-1.8-0.4c-2.4,0.1-4.2,2.1-4.1,4.5c0.1,2.2,1.9,4,4.1,4.1H161.7z"
				/>
			<path class="st93" d="M154.2,57.5c0,0.4-0.4,0.7-0.7,0.7c-0.4,0-0.8,0-1.3,0s-0.8,0-1.1,0l-1.3,0.2h-0.1
				c-0.4,0.6-0.7,1.3-1.1,1.9l2.6-0.2c0.3-0.1,0.6,0.1,0.7,0.4c0,0,0,0,0,0c0,0.3-0.2,0.6-0.5,0.6c0,0,0,0-0.1,0
				c-1.1,0.1-2.1,0.2-3.1,0.2c-0.3,0.7-0.6,1.4-0.9,2.2l-0.1,0.2h0.1c0.4,0,0.9,0,1.3-0.1c0.4-0.1,0.9-0.2,1.3-0.3
				c0.4-0.1,0.8-0.3,1.3-0.4s0.9-0.1,1,0.4s-0.5,0.9-0.9,1.1c-0.8,0.4-1.7,0.6-2.6,0.7c-0.8,0.1-2.2,0.3-2.7-0.5s0-1.7,0.3-2.4
				c0.6-1.4,1.3-2.8,2.1-4c-0.1-0.1-0.1-0.3-0.1-0.4c0.1-0.5,0.8-0.6,1.2-0.7c0.4-0.1,0.8-0.2,1.2-0.2c0.4,0,0.9-0.1,1.4-0.1
				c0.4,0,0.9,0,1.3,0C153.9,56.7,154.2,57.1,154.2,57.5z M161.1,63c0,0.8-1.2,1.2-1.8,1.3c-0.8,0.1-1.5-0.1-2.2-0.4
				c-0.7-0.4-1.3-1.2-1.5-2c-0.4,0.9-0.8,1.9-1.2,2.8c-0.2,0.3-0.6,0.4-0.9,0.2c-0.2-0.1-0.3-0.3-0.3-0.6c0-0.6,0.2-1.1,0.6-1.6
				c0,0,0.1,0,0.1,0c0.3-0.7,0.6-1.4,0.8-2.1c0-0.2,0.1-0.3,0.2-0.4c0.4-1.1,0.8-2.3,1.2-3.5c0.1-0.5,0.9-0.3,0.9,0.2l0.6,0l1.3-0.1
				c0.4-0.1,0.7,0,1.1,0.1c0.4,0.3,0.5,0.7,0.4,1.2c-0.1,0.3-0.4,0.6-0.6,0.9c-0.2,0.2-0.5,0.4-0.7,0.6c-0.5,0.4-1.1,0.8-1.7,1.1
				c-0.2,0.1-0.3,0.2-0.5,0.2l0,0c0,0.1,0,0.1,0,0.2c0-0.1,0,0,0,0.1s0.1,0.2,0.1,0.4s0,0.1,0,0s0,0,0,0.1c0,0,0,0.1,0.1,0.1
				c0.1,0.1,0.1,0.2,0.2,0.3l0,0l0,0l0.1,0.2l0.1,0.2h0.1l0,0c0.1,0.1,0.2,0.2,0.3,0.2l0,0l0,0l0.2,0.1l0.2,0.1h0.1
				c0.1,0,0.3,0,0.4,0h0.1h0.1l0.4-0.1l0.2-0.1l0,0h0.1c0.3-0.2,0.6-0.3,0.9-0.3c0.2-0.2,0.6-0.1,0.7,0.1
				C161.2,62.6,161.2,62.8,161.1,63z M156.3,59.6c0.2-0.1,0.5-0.2,0.7-0.3c0.6-0.3,1.1-0.7,1.6-1.1l0.3-0.3h-0.1h-1.2h-0.7h-0.2
				C156.6,58.5,156.5,59.1,156.3,59.6L156.3,59.6z M164.5,59.2c0.3-0.3,0.7-0.6,1.1-0.8c0.3-0.2,1-0.5,1.2,0
				c0.1,0.2,0.4,0.3,0.6,0.1c0.1-0.1,0.2-0.3,0.2-0.4c-0.1-0.5-0.5-0.9-0.9-1c-0.6-0.1-1.3,0-1.8,0.3c-0.9,0.5-1.7,1.1-2.3,2
				c-0.6,0.9-1,1.9-1.1,3c-0.2,1.2,0.7,2.4,1.9,2.5c0.7-0.1,1.4-0.3,2-0.8c0.7-0.3,1.3-0.7,1.8-1.3c0.1-0.2,0.1-0.4-0.1-0.5
				c-0.1,0-0.1,0-0.2-0.1c-0.7,0-1.3,0.2-1.9,0.5l-0.8,0.4c-0.2,0.1-0.4,0.2-0.7,0.3c-0.1,0-0.2,0-0.2-0.1c-0.2-0.1-0.3-0.3-0.3-0.5
				c-0.1-0.4,0-0.9,0.2-1.3C163.3,60.6,163.8,59.8,164.5,59.2L164.5,59.2z"/>
			<path class="st93" d="M96.5,102.3c-0.1,0.2-0.2,0.4-0.4,0.6s-0.3,0.4-0.4,0.6c-0.2,0.4-0.5,0.8-0.7,1.2l-1.6,3
				c-0.2,0.4-0.8,0.2-0.9-0.2c-0.2-1.2-0.2-2.5,0-3.7c-0.2,0.4-0.5,0.7-0.7,1.1c-0.5,0.8-0.8,1.7-1.3,2.5c-0.2,0.3-0.6,0-0.5-0.3
				c0.3-1,0.7-1.9,1.2-2.8c0.5-0.9,1-1.6,1.7-2.3c0.2-0.2,0.5-0.1,0.6,0.1c0.1,0.1,0.1,0.2,0.1,0.3c-0.2,1.1-0.3,2.3-0.3,3.4
				c0.3-0.6,0.6-1.2,0.9-1.8c0.2-0.5,0.5-0.9,0.8-1.3c0.3-0.4,0.7-0.7,1.2-0.8c0.2,0,0.3,0.1,0.3,0.3
				C96.6,102.2,96.5,102.2,96.5,102.3z M101.7,101.3l-1.9,0.3c-0.6,0.1-1.3,0.2-1.9,0.3c-0.2,0-0.4,0.2-0.4,0.5
				c0,0.1,0.1,0.2,0.1,0.3l-1,2.1c-0.2,0.4-0.4,0.9-0.7,1.3l-0.4,0.7c-0.1,0.2-0.3,0.4-0.3,0.7c-0.1,0.2,0,0.5,0.2,0.6
				c0.2,0.1,0.5,0,0.6-0.2c0.2-0.2,0.3-0.4,0.4-0.7c0.1-0.2,0.2-0.5,0.3-0.7c0.2-0.4,0.4-0.9,0.6-1.3c0.4-0.1,0.7-0.2,1.1-0.3
				c0.2,0,0.4-0.1,0.7-0.1h0.4c0.2,0,0.3-0.1,0.4-0.2c0.2-0.1,0.2-0.4,0.1-0.5c0,0-0.1-0.1-0.1-0.1c-0.1-0.1-0.2-0.1-0.3-0.1
				c-0.1,0-0.1,0-0.2,0c-0.1,0-0.3,0-0.4,0.1c-0.3,0.1-0.5,0.1-0.8,0.2c-0.2,0.1-0.3,0.1-0.5,0.2c0.2-0.6,0.4-1.1,0.6-1.7
				c0.5,0,1-0.1,1.5-0.2l1.5-0.2c0.1,0.1,0.2,0.1,0.3,0.1c0.3,0,0.5-0.3,0.5-0.6c0-0.3-0.2-0.6-0.4-0.6
				C101.8,101.3,101.7,101.3,101.7,101.3z M106.8,101.7c-0.5,0-0.9,0.1-1.4,0.2c-0.4,0.1-0.9,0.2-1.3,0.3c-0.4,0.1-0.9,0.2-1.3,0.4
				c-0.3,0.2-0.7,0.6-0.3,0.9c0.1,0.1,0.2,0.1,0.3,0c0,0,0-0.1,0.1-0.1l0,0l0.2-0.1c0.1,0,0.3-0.1,0.5-0.1l0.5-0.1
				c-0.1,0.2-0.1,0.4-0.2,0.6c-0.1,0.4-0.2,0.8-0.4,1.1s-0.3,0.7-0.4,1.1c-0.2,0.4-0.4,0.8-0.5,1.2c-0.1,0.3,0,0.5,0.3,0.6
				c0.2,0.1,0.5,0,0.6-0.2c0.2-0.4,0.4-0.8,0.6-1.2c0.2-0.4,0.3-0.8,0.4-1.2s0.3-0.8,0.4-1.2c0.1-0.3,0.2-0.7,0.2-1l0.7-0.1
				c0.4,0,0.7-0.1,1.1-0.2c0.2-0.1,0.4-0.3,0.4-0.5C107.1,101.9,107,101.7,106.8,101.7z"/>
			<path class="st93" d="M151.2,148.8c-0.2-0.1-0.4-0.1-0.6-0.2h0.1c0.5-0.3,0.7-0.8,0.8-1.3c0-0.5-0.4-1-0.9-1.1
				c-0.3-0.1-0.5-0.1-0.8,0c-0.3,0.1-0.7,0.1-1,0.2c-0.1,0.1-0.3,0.3-0.1,0.4c0.2,0.1,0.4,0.1,0.6,0.1c-0.2,0.6-0.5,1.1-0.7,1.7
				c-0.1,0.4-0.3,0.7-0.4,1.1c-0.2,0.4-0.3,0.7-0.4,1.1l0,0l0,0l0,0c0,0.1,0,0.2,0.1,0.3c-0.3,0.1-0.5,0.2-0.8,0.2
				c-0.2,0-0.3,0.1-0.3,0.3c-0.1,0.4,0.4,0.6,0.7,0.5c0.4-0.1,0.8-0.3,1.1-0.4c0.8-0.4,1.5-0.8,2.2-1.2c0.3-0.2,0.6-0.4,0.7-0.8
				C151.6,149.3,151.5,148.9,151.2,148.8z M150.8,147.3c-0.1,0.4-0.4,0.6-0.7,0.8l-0.4,0.2c0.2-0.5,0.3-1,0.5-1.5
				C150.5,146.8,150.8,146.9,150.8,147.3L150.8,147.3z M150.8,149.6c-0.2,0.2-0.5,0.3-0.7,0.5c-0.4,0.2-0.8,0.4-1.2,0.6
				c0.1-0.2,0.2-0.5,0.3-0.8l0.2-0.6c0.5-0.1,0.9-0.1,1.4-0.1C150.9,149.4,150.9,149.4,150.8,149.6L150.8,149.6z M155.2,149.6
				c-0.4,0.3-0.8,0.6-1.2,0.9c-0.8,0.6-1.6,1.3-2.4,1.8c-0.4,0.3-0.8-0.4-0.5-0.7s0.9-0.7,1.3-1s0.8-0.6,1.3-0.9l0.7-0.5
				c0.1-0.1,0.2-0.1,0.3-0.2l-0.4-0.1l-0.7-0.2c-0.5,0-0.9-0.2-1.3-0.4c-0.3-0.3-0.3-0.9,0-1.2c0.3-0.3,0.7-0.6,1.1-0.7
				c0.4-0.2,0.9-0.3,1.4-0.2c0.2,0,0.3,0.1,0.3,0.3c0,0.2-0.1,0.3-0.3,0.3c-0.4,0-0.9,0.2-1.2,0.4c-0.2,0.1-0.4,0.2-0.5,0.4
				c-0.1,0.1-0.1,0.1,0,0.2c0.5,0.1,0.9,0.2,1.4,0.3l0.7,0.2c0.2,0,0.4,0.1,0.5,0.3C155.9,149,155.5,149.3,155.2,149.6L155.2,149.6z
				 M160.1,150.1L160.1,150.1c-0.1-0.2-0.3-0.3-0.5-0.3l0,0c-0.1,0-0.2,0.1-0.3,0.2c-0.6,0.3-1.3,0.6-2,0.7c-0.1,0-0.2,0-0.2,0
				c0-0.1,0-0.2,0-0.4c0-0.3,0.1-0.6,0.1-0.9c0.2-0.6,0.5-1.2,1-1.6c0.2-0.2,0.4-0.4,0.7-0.6c0.2-0.1,0.4-0.2,0.6-0.4
				c0.2,0,0.4-0.2,0.4-0.4c0,0,0-0.1,0-0.1c0-0.1-0.2-0.2-0.3-0.3c-0.4,0-0.7,0.1-1,0.3c-0.3,0.1-0.6,0.3-0.8,0.5
				c-0.5,0.4-0.9,1-1.2,1.6c-0.3,0.6-0.5,1.2-0.5,1.9c0,0.4,0.1,0.7,0.3,1c0.3,0.3,0.8,0.3,1.2,0.2c0.9-0.1,1.8-0.5,2.5-1
				C160.2,150.5,160.2,150.3,160.1,150.1L160.1,150.1z"/>
		</g>
	</g>
</g>
</svg>
