<svg id="emXjFNiVSGA1" xmlns="http://www.w3.org/2000/svg" xmlns:xlink="http://www.w3.org/1999/xlink" viewBox="0 0 389.8 239.5" shape-rendering="geometricPrecision" text-rendering="geometricPrecision">
<style><![CDATA[
#emXjFNiVSGA186_to {animation: emXjFNiVSGA186_to__to 2000ms linear 1 normal forwards}@keyframes emXjFNiVSGA186_to__to { 0% {transform: translate(157.559456px,56.701256px)} 35% {transform: translate(157.893059px,41.59256px)} 70% {transform: translate(157.443059px,67.598742px)} 100% {transform: translate(157.443059px,56.751257px)}} #emXjFNiVSGA189_to {animation: emXjFNiVSGA189_to__to 2000ms linear 1 normal forwards}@keyframes emXjFNiVSGA189_to__to { 0% {transform: translate(97.851448px,101.12278px)} 35% {transform: translate(97.851448px,111.324044px)} 70% {transform: translate(97.851448px,92.115236px)} 100% {transform: translate(97.348552px,101.093834px)}} #emXjFNiVSGA192_to {animation: emXjFNiVSGA192_to__to 2000ms linear 1 normal forwards}@keyframes emXjFNiVSGA192_to__to { 0% {transform: translate(154.04802px,146.550003px)} 35% {transform: translate(154.04802px,139.9px)} 70% {transform: translate(154.04802px,153.494583px)} 100% {transform: translate(154.04802px,148.249997px)}}
]]></style>
<defs><linearGradient id="emXjFNiVSGA47-fill" x1="28.79" y1="-0.43" x2="28.79" y2="30.79" spreadMethod="pad" gradientUnits="userSpaceOnUse" gradientTransform="translate(0 0)"><stop id="emXjFNiVSGA47-fill-0" offset="0%" stop-color="#9746df"/><stop id="emXjFNiVSGA47-fill-1" offset="100%" stop-color="#2074fb"/></linearGradient><linearGradient id="emXjFNiVSGA175-fill" x1="37.935" y1="219.99" x2="37.935" y2="17.21" spreadMethod="pad" gradientUnits="userSpaceOnUse" gradientTransform="translate(0 0)"><stop id="emXjFNiVSGA175-fill-0" offset="0%" stop-color="#afcfcf"/><stop id="emXjFNiVSGA175-fill-1" offset="100%" stop-color="rgba(175,207,207,0)"/></linearGradient></defs><g><g><g><rect width="202" height="7" rx="0" ry="0" transform="translate(184.9 128.4)" fill="#868486"/><rect width="193.4" height="7.2" rx="0" ry="0" transform="translate(189.8 134.8)" fill="#757272"/><rect width="178.2" height="72.1" rx="0" ry="0" transform="translate(197.5 141.9)" fill="#848484"/><g><circle r="21.9" transform="translate(367.9 200.7)" fill="#3bb177"/><circle r="18" transform="translate(367.9 200.7)" fill="#a5b3b7"/><ellipse rx="18" ry="18.1" transform="matrix(.2178-.976 0.976 0.2178 367.917503 200.715192)" fill="#2a935c"/><circle r="16.6" transform="translate(367.9 200.7)" fill="#90d6af"/><g><path d="M365.6,200.9c.5-.7,1.1-1.5,2-2.3.6-.5,1-1,1.2-1.3.3-.3.4-.7.4-1.1c0-.5-.2-.9-.6-1.2s-1-.4-1.6-.4c-.7,0-1.4.2-2,.6s-1.1,1-1.5,1.7l-6-3c.9-1.7,2.2-3,4-4s3.9-1.4,6.5-1.4c2.7,0,5,.6,6.7,1.7s2.6,2.7,2.6,4.7c0,.9-.2,1.8-.5,2.5s-.7,1.3-1.2,1.8c-.4.5-1,1-1.7,1.6s-1.2,1.1-1.5,1.5-.5.8-.5,1.3h-6.9c-.1-1.1.2-2,.6-2.7Zm-.4,10.9c-.8-.8-1.2-1.7-1.2-2.9c0-1.1.4-2.1,1.2-2.8.8-.8,1.9-1.1,3.2-1.1s2.4.4,3.2,1.1c.8.8,1.2,1.7,1.2,2.8s-.4,2.1-1.2,2.9-1.9,1.2-3.2,1.2-2.4-.5-3.2-1.2Z" fill="#fff"/></g></g><g><circle r="21.9" transform="translate(333.6 200.7)" fill="#8ea5ad"/><circle r="18" transform="translate(333.6 200.7)" fill="#a5b3b7"/><ellipse rx="18" ry="18.1" transform="matrix(.2178-.976 0.976 0.2178 333.601867 200.695978)" opacity="0.42" fill="#465f66"/><circle r="16.6" transform="translate(333.6 200.7)" fill="#c0c7c9"/><path d="M325,200.7l8.7-13.6l8.7,13.6-8.7,4.9-8.7-4.9Z" fill="#88a7ba"/><path d="M333.6,187.1l8.7,13.6-8.7,4.9v-18.5Z" fill="#6690ab"/><path d="M325,202.5l8.7,5l8.7-5-8.7,11.8-8.7-11.8Z" fill="#88a7ba"/><path d="M333.6,207.5l8.7-5-8.7,11.8v-6.8Zm-8.6-6.8l8.7-3.7l8.7,3.7-8.7,4.9-8.7-4.9Z" fill="#6690ab"/><path d="M333.6,197l8.7,3.7-8.7,4.9v-8.6Z" fill="#5d7687"/></g><g><circle r="21.9" transform="translate(299.2 200.7)" fill="#ef910a"/><circle r="18" transform="translate(299.2 200.7)" fill="#ffb72a"/><ellipse rx="18" ry="18.1" transform="matrix(.2178-.976 0.976 0.2178 299.14547 200.735964)" opacity="0.5" fill="#b75004"/><circle r="16.6" transform="translate(299.2 200.7)" fill="#ffc255"/><path d="M308.5,201.5c-.7-.8-1.7-1.4-2.8-1.6c1.5-.7,2.4-2.4,2.1-4.1-.1-.6-.2-1.3-.6-1.8-.3-.5-.8-.9-1.3-1.2-.6-.3-1.2-.6-1.8-.7-.7-.2-1.5-.3-2.2-.4v-4h-2.4v3.9h-1.9v-3.9h-2.4v4h-4.9v2.6h1.8c.7-.1,1.3.4,1.4,1.1v4.5v0v6.4c0,.5-.4.8-.9.8c0,0,0,0,0,0h-1.8l-.5,2.9h4.9v4h2.4v-4h1.9v4h2.4v-4c.8,0,1.5-.1,2.3-.2.7-.1,1.3-.3,1.9-.6.6-.2,1.1-.5,1.5-.9s.8-.9,1-1.4c.3-.6.5-1.3.5-2c.2-1.3,0-2.4-.6-3.4Zm-10.9-7.1h1.5c.3,0,.6,0,.9,0s.7.1,1,.1c.3.1.6.2.9.3s.5.3.8.4c.2.2.4.4.5.7s.2.6.2.9s0,.6-.1.8-.2.4-.4.6-.4.3-.6.4-.5.2-.8.3l-.8.2c-.3,0-.6.1-.9.1h-.8-1.3l-.1-4.8v0Zm6.6,10.8c-.1.2-.2.4-.4.6s-.4.4-.6.5-.5.2-.8.3-.6.2-.9.2c-.3.1-.6.1-.9.1s-.6,0-.9.1h-.8-1.3v-5.3h.8h1c.3,0,.6,0,1.1.1.4,0,.8.1,1.2.1.3.1.7.2,1,.3s.6.3.9.5c.2.2.4.5.6.7.2.6.2,1.2,0,1.8v0Z" fill="#ef910a"/></g><rect width="178" height="4.1" rx="0" ry="0" transform="translate(197.5 141.9)" fill="#484442"/><rect width="27.8" height="2.2" rx="0" ry="0" transform="translate(264.7 126.1)" fill="#484b4b"/><path d="M275.9,126.1h1.1v-2.3h-.9v2.3h-.2Zm-1.1,0v-2.3h.9v2.3h-.9Z" clip-rule="evenodd" fill="#484b4b" fill-rule="evenodd"/><path d="M279.2,111.3l4-19.2-2.2-.5-1.8,8.7v4.2l2.6-12.7.5.1-3.2,15.2.1,4.2v0Zm-4,8.3l4-19.2v4.2L276,119.8l.5.1l2.6-12.7v4.2l-1.8,8.7-2.1-.5v0Z" clip-rule="evenodd" fill="#484b4b" fill-rule="evenodd"/><path d="M313.1,78.8l-.8-2.1-13.8,5.5v.9l14.1-5.7.2.5-14.3,5.7v.9l14.6-5.7Zm-14.6,3.5v.9L284.1,89l.2.5l14.1-5.7v.9l-13.8,5.5-.8-2.1l14.7-5.8v0Z" clip-rule="evenodd" fill="#484b4b" fill-rule="evenodd"/><path d="M309.5,70.5c.7-.4,1.4-.7,2.2-.9l2.9,3.6c3.3.1,6.3,1.9,8,4.7-2.1,1.1-4.3,2.3-6.5,3.6s-4.3,2.7-6.2,4.1c-1.8-2.8-1.9-6.3-.5-9.3l-1.8-4.2c.6-.7,1.3-1.2,1.9-1.6Z" clip-rule="evenodd" fill="#484b4b" fill-rule="evenodd"/><path d="M282.5,87.6c1.3,0,2.3,1,2.3,2.3s-1,2.3-2.3,2.3v-.5c.5,0,1-.2,1.3-.6.7-.8.7-1.9-.1-2.7-.3-.3-.8-.5-1.3-.5v-.3Zm-1.7.7c-.9.9-.9,2.4,0,3.3c0,0,0,0,0,0c.4.4,1,.7,1.6.7v-.5c-1,0-1.9-.8-1.9-1.9c0-1,.8-1.9,1.9-1.9v-.5c-.6.1-1.2.4-1.6.8v0Z" clip-rule="evenodd" fill="#484b4b" fill-rule="evenodd"/><path d="M275.9,119.5c1.3,0,2.3,1,2.3,2.3s-1,2.3-2.3,2.3v0-.5c1,0,1.9-.8,1.9-1.9c0-1-.8-1.9-1.9-1.9v-.3Zm0,4.7v-.5c-1,0-1.9-.8-1.9-1.9c0-1,.8-1.9,1.9-1.9v-.5c-1.3,0-2.3,1-2.3,2.3-.1,1.4,1,2.5,2.3,2.5Z" clip-rule="evenodd" fill="#484b4b" fill-rule="evenodd"/><path d="M301.3,88.3h57.8c1.6,0,2.9,1.2,2.9,2.8c0,0,0,0,0,.1v31.8c0,1.6-1.3,2.9-2.9,2.9v0h-57.8c-1.6,0-2.9-1.3-2.9-2.9v0-31.8c0-1.6,1.3-2.8,2.9-2.9c0,0,0,0,0,0Z" fill="#ececec"/><rect width="57.8" height="31.8" rx="0" ry="0" transform="translate(301.3 91.2)" fill="#889dab"/><path d="M296.2,124.7h68c1,0,1.8.8,1.8,1.8s-.8,1.8-1.8,1.8h-68c-1,0-1.8-.8-1.8-1.8s.8-1.8,1.8-1.8Z" clip-rule="evenodd" fill="#aeaeb0" fill-rule="evenodd"/><path d="M294.4,126.5h71.6v-1.4c0-.2-.2-.4-.4-.4h-70.8c-.2,0-.4.2-.4.4v0v1.4Z" clip-rule="evenodd" fill="#c2c2c5" fill-rule="evenodd"/><path d="M322.7,124.7h15v0c0,.2-.2.4-.4.4h-14.3c-.1,0-.3-.2-.3-.4v0v0Z" clip-rule="evenodd" fill="#999" fill-rule="evenodd"/><path d="M330.2,90.3c.3,0,.6-.3.6-.6s-.3-.6-.6-.6-.6.3-.6.6c0,.4.3.6.6.6c0,0,0,0,0,0Z" clip-rule="evenodd" fill="#757272" fill-rule="evenodd"/><path d="M330.2,90.1c.2,0,.3-.1.3-.3s-.1-.3-.3-.3-.3.1-.3.3c0,.1.1.3.3.3Z" clip-rule="evenodd" fill="#484442" fill-rule="evenodd"/><rect width="57.8" height="31.8" rx="0" ry="0" transform="translate(301.3 91.2)" fill="#5e5b5d"/><rect width="57.6" height="31.5" rx="0" ry="0" transform="translate(301.4 91.4)" fill="url(#emXjFNiVSGA47-fill)"/><path d="M338.8,107.1c.3.1.6-.1.7.3s-.3.5-.5.6c-.3.1-.5.3-.6.6-.3.8-1,1.4-1.9,1.5-1,.2-2.1-.3-2.6-1.2-.1-.2-.2-.4-.6-.3-.2.1-.4,0-.4-.2c0,0,0,0,0-.1c0-.2,0-.5.2-.5s.4-.3.5-.7c.1-.9.8-1.7,1.7-1.9.9-.3,1.8,0,2.4.6.3.3.4.6.9.4s.6.4.2.9Zm-4.3.2c.2.1.3-.1.4-.1.3-.1.5-.1.6.2s-.1.5-.4.6-.3.1-.5.2-.2.1-.1.3c.3.5.8.9,1.4.9.5.1,1-.2,1.3-.6-.3.1-.5.2-.7.2s-.5.1-.6-.2.1-.5.3-.6.8-.3,1.2-.4c.2,0,.3-.2.3-.3c0,0,0-.1,0-.1-.2-.7-.8-1.3-1.6-1.3-.8-.1-1.5.4-1.6,1.2Zm2.6-2.6c0,.3.2.5.5.6c0,0,.1,0,.1,0c.4,0,.5-.2.5-.6s-.2-.5-.5-.4-.7,0-.6.4Z" fill="#fff"/><path d="M341.5,107.1c0,.8,0,1.6,0,2.3c0,.3-.2.3-.4.3s-.5,0-.5-.3c0-1.1,0-2.2,0-3.2c0-.2-.1-.5.2-.5s.5-.1.8.2c.5.7,1,1.3,1.5,1.9l.4.4c0-.8,0-1.5,0-2.1c0-.3.1-.4.4-.4s.4.1.4.4c0,1,0,2.1,0,3.1c0,.2.1.4-.1.5-.3.1-.6,0-.8-.2-.6-.8-1.2-1.5-1.9-2.4Zm-29.7,2.3c0,.3.1.3.3.3.5,0,.6-.1.6-.6c0-.2,0-.4,0-.7c0-.2-.1-.4.1-.4.2-.1.4,0,.6.2.2.4.5.7.8,1.1.2.3.5.4.8.4s.4-.1.2-.4-.5-.7-.8-1.1c-.1-.2-.2-.2.1-.4.5-.3.8-.9.6-1.5-.3-.5-.7-.8-1.3-.8-.5,0-1,0-1.6,0-.3,0-.4.1-.4.4c0,.6,0,1.1,0,1.7s0,1.2,0,1.8Zm.9-3c0-.1.1-.1.2-.1.3,0,.6,0,.9.1.2,0,.4.2.4.5s-.2.5-.5.5c-.1,0-.3,0-.4,0-.3,0-.6-.2-.7-.6c0-.1,0-.3.1-.4Zm40.3,2.4c.2.2.2.4.3.6.2.5.6.3.9.2s0-.3,0-.5c-.4-1.1-.9-2.2-1.3-3.2-.1-.2-.2-.3-.5-.3s-.5-.2-.7.2c-.5,1.3-1,2.5-1.6,3.8.4,0,.9.1,1-.3s.5-.6.9-.6c.3.1.6.1,1,.1c0,0,0,0,0,0Zm-1.4-.7c.1-.5.3-1,.5-1.5l.6,1.5h-1.1Zm-28,1.2c0,.4.2.4.5.4s.4-.2.4-.4c0-1.1,0-1.1,1.1-1.2.6,0,1.2-.5,1.2-1.1c0,0,0-.1,0-.1c0-.7-.5-1.2-1.2-1.2c0,0,0,0-.1,0-.5,0-1.1,0-1.6,0-.3,0-.4.1-.4.3c0,.6,0,1.1,0,1.6s.2,1.1.1,1.7v0Zm.9-2.4c0-.4.1-.6.6-.6.2,0,.4,0,.5.1.3.1.3.3.3.6c0,.2-.2.4-.4.4s-.3,0-.5,0c-.4.1-.5-.1-.5-.5v0Zm-16,2.1c-.7.1-1.4-.4-1.5-1c0-.1,0-.2,0-.3c0-1,.8-1.4,1.9-1.2.1,0,.4.3.5-.1c0-.2.1-.6-.3-.7-.9-.2-1.8,0-2.5.6-.5.7-.6,1.7-.2,2.5.5.8,1.5,1.2,2.4,1c.6-.1.8-.4.6-1-.4.1-.6.2-.9.2Zm20.5-3.4c-.2,0-.4,0-.4.3s0,.5.4.5c.2,0,.4,0,.6,0s.4.1.4.4c0,.9,0,1.7,0,2.6c0,.4.2.3.5.3s.4,0,.4-.3c0-.6,0-1.3,0-1.9c0-1,0-1,1-1c.3,0,.4-.2.4-.4s-.1-.4-.4-.4c-.5,0-.9,0-1.4,0s-1,0-1.5-.1Zm-11,.8c.8.8,1.2,1.9,1,3c0,.2,0,.3.3.3s.6-.1.5-.5c-.1-.9.1-1.8.8-2.4.3-.3.5-.7.7-1.1-.8-.1-.8-.1-1.2.4l-.1.1c-.6.8-.6.9-1.1,0-.3-.5-.6-.8-1.4-.6.2.3.3.5.5.8Zm29,3.2v0c.7.3.9.2.9-.4v-2.9c0-.7-.2-.8-.9-.5c0,0,0,0,0,.1v0v3.6.1Zm0-3.7v0c0-.1,0-.1,0,0c0-.1-.1-.1,0,0-.1,0-.1,0-.1,0h.1Zm6.1,3v0c0-.1-.1-.1-.1,0h.1Zm-6.1.7v0v0c0-.1-.1-.1,0,0-.1-.1-.1,0-.1,0h.1Z" fill="#fff"/><polygon points="322.8,131.5 314.9,133.7 335,141.3 348.6,128.4" clip-rule="evenodd" fill="#b9b7ad" fill-rule="evenodd"/><polygon points="322.3,129.7 314.4,131.9 334.5,139.6 348.6,128.4" clip-rule="evenodd" fill="#d3d2cc" fill-rule="evenodd"/><polygon points="322.3,128.4 314.4,130.6 334.5,138.2 348.6,128.4" clip-rule="evenodd" fill="#fff" fill-rule="evenodd"/><path d="M291.5,117.9v-.4c0-.6-.5-1.1-1.1-1.1h-7.7c-.6,0-1.1.5-1.1,1.1v9.8c0,.6.5,1.1,1.1,1.1h7.7c.6,0,1.1-.5,1.1-1.1v-3.1c1.2,0,2.3-1.4,2.3-3.2s-1-3.1-2.3-3.1Zm0,5.2v-4.2c.8,0,1.4.9,1.4,2.1s-.6,2.1-1.4,2.1Z" clip-rule="evenodd" fill="#ccc" fill-rule="evenodd"/><rect width="6.8" height="6.8" rx="0" ry="0" transform="matrix(.973-.2307 0.2307 0.973 314.689383 77.884419)" fill="#1190c7"/><polygon points="315.7,78.8 322.4,77.2 322.6,78.1 315.9,79.7" clip-rule="evenodd" fill="#1190c7" fill-rule="evenodd"/><path d="M320.3,82.1c0-.1,0-.2,0-.2c0-.1,0-.1,0-.2s0-.1.1-.1c0-.1.1-.1.1-.2.1-.1.2-.2.3-.4.1-.1.1-.2.1-.4c0-.1,0-.3,0-.4s-.1-.3-.2-.4-.2-.2-.3-.3-.2-.1-.3-.1-.2,0-.3,0h-.3-.2c-.1,0-.2.1-.3.1-.1.1-.2.1-.3.2s-.2.2-.2.3c-.1.1-.1.3-.1.4c0,.2,0,.3,0,.5l.7-.2v0c0-.1,0-.1,0-.2s0-.1,0-.2.1-.1.1-.2c.1-.1.2-.1.3-.1s.1,0,.2,0s.1,0,.2,0s.1.1.2.1c.1.1.1.2.1.2c0,.1,0,.2,0,.3s-.1.2-.2.3-.2.2-.2.3c-.1.1-.1.2-.1.3s0,.2,0,.3s0,.2.1.3h.5v0Zm.2.3v0l-.8.2.2.7.8-.2-.2-.7Z" clip-rule="evenodd" fill="#fff" fill-rule="evenodd"/><rect width="7" height="7" rx="0" ry="0" transform="matrix(.089638-.996 0.996 0.089638 340.129715 94.615904)" fill="#fff"/><rect width="1" height="7" rx="0" ry="0" transform="matrix(.089638-.996 0.996 0.089638 340.635558 88.692791)" fill="#e5e5e4"/><rect width="0.5" height="5.4" rx="0" ry="0" transform="matrix(.089764-.996 0.996 0.089764 340.789228 91.393795)" fill="#4b8cca"/><rect width="0.5" height="5.4" rx="0" ry="0" transform="matrix(.090111-.9959 0.9959 0.090111 340.730279 92.364211)" fill="#4b8cca"/><polygon points="340.6,92.9 346,93.4 346,93.9 340.6,93.4" clip-rule="evenodd" fill="#4b8cca" fill-rule="evenodd"/><rect width="0.5" height="2.7" rx="0" ry="0" transform="matrix(.090111-.9959 0.9959 0.090111 340.48598 94.433006)" fill="#4b8cca"/><path d="M51.3,32.1c-1.6-.2-3.2-.4-4.7-.9-.4-.2-1-.2-1.4,0-.2.2-.4.4-.4.6-.1.8.4,1.6,1.1,2c.8.3,1.6.5,2.4.5l2.3.1c.1,0,.3,0,.4-.1s.1-.3.1-.5c-.1-.6,0-1.1.2-1.6l-.2-.2.2.1Z" clip-rule="evenodd" fill="#e1ae8b" fill-rule="evenodd"/><path d="M52.4,26.9c-1.6-.5-3.2-.8-4.9-.9-.6-.1-1.3,0-1.8.2-.6.2-1,.8-.9,1.5.1.6.6,1,1.1,1.2c2.1,1,5,.2,6.5,2.1-.9.2-1.8.6-2.6,1.1s-1.3,1.3-1.4,2.3c-.1.5.2.9.7,1.1.4,0,.7-.1,1-.4c1.2-.9,2.6-1.5,4.1-1.6l-5.5,3c-.4.1-.7.4-.9.8-.2.7.6,1.3,1.3,1.2s1.3-.5,1.8-.9c1.1-.7,2.3-1.3,3.6-1.5-2.1.7-4.1,1.9-5.7,3.5-.3.3-.6.7-.5,1.2.1.3.4.6.7.7.9.2,1.9,0,2.7-.5.7-.5,1.6-1,2.4-1.4.4.8,1.4,1.1,1.7,1.9.1.3.2.7.2,1c.2,1.5.6,3,1.2,4.4c1.4-.7,3.1-.8,4.6-.3L57.3,32c-.1-.5-.4-1.1-.7-1.5-.3-.3-.5-.6-.9-.9-1.2-1.1-3.3-2.7-3.3-2.7Z" clip-rule="evenodd" fill="#f1ccae" fill-rule="evenodd"/><path d="M38.1,83.5c7.1,1.8,14.4,2.5,21.7,2.2c1,.1,2.1-.2,3-.7c1.4-1,1.6-3,1.6-4.8.1-10.4-1.1-34.8-1.3-34.8-2.8.2-5.5.8-8.2,1.6-.3,9.4-.5,18.9-.7,28.3.1-.5-.4-.9-.9-1.1-2.5-1.2-4.9-2.5-7.2-4-2.3-1.4-4.7-2.8-7.1-4.2-.9-.5-1.8-1.2-2.5-1.9l2,8.6-.4,10.8Z" clip-rule="evenodd" fill="#545453" fill-rule="evenodd"/><path d="M16.6,38.2c.2,1.4,1.9,7.7,2.2,9.3.3,1.8.4,3.7.4,5.6c0,2-.5,3.3-.4,5.3.1,2.5,2.4,10,4.2,10.5s3.5,2.5,5.4,3c.8.2,5.4-7.2,4.3-7.1-.7,0,.3-8.3.2-9.8-2.8-1-4.2-3.3-6.8-5-1.4-1-2.3-2.6-3.3-4s.9-3.2.2-4.6c-.2-.5-5.4-2.2-5.5-2.8l-.9-.4Z" clip-rule="evenodd" fill="#e1ae8b" fill-rule="evenodd"/><path d="M25.9,24.3c0-.1-.3-.1-.1-.1c2.9-.2,16.9,2.6,17.2,2.5c1.6-.5,1.4,3.6,1.3,4.6-.3,1.8-.5,3.1-.7,5s.8,3,.7,5c-.2,3.8-1.9,6.4-3.4,9.8-.4,1-1.5,2.3-1.5,3.4-.2,1-.5,2-1.2,2.9-1.1,1.6-3.4,1-4.9.5-3.5-1.1-6.6-3.1-9.2-5.8-2.9-3.1-3.7-5.2-2.9-9.3-3,.1-4.6-3.5-4.1-6.1.2-1.4,1.2-2.7,2.8-2.5s2.6.7,2.8,2.1c.4-2.1,1.2-4,2.5-5.7c1.5-2.3-.4-4.1.4-6.3h.3Z" clip-rule="evenodd" fill="#f1ccae" fill-rule="evenodd"/><path d="M41,19.7c-2.4-2.6-4.7-5.3-14.1-4.8-1.1.1-1.1,1.3-2.1,1.3-2.8,0-5-.2-6.6.7s-3.6,3-5,4.5c-2,2.1-1.4,7.4-1.4,9.6c0,3.7,2.3,7.2,4.1,10.6.9,1.7,1.9,4.3,3.2,5.6c1.6-3.2-1.6-6.4-1.8-9.3-.1-1.9.7-3.6,2.7-3.4c1.5.1,2.5,1.3,3.2,2.6v-.1c.3-1.1.2-2.2.8-3.2.5-.8,1.6-3.1,2.1-3.9c1.2-1.9.2-2.9-.2-4.9c1.6.2,4.1-.4,5.4.5s2-3.1,3.5-2s3.6,2.9,5.2,1.7c1.2-.9,2.7,3,3.7,1.9c2.3-2.6-.5-5.1-2.7-7.4Z" clip-rule="evenodd" fill="#422611" fill-rule="evenodd"/><path d="M27.5,34.8c1-.9,2.3-1.3,3.7-1.4c1.2-.1,4.7-.5,5.5.4s-.1,1.4-1,1.2-1.5-.8-2.3-1c-1.7-.2-3.5.1-5.1.6-.4.2-.9.4-1.2.7l.4-.5Z" clip-rule="evenodd" fill="#36231c" fill-rule="evenodd"/><path d="M39.3,34.6c.4-1,1.7-1.7,2.6-2.3c1.3-.8,2-1.3,2.3.5-.6.5-1.8.3-2.6.5s-1.5.5-2.1,1.1l-.2.2Z" clip-rule="evenodd" fill="#36231c" fill-rule="evenodd"/><path d="M20.4,39.4c.6-.3,1.2.5,1.5-.2.2-.5-.4-1.4-.7-1.8-.9-1.3-2.2-1.4-2.4.4-.2,1.2,0,3,1.2,3.7s.9.1.7-.6l-.3-1.5Z" clip-rule="evenodd" fill="#e1ae8b" fill-rule="evenodd"/><path d="M31.4,49.6c1.1,1.2,2.5,2.1,4.1,2.7c1.7.5,3.4.4,3.8-1.5-1,.9-3.2.4-4.3,0-.7-.3-3.5-.6-3.6-1.2Z" clip-rule="evenodd" fill="#e1ae8b" fill-rule="evenodd"/><path d="M31.6,49.2c1,.6,2.5.4,3.8.3c1.5,0,2.9.1,4.3.2c0,.1,0,.2.1.2-1.4.7-3.2.2-4.7.2-.7.2-1.4.2-2.1,0-.4-.2-.9-.6-1.4-.9Z" clip-rule="evenodd" fill="#e1ae8b" fill-rule="evenodd"/><path d="M10.5,62.6c2.4-.7,7-3.2,8.3-5.3-.2,4.8,6.1,13.4,9.6,14.6c2.3-1.4,3.9-8.2,4.2-10.4.8,1.7,2.5,2.2,3.5,3.9s1.6,3.6,1.9,5.5c.8,5.3,0,10.7,0,16.1c0,3.9.1,7.9.5,11.8.2,1.3.3,2.7.3,4-.1,1.8-.7,3.5-1,5.3-.2,1.4-.2,2.9.2,4.3.4,1.3.9,2.6,1.5,3.8c2.5,5.5,3.9,11.5,4.2,17.5.1.4,0,.8-.2,1.1-.3.3-.7.4-1.1.4l-19.6,1.9c-1.4.2-2.8.2-4.1-.1-.7-.2-1.4-.6-2.1-.8-1.3-.3-2.6-.3-3.9-.1l-5.1.6c-1.1.1-2.4.4-3,1.4-1.5-6.3,5.5-32.1,4.7-38.6-.7-5.1-9.2-27.8-5-32.9c1.8-1.7,3.9-3.1,6.2-4Z" clip-rule="evenodd" fill="#e6e6e6" fill-rule="evenodd"/><path d="M42.3,128.6c2.2,7,4.6,14.5,5.9,21.8c1.1,5.9,4.2,22.5,4.3,25.3c0,2.8-.5,5.5-1.4,8.2-2.3,8.4-5.8,33.6-6.1,33.6-2.7.8-8.8,2.4-11.5-1.2c0,0,2.2-24.8,7.1-33.2.7-1.4,1-2.9.9-4.4c0-2.3-4.9-9.4-5.8-11.4-3.2-7.6-6.8-21.6-7.1-21.7-.5-.1-1.1,0-1.6.2-2,.9-2.3,11.8-2.3,18.3c0,9.9-.1,17.8-2.1,22.9-.5,1.1-1.1,2.2-1.5,3.4-.6,1.9-.9,3.8-.9,5.7-.4,6-5.2,24.3-3.7,23-6.9,5.6-9.2-1.8-9.2-1.8c2.4-14.7,2.3-36,.8-50.8-.4-3.9-.9-7.7-1.5-11.6-1-7-1.4-14.3-2.7-21.2c6.4-.3,13.2-1,19.6-1.3c6.2-.2,13.5-.6,18.8-3.8Z" clip-rule="evenodd" fill="#3a3a38" fill-rule="evenodd"/><path d="M32,219.4c.2-.8.5-1.5.9-2.3c2.8,2.6,7,2.9,12.5,1.2L56,225.8c5.2.6,7.8,2.9,7.6,6.9-5,1.4-10.3,1.4-15.3,0l-8.7-4.4v2.3l-8.9-2.8c0-1.3,0-2.7.2-4c.3-1.5.6-3,1.1-4.4Z" clip-rule="evenodd" fill="#110f0a" fill-rule="evenodd"/><path d="M5.4,228.4l2.2-9.2c.3,2.8,4.4,4,9.3.8l1.8,4.7l1.9,5.7c2.3,4.1,2.3,7.1,0,8.9-6.2.8-10.6-1.1-13.1-5.8l-.9-3.4-1.2-1.7Z" clip-rule="evenodd" fill="#110f0a" fill-rule="evenodd"/><path d="M28.3,38.6c.4-.6,1-1.1,1.5-1.5.7-.4,1.4-.7,2.2-.7c1.6-.1,2.7,1.3,3.3,2.5.1.1.1.3.2.4-.8.2-1.5.4-2.3.5-.9,0-1.7,0-2.5-.1-.9.1-1.8-.4-2.4-1.1v0Z" clip-rule="evenodd" fill="#e5e3e1" fill-rule="evenodd"/><path d="M29.1,37.8c.3-.3.6-.5.9-.8.6-.5,1.4-.7,2.2-.7.4,0,.8.1,1.1.3.4.1.8.3,1.1.6s.6.6.8,1c.2.3.1.6.3.9c0,.1.1.2.1.3-.5-.5-.7-1.4-1.3-1.9s-1.4-.9-2.2-.9c-.7-.1-1.3.1-1.9.5-.7.3-1.2.8-1.7,1.3l.6-.6Z" clip-rule="evenodd" fill="#3b2416" fill-rule="evenodd"/><path d="M28.6,38.9c.2.2.5.4.8.6.3.1.7.3,1,.3.7.2,4.5.4,5.2-.4-.6.2-1.2.4-1.8.4-1.1,0-2.2,0-3.3-.2-.3-.1-.3-.1-.5-.2-.3-.1-.6-.2-.8-.3l-.8-.6.2.4Z" clip-rule="evenodd" fill="#c9a488" fill-rule="evenodd"/><path d="M34,38.1c.1.9-.5,1.6-1.4,1.7s-1.6-.5-1.7-1.4c0,0,0-.1,0-.1c0-.9.6-1.6,1.5-1.6.8,0,1.5.6,1.6,1.4Z" clip-rule="evenodd" fill="#3b2416" fill-rule="evenodd"/><path d="M34,38.1c.1.8-.6,1.5-1.4,1.6s-1.5-.6-1.6-1.4.6-1.5,1.4-1.6c.8,0,1.5.6,1.6,1.4Z" clip-rule="evenodd" fill="#6d4428" fill-rule="evenodd"/><path d="M34,38.1c.1.6-.4,1.2-1,1.3s-1.2-.4-1.3-1s.4-1.2,1-1.3c0,0,0,0,.1,0c.6,0,1.1.4,1.2,1Z" clip-rule="evenodd" fill="#030505" fill-rule="evenodd"/><path d="M32.5,38.4c0,.3-.2.6-.5.6c0,0,0,0,0,0-.3,0-.6-.2-.6-.5s.2-.6.5-.6.6.2.6.5Z" clip-rule="evenodd" fill="#e5e5e3" fill-rule="evenodd"/><path d="M38.5,38.8c.3-.4.4-1.3.8-1.7.5-.3,1-.5,1.6-.6c1.2-.2,1.8.7,2.3,1.6.1.2,0,.5-.1.7-.4.3-.9.5-1.4.6s-1.1.1-1.6,0c-.4-.1-1-.3-1.6-.6Z" clip-rule="evenodd" fill="#e5e3e1" fill-rule="evenodd"/><path d="M42.8,37.9c0,.8-.7,1.4-1.5,1.3-.8,0-1.4-.7-1.3-1.5v0c0-.8.7-1.4,1.5-1.3.7.1,1.3.7,1.3,1.5Z" clip-rule="evenodd" fill="#3b2416" fill-rule="evenodd"/><path d="M42.8,37.9c0,.7-.7,1.3-1.4,1.3s-1.3-.7-1.3-1.4.7-1.3,1.4-1.3s1.3.7,1.3,1.4Z" clip-rule="evenodd" fill="#6d4428" fill-rule="evenodd"/><path d="M38.5,38.8l.5.2c.3.1.7.2,1,.3.7.2,1.5.2,2.3-.1.4-.1.7-.3,1-.6-.3.5-.8.8-1.4.9-1.2.2-2.4,0-3.4-.7Z" clip-rule="evenodd" fill="#c9a488" fill-rule="evenodd"/><path d="M38.5,38.8c.3-.7.7-1.4,1.3-1.9.7-.4,1.5-.4,2.2-.1.7.4,1.2,1,1.4,1.8c0-.7-.4-1.3-.9-1.7-.6-.5-1.4-.6-2.1-.5-.5.2-.9.5-1.2.8l-.7,1.6Z" clip-rule="evenodd" fill="#3b2416" fill-rule="evenodd"/><path d="M39.4,34.5c-2,1.6-1,6.3-.1,8.3.5,1,1.6,2.9-.1,3.3-.9.2-1.9-.8-2.8-.7-.5,0-.8,0-1,.6-.3,1.1,1.4.7,2.1.9s1.7.3,2.2-.1c1.1-.9.3-3.2-.2-4.2-.9-2.1-2.1-6.2-.1-8.1Z" clip-rule="evenodd" fill="#e1ae8b" fill-rule="evenodd"/><path d="M39.9,20.8c-2.8-1-1.9-4.7-12.5-2.5-6,1.2-7.1,2.2-7.1-1.9c0-1.1-.1-2.3-.3-3.4c0,0-1.2,3.5-1.8,3.8l-5-4.1c0,0,3.9,6.1,2.9,5.1-1.3-1.2-5-.4-5-.4s3.8,1.5,2.8,1.6c-2.1.1-4.5,5.2-4.5,5.2s3.9-2.8,5.4-2.6c1.9.2,6.6,4.5,6.6,4.5l6.3,5.1c.9-.6-.8-3.5-.8-3.5l3.7,3.5c.9-.5-.9-4-.9-4l4.2,4.5c.9-.5,0-3.7,0-3.7s5.3,3.1,5.3,3.7c0,.8,1-2.9,1-2.9c1.4.7,2.7,1.6,3.9,2.6s.7-4.2.7-4.2l4.8,1.3c.4.3,2.8-3.2-9.7-7.7Z" clip-rule="evenodd" fill="#422611" fill-rule="evenodd"/><path d="M19.1,17.4c2.8-3.3,9-6.9,9-6.9l1.4,3.8c.4-.7,9.7-4.9,8.7-3.9-.3.4-3.5,4.2-3.4,4.2s10.9-3.5,8.7-1.9c-.8.5-3.2,2.3-3.2,2.3-2.4-.4,9.7,1.6,7.1,2.2-1.8.4-3.2.8-3.2.8s3.8.6,3.8,2l-3.8.5c0,0,3.5.7,3.4,1.8l-2.9.7-25.6-5.6Z" clip-rule="evenodd" fill="#422611" fill-rule="evenodd"/><path d="M42.7,37.8c-.1.5-.7.9-1.2.8-.3-.1-.6-.3-.7-.6.1-.5.7-.9,1.2-.8.3,0,.5.2.7.6Z" clip-rule="evenodd" fill="#030505" fill-rule="evenodd"/><path d="M41.4,38c0,.3-.2.5-.4.5-.3,0-.5-.2-.5-.4s.2-.5.4-.5c0,0,0,0,0,0c.2-.1.4.1.5.4c0,0,0,0,0,0Z" clip-rule="evenodd" fill="#e5e5e3" fill-rule="evenodd"/><path d="M30.7,85.1c.6,2.7,1.8,8.6,2.2,11.3.9,5.3,1.5,10.7,2.2,16c1,7.4,4.5,21.7-1.3,28-1.9,1.9-4.3,3.2-7,3.8-5.1,1.1-10.6.1-15.6-.5-1.1-.2-2.2-.2-3.3-.1-1.9.3-3.6.6-5.5,1-3.2-16.9,7.5-36.2,3-52.9C4.2,87.8,2,84.2,0.9,80.3c-1.1-3.4-1.1-7.1-.1-10.6c1-3.3,4.8-5.2,7.8-6.5s6.2-2.5,8.9-4.4l1.1,3.4L23.1,69l4.5,6.8l3.1,9.3Z" clip-rule="evenodd" fill="#545453" fill-rule="evenodd"/><path d="M32.6,61.1c1.9,1.1,3.6,2.5,5.1,4.1c1.3,1.4,2.2,3.1,2.6,4.9.3,2.3-.3,4.9-.6,7.2-.1,1.1-.2,2.2-.3,3.3-.4,8-.2,16,.6,23.9.3,3.6,1,7.1,2.1,10.5.4,1.4.8,2.9,1.1,4.3c1.2,5,1.4,6.1,2.7,11.1.4,1.5.6,3.1.9,4.6.2,1,.7,2.3.8,3.1-1.5-.1-3-.6-4.4-1.4-1.3-1-2.2-2.3-2.8-3.9-1.3-3-1.1-4.2-1.5-7.4-.5-4-.8-5.6-1-9.3L36.4,95c-.1-1-.2-2-.3-3-.1-1.8-.1-3.7,0-5.5.2-3.9.2-7.9-.2-11.8-.4-3.1-.7-6.5-2.2-9.2l-1.4-2.6.3-1.8Z" clip-rule="evenodd" fill="#545453" fill-rule="evenodd"/><path d="M55.2,92.9c-.5-.5-.6-1.3-.3-1.9s.6-1.2,1-1.8c.5-1,.8-2.1.7-3.2-.1-.6-.2-1.2-.1-1.8c0-.6.5-1.2,1.1-1.3.4,0,.7.1,1,.3.4.2.8.6,1,1c.3,1-.7,2.2-.4,3.2.3.7,1.1,1.1,1.8,1s1.5-.3,2.2-.6c1.2-.3,2.4-.4,3.7-.3.6,0,1.1.1,1.6.3.6.2.9.7,1,1.3c0,1-1.2,1.6-2.2,1.8.3.5.4,1,.5,1.5s-.2,1-.7,1.3c-.3.1-.6.2-.8.3-.7.5-.2,1.5-.3,2.3-.2,1-.9,1.8-1.8,2.1-2,1-4.2,1-6.2.2-.5-.3-1-.5-1.5-.6-1.1-.1-2.1.2-3,.9-.3-1.8-.9-3.6-1.8-5.2c1.3-.2,2.7-.5,3.9-.9l-.4.1Z" clip-rule="evenodd" fill="#f8d7c9" fill-rule="evenodd"/><path d="M56.1,99.7c-1-2.4-1.7-4.8-2.2-7.3C47,93.9,40.2,96,33.7,98.7L19.1,81.1c-1.6-2-8.4-13.9-10.4-15.6C5.8,63.2,-4,69.5,3.2,81c4.3,5.7,8.9,11.2,13.7,16.5c1.8,2,3.8,3.9,5.9,5.5c2.8,2,10.5,8,12,8.2.7.1,1.4,0,2.1-.3c7.3-2,19.2-11.2,19.2-11.2Z" clip-rule="evenodd" fill="#6d6d6d" fill-rule="evenodd"/><path d="M20.4,71.2c1.5,2.2,3,4.4,4.6,6.6c3.3,4.7,5.8,9.9,7.3,15.4-.3-2.9-.8-5.8-1.3-8.6s-1.2-5.6-2.1-8.4c-.8-2.4-1.9-4.7-3.3-6.8-1.3-2.1-2.5-4.3-3.7-6.5-1.6-2.7-2.6-5.8-2.8-9c0,2.1-2,3.6-2.9,5.3-.7,1.6-.7,3.3,0,4.9.6,1.5,1.3,3,2.3,4.3l2.8-.3-.9,3.1Z" clip-rule="evenodd" fill="#6d6d6d" fill-rule="evenodd"/><path d="M36,67.2c1.3,4.2,1.7,8.6,1.3,13-.3,3.9-1.4,8-1.3,11.8-.1-4.4.2-9-.4-13.4-.6-3.5-1.6-6.9-3.1-10.1l-.8-1.8-.2-.5c.5-1.8.9-3.7,1.1-5.6.9,1.3,1.7,2.6,2.4,4L34.2,66L36,67.2Z" fill="#6d6d6d"/><path d="M22,118c.1,1.5-.1,4.2-1.5,5.2s-4.1.8-5.7.9c-1.1,0-2.1,0-3.1,0-1.4.1-2.9-.3-4.1-1-.4-.2-.7-.6-.8-1s-.1-.8,0-1.2l.3-2.8c3.3-.8,6.6-1.3,10-1.2c1.7,0,3.3.4,4.9,1.1Z" clip-rule="evenodd" fill="#6d6d6d" fill-rule="evenodd"/><path d="M286.7,213.6c-1.3,1.9,1.1,5.8-.1,7-2.5-1-10.9-1.4-12.6-.7s2.1-5.3,4-6.9s3.1-1.3,3.1-1.3l5.6,1.9Z" clip-rule="evenodd" fill="#6d6e70" fill-rule="evenodd"/><path d="M204.3,89.4c-2.4,1.7-5,3-7.8,3.9c1.5-2.8,4.2-4,7.8-3.9Z" fill="#202c30"/><path d="M206.1,111c-.8.2-12.4-29.5-12.9-30.2s2.4-7.1,2.9-8.2c.8-1.9,4.2-2.9,6-3.2c1.3,1.5-1.2,3.7-3.7,4.6c0,0-.3,6.9.4,7.1.3.1,2.4,4.1,3.4,9c.3,1.7,9.7,16.2,9.6,16.3l-5.7,4.6Z" clip-rule="evenodd" fill="#f3c3b0" fill-rule="evenodd"/><path d="M199.9,90.9c.3,1.1,3.7,6.7,6,10.6l.9,1.5c.5-.8.9-1.6,1.2-2.4l-.1-.1c-2.6-4.2-5.7-9.3-5.9-10.3-.1-.3-.1-.7-.2-1h-2.1c0,.6,0,1.2.2,1.7Z" clip-rule="evenodd" fill="#e7bba7" fill-rule="evenodd"/><path d="M211.4,104.7l-3.2-4.1v0c0,0,.1.3.3.7.6,1.4,1.3,2.8,2.1,4.1.2.6.4,1.2.5,1.8.4,2,.8,5,.8,4.8s.7-5.7.7-5.7s11.2-4.4,14.3-8.6l-.4-1.6c-.4-.2-7.6,2.7-7.9,2.3l-7.2,6.3Z" clip-rule="evenodd" fill="#ce8246" fill-rule="evenodd"/><path d="M235.1,77.5c-4,3.1-7.2,7-10.5,10.7-3.5,3.9-6.6,8.1-9.7,12.3-.3-.2-.7-.1-.9.1-.2.3-.2.6-.1.9-.3-.2-.8-.3-1.2-.1-.4.3-.5.7-.5,1.1-3.4-3.9-6-8.4-7.8-13.2-2.4,1.7-5,3-7.8,3.9c3.4,8.5,8.1,16.4,13.8,23.5c1,1.3,2.9,1.5,4.2.5c7.3-5.8,14.4-12.2,19.8-19.8l.6-14.8.1-5.1Z" fill="#35454c"/><path d="M236,77.1c-4.6,2.4-4.3,7.2-4.7,11.7-.4,5.8-1.2,11.6-2.4,17.2-1.1,4.7-2.2,9.4-3.4,14.1-1.6,6-3.3,12.4-2.7,18.7.4,3.6,2.7,5.8,6.1,6.9.8.3,1.7.4,2.6.5l5.9-6.4L236,77.1Z" fill="#35454c"/><path d="M259.8,38.7c0,0-5.5-4.5-7.2-4.2-1.4.2,5.2-2.5,5.2-2.5l-6.4.5c-.3-.6,1.3-6.5,1.3-6.5s-4.1,1.8-4.9,3.1c-2.4,3.4,2.1,8.4,3.8,9.3c1.3.7,4.8,7.7,4.8,7.7s-.9-8-2.6-9.3c-.9-.7,6,1.9,6,1.9Z" clip-rule="evenodd" fill="#b56215" fill-rule="evenodd"/><path d="M201.1,209.5c-.6.1-2.9,1.7-9.1,4.4s-10.2,2-11.2,3.8-1.1,4,1.9,4.6s17.8-.3,21-.4s4.3.1,4.7-.8-.4-6.3-1.1-8.5-6.2-3.1-6.2-3.1Z" clip-rule="evenodd" fill="#464747" fill-rule="evenodd"/><path d="M180.3,218.8c-.5,1.5,0,3.1,2.4,3.5c2.9.6,17.8-.3,21-.4s4.3.1,4.7-.8c.1-.6.1-1.2.1-1.8-.8.4-1.7.8-2.5,1.2-1.7.8-18.5.9-20.8.7s-2.8-1.2-4-2c-.3-.2-.6-.4-.9-.4Z" clip-rule="evenodd" fill="#333435" fill-rule="evenodd"/><path d="M286.9,209.9c-.6.1-3.2,1-9.1,4.4-7.5,4.3-9.5,12-6,13c0,0,10.8,1.5,16.7-.2c3.3-1,4.2-2.6,2.7-8.6-.6-2.2-.6-4.2-1.1-5.8-.6-1.4-1.8-2.4-3.2-2.8Z" clip-rule="evenodd" fill="#464747" fill-rule="evenodd"/><path d="M236.5,130.2c-2.3,7-3.8,11.5-3.8,11.5l-27.6,23.4c-3.4,2.9-10.8,36.8-11.8,41.4s-3.3,7-1.5,7.8s16.6,6.7,16.5,3.5s4.5-38.3,6.3-41.2s18.1-13.8,21.1-15.9s8.3-6.6,8.3-6.6s6.3,26.4,8.5,28.5s23.1,33.6,23.1,33.6c2.1.4,4.2.6,6.3.6c3.5,0,6.5-1.1,7.8-2.1.8-.7,1.5-1.4,2.1-2.2l-26.2-36.8-2.9-21.7c-.3-2.1,2.1-6,.8-11.4-.9-3.6-2.4-7-4.4-10.1l-22.6-2.3Z" clip-rule="evenodd" fill="#4b5d67" fill-rule="evenodd"/><path d="M233.3,139.9c-.4,1.2-.6,1.8-.6,1.8l-27.6,23.4c-3.4,2.9-10.8,36.8-11.8,41.4s-3.3,7-1.5,7.8s16.6,6.7,16.5,3.5s4.5-38.3,6.3-41.2s18.1-13.8,21.1-15.9s8.3-6.6,8.3-6.6l-4.9-11.2-5.8-3Z" clip-rule="evenodd" fill="#35454c" fill-rule="evenodd"/><path d="M232,98.4c-.1-2,0-4,.1-5.9c0-2,.1-4.1.3-6.1.4-3.4.8-6.7,1.4-10.1.2-1.4.5-2.8.9-4.1.2-.5.4-1,.8-1.4.1-.2,1.1-.9,1.1-1l-.3,9.2L232,98.4Z" fill="#4b5d67"/><path d="M240.4,69.5c-2.9,1.8-4.5,3.3-5.2,6.7-1.4,7.4-2.5,14.9-3.3,22.3-.5,4.8.1,9.5.1,14.3c0,6.2-.2,12.5-.4,18.7-.1,3.2-.8,7-.3,10.2.3,1.9,7.1,6.4,11.1,4.3c3.5-1.6,7.1-2.9,10.8-3.8l-8.4-70.6-4.4-2.1Z" clip-rule="evenodd" fill="#ffa822" fill-rule="evenodd"/><path d="M262.5,139.3c-3.2,2-14.3,3.8-20,6.7-2.5,1.3-6.1.1-8.5-1.4c1,.9,2.1,1.8,3.3,2.4c3,1.6,5.6-.8,10.1-1.9c3.9-.9,13.2-3.5,15.6-4.2-.1-.6-.3-1.1-.5-1.6Z" clip-rule="evenodd" fill="#4b5964" fill-rule="evenodd"/><path d="M231.9,120.4c-.1,5-.7,20.6-.5,21.5.1.2.2.5.3.7.6.8,1.4,1.5,2.3,2.1c2.4,1.6,6,2.8,8.5,1.4c3.9-2.1,10.5-3.6,15.2-4.9l.2-.1c1.6-.4,3.1-1,4.6-1.8.6-.3.9-.7.9-1.1c0-.9-.8-6.7-1.7-13.6v0c-.2-1.3-.4-2.7-.6-4-.2,1.2-.3,2.7-.5,4.2v0c-.4,2.7-.5,5.5-.4,8.3.1.5.1.9.1,1.3.1,2.1-.8,3.1-4.4,4.6-4.3,1.8-12.5,5.4-16.9,5.2s-4.4-2.6-5.5-5.3s1.5-4.5,2.2-6.6-1.3-2.9-2.1-6.4c-.5-2.1-1.4-5.9-2.1-8.7.3,1.1.4,2.1.4,3.2Z" opacity="0.22" clip-rule="evenodd" fill="#592500" fill-rule="evenodd"/><path d="M270.1,224.4c3.2.1,13.1,1.4,16.8.9c2-.3,3.8-1.3,4.9-2.9.2,3-.9,4.1-3.4,4.8-5.9,1.7-16.7.2-16.7.2-1.2-.4-1.7-1.5-1.6-3Z" clip-rule="evenodd" fill="#333435" fill-rule="evenodd"/><path d="M246.7,56.9c-.3,3.8-.4,7.6-.3,11.4-.7,4.6-9.2,10.5-11,9.4-.4-.3.2-9.3.2-9.3l11.1-11.5Z" clip-rule="evenodd" fill="#f3c3b0" fill-rule="evenodd"/><path d="M246.7,50.9c.2-1.3-.1-.6,1.1-1.3c1-.8,2.5-.6,3.4.3c1.7,2.2-1.1,5.8-2.6,7.3-.9.9-1.3.5-2.4.2-.3,1.5-.8,2.9-.9,4.4-.2,1.3-.9,2.5-2,3.3-2,1.6-4.8,3.6-7.4,3.8-1.5.1-2.9.1-4.4,0-1.6,0-2.5-.1-3.6-1.3-1-1-1.6-2.2-1.9-3.6-.4-1.5-.9-3.1-1.5-4.5-1.3-2.6-1.1-7.2-.9-8.7.2-1.2.1-2.4-.1-3.5-.3-1.4-.2-2.8.3-4.2.5-1.6,1.1-3.2,1.5-4.9c1.3.2,2.6.2,3.9.1c1.8,0,3.6.2,5.4.1s3.7-.1,5.5-.2c.7,0,1.5-.1,2.2-.1c1.1,0,1,.5,1.3,1.4.7,1.9,1.8,3.8,2.2,5.8.4,1.3.5,2.7.3,4.1-.2,1-.3,2-.3,3c.1.9.4-1.1,1.1-1.1.2,0-.7.2-.7.1l.5-.5Z" clip-rule="evenodd" fill="#f3c3b0" fill-rule="evenodd"/><path d="M233.8,47.4c0-.6.4-1.1,1-1.2.8-.2,1.7-.3,2.6-.2c1,0,2,0,3,.1.8.2,1.6.6,2.2,1.2.3.2.5.5.4.7-.4-.1-.6-.3-.9-.5s-.7-.3-1.1-.4c-.9-.2-1.8-.3-2.8-.3-.8,0-1.6,0-2.4.2-.4.1-.8.1-1.1.2s-.5.4-.9.3v-.1Z" clip-rule="evenodd" fill="#984907" fill-rule="evenodd"/><path d="M231.9,50.8c-.1,1-.3,2.1-.7,3-.5.9-.8,1.7-1.1,2.7-.2.4-.4.9-.4,1.4.1.6.6.6,1.1.7s1.1.2,1.6.3c.4,0,.9-.2,1.3-.2.2,0,.3,0,.4-.1-1,.6-5.3,1.2-4.7-1.1.1-.4.4-.9.5-1.3.2-.4.3-.9.6-1.3.4-.8.8-1.7,1.1-2.6.1-.4.2-1.4.3-1.5Z" clip-rule="evenodd" fill="#d7a679" fill-rule="evenodd"/><path d="M226.6,37.1c.6.8-.3,1.9-.6,2.6-.4.9-.7,1.8-1.1,2.6-.8,1.7-1.9,3.4-1.6,5.4v0c-.8-1.1-1.6-2.2-2.2-3.3-.7-1.4-.6-3,.2-4.3.6-1,1.2-.9,1.5-2c.4-1.6,1.3-1.6,3.8-1.2c0,.3-.1.6-.2.8l.2-.6Z" clip-rule="evenodd" fill="#b56215" fill-rule="evenodd"/><path d="M247,52.8c.1-.1.1-.4.2-.6c0-.2.1-.4.2-.5.2-.3.6-.6.9-.8.4-.3.8-.4,1.2-.3s.8.4,1,.7c.5.6,0,1.8-.2,2.3-.1.4-.4.8-.7,1-.4.2-.7.5-1,.8s-.5.9-.8,1.2-.9.3-1.2,0c1.1.2,1.2-.6,1.7-1.3.2-.4.5-.7.9-.9.4-.3.8-.5,1-.9s.3-.9.3-1.3c-.1-.4-.3-.8-.7-1.1-.9-.7-1.5,0-2.1.6-.2.2-.3.5-.3.7-.1.2-.2.6-.4.6-.1,0-.1-.1,0-.2v0Z" clip-rule="evenodd" fill="#e0a980" fill-rule="evenodd"/><path d="M232.8,64.3c-1.2.2-3.9-.5-4.3-1.9.7.1,3-.5,3.7-.4s3,.3,4.2.5c0,0-.8,1.3-3.6,1.8Z" clip-rule="evenodd" fill="#ecf3ec" fill-rule="evenodd"/><path d="M236.5,62.5c-1,.8-2.1,1.4-3.4,1.6-.9.1-3.2-.1-4.1-1.3-.1-.2-.5-.3-.6-.4.6,1.6,2.1,2.8,3.9,2.9c1.5.1,3-1.4,3.6-2.1.2-.2.4-.5.6-.7v0Z" clip-rule="evenodd" fill="#e5ae82" fill-rule="evenodd"/><path d="M236.4,62.4c-.1,0-2.6-1.4-3.3-1.3s-1.3.1-2,.1c-1,.1-1.9,1.2-2.8,1.1.8.5,2.6-.3,4-.2l4.1.3Z" clip-rule="evenodd" fill="#eeab7e" fill-rule="evenodd"/><path d="M232.8,64.1c-1.6.1-3.2-.5-4.2-1.7c3,3.1,7.1.8,7.5.6-1.1.6-2.2,1-3.3,1.1Z" clip-rule="evenodd" fill="#4f2d18" fill-rule="evenodd"/><path d="M224.3,47.7c0-.4.2-.8.6-1c.5-.3,1.1-.5,1.7-.6s1.3-.1,1.9,0s1.1.4,1.5.9c.2.2.3.6.1.7s-.4-.1-.6-.2c-.2-.2-.4-.3-.6-.4-.6-.2-1.2-.2-1.7-.2s-1,.1-1.5.2c-.2.1-.5.2-.7.2-.3.3-.5.6-.7.4v0Z" clip-rule="evenodd" fill="#984907" fill-rule="evenodd"/><path d="M242.2,48.3c.1.7-.3,1.3-.4,1.9c1.7.2,3.4.6,5,1.2.2-.4.4-.8.7-1.2-.5-.3-5.3-1.9-5.3-1.9Z" clip-rule="evenodd" fill="#fcfcfc" fill-rule="evenodd"/><path d="M222.3,47.5c-.2.2-.3.6-.1.9.1.3.4.5.5.8s.2.7.2,1c0,.7,0,1.5.1,2.2.2.8.7,1.5,1.4,2s1.5.8,2.3.9c.9,0,1.8-.2,2.6-.6.9-.5,1.5-1.3,1.8-2.2.4-1,.4-1.5.8-2.5.2-.3.6-.4.9-.3.3.8.6,1.7.9,2.5.4.7.8,1.4,1.4,2c.8.6,1.7,1,2.7,1.2c1.3.2,2.7-.2,3.6-1.1c1-.9,1.6-2.2,1.7-3.5c0-.4,0-.8.2-1.1.1-.4.5-.6.7-1s.2-.9-.2-1.1c-.1-.1-.2-.1-.3-.1-1-.1-2.1-.2-3.1-.3-.9-.1-1.9-.1-2.8-.1-1.8.2-3.6.9-5.4.9-1.6,0-3.2-.7-4.8-.7-.7,0-1.5.1-2.2.1-1.1.2-2.9.1-2.9.1Z" clip-rule="evenodd" fill="#110f0a" fill-rule="evenodd"/><path d="M223.7,50.9c0,1,.3,2,.9,2.8.6.5,1.3.8,2.1.9.5.1,1.1,0,1.6-.2c1-.5,1.8-1.4,2.2-2.5.2-.5.6-2.2-.4-3-1.1-.6-2.4-.9-3.7-.9-.9,0-1.8.4-2.4,1-.1.8-.2,1.3-.3,1.9Z" clip-rule="evenodd" fill="#f3c3b0" fill-rule="evenodd"/><path d="M234.7,52.8c.9,1.5,1.4,1.5,1.6,1.6.9.4,1.9.6,2.9.4.8,0,1.5-.4,2.1-1c.2-.3.3-.5.4-.8.4-1,.5-2,.5-3c0-.6-.2-1.2-.6-1.6-.3-.2-.6-.3-.9-.3-.9-.2-1.8-.2-2.6-.2-1,0-2.4-.1-3.1.6-1.9,1.8-.6,3.9-.3,4.3Z" clip-rule="evenodd" fill="#f3c3b0" fill-rule="evenodd"/><path d="M240.4,51.7c-.4.2-.9.3-1.4.3-1.1.1-2.1.1-3.2,0-.3,0-1.3-.2-1.4-.5s.5-.9.7-1.1.4-.3.6-.5.2-.5.4-.7c.3-.4.8-.6,1.3-.5.9-.1,1.8.1,2.5.5.4.2.6.6.9.9.2.2.7.5.7.7-.1,0,0,0-.1,0s-.7.7-1,.9Z" clip-rule="evenodd" fill="#fff" fill-rule="evenodd"/><path d="M241.5,50.8c-.6-.8-1.4-1.5-2.3-2-.9-.4-1.9-.4-2.9,0-.5.3-.9.7-1.2,1.2-.3.4-.6.9-.8,1.3.2-.1.3-.6.8-1c.3-.3.6-.6.9-.9.7-.8,1.9-.7,2.9-.6.5.2,1,.4,1.5.8.2.2.4.4.6.6.2.3.4.5.5.6Z" clip-rule="evenodd" fill="#462d1a" fill-rule="evenodd"/><path d="M235.9,50c-.2.9.4,1.8,1.4,2c.9.1,1.8-.5,1.9-1.4c0,0,0,0,0,0c.2-.9-.4-1.8-1.4-2c0,0,0,0,0,0-.8-.1-1.7.5-1.9,1.4c0,0,0,0,0,0Z" clip-rule="evenodd" fill="#2f94ab" fill-rule="evenodd"/><path d="M238,49.6c0,.2.1.4.3.5.2,0,.4-.1.4-.3c0,0,0,0,0,0c0-.2-.1-.4-.3-.5s-.4.1-.4.3v0Z" clip-rule="evenodd" fill="#fff" fill-rule="evenodd"/><path d="M236.3,50.3c-.1.4.2.8.6.9s.8-.2.9-.6-.2-.8-.6-.9-.8.1-.9.6c0,0,0,0,0,0Z" clip-rule="evenodd" fill-rule="evenodd"/><path d="M237,50.5c0,.1.1.3.2.3c0,0,0,0,0,0c.1,0,.2,0,.3-.2c0,0,0,0,0,0c0-.1-.1-.3-.2-.3s-.3.1-.3.2Z" clip-rule="evenodd" fill="#fff" fill-rule="evenodd"/><path d="M230.3,50.8c-.4-.7-.9-1.3-1.5-1.8-.3-.2-.6-.4-.9-.5s-.7-.1-1,.1c-.3.1-.6.3-.9.5-.1.1-.2,0-.3.2-.2.2-.3.4-.5.5-.1.1-.1.2,0,.4s.2.3.3.4c.2.3.6.5.9.6.8.2,1.5.2,2.3.2.3,0,1.8,0,1.8-.5l-.2-.1Z" clip-rule="evenodd" fill="#fff" fill-rule="evenodd"/><path d="M230,50.5c-.4-.7-.9-1.3-1.6-1.8-.7-.3-1.5-.3-2.2.1-.6.3-1,.7-1.3,1.3.2-.2.5-.4.8-.6.3-.3.6-.5,1-.7.7-.2,1.4-.2,2,.2.3.2.6.5.8.8.1.1.2.3.3.4c0,.1.1.1.2.3-.1,0,.3.5.3.5l-.3-.5Z" clip-rule="evenodd" fill="#795438" fill-rule="evenodd"/><path d="M226,49.9c-.1.8.4,1.5,1.2,1.7.8.1,1.5-.4,1.7-1.2s-.4-1.5-1.2-1.7c-.9-.2-1.6.3-1.7,1.2c0-.1,0-.1,0,0Z" clip-rule="evenodd" fill="#2f94ab" fill-rule="evenodd"/><path d="M227.7,49.4c0,.2.1.4.3.4s.4-.1.4-.3-.1-.4-.3-.4-.4.1-.4.3v0Z" clip-rule="evenodd" fill="#fff" fill-rule="evenodd"/><path d="M226.3,50c0,.4.2.7.6.7s.7-.2.7-.6c0-.3-.2-.7-.6-.7-.3,0-.6.2-.7.6c0,0,0,0,0,0Z" clip-rule="evenodd" fill-rule="evenodd"/><path d="M226.9,50.2c0,.1,0,.2.2.2c0,0,0,0,0,0c.1,0,.2-.1.2-.2c0,0,0,0,0,0c0-.1,0-.2-.2-.2c0,0,0,0,0,0-.1,0-.2.1-.2.2c0,0,0,0,0,0Z" clip-rule="evenodd" fill="#fff" fill-rule="evenodd"/><path d="M229.6,51.7c-.3,0-.6.1-.9.2s-.8.1-1.1,0c-.8-.1-1.6-.3-2.2-.8c1.2.5,2.7.7,4.2.6v0Z" clip-rule="evenodd" fill="#d7a679" fill-rule="evenodd"/><path d="M239.7,52.1c-.3.1-3.6.4-4.1.1c1.5.3,3,.3,4.4-.1h-.3Z" clip-rule="evenodd" fill="#d7a679" fill-rule="evenodd"/><path d="M245.7,51.5c-.8,1.7-.3,1.2,1.1,0c.8-.7,1.7-1.4,2.7-2l1.5.4c.8-2.4,1.3-5,1.5-7.5.5-9.1-7.5-14.9-14.6-16-6.6-1-19.9-1.4-19.6-1c1.6,2.1,3.8,4.3,4,5.7c0,0-3.6.5-9.2,1.2c2.8,2.1,6,3.8,9.4,4.8c3.2.8,4.3.3,4.3.3s-5,3.2-4.4,3.3s5.7-.6,11.2-.8s7.5-1.7,7.1-1.2-4.8,3.4-4.4,3.2s3.3-.1,5.3-.9c1.2-.5,2.4-1.1,3.5-1.9c1,3.8,2.2,8.9.6,12.4Z" clip-rule="evenodd" fill="#b56215" fill-rule="evenodd"/><path d="M240.7,39.1c-1.7.7-3.5,1.3-5.4,1.6-5.5.9-4.6.5-12.8.2c0,0,2.1-.9,2.9-1.1c2,0,5.9.4,8.4.3c2.4,0,4.8-.4,7-1.2.2-.1.3-.1.2.1-.1-.1-.2,0-.3.1Z" clip-rule="evenodd" fill="#b56215" fill-rule="evenodd"/><path d="M241.8,41.2c1.2-.5,2.4-1.1,3.5-1.9.7,3.4,1.3,7.3,0,10.7h-.6c0-1.2-.4-7.9-.5-8.2s-.2-.5-2.7-.2c-.7.1-1.5.2-2.2.2.9-.1,1.7-.3,2.5-.6Z" clip-rule="evenodd" fill="#b56215" fill-rule="evenodd"/><path d="M235.6,68.5c0,.1-.1.2,0,.2c2.3-.6,3.8-2.4,5.3-4.2c1.4-1.7,2.6-3.4,4-5-.5,1.1-.5,2.2-1.2,3.4-.8,1.3-1.8,2.6-2.9,3.7-.7.9-1.6,1.6-2.7,2.1-.6.1-2.6.5-2.5-.2Z" clip-rule="evenodd" fill="#ecbea9" fill-rule="evenodd"/><path d="M247.9,30.6c1.3-4.1-9.2-3.5-9.2-3.5l1.1,1.6c-.4-.7-9.5-3-8.5-1.9.3.3,1.1,1.1.9,1.1c0,0-7.8-1.1-6.6-.6.5.2.9.5,1.1,1c2.4-.4-3.9,3-3.9,3s-3.8.6-3.8,2l3.8.5c0,0-3.5.7-3.4,1.8l2.8.7c-.2,0-5,1.9-4.2,2.3c7.1,3.1,27.6-.6,29.9-8Z" clip-rule="evenodd" fill="#b56215" fill-rule="evenodd"/><path d="M251.8,38.7c3.2-2.9-6.5-17.4-6.5-17.4l.3,6.4c.1-1.8-6.1-7.4-6.2-6.9c0,0,1.6,5.5,1.2,4.9-1.4-2.2-8-8.2-7.6-7.6.6,1.6,1.2,3.3,1.6,5c2.3.8-9-5.2-7.4-3.1.9,1.2,1.8,2.5,2.5,3.8c0,0-4.8-1.2-6.1-1.6l3.1,5.7c-.1-.1-2.1,3-1.6,3.8c4.6,6.1,21,12.2,26.7,7Z" clip-rule="evenodd" fill="#b56215" fill-rule="evenodd"/><path d="M245.9,49.5c.1,2.4-1.9,5.4-.3,3.4s.8-4.9,1.4-7.9-.7-8-.7-8-3.6,2.1-4.9,2.8-4.3,1.8-4.3,1.8c1.5-.1,3-.4,4.4-.9c1.2-.5,2.4-1.1,3.5-1.9.8,3.6,1.4,7.7-.2,11.2l1.1-.5Z" clip-rule="evenodd" fill="#984907" fill-rule="evenodd"/><path d="M249.8,43.2c.1,1.8.2,3.6.1,5.3.6-.8,1-1.8,1.1-2.8.4-2.1-.6-8.5-.6-8.3.5,1.4.9,2.9,1.1,4.4.1,1.5.2,3.1.2,3.1.2-2,.2-4.1.1-6.2-.2-2.5-3.1-6.9-3.1-6.9c2.7,2.8,4.2,6.6,3.9,10.5-.2,2.4-.7,4.8-1.4,7.1-.4-.3-1-.4-1.5-.3-.3.1-.7.2-1,.4.1-.9.1-2,.2-3.3.1-3.1-.2-6.2-.9-9.3.1.1,1.6,4.8,1.8,6.3Z" clip-rule="evenodd" fill="#984907" fill-rule="evenodd"/><path d="M230.9,39.3c2.2-.2,10.9-1.9,12-2.1-2.1,1-4.4,1.7-6.8,2-3.1.4-6.2.7-8.4.9-1.6.1-2.7.2-2.9.2c0,0,0,0,0-.1l2.9-.4c1.2-.3,2.4-.4,3.2-.5Z" clip-rule="evenodd" fill="#984907" fill-rule="evenodd"/><path d="M212.7,76l-3.3-5.4c-.7-1.1-3.6-1.6-4.2-3-1.6-3.2,6.9,1.3,6.9,1.3.2,0,3.9,7.3,3.9,7.3l-2.7,1.2-.6-1.4Z" clip-rule="evenodd" fill="#f3c3b0" fill-rule="evenodd"/><path d="M214.1,75.7c-.2-.1-2.9-.9-4.6-1.4-1.2,0-2.3.1-3.4.3-.4,0-4.5,1.5-4.5,1.8s-.5.7.7,1.5s3.5-.7,3.7-.8c1.1-.1,2.2-.1,3.2-.1.2,0,3.7,2.1,4,2c.8-.5,1.3-1.3,1.3-2.2c0-1.2-.4-1.1-.4-1.1Z" clip-rule="evenodd" fill="#f3c3b0" fill-rule="evenodd"/><path d="M214.4,77.3c-.4,0-6.1,0-6.5.1s-5.3,3.9-5.2,4.2c.4,1.2,1.6.9,2.2.8.8-.3,1.5-.7,2.2-1.2.7-.4,1.5-.7,2.2-.9.2,0,5,.8,5.3.5.6-.7.9-1.6.6-2.5-.5-1.2-.8-1-.8-1Z" clip-rule="evenodd" fill="#f3c3b0" fill-rule="evenodd"/><path d="M214.6,80.4c-.3,0-4.7.3-5,.4-1.4,1-2.6,2.2-3.8,3.5.1.2-.1.6.9.9.8.1,1.7-.2,2.3-.8.1-.1.7-.4,1.3-.7s1.2-.6,1.3-.7c1.1.1,2.2,0,3.2-.1.4-.5.6-1.3.3-1.9-.2-.8-.5-.6-.5-.6Z" clip-rule="evenodd" fill="#f3c3b0" fill-rule="evenodd"/><path d="M220,81.7c-.4-.9-4.4-6.2-4.4-6.2l-2.9.5.6,7.1c.1.8.2,1.6.4,2.5.7,2.8,1.8,4.8,3.6,5.5c2.5,6.5,10.5,22.9,10.5,22.9l4.3-4.9c0,0-10-21.3-10.4-21.5-.7-2.6-1.7-5.9-1.7-5.9Z" clip-rule="evenodd" fill="#f3c3b0" fill-rule="evenodd"/><polygon points="222.7,89.3 217.9,92.8 216.6,90.9 221,88.4" clip-rule="evenodd" fill="#57595b" fill-rule="evenodd"/><path d="M220.9,86.9c1.2,0,2.2.8,2.4,2c.4.9,0,1.9-.9,2.3-.1.1-.3.1-.4.1-1.2,0-2.2-.8-2.5-2-.4-.9,0-1.9.9-2.3.2,0,.4-.1.5-.1Z" clip-rule="evenodd" fill="#425259" fill-rule="evenodd"/><path d="M221.4,87.2c.9,0,1.7.7,1.9,1.6.3.7-.1,1.5-.8,1.8-.1,0-.2.1-.3.1-.9,0-1.7-.7-1.9-1.6-.3-.7.1-1.5.8-1.8.1-.1.2-.1.3-.1Z" clip-rule="evenodd" fill="#6d6e70" fill-rule="evenodd"/><path d="M221.6,87.2h-.2c-.7.1-1.2.8-1.1,1.5c0,0,0,.1,0,.1c0,.1,0,.2.1.2c0,.2.1.3.2.4v.1c.2.3.4.6.8.8.1,0,.1.1.2.1.1-.1.1-.3.1-.4.2-.4.3-.8.3-1.2c0-.1,0-.1,0-.2c0-.2,0-.5-.1-.7-.3-.2-.3-.4-.3-.7Z" clip-rule="evenodd" fill="#57595b" fill-rule="evenodd"/><path d="M228.1,108.2c-.7-1.3-2.1-3.4-3.1-5.3-.3-.5-.6-1-.8-1.5-1.9-3.6-3.9-7.3-5-9.5l-1.2.9c1,2.4,2.5,5.7,4,8.9.2.6.5,1.1.8,1.7c1.1,2.4,2.8,5.9,3.7,7.7.4-.6.5-1.4.9-1.9.1-.3.6-.9.7-1Z" clip-rule="evenodd" fill="#e7bba7" fill-rule="evenodd"/><path d="M216.8,90.8l1.4-.8c-.5-.5-1-1-1.5-1.5-.1-.1-.2-.3-.4-.4-.4-.5-.8-1-1.1-1.6-.5-1.1-1-2.3-1.3-3.4-.2-.6-.2-.9-.2-.9l-.5.1.1.9c.1.8.2,1.6.4,2.5.2,1,.6,2,1,2.9.3.5.6,1,1,1.5.3.2.7.5,1.1.7Z" clip-rule="evenodd" fill="#e7bba7" fill-rule="evenodd"/><path d="M211.7,83c.1,0,.4,0,.9,0h.7l-.1-.9-.7.1-1.2.2c0,0-.9.6-1.8,1.1-.6.4-1.2.7-1.8.9-.6.1-1.2.1-1.8-.2.1.2-.1.6.9.9.8.1,1.7-.2,2.3-.8.1,0,.2-.1.5-.3l.8-.4c.6-.2,1.2-.5,1.3-.6Z" clip-rule="evenodd" fill="#e7bba7" fill-rule="evenodd"/><path d="M246.9,71c-.8,2-2.1,3.8-3.8,5.1-1.8,1.3-3.3,2.9-4.6,4.8s-2.2,4-2.8,6.2c-1.3,4.8-.9,10-.3,14.9.7,6.4,2,12.7,3.6,18.9c1.3,5.4,3.1,10.8,5.1,16c1.1,2.8,2.7,5.4,4.8,7.5c2,2,4.5,3.6,7.2,4.4c4,1.2,8.3.7,12.5.2-3.7-10-5.8-21-7.4-31.5-1.3-8.6-1.9-17.3-3.1-26-.4-4.1-1.4-8-3-11.8s-4.5-6.9-8.2-8.7Z" fill="#35454c"/><path d="M243,77.5c.7-.6,1.4-1.1,1.7-1.3.9-.8,1.9-1.6,2.9-2.3.4-.3.8-.6,1.1-.9c1.1-1.3-.4-4-1-5.3-.2-.4-.3-.8-.6-1.1c0-.1-.9-.8-.8-.7.3,1.1.2,2.2-.2,3.2-.4.9-.9,1.7-1.6,2.5-1.2,1.5-2.7,2.9-3.9,4.3-2.9,3.4-4.7,7.6-5.4,12-.8,4.6-.3,8.9,0,13.5c0-4.7.6-9.4,1.9-14c.7-3.1,2.2-5.9,4.3-8.2l.6-2l1,.3Z" fill="#4b5d67"/><path d="M246.3,80.1c-3.1-1.5-6.8,1-7.1,4.3l-.9,9.1c-.3,2.6-1,5.2-1.9,7.7-.4,1.2-.9,2.4-1.2,3.6-.3,1-.8,2.2-.3,3.1-.1-.3-.3-.5-.6-.6s-.8.3-.6.5c-2.6-4.1-6.6-12.8-8.1-16.6-3,1.1-5.7,2.9-7.9,5.2c1.7,5.5,4,10.7,6.9,15.6c2.6,4.5,6.3,8.4,10.6,11.4c1.6,1,3.7.6,4.8-1c0,0,0,0,0,0c1-1.5,1.9-3,2-3.4c1.1-2.1,2-4.3,2.8-6.6c1.5-4.2,2.7-8.4,3.7-12.8l.4-1.5c1-4.2,1.9-9,.8-13.2-.6-1.9-1.6-3.9-3.4-4.8Z" fill="#4b5d67"/><path d="M291.6,213.5c-1.3,1.2-2.6,2.3-4.1,3.2-1.4.8-6.5,1.1-8.7.9s-5.3-.2-5.5-.7.4-1.1.2-2.2c-.2-.6-.2-1.3,0-1.9c0,0,5.7.6,8,0s7.9-4.8,7.9-4.8c1.3-.2,3.8,5.2,2.2,5.5Z" clip-rule="evenodd" fill="#5d6e7b" fill-rule="evenodd"/><path d="M286.6,121.4c.3-.5.7-.9,1.2-1.2.4-.2.9-.2,1.3,0c.5.5.7,1.3.3,1.9-.3.6-.8,1.2-1.3,1.7l-1.5,1.6-1.5-1.6c-.5-.5-1-1.1-1.3-1.7-.4-.6-.2-1.5.3-1.9.4-.2.9-.2,1.3,0c.5.3.9.7,1.2,1.2Z" clip-rule="evenodd" fill="#c20500" fill-rule="evenodd"/><rect width="75.9" height="220" rx="0" ry="0" transform="translate(92.7 0)" opacity="0.44" fill="url(#emXjFNiVSGA175-fill)"/><path d="M130.3,35.7c.1,1.9-.9,3.7-2.6,4.7-.9.5-1.8.9-2.8,1.1-1.1.2-2.2.4-3.3.4h-11.9v-24.2h14c.8,0,1.6.2,2.3.5.7.4,1.3.8,1.7,1.4.5.6.9,1.3,1.1,2c.3.7.4,1.5.4,2.3c0,1.1-.3,2.3-.9,3.2-.6,1-1.5,1.9-2.6,2.3c2.9.8,4.8,3.4,4.6,6.3v0Zm-14-12.3v3.7h4.5c.4,0,.9-.1,1.2-.4.4-.4.6-.9.6-1.5.1-.5-.1-1-.5-1.4-.3-.3-.7-.4-1.1-.4h-4.7Zm7.2,11c0-.5-.2-1.1-.5-1.5s-.7-.6-1.2-.6h-5.5v4.1h5.2c.5,0,1-.2,1.4-.5.5-.5.7-1,.6-1.5v0Z" fill="#016896"/><path d="M120.5,62.8v-24.2h6.7v18.4h11v5.8h-17.7Z" fill="#0c8ec0"/><path d="M116.1,82.5c-1.7,0-3.4-.3-5-1-1.5-.7-2.8-1.6-3.8-2.8-1.1-1.1-1.9-2.5-2.5-3.9-.6-1.5-.9-3-.9-4.6s.3-3.1.9-4.6s1.5-2.8,2.6-3.9s2.4-2,3.9-2.7c1.6-.7,3.3-1,5-1s3.4.3,5,1c4.4,2.1,7.2,6.4,7.2,11.3c0,1.6-.3,3.1-.9,4.6-1.2,3-3.6,5.3-6.5,6.6-1.7.6-3.3,1-5,1Zm-5.5-12.3c0,.8.1,1.6.3,2.4.2.7.6,1.4,1,2c1,1.3,2.5,2.1,4.2,2c.9,0,1.7-.2,2.5-.6.7-.4,1.3-.9,1.7-1.5.5-.6.8-1.3,1-2.1s.3-1.6.3-2.3c0-.8-.1-1.6-.3-2.4-.2-.7-.5-1.4-1-2s-1.1-1.1-1.7-1.4c-.8-.4-1.6-.5-2.4-.5-.9,0-1.7.2-2.5.6-.7.3-1.3.8-1.7,1.4-.5.6-.8,1.3-1,2-.3.8-.4,1.6-.4,2.4Z" fill="#14aadf"/><path d="M111.7,89.8c0-1.5.3-3,.8-4.4.6-1.4,1.4-2.7,2.5-3.8c1.1-1.2,2.4-2.1,3.9-2.8c3.6-1.5,7.8-1.4,11.3.4c1.6.9,3,2.2,3.8,3.8l-5.1,3.6c-.2-.5-.5-1-.9-1.5-.4-.4-.8-.7-1.2-.9s-.9-.4-1.4-.5-.9-.1-1.4-.1c-1.6-.1-3.2.7-4.2,2-.4.6-.8,1.3-1,2s-.3,1.5-.3,2.3.1,1.6.4,2.4c.2.7.6,1.4,1.1,2s1.1,1.1,1.8,1.4c.7.4,1.5.5,2.3.5.5,0,.9-.1,1.4-.2s.9-.3,1.4-.5c.4-.2.8-.5,1.2-.9s.7-.9.8-1.4l5.4,3.2c-.4.9-.9,1.8-1.7,2.5-.7.7-1.6,1.3-2.5,1.8-1,.5-2,.8-3,1.1-1,.2-2.1.4-3.2.4-1.7,0-3.4-.3-4.9-1.1-1.5-.7-2.8-1.7-3.8-2.8-1.1-1.2-1.9-2.5-2.5-4-.7-1.4-1-3-1-4.5Z" fill="#016896"/><path d="M125.2,123.7v-24.2h6.7v9.2l7.4-9.2h7.5L138,110.3l9.4,13.4h-7.6l-6-8.9-1.8,1.9v7h-6.8Z" fill="#0c8ec0"/><path d="M99.9,122.4c0-1.5.3-3,.8-4.4.6-1.4,1.4-2.7,2.4-3.8c1.1-1.2,2.4-2.1,3.9-2.8c1.6-.7,3.4-1,5.2-1c2.1-.1,4.2.4,6.1,1.4c1.6.9,3,2.2,3.8,3.8l-5.1,3.6c-.2-.5-.5-1-.9-1.5-.4-.4-.8-.7-1.2-.9s-.9-.4-1.4-.5-.9-.1-1.4-.1c-1.6-.1-3.2.7-4.2,2-.5.6-.8,1.3-1,2s-.3,1.5-.3,2.3.1,1.6.4,2.4c.2.7.6,1.4,1.1,2s1.1,1.1,1.8,1.4c.7.4,1.5.5,2.3.5.5,0,.9-.1,1.4-.1.5-.1.9-.3,1.4-.5.4-.2.8-.6,1.2-.9.4-.4.7-.9.8-1.4l5.4,3.2c-.4.9-.9,1.7-1.7,2.4s-1.6,1.3-2.5,1.8c-1,.5-2,.8-3,1.1s-2.1.4-3.2.5c-1.7,0-3.4-.3-4.9-1.1-1.5-.7-2.8-1.6-3.8-2.8-1.1-1.2-1.9-2.5-2.5-4-.7-1.4-.9-3-.9-4.6Z" fill="#016896"/><path d="M140,126.8v24.2h-6.6v-9.5h-8.1v9.5h-6.6v-24.2h6.6v8.9h8.1v-8.9h6.6Z" fill="#0c8ec0"/><path d="M116.3,142.8h6.1l8.4,24.2h-6.8l-1.5-4.7h-6.4l-1.4,4.7h-6.8l8.4-24.2Zm5.2,15l-2.1-7.5-2.2,7.5h4.3Z" fill="#14aadf"/><path d="M128.2,181.8v-24.2h6.6v24.2h-6.6Z" fill="#016896"/><path d="M132.6,188.4v11.9h-6.6v-24.2h5.2l9.7,12.3v-12.3h6.6v24.2h-5.3l-9.6-11.9Z" fill="#0c8ec0"/><g id="emXjFNiVSGA186_to" transform="translate(157.559456,56.701256)"><g transform="translate(-157.559456,-56.701255)"><path d="M172.1,68.8c3.6.1,6.5-2.8,6.6-6.3.1-3.6-2.8-6.5-6.3-6.6-.6,0-1.2.1-1.8.2.2-.7.2-1.4.2-2.1c0-5.1-4.1-9.3-9.3-9.4-4.4,0-8.2,3-9.1,7.3-4-3.5-10.1-3.1-13.6.9s-3.1,10.1.9,13.6c1.8,1.5,4,2.4,6.4,2.4h26Z" fill="#d7ebe6"/><path d="M154.2,57.5c0,.4-.4.7-.7.7-.4,0-.8,0-1.3,0s-.8,0-1.1,0l-1.3.2h-.1c-.4.6-.7,1.3-1.1,1.9l2.6-.2c.3-.1.6.1.7.4c0,0,0,0,0,0c0,.3-.2.6-.5.6c0,0,0,0-.1,0-1.1.1-2.1.2-3.1.2-.3.7-.6,1.4-.9,2.2l-.1.2h.1c.4,0,.9,0,1.3-.1s.9-.2,1.3-.3.8-.3,1.3-.4.9-.1,1,.4-.5.9-.9,1.1c-.8.4-1.7.6-2.6.7-.8.1-2.2.3-2.7-.5s0-1.7.3-2.4c.6-1.4,1.3-2.8,2.1-4-.1-.1-.1-.3-.1-.4.1-.5.8-.6,1.2-.7s.8-.2,1.2-.2.9-.1,1.4-.1c.4,0,.9,0,1.3,0c.5-.1.8.3.8.7Zm6.9,5.5c0,.8-1.2,1.2-1.8,1.3-.8.1-1.5-.1-2.2-.4-.7-.4-1.3-1.2-1.5-2-.4.9-.8,1.9-1.2,2.8-.2.3-.6.4-.9.2-.2-.1-.3-.3-.3-.6c0-.6.2-1.1.6-1.6c0,0,.1,0,.1,0c.3-.7.6-1.4.8-2.1c0-.2.1-.3.2-.4.4-1.1.8-2.3,1.2-3.5.1-.5.9-.3.9.2h.6l1.3-.1c.4-.1.7,0,1.1.1.4.3.5.7.4,1.2-.1.3-.4.6-.6.9-.2.2-.5.4-.7.6-.5.4-1.1.8-1.7,1.1-.2.1-.3.2-.5.2v0c0,.1,0,.1,0,.2c0-.1,0,0,0,.1s.1.2.1.4s0,.1,0,0s0,0,0,.1c0,0,0,.1.1.1.1.1.1.2.2.3v0v0l.1.2.1.2h.1v0c.1.1.2.2.3.2v0v0l.2.1.2.1h.1c.1,0,.3,0,.4,0h.1.1l.4-.1.2-.1v0h.1c.3-.2.6-.3.9-.3.2-.2.6-.1.7.1-.1.1-.1.3-.2.5Zm-4.8-3.4c.2-.1.5-.2.7-.3.6-.3,1.1-.7,1.6-1.1l.3-.3h-.1-1.2-.7-.2c-.1.6-.2,1.2-.4,1.7v0Zm8.2-.4c.3-.3.7-.6,1.1-.8.3-.2,1-.5,1.2,0c.1.2.4.3.6.1.1-.1.2-.3.2-.4-.1-.5-.5-.9-.9-1-.6-.1-1.3,0-1.8.3-.9.5-1.7,1.1-2.3,2s-1,1.9-1.1,3c-.2,1.2.7,2.4,1.9,2.5.7-.1,1.4-.3,2-.8.7-.3,1.3-.7,1.8-1.3.1-.2.1-.4-.1-.5-.1,0-.1,0-.2-.1-.7,0-1.3.2-1.9.5l-.8.4c-.2.1-.4.2-.7.3-.1,0-.2,0-.2-.1-.2-.1-.3-.3-.3-.5-.1-.4,0-.9.2-1.3.1-.9.6-1.7,1.3-2.3v0Z" opacity="0.22" fill="#016896"/></g></g><g id="emXjFNiVSGA189_to" transform="translate(97.851448,101.12278)"><g transform="translate(-97.851448,-101.12278)"><path d="M104.6,110.3c3.2-.1,5.7-2.8,5.6-6-.1-3-2.5-5.4-5.6-5.6-.1,0-.3,0-.4,0-.5-4.2-4.4-7.2-8.6-6.7-3.9.5-6.7,3.7-6.8,7.6c0,1.1.2,2.1.6,3.1h-.1c-2.1,0-3.8,1.7-3.8,3.8s1.7,3.8,3.8,3.8h15.3Z" fill="#d7ebe6"/><path d="M96.5,102.3c-.1.2-.2.4-.4.6s-.3.4-.4.6c-.2.4-.5.8-.7,1.2l-1.6,3c-.2.4-.8.2-.9-.2-.2-1.2-.2-2.5,0-3.7-.2.4-.5.7-.7,1.1-.5.8-.8,1.7-1.3,2.5-.2.3-.6,0-.5-.3.3-1,.7-1.9,1.2-2.8s1-1.6,1.7-2.3c.2-.2.5-.1.6.1.1.1.1.2.1.3-.2,1.1-.3,2.3-.3,3.4.3-.6.6-1.2.9-1.8.2-.5.5-.9.8-1.3s.7-.7,1.2-.8c.2,0,.3.1.3.3.1,0,0,0,0,.1Zm5.2-1l-1.9.3c-.6.1-1.3.2-1.9.3-.2,0-.4.2-.4.5c0,.1.1.2.1.3l-1,2.1c-.2.4-.4.9-.7,1.3l-.4.7c-.1.2-.3.4-.3.7-.1.2,0,.5.2.6s.5,0,.6-.2c.2-.2.3-.4.4-.7.1-.2.2-.5.3-.7.2-.4.4-.9.6-1.3.4-.1.7-.2,1.1-.3.2,0,.4-.1.7-.1h.4c.2,0,.3-.1.4-.2.2-.1.2-.4.1-.5c0,0-.1-.1-.1-.1-.1-.1-.2-.1-.3-.1s-.1,0-.2,0-.3,0-.4.1c-.3.1-.5.1-.8.2-.2.1-.3.1-.5.2.2-.6.4-1.1.6-1.7.5,0,1-.1,1.5-.2l1.5-.2c.1.1.2.1.3.1.3,0,.5-.3.5-.6s-.2-.6-.4-.6c.1.1,0,.1,0,.1Zm5.1.4c-.5,0-.9.1-1.4.2-.4.1-.9.2-1.3.3s-.9.2-1.3.4c-.3.2-.7.6-.3.9.1.1.2.1.3,0c0,0,0-.1.1-.1v0l.2-.1c.1,0,.3-.1.5-.1l.5-.1c-.1.2-.1.4-.2.6-.1.4-.2.8-.4,1.1s-.3.7-.4,1.1c-.2.4-.4.8-.5,1.2-.1.3,0,.5.3.6.2.1.5,0,.6-.2.2-.4.4-.8.6-1.2s.3-.8.4-1.2.3-.8.4-1.2c.1-.3.2-.7.2-1l.7-.1c.4,0,.7-.1,1.1-.2.2-.1.4-.3.4-.5-.2-.2-.3-.4-.5-.4Z" opacity="0.22" fill="#016896"/></g></g><g id="emXjFNiVSGA192_to" transform="translate(154.04802,146.550003)"><g transform="translate(-154.048019,-146.550003)"><path d="M161.7,153.5c2,0,3.6-1.6,3.6-3.6s-1.6-3.6-3.6-3.6c-.3,0-.6,0-.9.1c0-.2.1-.5.1-.7c0-3.4-2.8-6.1-6.2-6.1-3.1,0-5.7,2.4-6,5.5-.6-.3-1.2-.4-1.8-.4-2.4.1-4.2,2.1-4.1,4.5.1,2.2,1.9,4,4.1,4.1h14.8Z" fill="#d7ebe6"/><path d="M151.2,148.8c-.2-.1-.4-.1-.6-.2h.1c.5-.3.7-.8.8-1.3c0-.5-.4-1-.9-1.1-.3-.1-.5-.1-.8,0s-.7.1-1,.2c-.1.1-.3.3-.1.4s.4.1.6.1c-.2.6-.5,1.1-.7,1.7-.1.4-.3.7-.4,1.1-.2.4-.3.7-.4,1.1v0v0v0c0,.1,0,.2.1.3-.3.1-.5.2-.8.2-.2,0-.3.1-.3.3-.1.4.4.6.7.5.4-.1.8-.3,1.1-.4.8-.4,1.5-.8,2.2-1.2.3-.2.6-.4.7-.8s0-.8-.3-.9Zm-.4-1.5c-.1.4-.4.6-.7.8l-.4.2c.2-.5.3-1,.5-1.5.3,0,.6.1.6.5v0Zm0,2.3c-.2.2-.5.3-.7.5-.4.2-.8.4-1.2.6.1-.2.2-.5.3-.8l.2-.6c.5-.1.9-.1,1.4-.1.1.2.1.2,0,.4v0Zm4.4,0c-.4.3-.8.6-1.2.9-.8.6-1.6,1.3-2.4,1.8-.4.3-.8-.4-.5-.7s.9-.7,1.3-1s.8-.6,1.3-.9l.7-.5c.1-.1.2-.1.3-.2l-.4-.1-.7-.2c-.5,0-.9-.2-1.3-.4-.3-.3-.3-.9,0-1.2s.7-.6,1.1-.7c.4-.2.9-.3,1.4-.2.2,0,.3.1.3.3s-.1.3-.3.3c-.4,0-.9.2-1.2.4-.2.1-.4.2-.5.4-.1.1-.1.1,0,.2.5.1.9.2,1.4.3l.7.2c.2,0,.4.1.5.3.2.4-.2.7-.5,1v0Zm4.9.5v0c-.1-.2-.3-.3-.5-.3v0c-.1,0-.2.1-.3.2-.6.3-1.3.6-2,.7-.1,0-.2,0-.2,0c0-.1,0-.2,0-.4c0-.3.1-.6.1-.9.2-.6.5-1.2,1-1.6.2-.2.4-.4.7-.6.2-.1.4-.2.6-.4.2,0,.4-.2.4-.4c0,0,0-.1,0-.1c0-.1-.2-.2-.3-.3-.4,0-.7.1-1,.3-.3.1-.6.3-.8.5-.5.4-.9,1-1.2,1.6s-.5,1.2-.5,1.9c0,.4.1.7.3,1c.3.3.8.3,1.2.2.9-.1,1.8-.5,2.5-1c.1,0,.1-.2,0-.4v0Z" opacity="0.22" fill="#016896"/></g></g></g></g></g></svg>
