<?xml version="1.0" encoding="UTF-8" standalone="no"?>
<!-- Creator: CorelDRAW 2019 (64-Bit) -->

<svg
   xmlns:dc="http://purl.org/dc/elements/1.1/"
   xmlns:cc="http://creativecommons.org/ns#"
   xmlns:rdf="http://www.w3.org/1999/02/22-rdf-syntax-ns#"
   xmlns:svg="http://www.w3.org/2000/svg"
   xmlns="http://www.w3.org/2000/svg"
   xmlns:xlink="http://www.w3.org/1999/xlink"
   xmlns:sodipodi="http://sodipodi.sourceforge.net/DTD/sodipodi-0.dtd"
   xmlns:inkscape="http://www.inkscape.org/namespaces/inkscape"
   xml:space="preserve"
   width="8.5359mm"
   height="6.3396mm"
   version="1.1"
   style="shape-rendering:geometricPrecision; text-rendering:geometricPrecision; image-rendering:optimizeQuality; fill-rule:evenodd; clip-rule:evenodd"
   viewBox="0 0 6.01 4.47"
   id="svg18"
   sodipodi:docname="petek-en.svg"
   inkscape:version="0.92.4 (5da689c313, 2019-01-14)"><metadata
   id="metadata22"><rdf:RDF><cc:Work
       rdf:about=""><dc:format>image/svg+xml</dc:format><dc:type
         rdf:resource="http://purl.org/dc/dcmitype/StillImage" /></cc:Work></rdf:RDF></metadata><sodipodi:namedview
   pagecolor="#ffffff"
   bordercolor="#666666"
   borderopacity="1"
   objecttolerance="10"
   gridtolerance="10"
   guidetolerance="10"
   inkscape:pageopacity="0"
   inkscape:pageshadow="2"
   inkscape:window-width="1600"
   inkscape:window-height="845"
   id="namedview20"
   showgrid="false"
   inkscape:zoom="9.8494646"
   inkscape:cx="16.130835"
   inkscape:cy="11.980347"
   inkscape:window-x="-8"
   inkscape:window-y="-8"
   inkscape:window-maximized="1"
   inkscape:current-layer="svg18" />
 <defs
   id="defs10">
  <style
   type="text/css"
   id="style2">
   <![CDATA[
    .fil1 {fill:url(#id0)}
    .fil0 {fill:url(#id1);fill-rule:nonzero}
   ]]>
  </style>
  <linearGradient
   id="id0"
   gradientUnits="userSpaceOnUse"
   x1="0.81"
   y1="4.21"
   x2="5.28"
   y2="3.87">
   <stop
   offset="0"
   style="stop-opacity:1; stop-color:#166792"
   id="stop4" />
   <stop
   offset="1"
   style="stop-opacity:1; stop-color:#23AFE4"
   id="stop6" />
  </linearGradient>
  <linearGradient
   id="id1"
   gradientUnits="userSpaceOnUse"
   xlink:href="#id0"
   x1="-0.36"
   y1="1.85"
   x2="6.38"
   y2="1.21">
  </linearGradient>
 </defs>
 <g
   id="Слой_x0020_1">
  <metadata
   id="CorelCorpID_0Corel-Layer" />
  <path
   class="fil0"
   d="M1.81 1.1l0.28 -0.95 0.28 -0.02 -0.43 1.26 -0.27 0.02 -0.43 -1.21 0.28 -0.02 0.28 0.91zm0.92 0.25l-0.25 0.01 0 -0.92 0.25 -0.01 0 0.92zm-0.26 -1.14c0,-0.04 0.01,-0.07 0.04,-0.09 0.02,-0.03 0.06,-0.04 0.1,-0.04 0.04,-0 0.08,0.01 0.1,0.03 0.02,0.02 0.04,0.05 0.04,0.09 0,0.04 -0.01,0.07 -0.04,0.09 -0.03,0.03 -0.06,0.04 -0.1,0.04 -0.04,0 -0.07,-0.01 -0.1,-0.03 -0.03,-0.02 -0.04,-0.05 -0.04,-0.09zm0.96 0.85c0,-0.03 -0.02,-0.05 -0.04,-0.07 -0.03,-0.02 -0.08,-0.03 -0.14,-0.04 -0.22,-0.03 -0.33,-0.12 -0.33,-0.26 0,-0.08 0.03,-0.15 0.1,-0.21 0.07,-0.06 0.16,-0.09 0.27,-0.1 0.12,-0.01 0.21,0.02 0.28,0.07 0.07,0.05 0.1,0.12 0.1,0.21l-0.25 0.01c0,-0.04 -0.01,-0.06 -0.03,-0.08 -0.02,-0.02 -0.06,-0.03 -0.11,-0.03 -0.04,0 -0.07,0.01 -0.1,0.03 -0.02,0.02 -0.03,0.04 -0.03,0.07 0,0.03 0.01,0.05 0.04,0.06 0.03,0.02 0.07,0.03 0.13,0.04 0.06,0.01 0.11,0.02 0.15,0.03 0.13,0.04 0.19,0.12 0.19,0.24 0,0.08 -0.04,0.15 -0.11,0.21 -0.07,0.06 -0.16,0.09 -0.28,0.09 -0.08,0 -0.15,-0.01 -0.21,-0.03 -0.06,-0.02 -0.11,-0.06 -0.14,-0.11 -0.03,-0.05 -0.05,-0.1 -0.05,-0.15l0.23 -0.01c0,0.04 0.02,0.08 0.05,0.1 0.03,0.02 0.07,0.03 0.12,0.03 0.05,-0 0.08,-0.01 0.11,-0.03 0.02,-0.02 0.04,-0.04 0.04,-0.07zm0.66 0.22l-0.25 0.01 0 -0.92 0.25 -0.01 0 0.92zm-0.26 -1.14c0,-0.04 0.01,-0.07 0.04,-0.09 0.02,-0.03 0.06,-0.04 0.1,-0.04 0.04,-0 0.08,0.01 0.1,0.03 0.02,0.02 0.04,0.05 0.04,0.09 0,0.04 -0.01,0.07 -0.04,0.09 -0.03,0.03 -0.06,0.04 -0.1,0.04 -0.04,0 -0.07,-0.01 -0.1,-0.03 -0.03,-0.02 -0.04,-0.05 -0.04,-0.09zm0.76 -0.03l0 0.23 0.16 -0.01 0 0.18 -0.16 0.01 0 0.46c0,0.03 0.01,0.06 0.02,0.07 0.01,0.01 0.04,0.02 0.07,0.02 0.03,-0 0.05,-0 0.07,-0.01l0 0.19c-0.05,0.02 -0.1,0.03 -0.15,0.03 -0.17,0.01 -0.26,-0.07 -0.26,-0.25l0 -0.49 -0.13 0.01 0 -0.18 0.13 -0.01 0 -0.23 0.25 -0.01zm-3.72 2.59l0.12 -0.59 0.24 -0.01 -0.23 0.93 -0.21 0.01 -0.17 -0.57 -0.17 0.59 -0.2 0.01 -0.23 -0.91 0.24 -0.01 0.12 0.58 0.17 -0.59 0.18 -0.01 0.17 0.58zm0.9 0.3c-0.13,0.01 -0.24,-0.03 -0.33,-0.11 -0.08,-0.08 -0.13,-0.19 -0.13,-0.32l0 -0.02c0,-0.09 0.02,-0.18 0.05,-0.25 0.04,-0.07 0.09,-0.13 0.15,-0.18 0.07,-0.04 0.14,-0.07 0.22,-0.07 0.13,-0.01 0.22,0.03 0.3,0.1 0.07,0.08 0.11,0.19 0.11,0.33l0 0.1 -0.59 0.03c0.01,0.06 0.03,0.11 0.07,0.14 0.04,0.03 0.09,0.05 0.15,0.05 0.09,-0.01 0.17,-0.04 0.22,-0.11l0.12 0.13c-0.04,0.05 -0.09,0.1 -0.15,0.13 -0.06,0.03 -0.13,0.05 -0.21,0.06zm-0.03 -0.75c-0.05,0 -0.09,0.02 -0.12,0.06 -0.03,0.03 -0.05,0.08 -0.06,0.15l0.34 -0.02 0 -0.02c-0,-0.05 -0.02,-0.1 -0.04,-0.12 -0.03,-0.03 -0.07,-0.04 -0.12,-0.04zm1.37 0.21c0,0.15 -0.03,0.26 -0.09,0.35 -0.06,0.09 -0.15,0.13 -0.26,0.14 -0.1,0.01 -0.18,-0.03 -0.24,-0.1l-0.01 0.1 -0.22 0.01 0 -1.31 0.25 -0.01 0 0.47c0.06,-0.07 0.13,-0.11 0.22,-0.11 0.11,-0.01 0.2,0.03 0.26,0.11 0.06,0.08 0.1,0.19 0.1,0.34l0 0.01zm-0.25 -0c0,-0.09 -0.01,-0.16 -0.04,-0.2 -0.03,-0.04 -0.07,-0.06 -0.13,-0.06 -0.08,0 -0.13,0.04 -0.16,0.11l0 0.36c0.03,0.06 0.08,0.09 0.16,0.09 0.08,-0 0.13,-0.05 0.16,-0.13 0.01,-0.04 0.02,-0.1 0.02,-0.17zm0.89 0.17c0,-0.03 -0.02,-0.05 -0.04,-0.07 -0.03,-0.02 -0.08,-0.03 -0.14,-0.04 -0.22,-0.03 -0.33,-0.12 -0.33,-0.26 0,-0.08 0.03,-0.15 0.1,-0.21 0.07,-0.06 0.16,-0.09 0.27,-0.1 0.12,-0.01 0.21,0.02 0.28,0.07 0.07,0.05 0.1,0.12 0.1,0.21l-0.25 0.01c0,-0.04 -0.01,-0.06 -0.03,-0.08 -0.02,-0.02 -0.06,-0.03 -0.11,-0.03 -0.04,0 -0.07,0.01 -0.1,0.03 -0.02,0.02 -0.03,0.04 -0.03,0.07 0,0.03 0.01,0.05 0.04,0.06 0.03,0.02 0.07,0.03 0.13,0.04 0.06,0.01 0.11,0.02 0.15,0.03 0.13,0.04 0.19,0.12 0.19,0.24 0,0.08 -0.04,0.15 -0.11,0.21 -0.07,0.06 -0.16,0.09 -0.28,0.09 -0.08,0 -0.15,-0.01 -0.21,-0.03 -0.06,-0.02 -0.11,-0.06 -0.14,-0.11 -0.03,-0.05 -0.05,-0.1 -0.05,-0.15l0.23 -0.01c0,0.04 0.02,0.08 0.05,0.1 0.03,0.02 0.07,0.03 0.12,0.03 0.05,-0 0.08,-0.01 0.11,-0.03 0.02,-0.02 0.04,-0.04 0.04,-0.07zm0.66 0.22l-0.25 0.01 0 -0.92 0.25 -0.01 0 0.92zm-0.26 -1.14c0,-0.04 0.01,-0.07 0.04,-0.09 0.02,-0.03 0.06,-0.04 0.1,-0.04 0.04,-0 0.08,0.01 0.1,0.03 0.02,0.02 0.04,0.05 0.04,0.09 0,0.04 -0.01,0.07 -0.04,0.09 -0.03,0.03 -0.06,0.04 -0.1,0.04 -0.04,0 -0.07,-0.01 -0.1,-0.03 -0.03,-0.02 -0.04,-0.05 -0.04,-0.09zm0.76 -0.03l0 0.23 0.16 -0.01 0 0.18 -0.16 0.01 0 0.46c0,0.03 0.01,0.06 0.02,0.07 0.01,0.01 0.04,0.02 0.07,0.02 0.03,-0 0.05,-0 0.07,-0.01l0 0.19c-0.05,0.02 -0.1,0.03 -0.15,0.03 -0.17,0.01 -0.26,-0.07 -0.26,-0.25l0 -0.49 -0.13 0.01 0 -0.18 0.13 -0.01 0 -0.23 0.25 -0.01zm0.72 1.12c-0.13,0.01 -0.24,-0.03 -0.33,-0.11 -0.08,-0.08 -0.13,-0.19 -0.13,-0.32l0 -0.02c0,-0.09 0.02,-0.18 0.05,-0.25 0.04,-0.07 0.09,-0.13 0.15,-0.18 0.07,-0.04 0.14,-0.07 0.22,-0.07 0.13,-0.01 0.22,0.03 0.3,0.1 0.07,0.08 0.11,0.19 0.11,0.33l0 0.1 -0.59 0.03c0.01,0.06 0.03,0.11 0.07,0.14 0.04,0.03 0.09,0.05 0.15,0.05 0.09,-0.01 0.17,-0.04 0.22,-0.11l0.12 0.13c-0.04,0.05 -0.09,0.1 -0.15,0.13 -0.06,0.03 -0.13,0.05 -0.21,0.06zm-0.03 -0.75c-0.05,0 -0.09,0.02 -0.12,0.06 -0.03,0.03 -0.05,0.08 -0.06,0.15l0.34 -0.02 0 -0.02c-0,-0.05 -0.02,-0.1 -0.04,-0.12 -0.03,-0.03 -0.07,-0.04 -0.12,-0.04z"
   id="path13"
   style="fill:#ffffff;fill-opacity:1" />
  <polygon
   class="fil1"
   points="4.04,3.82 1.05,3.99 1.05,4.28 4.04,4.11 4.04,4.47 5.04,3.91 4.04,3.47 "
   id="polygon15"
   style="fill:#ffffff;fill-opacity:1" />
 </g>
</svg>