<?xml version="1.0" encoding="UTF-8"?>
<!DOCTYPE svg PUBLIC "-//W3C//DTD SVG 1.1//EN" "http://www.w3.org/Graphics/SVG/1.1/DTD/svg11.dtd">
<!-- Creator: CorelDRAW 2020 (64-Bit) -->
<svg xmlns="http://www.w3.org/2000/svg" xml:space="preserve" width="73.3087mm" height="8.4877mm" version="1.1" style="shape-rendering:geometricPrecision; text-rendering:geometricPrecision; image-rendering:optimizeQuality; fill-rule:evenodd; clip-rule:evenodd"
viewBox="0 0 1791.39 207.41"
 xmlns:xlink="http://www.w3.org/1999/xlink"
 xmlns:xodm="http://www.corel.com/coreldraw/odm/2003">
 <defs>
  <style type="text/css">
   <![CDATA[
    .fil0 {fill:white}
   ]]>
  </style>
 </defs>
 <g id="Слой_x0020_1">
  <metadata id="CorelCorpID_0Corel-Layer"/>
  <path class="fil0" d="M1260.62 11.31l33.4 78.66 -4.23 15.79 -6.01 0c-5.25,1.65 -6.47,9.5 0,16.27l10.36 5.98 47.29 22.04 180.5 0.27 -72.74 34.48c-15.54,7.99 -12.48,27.3 10.78,21.55l197.47 -55.23c29.43,-0.68 60.96,1.5 88.92,-7.46 32.93,-10.54 82.08,-31.89 0.39,-60.57 -23.11,-8.1 -90.93,-10.78 -165.84,-11.3l-92.83 -27.49c-1.84,-0.77 -3.93,-1.2 -6.16,-1.2 -7.37,0 -13.33,4.76 -13.33,10.64 0,4.97 4.27,9.14 10.03,10.31l11.74 7.93c-64.2,0.58 -122.55,1.8 -151.06,1.56l-74.35 -72.2c-5.33,-3.89 -10.71,0.95 -4.32,9.95z"/>
  <rect class="fil0" y="127.17" width="1234.75" height="12.93"/>
 </g>
</svg>
