<?xml version="1.0" encoding="UTF-8"?>
<!DOCTYPE svg PUBLIC "-//W3C//DTD SVG 1.1//EN" "http://www.w3.org/Graphics/SVG/1.1/DTD/svg11.dtd">
<!-- Creator: CorelDRAW 2020 (64-Bit) -->
<svg xmlns="http://www.w3.org/2000/svg" xml:space="preserve" width="69.4022mm" height="8.4877mm" version="1.1" style="shape-rendering:geometricPrecision; text-rendering:geometricPrecision; image-rendering:optimizeQuality; fill-rule:evenodd; clip-rule:evenodd"
viewBox="0 0 2988.09 365.44"
 xmlns:xlink="http://www.w3.org/1999/xlink"
 xmlns:xodm="http://www.corel.com/coreldraw/odm/2003">
 <defs>
  <style type="text/css">
   <![CDATA[
    .fil0 {fill:white}
   ]]>
  </style>
 </defs>
 <g id="Слой_x0020_1">
  <metadata id="CorelCorpID_0Corel-Layer"/>
  <path class="fil0" d="M935.17 19.93l-58.86 138.6 7.45 27.82 10.59 0c9.26,2.91 11.39,16.73 0,28.66l-18.26 10.54 -83.32 38.83 -318.02 0.47 128.16 60.76c27.37,14.08 21.99,48.1 -18.99,37.97l-347.93 -97.3c-51.85,-1.21 -107.4,2.63 -156.66,-13.14 -58.01,-18.57 -144.63,-56.19 -0.68,-106.72 40.71,-14.27 160.22,-18.99 292.2,-19.91l163.56 -48.43c3.24,-1.35 6.93,-2.11 10.85,-2.11 12.98,0 23.49,8.39 23.49,18.75 0,8.75 -7.52,16.1 -17.68,18.17l-20.69 13.97c113.11,1.02 215.93,3.16 266.16,2.75l131 -127.21c9.39,-6.85 18.87,1.67 7.6,17.54z"/>
  <rect class="fil0" x="980.76" y="224.07" width="2007.34" height="22.78"/>
 </g>
</svg>
