<svg xmlns="http://www.w3.org/2000/svg" viewBox="0 0 55.71 51.57"><defs><style>.cls-1{fill:#333;}.cls-2{fill:#1a1a1a;}.cls-3{fill:#999;}.cls-4{fill:#ccc;}</style></defs><g id="Слой_2" data-name="Слой 2"><g id="Старое"><g id="Экран_01" data-name="Экран 01"><g id="_01" data-name="01"><path class="cls-1" d="M0,7.89H55.71a0,0,0,0,1,0,0v39.9a2.12,2.12,0,0,1-2.12,2.12H2.12A2.12,2.12,0,0,1,0,47.79V7.89a0,0,0,0,1,0,0Z"/><path class="cls-2" d="M55.71,7.89H0v6.73c0,7.3,12.43,13.22,17.56,13.22H38.15c5.14,0,17.56-5.92,17.56-13.22Z"/><rect class="cls-3" x="23.94" y="25.54" width="7.83" height="7.83"/><rect class="cls-4" x="23.94" y="25.54" width="7.83" height="3.59"/><path class="cls-2" d="M55.71,40a9.92,9.92,0,0,0-9.91,9.92h7.79a2.12,2.12,0,0,0,2.12-2.13Z"/><path class="cls-2" d="M0,40v7.79a2.12,2.12,0,0,0,2.12,2.13h7.8A9.92,9.92,0,0,0,0,40Z"/><rect class="cls-3" x="9.92" y="48.11" width="2.83" height="3.46"/><rect class="cls-3" x="42.97" y="48.11" width="2.83" height="3.46"/><path class="cls-1" d="M37.9,3.8c-6.56-.33-13.29-.31-20.16,0a1.37,1.37,0,0,1-1.45-1.37h0A1.71,1.71,0,0,1,17.74.75a68.86,68.86,0,0,1,20.17,0,1.7,1.7,0,0,1,1.44,1.68h0A1.37,1.37,0,0,1,37.9,3.8Z"/><path class="cls-4" d="M17.64.93h0A1.35,1.35,0,0,1,19,2.28V7.89a0,0,0,0,1,0,0h-2.7a0,0,0,0,1,0,0V2.28A1.35,1.35,0,0,1,17.64.93Z"/><path class="cls-4" d="M38,.93h0a1.35,1.35,0,0,1,1.35,1.35V7.89a0,0,0,0,1,0,0h-2.7a0,0,0,0,1,0,0V2.28A1.35,1.35,0,0,1,38,.93Z"/><path d="M55.71,11.79c-5.47,0-9.91-1.74-9.91-3.9h9.91Z"/><path d="M0,11.79V7.89H9.92C9.92,10.05,5.48,11.79,0,11.79Z"/></g></g></g></g></svg>