<?xml version="1.0" encoding="UTF-8" standalone="no"?>
<!-- Created with Inkscape (http://www.inkscape.org/) -->

<svg
   xmlns:dc="http://purl.org/dc/elements/1.1/"
   xmlns:cc="http://creativecommons.org/ns#"
   xmlns:rdf="http://www.w3.org/1999/02/22-rdf-syntax-ns#"
   xmlns:svg="http://www.w3.org/2000/svg"
   xmlns="http://www.w3.org/2000/svg"
   xmlns:sodipodi="http://sodipodi.sourceforge.net/DTD/sodipodi-0.dtd"
   xmlns:inkscape="http://www.inkscape.org/namespaces/inkscape"
   viewBox="0 0 210 297"
   version="1.1"
   id="svg1339"
   sodipodi:docname="puzzle.svg"
   inkscape:version="0.92.4 (5da689c313, 2019-01-14)">
  <defs
     id="defs1333" />
  <sodipodi:namedview
     id="base"
     pagecolor="#ffffff"
     bordercolor="#666666"
     borderopacity="1.0"
     inkscape:pageopacity="0.0"
     inkscape:pageshadow="2"
     inkscape:zoom="1.979899"
     inkscape:cx="183.47055"
     inkscape:cy="745.05658"
     inkscape:document-units="mm"
     inkscape:current-layer="layer1"
     showgrid="false"
     inkscape:window-width="1600"
     inkscape:window-height="845"
     inkscape:window-x="-8"
     inkscape:window-y="-8"
     inkscape:window-maximized="1" />
  <metadata
     id="metadata1336">
    <rdf:RDF>
      <cc:Work
         rdf:about="">
        <dc:format>image/svg+xml</dc:format>
        <dc:type
           rdf:resource="http://purl.org/dc/dcmitype/StillImage" />
      </cc:Work>
    </rdf:RDF>
  </metadata>
  <g
     inkscape:label="Layer 1"
     inkscape:groupmode="layer"
     id="layer1">
    <path
       class="fil6"
       d="m 74.144081,117.53528 c -0.07694,-0.22982 -0.316749,-0.29477 -0.524584,-0.14689 -0.314751,0.22383 -0.59353,0.42267 -0.990216,0.26479 -0.482618,-0.19084 -0.747408,-0.76639 -0.540572,-1.24201 0.255797,-0.58654 0.849327,-0.58954 1.357925,-0.35172 0.217827,0.10192 0.459636,-0.046 0.486614,-0.26879 l -0.15188,-1.259 -0.10092,-0.83634 -0.004,-0.029 -0.677464,0.0819 -5.022023,0.60652 v -10e-4 l -0.256797,0.031 0.004,0.03 0.09293,0.77239 0.162871,1.34593 c -0.002,0.008 -0.004,0.016 -0.007,0.023 l 0.198843,1.6427 c 0.004,0.007 0.008,0.013 0.01199,0.02 l 0.256797,2.12232 0.02898,-0.004 0.003,0.016 0.772388,-0.0929 1.344936,-0.16288 c 0.204837,0.045 0.334733,0.27379 0.236811,0.48162 -0.237812,0.5096 -0.233815,1.10313 0.352721,1.35893 0.475623,0.20683 1.064157,-0.034 1.255006,-0.51659 0.156876,-0.39669 -0.04796,-0.70444 -0.278779,-1.0142 -0.132895,-0.17886 -0.06095,-0.42067 0.120904,-0.51259 l 2.12232,-0.2568 -0.105917,-0.87231 h -0.001 l -0.148871,-1.23102 z"
       id="path93"
       inkscape:connector-curvature="0"
       style="clip-rule:evenodd;fill:#cd6e95;fill-rule:nonzero;stroke-width:0.09992088;image-rendering:optimizeQuality;shape-rendering:geometricPrecision;text-rendering:geometricPrecision" />
  </g>
</svg>
