<?xml version="1.0" encoding="UTF-8"?>
<!DOCTYPE svg PUBLIC "-//W3C//DTD SVG 1.1//EN" "http://www.w3.org/Graphics/SVG/1.1/DTD/svg11.dtd">
<!-- Creator: CorelDRAW 2019 (64-Bit) -->
<svg xmlns="http://www.w3.org/2000/svg" xml:space="preserve" width="75.9013mm" height="81.9403mm" version="1.1" style="shape-rendering:geometricPrecision; text-rendering:geometricPrecision; image-rendering:optimizeQuality; fill-rule:evenodd; clip-rule:evenodd"
viewBox="0 0 691.17 746.16"
 xmlns:xlink="http://www.w3.org/1999/xlink"
 xmlns:xodm="http://www.corel.com/coreldraw/odm/2003">
 <defs>
  <style type="text/css">
   <![CDATA[
    .fil13 {fill:#0A0808;fill-rule:nonzero}
    .fil5 {fill:#181818;fill-rule:nonzero}
    .fil4 {fill:#1A598C;fill-rule:nonzero}
    .fil2 {fill:#2273B5;fill-rule:nonzero}
    .fil19 {fill:#323657;fill-rule:nonzero}
    .fil11 {fill:#353A3D;fill-rule:nonzero}
    .fil7 {fill:#484442;fill-rule:nonzero}
    .fil9 {fill:#495055;fill-rule:nonzero}
    .fil1 {fill:#4AAFFF;fill-rule:nonzero}
    .fil3 {fill:#4DAFFF;fill-rule:nonzero}
    .fil17 {fill:#69737A;fill-rule:nonzero}
    .fil6 {fill:#81807E;fill-rule:nonzero}
    .fil14 {fill:#858585;fill-rule:nonzero}
    .fil12 {fill:#A77860;fill-rule:nonzero}
    .fil16 {fill:#AD9F99;fill-rule:nonzero}
    .fil15 {fill:#AFAFB1;fill-rule:nonzero}
    .fil0 {fill:#D7EEFC;fill-rule:nonzero}
    .fil18 {fill:#DECBC4;fill-rule:nonzero}
    .fil10 {fill:#EEA886;fill-rule:nonzero}
    .fil8 {fill:white;fill-rule:nonzero}
   ]]>
  </style>
 </defs>
 <g id="Слой_x0020_1">
  <metadata id="CorelCorpID_0Corel-Layer"/>
  <path class="fil0" d="M319.4 711.88c0,18.93 -71.5,34.28 -159.7,34.28 -88.2,0 -159.7,-15.35 -159.7,-34.28 0,-18.93 71.5,-34.28 159.7,-34.28 88.2,0 159.7,15.35 159.7,34.28z"/>
  <path class="fil1" d="M349.3 76.32l-36.67 -21.18 0 13.96 -54.52 0 0 14.42 54.52 0 0 13.96 36.67 -21.18zm-91.19 -46.44l36.67 21.17 0 -13.96 54.52 0 0 -14.42 -54.52 0 0 -13.96 -36.67 21.18z"/>
  <g id="_2928993699536">
   <polygon class="fil1" points="405.22,191.38 318.36,191.38 318.36,181.48 405.22,181.48 "/>
   <polygon class="fil1" points="382.14,213.14 318.36,213.14 318.36,203.24 382.14,203.24 "/>
   <polygon class="fil1" points="475.14,234.89 318.36,234.89 318.36,224.99 475.14,224.99 "/>
   <polygon class="fil1" points="575.89,297.46 468.32,297.46 468.32,287.56 575.89,287.56 "/>
   <polygon class="fil1" points="575.89,319.2 430.24,319.2 430.24,309.31 575.89,309.31 "/>
   <polygon class="fil1" points="575.89,340.97 381.71,340.97 381.71,331.06 575.89,331.06 "/>
   <polygon class="fil1" points="575.89,403.57 457.44,403.57 457.44,393.67 575.89,393.67 "/>
   <polygon class="fil1" points="575.89,425.33 412,425.33 412,415.42 575.89,415.42 "/>
   <polygon class="fil1" points="575.89,447.08 418.5,447.08 418.5,437.18 575.89,437.18 "/>
   <path class="fil1" d="M533.98 194.75c12.85,27.15 40.87,42.26 69.14,39.97 6.75,-0.54 13.49,-2.07 20.06,-4.66 1.45,-0.57 2.89,-1.2 4.33,-1.87 14.35,-6.79 25.33,-17.82 32.16,-30.89 9.86,-18.85 11.08,-41.93 1.28,-62.63 -3.23,-6.84 -7.44,-12.91 -12.35,-18.13 -20.31,-21.57 -52.95,-28.67 -81.17,-15.32 -35.06,16.6 -50.04,58.47 -33.46,93.53zm23.43 -114.71c37.65,-17.81 81.17,-8.35 108.26,20.43 6.57,6.96 12.16,15.05 16.48,24.18 13.07,27.61 11.45,58.4 -1.7,83.55 -9.11,17.42 -23.77,32.12 -42.92,41.19 -1.9,0.89 -3.83,1.74 -5.76,2.5 -8.76,3.45 -17.76,5.5 -26.76,6.21 -37.7,3.05 -75.07,-17.1 -92.22,-53.33 -22.12,-46.76 -2.15,-102.6 44.62,-124.72z"/>
   <path class="fil2" d="M659.67 197.3l20.78 10.89c13.15,-25.14 14.76,-55.93 1.7,-83.55 -4.32,-9.13 -9.91,-17.22 -16.48,-24.18l-17.06 16.07c4.91,5.23 9.11,11.29 12.35,18.13 9.79,20.7 8.58,43.78 -1.28,62.63z"/>
   <path class="fil3" d="M623.18 230.06l8.59 21.82c1.93,-0.76 3.86,-1.61 5.76,-2.5 19.14,-9.07 33.8,-23.77 42.92,-41.19l-20.78 -10.89c-6.83,13.06 -17.81,24.09 -32.16,30.89 -1.44,0.66 -2.88,1.3 -4.33,1.87z"/>
   <path class="fil3" d="M605.01 258.09c9,-0.71 18,-2.76 26.76,-6.21l-8.59 -21.82c-6.57,2.59 -13.31,4.13 -20.06,4.66l1.89 23.37z"/>
   <path class="fil1" d="M456.74 95.77c15.42,5.51 32.02,0.53 42.04,-11.23 2.38,-2.81 4.39,-6 5.92,-9.53 0.33,-0.77 0.65,-1.57 0.94,-2.38 2.91,-8.14 2.9,-16.62 0.5,-24.28 -3.46,-11.05 -11.89,-20.42 -23.63,-24.62 -3.88,-1.39 -7.83,-2.1 -11.74,-2.23 -16.12,-0.49 -31.43,9.35 -37.16,25.35 -7.11,19.91 3.25,41.8 23.13,48.91zm-35.16 -53.21c7.64,-21.36 28.05,-34.48 49.57,-33.82 5.21,0.15 10.48,1.12 15.66,2.96 15.67,5.62 26.91,18.1 31.53,32.84 3.2,10.22 3.21,21.52 -0.67,32.38 -0.39,1.08 -0.81,2.14 -1.26,3.19 -2.05,4.7 -4.72,8.96 -7.91,12.7 -13.35,15.69 -35.5,22.33 -56.05,14.98 -26.53,-9.48 -40.35,-38.69 -30.86,-65.23z"/>
   <path class="fil4" d="M506.15 48.34l12.19 -3.81c-4.62,-14.74 -15.86,-27.22 -31.53,-32.84 -5.18,-1.84 -10.45,-2.81 -15.66,-2.96l-0.38 12.77c3.91,0.12 7.86,0.83 11.74,2.23 11.74,4.2 20.17,13.57 23.63,24.62z"/>
   <path class="fil2" d="M504.71 75.01l11.71 5.1c0.45,-1.05 0.87,-2.11 1.26,-3.19 3.88,-10.86 3.87,-22.16 0.67,-32.38l-12.19 3.81c2.4,7.66 2.41,16.14 -0.5,24.28 -0.28,0.81 -0.6,1.61 -0.94,2.38z"/>
   <path class="fil3" d="M508.5 92.8c3.19,-3.74 5.86,-8 7.91,-12.7l-11.71 -5.1c-1.54,3.53 -3.55,6.72 -5.92,9.53l9.72 8.27z"/>
  </g>
  <g id="_2928993679792">
   <path class="fil5" d="M206 688.77c0,0 7.82,11.69 18.78,14.21 10.96,2.52 21.76,6.55 21.84,13.46 0.09,6.92 -31.7,11.05 -44.25,4.07 -18.72,-10.42 -20.62,-7.27 -22.7,-12.47 -2.07,-5.2 2.5,-19.12 2.36,-20.77 -0.16,-2.04 23.97,1.5 23.97,1.5z"/>
   <path class="fil6" d="M204.78 683c0,0 1.42,5.65 1.22,5.77 -0.21,0.11 -24.7,3.03 -23.97,-1.5 0.6,-3.68 1.46,-7.68 1.46,-7.68l21.29 3.4z"/>
   <path class="fil5" d="M123.56 687.99c0,0 5.58,11.19 15.1,15 10.19,4.07 18.35,8.75 18.17,15.49 -0.19,6.75 -24.9,13.58 -42.86,0.63 -11.36,-8.17 -14.96,-8.21 -16.78,-13.36 -1.83,-5.14 3.16,-18.51 3.1,-20.14 -0.09,-1.99 23.27,2.37 23.27,2.37z"/>
   <path class="fil6" d="M123.84 682.19c0,0 -0.06,5.7 -0.28,5.8 -0.2,0.11 -23.88,2.07 -23.27,-2.37 0.47,-3.53 2.3,-7.78 2.3,-7.78l21.25 4.35z"/>
   <path class="fil7" d="M210.64 340.51c0,0 21.99,97 27.01,126.56 4.28,25.15 7.68,51.34 5.64,69.5 -2.54,22.47 -34.36,138.97 -33.03,145.56 1.33,6.59 -33.29,1.05 -33.29,1.05 0,0 24.2,-129.95 19.37,-154.14 -3.58,-17.9 -34.95,-136.9 -39.76,-130.8 -4.81,6.1 -10.77,112.3 -14.32,129.93 -3.57,17.62 -14.49,156.92 -14.49,156.92 0,0 -24.45,3.6 -30.97,-1.92 0,0 -2.97,-118.95 -0.7,-152 0.87,-12.59 -14.76,-151.02 5.27,-206.75 10.6,-29.45 109.29,16.08 109.29,16.08z"/>
   <path class="fil8" d="M306.36 252.31c-15.67,-2.19 -64.99,19.66 -69.47,18.01 -3.08,-1.14 -10.31,-24.7 -15.48,-42.53 -3.06,-10.56 -5.38,-19.1 -5.71,-19.81l-0.01 -0.04c0.03,0.48 0.85,8.54 -0.18,19.14 -0.06,0.69 -0.14,1.38 -0.21,2.09 -0.03,0.18 -0.05,0.37 -0.06,0.55 -0.47,3.79 -1.17,7.84 -2.23,11.94 -1.56,6.04 -2.29,13.99 -2.57,22.4l0 0.02 -0.01 0.21c0,0.19 -0.01,0.38 -0.01,0.57l-0.01 0.24c-0.43,15.28 0.62,31.73 1.05,40.5 0.7,13.58 -3.77,19.69 -3.9,19.86l-0.01 0.01 -4.72 -0.67 -3.41 -0.47 -0.04 -0.01 -4.57 -0.64 -17.88 -2.53 -6.48 -0.9 -1.52 -0.21 -11.33 -1.6 -31.95 -4.49 -3.5 -0.49 -1.45 -0.2 -12.06 -1.7 -5.44 -0.76 -0.01 0c0,0 -4.63,-32.8 -4.99,-50.53 -0.32,-16.29 -9.03,-49.35 -10.45,-54.64l-0.03 -0.11 -0.04 -0.14 -0.06 -0.24 -0.04 -0.11 0 -0.03 -0.01 -0.04 -0.01 -0.05c0,0 -26.07,27.39 -31.14,39.35 -1.54,3.63 -6.26,13.49 -12.26,25.49 -4.11,-7.83 -6.69,-13.28 -6.69,-14.64 0,-0.16 0.01,-0.36 0.01,-0.54 0.38,-11.83 12.76,-59.74 22.55,-91.05 7.59,-15.25 14.14,-27.58 16.23,-29.09 3.19,-2.29 16.57,-8.02 28.25,-12.65 0.39,-0.15 0.77,-0.3 1.14,-0.46 1.09,-0.42 2.17,-0.85 3.21,-1.26 0.52,-0.2 1.03,-0.39 1.54,-0.6 0.28,-0.1 0.56,-0.2 0.84,-0.31 0.21,-0.09 0.44,-0.18 0.66,-0.25l0 0c5.85,-2.22 10.29,-3.78 11.2,-3.83 0.15,-0.01 0.39,0 0.72,0.01 0.38,0 0.89,0.03 1.48,0.06 7.22,0.42 28.77,2.45 35.69,3.1 1.27,0.13 2.04,0.2 2.17,0.21l0.01 0c0,0 3.3,1.5 8.27,3.78l0 0 0.47 0.2c3,1.38 6.48,3.22 10.15,5.23 7.21,3.96 15.18,8.58 21.77,11.71 6.48,3.08 15.35,7.37 16.1,7.98l32.81 94.61 56.91 -10.4 -3.29 20.76z"/>
   <path class="fil9" d="M207.53 325.45c0,0 2.41,2.88 3.11,15.06 0,0 -98.83,-11.53 -109.29,-16.08 0,0 -0.41,-13.43 1.82,-13.65 2.44,-0.25 104.36,14.67 104.36,14.67z"/>
   <path class="fil10" d="M123.25 111.7c0.31,15.51 30.34,23.99 30.34,23.99 0,0 12.56,-15.74 9.57,-17.26 -1.18,-0.58 -1.66,-2.94 -1.8,-5.58 -0.14,-2.5 0.02,-5.27 0.16,-7.03 0.09,-1.09 0.18,-1.8 0.18,-1.8 0,0 -4.29,-4.53 -9.76,-9.92 -9.53,-9.43 -22.65,-21.51 -22.66,-16.71 -0.01,0.25 0.03,0.56 0.1,0.92 2.31,10.82 -6.13,33.4 -6.13,33.4z"/>
   <path class="fil11" d="M125.75 313.15c0,0 -2.16,13.6 -2.35,17.16l-4.58 -0.91c0,0 1.27,-14.39 2,-16.8l4.92 0.56z"/>
   <path class="fil11" d="M199.3 323.86c0,0 1.72,12.37 1.76,17.04l-4.83 -0.63c0,0 -0.99,-15.44 -1.54,-17.05l4.61 0.64z"/>
   <path class="fil12" d="M134.83 88.98l0 0c0.06,0.09 1.33,2.01 3.5,4.73 4.62,5.8 13.28,15.33 23.03,19.15 -0.14,-2.5 0.02,-5.27 0.16,-7.03 1,-0.03 1.99,-0.14 2.98,-0.36 -2.67,-4.67 -6.52,-9.57 -6.52,-9.57l-6.04 -1.8 -17.12 -5.13z"/>
   <path class="fil10" d="M129.05 77.61c2.6,5.65 5.07,9.74 5.77,11.37l0 0c0.46,1.07 1.7,2.78 3.5,4.73 4.95,5.33 14.15,12.36 23.2,12.12 1,-0.03 1.99,-0.14 2.98,-0.36 3.66,-0.8 7.97,-2.5 10.34,-7.15 18.73,-36.68 5.16,-66.68 5.16,-66.68 0,0 -51.22,-14.49 -59.24,0.94 -5.62,10.81 2.18,31.73 8.29,45.02z"/>
   <path class="fil13" d="M180.01 31.65c0,0 4.76,-0.26 5.94,-9.29 1.17,-8.91 -1.19,-11.38 -1.19,-11.38 0,0 -21.14,-8.85 -28.74,-10 -7.6,-1.16 -26.27,-2.26 -30.65,2.74 0,0 -10.64,-2.46 -13.54,15.19 -4.59,28.02 15.67,55.21 15.67,55.21 0,0 -0.18,-18.3 3.86,-20.72 4.03,-2.42 7.53,3.34 7.53,3.34l8.25 1.49c0,0 -12.54,-27.08 2.5,-28.08 15.05,-1 21.77,3.08 30.38,1.51z"/>
   <path class="fil10" d="M138.66 49.44c-0.79,-8.06 -15.37,-11.13 -14.39,-2.68 0.98,8.44 8.16,16.56 11.47,16.28 3.31,-0.29 3.52,-7.45 2.92,-13.6z"/>
   <path class="fil14" d="M87.73 205.61l-0.03 -0.11 -0.04 -0.14 -0.06 -0.24 -0.04 -0.11 0 -0.03 -0.01 -0.04c0,0 -15.38,24.04 -14.22,44.92 0.18,3.26 3.41,11.47 8.12,22l0.01 0.01c1.7,3.84 3.62,7.98 5.64,12.31 0.06,-0.18 0.14,-0.37 0.22,-0.55 2.94,-7.17 4.86,-13.91 4.86,-19.79 0,0 -1.31,-45.82 -4.45,-58.23zm-50.27 49.47c0,-0.16 0.01,-0.36 0.01,-0.54 0.28,-11.79 6.08,-58.99 15.85,-90.3 4.74,-15.2 5.85,-25.82 7.67,-27.13 3.19,-2.29 31.49,-10.66 43.5,-15.37 0.39,-0.15 0.77,-0.3 1.14,-0.46 1.09,-0.42 2.17,-0.85 3.21,-1.26 0.52,-0.2 1.03,-0.39 1.54,-0.6 0.28,-0.1 0.56,-0.2 0.84,-0.31 0.21,-0.09 0.44,-0.18 0.66,-0.25l0.06 0.06c1.08,1.19 6.62,7.51 13.26,16.94 12.41,17.64 28.56,46.2 26.09,72.57 -0.8,8.48 -1.78,20.62 -3.43,34.26 -0.14,1.17 -0.29,2.35 -0.43,3.53 -0.41,3.15 -0.84,6.35 -1.32,9.59 -0.28,1.95 -0.59,3.91 -0.9,5.89 -3.29,20.44 -13.58,34.39 -22.73,51.06 -0.08,0.14 -0.15,0.28 -0.23,0.42l-0.13 0.24c-0.21,0.36 -0.39,0.71 -0.59,1.07 -0.32,0.58 -0.63,1.18 -0.94,1.76 -0.18,0.34 -0.36,0.69 -0.53,1.03 -1.75,3.35 -3.47,6.79 -5.13,10.24 -1.06,2.22 -2.12,4.45 -3.15,6.67 -0.11,0.24 -0.21,0.47 -0.33,0.7 0,0 -1.67,3.91 -3.83,8.93 -0.8,1.84 -1.65,3.83 -2.51,5.84 -0.59,1.39 -1.19,2.76 -1.76,4.1 -0.51,1.18 -0.99,2.32 -1.46,3.4 -1.03,2.43 -1.94,4.54 -2.56,6.02 -0.47,1.12 -0.79,1.86 -0.89,2.12 -3.15,7.87 -5.42,13.93 -6.47,16.77 -0.42,1.14 -0.63,1.76 -0.63,1.76l-31.62 -17.45c-6,-3.01 -2.85,-19.2 -0.61,-25.5 1.88,-5.25 4.51,-10.88 7.5,-16.71 1.22,-2.39 2.49,-4.8 3.8,-7.22 -9.9,-17.29 -19.92,-35.12 -26.27,-47.24 -4.11,-7.83 -6.69,-13.28 -6.69,-14.64z"/>
   <path class="fil14" d="M327.38 220.25l-71.59 15.58 -34.13 -89.24c-0.75,-0.6 -10.53,-5.86 -17.01,-8.95 -6.74,-3.21 -15.28,-7.17 -22.84,-10.67 -3.62,-1.66 -7.03,-3.22 -9.9,-4.55l-0.24 0.19c0,0 4.22,14.07 9.7,49.19l0 0.01c0.19,1.18 0.37,2.37 0.56,3.6 0.02,0.14 0.04,0.29 0.06,0.43 0.13,0.81 0.25,1.64 0.37,2.46l0.05 0.29c0.08,0.57 0.16,1.13 0.24,1.7 0.22,1.38 0.42,2.8 0.62,4.24 2.44,17.11 5.86,46.19 9.15,75.56l0 0.01c2.6,23.15 8.51,46.91 10.4,64.64l0 0.02c0.37,3.48 1.26,8.11 2.47,13.34 0.13,0.58 0.28,1.19 0.42,1.79 5.29,22.38 15.57,54.05 15.57,54.05l2.99 -2.76 8.87 -8.18c2.04,-1.89 2.81,-4.77 2,-7.42 -4.92,-15.87 -21.65,-72.03 -24.7,-111.52l0 -0.02c-0.96,-12.41 2.67,-24.1 4.76,-35.17l0.11 0.29c1.76,4.9 3.7,10.22 5.67,15.39l0 0.01c5.28,13.91 10.68,26.8 12.93,27.62 5,1.84 99.27,-23.93 99.91,-27.62l-6.43 -24.31z"/>
   <path class="fil15" d="M120.21 157.37l14.62 8.25 -6.24 6.37 16.62 89.73c3.39,-21.04 4.92,-41.01 6.08,-53.25 3.82,-40.78 -36.87,-86.76 -39.41,-89.58 -1.95,0.74 -4.06,1.56 -6.24,2.42l14.58 36.06z"/>
   <path class="fil15" d="M171.43 122.22c0,0 5.46,17.83 11.83,62.32 2.44,17.09 5.86,46.2 9.15,75.56l3.4 -84.05 -6.95 -7.54 6.18 -7.73 -13.23 -33.81c-3.62,-1.66 -7.03,-3.22 -9.91,-4.55l-0.46 -0.2z"/>
   <path class="fil8" d="M111.15 119.06l12.1 -7.36c0,0 0.34,6.65 30.34,23.99l-8.52 23.99 -33.93 -40.63z"/>
   <path class="fil8" d="M161.57 115.05c0,0 -0.47,7.17 -7.98,20.65l16.63 21.67 1.21 -35.15 -9.86 -7.17z"/>
   <path class="fil7" d="M153.55 135.7c0,0 -3.22,12.89 -2.07,16.5 0,0 7.09,2.59 12.18,-0.64 0,0 -3.6,-9.02 -10.11,-15.86z"/>
   <path class="fil16" d="M170.21 321.6c1.8,-9.1 0.08,-36.35 0.01,-37.51l-1.55 0.1c0.01,0.28 1.78,28.21 0.01,37.1l1.52 0.31z"/>
   <path class="fil17" d="M157.59 317.4c0,0 14.54,1.74 19.35,2.94l-0.62 16.29 -19.04 -2.03 0.32 -17.21z"/>
   <path class="fil7" d="M160.77 150.39c0,0 16.22,40.96 13.58,86.81 -2.74,47.53 -7.24,64.78 -7.24,64.78l-10 12.54 -4.42 -15.42c0,0 13.42,-60.6 4.76,-119.57 -1.57,-10.68 -3.89,-30.94 -3.89,-30.94l7.22 1.8z"/>
   <path class="fil10" d="M112.04 343.83c0,0 3.48,6.95 6.97,8.12 3.48,1.16 8.55,6.82 8.55,6.82l-24.5 12.91c0,0 -6.53,-12.77 -6.83,-20.89 -0.29,-8.12 15.81,-6.95 15.81,-6.95z"/>
   <path class="fil18" d="M114.36 344.48l1.62 3.26c0,0 -15.56,11.38 -19.76,12.11l-1.44 -4.34 19.57 -11.02z"/>
   <path class="fil14" d="M115.98 344.62c0,0 -11.66,9.66 -21.48,14.1l-33.07 -59.46 17.13 -33.12c0,0 36.65,72.68 37.42,78.48z"/>
   <path class="fil7" d="M214.73 208.1c0.54,10.99 0.46,20.76 0.46,20.76l0 0.01c0.01,0.05 0.03,0.36 0.05,0.84 0.01,-0.18 0.04,-0.37 0.06,-0.55 1.76,4.9 3.7,10.22 5.67,15.39 0.46,-6 0.59,-11.6 0.44,-16.77 -0.79,-30.85 -10.48,-47.01 -10.48,-47.01 2.22,5.37 3.29,16.9 3.79,27.33z"/>
   <path class="fil7" d="M66.61 324.19l26.46 31.96 -22.66 -39.18c-1.31,2.42 -2.58,4.84 -3.8,7.22z"/>
   <path class="fil19" d="M258.79 284.12l61.1 0c4.19,0 7.83,-2.87 8.82,-6.94l26.53 -109.58c1.38,-5.71 -2.93,-11.2 -8.81,-11.2l-61.11 0c-4.19,0 -7.83,2.87 -8.82,6.94l-26.53 109.57c-1.39,5.71 2.94,11.22 8.82,11.22z"/>
   <path class="fil10" d="M333.52 253.65c-2.98,-2.77 -8.75,-4.38 -13.69,-7.67 -4.94,-3.3 -0.81,-6.7 -0.81,-6.7 -5.07,-1.74 -4.53,-4.06 -3.88,-5.63 0.88,-2.13 6.42,-1.54 6.42,-1.54 0,0 -4.96,-1.09 -7,-2 -2.06,-0.9 -1.36,-4.47 1.79,-5.58 3.15,-1.13 15.96,2.03 15.96,2.03 0,0 -2.09,-1.03 -8.41,-4.2 -6.32,-3.17 -7.71,-6.05 -3.98,-7.44 2.59,-0.96 7.68,1.06 17.45,7.61 7.36,4.95 6.76,5.6 6.76,5.6 0,0 -7.02,28.83 -10.59,25.53z"/>
  </g>
 </g>
</svg>
