<?xml version="1.0" encoding="UTF-8"?>
<!DOCTYPE svg PUBLIC "-//W3C//DTD SVG 1.1//EN" "http://www.w3.org/Graphics/SVG/1.1/DTD/svg11.dtd">
<!-- Creator: CorelDRAW 2019 (64-Bit) -->
<svg xmlns="http://www.w3.org/2000/svg" xml:space="preserve" width="142.627mm" height="87.0571mm" version="1.1" style="shape-rendering:geometricPrecision; text-rendering:geometricPrecision; image-rendering:optimizeQuality; fill-rule:evenodd; clip-rule:evenodd"
viewBox="0 0 3890.78 2374.87"
 xmlns:xlink="http://www.w3.org/1999/xlink"
 xmlns:xodm="http://www.corel.com/coreldraw/odm/2003">
 <defs>
  <style type="text/css">
   <![CDATA[
    .fil29 {fill:#FCFDFE;fill-rule:nonzero}
    .fil30 {fill:#EFF0F3;fill-rule:nonzero}
    .fil31 {fill:#E2E4F1;fill-rule:nonzero}
    .fil10 {fill:#DFE4DF;fill-rule:nonzero}
    .fil22 {fill:#C2D1E1;fill-rule:nonzero}
    .fil6 {fill:#B9C9DE;fill-rule:nonzero}
    .fil7 {fill:#B2C1DA;fill-rule:nonzero}
    .fil9 {fill:#9BB0CD;fill-rule:nonzero}
    .fil18 {fill:#97A8C9;fill-rule:nonzero}
    .fil23 {fill:#6E81B0;fill-rule:nonzero}
    .fil24 {fill:#4D5699;fill-rule:nonzero}
    .fil21 {fill:#3F4B8F;fill-rule:nonzero}
    .fil25 {fill:#0A0808;fill-rule:nonzero}
    .fil12 {fill:#1487E3;fill-rule:nonzero}
    .fil17 {fill:#181818;fill-rule:nonzero}
    .fil8 {fill:#1A598C;fill-rule:nonzero}
    .fil14 {fill:#2273B5;fill-rule:nonzero}
    .fil36 {fill:#2B2F4D;fill-rule:nonzero}
    .fil5 {fill:#3788CC;fill-rule:nonzero}
    .fil32 {fill:#422818;fill-rule:nonzero}
    .fil35 {fill:#434343;fill-rule:nonzero}
    .fil19 {fill:#484442;fill-rule:nonzero}
    .fil34 {fill:#494F80;fill-rule:nonzero}
    .fil13 {fill:#4AAFFF;fill-rule:nonzero}
    .fil20 {fill:#A77860;fill-rule:nonzero}
    .fil38 {fill:#A87860;fill-rule:nonzero}
    .fil37 {fill:#D1C0BA;fill-rule:nonzero}
    .fil0 {fill:#D7EEFC;fill-rule:nonzero}
    .fil15 {fill:#E0E0E0;fill-rule:nonzero}
    .fil11 {fill:#EAEAEB;fill-rule:nonzero}
    .fil33 {fill:#EEA886;fill-rule:nonzero}
    .fil26 {fill:#EEA987;fill-rule:nonzero}
    .fil16 {fill:#FCFCFC;fill-rule:nonzero}
    .fil3 {fill:white;fill-rule:nonzero}
    .fil1 {fill:url(#id0)}
    .fil28 {fill:url(#id1)}
    .fil4 {fill:url(#id2)}
    .fil2 {fill:url(#id3)}
    .fil27 {fill:url(#id4)}
   ]]>
  </style>
  <linearGradient id="id0" gradientUnits="userSpaceOnUse" x1="1552.42" y1="1639.74" x2="2270.53" y2="1623.83">
   <stop offset="0" style="stop-opacity:1; stop-color:#004E79"/>
   <stop offset="1" style="stop-opacity:1; stop-color:#0A96CB"/>
  </linearGradient>
  <linearGradient id="id1" gradientUnits="userSpaceOnUse" x1="3199.59" y1="492.55" x2="3255.8" y2="488.78">
   <stop offset="0" style="stop-opacity:1; stop-color:#166792"/>
   <stop offset="1" style="stop-opacity:1; stop-color:#23AFE4"/>
  </linearGradient>
  <linearGradient id="id2" gradientUnits="userSpaceOnUse" xlink:href="#id1" x1="1243.77" y1="1761.43" x2="2579.2" y2="1751.4">
  </linearGradient>
  <linearGradient id="id3" gradientUnits="userSpaceOnUse" xlink:href="#id1" x1="670.17" y1="898.14" x2="3159.57" y2="750.69">
  </linearGradient>
  <linearGradient id="id4" gradientUnits="userSpaceOnUse" xlink:href="#id1" x1="3191.33" y1="771.69" x2="3264.98" y2="728.5">
  </linearGradient>
 </defs>
 <g id="Слой_x0020_1">
  <metadata id="CorelCorpID_0Corel-Layer"/>
  <path class="fil0" d="M956.84 2272.18c0,56.72 -214.18,102.69 -478.41,102.69 -264.23,0 -478.43,-45.97 -478.43,-102.69 0,-56.7 214.2,-102.69 478.43,-102.69 264.23,0 478.41,45.99 478.41,102.69z"/>
  <path class="fil0" d="M3890.78 2264.52c0,56.72 -234.71,102.69 -524.25,102.69 -289.54,0 -524.27,-45.97 -524.27,-102.69 0,-56.7 234.73,-102.69 524.27,-102.69 289.55,0 524.25,45.99 524.25,102.69z"/>
  <g id="_1677055145360">
   <polygon class="fil1" points="2232.08,1715.36 1590.87,1715.36 1590.87,1542.86 2232.08,1542.86 "/>
   <path class="fil2" d="M2906.08 1599.17l-1982.46 0c-66.37,0 -120.18,-53.8 -120.18,-120.17l0 -1358.82c0,-66.37 53.81,-120.18 120.18,-120.18l1982.46 0c66.37,0 120.18,53.82 120.18,120.18l0 1358.82c0,66.36 -53.81,120.17 -120.18,120.17z"/>
   <path class="fil3" d="M2883.56 1445.73l-1944.2 0c-40.77,0 -73.83,-33.05 -73.83,-73.84l0 -1239.74c0,-40.77 33.06,-73.82 73.83,-73.82l1944.2 0c40.79,0 73.85,33.05 73.85,73.82l0 1239.74c0,40.79 -33.07,73.84 -73.85,73.84z"/>
   <path class="fil4" d="M2507.68 1809.09l-1192.42 0 0 -15.01c0,-51.77 41.97,-93.73 93.74,-93.73l1004.95 0c51.77,0 93.73,41.96 93.73,93.73l0 15.01z"/>
   <g>
    <g>
     <polygon class="fil5" points="2767.83,888.29 2704.07,888.29 2704.07,728.23 2767.83,728.23 "/>
     <polygon class="fil6" points="2624.17,888.29 2560.39,888.29 2560.39,587.71 2624.17,587.71 "/>
     <polygon class="fil5" points="2480.48,888.29 2416.74,888.29 2416.74,618.79 2480.48,618.79 "/>
     <polygon class="fil6" points="2336.81,888.29 2273.07,888.29 2273.07,466.63 2336.81,466.63 "/>
     <polygon class="fil7" points="2624.17,888.29 2594.89,888.29 2594.89,587.71 2624.17,587.71 "/>
     <polygon class="fil8" points="2767.83,888.29 2738.57,888.29 2738.57,728.23 2767.83,728.23 "/>
     <polygon class="fil9" points="2336.81,888.29 2307.55,888.29 2307.55,466.63 2336.81,466.63 "/>
     <polygon class="fil8" points="2480.48,888.29 2451.22,888.29 2451.22,618.79 2480.48,618.79 "/>
     <polygon class="fil10" points="2239.32,932.35 2809.93,932.35 2809.93,379.03 2801.24,379.03 2801.24,923.66 2239.32,923.66 "/>
     <polygon class="fil10" points="2751.33,653.26 2757.14,646.8 2607.87,512.76 2469.6,542.8 2319.9,376.11 2313.41,381.94 2466.52,552.38 2605.36,522.2 "/>
     <polygon class="fil10" points="2301.68,406.57 2343.9,366.07 2289.41,351.49 "/>
    </g>
    <path class="fil11" d="M2082.77 1247.45l-1079.02 0c-41.33,0 -74.84,-33.51 -74.84,-74.84l0 -975.42c0,-41.35 33.52,-74.84 74.84,-74.84l1079.02 0c41.33,0 74.84,33.49 74.84,74.84l0 975.42c0,41.33 -33.51,74.84 -74.84,74.84z"/>
    <path class="fil12" d="M1729.21 294.81l289.08 0c10.77,0 19.49,-8.73 19.49,-19.5 0,-10.76 -8.72,-19.49 -19.49,-19.49l-289.08 0c-10.77,0 -19.5,8.73 -19.5,19.49 0,10.77 8.73,19.5 19.5,19.5z"/>
    <path class="fil13" d="M1729.21 362.85l289.08 0c10.77,0 19.49,-8.73 19.49,-19.5 0,-10.79 -8.72,-19.52 -19.49,-19.52l-289.08 0c-10.77,0 -19.5,8.73 -19.5,19.52 0,10.77 8.73,19.5 19.5,19.5z"/>
    <path class="fil13" d="M1729.21 430.88l289.08 0c10.77,0 19.49,-8.73 19.49,-19.49 0,-10.77 -8.72,-19.5 -19.49,-19.5l-289.08 0c-10.77,0 -19.5,8.73 -19.5,19.5 0,10.76 8.73,19.49 19.5,19.49z"/>
    <path class="fil13" d="M1415.07 699.39c-86.09,30.8 -178.9,3.01 -234.84,-62.73 -13.32,-15.68 -24.57,-33.52 -33.11,-53.23 -1.88,-4.34 -3.66,-8.78 -5.27,-13.32 -16.27,-45.49 -16.19,-92.86 -2.8,-135.66 19.34,-61.8 66.41,-114.08 132.07,-137.55 21.67,-7.76 43.75,-11.79 65.57,-12.46 90.12,-2.71 175.63,52.26 207.64,141.73 39.75,111.15 -18.13,233.47 -129.27,273.21zm196.46 -297.24c-42.7,-119.34 -156.74,-192.63 -276.94,-189.03 -29.11,0.89 -58.57,6.26 -87.49,16.6 -87.54,31.34 -150.33,101.08 -176.13,183.46 -17.89,57.1 -18,120.28 3.7,180.97 2.17,6.04 4.51,11.97 7.04,17.78 11.41,26.29 26.4,50.06 44.17,70.95 74.6,87.71 198.4,124.76 313.23,83.7 148.23,-53 225.43,-216.17 172.43,-364.43z"/>
    <path class="fil8" d="M1139.07 434.45l-68.09 -21.27c25.8,-82.38 88.59,-152.12 176.13,-183.46 28.92,-10.34 58.38,-15.71 87.49,-16.6l2.12 71.33c-21.83,0.67 -43.9,4.7 -65.57,12.46 -65.66,23.47 -112.73,75.75 -132.07,137.55z"/>
    <path class="fil14" d="M1147.13 583.43l-65.42 28.5c-2.52,-5.8 -4.86,-11.74 -7.04,-17.78 -21.7,-60.69 -21.59,-123.88 -3.7,-180.97l68.09 21.27c-13.4,42.8 -13.48,90.17 2.8,135.66 1.61,4.54 3.39,8.97 5.27,13.32z"/>
    <path class="fil5" d="M1125.88 682.87c-17.78,-20.89 -32.76,-44.66 -44.17,-70.95l65.42 -28.5c8.53,19.71 19.78,37.55 33.11,53.23l-54.35 46.21z"/>
    <path class="fil13" d="M1888.19 720.69c-16.19,34.21 -51.45,53.22 -87.06,50.34 -8.46,-0.7 -16.97,-2.6 -25.24,-5.88 -1.82,-0.73 -3.63,-1.51 -5.42,-2.37 -18.07,-8.54 -31.9,-22.43 -40.5,-38.86 -12.43,-23.73 -13.96,-52.79 -1.61,-78.87 4.05,-8.59 9.35,-16.25 15.52,-22.82 25.56,-27.15 66.64,-36.1 102.21,-19.29 44.12,20.89 62.97,73.61 42.1,117.74zm-29.49 -144.4c-47.4,-22.42 -102.21,-10.5 -136.31,25.73 -8.24,8.75 -15.28,18.96 -20.73,30.42 -16.44,34.78 -14.42,73.55 2.15,105.18 11.47,21.94 29.91,40.45 54.03,51.86 2.39,1.13 4.81,2.17 7.25,3.14 11.01,4.35 22.37,6.93 33.68,7.81 47.48,3.84 94.53,-21.51 116.09,-67.13 27.85,-58.87 2.71,-129.17 -56.15,-157.02z"/>
    <path class="fil8" d="M1729.96 723.93l-26.15 13.69c-16.57,-31.63 -18.59,-70.41 -2.15,-105.18 5.45,-11.47 12.49,-21.68 20.73,-30.42l21.49 20.22c-6.18,6.57 -11.47,14.23 -15.52,22.82 -12.36,26.07 -10.82,55.13 1.61,78.87z"/>
    <path class="fil13" d="M1775.88 765.15l-10.8 27.47c-2.44,-0.97 -4.86,-2.01 -7.25,-3.14 -24.12,-11.41 -42.56,-29.92 -54.03,-51.86l26.15 -13.69c8.6,16.43 22.43,30.32 40.5,38.86 1.8,0.86 3.6,1.64 5.42,2.37z"/>
    <path class="fil13" d="M1798.76 800.44c-11.31,-0.88 -22.66,-3.46 -33.68,-7.81l10.8 -27.47c8.27,3.27 16.78,5.18 25.24,5.88l-2.37 29.4z"/>
    <polygon class="fil13" points="1772.01,878.18 1551.84,878.18 1551.84,873.81 1767.67,873.81 1767.67,780.51 1772.01,780.51 "/>
    <polygon class="fil15" points="1551.84,854.49 1667.74,854.49 1667.74,828.23 1551.84,828.23 "/>
    <path class="fil16" d="M2082.77 1247.45l-705.93 0 0 -257.45c0,-27.9 22.64,-50.54 50.54,-50.54l730.23 0 0 233.15c0,41.33 -33.51,74.84 -74.84,74.84z"/>
    <g>
     <polygon class="fil15" points="1538.87,1361.63 1591.49,1361.63 1591.49,1038.82 1538.87,1038.82 "/>
     <polygon class="fil15" points="1669.57,1361.63 1722.22,1361.63 1722.22,1104.43 1669.57,1104.43 "/>
     <polygon class="fil15" points="1800.27,1361.63 1852.92,1361.63 1852.92,1056.14 1800.27,1056.14 "/>
     <polygon class="fil15" points="1930.97,1361.63 1983.62,1361.63 1983.62,1151.45 1930.97,1151.45 "/>
     <polygon class="fil15" points="2061.67,1361.63 2114.32,1361.63 2114.32,1066.05 2061.67,1066.05 "/>
     <polygon class="fil15" points="2453.78,1361.63 2506.43,1361.63 2506.43,1066.05 2453.78,1066.05 "/>
     <polygon class="fil15" points="2192.38,1361.63 2245.03,1361.63 2245.03,1021.5 2192.38,1021.5 "/>
     <polygon class="fil15" points="2584.48,1361.63 2637.13,1361.63 2637.13,1021.5 2584.48,1021.5 "/>
     <polygon class="fil15" points="2323.08,1361.63 2375.72,1361.63 2375.72,1002.95 2323.08,1002.95 "/>
     <polygon class="fil15" points="2715.19,1361.63 2767.83,1361.63 2767.83,1002.95 2715.19,1002.95 "/>
     <polygon class="fil5" points="1538.87,1361.63 1591.49,1361.63 1591.49,1159.1 1538.87,1159.1 "/>
     <polygon class="fil5" points="1669.57,1361.63 1722.22,1361.63 1722.22,1200.27 1669.57,1200.27 "/>
     <polygon class="fil5" points="1800.27,1361.63 1852.92,1361.63 1852.92,1169.98 1800.27,1169.98 "/>
     <polygon class="fil5" points="1930.97,1361.63 1983.62,1361.63 1983.62,1229.78 1930.97,1229.78 "/>
     <polygon class="fil5" points="2061.67,1361.63 2114.32,1361.63 2114.32,1176.21 2061.67,1176.21 "/>
     <polygon class="fil5" points="2453.78,1361.63 2506.43,1361.63 2506.43,1176.21 2453.78,1176.21 "/>
     <polygon class="fil5" points="2192.38,1361.63 2245.03,1361.63 2245.03,1148.25 2192.38,1148.25 "/>
     <polygon class="fil5" points="2584.48,1361.63 2637.13,1361.63 2637.13,1148.25 2584.48,1148.25 "/>
     <polygon class="fil5" points="2323.08,1361.63 2375.72,1361.63 2375.72,1136.6 2323.08,1136.6 "/>
     <polygon class="fil5" points="2715.19,1361.63 2767.83,1361.63 2767.83,1136.6 2715.19,1136.6 "/>
    </g>
   </g>
  </g>
  <g id="_1676896182464">
   <path class="fil17" d="M3654.49 2186.51c0,0 -17.73,35.53 -47.94,47.61 -32.35,12.93 -58.25,27.79 -57.69,49.18 0.61,21.43 79.03,43.1 136.08,2.02 36.06,-25.94 47.5,-26.07 53.26,-42.42 5.8,-16.32 -10.04,-58.77 -9.83,-63.93 0.28,-6.33 -73.88,7.53 -73.88,7.53z"/>
   <path class="fil17" d="M3162.21 2199.13c0,0 -24.81,37.1 -59.62,45.12 -34.81,8.01 -69.09,20.79 -69.33,42.74 -0.28,21.95 100.63,35.08 140.46,12.93 59.42,-33.07 65.47,-23.08 72.07,-39.6 6.57,-16.52 -7.93,-60.7 -7.49,-65.94 0.52,-6.48 -76.09,4.75 -76.09,4.75z"/>
   <path class="fil18" d="M3035.98 1165.96l-16.24 -130.74c0,-2.5 0.33,-4.95 0.95,-7.26l37.59 -3.72c-12.71,2.56 -22.3,13.79 -22.3,27.23l0 114.49z"/>
   <path class="fil19" d="M3537.32 1329.64c10,-39.58 38.21,-200.94 -121.16,-336.99 0,0 -98.14,39.08 -176.72,43.79 -61.88,3.71 -93.31,-1.99 -93.31,-1.99 0,0 -5.21,168.22 -5.44,259.15 -4.32,103.65 -11.09,277.57 -14.14,318.17 -0.72,9.49 -0.7,18.05 -0.08,25.78 -0.63,5.01 -0.87,10.46 -0.62,16.4 3.79,90.73 23.17,377.59 21.15,553.04 3.94,7.86 99.99,1.86 98.36,-6.54 12.54,-141.29 71.57,-418.91 5.36,-552.01 21.93,-70.34 66.41,-208.68 86.78,-291.68 25.53,104.77 67.85,283.31 80.31,322.28 2.4,7.51 5.04,14.26 7.86,20.31 0.86,4.89 2.23,10.08 4.18,15.6 30.38,85.58 155.53,322.7 205.3,490.95 0,0 4.57,6.91 14.6,7.48 9.46,0.51 77.31,-25.35 94.34,-37.02 -29.7,-138.9 -74.58,-385.4 -194.13,-502.47 -4.46,-75.44 -3.58,-250.55 -12.65,-344.26z"/>
   <path class="fil20" d="M3046.86 306.66c3.34,-3.52 6.68,-7.05 9.65,-10.87 23.2,-29.67 26.58,-55.98 48.1,-90.41 3.09,-4.96 7.39,-18.09 15.62,-29.9 8.57,-12.33 29.45,-25.76 34.86,-28.6 10.07,-5.25 1.42,16.89 1.42,16.89 0,0 8.52,-12.36 16.76,-11.48 3.22,0.35 3.78,19.23 3.82,22.45 0.41,25.93 -5.7,51.93 -17.63,74.95 -2.77,5.4 -5.97,10.95 -5.98,17.03 7.64,-0.16 14.07,-5.45 20.25,-9.96 6.17,-4.51 13.91,-8.65 21.17,-6.17 -1,3.09 -2.55,5.97 -4.09,8.83 -9.16,17.22 -19.44,35.53 -37.05,43.9 -10.52,5 -22.7,5.88 -32.98,11.34 -18.56,9.87 -27.59,32.73 -46.44,42.03l-27.49 -50.02z"/>
   <path class="fil21" d="M3157.06 313.32l-55.3 -23.14c-5.16,-2.16 -7.58,-8.08 -5.43,-13.24l49.18 -117.55c2.14,-5.16 8.08,-7.58 13.24,-5.43l55.3 23.14c5.15,2.16 7.58,8.09 5.44,13.24l-49.16 117.55c-2.16,5.16 -8.1,7.6 -13.26,5.44z"/>
   <polygon class="fil22" points="3165.49,308.25 3103.46,282.3 3154.32,160.71 3216.34,186.65 "/>
   <path class="fil23" d="M3216.34 426.7c0,0 -47.36,2.44 -89.62,15.12 -63.76,19.16 -85.7,48.7 -107.72,60.88 42.79,-54.36 90.49,-169.62 90.49,-169.62 0,0 -57.53,-47.28 -64.14,-36.08 -6.63,11.18 -248.05,293.71 -240.48,339.45 3.12,18.85 31.07,37.5 55.78,36.66 68.46,-2.35 147.97,-27.26 231.32,-54.53 36.63,-11.99 47.93,13.85 47.93,13.85l76.45 -205.72z"/>
   <path class="fil24" d="M3019 502.7c0,0 -30.41,61.29 -39.54,65.29 -9.13,4.01 22.17,-12.76 39.3,-30.44 17.12,-17.69 40.56,-64.11 40.56,-64.11 -8.97,3.68 -40.31,29.27 -40.31,29.27z"/>
   <path class="fil20" d="M3114.41 205.75c2.95,2.1 3.73,6.08 4.29,9.65 2.1,13.58 4.11,27.95 -1.18,40.64 -3.43,8.21 -9.63,14.96 -16.36,20.81 -7.59,6.63 -15.96,12.35 -24.88,17.01l38.12 -88.11z"/>
   <path class="fil25" d="M3217.83 103.78c-16.12,4.65 -24.66,25.48 -30.14,39.72 -6.6,17.17 -9.91,35.43 -12.05,53.61 -1.51,12.66 -2.41,25.99 2.63,37.71 2.57,5.98 6.56,11.22 10.51,16.39 2.24,2.95 4.54,5.92 7.58,8.01 3.06,2.07 7.05,3.12 10.5,1.78 5.03,-1.95 7.05,-7.83 8.47,-13.03 9.31,-33.84 19.46,-68.08 38.58,-97.54l-36.08 -46.64z"/>
   <path class="fil20" d="M3199.94 210.98c-0.33,-10.78 -11.68,-17.81 -21.51,-6.66 -8.13,9.24 -10.29,26.77 -10.75,39.75 -0.55,15.53 11.47,18.56 21.37,20.75l10.89 -53.84z"/>
   <path class="fil23" d="M3092.21 482.34c19.9,-22.84 83.07,-60.47 167.51,-57.79 58.17,1.83 216.61,11.42 234.31,50.35 9.06,19.88 18.77,223.61 5.53,293.88 -9.96,52.81 -35.47,183.66 -35.47,215.25 0,31.58 16.97,45.12 9.06,54.28 -17.74,20.54 -138.97,29.16 -195.89,29.16 -50.66,0 -136.87,-13.49 -141.26,-29.72 -6.5,-24.09 9.89,-23.2 12.11,-48.44 2.21,-25.27 8.62,-189.2 -0.69,-216.01 -16.76,-48.44 -24.93,-127.44 -38.24,-163.25 -10.12,-27.19 -36.9,-104.87 -16.98,-127.7z"/>
   <path class="fil24" d="M3455.03 647.15c6.03,12.57 47.05,78.51 47.05,78.51l1.64 7.88c-1,13.64 -2.36,25.69 -4.15,35.24 -9.96,52.81 -35.47,183.66 -35.47,215.25 0,31.58 16.25,44.54 9.06,54.28 -13.98,18.95 -242.56,61.54 -231.34,8.65 1.04,-4.78 191.86,-150.39 192.89,-155.27 8.79,-41.79 16.47,-71.9 20.32,-102.37 9.29,-73.33 -6.03,-154.72 0,-142.16z"/>
   <path class="fil26" d="M3213.71 351.66c0,0 -0.53,66.27 -3.22,68.95 -2.66,2.68 -15.76,8.85 -15.76,8.85 0,0 9.34,57.61 23.77,53.33 14.45,-4.28 109.75,-52.4 109.75,-52.4 0,0 -13.52,-5.52 -13.52,-10.84 0,-5.34 12.83,-109.57 12.83,-109.57l-113.85 41.69z"/>
   <path class="fil26" d="M3279.9 110.94c-13.9,3.79 -50.51,-3.79 -60.6,11.36 -10.1,15.15 -18.94,51.77 -22.72,61.87 -7.55,20.1 -12.46,41.6 -17.94,62.32 -7.14,27.01 -18.91,76.49 7.52,99.08 7.6,6.48 10.98,8.65 20.38,10.36 12.5,2.26 24.96,4.82 37.48,7.07 19.38,3.48 40.86,7.55 60.13,1.28 25.73,-8.35 39.84,-43.73 46.45,-67.74l37.87 -137.62 -108.57 -47.97z"/>
   <path class="fil27" d="M3211.36 508.64c0,0 -5.56,258.6 -16.09,415.91l38.01 52.45 26.15 -65.69c0,0 11.03,-189.72 -24.74,-400.88l-23.33 -1.79z"/>
   <path class="fil28" d="M3202.6 485.92l0.89 3.56c1.68,6.72 4.34,13.18 7.86,19.16l23.33 1.79c0,0 15.87,-8.31 17.99,-17.24 2.1,-8.94 -26.06,-23.56 -26.06,-23.56l-3.42 1.33c-7.88,3.1 -14.87,8.11 -20.3,14.61l-0.3 0.35z"/>
   <path class="fil3" d="M3316.36 403.41c0,0 14.93,9.28 26.62,27 -12,27.44 -39.14,76.2 -69,98.42 -13.96,-37.43 -47.37,-59.19 -47.37,-59.19 0,0 81.39,-14.49 89.74,-66.22z"/>
   <path class="fil29" d="M3226.62 469.63c0,0 -29.12,11.53 -46.4,44.11 0,0 -5.59,-44.04 6.3,-81.86 0,0 19.13,-24.46 25.74,-24.96 -2.74,31.15 14.37,62.72 14.37,62.72z"/>
   <path class="fil20" d="M3230.29 1046.96c-28.91,4.37 -39.57,15.09 -55.87,31.19 -1.33,1.31 -2.74,2.96 -2.46,4.81 0.39,2.3 3.1,3.32 5.41,3.71 13.42,2.13 15.6,-6.44 28.15,-11.68 8.48,-3.54 16.89,-7.2 25.32,-10.88l-0.55 -17.16z"/>
   <path class="fil30" d="M3132.13 836.33l102.43 328.27c2.76,8.82 -2.24,16.42 -10.84,16.48l-213.73 18.75c-7.66,0.06 -15.45,-5.96 -17.91,-13.8l-110.12 -323.29c-2.76,-8.8 9.93,-21.41 18.53,-21.46l213.73 -18.77c7.66,-0.05 15.46,5.95 17.91,13.82z"/>
   <path class="fil31" d="M3125.13 844.9l100.99 323.23c2.75,8.8 -2.24,16.42 -10.84,16.48l-213.73 18.75c-7.66,0.04 -15.45,-5.96 -17.91,-13.82l-100.99 -323.21c-2.76,-8.81 2.24,-16.42 10.84,-16.48l213.73 -18.75c7.66,-0.06 15.45,5.96 17.91,13.8z"/>
   <polygon class="fil29" points="2954.41,834.4 2961.97,862.74 3061.95,853.91 3053.72,825.69 "/>
   <path class="fil29" d="M2983.9 807.43c-2.42,-7.76 1.61,-14.59 9,-15.26 7.38,-0.69 15.34,5.03 17.75,12.78 2.44,7.76 -1.6,14.59 -8.99,15.28 -7.38,0.69 -15.34,-5.05 -17.76,-12.8zm-10.56 0.64c2.05,6.61 10,32.07 10,32.07l47.72 -4.42 -10.01 -32.06c-4.33,-13.82 -18.49,-24.04 -31.66,-22.81 -13.19,1.22 -20.37,13.41 -16.04,27.21z"/>
   <path class="fil26" d="M3311.71 1024.04c-22.4,4.67 -82.17,22.5 -88.44,25.47 -7.5,3.53 -32.24,22.28 -38.1,28.15 -22.48,22.56 -10.98,33.09 -19.83,63.67 -0.47,1.57 -0.56,3.2 -0.56,4.83 -0.02,3.21 4.31,5.95 8.64,2.97 2.35,3.95 9.29,1.51 12.66,-2.79 -0.07,3.06 4.21,4.99 11.11,1.18 3.7,-2.05 3.04,-1.86 11.62,-9.53 6.14,-5.48 13.29,-9.82 24.33,-14.8 7.43,-3.35 16.9,-6.36 23.7,-10.84 9.09,-5.99 25.29,-7.38 33.26,-33.31 1.77,-5.74 7.4,-9.26 12.47,-12.46 12.19,-7.63 24.36,-15.28 36.54,-22.91l-27.4 -19.64z"/>
   <path class="fil23" d="M3449.48 603.51c9.53,33.9 49.07,268.83 49.07,268.83l-222.78 161.34 18.55 48.73c0,0 266.54,-89.49 287.53,-150.67 20.99,-61.16 20.04,-337.51 -54,-434.46 -23.56,-30.86 -70.78,-46.44 -70.78,-46.44l-7.58 152.67z"/>
   <path class="fil20" d="M3221.01 1108.62c0,0 -2.22,2.05 -5.57,5.13 -3.46,3.07 -7.98,6.6 -11.55,11.36 -3.71,4.59 -7.46,9.31 -10.7,12.55 -3.16,3.29 -5.69,5.11 -5.69,5.11 0,0 5.45,-10.87 13.58,-20.08 3.9,-4.8 9.51,-8.13 13.23,-10.45 4.02,-2.16 6.7,-3.6 6.7,-3.6z"/>
   <path class="fil20" d="M3208.74 1093.86c0,0 -3.04,2.35 -6.22,7.07 -1.74,2.22 -3.64,4.92 -5.53,7.91 -0.97,1.46 -1.96,2.98 -2.96,4.53 -1.03,1.69 -1.82,2.88 -2.49,4.75 -5.91,14.34 -15.78,26.22 -15.78,26.22 0,0 1.27,-3.65 3.6,-8.86 2.27,-5.25 5.61,-12.04 8.77,-18.85 3.62,-7.33 8.85,-12.8 12.88,-17.01 4.17,-4.09 7.72,-5.75 7.72,-5.75z"/>
   <path class="fil20" d="M3194.66 1081.93c0,0 -1.93,3.21 -5.39,7.57 -1.64,2.22 -3.87,4.63 -5.69,7.39 -1.46,2.65 -2.85,6.36 -4.24,9.62 -2.76,6.75 -5.28,13.57 -7.24,18.74 -1.9,5.17 -3.31,8.65 -3.31,8.65 0,0 -0.05,-3.78 0.97,-9.29 0.91,-5.53 3.03,-12.78 6.19,-19.57 1.67,-3.45 3.07,-6.6 5.4,-9.76 2.35,-2.76 4.63,-5.01 6.71,-6.89 4.15,-3.68 6.6,-6.45 6.6,-6.45z"/>
   <path class="fil25" d="M3364.82 272.67c-8.74,-5.11 -15.41,-10.5 -21.12,-2.14 -3.01,4.45 -4.82,10.57 -9.96,12.09 -5.14,1.52 -10.44,-3.09 -11.7,-8.27 -1.27,-5.2 0.34,-10.61 1.92,-15.69 3.49,-11.3 7.02,-22.58 10.52,-33.87 3.43,-11.06 6.84,-23.19 2.46,-33.91 -2.22,-5.41 -6.25,-9.89 -10.68,-13.69 -14.48,-12.41 -33.31,-18.43 -51.99,-22.25 -18.66,-3.81 -37.77,-5.75 -55.94,-11.47 -7.63,-2.41 -15.2,-5.54 -21.31,-10.73 -9.86,-8.37 -14.96,-21.53 -15.1,-34.45 -0.14,-12.92 4.31,-25.62 10.92,-36.72 1.38,4.45 3.26,8.75 5.61,12.76 2.26,-5.94 5.75,-11.42 10.17,-15.98 5.45,30.32 133.09,20.2 162.92,33.56 20.66,9.26 37.76,15.32 37.13,48.82 0.59,2.18 2.38,3.79 4.05,5.33 18.32,16.83 26.23,37.29 28.55,67.68 2.82,37.18 -18.85,77.44 -40.08,108.1 -5.33,7.71 -8.3,13.17 -15.76,18.84 -7.44,5.67 -20.45,8.46 -29.66,6.71 -9.2,-1.77 -27.34,-0.97 -27.51,-10.34 -0.13,-6.71 14.19,-18.66 18.17,-24.07l18.39 -40.29z"/>
   <path class="fil26" d="M3331.39 307.79c0,0 -1.51,6.24 2.39,11.14 3.42,4.31 10.36,3.68 15.1,2.13 13.57,-4.39 22.92,-17.59 25.46,-31.24 3.03,-16.09 -5.61,-32.17 -20.35,-27.98 -8.6,2.45 -13.98,12.2 -13.88,21.17l-8.73 24.79z"/>
   <path class="fil20" d="M3213.77 357.33l40.95 7.54c0,0 -13.66,15.31 -41.48,15.31l0.53 -22.84z"/>
  </g>
  <g id="_1676868591664">
   <path class="fil32" d="M461.47 130.28c0,0 -73.91,-2.5 -97.46,58.06 -23.59,60.56 -5.77,107.02 0.94,129.08 17.56,57.58 18.98,78.52 10.51,113.27 -7.56,30.83 -14.47,46.75 -23.19,75.53 -8.69,28.83 5.81,25.63 7.08,27.73 1.27,2.07 289.31,28.69 289.31,28.69 0,0 -7.71,-62.38 -27.99,-76.88 -20.28,-14.47 -40.32,-17.41 -24.9,-79.17 15.45,-61.75 25.23,-90.41 16.58,-135.19 -10.04,-51.87 -16.32,-84.29 -65.11,-118.32 -29.4,-20.5 -62.49,-25.05 -85.78,-22.79z"/>
   <path class="fil20" d="M376.23 2167.1c0,0 40.64,60.34 56.99,74.88 0,0 36.39,13.34 40.02,38.82 3.63,25.48 3.05,42.46 -40.02,43.69 -43.04,1.2 -71.28,-6.54 -79.17,-32.6 -7.88,-26.1 -25.11,-43.84 -25.11,-43.84l0 54.59 -9.71 0c0,0 -2.43,-52.78 -3.05,-62.49 -0.58,-9.7 -6.94,-47 13.52,-63.54 20.43,-16.5 46.54,-9.52 46.54,-9.52z"/>
   <path class="fil20" d="M579.64 2118.86c0,0 7.01,16.65 20.32,33.98 9.74,12.69 40.02,64.88 53.36,68.52 13.34,3.64 54.56,10.91 58.2,33.95 3.63,23.05 5.49,39.44 -35.15,41.26 -40.65,1.82 -67.33,4.22 -86.73,-24.28 -19.41,-28.5 -50.34,-49.11 -50.34,-49.11l0 74.37 -15.78 0c0,0 -7.26,-77.39 -11.52,-82.87 -4.21,-5.45 -15.16,-64.89 22.47,-95.82 37.59,-30.93 45.19,0 45.19,0z"/>
   <path class="fil33" d="M348.93 1002.36c0,0 -45.66,67.91 -59.58,147.04 -13.92,79.16 2.59,343.62 1.97,382.73 -0.59,39.11 -36.98,136.46 -29.71,210.14 7.28,73.69 68.08,434.35 68.08,434.35l46.54 -9.52c0,0 -4.55,-373.9 0,-404.83 4.54,-30.93 13.67,-143.66 15.48,-156.42 1.82,-12.72 115.52,-347.14 115.52,-404.22 0,-57.04 -34.57,-292.36 -158.31,-199.27z"/>
   <path class="fil33" d="M606.69 1028.46c0,0 84.3,321.73 94.29,366.31 10,44.56 24.5,81.31 24.5,100.25 0,43.91 -16.32,114.43 -16.32,114.43l-129.51 509.41 -53.73 8.47c0,0 31.08,-313.08 32.6,-373.14 1.53,-60.19 47.88,-145.66 38.75,-171.14 -9.08,-25.48 -146.45,-319.3 -146.45,-319.3 0,0 -104,-328.71 155.87,-235.3z"/>
   <path class="fil33" d="M433.22 2241.98c0,0 -41.58,23.27 -68.41,-6.61 -22.61,-25.19 -35.12,-58.74 -35.12,-58.74l46.54 -9.52 56.99 74.88z"/>
   <path class="fil33" d="M653.33 2221.37c0,0 -36.39,9.09 -50.34,0 -13.96,-9.09 -61.36,-89.24 -77.07,-94.03 0,0 15.19,-30.9 53.73,-8.47 0,0 63.36,89.17 73.68,102.51z"/>
   <path class="fil34" d="M725.48 1495.02c0,0 -194.98,83.72 -485.27,83.72 0,0 30.57,-439.88 72.77,-534.6 42.2,-94.72 300.44,9.56 300.44,9.56 0,0 112.07,361.97 112.07,441.32z"/>
   <path class="fil34" d="M944.81 857.76c0,0 -177.86,15.31 -221.85,-4.29 -22.03,-9.81 -51.87,-50.45 -79.43,-95.02 -4.69,-7.6 -9.3,-15.3 -13.81,-22.94 -33.69,-57.46 -60.92,-113.84 -60.92,-113.84 0,0 -81.35,-102.37 5.23,-138.94 0,0 33.62,9.35 54.49,41.7 20.9,32.32 37.26,80.81 41.37,96.8 4.15,15.99 73.76,156.63 78.11,160.59 4.36,3.97 48.13,1.31 81.86,4.51 55.04,5.16 113.05,8.21 113.05,8.21l1.89 63.21z"/>
   <path class="fil34" d="M636.89 714.94c-21.88,50.63 -1.24,67.54 -11.27,118.17 -9.99,50.63 -13.56,194.91 -11.7,223.04 1.89,28.14 -249.36,57.07 -307.53,5.78 0,0 19.38,-109.45 54.96,-177.5 6.8,-12.9 3.53,-63.83 -3.35,-81.35 -2.11,-5.34 -10.5,-26.02 -21.19,-52.2l-0.03 -0.08c-11.12,-27.18 -24.69,-60.3 -36.1,-88.18 -13.56,-33.04 -24.1,-58.78 -24.1,-58.78 0,0 -8.69,-81.5 25.16,-107.74 29.41,-22.83 109.49,-30.97 123.84,-35.98 14.4,-4.98 56.24,-7.16 85.65,-2.8 0,0 45,21.26 60.63,24.39 15.62,3.13 76.29,81.9 86.91,110.68 10.62,28.76 0,71.9 -21.89,122.54z"/>
   <path class="fil33" d="M532.72 405.38c0,0 -9.02,82.6 -7.12,109.5 0,0 -37.63,45.69 -90.84,-55.87 0,0 13.23,-40.76 -3.6,-97.78 -16.86,-57.07 101.57,44.16 101.57,44.16z"/>
   <path class="fil33" d="M389.67 467.36c0,0 32.18,95.02 120.55,88.04 88.33,-6.98 41.87,-80.26 41.87,-80.26 0,0 -22.03,-12.62 -28.21,-13.81 -6.22,-1.2 -87.68,-4.65 -87.68,-4.65l-46.54 10.68z"/>
   <path class="fil35" d="M958.74 893.6l-210.58 0c-9.23,0 -16.71,-7.48 -16.71,-16.72l0 -315.19c0,-9.23 7.48,-16.76 16.71,-16.76l210.58 0c9.27,0 16.76,7.53 16.76,16.76l0 315.19c0,9.24 -7.49,16.72 -16.76,16.72z"/>
   <polygon class="fil11" points="748.01,869.9 958.92,869.9 958.92,568.63 748.01,568.63 "/>
   <path class="fil33" d="M670.52 822.39c0,0 8,0.15 13.23,-3.82 9.05,-6.84 12.33,-23.62 28.28,-22.43 16,1.24 23.41,51.36 19.42,60.85 -4,9.48 -26.22,14.21 -59,7.67 -32.79,-6.51 -1.93,-42.28 -1.93,-42.28z"/>
   <path class="fil33" d="M706.58 796.51c0,0 22.94,-7.81 49.48,-13.56 23.26,-5.05 51.03,-6.68 53.76,-2.65 3.02,4.5 -22.64,8.35 -45.47,14.86 -20.98,5.93 -15.95,8.14 -15.95,8.14 0,0 -1.38,-0.73 22.57,-2.95 25.74,-2.4 52.27,-2.36 54.89,2.8 1.27,2.48 0.4,4.19 -8.9,6.55 5.6,-0.25 6.39,1.16 6.62,3.41 1.09,11.6 -36.5,20.83 -51.41,24.5 11.45,-2.72 20.14,-3.55 15.99,4.22 -4.72,8.87 -58.34,19.63 -77.24,25.27 -20.65,6.14 -4.32,-70.6 -4.32,-70.6z"/>
   <path class="fil33" d="M947.69 611.89c0,0 34.68,-8.07 45.84,8.61 11.16,16.73 11.56,38.24 8.79,48.2 -2.8,9.93 -11.77,35.55 -23.51,30.28 -37.67,-16.86 -31.12,-87.09 -31.12,-87.09z"/>
   <path class="fil33" d="M982 612.26c0,0 -4.84,-23.45 -14.25,-19.45 -9.38,3.99 -0.91,19.48 -0.91,19.48l15.16 -0.03z"/>
   <path class="fil33" d="M947.69 611.89c0,0 0.55,-13.42 24.79,0.4 24.28,13.78 -24.79,-0.4 -24.79,-0.4z"/>
   <path class="fil36" d="M629.73 735.48c0,0 26.47,-62.88 27.59,-77.02 -0.25,8.36 -2.14,59.25 -13.78,100 -4.69,-7.6 -9.3,-15.3 -13.81,-22.94l0 -0.03z"/>
   <path class="fil37" d="M657.32 658.46c0,-0.8 0.03,-1.21 0.03,-1.21 0,0.33 0,0.73 -0.03,1.21z"/>
   <path class="fil36" d="M521.7 822.43l-110.14 -193.94c0,0 38.46,193.46 67.61,199.97 29.12,6.5 42.53,-6.03 42.53,-6.03z"/>
   <path class="fil34" d="M306.39 492.55c0,0 -52.85,26.32 -34.6,94.4 18.21,68.08 36.31,87.64 53.72,113.13 16.43,24.03 49.98,88.76 54.1,96.04 4.1,7.26 44.49,112.94 81.57,124.93 37.26,12.07 220.72,-46.38 224.86,-39.99 4.15,6.36 -0.25,-64.37 -0.25,-64.37 0,0 -85.24,6.29 -104.08,5.01 -30.53,-2.07 -79.57,10.4 -91.34,-16.03 -13.84,-31.11 -63.51,-133.29 -68.74,-150.12 -5.23,-16.84 -66.23,-180.3 -115.23,-163z"/>
   <path class="fil26" d="M519.08 169.04c0,0 81.5,53.22 55,181.83 -26.5,128.6 -122.72,57.9 -133.15,50.6 -10.47,-7.27 -42.78,-87.79 -44.02,-122.9 -1.21,-33.04 -18.47,-165.61 122.17,-109.52z"/>
   <path class="fil32" d="M513.45 194.84c-8.5,-2.5 -37.16,52.92 -52.6,66.64 -15.45,13.66 -43.84,48.02 -46.64,85.64 -2.76,37.62 -34.54,-82.23 -23.52,-126.68 10.98,-44.5 25.63,-109.7 124.94,-57.98 99.34,51.72 73.64,144.2 73.64,144.2 0,0 -32.86,-99.12 -75.83,-111.81z"/>
   <path class="fil26" d="M444.63 283.6c-2.61,-15.19 -36.2,-28.05 -35.73,-5.19 0.51,22.86 19.05,49.26 29.55,47.58 10.47,-1.67 8.61,-28.32 6.18,-42.39z"/>
   <path class="fil38" d="M448.75 406.8c0.61,1.12 19.99,38.39 79.31,47.8 1.34,-14.54 3.16,-32.35 3.16,-32.35 0,0 -42.71,14.36 -82.48,-15.45z"/>
  </g>
 </g>
</svg>
