<?xml version="1.0" encoding="UTF-8"?>
<!DOCTYPE svg PUBLIC "-//W3C//DTD SVG 1.1//EN" "http://www.w3.org/Graphics/SVG/1.1/DTD/svg11.dtd">
<!-- Creator: CorelDRAW 2019 (64-Bit) -->
<svg xmlns="http://www.w3.org/2000/svg" xml:space="preserve" width="53.4406mm" height="85.7537mm" version="1.1" style="shape-rendering:geometricPrecision; text-rendering:geometricPrecision; image-rendering:optimizeQuality; fill-rule:evenodd; clip-rule:evenodd"
viewBox="0 0 337.5 541.56"
 xmlns:xlink="http://www.w3.org/1999/xlink"
 xmlns:xodm="http://www.corel.com/coreldraw/odm/2003">
 <defs>
  <style type="text/css">
   <![CDATA[
    .str1 {stroke:#070808;stroke-width:2.31;stroke-linecap:round;stroke-miterlimit:10}
    .str0 {stroke:#422818;stroke-width:2.25;stroke-linecap:round;stroke-miterlimit:10}
    .fil14 {fill:none;fill-rule:nonzero}
    .fil16 {fill:#1F1B20;fill-rule:nonzero}
    .fil4 {fill:#181818;fill-rule:nonzero}
    .fil9 {fill:#465F9A;fill-rule:nonzero}
    .fil5 {fill:#484442;fill-rule:nonzero}
    .fil12 {fill:#4E3866;fill-rule:nonzero}
    .fil11 {fill:#673D16;fill-rule:nonzero}
    .fil13 {fill:#6E4C54;fill-rule:nonzero}
    .fil3 {fill:#7F89D8;fill-rule:nonzero}
    .fil15 {fill:#858585;fill-rule:nonzero}
    .fil8 {fill:#A77860;fill-rule:nonzero}
    .fil0 {fill:#D7EEFC;fill-rule:nonzero}
    .fil7 {fill:#EEA987;fill-rule:nonzero}
    .fil1 {fill:#F6DCA4;fill-rule:nonzero}
    .fil6 {fill:#FCFCFC;fill-rule:nonzero}
    .fil2 {fill:#FDFDFD;fill-rule:nonzero}
    .fil10 {fill:white;fill-rule:nonzero}
   ]]>
  </style>
 </defs>
 <g id="Слой_x0020_1">
  <metadata id="CorelCorpID_0Corel-Layer"/>
  <path class="fil0" d="M337.5 512.32c0,16.16 -75.55,29.25 -168.75,29.25 -93.2,0 -168.75,-13.09 -168.75,-29.25 0,-16.14 75.55,-29.24 168.75,-29.24 93.2,0 168.75,13.09 168.75,29.24z"/>
  <g id="_1676905956480">
   <path class="fil1" d="M209.02 115.59c0,0 8.84,-9.78 11.55,-10.02 2.71,-0.24 0.82,30.88 0.82,30.88 0,0 -9.9,-1.53 -10.73,-3.54 -0.82,-2 -1.65,-17.33 -1.65,-17.33z"/>
   <polygon class="fil2" points="200.33,120.1 209.02,115.59 217.62,137.4 209.23,142.57 "/>
   <polygon class="fil3" points="213.56,127.12 208.33,140.32 209.23,142.57 217.62,137.4 "/>
   <path class="fil4" d="M221.03 27.58c0,0 -7.61,-4.47 -6.15,-10.98 1.45,-6.51 8.35,-15.24 11.64,-16.08 3.29,-0.84 3.83,1.68 3.83,1.68 0,0 4.98,-3.25 7.74,-1.86 2.76,1.4 0.84,4.92 0.84,4.92 0,0 13.05,-0.26 20.2,4.75 7.15,5 10.75,13.48 11.04,23.28 0.29,9.8 -2.67,18.59 -2.67,18.59l-12.77 4.8 -33.7 -29.1z"/>
   <path class="fil5" d="M230.47 86.24c0,0 -9.67,14.56 -11.61,19.16 -1.95,4.6 -11.32,70.23 -11.32,70.23 0,0 -3.71,0.14 -3.54,2.61 0.18,2.48 -0.01,3.89 -0.01,3.89l-22.45 15.74 11.85 29.39 24.93 -17.35 -7.66 37.36 6.72 0 1.15 94.27 6.48 58 10.68 2.26 17.79 5.09 0.45 -27.26 1.19 -37.97 2.26 -34.24 0.85 32.27 40.11 78.78 4.06 4.74 -5.5 -47.08 -2.18 -109.99 1.59 -0.04c0,0 17.15,-63.96 17.86,-73.51 0.71,-9.55 -15.74,-88.94 -19.98,-94.42 -4.24,-5.48 -29.02,-20.01 -29.02,-20.01l-34.69 8.11z"/>
   <path class="fil4" d="M274.56 128.03c0,0 7.78,38.72 9.67,49.8 1.89,11.08 -5.89,12.49 -2,15.09 3.89,2.59 3.89,2.59 3.89,2.59 0,0 -6.48,3.3 -5.78,5.07 0.71,1.77 3.06,5.42 3.06,5.42l-12.32 52.49 1.12 0.79 22.51 6.84 1.54 77.79c0,0 -26.47,-24.14 -27.33,-33.81 -0.86,-9.67 -3.55,-24.63 -3.55,-24.63l-7.21 5.88 -14.73 -12.36 2.12 35.35c0,0 -4.71,-14.62 -8.25,-30.18 -3.54,-15.56 -20.37,-21.47 -20.37,-21.47l0.45 -15.42 12.14 0.59 6.13 -12.29 14.62 21.48c0,0 10.61,-2.83 12.97,-3.07 2.36,-0.24 9.24,-22.16 11.81,-33.48 2.57,-11.32 -3.47,-18.86 -0.69,-27.11 2.78,-8.25 3.73,0.07 4.91,-17.76 1.18,-17.83 -8.25,-47.66 -4.71,-47.6z"/>
   <path class="fil6" d="M263.47 77.17c0,0 -12.44,17.62 -16.5,31.06 -4.07,13.44 -12.02,56.05 -12.02,56.05 0,0 -8.77,-33.67 -7.43,-54.64 1.35,-20.96 2.95,-23.4 2.95,-23.4l33.01 -9.08z"/>
   <path class="fil2" d="M234.6 91.78l-6.29 7.81c0,0 0.98,-11.71 2.16,-13.35 5.87,-8.11 33.01,-9.08 33.01,-9.08l-14.29 25.08 -6.81 -10.46 -7.78 0z"/>
   <path class="fil7" d="M264.65 55.01l-1.18 22.16 -21.1 14.62 -7.78 0 -2.36 -6.41c0,0 2.16,-12.88 -0.57,-22.96 -2.47,-9.13 32.99,-7.41 32.99,-7.41z"/>
   <path class="fil8" d="M231.67 62.42c1.95,7.2 1.4,15.8 0.93,20.15 19.76,-5.25 31.86,-23.93 31.86,-23.93l0.19 -3.62c-6.53,0.58 -22.25,1.18 -31.06,3.47 -1.58,1.01 -2.38,2.3 -1.93,3.94z"/>
   <path class="fil9" d="M199.76 118.66c0,0 -25.64,16.8 -31.65,18.74 -6.01,1.94 -6.3,-3.18 -9.37,1.24 -3.07,4.42 -3.88,3.95 -7.64,1.78 -3.76,-2.17 -35.86,-33.79 -40.28,-36.79 -4.42,-3.01 -9.72,-2.65 -9.72,-2.65l-38.37 -4.77c0,0 -10.26,10.79 -14.85,14.32 -4.6,3.54 -13.79,10.61 -12.2,23.52 1.59,12.91 16.8,43.32 16.8,43.32l5.42 48.56 -5.66 46.44 8.25 1.18 -6.56 157.38 44.12 -83.22 4.51 -27.79 0.37 66.24 27.53 33.45 10.41 -148.18 5.72 -3.3 -11.58 -40.81 6.57 -18.12 -11.67 -3.79 -3.18 -47.13c0,0 31.65,18.57 38.9,17.33 7.25,-1.24 44.2,-31.47 44.2,-31.47l-10.08 -25.46z"/>
   <path class="fil2" d="M62.73 96.2l6.79 2.91c2.94,1.26 5.34,3.53 6.75,6.41l33.31 67.95 -8.49 -72.49 -38.37 -4.77z"/>
   <path class="fil7" d="M96.99 75.43l0.35 6.15c0.37,6.61 1.64,13.13 3.76,19.39l-1.95 7.07 -5.83 1.24 -30.59 -13.08c0,0 4.95,-7.25 1.95,-32.18 -3.01,-24.93 32.31,11.41 32.31,11.41z"/>
   <polygon class="fil10" points="93.32,109.29 65.06,87.98 62.73,96.2 78.03,109.09 "/>
   <path class="fil8" d="M65.06 67.62c0.1,1.01 0.17,1.97 0.25,2.91 6.39,6.78 22.98,23.6 34.28,25.35 -1.22,-4.68 -1.98,-9.46 -2.25,-14.3l-0.35 -6.15c0,0 -35.32,-36.34 -32.31,-11.41 0.15,1.26 0.27,2.45 0.38,3.6z"/>
   <path class="fil11" d="M104.79 40.12c0,0 3.01,-7.12 2.07,-14.44 -0.94,-7.31 -4.52,-12.99 -8.1,-14.33 -3.58,-1.34 -5.13,-0.45 -5.13,-0.45 0,0 -2.48,-9.55 -13.23,-6.12 -10.75,3.43 -17.46,16.42 -26.57,19.85 -9.1,3.43 -12.69,3.28 -12.69,7.61 0,4.33 7.91,7.87 7.91,7.87 0,0 0.6,20.94 11.34,24.97 10.75,4.03 44.39,-24.97 44.39,-24.97z"/>
   <path class="fil7" d="M91.9 23.59c0,0 9.1,0.6 10.9,7.46 1.79,6.86 4.25,22.84 3.58,31.19 -0.53,6.64 -2.84,15.52 -9.85,19.7 -7.02,4.18 -21.26,-4.05 -25.37,-6.42 -4.11,-2.37 -5.23,-5.07 -5.23,-5.07 0,0 -5.12,2.44 -7.11,-3.83 -1.99,-6.27 2.19,-9.05 5.08,-8.46 2.89,0.6 2.89,5.67 2.89,5.67l1.21 -0.54c1.51,-0.68 2.39,-2.27 2.16,-3.91 -0.93,-6.45 -2.94,-22.15 -0.98,-24.9 2.49,-3.48 13.33,0.2 18.41,-2.59 5.07,-2.79 4.33,-8.31 4.33,-8.31z"/>
   <polygon class="fil6" points="87.23,127.87 93.32,109.29 99.16,108.05 103.83,124.31 109.59,173.47 "/>
   <polygon class="fil8" points="88.73,123.29 94.12,129.71 94.85,143.4 109.59,173.47 105.29,136.76 102.16,128.29 103.35,122.63 99.16,108.05 93.32,109.29 "/>
   <path class="fil12" d="M81.83 235.95c4.13,0.71 16.39,2.47 24.52,1.3 8.13,-1.18 15.8,4.24 21.22,6.95 5.42,2.71 13.65,4.96 13.65,4.96l-4.54 -16c-0,-0 -56.14,-16.42 -61.8,-20.19 -5.66,-3.77 -22.4,-35.6 -22.4,-35.6l5.42 48.57c8.96,10.02 19.8,9.31 23.93,10.02z"/>
   <path class="fil12" d="M164.51 175.63c-5.38,-3.28 -11.52,-10.8 -20.45,-21.96 -11.32,-14.15 -26.05,-34.54 -26.05,-34.54l8.72 39.13c0,0 28.88,16.94 37.78,17.37z"/>
   <path class="fil12" d="M129.92 205.4c0,0 -29.18,-7.53 -29.53,-10.36 -0.35,-2.83 -1.41,-3.8 -3.18,-3.09 -1.77,0.71 0.09,0 -1.24,-3.27 -1.33,-3.27 -3.36,0.8 -5.3,-3.36 -1.95,-4.16 -23.87,-46.68 -24.75,-50.48 -0.88,-3.8 13.79,17.06 16,22.54 2.21,5.48 13.35,28.29 19.18,32.36 5.83,4.07 28.62,12.65 28.62,12.65l0.2 3.01z"/>
   <path class="fil12" d="M60.49 273.55c0,0 12.02,1.18 25.11,0.59 13.08,-0.59 18.51,-1.77 18.51,-1.77l6.6 -15.32c0,0 8.01,11.67 11.96,13.44 3.95,1.77 23.93,-2.36 23.93,-2.36l-5.72 3.3 0.37 4.72c0,0 -4.44,5.53 -9.21,10.31 -4.77,4.77 -11.67,8.84 -11.67,8.84l-8.84 58.17 0 -66.84c0,0 -6.9,-0.35 -17.33,8.31 -10.43,8.66 -19.27,12.91 -25.46,18.92 -6.19,6.01 -10.38,12.92 -10.38,12.92l2.13 -53.24z"/>
   <path class="fil13" d="M94.12 129.71l8.04 -1.41c0,0 -3.13,2.12 -4.26,6.54 -1.13,4.42 2.73,20.35 2.73,20.35l-5.78 -11.79 -0.73 -13.69z"/>
   <polygon class="fil13" points="93.32,109.29 91.7,126.83 88.73,123.29 "/>
   <path class="fil14 str0" d="M92.2 19.86c0,0 -1.31,-10.9 -11.18,-5.82 -9.87,5.07 -15.39,14.63 -33.45,15.52"/>
   <path class="fil14 str0" d="M86.53 23.59c0,0 -2.99,2.84 -14.78,5.08"/>
   <path class="fil14 str0" d="M65.78 40.26c0,0 -7.96,5.27 -13.63,4.58"/>
   <path class="fil14 str0" d="M65.78 48.12c0,0 -5.47,4.48 -10.55,4.28"/>
   <path class="fil14 str0" d="M64.78 32.5c0,0 -7.56,2.49 -13.63,1.79"/>
   <path class="fil14 str0" d="M95.13 15.58c0,0 7.66,0.6 9.25,6.57"/>
   <path class="fil7" d="M221.03 27.58c0,0 -2.57,27.94 1,36.21 3.57,8.27 5.84,10.04 11.35,9.53 5.51,-0.51 12.97,-3.26 19.1,-7.25 6.13,-3.98 7.76,-7.35 7.76,-7.35 0,0 3.17,3.27 7.05,-0.31 3.88,-3.57 3.78,-8.68 0,-11.34 -3.78,-2.65 -6.64,3.68 -6.64,3.68l-4.6 1.53c0,0 2.86,-21.14 -0.2,-24.71 -3.06,-3.57 -10.31,-4.6 -15.32,-1.02 -5,3.57 -15.3,3.45 -19.51,1.02z"/>
   <path class="fil9" d="M227.71 122.55c1.46,19.56 7.23,41.72 7.23,41.72 0,0 5.14,-27.49 9.26,-45.28l-2.78 -11.07 5.62 -8.96 -4.68 -7.19 -7.78 0 -4.72 5.87 2.72 10.99 -4.88 13.91 0 0z"/>
   <path class="fil2" d="M251.3 135.46c0,0 5.39,-12.82 6.9,-12.82 1.5,0 5.27,9.02 5.27,9.02 0,0 3.3,-2.12 4.45,-1.5 1.15,0.62 0.44,5.3 0.44,5.3l-17.06 0z"/>
   <path class="fil7" d="M269.72 269.07c0,0 -3.65,8.72 -5.54,12.38 -1.89,3.65 -6.37,8.49 -6.01,9.9 0.35,1.41 6.25,0 6.25,0 0,0 -0.35,6.25 0.94,13.56 1.3,7.31 2.65,8.07 3.89,7.66 1.24,-0.41 1.3,-1.53 1.3,-1.53 0,0 0.94,1.65 2.42,1.62 1.47,-0.03 1.95,-1.56 1.95,-1.56 0,0 1.06,1.24 2.59,0.94 1.53,-0.29 4.3,-4.63 5.1,-7.28 0.8,-2.65 1.5,-4.33 1.5,-4.33 0,0 -2.03,6.63 -1.5,7.96 0.53,1.33 3.74,0.29 5.59,-5.41 1.32,-4.06 2.89,-10.15 3.42,-16.43 0.53,-6.28 0.27,-10.76 0.27,-10.76 0,0 -8.43,-11.02 -22.16,-6.72z"/>
   <path class="fil2" d="M294.71 266.12c0,0 -1.18,-3.06 -10.61,-5.07 -9.43,-2 -11.91,-1.77 -11.91,-1.77l-2.48 9.78c0,0 5.89,0.12 12.49,2 6.6,1.89 9.67,4.72 9.67,4.72l2.83 -9.67z"/>
   <path class="fil8" d="M264.42 291.35c0,0 0.3,-6.53 0.96,-12.36 -0.44,0.93 -0.84,1.78 -1.19,2.46 -0.1,0.2 -0.24,0.41 -0.36,0.62 -0.08,2 -0.37,5.43 -1.47,6.95 -0.79,1.1 -2.25,2.09 -3.51,2.81 1.61,0.45 5.57,-0.48 5.57,-0.48z"/>
   <path class="fil8" d="M285.28 304.9c-1.24,-1.65 0.59,-8.43 0.59,-8.43 0,0 -0.97,2.45 -2.09,5.05 -0.55,1.94 -1.58,5.87 -1.18,6.86 0.44,1.09 2.68,0.54 4.5,-2.86 -0.56,0.18 -1.24,0.15 -1.82,-0.62z"/>
   <path class="fil8" d="M283.24 302.77c-1,2.25 -2.01,4.33 -2.5,4.73 -1.14,0.93 -2.65,1.12 -3.54,-0.41 -0.88,-1.53 3.3,-12.02 2.42,-11.79 -0.88,0.24 -4.07,10.55 -4.17,11.32 -0.09,0.77 -1.02,1.71 -1.9,1.94 -0.88,0.24 -2.06,0.18 -2.18,-1.53 -0.12,-1.71 1.77,-14.15 1,-14.15 -0.77,0 -1.89,11.55 -1.89,11.55 0,0 -0.24,2.71 -2.42,2.89 -1.29,0.1 -2.12,-0.92 -2.58,-1.78 1.26,6.66 2.56,7.42 3.76,7.02 1.24,-0.41 1.3,-1.53 1.3,-1.53 0,0 0.94,1.65 2.42,1.62 1.47,-0.03 1.95,-1.56 1.95,-1.56 0,0 1.06,1.24 2.59,0.94 1.53,-0.29 4.3,-4.63 5.1,-7.28 0.23,-0.76 0.44,-1.41 0.64,-1.99z"/>
   <path class="fil4" d="M189.04 216.45c0,0 18.82,-8.14 18.75,-10.83 -0.07,-2.68 -7.02,-5.04 -5.37,-9.05 1.65,-4.01 8.96,2.71 10.61,0 1.65,-2.71 -6.25,-9.67 -5.19,-12.02 1.06,-2.36 4.95,2.48 6.6,1.42 1.65,-1.06 5.3,-36.31 5.3,-36.31 0,0 1.25,45.78 1.25,49.32 0,3.54 -2.67,10.93 -2.67,10.93l-24.93 17.35 -4.36 -10.81z"/>
   <path class="fil8" d="M188.03 227.26c0,0 -6.84,8.81 -10.96,13.52 -4.13,4.72 -11.43,10.05 -14.79,9.96 -3.36,-0.09 -3.01,-5.48 -3.01,-5.48 0,0 -4.15,3.45 -7.51,1.59 -3.36,-1.86 -1.68,-5.39 -1.68,-5.39 0,0 -2.65,1.94 -5.39,0.88 -2.74,-1.06 -1.41,-6.98 -1.41,-6.98 0,0 -1.73,2.16 -3.57,2.06 -1.84,-0.1 -5.98,-1.18 -3.41,-6.66 2.56,-5.48 12.33,-11.12 17.01,-13.82 4.68,-2.7 21.28,-4.48 21.28,-4.48 0,0 15.53,6.7 13.47,14.8z"/>
   <path class="fil7" d="M150.52 212.9c0,0 4.25,-4.25 6.51,-4.66 2.26,-0.41 9.67,1.66 9.67,1.66l2.83 9.66c0,0 7.19,3.18 9.9,4.01 2.71,0.82 9.14,5.13 9.31,7.19 0.18,2.06 -3.54,2.47 -5.48,1.77 -1.95,-0.71 -5.46,-2.74 -5.46,-2.74 0,0 -5.61,-1.03 -6.44,0.09 -0.82,1.12 11.49,5.42 11.85,6.37 0.35,0.94 0.52,2.39 -1.08,3.93 -1.59,1.55 -4.29,1.41 -4.29,1.41 0,0 -0.57,1.28 -2.61,2.34 -2.03,1.06 -4.07,0.66 -4.07,0.66 0,0 -1.58,1.84 -5.53,1.72 -3.95,-0.12 -22.75,-12.22 -22.75,-12.22l7.63 -21.2z"/>
   <path class="fil8" d="M166.7 209.9c0,0 -2.08,-0.58 -4.38,-1.06l-3.64 7.77 8.41 -5.35 -0.4 -1.36z"/>
   <path class="fil8" d="M155.99 228.62c0,0 3.11,3.24 7.97,1.01 4.86,-2.23 6.81,-6.47 6.81,-6.47 0,0 5.67,1.03 7.52,-1.92 1.85,-2.94 -10.35,-6.21 -10.35,-6.21l-11.95 13.59z"/>
   <path class="fil7" d="M176.89 205.4c0,0 -3.47,-1.75 -5.48,-0.93 -2,0.82 -10.96,7.78 -12.73,12.14 -1.77,4.36 -2.06,9.67 -2.83,11.2 -0.77,1.53 4.54,3.06 7.25,0.24 2.71,-2.83 5.73,-8.09 5.73,-8.09 0,0 10.29,4.55 14.2,-2.08 3.91,-6.63 -6.14,-12.48 -6.14,-12.48z"/>
   <path class="fil8" d="M182.13 240.18c0.41,-0.4 0.7,-0.79 0.9,-1.16 -0.78,0.48 -1.99,1.06 -3.36,1.06 -2.36,0 -10.78,-4.18 -11.14,-3.71 -0.35,0.47 9.31,5.23 9.31,5.23 0,0 2.7,0.13 4.29,-1.41z"/>
   <path class="fil8" d="M175.23 243.93c0.19,-0.1 0.3,-0.2 0.47,-0.3 -0.74,0.02 -1.66,-0.04 -2.81,-0.32 -3.36,-0.83 -8.31,-4.88 -8.9,-4.3 -0.59,0.58 7.18,5.58 7.18,5.58 0,0 2.03,0.4 4.07,-0.66z"/>
   <path class="fil8" d="M169.04 245.85c-1.09,-0.24 -2.35,-0.57 -3.81,-1.06 -4.86,-1.62 -17.01,-9.66 -21.58,-12.78l-0.75 2.1c0,0 18.8,12.1 22.75,12.22 1.44,0.04 2.55,-0.18 3.4,-0.47z"/>
   <path class="fil7" d="M143.93 235.22c0,0 1.99,-0.31 3.45,0.31 1.46,0.62 3.27,3.1 2.74,4.42 -0.53,1.33 -3.4,1.53 -5.26,0.49 -1.86,-1.05 -1.98,-4.61 -0.93,-5.22z"/>
   <path class="fil7" d="M151.49 240.57c0,0 1.59,-1.28 3.98,0 2.39,1.28 2.96,2.98 2.21,4.1 -0.75,1.12 -2.74,1.34 -4.77,-0.29 -2.03,-1.64 -2.04,-3.01 -1.41,-3.8z"/>
   <path class="fil7" d="M160.78 245.04c0,0 1.99,-0.8 4.15,0.27 2.17,1.06 1.68,2.47 0,3.23 -1.68,0.75 -5.39,-1.55 -4.15,-3.49z"/>
   <path class="fil2" d="M141.33 209.9l9.19 3c0,0 -3.36,13.08 -5.39,17.24 -2.03,4.16 -2.8,4.6 -2.8,4.6l-9.13 -2.57 8.14 -22.27z"/>
   <path class="fil2" d="M182.5 200.23l-6.14 3.3c0,0 2.71,10.02 5.19,15.21 2.48,5.19 6.48,8.52 6.48,8.52l4.35 -2.51 -9.88 -24.52z"/>
   <path class="fil15" d="M183.45 222.01c2.22,3.27 4.58,5.25 4.58,5.25l4.35 -2.51 -2.75 -6.82 -6.19 4.08z"/>
   <path class="fil3" d="M135.62 225.54l-2.42 6.63 9.13 2.57c0,0 0.77,-0.44 2.8,-4.6 0.2,-0.41 0.41,-0.92 0.63,-1.48l-10.14 -3.12z"/>
   <path class="fil15" d="M287.78 273.21c2.76,1.37 4.1,2.58 4.1,2.58l2.83 -9.67c0,0 -0.6,-1.52 -4.25,-3.12l-2.68 10.21z"/>
   <path class="fil6" d="M130.57 225.19c0,1.32 -1.07,2.39 -2.39,2.39 -1.32,0 -2.39,-1.07 -2.39,-2.39 0,-1.32 1.07,-2.39 2.39,-2.39 1.32,0 2.39,1.07 2.39,2.39z"/>
   <path class="fil6" d="M123.79 223.15c0,1.32 -1.07,2.39 -2.39,2.39 -1.32,0 -2.39,-1.07 -2.39,-2.39 0,-1.32 1.07,-2.39 2.39,-2.39 1.32,0 2.39,1.07 2.39,2.39z"/>
   <path class="fil6" d="M117.01 221.12c0,1.32 -1.07,2.39 -2.39,2.39 -1.32,0 -2.39,-1.07 -2.39,-2.39 0,-1.32 1.07,-2.39 2.39,-2.39 1.32,0 2.39,1.07 2.39,2.39z"/>
   <polygon class="fil12" points="234.6,91.78 230.56,100.42 229.87,97.65 "/>
   <path class="fil12" d="M242.38 91.78l1.66 8.13 -4.6 8.02 -4.36 0c0,0 4.01,4.6 5.3,9.43 1.3,4.83 -0.12,19.68 -0.12,19.68l3.96 -18.05 -2.78 -11.07 5.62 -8.96 -4.68 -7.19z"/>
   <line class="fil14 str1" x1="260.86" y1="32.38" x2="267.8" y2= "32.38" />
   <line class="fil14 str1" x1="260.86" y1="38.36" x2="266.88" y2= "38.36" />
   <path class="fil4" d="M238.37 179.42c0,1.27 -1.03,2.3 -2.3,2.3 -1.27,0 -2.3,-1.03 -2.3,-2.3 0,-1.27 1.03,-2.3 2.3,-2.3 1.27,0 2.3,1.03 2.3,2.3z"/>
   <path class="fil4" d="M238.37 202.53c0,1.27 -1.03,2.3 -2.3,2.3 -1.27,0 -2.3,-1.03 -2.3,-2.3 0,-1.27 1.03,-2.3 2.3,-2.3 1.27,0 2.3,1.03 2.3,2.3z"/>
   <polygon class="fil2" points="242.38,91.78 263.83,70.58 265.16,78.14 249.18,102.24 "/>
   <path class="fil16" d="M216.41 499.74c4.86,0 17.97,-3.62 19.95,-4.71 1.16,-0.64 3.4,-1.53 4.19,-2.92 0.13,-0.23 0.38,-0.5 0.55,-0.84 0.38,2.04 0.18,2.56 0.84,2.94 0.33,0.19 6.82,-0.9 8.09,-1.16 1.7,-0.35 4.43,-0.78 5.9,-1.64 0.71,-0.42 0.63,-0.71 0.63,-1.52 0,-0.91 0.24,-2.83 0.05,-3.83 -2.21,1.94 -8.22,0.99 -10.91,1.01 -5.31,0.05 -10.28,2.91 -15.4,4.19 -5.44,1.36 -10.7,2.53 -16.33,2.52 -2.66,-0 -5.26,-0.49 -7.89,-0.36 -0.77,0.04 -1.82,-0.22 -2.55,0 -1.05,0.31 -0.79,0.71 -0.85,1.83 -0.03,0.74 0.08,1.86 0.71,2.42 3.34,2.98 13.03,2.07 13.03,2.07z"/>
   <path class="fil4" d="M228.45 475.54c-1.2,0.73 -1.73,3.25 -2.94,4.34 -1.58,1.42 -3.7,2.23 -5.57,3.2 -4.32,2.21 -9.09,3.97 -13.49,5.84 -1.65,0.7 -4.26,1.58 -3.52,5.48 0.36,1.91 3.63,2.36 4.86,2.67 4.03,1 16.6,-0.96 18.72,-1.18 1.99,-0.21 6.29,-2.23 8.15,-2.71 3.03,-0.8 5.36,-2.18 7.11,-4.87 0.04,0.39 0.31,2.69 0.31,3.11 0.12,0.9 0.39,1.41 1.72,1.11 3.31,-0.75 11.18,-2.62 12.79,-3 0,0 0.25,-3.89 -0.29,-6.57 -0.2,-1.01 -0.63,-2.63 -0.73,-3.65 -0.12,-1.26 -1.28,-0.98 -2.43,-1.37 -1.24,-0.42 -2.58,-0.01 -3.86,-0.21 -1.51,-0.23 -3,-0.97 -4.53,-1.25 -2.24,-0.42 -4.41,-0.2 -6.68,-0.09 -1.88,0.09 -3.5,0.02 -5.34,-0.27 -1.14,-0.18 -3.63,-1.45 -4.5,-0.46l0.24 -0.12z"/>
   <path class="fil16" d="M276.12 516.9c1.94,-0.18 5.84,-1.72 7.45,-2.65 2.14,-1.24 4.46,-2.51 6.2,-4.26 1.3,-1.3 2.17,-2.95 3.28,-4.4 0.14,-0.19 0.73,-1.19 0.97,-1.08 0.5,0.23 0.6,1.38 1.07,1.07 1.09,-0.73 6.44,-4.25 7.07,-5.29 0.8,-1.3 0.14,-4.94 -0.21,-6.38 -2.62,0.17 -6.19,3.94 -7.99,5.61 -2.19,2.01 -4.22,4.24 -6.77,5.82 -2.57,1.6 -5.38,2.81 -8.03,4.23 -3.57,1.91 -9.23,3.62 -13.26,2.25 -1.73,-0.59 -3.29,-1.25 -4.83,-2.13 -0.41,-0.24 -0.06,-0.57 -0.56,-0.59l-1.02 0.68c-1.13,3.71 2.02,7.11 5.55,7.5l11.07 -0.38z"/>
   <path class="fil4" d="M276.85 490.13c-1.26,1.01 -1.8,3.43 -2.64,4.78 -1.12,1.81 -2.69,3.19 -4.08,4.79 -1.61,1.87 -2.78,3.7 -4.84,5.14 -0.86,0.6 -1.52,1.33 -2.31,1.94 -0.76,0.6 -2.19,1.45 -2.86,2.14 -1.47,1.5 -0.91,3.4 0.92,4.34 1.86,0.95 3.79,1.06 5.84,1.16 2.59,0.13 5.1,-0.32 7.66,-0.19 2.09,0.11 4.27,0.36 6.2,-0.49 2.39,-1.06 4.76,-2.97 6.69,-4.76 1.92,-1.79 3.31,-3.9 5.47,-5.57 1.75,-1.35 3.33,-2.98 5.35,-4.02 1.08,-0.55 1.64,-0.79 2.03,-2.09 0.25,-0.82 0.55,-1.95 0.62,-2.77 -1.63,-0.58 -3.55,-0.27 -5.24,-0.87 -1.56,-0.56 -2.59,-1.7 -3.95,-2.54 -1.28,-0.79 -2.78,-1.2 -4.17,-1.73 -3.38,-1.27 -7.78,-1.64 -11.41,-1.44 -0.26,0.89 0.74,1.48 0.47,2.29l0.25 -0.12z"/>
   <path class="fil5" d="M221.47 339.68c2.78,13.35 2.54,27.28 2.85,40.4 0.17,7.24 0.73,11.76 0.7,19.45 -0.02,7.75 1.62,16.35 1.62,24.1 0,7.82 -0.37,13.34 -0.37,21.16 0,6.72 -2.76,15.15 -1.28,21.56 -0.19,3.8 2.82,8.05 3.79,9.9 1.2,2.29 4.8,2.38 7.34,2.93 7.3,1.58 12.09,2.45 20.17,3.77 0.42,-3.26 0.2,-3.65 0.49,-6.21 0.12,-1.06 -0.92,-3.94 -0.73,-5.65 0.17,-1.52 1.02,-2.31 1.07,-3.16 0.13,-2.17 3.89,-9.66 3.8,-11.92 -0.09,-2.27 -1.84,-3.28 -2.2,-6.03 -0.47,-3.57 0.33,-9.1 -0.73,-14.23 -1.63,-7.89 -0.12,-19.17 -0.12,-27.42 0,-7.86 -1.24,-21.73 -3.94,-28.72 -4.31,-11.18 -6.21,-12.82 -5.55,-26.18 0.22,-4.49 0.59,-9.12 0.84,-13.77l-27.76 0zm36.77 0c1.68,7.29 3.22,14.15 4.38,19.61 1.53,7.16 3.7,14.93 4.38,21.89 0.73,7.54 -1.17,5.05 0.24,12.43 1.44,7.55 1.7,18.4 2.56,26.26 0.89,8.2 -0.04,12.16 0.36,20.8 0.39,8.37 2.52,16.78 2.56,25.35 0.01,2.89 3.8,10.88 3.56,13.1 -0.26,2.36 -0.7,3.48 0.39,5.43 0.38,0.69 -1.79,4.67 -1.09,5.34 0.7,0.67 5.76,-0.47 6.84,0.19 2.78,1.7 5.4,1.63 8.56,2.47 3.21,0.85 7.77,2.81 10.24,1.29 2.46,-3.4 0.4,-5.76 1.36,-9.61 0.89,-3.51 0.18,-9.16 0,-12.77 -0.4,-7.97 -0.57,-15.81 -0.18,-23.89 0.39,-8.25 -0.02,-11.74 -0.73,-20.06 -0.69,-7.95 -3.01,-17.53 -3.83,-25.17 -0.48,-4.44 -0.27,-6.03 -2.01,-10.22 -1.38,-3.32 -3.67,-7.71 -4.01,-11.31 -0.76,-7.94 -0.72,-12.17 -0.73,-20.06 0,-6.32 -0.07,-13.54 -0.17,-21.07l-32.67 0z"/>
   <path class="fil5" d="M244.93 339.68c-0.52,4.36 -0.19,8.96 -0.19,13.35 0,4 0.93,7.67 1.32,11.51 0.3,3.03 0.59,6.15 1.27,9.16 0.46,2.04 0.67,6.18 2.11,7.65 0.31,-4.21 -0.51,-8.48 -0.51,-12.75 0,-5.14 -0.32,-10.22 -0.37,-15.32 -0.05,-5.56 0.2,-9.26 0.63,-13.59l-4.26 0z"/>
   <path class="fil5" d="M249.12 381.91c-1.17,3.7 -6.47,8.35 -10.16,9.31 4.07,-0.21 6.94,-1.62 10.31,-3.63 -0.98,1.7 -2.1,3.58 -3.65,4.35 1.55,-0.05 5.64,0.41 5.36,2.19 -0.32,2.05 -4.2,2.48 -5.73,2.93 1.19,0.71 4.98,0.97 6.58,0.61 -1.93,1.18 -3.52,4.28 -5.95,4.3 2.38,0.24 4.2,-0.19 6.35,-0.97 1.48,-0.54 2.56,1.73 2.44,-0.14 -0.08,-1.19 -0.63,-4.16 -0.94,-5.33 -0.58,-2.23 -0.84,-5.12 -1.83,-7.24 -0.99,-2.09 -1.39,-4.95 -2.24,-6.56l-0.55 0.18z"/>
   <path class="fil5" d="M252.81 418.39c-0.15,3.02 -0.04,6.09 -0.04,9.12 0,6.31 -1.21,12.35 -0.91,18.6 0.34,7.11 1.22,14.77 2.53,21.69 -3.19,-1.64 -6.41,-1.75 -9.95,-1.81 3.67,1.25 9.42,3.75 10.32,8 -3.3,1.18 -5.66,-1.6 -8.68,-1.98 4.16,1.2 7.5,5.73 9.18,9.5 -4.09,0.31 -8.23,-3.69 -11.1,-6.05 -2.6,-2.13 -9.91,-0.75 -11.25,-3.98 2.13,-0.36 5.67,0.57 7.62,1.03 -2,-0.26 -5.78,-2.13 -6.67,-4.13 1.6,-0.23 3.31,0.58 4.99,0.52 -6.82,0.95 -8.34,-14.84 -8.19,-19.14 -1.26,0.9 -1.14,16.13 -2.11,19.33 -0.82,2.71 -1.95,6.58 -1.39,7.24 2.21,2.56 7.4,4.16 10.65,4.31 6.4,0.3 11.99,2.47 18.45,3.04 1.17,0.11 1.13,-4.15 1.25,-5.35 0.24,-2.55 -0.7,-5.91 -0.24,-9.22 0.25,-1.79 0.72,-1.66 1.35,-3.12 0.61,-1.43 0.68,-2.87 0.44,-4.24 -0.6,-3.46 -2.1,-7.19 -2.1,-10.71 0,-6.87 -1.5,-13.2 -0.91,-19.89 0.47,-5.21 -0.77,-25.64 -1.18,-29.14 -0.28,1.16 -1.34,4.55 -1.38,4.7l-0.69 11.68z"/>
   <path class="fil5" d="M275.75 440.09c-0.47,4.33 0.81,7.84 1.64,12.04 0.55,2.75 2.46,7.02 2.7,9.91 0.51,6.03 -2.85,12.18 -0.38,17.81 0.79,1.8 2.51,4.2 4.55,4.56 -1.57,0 -2.83,-0.16 -4.3,-0.53 -0.29,2.18 2.66,3.5 4.47,3.62 -1.29,0.55 -3.85,0.34 -5.17,-0.18 2.22,0.64 4.13,1.95 6.37,2.52 2.11,0.53 4.1,1.04 6.16,1.65 1.96,0.57 4.1,1.42 6.18,1.51 1.49,0.06 1.75,0.15 1.12,-1.29 -0.94,-2.12 -4.01,-3.65 -5.77,-4.94 1.89,0.87 5.19,1.9 7.2,1.08 0.27,-1.71 -0.62,-3.27 -0.84,-4.9 -0.2,-1.5 0.13,-3.2 0.32,-4.7 0.4,-3.28 1.25,-6.36 1.29,-9.71 0.09,-8.35 -0.57,-16 -2.52,-24.07 -2.27,-9.44 1.28,-19.82 -0.99,-29.2 -0.7,-2.86 -2.37,-4.9 -4.89,-6.15 -3.32,-1.64 -6.42,-3.72 -9.43,-5.89 3.94,0.85 7.1,1.97 11.22,1.44 -0.17,-1.77 -0.58,-3.63 -0.47,-5.44 0.04,-0.75 0.91,-3.12 0.33,-3.84 -1.22,-1.5 -3.48,3.41 -7.11,3.77 1.71,-1.27 2.19,-4.49 3.61,-7.01 -3.15,0.51 -6.38,3.14 -9.76,2.85 2.63,-1.98 5.28,-3.97 7.78,-6.17 1.18,-1.04 1.52,-2.53 3.24,-2.78 1.87,-0.26 2.32,1.25 2.91,2.96 1.1,3.15 2.36,6.33 3.2,9.52 1.31,5.08 1.45,10.34 2.15,15.47 0.5,3.66 1.81,7.23 1.99,10.93 0.21,4.14 0.05,8.35 0.18,12.45 0.26,7.84 1.44,15.59 1.46,23.53 0.01,4.24 -0.89,8.49 -0.73,12.72 0.14,3.68 0,7.33 -0.18,10.94 -0.17,3.35 0.62,6.56 -0.4,9.81 -0.25,0.8 -3.54,2.82 -3.97,2.78 -1,-0.09 -1.9,0.24 -2.91,0.18 -3.8,-0.21 -7.68,-3.01 -11.09,-4.57 -1.7,-0.78 -3.4,-1.16 -5.19,-1.67 -1.07,-0.3 -3.7,-0.5 -4.33,-0.81 -0.51,-0.24 -0.07,-3.86 0,-5.17 0.08,-1.69 0.06,-3.47 -0.19,-5.11 -0.44,-2.99 0.12,-6.14 0.73,-9.13 1.12,-5.45 -0.74,-30.99 -0.37,-30.82l0.18 0z"/>
   <path class="fil16" d="M139.88 507.76c-4.86,0 -17.97,-3.62 -19.95,-4.71 -1.16,-0.64 -3.4,-1.53 -4.19,-2.92 -0.13,-0.23 -0.38,-0.51 -0.55,-0.84 -0.38,2.04 -0.18,2.56 -0.84,2.94 -0.33,0.19 -6.82,-0.9 -8.09,-1.16 -1.7,-0.35 -4.43,-0.78 -5.9,-1.64 -0.71,-0.42 -0.63,-0.71 -0.63,-1.52 0,-0.91 -0.24,-2.83 -0.05,-3.83 2.21,1.94 8.22,0.99 10.92,1.01 5.31,0.05 10.28,2.91 15.4,4.19 5.44,1.36 10.7,2.53 16.33,2.52 2.66,-0 5.26,-0.49 7.89,-0.36 0.77,0.04 1.82,-0.22 2.55,0 1.05,0.31 0.79,0.71 0.85,1.83 0.03,0.74 -0.08,1.86 -0.71,2.42 -3.34,2.98 -13.03,2.07 -13.03,2.07z"/>
   <path class="fil5" d="M127.84 483.56c1.2,0.73 1.73,3.25 2.94,4.34 1.58,1.42 3.7,2.23 5.57,3.2 4.32,2.21 9.09,3.97 13.49,5.84 1.65,0.69 4.26,1.58 3.52,5.48 -0.36,1.91 -3.63,2.36 -4.86,2.67 -4.03,1 -16.6,-0.96 -18.72,-1.18 -1.99,-0.21 -6.29,-2.23 -8.15,-2.71 -3.03,-0.8 -5.36,-2.18 -7.11,-4.87 -0.04,0.39 -0.31,2.69 -0.31,3.11 -0.12,0.9 -0.39,1.41 -1.72,1.11 -3.31,-0.75 -11.18,-2.62 -12.79,-3 0,0 -0.25,-3.89 0.29,-6.57 0.2,-1.01 0.63,-2.63 0.73,-3.65 0.12,-1.26 1.28,-0.98 2.43,-1.37 1.24,-0.42 2.58,-0.01 3.86,-0.21 1.51,-0.23 3,-0.97 4.53,-1.25 2.24,-0.42 4.41,-0.2 6.68,-0.09 1.88,0.09 3.5,0.02 5.34,-0.27 1.14,-0.18 3.63,-1.45 4.51,-0.46l-0.24 -0.12z"/>
   <path class="fil16" d="M80.17 524.92c-1.94,-0.18 -5.84,-1.72 -7.45,-2.65 -2.14,-1.24 -4.46,-2.51 -6.2,-4.26 -1.3,-1.3 -2.17,-2.95 -3.28,-4.4 -0.14,-0.19 -0.73,-1.19 -0.97,-1.08 -0.5,0.23 -0.6,1.38 -1.07,1.07 -1.09,-0.73 -6.44,-4.25 -7.07,-5.29 -0.8,-1.3 -0.14,-4.94 0.21,-6.38 2.62,0.17 6.19,3.94 7.99,5.61 2.19,2.01 4.22,4.24 6.77,5.82 2.57,1.6 5.38,2.81 8.03,4.23 3.57,1.91 9.23,3.62 13.26,2.25 1.73,-0.59 3.29,-1.25 4.83,-2.13 0.41,-0.24 0.06,-0.57 0.56,-0.59l1.02 0.68c1.13,3.71 -2.02,7.11 -5.55,7.5l-11.07 -0.38z"/>
   <path class="fil5" d="M79.44 498.15c1.25,1.01 1.8,3.42 2.64,4.78 1.12,1.81 2.69,3.19 4.08,4.79 1.61,1.87 2.78,3.7 4.84,5.14 0.86,0.6 1.52,1.33 2.31,1.94 0.76,0.6 2.19,1.45 2.86,2.14 1.47,1.5 0.91,3.4 -0.92,4.34 -1.86,0.95 -3.79,1.06 -5.84,1.16 -2.59,0.13 -5.1,-0.32 -7.66,-0.19 -2.09,0.11 -4.27,0.36 -6.2,-0.49 -2.39,-1.06 -4.76,-2.97 -6.69,-4.76 -1.92,-1.79 -3.31,-3.9 -5.47,-5.57 -1.75,-1.35 -3.33,-2.98 -5.35,-4.02 -1.08,-0.55 -1.64,-0.79 -2.03,-2.09 -0.25,-0.82 -0.55,-1.95 -0.62,-2.77 1.63,-0.58 3.55,-0.27 5.24,-0.87 1.56,-0.56 2.59,-1.7 3.95,-2.54 1.28,-0.79 2.78,-1.2 4.17,-1.73 3.38,-1.27 7.78,-1.64 11.41,-1.44 0.26,0.89 -0.74,1.48 -0.47,2.29l-0.25 -0.12z"/>
   <path class="fil9" d="M134.82 347.7c-2.78,13.35 -2.54,27.28 -2.85,40.4 -0.17,7.24 -0.73,11.76 -0.7,19.45 0.02,7.75 -1.62,16.35 -1.62,24.1 0,7.82 0.37,13.34 0.37,21.16 0,6.72 2.76,15.15 1.28,21.56 0.19,3.8 -2.82,8.05 -3.79,9.9 -1.2,2.29 -4.8,2.38 -7.34,2.93 -7.3,1.58 -12.09,2.45 -20.17,3.77 -0.42,-3.26 -0.2,-3.65 -0.49,-6.21 -0.12,-1.06 0.92,-3.94 0.73,-5.65 -0.17,-1.52 -1.02,-2.31 -1.07,-3.16 -0.13,-2.17 -3.89,-9.66 -3.8,-11.92 0.09,-2.27 1.84,-3.28 2.2,-6.03 0.47,-3.57 -0.33,-9.1 0.73,-14.23 1.63,-7.89 0.12,-19.17 0.12,-27.42 0,-7.86 1.24,-21.73 3.94,-28.72 4.31,-11.18 6.21,-12.82 5.55,-26.18 -0.23,-4.49 -0.59,-9.12 -0.84,-13.77l27.76 0zm-36.77 0c-1.68,7.29 -3.22,14.15 -4.38,19.61 -1.53,7.16 -3.7,14.93 -4.38,21.89 -0.73,7.54 1.17,5.05 -0.24,12.43 -1.44,7.55 -1.7,18.4 -2.56,26.27 -0.89,8.2 0.04,12.16 -0.36,20.8 -0.39,8.37 -2.52,16.78 -2.56,25.35 -0.01,2.89 -3.8,10.88 -3.56,13.1 0.26,2.36 0.7,3.48 -0.39,5.43 -0.38,0.69 1.79,4.67 1.09,5.34 -0.7,0.67 -5.76,-0.47 -6.84,0.19 -2.78,1.7 -5.4,1.63 -8.56,2.47 -3.21,0.85 -7.77,2.81 -10.24,1.29 -2.46,-3.4 -0.4,-5.76 -1.36,-9.61 -0.89,-3.51 -0.18,-9.16 0,-12.77 0.4,-7.97 0.57,-15.81 0.18,-23.89 -0.39,-8.25 0.02,-11.74 0.73,-20.06 0.69,-7.95 3.01,-17.53 3.83,-25.17 0.48,-4.44 0.27,-6.03 2.01,-10.22 1.38,-3.32 3.67,-7.71 4.01,-11.31 0.76,-7.94 0.72,-12.17 0.73,-20.06 0,-6.32 0.07,-13.54 0.17,-21.06l32.67 0z"/>
   <path class="fil9" d="M111.36 347.7c0.52,4.36 0.19,8.96 0.19,13.35 0,4 -0.93,7.67 -1.32,11.51 -0.3,3.03 -0.59,6.15 -1.27,9.16 -0.46,2.04 -0.67,6.18 -2.11,7.65 -0.31,-4.21 0.51,-8.48 0.51,-12.75 0,-5.14 0.32,-10.22 0.37,-15.32 0.05,-5.56 -0.2,-9.26 -0.63,-13.59l4.26 0zm-16.89 0c-1.48,5.39 -2.89,10.81 -4.2,16.31 -1.04,4.37 -5.29,27.72 -12.65,25.6 -4.91,-1.41 -3.4,-7.16 -3.4,-11 -0.01,-6.08 0.81,-11.76 1.71,-17.75 0.66,-4.43 1.12,-8.8 1.56,-13.15l16.99 0zm-25.33 0c-0.01,0.33 -0.02,0.67 -0.03,1 -0.19,4.55 -1.45,8.96 -1.22,13.62 0.12,2.4 0.88,4.61 0.74,7.11 -0.13,2.64 -0.61,5.34 -0.74,7.98 -0.17,3.5 1,6.92 0.49,10.45 -0.22,1.53 -1,2.82 -1.23,4.38 -0.23,1.58 0.24,3.08 0.21,4.58 -1.92,0.13 -3.22,-1.39 -4.79,-2.19 -0.37,-4.13 0.93,-8.16 0.93,-12.37 0,-4.39 0.99,-8.19 1.46,-12.4 0.47,-4.27 -0.63,-8.56 -0.24,-12.89 0.28,-3.09 0.55,-6.13 0.67,-9.27l3.74 0zm34.34 78.7c0.15,3.01 0.04,6.09 0.04,9.12 0,6.31 1.21,12.35 0.91,18.6 -0.34,7.11 -1.22,14.77 -2.53,21.69 3.19,-1.64 6.41,-1.75 9.95,-1.81 -3.67,1.25 -9.43,3.75 -10.32,8 3.3,1.18 5.66,-1.6 8.68,-1.98 -4.16,1.19 -7.5,5.72 -9.18,9.5 4.09,0.31 8.23,-3.69 11.1,-6.05 2.6,-2.13 9.91,-0.75 11.25,-3.98 -2.13,-0.36 -5.67,0.57 -7.62,1.03 2,-0.26 5.78,-2.13 6.67,-4.13 -1.6,-0.23 -3.31,0.58 -4.99,0.52 6.82,0.95 8.34,-14.84 8.19,-19.14 1.26,0.9 1.14,16.13 2.11,19.32 0.82,2.71 1.95,6.58 1.39,7.24 -2.21,2.56 -7.4,4.16 -10.65,4.31 -6.4,0.3 -11.99,2.47 -18.45,3.04 -1.17,0.11 -1.13,-4.15 -1.25,-5.35 -0.23,-2.55 0.7,-5.91 0.24,-9.22 -0.25,-1.79 -0.72,-1.66 -1.35,-3.12 -0.61,-1.43 -0.69,-2.87 -0.44,-4.24 0.6,-3.46 2.1,-7.19 2.1,-10.71 0,-6.87 1.5,-13.2 0.91,-19.89 -0.47,-5.21 0.77,-25.65 1.18,-29.14 0.28,1.16 1.34,4.55 1.38,4.7l0.69 11.68zm3.69 -36.48c1.17,3.7 6.47,8.35 10.16,9.3 -4.07,-0.21 -6.94,-1.62 -10.31,-3.63 0.98,1.7 2.1,3.58 3.65,4.35 -1.55,-0.05 -5.64,0.41 -5.36,2.19 0.32,2.04 4.2,2.48 5.73,2.93 -1.19,0.71 -4.97,0.97 -6.58,0.61 1.93,1.18 3.52,4.28 5.95,4.3 -2.38,0.24 -4.2,-0.19 -6.35,-0.97 -1.48,-0.54 -2.56,1.73 -2.44,-0.14 0.08,-1.19 0.63,-4.16 0.94,-5.33 0.58,-2.23 0.84,-5.12 1.83,-7.24 0.99,-2.09 1.39,-4.95 2.24,-6.56l0.55 0.18z"/>
   <path class="fil9" d="M80.54 448.12c0.47,4.33 -0.81,7.84 -1.64,12.04 -0.55,2.75 -2.46,7.02 -2.7,9.91 -0.51,6.03 2.85,12.18 0.38,17.81 -0.79,1.8 -2.51,4.2 -4.55,4.56 1.56,0 2.83,-0.16 4.3,-0.53 0.29,2.18 -2.66,3.5 -4.47,3.62 1.29,0.54 3.85,0.34 5.17,-0.18 -2.22,0.64 -4.13,1.95 -6.37,2.52 -2.11,0.53 -4.1,1.04 -6.16,1.65 -1.96,0.57 -4.1,1.42 -6.18,1.51 -1.49,0.06 -1.75,0.15 -1.12,-1.29 0.94,-2.12 4.01,-3.65 5.77,-4.94 -1.89,0.87 -5.19,1.9 -7.2,1.08 -0.27,-1.71 0.62,-3.27 0.84,-4.9 0.2,-1.5 -0.13,-3.2 -0.32,-4.7 -0.4,-3.28 -1.25,-6.36 -1.29,-9.71 -0.09,-8.35 0.57,-16 2.52,-24.07 2.27,-9.44 -1.28,-19.82 0.99,-29.2 0.7,-2.86 2.37,-4.9 4.89,-6.15 3.32,-1.64 6.42,-3.72 9.43,-5.89 -3.94,0.85 -7.1,1.97 -11.22,1.44 0.17,-1.77 0.58,-3.63 0.47,-5.44 -0.04,-0.75 -0.91,-3.12 -0.33,-3.84 1.22,-1.5 3.48,3.41 7.11,3.77 -1.71,-1.27 -2.19,-4.49 -3.61,-7.01 3.15,0.51 6.38,3.14 9.76,2.85 -2.63,-1.98 -5.28,-3.97 -7.78,-6.16 -1.18,-1.04 -1.52,-2.53 -3.24,-2.78 -1.87,-0.26 -2.32,1.25 -2.91,2.96 -1.1,3.15 -2.36,6.33 -3.2,9.52 -1.31,5.08 -1.45,10.34 -2.15,15.47 -0.5,3.66 -1.81,7.22 -1.99,10.93 -0.21,4.14 -0.05,8.35 -0.18,12.45 -0.26,7.84 -1.44,15.59 -1.46,23.53 -0.01,4.24 0.89,8.49 0.73,12.72 -0.14,3.68 0,7.33 0.18,10.94 0.17,3.35 -0.62,6.56 0.4,9.81 0.25,0.8 3.54,2.82 3.97,2.78 1,-0.09 1.9,0.23 2.91,0.18 3.8,-0.21 7.68,-3.01 11.09,-4.57 1.7,-0.78 3.4,-1.16 5.19,-1.67 1.07,-0.3 3.7,-0.5 4.33,-0.81 0.51,-0.24 0.07,-3.86 0,-5.17 -0.08,-1.69 -0.06,-3.47 0.19,-5.11 0.44,-2.99 -0.12,-6.14 -0.73,-9.13 -1.12,-5.45 0.74,-30.99 0.37,-30.82l-0.18 0z"/>
   <path class="fil5" d="M287.15 339.68c0.01,0.33 0.02,0.67 0.03,1 0.19,4.55 1.45,8.96 1.22,13.62 -0.12,2.39 -0.88,4.61 -0.74,7.11 0.13,2.64 0.61,5.34 0.74,7.98 0.17,3.5 -1,6.92 -0.49,10.45 0.22,1.53 1,2.81 1.23,4.38 0.23,1.58 -0.24,3.08 -0.21,4.58 1.92,0.13 3.22,-1.39 4.79,-2.19 0.37,-4.13 -0.93,-8.16 -0.93,-12.37 0,-4.39 -0.99,-8.19 -1.46,-12.4 -0.47,-4.27 0.63,-8.56 0.24,-12.89 -0.28,-3.09 -0.55,-6.13 -0.67,-9.27l-3.74 0z"/>
   <path class="fil5" d="M261.82 339.68c1.48,5.39 2.89,10.81 4.2,16.31 1.04,4.37 5.29,27.72 12.65,25.6 4.91,-1.41 3.4,-7.16 3.4,-11 0.01,-6.08 -0.81,-11.76 -1.71,-17.75 -0.66,-4.43 -1.12,-8.8 -1.56,-13.15l-16.99 0z"/>
  </g>
 </g>
</svg>
