<?xml version="1.0" encoding="UTF-8"?>
<!DOCTYPE svg PUBLIC "-//W3C//DTD SVG 1.1//EN" "http://www.w3.org/Graphics/SVG/1.1/DTD/svg11.dtd">
<!-- Creator: CorelDRAW 2019 (64-Bit) -->
<svg xmlns="http://www.w3.org/2000/svg" xml:space="preserve" width="290.687mm" height="119.142mm" version="1.1" style="shape-rendering:geometricPrecision; text-rendering:geometricPrecision; image-rendering:optimizeQuality; fill-rule:evenodd; clip-rule:evenodd"
viewBox="0 0 7652.34 3136.43"
 xmlns:xlink="http://www.w3.org/1999/xlink"
 xmlns:xodm="http://www.corel.com/coreldraw/odm/2003">
 <defs>
  <style type="text/css">
   <![CDATA[
    .fil0 {fill:#D7EEFC;fill-rule:nonzero}
   ]]>
  </style>
 </defs>
 <g id="Слой_x0020_1">
  <metadata id="CorelCorpID_0Corel-Layer"/>
  <path class="fil0" d="M1367 217.08c-261.48,-77.64 -501.19,-41.93 -749.45,39.43 -395.94,129.76 -613.64,568.59 -617.55,957.23 132.79,1058.67 443.68,699.95 1041.59,951.95 133.55,56.29 306.67,302.52 333.9,432.58 80.4,384.12 536.5,443.94 903.52,515.09 368.43,71.42 738.08,-45.81 1013.11,-45.22 533.52,1.15 934.65,-148.41 1843.62,-94.17 1117.79,66.71 1781.13,-127.41 2256.41,-1077.46 127.94,-255.73 259.92,-498.7 260.2,-849.39 0.84,-1052.05 -880.34,-1290.57 -1491.6,-808.87 -477.15,376.01 -594.23,47.37 -1003.8,431.57 -143.83,128.63 -300.39,382.59 -647.66,348.23 -761.72,-75.36 -746.33,-891.72 -1784.55,-512.92 -761.43,277.81 -585.31,-58.71 -1357.73,-288.05z"/>
 </g>
</svg>
