<?xml version="1.0" encoding="UTF-8"?>
<!DOCTYPE svg PUBLIC "-//W3C//DTD SVG 1.1//EN" "http://www.w3.org/Graphics/SVG/1.1/DTD/svg11.dtd">
<!-- Creator: CorelDRAW 2019 (64-Bit) -->
<svg xmlns="http://www.w3.org/2000/svg" xml:space="preserve" width="12.6629mm" height="13.7418mm" version="1.1" style="shape-rendering:geometricPrecision; text-rendering:geometricPrecision; image-rendering:optimizeQuality; fill-rule:evenodd; clip-rule:evenodd"
viewBox="0 0 10.28 11.16"
 xmlns:xlink="http://www.w3.org/1999/xlink"
 xmlns:xodm="http://www.corel.com/coreldraw/odm/2003">
 <defs>
  <style type="text/css">
   <![CDATA[
    .fil0 {fill:#FCFCFC;fill-rule:nonzero}
    .fil5 {fill:url(#id0)}
    .fil4 {fill:url(#id1)}
    .fil1 {fill:url(#id2)}
    .fil2 {fill:url(#id3)}
    .fil3 {fill:url(#id4)}
   ]]>
  </style>
  <linearGradient id="id0" gradientUnits="userSpaceOnUse" x1="1.92" y1="1.44" x2="5.64" y2="1.21">
   <stop offset="0" style="stop-opacity:1; stop-color:#166792"/>
   <stop offset="1" style="stop-opacity:1; stop-color:#23AFE4"/>
  </linearGradient>
  <linearGradient id="id1" gradientUnits="userSpaceOnUse" xlink:href="#id0" x1="1.24" y1="8.21" x2="7.34" y2="8.03">
  </linearGradient>
  <linearGradient id="id2" gradientUnits="userSpaceOnUse" xlink:href="#id0" x1="4.26" y1="2.64" x2="7.58" y2="2.53">
  </linearGradient>
  <linearGradient id="id3" gradientUnits="userSpaceOnUse" xlink:href="#id0" x1="2.35" y1="4.45" x2="8.45" y2="4.28">
  </linearGradient>
  <linearGradient id="id4" gradientUnits="userSpaceOnUse" xlink:href="#id0" x1="1.79" y1="6.33" x2="7.9" y2="6.15">
  </linearGradient>
 </defs>
 <g id="Слой_x0020_1">
  <metadata id="CorelCorpID_0Corel-Layer"/>
  <g id="_2928139788576">
   <polygon class="fil0" points="5.44,0 2.12,1.81 -0,8.97 7.41,11.16 10.28,1.43 "/>
   <path class="fil1" d="M7.12 3.15l-2.52 -0.74c-0.12,-0.03 -0.18,-0.16 -0.15,-0.27 0.03,-0.12 0.16,-0.18 0.27,-0.15l2.52 0.74c0.12,0.03 0.18,0.16 0.15,0.27 -0.03,0.12 -0.16,0.18 -0.27,0.15z"/>
   <path class="fil2" d="M7.84 5.29l-5.01 -1.48c-0.12,-0.03 -0.18,-0.16 -0.15,-0.27 0.03,-0.12 0.16,-0.18 0.27,-0.15l5.01 1.48c0.12,0.03 0.18,0.16 0.15,0.27 -0.03,0.12 -0.16,0.18 -0.27,0.15z"/>
   <path class="fil3" d="M7.29 7.16l-5.01 -1.48c-0.12,-0.03 -0.18,-0.16 -0.15,-0.27 0.03,-0.12 0.16,-0.18 0.27,-0.15l5.01 1.48c0.12,0.03 0.18,0.16 0.15,0.27 -0.03,0.12 -0.16,0.18 -0.27,0.15z"/>
   <path class="fil4" d="M6.73 9.04l-5.01 -1.48c-0.12,-0.03 -0.18,-0.16 -0.15,-0.27 0.03,-0.12 0.16,-0.18 0.27,-0.15l5.01 1.48c0.12,0.03 0.18,0.16 0.15,0.27 -0.03,0.12 -0.16,0.18 -0.27,0.15z"/>
   <polygon class="fil5" points="4.68,2.57 5.44,0 2.12,1.81 "/>
  </g>
 </g>
</svg>
