<?xml version="1.0" encoding="UTF-8"?>
<!DOCTYPE svg PUBLIC "-//W3C//DTD SVG 1.1//EN" "http://www.w3.org/Graphics/SVG/1.1/DTD/svg11.dtd">
<!-- Creator: CorelDRAW 2019 (64-Bit) -->
<svg xmlns="http://www.w3.org/2000/svg" xml:space="preserve" width="12.7918mm" height="13.8483mm" version="1.1" style="shape-rendering:geometricPrecision; text-rendering:geometricPrecision; image-rendering:optimizeQuality; fill-rule:evenodd; clip-rule:evenodd"
viewBox="0 0 10.1 10.93"
 xmlns:xlink="http://www.w3.org/1999/xlink"
 xmlns:xodm="http://www.corel.com/coreldraw/odm/2003">
 <defs>
  <style type="text/css">
   <![CDATA[
    .str0 {stroke:#4AAFFF;stroke-width:0.28;stroke-linecap:round;stroke-miterlimit:10}
    .fil3 {fill:none;fill-rule:nonzero}
    .fil4 {fill:#4AAFFF;fill-rule:nonzero}
    .fil1 {fill:#A1DBFF;fill-rule:nonzero}
    .fil2 {fill:#D7EEFC;fill-rule:nonzero}
    .fil5 {fill:white;fill-rule:nonzero}
    .fil0 {fill:url(#id0)}
   ]]>
  </style>
  <linearGradient id="id0" gradientUnits="userSpaceOnUse" x1="1.42" y1="9.19" x2="5.01" y2="8.83">
   <stop offset="0" style="stop-opacity:1; stop-color:#166792"/>
   <stop offset="1" style="stop-opacity:1; stop-color:#23AFE4"/>
  </linearGradient>
 </defs>
 <g id="Слой_x0020_1">
  <metadata id="CorelCorpID_0Corel-Layer"/>
  <g id="_2928996989264">
   <path class="fil0" d="M2.21 10.82c0.52,0.26 1.16,0.04 1.41,-0.48l1.2 -2.45 -1.9 -0.93 -1.2 2.45c-0.26,0.52 -0.04,1.16 0.48,1.41z"/>
   <path class="fil1" d="M2.18 9.8l0.86 0.42c0.79,0.39 1.75,0.06 2.14,-0.73l0.96 -1.96 -3.73 -1.82 -0.96 1.96c-0.39,0.79 -0.06,1.75 0.73,2.14z"/>
   <path class="fil2" d="M2.04 3.55c-0.81,1.66 -0.13,3.67 1.54,4.49 1.66,0.81 3.67,0.13 4.49,-1.54 0.81,-1.66 0.13,-3.67 -1.54,-4.49 -1.66,-0.81 -3.67,-0.13 -4.49,1.54z"/>
   <path class="fil3 str0" d="M5.11 8.9c0,0 -1.84,0.25 -3.14,-1.54"/>
   <path class="fil3 str0" d="M4.67 9.8c0,0 -1.84,0.25 -3.14,-1.54"/>
   <path class="fil4" d="M4.04 4.88c0.26,0.14 0.43,0.46 0.26,0.8l-0.27 0.55c0.17,0.1 0.42,0.22 0.69,0.32l0.26 -0.54c0.17,-0.34 0.53,-0.4 0.8,-0.28 0.25,0.11 0.46,0.39 0.32,0.75 -0.01,0.04 -0.03,0.07 -0.05,0.11 -0.09,0.18 -0.23,0.3 -0.42,0.35 -0.22,0.06 -0.5,0.03 -0.76,-0.04l-0.67 1.37c-0.09,-0.02 -0.18,-0.05 -0.27,-0.08l0.65 -1.33c-0.15,-0.07 -0.41,-0.19 -0.67,-0.35l-0.66 1.35c-0.08,-0.05 -0.16,-0.1 -0.23,-0.16l0.66 -1.35c-0.22,-0.17 -0.41,-0.37 -0.5,-0.59 -0.07,-0.19 -0.07,-0.37 0.02,-0.55 0.02,-0.04 0.04,-0.07 0.06,-0.11 0.2,-0.33 0.55,-0.34 0.79,-0.21zm0.95 1.76l0 0c0.21,0.05 0.41,0.07 0.56,0.03 0.11,-0.03 0.2,-0.1 0.25,-0.2 0.01,-0.03 0.03,-0.06 0.04,-0.09 0.07,-0.19 -0.03,-0.32 -0.15,-0.38 -0,-0 -0.01,-0 -0.01,-0.01 -0.15,-0.06 -0.34,-0.04 -0.43,0.15l-0.25 0.5zm-1.55 -1l0 0c0.06,0.15 0.2,0.3 0.36,0.43l0.25 -0.51c0.09,-0.19 -0.01,-0.36 -0.15,-0.43 -0,-0 -0.01,-0.01 -0.01,-0.01 -0.12,-0.06 -0.29,-0.06 -0.4,0.11 -0.02,0.03 -0.03,0.06 -0.05,0.08 -0.05,0.11 -0.06,0.21 -0.01,0.32z"/>
   <path class="fil5" d="M3.19 3.36c0.16,0.45 0.77,0.65 1.37,0.45 0.6,-0.21 0.96,-0.74 0.81,-1.19 -0.16,-0.45 -0.77,-0.65 -1.37,-0.45 -0.6,0.21 -0.96,0.74 -0.81,1.19z"/>
   <path class="fil2" d="M6.76 1.52c0.07,0.03 0.15,0.01 0.19,-0.06l0.4 -0.82c0.03,-0.07 0.01,-0.15 -0.06,-0.19 -0.07,-0.03 -0.15,-0.01 -0.19,0.06l-0.4 0.82c-0.03,0.07 -0.01,0.15 0.06,0.19z"/>
   <path class="fil2" d="M8.5 3.2c0.04,0.07 0.12,0.09 0.19,0.06l0.81 -0.43c0.07,-0.04 0.09,-0.12 0.06,-0.19 -0.04,-0.07 -0.12,-0.09 -0.19,-0.06l-0.81 0.43c-0.07,0.04 -0.09,0.12 -0.06,0.19z"/>
   <path class="fil2" d="M8.91 5.57c-0.01,0.08 0.04,0.15 0.12,0.16l0.9 0.13c0.08,0.01 0.15,-0.04 0.16,-0.12 0.01,-0.08 -0.04,-0.15 -0.12,-0.16l-0.9 -0.13c-0.08,-0.01 -0.15,0.04 -0.16,0.12z"/>
   <path class="fil2" d="M7.85 7.74c-0.05,0.06 -0.05,0.14 0,0.2l0.66 0.64c0.06,0.05 0.14,0.05 0.2,-0 0.05,-0.06 0.05,-0.14 -0,-0.2l-0.66 -0.64c-0.06,-0.05 -0.14,-0.05 -0.2,0z"/>
   <path class="fil2" d="M5.72 8.87c-0.08,0.01 -0.13,0.09 -0.11,0.16l0.16 0.9c0.01,0.08 0.09,0.13 0.16,0.11 0.08,-0.01 0.13,-0.09 0.11,-0.16l-0.16 -0.9c-0.01,-0.08 -0.09,-0.13 -0.16,-0.11z"/>
   <path class="fil2" d="M1.6 6.85c-0.04,-0.07 -0.12,-0.09 -0.19,-0.06l-0.81 0.43c-0.07,0.04 -0.09,0.12 -0.06,0.19 0.04,0.07 0.12,0.09 0.19,0.06l0.81 -0.43c0.07,-0.04 0.09,-0.12 0.06,-0.19z"/>
   <path class="fil2" d="M1.18 4.47c0.01,-0.08 -0.04,-0.15 -0.12,-0.16l-0.9 -0.13c-0.08,-0.01 -0.15,0.04 -0.16,0.12 -0.01,0.08 0.04,0.15 0.12,0.16l0.9 0.13c0.08,0.01 0.15,-0.04 0.16,-0.12z"/>
   <path class="fil2" d="M2.24 2.31c0.05,-0.06 0.05,-0.14 -0,-0.2l-0.66 -0.64c-0.06,-0.05 -0.14,-0.05 -0.2,0 -0.05,0.06 -0.05,0.14 0,0.2l0.66 0.64c0.06,0.05 0.14,0.05 0.2,-0z"/>
   <path class="fil2" d="M4.38 1.18c0.08,-0.01 0.13,-0.09 0.11,-0.16l-0.16 -0.9c-0.01,-0.08 -0.09,-0.13 -0.16,-0.11 -0.08,0.01 -0.13,0.09 -0.11,0.16l0.16 0.9c0.01,0.08 0.09,0.13 0.16,0.11z"/>
  </g>
 </g>
</svg>
