<?xml version="1.0" encoding="UTF-8"?>
<!DOCTYPE svg PUBLIC "-//W3C//DTD SVG 1.1//EN" "http://www.w3.org/Graphics/SVG/1.1/DTD/svg11.dtd">
<!-- Creator: CorelDRAW 2019 (64-Bit) -->
<svg xmlns="http://www.w3.org/2000/svg" xml:space="preserve" width="11.6632mm" height="10.8788mm" version="1.1" style="shape-rendering:geometricPrecision; text-rendering:geometricPrecision; image-rendering:optimizeQuality; fill-rule:evenodd; clip-rule:evenodd"
viewBox="0 0 11.29 10.53"
 xmlns:xlink="http://www.w3.org/1999/xlink"
 xmlns:xodm="http://www.corel.com/coreldraw/odm/2003">
 <defs>
  <style type="text/css">
   <![CDATA[
    .fil0 {fill:#A1DBFF;fill-rule:nonzero}
    .fil1 {fill:url(#id0)}
   ]]>
  </style>
  <linearGradient id="id0" gradientUnits="userSpaceOnUse" x1="-0.32" y1="7.54" x2="5.74" y2="6.91">
   <stop offset="0" style="stop-opacity:1; stop-color:#166792"/>
   <stop offset="1" style="stop-opacity:1; stop-color:#23AFE4"/>
  </linearGradient>
 </defs>
 <g id="Слой_x0020_1">
  <metadata id="CorelCorpID_0Corel-Layer"/>
  <g id="_2927069747392">
   <path class="fil0" d="M3.34 4.91c0,0 0.74,-0.62 0.54,-1.57 -0.21,-0.95 -0.45,-2.23 -0.54,-2.69 -0.08,-0.45 1.61,-1.03 2.19,-0.33 0.58,0.7 0.62,1.95 0.99,2.13 0.37,0.18 3.39,-1.63 3.93,-1.34 0.54,0.29 1.03,5.5 0.79,6.07 -0.25,0.58 -3.45,1.86 -3.91,1.86 -0.47,0 -1.37,-0.91 -2.45,-0.5 -1.07,0.41 -1.53,-3.64 -1.53,-3.64z"/>
   <path class="fil1" d="M3.54 4.16l1.82 4.55c0.14,0.36 -0.03,0.77 -0.39,0.92l-2.04 0.85c-0.36,0.15 -0.77,-0.02 -0.93,-0.38l-1.95 -4.54c-0.16,-0.37 0.02,-0.79 0.39,-0.94l2.17 -0.86c0.36,-0.15 0.78,0.03 0.92,0.4z"/>
  </g>
 </g>
</svg>
