<?xml version="1.0" encoding="UTF-8"?>
<!DOCTYPE svg PUBLIC "-//W3C//DTD SVG 1.1//EN" "http://www.w3.org/Graphics/SVG/1.1/DTD/svg11.dtd">
<!-- Creator: CorelDRAW 2019 (64-Bit) -->
<svg xmlns="http://www.w3.org/2000/svg" xml:space="preserve" width="91.259mm" height="81.5744mm" version="1.1" style="shape-rendering:geometricPrecision; text-rendering:geometricPrecision; image-rendering:optimizeQuality; fill-rule:evenodd; clip-rule:evenodd"
viewBox="0 0 748.9 669.43"
 xmlns:xlink="http://www.w3.org/1999/xlink"
 xmlns:xodm="http://www.corel.com/coreldraw/odm/2003">
 <defs>
  <style type="text/css">
   <![CDATA[
    .str0 {stroke:#C1E1FB;stroke-width:0.63;stroke-miterlimit:22.9256}
    .fil2 {fill:#858585}
    .fil3 {fill:#AFAFB1}
    .fil15 {fill:#0A9A9A;fill-rule:nonzero}
    .fil33 {fill:#1A133A;fill-rule:nonzero}
    .fil16 {fill:#1F1150;fill-rule:nonzero}
    .fil27 {fill:#1FB187;fill-rule:nonzero}
    .fil29 {fill:#262844;fill-rule:nonzero}
    .fil7 {fill:#2FC4CC;fill-rule:nonzero}
    .fil17 {fill:#31CFA8;fill-rule:nonzero}
    .fil14 {fill:#342821;fill-rule:nonzero}
    .fil8 {fill:#3F3F41;fill-rule:nonzero}
    .fil30 {fill:#422611;fill-rule:nonzero}
    .fil9 {fill:#4B5D67;fill-rule:nonzero}
    .fil20 {fill:#4BAFDD;fill-rule:nonzero}
    .fil31 {fill:#69A5CC;fill-rule:nonzero}
    .fil21 {fill:#75D4EF;fill-rule:nonzero}
    .fil24 {fill:#85D1E8;fill-rule:nonzero}
    .fil32 {fill:#95C3E9;fill-rule:nonzero}
    .fil23 {fill:#97DBE4;fill-rule:nonzero}
    .fil28 {fill:#9E462D;fill-rule:nonzero}
    .fil5 {fill:#AFAFB1;fill-rule:nonzero}
    .fil35 {fill:#B66215;fill-rule:nonzero}
    .fil1 {fill:#C1E1FB;fill-rule:nonzero}
    .fil4 {fill:#C6F4FF;fill-rule:nonzero}
    .fil0 {fill:#D7EEFC;fill-rule:nonzero}
    .fil6 {fill:#DB5928;fill-rule:nonzero}
    .fil11 {fill:#E6774F;fill-rule:nonzero}
    .fil34 {fill:#E69572;fill-rule:nonzero}
    .fil12 {fill:#EFEFEF;fill-rule:nonzero}
    .fil25 {fill:#F6FFF9;fill-rule:nonzero}
    .fil13 {fill:#FD9E70;fill-rule:nonzero}
    .fil18 {fill:#FDBA3F;fill-rule:nonzero}
    .fil22 {fill:#FDBD44;fill-rule:nonzero}
    .fil19 {fill:#FDDB9A;fill-rule:nonzero}
    .fil26 {fill:#FFE680;fill-rule:nonzero}
    .fil10 {fill:white;fill-rule:nonzero}
   ]]>
  </style>
 </defs>
 <g id="Слой_x0020_1">
  <metadata id="CorelCorpID_0Corel-Layer"/>
  <path class="fil0" id="fileee0" d="M233.9 94.44c-120.22,-26.89 -230.08,-21.48 -233.86,118.59 -2.39,88.42 108.16,103.01 119.18,137.2 10.51,32.62 0.62,40.1 -24.51,73.5 -49.43,65.67 -70.45,96.72 -45.29,164.75 27.28,73.8 130.99,107.84 203.4,56.13 46.59,-33.27 96.7,-56.53 148.73,-63.98 96.52,-13.82 121.29,25.34 228.45,9.07 73.37,-11.14 111.73,-45.08 118,-99.31 4.84,-41.93 -9.85,-52.63 -39.61,-86.88 -53.17,-61.22 -93.61,-66.46 -33.6,-155.22 94.64,-139.98 -57.59,-287.4 -139.29,-238.81 -210.8,125.38 -108.41,128.18 -301.59,84.97z">

    <animate id="fil0anim1" attributeName="d"
       values="M233.9 94.44c-120.22,-26.89 -230.08,-21.48 -233.86,118.59 -2.39,88.42 108.16,103.01 119.18,137.2 10.51,32.62 0.62,40.1 -24.51,73.5 -49.43,65.67 -70.45,96.72 -45.29,164.75 27.28,73.8 130.99,107.84 203.4,56.13 46.59,-33.27 96.7,-56.53 148.73,-63.98 96.52,-13.82 121.29,25.34 228.45,9.07 73.37,-11.14 111.73,-45.08 118,-99.31 4.84,-41.93 -9.85,-52.63 -39.61,-86.88 -53.17,-61.22 -93.61,-66.46 -33.6,-155.22 94.64,-139.98 -57.59,-287.4 -139.29,-238.81 -210.8,125.38 -108.41,128.18 -301.59,84.97z;
       M 233.9,94.44 C 125.71454,53.509706 3.82,72.96 0.04,213.03 -2.35,301.45 98.171219,286.95653 102.17107,359.2559 94.629266,397.89317 98.77956,388.32424 73.64956,421.72424 24.21956,487.39424 24.26,520.45 49.42,588.48 c 27.28,73.8 130.99,107.84 203.4,56.13 46.59,-33.27 99.70863,-38.47819 151.73863,-45.92819 C 501.07863,584.86181 522.84,605.97 630,589.7 703.37,578.56 741.73,544.62 748,490.39 752.84,448.46 738.15,437.76 708.39,403.51 655.22,342.29 657.90376,325.01546 674.79,248.29 751.37819,25.071116 649.2921,11.033906 561.57483,30.54044 408.94176,66.664288 368.92307,143.67727 233.91,94.45 Z"

       dur="0.2s" begin="generalt1.mouseover" fill="freeze" />

       <animate id="fil0anim2" attributeName="d" fill="freeze"
         values="M 233.9,94.44 C 125.71454,53.509706 3.82,72.96 0.04,213.03 -2.35,301.45 98.171219,286.95653 102.17107,359.2559 94.629266,397.89317 98.77956,388.32424 73.64956,421.72424 24.21956,487.39424 24.26,520.45 49.42,588.48 c 27.28,73.8 130.99,107.84 203.4,56.13 46.59,-33.27 99.70863,-38.47819 151.73863,-45.92819 C 501.07863,584.86181 522.84,605.97 630,589.7 703.37,578.56 741.73,544.62 748,490.39 752.84,448.46 738.15,437.76 708.39,403.51 655.22,342.29 657.90376,325.01546 674.79,248.29 751.37819,25.071116 649.2921,11.033906 561.57483,30.54044 408.94176,66.664288 368.92307,143.67727 233.91,94.45 Z;
         M233.9 94.44c-120.22,-26.89 -230.08,-21.48 -233.86,118.59 -2.39,88.42 108.16,103.01 119.18,137.2 10.51,32.62 0.62,40.1 -24.51,73.5 -49.43,65.67 -70.45,96.72 -45.29,164.75 27.28,73.8 130.99,107.84 203.4,56.13 46.59,-33.27 96.7,-56.53 148.73,-63.98 96.52,-13.82 121.29,25.34 228.45,9.07 73.37,-11.14 111.73,-45.08 118,-99.31 4.84,-41.93 -9.85,-52.63 -39.61,-86.88 -53.17,-61.22 -93.61,-66.46 -33.6,-155.22 94.64,-139.98 -57.59,-287.4 -139.29,-238.81 -210.8,125.38 -108.41,128.18 -301.59,84.97z"

         dur="0.5s" begin="generalt1.mouseout" />

  </path>
  <g id="_1918868260784">
   <path class="fil1" d="M318.76 565.67c0,5.29 -32.54,9.58 -72.68,9.58 -40.14,0 -72.68,-4.29 -72.68,-9.58 0,-5.29 32.54,-9.58 72.68,-9.58 40.14,0 72.68,4.29 72.68,9.58z"/>
   <path class="fil1" d="M647.8 553.69c0,3.97 -32.9,7.19 -73.48,7.19 -40.58,0 -73.48,-3.22 -73.48,-7.19 0,-3.97 32.9,-7.19 73.48,-7.19 40.58,0 73.48,3.22 73.48,7.19z"/>
   <polygon class="fil1" points="119.76,472.42 111.11,472.42 111.11,463.77 105.71,463.77 105.71,472.42 97.06,472.42 97.06,477.82 105.71,477.82 105.71,486.47 111.11,486.47 111.11,477.82 119.76,477.82 "/>
   <path class="fil1" d="M127.64 456.5c0,2.95 -2.39,5.35 -5.35,5.35 -2.95,0 -5.35,-2.4 -5.35,-5.35 0,-2.95 2.39,-5.35 5.35,-5.35 2.95,0 5.35,2.4 5.35,5.35z"/>
   <path class="fil2" d="M574.24 525.74l-407.09 0c-16.28,0 -29.59,-13.32 -29.59,-29.59l0 -314.58c0,-16.27 13.32,-29.59 29.59,-29.59l407.09 0c16.28,0 29.59,13.32 29.59,29.59l0 314.58c0,16.28 -13.32,29.59 -29.59,29.59z"/>
   <path class="fil3" d="M170.88 512.43c-10.62,0 -19.23,-8.61 -19.23,-19.23l0 -308.68c0,-10.62 8.61,-19.23 19.23,-19.23l399.62 0c10.62,0 19.23,8.61 19.23,19.23l0 308.68c0,10.62 -8.61,19.23 -19.23,19.23l-399.62 0z"/>
   <path class="fil4" d="M565.83 502.39l-390.28 0c-6.86,0 -12.43,-5.56 -12.43,-12.42l0 -302.22c0,-6.86 5.56,-12.42 12.43,-12.42l390.28 0c6.86,0 12.42,5.56 12.42,12.42l0 302.22c0,6.86 -5.56,12.42 -12.42,12.42z"/>
   <path class="fil2" d="M109.56 501.66c9.36,15.42 26.31,25.78 45.57,25.78l431.12 0c19.26,0 36.22,-10.36 45.57,-25.78l-522.27 0z"/>
   <path class="fil5" d="M115.13 509.23l511.12 0c2.07,-2.35 3.94,-4.88 5.57,-7.57l-522.27 0c1.63,2.69 3.51,5.21 5.57,7.57z"/>
   <polygon class="fil6" points="311.83,434.69 195.76,434.69 195.76,369.73 311.83,369.73 "/>
   <g>
    <polygon class="fil7" points="352.96,209.47 309.3,209.47 309.3,203.46 352.96,203.46 "/>
    <polygon class="fil7" points="279.49,209.47 252.84,209.47 252.84,203.46 279.49,203.46 "/>
    <polygon class="fil7" points="244.79,209.47 191.98,209.47 191.98,203.46 244.79,203.46 "/>
    <polygon class="fil7" points="299.29,209.47 287.84,209.47 287.84,203.46 299.29,203.46 "/>
    <polygon class="fil7" points="390.63,209.47 364.07,209.47 364.07,203.46 390.63,203.46 "/>
   </g>
   <g>
    <polygon class="fil7" points="325.68,227.04 309.3,227.04 309.3,221.03 325.68,221.03 "/>
    <polygon class="fil7" points="348.57,227.04 332.19,227.04 332.19,221.03 348.57,221.03 "/>
    <polygon class="fil7" points="252.34,227.04 225.69,227.04 225.69,221.03 252.34,221.03 "/>
    <polygon class="fil7" points="218.13,227.04 191.98,227.04 191.98,221.03 218.13,221.03 "/>
    <polygon class="fil7" points="303.55,227.04 259.66,227.04 259.66,221.03 303.55,221.03 "/>
   </g>
   <g>
    <path class="fil8" d="M268.97 554.63c-2.76,-8.86 -8.12,-46.34 -9.32,-61.02 -0.25,-3.11 -34.41,-16.45 -34.41,-16.45 -19.99,-0.51 -30.28,7.33 -30.28,7.33l48.01 16.21c0,21.65 18.46,54.31 18.46,54.31 -0,0 7.54,-0.39 7.54,-0.39z"/>
    <path class="fil9" d="M227.79 505.01l-14.26 49.65 8.14 1.77c3.55,-11.71 24.07,-51.85 24.63,-56.62 0.24,-2.03 0.09,-3.61 -0.67,-4.24 -0.76,-0.64 -23.78,-14.39 -30.46,-15.89 -8.95,-2.01 -22.25,-5.24 -22.25,-5.24 0,0 -7.49,7.84 -6.03,20.59 1.46,12.75 40.9,9.98 40.9,9.98z"/>
    <path class="fil10" d="M208.55 417.71c0,0 -15.62,1.39 -16.33,5.64 -0.71,4.26 7.45,31.22 7.45,31.22l-7.94 21.18c0,0 22.53,5.55 33.52,1.41 1.04,0.48 2.82,-22.24 2.82,-22.24l3.91 -11.16 4.96 16.84 11.36 15.97 7.45 -6.03 -8.28 -14.55c0,0 -12.81,-29.24 -16.21,-32.64 -6.39,-6.39 -22.71,-5.64 -22.71,-5.64z"/>
    <path class="fil11" d="M220.93 418.83l-1.21 -16.07 -11.71 0 0 15.01c-1.48,0.16 1.6,12.15 11.04,12.15 0,0 4.4,-1.6 1.89,-11.09z"/>
    <path class="fil12" d="M197.19 446.05c1.37,4.84 2.48,8.52 2.48,8.52l-7.94 21.18c0,0 17.15,4.22 28.81,2.55 -1.04,-0.76 -14.88,-10.09 -15.55,-14.15 -1.42,-8.52 -7.8,-18.1 -7.8,-18.1z"/>
    <path class="fil13" d="M231.36 386.54c-0.99,-4.11 -7.41,-5.3 -17.55,-4.11 -6.9,0.81 -8.45,7.16 -8.64,11.88 -0.1,0.03 -0.21,0.04 -0.31,0.07 -2.38,0.73 -4.08,3.05 -3.95,5.57 0.07,1.29 0.52,2.46 1.37,3.42 0.9,1.46 2.42,2.44 4.17,2.66 0.49,0.06 0.97,0.04 1.44,-0.03 2.87,5.98 8.14,13.43 15.53,12.54 10.84,-7.58 7.93,-31.99 7.93,-31.99z">

      <animate id="63anim1" attributeName="d"
       values="M231.36 386.54c-0.99,-4.11 -7.41,-5.3 -17.55,-4.11 -6.9,0.81 -8.45,7.16 -8.64,11.88 -0.1,0.03 -0.21,0.04 -0.31,0.07 -2.38,0.73 -4.08,3.05 -3.95,5.57 0.07,1.29 0.52,2.46 1.37,3.42 0.9,1.46 2.42,2.44 4.17,2.66 0.49,0.06 0.97,0.04 1.44,-0.03 2.87,5.98 8.14,13.43 15.53,12.54 10.84,-7.58 7.93,-31.99 7.93,-31.99z;
       m 235.57248,393.39643 c -0.31426,-4.38598 -6.36534,-6.67753 -16.40642,-7.14441 -6.83273,-0.31746 -9.33974,5.94597 -10.26827,10.76188 -0.10191,0.0142 -0.21038,0.006 -0.31228,0.0203 -2.42781,0.35329 -4.44544,2.45281 -4.71628,5.06257 -0.13529,1.33652 0.1176,2.6131 0.79229,3.74063 0.64446,1.64937 1.96706,2.90905 3.63295,3.42649 0.4667,0.14324 0.9363,0.20266 1.40405,0.20905 1.84642,6.61967 5.79337,15.14884 13.11486,15.46576 11.72841,-5.97921 12.74781,-31.53362 12.74781,-31.53362 z"

       dur="0.2s" begin="generalt1.mouseover + 0.2s" fill="freeze" />

       <animate id="63anim2" attributeName="d" fill="freeze"
         values="m 235.57248,393.39643 c -0.31426,-4.38598 -6.36534,-6.67753 -16.40642,-7.14441 -6.83273,-0.31746 -9.33974,5.94597 -10.26827,10.76188 -0.10191,0.0142 -0.21038,0.006 -0.31228,0.0203 -2.42781,0.35329 -4.44544,2.45281 -4.71628,5.06257 -0.13529,1.33652 0.1176,2.6131 0.79229,3.74063 0.64446,1.64937 1.96706,2.90905 3.63295,3.42649 0.4667,0.14324 0.9363,0.20266 1.40405,0.20905 1.84642,6.61967 5.79337,15.14884 13.11486,15.46576 11.72841,-5.97921 12.74781,-31.53362 12.74781,-31.53362 z;
         M231.36 386.54c-0.99,-4.11 -7.41,-5.3 -17.55,-4.11 -6.9,0.81 -8.45,7.16 -8.64,11.88 -0.1,0.03 -0.21,0.04 -0.31,0.07 -2.38,0.73 -4.08,3.05 -3.95,5.57 0.07,1.29 0.52,2.46 1.37,3.42 0.9,1.46 2.42,2.44 4.17,2.66 0.49,0.06 0.97,0.04 1.44,-0.03 2.87,5.98 8.14,13.43 15.53,12.54 10.84,-7.58 7.93,-31.99 7.93,-31.99z"

         dur="0.5s" begin="generalt1.mouseout" />
    </path>
    <path class="fil14" d="M208.14 397.37c0,0 -2.24,-5.37 2.81,-9.17 5.05,-3.79 5.4,1.81 10.72,2.49 5.33,0.69 10.59,0.25 10.01,3.77 3.23,-7.96 -1.44,-12.51 -6.65,-15 -5.21,-2.49 -13.38,-3.57 -19.05,1.16 -5.67,4.73 -4.9,16.1 -4.9,16.1 3.74,-1.81 4.74,-0.34 7.05,0.64z">
      <animate id="65anim1" attributeName="d"
       values="M208.14 397.37c0,0 -2.24,-5.37 2.81,-9.17 5.05,-3.79 5.4,1.81 10.72,2.49 5.33,0.69 10.59,0.25 10.01,3.77 3.23,-7.96 -1.44,-12.51 -6.65,-15 -5.21,-2.49 -13.38,-3.57 -19.05,1.16 -5.67,4.73 -4.9,16.1 -4.9,16.1 3.74,-1.81 4.74,-0.34 7.05,0.64z;
       m 211.41958,400.09111 c 0,0 -1.35139,-5.65935 4.24184,-8.60184 5.59163,-2.93263 5.04057,2.65117 10.18309,4.17412 5.15078,1.53441 10.41338,1.9422 9.27732,5.32394 4.4627,-7.34022 0.58138,-12.57918 -4.16278,-15.87117 -4.74415,-3.29198 -12.63587,-5.66604 -18.98999,-1.9048 -6.35412,3.76124 -7.41435,15.10786 -7.41435,15.10786 3.98153,-1.1879 4.73329,0.42324 6.8566,1.76042 z"

       dur="0.2s" begin="generalt1.mouseover + 0.2s" fill="freeze" />

       <animate id="fi14anim2" attributeName="d" fill="freeze"
         values="m 211.41958,400.09111 c 0,0 -1.35139,-5.65935 4.24184,-8.60184 5.59163,-2.93263 5.04057,2.65117 10.18309,4.17412 5.15078,1.53441 10.41338,1.9422 9.27732,5.32394 4.4627,-7.34022 0.58138,-12.57918 -4.16278,-15.87117 -4.74415,-3.29198 -12.63587,-5.66604 -18.98999,-1.9048 -6.35412,3.76124 -7.41435,15.10786 -7.41435,15.10786 3.98153,-1.1879 4.73329,0.42324 6.8566,1.76042 z;
         M208.14 397.37c0,0 -2.24,-5.37 2.81,-9.17 5.05,-3.79 5.4,1.81 10.72,2.49 5.33,0.69 10.59,0.25 10.01,3.77 3.23,-7.96 -1.44,-12.51 -6.65,-15 -5.21,-2.49 -13.38,-3.57 -19.05,1.16 -5.67,4.73 -4.9,16.1 -4.9,16.1 3.74,-1.81 4.74,-0.34 7.05,0.64z"

         dur="0.5s" begin="generalt1.mouseout" />
    </path>
    <path class="fil14" d="M205.99 380.63c0,0 -4.71,-12.65 -13.62,-9.51 -8.92,3.13 -4.9,21.1 -5.88,28.92 -0.98,7.82 -6.59,8.16 -8.6,4.69 -3.73,7.09 10.88,14.29 15.64,7.48 4.76,-6.81 2.02,-24.08 5.06,-25.84 3.04,-1.76 6.1,0.53 6.1,0.53l1.3 -6.26z">
      <animate id="fil4anim1" attributeName="d"
       values="M205.99 380.63c0,0 -4.71,-12.65 -13.62,-9.51 -8.92,3.13 -4.9,21.1 -5.88,28.92 -0.98,7.82 -6.59,8.16 -8.6,4.69 -3.73,7.09 10.88,14.29 15.64,7.48 4.76,-6.81 2.02,-24.08 5.06,-25.84 3.04,-1.76 6.1,0.53 6.1,0.53l1.3 -6.26z;
       m 211.97733,383.22283 c 0,0 -2.62402,-13.24089 -11.9218,-11.56785 -9.30604,1.66156 -8.21484,20.04336 -10.43415,27.6056 -2.21932,7.56224 -7.81139,6.99971 -9.23993,3.25267 -4.81697,6.40139 8.45188,15.84753 14.24074,9.88743 5.78886,-5.96009 5.84908,-23.446 9.13164,-24.6966 3.28255,-1.25061 5.93646,1.49975 5.93646,1.49975 l 2.28544,-5.97113 z"

       dur="0.2s" begin="generalt1.mouseover + 0.2s" fill="freeze" />

       <animate id="fi14anim2" attributeName="d" fill="freeze"
         values="m 211.97733,383.22283 c 0,0 -2.62402,-13.24089 -11.9218,-11.56785 -9.30604,1.66156 -8.21484,20.04336 -10.43415,27.6056 -2.21932,7.56224 -7.81139,6.99971 -9.23993,3.25267 -4.81697,6.40139 8.45188,15.84753 14.24074,9.88743 5.78886,-5.96009 5.84908,-23.446 9.13164,-24.6966 3.28255,-1.25061 5.93646,1.49975 5.93646,1.49975 l 2.28544,-5.97113 z;
         M205.99 380.63c0,0 -4.71,-12.65 -13.62,-9.51 -8.92,3.13 -4.9,21.1 -5.88,28.92 -0.98,7.82 -6.59,8.16 -8.6,4.69 -3.73,7.09 10.88,14.29 15.64,7.48 4.76,-6.81 2.02,-24.08 5.06,-25.84 3.04,-1.76 6.1,0.53 6.1,0.53l1.3 -6.26z"

         dur="0.5s" begin="generalt1.mouseout" />
    </path>
    <path class="fil10" d="M192.57 421.93c-3.75,2.16 -10.65,28.02 -10.65,32.28 0,4.26 33.25,25.47 33.25,25.47 0,0 1.53,-5.24 5.08,-6.3 -0.71,-0.36 -24.85,-23.43 -24.85,-23.43l6.39 -18.08c0,0 0,-15.26 -9.23,-9.94z"/>
    <polygon class="fil7" points="212.63,482.94 246.52,481.9 268.53,490.06 231.28,492.04 "/>
    <polygon class="fil15" points="231.28,492.04 212.63,484.82 212.63,482.94 232.75,490.2 "/>
    <polygon class="fil15" points="231.28,492.04 242.48,461.45 279.53,463.44 268.53,490.77 "/>
    <path class="fil7" d="M254.03 474.98c-1.1,2.2 -0.77,4.6 0.74,5.36 1.51,0.76 3.63,-0.42 4.73,-2.62 1.1,-2.2 0.77,-4.6 -0.74,-5.36 -1.51,-0.76 -3.63,0.42 -4.73,2.62z"/>
    <path class="fil13" d="M220.26 473.38c0,0 13.49,10.65 12.07,11.36 -1.42,0.71 -7.45,0.71 -10.65,-1.07 -3.19,-1.77 -6.5,-3.99 -6.5,-3.99 0,0 1.18,-5.95 5.08,-6.3z"/>
    <g>
     <path class="fil16" d="M222.03 553.96c2.39,2.43 10.54,6.11 14.55,7.1 4.3,1.07 3.55,4.68 0.41,4.68 -6.17,0 -19.9,-0.77 -26.67,-0.77 -1.07,-3.19 0.77,-7.47 2.92,-10.34 0.66,-0.88 8.45,-1.01 8.79,-0.66z"/>
    </g>
    <g>
     <path class="fil16" d="M270.66 553.96c2.39,2.43 10.54,6.11 14.55,7.1 4.3,1.07 3.55,4.68 0.4,4.68 -6.17,0 -19.9,-0.77 -26.67,-0.77 -1.07,-3.19 0.77,-7.47 2.92,-10.34 0.66,-0.88 8.45,-1.01 8.79,-0.66z"/>
    </g>
   </g>
   <g>
    <polygon class="fil17" points="228.94,353.45 196.39,353.45 196.39,344.49 228.94,344.49 "/>
    <polygon class="fil17" points="311.83,353.45 279.29,353.45 279.29,344.49 311.83,344.49 "/>
    <polygon class="fil17" points="270.39,353.45 237.84,353.45 237.84,344.49 270.39,344.49 "/>
   </g>
   <g>
    <path class="fil18" id="polygon99" style="fill:#fdba3f;fill-rule:nonzero" d="M 418.31,209.93 315.17,235.21 305.75,196.79 408.89,171.5 Z">
      <animate id="polygon99anim1" attributeName="d"
       values="M 418.31,209.93 315.17,235.21 305.75,196.79 408.89,171.5 Z;
       m 414.14,210.45746 -103.14,25.28 -9.42,-38.42 103.14,-25.29 z"

       dur="0.2s" begin="generalt1.mouseover + 0.2s" fill="freeze" />

       <animate id="fi14anim2" attributeName="d" fill="freeze"
         values="m 414.14,210.45746 -103.14,25.28 -9.42,-38.42 103.14,-25.29 z;
         M 418.31,209.93 315.17,235.21 305.75,196.79 408.89,171.5 Z"

         dur="0.5s" begin="generalt1.mouseout" />
      
    </path>
    <polygon class="fil19" points="389.75,187.35 313.78,205.98 312.48,200.67 388.45,182.04 "/>
    <polygon class="fil19" points="379.58,199.86 316.1,215.42 314.79,210.11 378.27,194.54 "/>
    <polygon class="fil19" points="348.75,218.38 318.63,225.76 317.33,220.45 347.45,213.07 "/>
    <polygon class="fil10" points="398.87,195.27 382.74,199.22 381.44,193.91 397.57,189.96 "/>
   </g>
   <polygon class="fil10" points="311,240.08 311,334.6 195.17,334.6 195.17,240.08 "/>
   <g>
    <polygon class="fil20" points="547.48,337.22 319.68,337.22 319.68,294.59 547.48,294.59 "/>
    <polygon class="fil10" points="540.67,331.05 479.02,331.05 479.02,300.76 540.67,300.76 "/>
    <polygon class="fil21" points="470.5,308.44 328.01,308.44 328.01,302.6 470.5,302.6 "/>
    <polygon class="fil21" points="470.5,318.83 328.01,318.83 328.01,312.99 470.5,312.99 "/>
    <polygon class="fil21" points="423.94,329.21 328.01,329.21 328.01,323.37 423.94,323.37 "/>
   </g>
   <g>
    <g>
     <polygon class="fil10" points="538.65,470.39 319.73,470.39 319.73,367.67 538.65,367.67 "/>
     <polygon class="fil22" points="538.65,384.7 538.65,367.67 319.73,367.67 319.73,384.7 "/>
     <polygon class="fil23" points="451.45,417.59 325.04,417.59 325.04,408.92 451.45,408.92 "/>
     <polygon class="fil23" points="438.4,433 325.04,433 325.04,424.33 438.4,424.33 "/>
     <polygon class="fil23" points="401.5,448.42 325.04,448.42 325.04,439.75 401.5,439.75 "/>
     <polygon class="fil23" points="370.6,403.39 325.04,403.39 325.04,394.72 370.6,394.72 "/>
    </g>
    <g>
     <polygon class="fil24" points="529.88,460.42 463.76,460.42 463.76,394.29 529.88,394.29 "/>
     <path class="fil25" d="M503.58 426.92c1.04,-1.4 1.66,-3.13 1.66,-5.01l0 -5.05c0,-4.65 -3.77,-8.42 -8.42,-8.42 -4.65,0 -8.42,3.77 -8.42,8.42l0 5.05c0,1.98 0.68,3.79 1.82,5.22 -7.73,2.72 -13.26,10.08 -13.26,18.74l41.64 0c0,0 -1.61,-15.06 -15.02,-18.95z"/>
    </g>
    <g>
     <g>
      <path class="fil6" d="M335.34 376.61c0,2.37 -1.92,4.3 -4.3,4.3 -2.37,0 -4.3,-1.92 -4.3,-4.3 0,-2.37 1.92,-4.3 4.3,-4.3 2.37,0 4.3,1.92 4.3,4.3z"/>
     </g>
     <g>
      <path class="fil26" d="M349.11 376.61c0,2.37 -1.92,4.3 -4.3,4.3 -2.37,0 -4.3,-1.92 -4.3,-4.3 0,-2.37 1.92,-4.3 4.3,-4.3 2.37,0 4.3,1.92 4.3,4.3z"/>
     </g>
     <path class="fil27" d="M365.08 376.61c0,2.37 -1.92,4.3 -4.3,4.3 -2.37,0 -4.3,-1.92 -4.3,-4.3 0,-2.37 1.92,-4.3 4.3,-4.3 2.37,0 4.3,1.92 4.3,4.3z"/>
    </g>
   </g>
   <polygon class="fil6" points="540.78,276.03 464.11,276.03 464.11,199.36 540.78,199.36 "/>
   <g>
    <path class="fil28" d="M571.46 539.95c0,0 0.66,2.02 -5.52,4.84 -6.19,2.82 -12.71,1.83 -14.32,4.2 -1.6,2.37 -1.98,4.62 -1.98,4.62l35.19 0c0,0 -0.27,-9.72 -4.25,-14.03 0.51,0.93 -9.12,0.38 -9.12,0.38z"/>
    <path class="fil28" d="M609.79 539.93c0,0 0.64,1.94 -5.31,4.65 -5.95,2.71 -12.22,1.76 -13.77,4.03 -1.54,2.28 -1.9,4.44 -1.9,4.44l33.84 0c0,0 -0.26,-9.34 -4.09,-13.49 0.49,0.89 -8.77,0.36 -8.77,0.36z"/>
    <g>
     <polygon class="fil10" points="564.52,354.9 538.97,359.4 521,320.93 548.52,318.69 "/>
    </g>
    <g>
     <path class="fil29" d="M532.62 351.02c0.01,-0 0.01,-0 0.02,-0 -0.09,0.04 -0.1,0.04 -0.02,0z"/>
    </g>
    <path class="fil13" d="M582.21 282.75c0,0 -3.37,6.74 -3.37,12.92 0,4.32 0.55,10.56 0.88,13.92 0.12,1.22 1.33,2.03 2.51,1.67l5.04 -1.55 -0.28 7.3 14.06 -0.24 3.07 -29.52c0,0 -11.79,-12.92 -21.9,-4.49z">
      <animate id="face1anim1" attributeName="d"
       values="M582.21 282.75c0,0 -3.37,6.74 -3.37,12.92 0,4.32 0.55,10.56 0.88,13.92 0.12,1.22 1.33,2.03 2.51,1.67l5.04 -1.55 -0.28 7.3 14.06 -0.24 3.07 -29.52c0,0 -11.79,-12.92 -21.9,-4.49z;
       m 586.67146,284.4187 c 0,0 -4.48163,6.058 -5.54718,12.14545 -0.74485,4.2553 -1.27898,10.49668 -1.53325,13.86326 -0.0921,1.22242 0.96007,2.22891 2.18447,2.07776 l 5.23177,-0.65779 -1.53447,7.14239 13.89081,2.18781 8.11384,-28.54857 c 0,0 -9.38578,-14.75933 -20.79786,-8.19874 z"

       dur="0.5s" begin="generalt1.mouseover + 0.2s" fill="freeze" calcMode="linear"/>

       <animate id="face1anim2" attributeName="d" fill="freeze"
         values="m 586.67146,284.4187 c 0,0 -4.48163,6.058 -5.54718,12.14545 -0.74485,4.2553 -1.27898,10.49668 -1.53325,13.86326 -0.0921,1.22242 0.96007,2.22891 2.18447,2.07776 l 5.23177,-0.65779 -1.53447,7.14239 13.89081,2.18781 8.11384,-28.54857 c 0,0 -9.38578,-14.75933 -20.79786,-8.19874 z;
         M582.21 282.75c0,0 -3.37,6.74 -3.37,12.92 0,4.32 0.55,10.56 0.88,13.92 0.12,1.22 1.33,2.03 2.51,1.67l5.04 -1.55 -0.28 7.3 14.06 -0.24 3.07 -29.52c0,0 -11.79,-12.92 -21.9,-4.49z"

         dur="0.5s" begin="generalt1.mouseout" calcMode="linear"/>
    </path>
    <path class="fil30" d="M583.27 298.24c0,0 0.79,-5.84 5.2,-4.63 4.41,1.21 -0.64,7.11 -0.64,7.11l4.21 7.58c3.09,1.12 6.49,1.2 9.83,-0.28 0,0 4.68,-14.23 4.68,-18.72 0,-4.49 -4.1,-7.53 -4.1,-7.53 0,0 -10.97,-5.48 -16.87,-5.2 -5.9,0.28 -6.46,6.18 -6.46,6.18 0,0 -2.25,4.49 0,6.46 2.25,1.97 4.15,9.04 4.15,9.04z">
      <animate id="hair1anim1" attributeName="d"
       values="M583.27 298.24c0,0 0.79,-5.84 5.2,-4.63 4.41,1.21 -0.64,7.11 -0.64,7.11l4.21 7.58c3.09,1.12 6.49,1.2 9.83,-0.28 0,0 4.68,-14.23 4.68,-18.72 0,-4.49 -4.1,-7.53 -4.1,-7.53 0,0 -10.97,-5.48 -16.87,-5.2 -5.9,0.28 -6.46,6.18 -6.46,6.18 0,0 -2.25,4.49 0,6.46 2.25,1.97 4.15,9.04 4.15,9.04z;
       m 585.04482,299.85948 c 0,0 1.78509,-5.61633 5.92042,-3.66408 4.13533,1.95224 -1.85631,6.89317 -1.85631,6.89317 l 2.84001,8.19236 c 2.85061,1.636 6.1859,2.30103 9.73106,1.41907 0,0 7.06343,-13.20996 7.8376,-17.63272 0.77416,-4.42275 -2.74029,-8.12414 -2.74029,-8.12414 0,0 -9.86085,-7.28937 -15.72077,-8.03084 -5.85991,-0.74146 -7.4288,4.97362 -7.4288,4.97362 0,0 -2.99046,4.03482 -1.11383,6.36325 1.87664,2.32844 2.52918,9.62016 2.52918,9.62016 z"

       dur="0.5s" begin="generalt1.mouseover + 0.2s" fill="freeze" calcMode="linear"/>

       <animate id="hair1anim2" attributeName="d" fill="freeze"
         values="m 585.04482,299.85948 c 0,0 1.78509,-5.61633 5.92042,-3.66408 4.13533,1.95224 -1.85631,6.89317 -1.85631,6.89317 l 2.84001,8.19236 c 2.85061,1.636 6.1859,2.30103 9.73106,1.41907 0,0 7.06343,-13.20996 7.8376,-17.63272 0.77416,-4.42275 -2.74029,-8.12414 -2.74029,-8.12414 0,0 -9.86085,-7.28937 -15.72077,-8.03084 -5.85991,-0.74146 -7.4288,4.97362 -7.4288,4.97362 0,0 -2.99046,4.03482 -1.11383,6.36325 1.87664,2.32844 2.52918,9.62016 2.52918,9.62016 z;
         M583.27 298.24c0,0 0.79,-5.84 5.2,-4.63 4.41,1.21 -0.64,7.11 -0.64,7.11l4.21 7.58c3.09,1.12 6.49,1.2 9.83,-0.28 0,0 4.68,-14.23 4.68,-18.72 0,-4.49 -4.1,-7.53 -4.1,-7.53 0,0 -10.97,-5.48 -16.87,-5.2 -5.9,0.28 -6.46,6.18 -6.46,6.18 0,0 -2.25,4.49 0,6.46 2.25,1.97 4.15,9.04 4.15,9.04z"

         dur="0.5s" begin="generalt1.mouseout" calcMode="linear"/>
    </path>
    <path class="fil31" d="M601.68 312.7l-0.63 4.06 -14.53 0.06c0,0 2.81,-4.49 15.16,-4.12z"/>
    <path class="fil13" d="M539.54 349.01c0,0 1.02,-3.18 -3.09,-5.05 0.11,-0.75 -0.82,-4.47 -1.68,-5.33 -0.86,-0.86 -1.4,3.93 -1.4,3.93 0,0 -4.02,-7.16 -5.05,-5.33 -1.03,1.82 9.08,15.91 9.36,16.47 0.28,0.56 1.87,-4.68 1.87,-4.68z"/>
    <path class="fil8" d="M577.35 395.24l-9.73 82.36 1.98 63.84 12.25 -0.88c0,0 3.46,-33.58 3.74,-42 0.28,-8.42 -2.25,-21.34 -2.25,-21.34l12.35 -50.91 2.05 0.38 0.57 50.16 11.25 63.72 10.3 0.5c0,0 0.26,-32.86 -0.59,-41 -0.84,-8.14 -5.24,-24.43 -5.24,-24.43l4.49 -51.94c0,0 4.49,-13.66 -3.56,-29.01 -1.03,0.09 -37.62,0.56 -37.62,0.56z"/>
    <path class="fil32" d="M586.52 316.81c0,0 -17.41,5.61 -20.59,8.8 -3.18,3.18 -12.31,35.98 -12.31,35.98l-13.75 -13.78 -4.26 10c0,0 16.1,23.96 21.15,24.71 5.05,0.75 16.47,-30.32 16.47,-30.32 0,0 1.04,16.97 3,25.46 2.25,9.73 1.12,17.6 1.12,17.6 15.58,2.83 28.83,2.25 37.62,-0.56l4.36 -32.7c0,0 5.94,0.69 7.81,-1.37 1.87,-2.06 -6.74,-35.94 -8.61,-38.56 -1.87,-2.62 -17.48,-5.3 -17.48,-5.3l-14.53 0.06z"/>
    <path class="fil31" d="M603.47 339.3c-0.09,-0.66 -1.19,-0.5 -1.17,0.16 0.52,14.07 0.05,27.79 -2.16,41.73 -0.15,0.93 1.24,1.36 1.45,0.4 2.99,-13.77 3.84,-28.3 1.88,-42.28z"/>
    <path class="fil31" d="M619.44 349.72c-0.09,-0.47 -0.81,-0.35 -0.82,0.11 -0.15,8.22 -1.17,16.08 -2.73,24.16 -1.39,7.17 -2.65,14.36 -2.19,21.69 0.06,1.03 1.65,1.04 1.61,0 -0.36,-8.47 1.37,-16.65 2.91,-24.94 1.28,-6.88 2.6,-14.07 1.21,-21.03z"/>
    <path class="fil31" d="M574.82 349.47c-4.67,2.97 -6.43,8.79 -8.22,13.73 -2.42,6.69 -4.84,13.27 -10.11,18.29 -0.79,0.75 0.39,1.9 1.18,1.18 9.73,-8.76 9.27,-23.08 17.57,-32.66 0.25,-0.28 -0.07,-0.77 -0.42,-0.55z"/>
    <path class="fil28" d="M615.16 392.25c0,0 -23.58,2.99 -37.81,-1.5 0.37,0 0,4.49 0,4.49 0,0 18.14,6.8 38.93,1.5 -0.16,-0.07 -1.12,-4.49 -1.12,-4.49z"/>
   </g>
   <g>
    <path class="fil33" d="M371.11 488.11c0,0 -1.95,4.26 -5.32,4.97 -3.37,0.71 -12.25,2.66 -13.67,3.9 -1.42,1.24 -1.42,4.44 -1.42,4.44l28.17 0c0,0 -0.05,-8.53 -1.69,-12.96 0.67,0 -6.07,-0.35 -6.07,-0.35z"/>
    <path class="fil33" d="M425.42 488.11c0,0 -1.95,4.26 -5.33,4.97 -3.37,0.71 -12.25,2.66 -13.67,3.9 -1.42,1.24 -1.42,4.44 -1.42,4.44l28.17 0c0,0 -0.05,-8.53 -1.69,-12.96 0.67,0 -6.07,-0.35 -6.07,-0.35z"/>
    <path class="fil34" id="path199" d="M421.97 211.28c0,0 -7.85,-2 -8.32,-0.75 -0.47,1.25 12.13,4.98 12.13,4.98l11.35 31.46 -4.25 10.07 7.81 8.52c0,0 8.52,-11.54 9.23,-14.91 0.71,-3.37 -20.23,-37.27 -20.23,-37.27 0,0 -4.16,-13.21 -4.79,-13.84 -0.64,-0.64 -8.14,-0.24 -9.84,-0.21 -1.7,0.03 4.95,6.76 4.95,6.76l1.97 5.2z">
      <animate id="path199anim1" attributeName="d"
       values="M421.97 211.28c0,0 -7.85,-2 -8.32,-0.75 -0.47,1.25 12.13,4.98 12.13,4.98l11.35 31.46 -4.25 10.07 7.81 8.52c0,0 8.52,-11.54 9.23,-14.91 0.71,-3.37 -20.23,-37.27 -20.23,-37.27 0,0 -4.16,-13.21 -4.79,-13.84 -0.64,-0.64 -8.14,-0.24 -9.84,-0.21 -1.7,0.03 4.95,6.76 4.95,6.76l1.97 5.2z;
       m 416.89172,215.24856 c 0,0 -7.98201,-1.4068 -8.35319,-0.12513 -0.37117,1.28166 12.48122,4.05808 12.48122,4.05808 l 13.7669,30.52218 -3.45245,10.35988 8.45016,7.91151 c 0,0 7.59495,-12.14536 8.04021,-15.55905 0.44525,-3.41369 -23.07266,-35.65121 -23.07266,-35.65121 0,0 -5.17668,-12.86157 -5.85386,-13.44264 -0.68793,-0.5903 -8.13399,0.36996 -9.8265,0.52713 -1.69249,0.15716 5.46171,6.37052 5.46171,6.37052 l 2.36921,5.03795 z"

       dur="0.2s" begin="generalt1.mouseover + 0.2s" fill="freeze" calcMode="linear"/>

       <animate id="path199anim2" attributeName="d" fill="freeze"
         values="m 416.89172,215.24856 c 0,0 -7.98201,-1.4068 -8.35319,-0.12513 -0.37117,1.28166 12.48122,4.05808 12.48122,4.05808 l 13.7669,30.52218 -3.45245,10.35988 8.45016,7.91151 c 0,0 7.59495,-12.14536 8.04021,-15.55905 0.44525,-3.41369 -23.07266,-35.65121 -23.07266,-35.65121 0,0 -5.17668,-12.86157 -5.85386,-13.44264 -0.68793,-0.5903 -8.13399,0.36996 -9.8265,0.52713 -1.69249,0.15716 5.46171,6.37052 5.46171,6.37052 l 2.36921,5.03795 z;
         M421.97 211.28c0,0 -7.85,-2 -8.32,-0.75 -0.47,1.25 12.13,4.98 12.13,4.98l11.35 31.46 -4.25 10.07 7.81 8.52c0,0 8.52,-11.54 9.23,-14.91 0.71,-3.37 -20.23,-37.27 -20.23,-37.27 0,0 -4.16,-13.21 -4.79,-13.84 -0.64,-0.64 -8.14,-0.24 -9.84,-0.21 -1.7,0.03 4.95,6.76 4.95,6.76l1.97 5.2z"

         dur="0.5s" begin="generalt1.mouseout" calcMode="linear"/>
    </path>
    <path class="fil34" d="M391.44 234.57c0,0 -3.74,5.25 -4.54,10.84 -0.8,5.59 0.27,10.92 0.27,10.92l6.86 -0.23 0 6.42 13.64 0c0,0 0.27,-4.86 0.8,-7.52 0.53,-2.66 4.26,-7.72 4.26,-7.72l-6.12 -17.3 -8.79 -0.8 -6.38 5.4z"/>
    <path class="fil35" d="M394.89 242.75c0,0 2.4,-5.59 5.32,-3.46 2.93,2.13 -0.8,6.66 -0.8,6.66 0,0 1.86,7.72 5.06,8.79 3.19,1.06 3.19,1.06 3.19,1.06 0,0 8.25,-7.72 9.58,-9.85 1.33,-2.13 -2.13,-14.38 -4.53,-17.04 -2.4,-2.66 -12.78,-2.4 -13.58,-3.73 -0.8,-1.33 -3.46,-3.73 -6.12,-2.66 -2.66,1.07 -2.13,9.85 -2.13,9.85 0,0 3.29,2.83 3.51,4.88 0.22,2.04 -1.31,4.75 -1.31,4.75l1.79 0.75z"/>
    <path class="fil16" d="M382 262.93c0,0 13.61,-1.99 21.42,-2.16 7.81,-0.18 20.23,3.9 20.23,3.9l9.04 -9.68 11.52 10.82c0,0 -9.8,14.47 -12.96,17.84 -3.16,3.38 -5.47,19.17 -6.18,23.96 -0.71,4.79 -2.48,32.83 -2.48,32.83 0,0 -8.34,9.94 -42.59,-0.89 -0.36,-0.36 1.42,-20.59 1.24,-25.56 -0.18,-4.97 -4.61,-21.83 -5.5,-25.91 -0.89,-4.08 -15.04,-12.25 -15.04,-12.25 0,0 -1.75,-9.94 4.78,-14.73 0.85,0.54 16.53,1.81 16.53,1.81z"/>
    <path class="fil34" id="path207" d="M350.35 222.25c0,0 -5.15,4.79 -5.5,6.74 -0.35,1.95 7.08,24.19 7.08,24.19l13.54 7.93 -4.78 14.73c0,0 -14.78,-10.29 -16.91,-13.31 -2.13,-3.02 -5.86,-33.19 -5.86,-33.19 0,0 -4.79,-6.03 -5.15,-7.63 -0.35,-1.6 -1.47,-6.82 -0.65,-7.85 0.82,-1.03 6.32,-6.71 7.12,-5.02 0.8,1.69 3.76,13.98 3.76,13.98 0,0 6.1,-2.71 7.34,-0.58z">
      <animate id="path207anim1" attributeName="d"
       values="M350.35 222.25c0,0 -5.15,4.79 -5.5,6.74 -0.35,1.95 7.08,24.19 7.08,24.19l13.54 7.93 -4.78 14.73c0,0 -14.78,-10.29 -16.91,-13.31 -2.13,-3.02 -5.86,-33.19 -5.86,-33.19 0,0 -4.79,-6.03 -5.15,-7.63 -0.35,-1.6 -1.47,-6.82 -0.65,-7.85 0.82,-1.03 6.32,-6.71 7.12,-5.02 0.8,1.69 3.76,13.98 3.76,13.98 0,0 6.1,-2.71 7.34,-0.58z;
       m 346.45385,228.13191 c 0,0 -5.14,4.8 -5.49,6.75 -0.35,1.95 10.96615,18.29809 10.96615,18.29809 l 13.54,7.93 -4.78,14.73 c 0,0 -14.78,-10.29 -16.91,-13.31 -2.13,-3.02 -9.74615,-27.29809 -9.74615,-27.29809 0,0 -4.79,-6.03 -5.15,-7.63 -0.35,-1.6 -1.47,-6.82 -0.65,-7.85 0.82,-1.03 6.32,-6.71 7.12,-5.02 0.8,1.69 3.76,13.98 3.76,13.98 0,0 6.1,-2.71 7.34,-0.58 z"

       dur="0.2s" begin="generalt1.mouseover + 0.2s" fill="freeze" />

       <animate id="path207anim2" attributeName="d" fill="freeze"
         values="m 346.45385,228.13191 c 0,0 -5.14,4.8 -5.49,6.75 -0.35,1.95 10.96615,18.29809 10.96615,18.29809 l 13.54,7.93 -4.78,14.73 c 0,0 -14.78,-10.29 -16.91,-13.31 -2.13,-3.02 -9.74615,-27.29809 -9.74615,-27.29809 0,0 -4.79,-6.03 -5.15,-7.63 -0.35,-1.6 -1.47,-6.82 -0.65,-7.85 0.82,-1.03 6.32,-6.71 7.12,-5.02 0.8,1.69 3.76,13.98 3.76,13.98 0,0 6.1,-2.71 7.34,-0.58 z;
         M350.35 222.25c0,0 -5.15,4.79 -5.5,6.74 -0.35,1.95 7.08,24.19 7.08,24.19l13.54 7.93 -4.78 14.73c0,0 -14.78,-10.29 -16.91,-13.31 -2.13,-3.02 -5.86,-33.19 -5.86,-33.19 0,0 -4.79,-6.03 -5.15,-7.63 -0.35,-1.6 -1.47,-6.82 -0.65,-7.85 0.82,-1.03 6.32,-6.71 7.12,-5.02 0.8,1.69 3.76,13.98 3.76,13.98 0,0 6.1,-2.71 7.34,-0.58z"

         dur="0.5s" begin="generalt1.mouseout" />
    </path>
    <path class="fil8" d="M379.99 339.56l-7.72 72.77 -3.99 77.2 13.31 0.53c0,0 8.25,-51.22 8.39,-59.02 0.13,-7.8 -0.13,-17.12 -0.13,-17.12l8.52 -38.87 4.79 0 9.85 50.58 10.12 62.83 10.65 0.53c0,0 1.6,-39.13 0,-47.12 -1.6,-7.99 -3.99,-15.71 -3.99,-15.71l-4.79 -52.44c0,0 4.26,-18.64 -2.4,-33.28 -1.33,-2.66 -42.59,-0.89 -42.59,-0.89z"/>
   </g>
   <polygon class="fil22" points="298.66,256.78 290,256.78 290,248.13 284.61,248.13 284.61,256.78 275.95,256.78 275.95,262.18 284.61,262.18 284.61,270.83 290,270.83 290,262.18 298.66,262.18 "/>
   <path class="fil1" d="M218.13 323.55c-7.46,0 -13.53,-6.07 -13.53,-13.53 0,-7.46 6.07,-13.53 13.53,-13.53 7.46,0 13.53,6.07 13.53,13.53 0,7.46 -6.07,13.53 -13.53,13.53zm0 -19.99l0 0c-3.57,0 -6.47,2.9 -6.47,6.47 0,3.57 2.9,6.47 6.47,6.47 3.56,0 6.47,-2.9 6.47,-6.47 0,-3.57 -2.9,-6.47 -6.47,-6.47z"/>
   <polygon class="fil1 str0" points="634.09,199.28 625.44,199.28 625.44,190.63 620.04,190.63 620.04,199.28 611.39,199.28 611.39,204.68 620.04,204.68 620.04,213.33 625.44,213.33 625.44,204.68 634.09,204.68 "/>
   <path class="fil1" d="M590.85 140.23c0,2.95 -2.39,5.35 -5.35,5.35 -2.96,0 -5.35,-2.4 -5.35,-5.35 0,-2.96 2.39,-5.35 5.35,-5.35 2.95,0 5.35,2.4 5.35,5.35z"/>
   <path class="fil18" d="M486.47 234.1c-7.46,0 -13.53,-6.07 -13.53,-13.53 0,-7.46 6.07,-13.53 13.53,-13.53 7.46,0 13.53,6.07 13.53,13.53 0,7.46 -6.07,13.53 -13.53,13.53zm0 -19.99l0 0c-3.57,0 -6.47,2.9 -6.47,6.47 0,3.57 2.9,6.47 6.47,6.47 3.56,0 6.47,-2.9 6.47,-6.47 0,-3.57 -2.9,-6.47 -6.47,-6.47z"/>
   <path class="fil18" d="M558.35 144.65c-7.46,0 -13.53,-6.07 -13.53,-13.53 0,-7.46 6.07,-13.53 13.53,-13.53 7.46,0 13.53,6.07 13.53,13.53 0,7.46 -6.07,13.53 -13.53,13.53zm0 -19.99l0 0c-3.57,0 -6.47,2.9 -6.47,6.47 0,3.57 2.9,6.47 6.47,6.47 3.56,0 6.47,-2.9 6.47,-6.47 0,-3.57 -2.9,-6.47 -6.47,-6.47z"/>
  </g>
 </g>
 <g
   id="generalt1">
   <rect
   x="10"
   y="10"
   width="10000"
   height="10000"
   style="opacity: 0"
   id="rect135" />
 </g>
</svg>
