<?xml version="1.0" encoding="UTF-8"?>
<!DOCTYPE svg PUBLIC "-//W3C//DTD SVG 1.1//EN" "http://www.w3.org/Graphics/SVG/1.1/DTD/svg11.dtd">
<!-- Creator: CorelDRAW 2019 (64-Bit) -->
<svg id="t2svg" xmlns="http://www.w3.org/2000/svg" xml:space="preserve" width="91.2352mm" height="78.4479mm" version="1.1" style="shape-rendering:geometricPrecision; text-rendering:geometricPrecision; image-rendering:optimizeQuality; fill-rule:evenodd; clip-rule:evenodd"
viewBox="0 0 558.39 480.12"
 xmlns:xlink="http://www.w3.org/1999/xlink"
 xmlns:xodm="http://www.corel.com/coreldraw/odm/2003">
 <defs>
  <style type="text/css">
   <![CDATA[
    #t2svg .str0 {stroke:#606BF0;stroke-width:0.47;stroke-miterlimit:22.9256;stroke-opacity:0.501961}
    #t2svg .str1 {stroke:#272E39;stroke-width:1.08;stroke-miterlimit:10}
    #t2svg .fil20 {fill:none;fill-rule:nonzero}
    #t2svg .fil21 {fill:#093B56;fill-rule:nonzero}
    #t2svg .fil12 {fill:#0B3B56;fill-rule:nonzero}
    #t2svg .fil39 {fill:#112A46;fill-rule:nonzero}
    #t2svg .fil19 {fill:#272E39;fill-rule:nonzero}
    #t2svg .fil29 {fill:#2D3133;fill-rule:nonzero}
    #t2svg .fil18 {fill:#342821;fill-rule:nonzero}
    #t2svg .fil40 {fill:#464679;fill-rule:nonzero}
    #t2svg .fil11 {fill:#484442;fill-rule:nonzero}
    #t2svg .fil32 {fill:#56548C;fill-rule:nonzero}
    #t2svg .fil37 {fill:#606BF0;fill-rule:nonzero}
    #t2svg .fil14 {fill:#71B3E9;fill-rule:nonzero}
    #t2svg .fil2 {fill:#7BB8F4;fill-rule:nonzero}
    #t2svg .fil30 {fill:#858585;fill-rule:nonzero}
    #t2svg .fil41 {fill:#B1B1F2;fill-rule:nonzero}
    #t2svg .fil31 {fill:#BDE1F4;fill-rule:nonzero}
    #t2svg .fil16 {fill:#C1C9D3;fill-rule:nonzero}
    #t2svg .fil28 {fill:#D19E5D;fill-rule:nonzero}
    #t2svg .fil0 {fill:#D7EEFC;fill-rule:nonzero}
    #t2svg .fil35 {fill:#DFE8EF;fill-rule:nonzero}
    #t2svg .fil13 {fill:#E2AF8C;fill-rule:nonzero}
    #t2svg .fil33 {fill:#EB827C;fill-rule:nonzero}
    #t2svg .fil10 {fill:#EBAB94;fill-rule:nonzero}
    #t2svg .fil22 {fill:#EE8E06;fill-rule:nonzero}
    #t2svg .fil17 {fill:#F2CDAF;fill-rule:nonzero}
    #t2svg .fil23 {fill:#F7D4B6;fill-rule:nonzero}
    #t2svg .fil36 {fill:#F9FBFB;fill-rule:nonzero}
    #t2svg .fil38 {fill:#FBD15B;fill-rule:nonzero}
    #t2svg .fil26 {fill:#FE4810;fill-rule:nonzero}
    #t2svg .fil24 {fill:#FEB101;fill-rule:nonzero}
    #t2svg .fil25 {fill:#FFA000;fill-rule:nonzero}
    #t2svg .fil15 {fill:white;fill-rule:nonzero}
    #t2svg .fil34 {fill:white;fill-rule:nonzero}
    #t2svg .fil7 {fill:#7BB8F4;fill-rule:nonzero;fill-opacity:0.231373}
    #t2svg .fil1 {fill:#7BB8F4;fill-rule:nonzero;fill-opacity:0.239216}
    #t2svg .fil27 {fill:#FE4810;fill-rule:nonzero;fill-opacity:0.419608}
    #t2svg .fil6 {fill:#7BB8F4;fill-rule:nonzero;fill-opacity:0.431373}
    #t2svg .fil3 {fill:#606BF0;fill-rule:nonzero;fill-opacity:0.501961}
    #t2svg .fil5 {fill:#7BB8F4;fill-rule:nonzero;fill-opacity:0.501961}
    #t2svg .fil4 {fill:#C1E1FB;fill-rule:nonzero;fill-opacity:0.501961}
    #t2svg .fil8 {fill:#606BF0;fill-rule:nonzero;fill-opacity:0.529412}
    #t2svg .fil9 {fill:white;fill-rule:nonzero;fill-opacity:0.529412}
    #t2svg .detail {transition: 0.3s}
   ]]>
  </style>
 </defs>
 <g id="Слой_x0020_1">
  <metadata id="CorelCorpID_0Corel-Layer"/>
  <path class="fil0" d="M179.24 63.18c-89.98,-23.13 -172.92,-21.67 -179.11,83.82 -3.91,66.59 79.08,80.22 86.57,106.26 7.15,24.84 -0.48,30.24 -20.23,54.82 -38.82,48.32 -53.25,56.11 -35.91,107.99 18.81,56.28 96.17,84.41 151.98,47.16 35.91,-23.97 72.08,-25.2 111.47,-29.57 73.08,-8.12 90.82,21.99 171.99,12.28 55.57,-6.65 85.3,-31.32 91.31,-72.04 4.65,-31.49 -6.17,-39.9 -27.78,-66.44 -38.62,-47.41 -68.98,-52.33 -21.63,-117.8 74.67,-103.26 -36.57,-218.01 -99.3,-183.33 -161.88,89.49 -84.78,94.04 -229.36,56.87z">
    <animate id="t2anim1" attributeName="d"
       values="M179.24 63.18c-89.98,-23.13 -172.92,-21.67 -179.11,83.82 -3.91,66.59 79.08,80.22 86.57,106.26 7.15,24.84 -0.48,30.24 -20.23,54.82 -38.82,48.32 -53.25,56.11 -35.91,107.99 18.81,56.28 96.17,84.41 151.98,47.16 35.91,-23.97 72.08,-25.2 111.47,-29.57 73.08,-8.12 90.82,21.99 171.99,12.28 55.57,-6.65 85.3,-31.32 91.31,-72.04 4.65,-31.49 -6.17,-39.9 -27.78,-66.44 -38.62,-47.41 -68.98,-52.33 -21.63,-117.8 74.67,-103.26 -36.57,-218.01 -99.3,-183.33 -161.88,89.49 -84.78,94.04 -229.36,56.87z;
       M 179.24,63.18 C 49.079845,69.549354 6.32,41.51 0.13,147 -3.78,213.59 -4.7105774,219.08224 40.92514,259.36331 89.781124,300.98743 52.651769,326.2232 46.634227,334.5277 33.753315,350.8053 13.22,364.19 30.56,416.07 c 18.81,56.28 96.17,84.41 151.98,47.16 35.91,-23.97 73.09722,-44.01855 112.48722,-48.38855 C 368.10722,406.72145 384.83,455.65 466,445.94 521.57,439.29 551.3,414.62 557.31,373.9 561.96,342.41 551.14,334 529.53,307.46 490.91,260.05 450.88642,248.51808 498.23642,183.04808 572.90642,79.788076 485.06246,-15.634761 408.6,6.33 238.58225,62.760379 303.98423,54.59514 179.24,63.2 Z"

       dur="0.2s" begin="generalt2.mouseover" fill="freeze" />

       <animate id="t2anim2" attributeName="d" fill="freeze"
         values="M 179.24,63.18 C 49.079845,69.549354 6.32,41.51 0.13,147 -3.78,213.59 -4.7105774,219.08224 40.92514,259.36331 89.781124,300.98743 52.651769,326.2232 46.634227,334.5277 33.753315,350.8053 13.22,364.19 30.56,416.07 c 18.81,56.28 96.17,84.41 151.98,47.16 35.91,-23.97 73.09722,-44.01855 112.48722,-48.38855 C 368.10722,406.72145 384.83,455.65 466,445.94 521.57,439.29 551.3,414.62 557.31,373.9 561.96,342.41 551.14,334 529.53,307.46 490.91,260.05 450.88642,248.51808 498.23642,183.04808 572.90642,79.788076 485.06246,-15.634761 408.6,6.33 238.58225,62.760379 303.98423,54.59514 179.24,63.2 Z;
         M179.24 63.18c-89.98,-23.13 -172.92,-21.67 -179.11,83.82 -3.91,66.59 79.08,80.22 86.57,106.26 7.15,24.84 -0.48,30.24 -20.23,54.82 -38.82,48.32 -53.25,56.11 -35.91,107.99 18.81,56.28 96.17,84.41 151.98,47.16 35.91,-23.97 72.08,-25.2 111.47,-29.57 73.08,-8.12 90.82,21.99 171.99,12.28 55.57,-6.65 85.3,-31.32 91.31,-72.04 4.65,-31.49 -6.17,-39.9 -27.78,-66.44 -38.62,-47.41 -68.98,-52.33 -21.63,-117.8 74.67,-103.26 -36.57,-218.01 -99.3,-183.33 -161.88,89.49 -84.78,94.04 -229.36,56.87z"

         dur="0.5s" begin="generalt2.mouseout" />
  </path>
  <g id="_1919448679312">
   <path class="fil1" d="M474.22 382.92c0,4.72 -72.48,8.54 -161.88,8.54 -89.4,0 -161.88,-3.82 -161.88,-8.54 0,-4.72 72.48,-8.54 161.88,-8.54 89.4,0 161.88,3.82 161.88,8.54z"/>
   <g>
    <polygon class="fil2" points="347.96,202.64 347.26,202.11 367.41,175.15 385.22,192.91 407.79,158.95 426.68,182.74 450.98,157.83 488.87,157.83 488.87,158.71 451.35,158.71 426.61,184.07 407.85,160.44 385.35,194.29 367.51,176.49 "/>
   </g>
   <g>
    <path class="fil3 detail" d="M376.87 145.46l-1.68 -1.64 -1.62 0.82c-0.44,-0.3 -0.9,-0.55 -1.38,-0.77l-0.14 -1.81 -2.27 -0.58 -0.99 1.52 0.01 0c-0.27,-0.02 -0.53,-0.03 -0.8,-0.02 -0.27,0 -0.54,0.02 -0.8,0.04l0.01 -0 -1.03 -1.5 -2.26 0.63 -0.1 1.82c-0.47,0.23 -0.92,0.5 -1.36,0.8l-1.64 -0.78 -1.64 1.68 0.82 1.62c-0.3,0.44 -0.55,0.91 -0.77,1.38l-1.81 0.14 -0.58 2.27 1.52 0.99c-0.01,0.26 -0.02,0.53 -0.02,0.79 0,0.27 0.02,0.54 0.04,0.8l-0.01 -0.01 -1.5 1.03 0.63 2.26 1.82 0.1c0.23,0.47 0.5,0.92 0.81,1.36l-0.78 1.64 1.68 1.64 1.62 -0.82c0.45,0.3 0.91,0.55 1.38,0.77l0.15 1.81 2.27 0.58 0.99 -1.52c0.26,0.01 0.53,0.02 0.79,0.02 0.27,-0 0.53,-0.02 0.8,-0.04l1.02 1.5 2.26 -0.63 0.1 -1.81c0.47,-0.23 0.92,-0.5 1.36,-0.81l1.64 0.78 1.64 -1.68 -0.82 -1.62c0.3,-0.44 0.56,-0.9 0.77,-1.38l1.81 -0.14 0.58 -2.27 -1.52 -0.99 -0 0.01c0.02,-0.27 0.03,-0.53 0.02,-0.8 0,-0.26 -0.02,-0.53 -0.04,-0.79l1.5 -1.03 -0.64 -2.26 -1.82 -0.1c-0.23,-0.47 -0.49,-0.92 -0.8,-1.36l0.78 -1.64zm-3.56 12.37l0 0c-2.8,2.87 -7.4,2.93 -10.27,0.13 -2.87,-2.8 -2.93,-7.4 -0.13,-10.27 2.8,-2.87 7.4,-2.93 10.27,-0.13 2.87,2.8 2.93,7.4 0.13,10.27z"/>
    <g>
     <path class="fil4 str0 " id="" d="M376.91 145.43c-0.56,-0.55 -1.12,-1.09 -1.68,-1.64 -0.02,-0.02 -0.04,-0.02 -0.06,-0.01 -0.33,0.17 -0.65,0.33 -0.98,0.5 -0.15,0.07 -0.38,0.26 -0.55,0.28 -0.21,0.02 -0.51,-0.25 -0.72,-0.37 -0.21,-0.12 -0.6,-0.23 -0.68,-0.42 -0.07,-0.15 -0.04,-0.45 -0.05,-0.61 -0.03,-0.37 -0.06,-0.73 -0.09,-1.1 -0,-0.02 -0.01,-0.04 -0.04,-0.05 -0.76,-0.19 -1.51,-0.38 -2.27,-0.58 -0.02,-0.01 -0.04,0 -0.05,0.02 -0.33,0.51 -0.66,1.01 -0.99,1.52 -0.01,0.02 -0,0.06 0.02,0.07 -0.41,-0.22 -1.14,-0.15 -1.55,0.02 0.03,-0.01 0.05,-0.04 0.03,-0.07 -0.34,-0.5 -0.69,-1 -1.03,-1.5 -0.01,-0.02 -0.03,-0.03 -0.06,-0.02 -0.75,0.21 -1.5,0.42 -2.26,0.63 -0.02,0.01 -0.03,0.03 -0.04,0.05 -0.02,0.37 -0.04,0.74 -0.06,1.1 -0.01,0.16 0.03,0.47 -0.03,0.62 -0.08,0.19 -0.47,0.31 -0.67,0.43 -0.2,0.12 -0.5,0.41 -0.71,0.39 -0.16,-0.01 -0.41,-0.19 -0.56,-0.26 -0.33,-0.16 -0.66,-0.32 -1,-0.47 -0.02,-0.01 -0.04,-0.01 -0.06,0.01 -0.55,0.56 -1.09,1.12 -1.64,1.68 -0.02,0.02 -0.02,0.04 -0.01,0.06 0.17,0.33 0.33,0.65 0.5,0.98 0.07,0.15 0.26,0.38 0.28,0.55 0.02,0.21 -0.25,0.51 -0.37,0.72 -0.12,0.21 -0.23,0.6 -0.42,0.69 -0.15,0.07 -0.45,0.03 -0.61,0.05 -0.37,0.03 -0.73,0.06 -1.1,0.09 -0.02,0 -0.04,0.01 -0.05,0.04 -0.19,0.76 -0.39,1.52 -0.58,2.27 -0.01,0.02 0,0.04 0.02,0.06 0.38,0.25 0.77,0.5 1.15,0.75 0.27,0.18 0.29,0.16 0.34,0.46 0.07,0.41 -0.15,0.93 0.12,1.3 -0.01,-0.02 -0.04,-0.03 -0.07,-0.02 -0.5,0.34 -1,0.69 -1.5,1.03 -0.02,0.01 -0.03,0.03 -0.02,0.06 0.21,0.75 0.42,1.5 0.63,2.26 0.01,0.02 0.03,0.03 0.05,0.03 0.37,0.02 0.73,0.04 1.1,0.06 0.16,0.01 0.46,-0.03 0.61,0.03 0.19,0.08 0.31,0.47 0.44,0.67 0.12,0.2 0.41,0.5 0.39,0.71 -0.01,0.16 -0.19,0.41 -0.26,0.56 -0.16,0.33 -0.32,0.66 -0.47,0.99 -0.01,0.02 -0.01,0.04 0.01,0.06 0.56,0.55 1.12,1.09 1.68,1.64 0.02,0.02 0.04,0.02 0.06,0.01 0.33,-0.17 0.66,-0.33 0.98,-0.5 0.15,-0.07 0.38,-0.26 0.55,-0.28 0.21,-0.02 0.51,0.25 0.72,0.37 0.21,0.12 0.59,0.23 0.68,0.42 0.07,0.15 0.04,0.45 0.05,0.61 0.03,0.37 0.06,0.73 0.09,1.1 0,0.02 0.01,0.04 0.04,0.05 0.76,0.19 1.52,0.39 2.27,0.58 0.02,0.01 0.04,-0 0.06,-0.02 0.2,-0.31 0.4,-0.62 0.6,-0.92 0.09,-0.13 0.21,-0.42 0.34,-0.51 0.17,-0.12 0.57,-0.04 0.81,-0.04 0.23,-0 0.64,-0.09 0.81,0.02 0.13,0.09 0.26,0.38 0.35,0.51 0.21,0.3 0.41,0.61 0.62,0.91 0.01,0.02 0.03,0.03 0.06,0.02 0.75,-0.21 1.51,-0.42 2.26,-0.63 0.02,-0.01 0.03,-0.03 0.04,-0.05 0.02,-0.37 0.04,-0.73 0.06,-1.1 0.01,-0.16 -0.03,-0.46 0.03,-0.61 0.08,-0.19 0.47,-0.32 0.67,-0.44 0.2,-0.12 0.5,-0.41 0.71,-0.39 0.16,0.01 0.41,0.19 0.56,0.26 0.33,0.16 0.66,0.32 0.99,0.47 0.02,0.01 0.04,0.01 0.06,-0.01 0.55,-0.56 1.09,-1.12 1.64,-1.68 0.02,-0.02 0.02,-0.04 0.01,-0.06 -0.17,-0.33 -0.33,-0.66 -0.5,-0.98 -0.07,-0.15 -0.26,-0.39 -0.28,-0.55 -0.02,-0.21 0.25,-0.51 0.37,-0.72 0.12,-0.21 0.23,-0.6 0.42,-0.68 0.15,-0.07 0.45,-0.04 0.61,-0.05 0.37,-0.03 0.73,-0.06 1.1,-0.09 0.02,-0 0.04,-0.01 0.05,-0.04 0.19,-0.76 0.39,-1.52 0.58,-2.27 0.01,-0.02 -0,-0.04 -0.02,-0.06 -0.51,-0.33 -1.01,-0.66 -1.52,-0.99 -0.02,-0.01 -0.06,-0 -0.07,0.02 0.17,-0.37 0.1,-0.77 0.1,-1.17 -0,-0.42 -0.02,-0.38 0.32,-0.6 0.38,-0.26 0.75,-0.52 1.13,-0.78 0.02,-0.01 0.03,-0.03 0.02,-0.06 -0.21,-0.75 -0.42,-1.51 -0.63,-2.26 -0.01,-0.02 -0.03,-0.03 -0.05,-0.03 -0.37,-0.02 -0.74,-0.04 -1.1,-0.06 -0.16,-0.01 -0.47,0.03 -0.62,-0.03 -0.19,-0.08 -0.31,-0.47 -0.43,-0.67 -0.12,-0.2 -0.41,-0.5 -0.39,-0.71 0.01,-0.16 0.2,-0.41 0.27,-0.56 0.16,-0.33 0.32,-0.66 0.47,-1 0.03,-0.06 -0.06,-0.11 -0.09,-0.05 -0.21,0.44 -0.64,1.02 -0.72,1.5 -0.08,0.52 0.49,1.06 0.74,1.55 0.01,0.02 0.03,0.02 0.04,0.02 0.38,0.02 1.56,-0.1 1.78,0.09 0.12,0.11 0.16,0.58 0.21,0.74 0.11,0.38 0.3,0.82 0.34,1.21 0.04,0.34 0.12,0.15 -0.13,0.39 -0.27,0.26 -0.66,0.44 -0.96,0.66 -0.59,0.43 -0.27,1.13 -0.3,1.84 -0,0.05 0.07,0.07 0.09,0.02 -0.07,0.15 1.37,0.84 1.41,1.07 0.05,0.33 -0.22,0.88 -0.31,1.2 -0.04,0.15 -0.15,0.86 -0.22,0.91 -0.4,0.32 -1.36,-0.11 -1.81,0.15 -0.11,0.06 -0.8,1.28 -0.79,1.4 0.01,0.15 0.14,0.31 0.2,0.44 0.14,0.27 0.58,0.83 0.58,1.14 0,0.15 -0.32,0.41 -0.5,0.59 -0.26,0.27 -0.59,0.77 -0.92,0.95 -0.29,0.16 -0.25,0.09 -0.67,-0.11 -0.25,-0.12 -0.77,-0.51 -1.05,-0.5 -0.26,0 -0.64,0.37 -0.88,0.5 -0.19,0.11 -0.47,0.19 -0.58,0.37 -0.15,0.25 -0.05,0.97 -0.07,1.26 -0.03,0.5 0.07,0.43 -0.35,0.58 -0.48,0.17 -0.99,0.28 -1.48,0.41 -0.47,0.13 -0.39,0.12 -0.67,-0.3 -0.24,-0.35 -0.48,-0.71 -0.72,-1.06 -0.01,-0.01 -0.03,-0.03 -0.04,-0.02 -0.37,0.03 -1.32,-0.14 -1.62,0.03 -0.18,0.1 -0.35,0.53 -0.46,0.7 -0.11,0.17 -0.43,0.78 -0.54,0.81 -0.31,0.07 -0.97,-0.25 -1.28,-0.33 -0.16,-0.04 -0.85,-0.14 -0.91,-0.22 -0.16,-0.2 -0.08,-1 -0.1,-1.26 -0.01,-0.14 0.02,-0.44 -0.06,-0.56 -0.1,-0.16 -1.26,-0.78 -1.42,-0.79 -0.52,-0.01 -1.21,0.87 -1.64,0.78 -0.22,-0.05 -1.58,-1.39 -1.6,-1.55 -0.07,-0.51 0.8,-1.13 0.77,-1.66 -0.01,-0.17 -0.69,-1.29 -0.83,-1.39 -0.18,-0.12 -0.72,-0.04 -0.93,-0.05 -0.38,-0.02 -0.75,0.05 -0.91,-0.18 -0.25,-0.36 -0.3,-1.09 -0.42,-1.5 -0.15,-0.52 -0.25,-0.49 0.18,-0.78 0.14,-0.1 1.12,-0.72 1.07,-0.79 0.03,0.04 0.1,0.03 0.09,-0.03 -0.03,-0.39 0.13,-1.3 -0.03,-1.62 -0.06,-0.11 -0.37,-0.25 -0.46,-0.31 -0.2,-0.13 -0.97,-0.46 -1.06,-0.69 -0.03,-0.07 0.16,-0.6 0.2,-0.72 0.09,-0.37 0.13,-1.02 0.34,-1.34 0.14,-0.2 0.17,-0.15 0.52,-0.17 0.31,-0.02 0.95,0.05 1.22,-0.09 0.21,-0.12 0.26,-0.36 0.39,-0.59 0.11,-0.2 0.5,-0.65 0.49,-0.87 -0.01,-0.28 -0.37,-0.74 -0.5,-0.98 -0.1,-0.2 -0.3,-0.52 -0.27,-0.64 0.06,-0.26 0.71,-0.73 0.9,-0.92 0.13,-0.13 0.49,-0.64 0.67,-0.69 0.11,-0.03 0.78,0.39 0.95,0.47 0.17,0.08 0.48,0.31 0.66,0.31 0.31,0.01 1.09,-0.65 1.4,-0.81 0.02,-0.01 0.02,-0.03 0.02,-0.04 0.03,-0.46 -0.08,-1.18 0.09,-1.6 0.13,-0.33 0.65,-0.36 1.11,-0.48 0.44,-0.12 0.92,-0.39 1.2,-0.16 0.2,0.16 0.76,1.33 0.93,1.25 -0.05,0.02 -0.05,0.1 0.01,0.1 0.54,-0.04 1.06,-0.05 1.6,-0.02 0.05,0 0.06,-0.07 0.02,-0.09 0.13,0.07 0.71,-1.13 0.89,-1.28 0.27,-0.24 0.76,0.02 1.2,0.13 0.45,0.11 0.99,0.12 1.12,0.46 0.17,0.46 -0.1,1.17 0.13,1.61 0.07,0.13 1.28,0.82 1.43,0.81 0.36,-0.02 0.92,-0.46 1.24,-0.63 0.51,-0.26 0.48,-0.07 0.92,0.36 0.37,0.36 0.73,0.72 1.1,1.07 0.05,0.04 0.11,-0.03 0.07,-0.07z"/>
     <path class="fil5" d="M373.28 157.8c-2.15,2.12 -5.38,2.8 -8.16,1.53 -2.69,-1.23 -4.38,-4.06 -4.2,-7 0.18,-3.04 2.35,-5.7 5.28,-6.51 2.93,-0.81 6.11,0.36 7.85,2.85 1.98,2.83 1.56,6.66 -0.77,9.14 -0.04,0.05 0.03,0.11 0.07,0.07 2.07,-2.2 2.68,-5.43 1.39,-8.19 -1.32,-2.84 -4.4,-4.54 -7.51,-4.17 -2.97,0.36 -5.49,2.58 -6.21,5.49 -0.74,2.99 0.52,6.2 3.09,7.89 2.93,1.92 6.78,1.41 9.23,-1.01 0.04,-0.04 -0.03,-0.11 -0.07,-0.07z"/>
    </g>
   </g>
   <g>
    <path class="fil6" d="M437.24 139.33l-1.08 -1.05 -1.04 0.53c-0.29,-0.19 -0.58,-0.35 -0.89,-0.49l-0.09 -1.16 -1.46 -0.37 -0.64 0.98 0.01 0c-0.17,-0.01 -0.34,-0.02 -0.51,-0.02 -0.17,0 -0.34,0.01 -0.51,0.03l0.01 -0 -0.66 -0.96 -1.45 0.41 -0.06 1.17c-0.3,0.15 -0.59,0.32 -0.87,0.52l-1.05 -0.5 -1.05 1.08 0.53 1.04c-0.19,0.29 -0.36,0.58 -0.5,0.89l-1.16 0.09 -0.37 1.46 0.98 0.64c-0.01,0.17 -0.02,0.34 -0.01,0.51 0,0.17 0.01,0.34 0.03,0.51l-0 -0.01 -0.96 0.66 0.41 1.45 1.17 0.06c0.15,0.3 0.32,0.59 0.52,0.87l-0.5 1.05 1.08 1.05 1.04 -0.53c0.29,0.19 0.58,0.35 0.89,0.5l0.09 1.16 1.46 0.37 0.64 -0.98c0.17,0.01 0.34,0.01 0.51,0.01 0.17,-0 0.34,-0.01 0.51,-0.03l0.66 0.96 1.45 -0.41 0.06 -1.16c0.3,-0.15 0.59,-0.32 0.87,-0.52l1.05 0.5 1.05 -1.08 -0.53 -1.04c0.19,-0.28 0.36,-0.58 0.5,-0.89l1.17 -0.09 0.37 -1.46 -0.98 -0.64 -0 0c0.01,-0.17 0.02,-0.34 0.01,-0.51 0,-0.17 -0.01,-0.34 -0.02,-0.51l0.96 -0.66 -0.41 -1.45 -1.17 -0.06c-0.15,-0.3 -0.32,-0.59 -0.52,-0.87l0.5 -1.05zm-2.29 7.94l0 0c-1.8,1.84 -4.75,1.88 -6.59,0.08 -1.84,-1.8 -1.88,-4.75 -0.08,-6.59 1.8,-1.84 4.75,-1.88 6.59,-0.08 1.84,1.8 1.88,4.75 0.08,6.59z"/>
    <g>
     <path class="fil6" d="M437.26 139.3c-0.36,-0.35 -0.72,-0.7 -1.08,-1.05 -0.01,-0.01 -0.03,-0.01 -0.04,-0 -0.21,0.11 -0.42,0.21 -0.63,0.32 -0.09,0.05 -0.25,0.17 -0.35,0.18 -0.13,0.01 -0.33,-0.16 -0.46,-0.24 -0.13,-0.07 -0.38,-0.15 -0.44,-0.27 -0.04,-0.09 -0.02,-0.29 -0.03,-0.39 -0.02,-0.24 -0.04,-0.47 -0.06,-0.71 -0,-0.01 -0.01,-0.03 -0.02,-0.03 -0.49,-0.12 -0.97,-0.25 -1.46,-0.37 -0.01,-0 -0.03,0 -0.03,0.01 -0.21,0.33 -0.43,0.65 -0.64,0.98 -0.01,0.01 -0,0.03 0.01,0.04 -0.27,-0.14 -0.73,-0.1 -0.99,0.02 0.02,-0.01 0.03,-0.03 0.02,-0.05 -0.22,-0.32 -0.44,-0.64 -0.66,-0.96 -0.01,-0.01 -0.02,-0.02 -0.04,-0.01 -0.48,0.14 -0.97,0.27 -1.45,0.41 -0.01,0 -0.02,0.02 -0.02,0.03 -0.01,0.24 -0.03,0.47 -0.04,0.71 -0.01,0.1 0.02,0.3 -0.02,0.39 -0.05,0.12 -0.3,0.2 -0.43,0.28 -0.13,0.08 -0.32,0.26 -0.46,0.25 -0.11,-0.01 -0.26,-0.12 -0.36,-0.17 -0.21,-0.1 -0.43,-0.2 -0.64,-0.3 -0.01,-0.01 -0.03,-0 -0.04,0.01 -0.35,0.36 -0.7,0.72 -1.05,1.08 -0.01,0.01 -0.01,0.03 -0,0.04 0.11,0.21 0.21,0.42 0.32,0.63 0.05,0.09 0.17,0.25 0.18,0.35 0.01,0.13 -0.16,0.33 -0.24,0.46 -0.07,0.13 -0.15,0.38 -0.27,0.44 -0.1,0.04 -0.29,0.02 -0.39,0.03 -0.24,0.02 -0.47,0.04 -0.71,0.06 -0.01,0 -0.03,0.01 -0.03,0.02 -0.12,0.49 -0.25,0.97 -0.37,1.46 -0,0.01 0,0.03 0.01,0.04 0.25,0.16 0.49,0.32 0.74,0.48 0.17,0.11 0.18,0.11 0.22,0.3 0.04,0.26 -0.09,0.6 0.08,0.83 -0.01,-0.01 -0.03,-0.02 -0.04,-0.01 -0.32,0.22 -0.64,0.44 -0.96,0.66 -0.01,0.01 -0.02,0.02 -0.01,0.04 0.14,0.48 0.27,0.97 0.41,1.45 0,0.01 0.02,0.02 0.03,0.02 0.24,0.01 0.47,0.03 0.71,0.04 0.1,0.01 0.3,-0.02 0.39,0.02 0.12,0.05 0.2,0.3 0.28,0.43 0.08,0.13 0.26,0.32 0.25,0.46 -0.01,0.11 -0.12,0.26 -0.17,0.36 -0.1,0.21 -0.2,0.43 -0.3,0.64 -0.01,0.01 -0,0.03 0.01,0.04 0.36,0.35 0.72,0.7 1.08,1.05 0.01,0.01 0.03,0.01 0.04,0 0.21,-0.11 0.42,-0.21 0.63,-0.32 0.09,-0.05 0.25,-0.17 0.35,-0.18 0.13,-0.01 0.33,0.16 0.46,0.24 0.13,0.07 0.38,0.15 0.44,0.27 0.04,0.09 0.02,0.29 0.03,0.39 0.02,0.24 0.04,0.47 0.06,0.71 0,0.01 0.01,0.03 0.02,0.03 0.49,0.12 0.97,0.25 1.46,0.37 0.01,0 0.03,-0 0.03,-0.01 0.13,-0.2 0.26,-0.4 0.39,-0.59 0.06,-0.08 0.13,-0.27 0.22,-0.33 0.11,-0.08 0.37,-0.03 0.52,-0.03 0.15,-0 0.41,-0.06 0.52,0.01 0.09,0.06 0.16,0.24 0.22,0.33 0.13,0.19 0.27,0.39 0.4,0.58 0.01,0.01 0.02,0.02 0.04,0.01 0.48,-0.14 0.97,-0.27 1.45,-0.41 0.01,-0 0.02,-0.02 0.02,-0.03 0.01,-0.24 0.03,-0.47 0.04,-0.71 0.01,-0.1 -0.02,-0.3 0.02,-0.39 0.05,-0.12 0.3,-0.2 0.43,-0.28 0.13,-0.08 0.32,-0.26 0.45,-0.25 0.11,0.01 0.26,0.12 0.36,0.17 0.21,0.1 0.43,0.2 0.64,0.3 0.01,0.01 0.03,0 0.04,-0 0.35,-0.36 0.7,-0.72 1.05,-1.08 0.01,-0.01 0.01,-0.03 0,-0.04 -0.11,-0.21 -0.21,-0.42 -0.32,-0.63 -0.05,-0.09 -0.17,-0.25 -0.18,-0.35 -0.02,-0.13 0.16,-0.33 0.24,-0.46 0.07,-0.13 0.15,-0.38 0.27,-0.44 0.09,-0.04 0.29,-0.02 0.39,-0.03 0.24,-0.02 0.47,-0.04 0.71,-0.06 0.01,-0 0.03,-0.01 0.03,-0.02 0.12,-0.49 0.25,-0.97 0.37,-1.46 0,-0.01 -0,-0.03 -0.01,-0.03 -0.33,-0.21 -0.65,-0.42 -0.98,-0.64 -0.01,-0.01 -0.04,-0 -0.04,0.01 0.11,-0.24 0.07,-0.49 0.06,-0.75 -0,-0.27 -0.01,-0.24 0.2,-0.39 0.24,-0.17 0.48,-0.33 0.73,-0.5 0.01,-0.01 0.02,-0.02 0.01,-0.04 -0.14,-0.48 -0.27,-0.97 -0.41,-1.45 -0,-0.01 -0.02,-0.02 -0.03,-0.02 -0.24,-0.01 -0.47,-0.03 -0.71,-0.04 -0.1,-0.01 -0.3,0.02 -0.39,-0.02 -0.12,-0.05 -0.2,-0.3 -0.28,-0.43 -0.08,-0.13 -0.26,-0.32 -0.25,-0.46 0.01,-0.11 0.13,-0.26 0.17,-0.36 0.1,-0.21 0.2,-0.43 0.31,-0.64 0.02,-0.04 -0.04,-0.07 -0.06,-0.03 -0.14,0.28 -0.41,0.66 -0.46,0.96 -0.05,0.33 0.31,0.68 0.47,1 0.01,0.01 0.02,0.01 0.03,0.02 0.24,0.01 1,-0.06 1.14,0.05 0.08,0.07 0.1,0.37 0.13,0.47 0.07,0.25 0.19,0.52 0.22,0.78 0.02,0.22 0.07,0.09 -0.09,0.25 -0.17,0.17 -0.42,0.28 -0.62,0.43 -0.38,0.27 -0.17,0.72 -0.2,1.18 -0,0.03 0.05,0.04 0.06,0.02 -0.04,0.09 0.88,0.54 0.9,0.69 0.03,0.21 -0.14,0.57 -0.2,0.77 -0.03,0.1 -0.09,0.55 -0.14,0.59 -0.26,0.2 -0.87,-0.07 -1.16,0.09 -0.07,0.04 -0.51,0.82 -0.51,0.9 0,0.09 0.09,0.2 0.13,0.28 0.09,0.18 0.37,0.54 0.37,0.73 0,0.1 -0.21,0.27 -0.32,0.38 -0.17,0.17 -0.38,0.49 -0.59,0.61 -0.18,0.1 -0.16,0.06 -0.43,-0.07 -0.16,-0.08 -0.5,-0.32 -0.68,-0.32 -0.17,0 -0.41,0.23 -0.56,0.32 -0.12,0.07 -0.3,0.12 -0.37,0.24 -0.1,0.16 -0.03,0.62 -0.04,0.81 -0.02,0.32 0.04,0.28 -0.22,0.37 -0.31,0.11 -0.64,0.18 -0.95,0.27 -0.31,0.09 -0.25,0.08 -0.43,-0.19 -0.15,-0.23 -0.31,-0.45 -0.46,-0.68 -0.01,-0.01 -0.02,-0.02 -0.03,-0.02 -0.24,0.02 -0.85,-0.09 -1.04,0.02 -0.12,0.07 -0.23,0.34 -0.3,0.45 -0.07,0.11 -0.28,0.5 -0.35,0.52 -0.2,0.04 -0.62,-0.16 -0.82,-0.21 -0.11,-0.03 -0.55,-0.09 -0.59,-0.14 -0.1,-0.13 -0.05,-0.64 -0.06,-0.81 -0.01,-0.09 0.01,-0.28 -0.04,-0.36 -0.06,-0.1 -0.81,-0.5 -0.91,-0.5 -0.33,-0 -0.78,0.56 -1.05,0.5 -0.14,-0.03 -1.01,-0.89 -1.03,-0.99 -0.05,-0.33 0.51,-0.73 0.5,-1.07 -0.01,-0.11 -0.44,-0.83 -0.54,-0.89 -0.12,-0.08 -0.46,-0.03 -0.59,-0.03 -0.25,-0.01 -0.48,0.03 -0.58,-0.12 -0.16,-0.23 -0.2,-0.7 -0.27,-0.97 -0.09,-0.33 -0.16,-0.31 0.12,-0.5 0.09,-0.06 0.72,-0.46 0.69,-0.5 0.02,0.02 0.06,0.02 0.06,-0.02 -0.02,-0.25 0.09,-0.83 -0.02,-1.04 -0.04,-0.07 -0.24,-0.16 -0.3,-0.2 -0.13,-0.08 -0.62,-0.3 -0.68,-0.44 -0.02,-0.04 0.11,-0.38 0.13,-0.46 0.06,-0.24 0.08,-0.65 0.22,-0.86 0.09,-0.13 0.11,-0.09 0.34,-0.11 0.2,-0.02 0.61,0.03 0.78,-0.06 0.14,-0.07 0.17,-0.23 0.25,-0.38 0.07,-0.13 0.32,-0.41 0.32,-0.56 -0.01,-0.18 -0.24,-0.47 -0.32,-0.63 -0.06,-0.13 -0.19,-0.33 -0.18,-0.41 0.04,-0.17 0.46,-0.47 0.58,-0.59 0.08,-0.09 0.31,-0.41 0.43,-0.44 0.07,-0.02 0.5,0.25 0.61,0.3 0.11,0.05 0.3,0.2 0.42,0.2 0.2,0.01 0.7,-0.42 0.9,-0.52 0.01,-0 0.02,-0.02 0.02,-0.03 0.02,-0.3 -0.05,-0.76 0.06,-1.03 0.08,-0.21 0.42,-0.23 0.71,-0.31 0.28,-0.08 0.59,-0.25 0.77,-0.1 0.13,0.11 0.49,0.85 0.6,0.8 -0.03,0.01 -0.03,0.07 0.01,0.06 0.34,-0.03 0.68,-0.03 1.03,-0.01 0.03,0 0.04,-0.04 0.02,-0.06 0.08,0.04 0.46,-0.72 0.57,-0.82 0.17,-0.15 0.49,0.01 0.77,0.08 0.29,0.07 0.64,0.08 0.72,0.29 0.11,0.3 -0.07,0.75 0.08,1.03 0.04,0.08 0.83,0.53 0.92,0.52 0.23,-0.01 0.59,-0.3 0.8,-0.4 0.33,-0.17 0.31,-0.04 0.59,0.23 0.24,0.23 0.47,0.46 0.71,0.69 0.03,0.03 0.07,-0.02 0.04,-0.04z"/>
     <path class="fil6" d="M434.93 147.25c-1.38,1.36 -3.46,1.8 -5.24,0.98 -1.73,-0.79 -2.81,-2.6 -2.7,-4.5 0.12,-1.95 1.51,-3.66 3.39,-4.18 1.88,-0.52 3.92,0.23 5.04,1.83 1.27,1.82 1,4.28 -0.49,5.87 -0.03,0.03 0.02,0.07 0.04,0.04 1.33,-1.41 1.72,-3.48 0.89,-5.26 -0.85,-1.83 -2.83,-2.91 -4.82,-2.68 -1.91,0.23 -3.52,1.66 -3.99,3.52 -0.48,1.92 0.33,3.98 1.98,5.06 1.88,1.23 4.35,0.91 5.93,-0.65 0.03,-0.03 -0.02,-0.07 -0.04,-0.04z"/>
    </g>
   </g>
   <g>
    <path class="fil7" d="M472.4 197.45l-1.19 -1.16 -1.15 0.58c-0.32,-0.21 -0.64,-0.39 -0.98,-0.55l-0.1 -1.29 -1.61 -0.41 -0.71 1.08 0.01 0c-0.19,-0.01 -0.38,-0.02 -0.57,-0.02 -0.19,0 -0.38,0.01 -0.57,0.03l0.01 -0 -0.73 -1.06 -1.6 0.45 -0.07 1.29c-0.33,0.16 -0.65,0.35 -0.97,0.57l-1.17 -0.55 -1.16 1.19 0.58 1.15c-0.21,0.32 -0.39,0.64 -0.55,0.98l-1.29 0.1 -0.41 1.61 1.08 0.71c-0.01,0.19 -0.02,0.38 -0.01,0.56 0,0.19 0.01,0.38 0.03,0.57l-0 -0.01 -1.06 0.73 0.45 1.6 1.29 0.07c0.17,0.33 0.35,0.66 0.57,0.97l-0.55 1.17 1.19 1.16 1.15 -0.58c0.32,0.21 0.64,0.39 0.98,0.55l0.1 1.29 1.62 0.41 0.7 -1.08c0.19,0.01 0.38,0.02 0.56,0.01 0.19,-0 0.38,-0.01 0.57,-0.03l0.73 1.07 1.61 -0.45 0.07 -1.29c0.33,-0.17 0.65,-0.36 0.97,-0.58l1.17 0.56 1.17 -1.19 -0.59 -1.15c0.21,-0.31 0.39,-0.64 0.55,-0.98l1.29 -0.1 0.41 -1.62 -1.08 -0.7 -0 0.01c0.01,-0.19 0.02,-0.38 0.02,-0.57 0,-0.18 -0.01,-0.38 -0.03,-0.56l1.06 -0.73 -0.45 -1.6 -1.29 -0.07c-0.16,-0.33 -0.35,-0.65 -0.57,-0.97l0.56 -1.17zm-2.53 8.79l0 0c-1.99,2.04 -5.25,2.08 -7.29,0.09 -2.04,-1.99 -2.08,-5.25 -0.09,-7.29 1.99,-2.04 5.25,-2.08 7.29,-0.09 2.04,1.99 2.08,5.26 0.09,7.29z"/>
    <g>
     <path class="fil7" d="M472.42 197.42c-0.4,-0.39 -0.8,-0.78 -1.19,-1.16 -0.01,-0.01 -0.03,-0.01 -0.04,-0 -0.23,0.12 -0.47,0.24 -0.7,0.35 -0.1,0.05 -0.27,0.18 -0.39,0.2 -0.15,0.02 -0.36,-0.18 -0.51,-0.26 -0.15,-0.08 -0.42,-0.16 -0.49,-0.3 -0.05,-0.11 -0.03,-0.32 -0.03,-0.44 -0.02,-0.26 -0.04,-0.52 -0.06,-0.78 -0,-0.02 -0.01,-0.03 -0.03,-0.03 -0.54,-0.14 -1.08,-0.27 -1.61,-0.41 -0.02,-0 -0.03,0 -0.04,0.02 -0.24,0.36 -0.47,0.72 -0.71,1.08 -0.01,0.02 -0,0.04 0.01,0.05 -0.29,-0.16 -0.81,-0.11 -1.1,0.02 0.02,-0.01 0.03,-0.03 0.02,-0.05 -0.24,-0.35 -0.49,-0.71 -0.73,-1.06 -0.01,-0.01 -0.02,-0.02 -0.04,-0.02 -0.53,0.15 -1.07,0.3 -1.6,0.45 -0.02,0 -0.02,0.02 -0.03,0.03 -0.01,0.26 -0.03,0.52 -0.04,0.78 -0.01,0.12 0.02,0.33 -0.02,0.44 -0.06,0.14 -0.33,0.22 -0.48,0.31 -0.15,0.09 -0.36,0.29 -0.5,0.28 -0.12,-0.01 -0.29,-0.14 -0.39,-0.19 -0.24,-0.11 -0.47,-0.22 -0.71,-0.34 -0.01,-0.01 -0.03,-0.01 -0.04,0.01 -0.39,0.4 -0.78,0.8 -1.16,1.19 -0.01,0.01 -0.01,0.03 -0.01,0.04 0.12,0.23 0.24,0.47 0.35,0.7 0.05,0.1 0.18,0.27 0.2,0.39 0.02,0.15 -0.18,0.36 -0.26,0.51 -0.08,0.15 -0.16,0.42 -0.3,0.49 -0.11,0.05 -0.32,0.03 -0.44,0.03 -0.26,0.02 -0.52,0.04 -0.78,0.06 -0.02,0 -0.03,0.01 -0.03,0.03 -0.14,0.54 -0.27,1.08 -0.41,1.62 -0,0.02 0,0.03 0.02,0.04 0.27,0.18 0.54,0.35 0.82,0.53 0.19,0.12 0.2,0.12 0.24,0.33 0.05,0.29 -0.11,0.66 0.09,0.92 -0.01,-0.01 -0.03,-0.02 -0.05,-0.01 -0.35,0.24 -0.71,0.49 -1.06,0.73 -0.01,0.01 -0.02,0.02 -0.02,0.04 0.15,0.53 0.3,1.07 0.45,1.6 0,0.02 0.02,0.02 0.03,0.03 0.26,0.01 0.52,0.03 0.78,0.04 0.12,0.01 0.33,-0.02 0.44,0.02 0.14,0.06 0.22,0.33 0.31,0.48 0.09,0.15 0.29,0.36 0.28,0.5 -0.01,0.12 -0.14,0.29 -0.19,0.39 -0.11,0.24 -0.22,0.47 -0.34,0.71 -0.01,0.01 -0.01,0.03 0.01,0.04 0.4,0.39 0.8,0.78 1.19,1.16 0.01,0.01 0.03,0.01 0.04,0 0.23,-0.12 0.47,-0.24 0.7,-0.35 0.1,-0.05 0.27,-0.18 0.39,-0.2 0.15,-0.02 0.36,0.18 0.51,0.26 0.15,0.08 0.42,0.16 0.48,0.3 0.05,0.11 0.03,0.32 0.03,0.44 0.02,0.26 0.04,0.52 0.06,0.78 0,0.02 0.01,0.03 0.03,0.03 0.54,0.14 1.08,0.27 1.62,0.41 0.02,0 0.03,-0 0.04,-0.02 0.14,-0.22 0.29,-0.44 0.43,-0.66 0.06,-0.09 0.15,-0.3 0.24,-0.37 0.12,-0.09 0.41,-0.03 0.57,-0.03 0.17,-0 0.45,-0.07 0.58,0.01 0.09,0.06 0.18,0.27 0.25,0.36 0.15,0.22 0.29,0.43 0.44,0.65 0.01,0.01 0.02,0.02 0.04,0.02 0.53,-0.15 1.07,-0.3 1.61,-0.45 0.02,-0 0.02,-0.02 0.03,-0.03 0.01,-0.26 0.03,-0.52 0.04,-0.78 0.01,-0.12 -0.02,-0.33 0.02,-0.44 0.06,-0.14 0.33,-0.22 0.48,-0.31 0.15,-0.09 0.36,-0.29 0.5,-0.28 0.12,0.01 0.29,0.14 0.39,0.19 0.24,0.11 0.47,0.22 0.71,0.34 0.01,0.01 0.03,0.01 0.04,-0.01 0.39,-0.4 0.78,-0.8 1.17,-1.19 0.01,-0.01 0.01,-0.03 0,-0.04 -0.12,-0.23 -0.24,-0.47 -0.35,-0.7 -0.05,-0.1 -0.19,-0.27 -0.2,-0.39 -0.02,-0.15 0.18,-0.36 0.26,-0.51 0.08,-0.15 0.16,-0.42 0.3,-0.49 0.11,-0.05 0.32,-0.03 0.44,-0.03 0.26,-0.02 0.52,-0.04 0.78,-0.06 0.02,-0 0.03,-0.01 0.03,-0.03 0.14,-0.54 0.27,-1.08 0.41,-1.61 0,-0.02 -0,-0.03 -0.02,-0.04 -0.36,-0.24 -0.72,-0.47 -1.08,-0.71 -0.01,-0.01 -0.04,-0 -0.05,0.01 0.12,-0.26 0.07,-0.55 0.07,-0.83 -0,-0.3 -0.01,-0.27 0.23,-0.43 0.27,-0.18 0.53,-0.37 0.8,-0.55 0.01,-0.01 0.02,-0.02 0.02,-0.04 -0.15,-0.53 -0.3,-1.07 -0.45,-1.6 -0,-0.02 -0.02,-0.02 -0.03,-0.02 -0.26,-0.01 -0.52,-0.03 -0.78,-0.04 -0.12,-0.01 -0.33,0.02 -0.44,-0.02 -0.14,-0.06 -0.22,-0.33 -0.31,-0.48 -0.09,-0.15 -0.29,-0.36 -0.28,-0.5 0.01,-0.12 0.14,-0.29 0.19,-0.39 0.11,-0.24 0.23,-0.47 0.34,-0.71 0.02,-0.04 -0.04,-0.07 -0.06,-0.03 -0.15,0.31 -0.45,0.73 -0.51,1.06 -0.06,0.37 0.35,0.75 0.52,1.1 0.01,0.01 0.02,0.02 0.03,0.02 0.27,0.01 1.11,-0.07 1.26,0.06 0.09,0.08 0.12,0.41 0.15,0.53 0.08,0.27 0.21,0.58 0.24,0.86 0.03,0.24 0.08,0.1 -0.1,0.28 -0.19,0.19 -0.47,0.32 -0.68,0.47 -0.42,0.3 -0.19,0.8 -0.22,1.31 -0,0.03 0.05,0.05 0.07,0.02 -0.05,0.1 0.97,0.59 1,0.76 0.03,0.23 -0.16,0.63 -0.22,0.85 -0.03,0.11 -0.1,0.61 -0.16,0.65 -0.28,0.22 -0.97,-0.08 -1.29,0.11 -0.08,0.04 -0.57,0.91 -0.56,1 0,0.1 0.1,0.22 0.15,0.31 0.1,0.19 0.41,0.59 0.41,0.81 0,0.11 -0.23,0.29 -0.35,0.42 -0.19,0.19 -0.42,0.54 -0.66,0.67 -0.2,0.11 -0.18,0.06 -0.47,-0.08 -0.18,-0.09 -0.55,-0.36 -0.75,-0.36 -0.19,0 -0.45,0.26 -0.62,0.36 -0.14,0.08 -0.34,0.14 -0.41,0.26 -0.11,0.17 -0.04,0.69 -0.05,0.89 -0.02,0.35 0.05,0.31 -0.25,0.41 -0.34,0.12 -0.7,0.2 -1.05,0.29 -0.34,0.09 -0.27,0.08 -0.47,-0.21 -0.17,-0.25 -0.34,-0.5 -0.51,-0.76 -0.01,-0.01 -0.02,-0.02 -0.03,-0.02 -0.26,0.02 -0.94,-0.1 -1.15,0.02 -0.13,0.07 -0.25,0.38 -0.33,0.5 -0.08,0.12 -0.3,0.56 -0.39,0.57 -0.22,0.05 -0.69,-0.18 -0.91,-0.23 -0.12,-0.03 -0.6,-0.1 -0.65,-0.16 -0.11,-0.14 -0.06,-0.71 -0.07,-0.89 -0.01,-0.1 0.02,-0.31 -0.04,-0.4 -0.07,-0.11 -0.89,-0.56 -1.01,-0.56 -0.37,-0 -0.86,0.62 -1.16,0.55 -0.16,-0.03 -1.12,-0.99 -1.14,-1.1 -0.05,-0.36 0.57,-0.8 0.55,-1.18 -0.01,-0.12 -0.49,-0.92 -0.59,-0.98 -0.13,-0.08 -0.51,-0.03 -0.66,-0.04 -0.27,-0.02 -0.53,0.03 -0.64,-0.13 -0.18,-0.25 -0.22,-0.77 -0.3,-1.07 -0.1,-0.37 -0.17,-0.35 0.13,-0.56 0.1,-0.07 0.79,-0.51 0.76,-0.56 0.02,0.03 0.07,0.02 0.06,-0.02 -0.02,-0.27 0.09,-0.92 -0.02,-1.15 -0.04,-0.08 -0.26,-0.18 -0.33,-0.22 -0.14,-0.09 -0.69,-0.33 -0.75,-0.49 -0.02,-0.05 0.12,-0.43 0.14,-0.51 0.07,-0.27 0.09,-0.73 0.24,-0.95 0.1,-0.14 0.12,-0.1 0.37,-0.12 0.22,-0.02 0.67,0.04 0.87,-0.07 0.15,-0.08 0.18,-0.25 0.28,-0.42 0.08,-0.15 0.36,-0.46 0.35,-0.62 -0.01,-0.2 -0.27,-0.52 -0.35,-0.7 -0.07,-0.14 -0.21,-0.37 -0.19,-0.45 0.04,-0.19 0.5,-0.52 0.64,-0.65 0.09,-0.09 0.35,-0.45 0.47,-0.49 0.08,-0.02 0.56,0.27 0.68,0.33 0.12,0.06 0.34,0.22 0.47,0.22 0.22,0.01 0.77,-0.47 0.99,-0.58 0.01,-0.01 0.02,-0.02 0.02,-0.03 0.02,-0.33 -0.06,-0.84 0.06,-1.14 0.09,-0.24 0.46,-0.25 0.79,-0.34 0.31,-0.09 0.66,-0.28 0.85,-0.12 0.14,0.12 0.54,0.94 0.66,0.89 -0.03,0.01 -0.03,0.07 0.01,0.07 0.38,-0.03 0.76,-0.04 1.14,-0.01 0.03,0 0.05,-0.05 0.02,-0.06 0.09,0.05 0.5,-0.8 0.63,-0.91 0.19,-0.17 0.54,0.01 0.85,0.09 0.32,0.08 0.71,0.08 0.79,0.32 0.12,0.33 -0.07,0.83 0.09,1.14 0.05,0.09 0.91,0.58 1.02,0.58 0.26,-0.01 0.65,-0.33 0.88,-0.44 0.36,-0.18 0.34,-0.05 0.65,0.25 0.26,0.25 0.52,0.51 0.78,0.76 0.03,0.03 0.08,-0.02 0.05,-0.05z"/>
     <path class="fil7" d="M469.84 206.21c-1.53,1.51 -3.82,1.99 -5.8,1.08 -1.91,-0.87 -3.11,-2.88 -2.98,-4.98 0.13,-2.16 1.67,-4.05 3.75,-4.63 2.08,-0.57 4.34,0.26 5.57,2.03 1.41,2.01 1.11,4.73 -0.55,6.49 -0.03,0.03 0.02,0.08 0.05,0.05 1.47,-1.56 1.9,-3.85 0.99,-5.82 -0.94,-2.02 -3.13,-3.23 -5.34,-2.96 -2.11,0.25 -3.9,1.84 -4.41,3.9 -0.53,2.12 0.37,4.4 2.2,5.6 2.08,1.36 4.81,1 6.56,-0.72 0.03,-0.03 -0.02,-0.08 -0.05,-0.05z"/>
    </g>
   </g>
   <g>
    <path class="fil8" d="M406.15 224.73l-2.28 -4.7 0 -19.16c0,-0.55 -0.45,-1 -1,-1l-27.29 0c-0.55,0 -1,0.45 -1,1l0 19.32c0,0.55 0.45,1 1,1l24.97 0 5.6 3.54z"/>
    <g>
     <path class="fil9" d="M376.75 205.26c4.54,0 9.08,0 13.62,0 0.29,0 0.29,-0.46 0,-0.46 -4.54,0 -9.08,0 -13.62,0 -0.29,0 -0.29,0.46 0,0.46z"/>
    </g>
    <g>
     <path class="fil9" d="M376.75 207.79c4.54,0 9.08,0 13.62,0 0.29,0 0.29,-0.46 0,-0.46 -4.54,0 -9.08,0 -13.62,0 -0.29,0 -0.29,0.46 0,0.46z"/>
    </g>
    <g>
     <path class="fil9" d="M376.75 210.32c4.54,0 9.08,0 13.62,0 0.29,0 0.29,-0.46 0,-0.46 -4.54,0 -9.08,0 -13.62,0 -0.29,0 -0.29,0.46 0,0.46z"/>
    </g>
    <g>
     <path class="fil9" d="M387.31 214.31c4.54,0 9.08,0 13.62,0 0.29,0 0.29,-0.46 0,-0.46 -4.54,0 -9.08,0 -13.62,0 -0.29,0 -0.29,0.46 0,0.46z"/>
    </g>
    <g>
     <path class="fil9" d="M387.31 215.92c4.54,0 9.08,0 13.62,0 0.29,0 0.29,-0.46 0,-0.46 -4.54,0 -9.08,0 -13.62,0 -0.29,0 -0.29,0.46 0,0.46z"/>
    </g>
    <g>
     <path class="fil9" d="M387.31 217.53c4.54,0 9.08,0 13.62,0 0.29,0 0.29,-0.46 0,-0.46 -4.54,0 -9.08,0 -13.62,0 -0.29,0 -0.29,0.46 0,0.46z"/>
    </g>
   </g>
   <g>
    <g>
     <g>
      <path class="fil10" d="M386.63 363.15c-1.43,2.35 -0.5,5.55 1.41,7.52 1.91,1.98 4.56,3.02 7.12,4 3.67,1.41 7.34,2.81 11.01,4.22 0.65,0.25 1.44,0.87 1.07,1.46 -0.12,0.18 -0.32,0.29 -0.52,0.38 -3.02,1.31 -6.48,0.35 -9.71,-0.31 -5.92,-1.21 -12.05,-1.35 -18.01,-0.39 -1.53,0.24 -3.66,0.17 -3.94,-1.35 -0.06,-0.32 -0.01,-0.65 0.05,-0.98 0.97,-6.05 1.94,-12.09 2.91,-18.14l8.62 3.6z"/>
     </g>
     <g>
      <path class="fil11" d="M390.77 372.63c-0.53,0.19 -1.06,1.04 -1.5,1.71 -0.66,1.02 -1.35,0.77 -2.56,0.7 -1.21,-0.08 -2.35,-0.57 -3.46,-1.04 -2.01,-0.85 -4.03,-1.66 -6.06,-2.44 -0.34,-0.13 -0.71,-0.25 -1.05,-0.12 -0.42,0.17 -0.57,0.67 -0.67,1.11 -0.37,1.56 -0.74,3.12 -1.11,4.68 -0.11,0.46 -0.22,0.94 -0.07,1.39 0.11,0.34 0.36,0.62 0.63,0.86 1.95,1.72 4.89,1.42 7.48,1.19 5.26,-0.47 10.58,-0.25 15.79,0.63 3.2,0.54 6.83,1.25 9.41,-0.72 0.46,-0.35 0.9,-0.95 0.65,-1.47 -0.13,-0.26 -0.4,-0.43 -0.66,-0.56 -1.64,-0.87 -3.41,-1.45 -5.17,-2.02 -2.11,-0.68 -4.22,-1.37 -6.34,-2.05 -1.83,-0.59 -4.29,-1.71 -5.31,-1.86z"/>
     </g>
     <g>
      <path class="fil11" d="M375.67 293.39c9.66,0.63 14.4,2.95 15.93,6.2 1.53,3.25 1.25,8.71 1.27,12.3 0.09,17.61 -2.83,35.08 -5.75,52.45 -0.05,0.29 -0.1,0.59 -0.29,0.82 -0.35,0.42 -1,0.39 -1.55,0.32 -2.45,-0.31 -4.89,-0.63 -7.34,-0.94 -0.41,-0.05 -0.86,-0.12 -1.15,-0.41 -0.34,-0.34 -0.38,-0.86 -0.39,-1.34 -0.49,-13.25 -1.68,-21.01 -1.48,-36.8 0.1,-7.86 2.78,-17.3 -3.14,-17.71 -5.56,-0.38 3,-9.8 6.92,-12.77l-3.01 -2.12z"/>
     </g>
    </g>
    <g>
     <g>
      <path class="fil12" d="M341.87 310.01c-12.43,20.23 -16.82,43.74 -20.9,66.8 -0.24,1.35 1.83,1.93 2.07,0.57 4.05,-22.87 8.35,-46.21 20.68,-66.28 0.73,-1.18 -1.13,-2.26 -1.86,-1.09z"/>
     </g>
     <g>
      <path class="fil12" d="M360.82 310.01c12.43,20.23 16.82,43.74 20.9,66.8 0.24,1.35 -1.83,1.93 -2.07,0.57 -4.05,-22.87 -8.35,-46.21 -20.68,-66.28 -0.73,-1.18 1.13,-2.26 1.86,-1.09z"/>
     </g>
     <polygon class="fil2" points="373.09,310.27 327.19,310.27 327.19,304.68 373.09,304.68 "/>
    </g>
    <g>
     <path class="fil13" d="M360.58 222.31c-0.95,2.17 -1.5,4.5 -1.72,6.86 -0.19,2.05 -0.12,4.18 0.74,6.05 0.86,1.87 2.64,3.42 4.69,3.52 -0.76,1.02 -1.52,2.04 -2.43,2.92 -2.53,2.43 -6.22,3.61 -9.69,3.09 -3.47,-0.52 -6.65,-2.72 -8.36,-5.79 2.41,-0.37 4.25,-2.58 4.74,-4.97 0.49,-2.39 -0.14,-4.88 -1.15,-7.1l13.19 -4.59z"/>
    </g>
    <g>
     <g>
      <path class="fil2" d="M347.28 236.91c3.68,2.58 8.36,3.31 11.9,0.54 0.31,-0.24 0.62,-0.52 1.01,-0.6 0.35,-0.07 0.71,0.02 1.06,0.11 3.57,0.97 7.15,1.93 10.72,2.89 0.33,0.09 0.68,0.19 0.89,0.45 0.23,0.28 0.24,0.67 0.24,1.03 0.02,13.82 -2.85,27.61 -1.65,41.38 0.05,0.61 0.1,1.28 -0.26,1.77 -0.41,0.56 -1.18,0.68 -1.87,0.75 -2.45,0.26 -4.91,0.52 -7.37,0.49 -6.49,-0.07 -12.96,-2.14 -19.37,-1.14 -1.87,0.29 -3.71,0.84 -5.6,0.81 -0.35,-0.01 -0.76,-0.06 -0.97,-0.34 -0.17,-0.22 -0.17,-0.52 -0.16,-0.8 0.23,-9.17 -0.19,-18.36 -1.24,-27.48 -0.53,-4.6 -1.22,-9.24 -0.68,-13.83 0.08,-0.63 0.2,-1.31 0.65,-1.76 0.34,-0.34 0.82,-0.5 1.28,-0.64 3.81,-1.21 7.63,-2.42 11.44,-3.63z"/>
     </g>
     <g>
      <path class="fil14" d="M372.46 240.02c-2.7,6.03 -3.49,13.43 -1.78,19.82 0.73,2.71 1.84,5.31 2.95,7.89 1.05,2.43 2.1,4.87 3.14,7.3 0.08,0.18 0.15,0.37 0.12,0.56 -0.07,0.34 -0.45,0.5 -0.79,0.6 -4.45,1.35 -9.07,2.05 -13.62,3.04 -0.23,0.05 -0.48,0.11 -0.63,0.3 -0.17,0.22 -0.14,0.53 -0.09,0.81 0.22,1.42 0.53,2.99 1.68,3.85 0.55,0.42 1.24,0.62 1.91,0.78 6.58,1.63 13.54,0.89 20.15,-0.6 1.02,-0.23 2.18,-0.59 2.6,-1.54 0.28,-0.62 0.17,-1.34 0.06,-2.01 -1.22,-7.22 -2.44,-14.48 -4.69,-21.45 -2.25,-6.97 -5.6,-13.7 -10.59,-19.05 -0.12,-0.12 -0.2,-0.3 -0.41,-0.3z">
        <animate id="1187anim1" attributeName="d"
         values="M372.46 240.02c-2.7,6.03 -3.49,13.43 -1.78,19.82 0.73,2.71 1.84,5.31 2.95,7.89 1.05,2.43 2.1,4.87 3.14,7.3 0.08,0.18 0.15,0.37 0.12,0.56 -0.07,0.34 -0.45,0.5 -0.79,0.6 -4.45,1.35 -9.07,2.05 -13.62,3.04 -0.23,0.05 -0.48,0.11 -0.63,0.3 -0.17,0.22 -0.14,0.53 -0.09,0.81 0.22,1.42 0.53,2.99 1.68,3.85 0.55,0.42 1.24,0.62 1.91,0.78 6.58,1.63 13.54,0.89 20.15,-0.6 1.02,-0.23 2.18,-0.59 2.6,-1.54 0.28,-0.62 0.17,-1.34 0.06,-2.01 -1.22,-7.22 -2.44,-14.48 -4.69,-21.45 -2.25,-6.97 -5.6,-13.7 -10.59,-19.05 -0.12,-0.12 -0.2,-0.3 -0.41,-0.3z;
          m 372.46,240.02 c -2.7,6.03 -3.49,13.43 -1.78,19.82 0.73,2.71 1.84,5.31 2.95,7.89 1.05,2.43 2.1,4.87 3.14,7.3 0.08,0.18 0.15,0.37 0.12,0.56 -0.07,0.34 -0.45,0.5 -0.79,0.6 -4.45,1.35 -9.07,2.05 -13.62,3.04 -0.23,0.05 -0.48,0.11 -0.63,0.3 -0.17,0.22 -0.14,0.53 -0.09,0.81 0.22,1.42 0.53,2.99 1.68,3.85 0.55,0.42 1.24,0.62 1.91,0.78 6.58,1.63 13.54,0.89 20.15,-0.6 1.02,-0.23 2.18,-0.59 2.6,-1.54 0.28,-0.62 0.17,-1.34 0.06,-2.01 -1.22,-7.22 -0.64179,-14.83964 -2.89179,-21.80964 -2.25,-6.97 -7.39821,-13.34036 -12.38821,-18.69036 -0.12,-0.12 -0.2,-0.3 -0.41,-0.3 z;
          M372.46 240.02c-2.7,6.03 -3.49,13.43 -1.78,19.82 0.73,2.71 1.84,5.31 2.95,7.89 1.05,2.43 2.1,4.87 3.14,7.3 0.08,0.18 0.15,0.37 0.12,0.56 -0.07,0.34 -0.45,0.5 -0.79,0.6 -4.45,1.35 -9.07,2.05 -13.62,3.04 -0.23,0.05 -0.48,0.11 -0.63,0.3 -0.17,0.22 -0.14,0.53 -0.09,0.81 0.22,1.42 0.53,2.99 1.68,3.85 0.55,0.42 1.24,0.62 1.91,0.78 6.58,1.63 13.54,0.89 20.15,-0.6 1.02,-0.23 2.18,-0.59 2.6,-1.54 0.28,-0.62 0.17,-1.34 0.06,-2.01 -1.22,-7.22 -2.44,-14.48 -4.69,-21.45 -2.25,-6.97 -5.6,-13.7 -10.59,-19.05 -0.12,-0.12 -0.2,-0.3 -0.41,-0.3z"

         dur="1s" begin="generalt2.mouseover" fill="freeze" repeatCount="2" />

         <animate id="1187anim2" attributeName="d" fill="freeze"
           values="m 372.46,240.02 c -2.7,6.03 -3.49,13.43 -1.78,19.82 0.73,2.71 1.84,5.31 2.95,7.89 1.05,2.43 2.1,4.87 3.14,7.3 0.08,0.18 0.15,0.37 0.12,0.56 -0.07,0.34 -0.45,0.5 -0.79,0.6 -4.45,1.35 -9.07,2.05 -13.62,3.04 -0.23,0.05 -0.48,0.11 -0.63,0.3 -0.17,0.22 -0.14,0.53 -0.09,0.81 0.22,1.42 0.53,2.99 1.68,3.85 0.55,0.42 1.24,0.62 1.91,0.78 6.58,1.63 13.54,0.89 20.15,-0.6 1.02,-0.23 2.18,-0.59 2.6,-1.54 0.28,-0.62 0.17,-1.34 0.06,-2.01 -1.22,-7.22 -0.64179,-14.83964 -2.89179,-21.80964 -2.25,-6.97 -7.39821,-13.34036 -12.38821,-18.69036 -0.12,-0.12 -0.2,-0.3 -0.41,-0.3 z;
           M372.46 240.02c-2.7,6.03 -3.49,13.43 -1.78,19.82 0.73,2.71 1.84,5.31 2.95,7.89 1.05,2.43 2.1,4.87 3.14,7.3 0.08,0.18 0.15,0.37 0.12,0.56 -0.07,0.34 -0.45,0.5 -0.79,0.6 -4.45,1.35 -9.07,2.05 -13.62,3.04 -0.23,0.05 -0.48,0.11 -0.63,0.3 -0.17,0.22 -0.14,0.53 -0.09,0.81 0.22,1.42 0.53,2.99 1.68,3.85 0.55,0.42 1.24,0.62 1.91,0.78 6.58,1.63 13.54,0.89 20.15,-0.6 1.02,-0.23 2.18,-0.59 2.6,-1.54 0.28,-0.62 0.17,-1.34 0.06,-2.01 -1.22,-7.22 -2.44,-14.48 -4.69,-21.45 -2.25,-6.97 -5.6,-13.7 -10.59,-19.05 -0.12,-0.12 -0.2,-0.3 -0.41,-0.3z"

           dur="0.5s" begin="generalt2.mouseout" />
      </path>
     </g>
     <g>
      <path class="fil14" d="M335.06 240.9c2.7,6.03 3.49,13.43 1.78,19.82 -0.73,2.71 -1.84,5.31 -2.95,7.89 -1.05,2.43 -2.1,4.87 -3.14,7.3 -0.08,0.18 -0.15,0.37 -0.12,0.56 0.07,0.34 0.45,0.5 0.79,0.6 4.45,1.35 9.07,2.05 13.62,3.04 0.23,0.05 0.48,0.11 0.63,0.3 0.17,0.22 0.14,0.53 0.09,0.81 -0.22,1.42 -0.53,2.99 -1.68,3.85 -0.55,0.42 -1.24,0.62 -1.91,0.79 -6.58,1.63 -13.54,0.89 -20.15,-0.6 -1.02,-0.23 -2.18,-0.59 -2.6,-1.54 -0.28,-0.62 -0.17,-1.34 -0.06,-2.01 1.22,-7.22 2.44,-14.48 4.69,-21.45 2.25,-6.97 5.6,-13.7 10.59,-19.05 0.12,-0.12 0.19,-0.3 0.41,-0.3z"/>
     </g>
    </g>
    <g>
     <path class="fil11" d="M315.36 297.82c3.06,-2.24 2.54,-3.29 9.91,-4.77 10.9,-2.18 5.73,-6.8 8.89,-8.17 4.13,-1.8 8.7,0.91 13.04,-0.29 1.45,-0.4 2.97,-0.42 4.47,-0.44 3.53,-0.05 7.05,-0.09 10.58,-0.14 1.36,-0.02 2.75,-0.03 4.07,0.32 1.29,0.35 2.45,1.04 3.59,1.72 2.77,1.65 5.54,3.3 8.3,4.95 3.08,1.83 6.35,3.88 7.73,7.19 0.53,1.28 0.73,2.77 0.16,4.03 -0.86,1.88 -3.09,2.64 -5.1,3.15 -5.86,1.47 -11.98,2.42 -17.95,1.46 -4.55,-0.73 -8.34,-1.23 -12.92,-0.72 -2.97,0.32 -7.64,0.93 -11.33,1.37 -8.22,0.98 -14.62,1.73 -22.13,-1.74l-1.32 -7.91z"/>
    </g>
    <g>
     <g>
      <path class="fil10" d="M316 363.15c1.43,2.35 0.5,5.55 -1.41,7.52 -1.91,1.98 -4.56,3.02 -7.12,4 -3.67,1.41 -7.34,2.81 -11.01,4.22 -0.65,0.25 -1.44,0.87 -1.07,1.46 0.12,0.18 0.32,0.29 0.52,0.38 3.02,1.31 6.48,0.35 9.71,-0.31 5.92,-1.21 12.05,-1.35 18.01,-0.39 1.53,0.24 3.66,0.17 3.94,-1.35 0.06,-0.32 0.01,-0.65 -0.05,-0.98 -0.97,-6.05 -1.94,-12.09 -2.91,-18.14l-8.62 3.6z"/>
     </g>
     <g>
      <path class="fil11" d="M311.87 372.63c0.53,0.19 1.06,1.04 1.5,1.71 0.66,1.02 1.35,0.77 2.56,0.7 1.21,-0.08 2.35,-0.57 3.46,-1.04 2,-0.85 4.02,-1.66 6.06,-2.44 0.34,-0.13 0.71,-0.25 1.05,-0.12 0.42,0.17 0.57,0.67 0.67,1.11 0.37,1.56 0.74,3.12 1.11,4.68 0.11,0.46 0.22,0.94 0.07,1.39 -0.11,0.34 -0.36,0.62 -0.63,0.86 -1.95,1.72 -4.89,1.42 -7.48,1.19 -5.26,-0.47 -10.58,-0.25 -15.79,0.63 -3.2,0.54 -6.83,1.25 -9.41,-0.72 -0.46,-0.35 -0.9,-0.95 -0.65,-1.47 0.13,-0.26 0.4,-0.43 0.66,-0.56 1.63,-0.87 3.41,-1.45 5.17,-2.02 2.11,-0.68 4.22,-1.37 6.34,-2.05 1.83,-0.59 4.29,-1.71 5.31,-1.86z"/>
     </g>
     <g>
      <path class="fil11" d="M326.96 293.39c-9.66,0.63 -14.4,2.95 -15.93,6.2 -1.53,3.25 -1.25,8.71 -1.27,12.3 -0.09,17.61 2.83,35.08 5.75,52.45 0.05,0.29 0.1,0.59 0.29,0.82 0.35,0.42 1,0.39 1.55,0.32 2.45,-0.31 4.89,-0.63 7.34,-0.94 0.41,-0.05 0.86,-0.12 1.15,-0.41 0.34,-0.34 0.38,-0.86 0.39,-1.34 0.49,-13.25 1.68,-21.01 1.48,-36.8 -0.1,-7.86 -2.78,-17.3 3.15,-17.71 5.56,-0.38 -3,-9.8 -6.92,-12.77l3.01 -2.12z"/>
     </g>
    </g>
    <g>
     <path class="fil15" d="M368.8 288.5l-40.29 0c-1.78,0 -3.22,-1.44 -3.22,-3.22l0 -21.56c0,-1.78 1.44,-3.22 3.22,-3.22l40.29 0c1.78,0 3.22,1.44 3.22,3.22l0 21.56c0,1.78 -1.44,3.22 -3.22,3.22z"/>
     <path class="fil16" d="M349.91 274.18c0,1.36 -1.1,2.46 -2.46,2.46 -1.36,0 -2.46,-1.1 -2.46,-2.46 0,-1.36 1.1,-2.46 2.46,-2.46 1.36,0 2.46,1.1 2.46,2.46z"/>
    </g>
    <g>
     <path class="fil17" d="M345.83 204.18c-0.84,1.28 -1.39,2.75 -1.58,4.28 -0.2,1.56 -0.04,3.15 -0.14,4.72 -0.08,1.23 -0.07,2.9 -0.12,4.13 -0.16,3.65 1.06,6.69 2.51,10.04 0.55,1.27 1.12,2.57 2.08,3.58 0.96,1 2.41,1.09 3.76,0.75 0.68,-0.17 2.82,-1.39 3.38,-1.82 4.14,-3.23 5.29,-6.86 5.75,-12.09 0.14,-1.57 0.08,-3.15 0.03,-4.72 -0.06,-1.56 -0.11,-3.15 -0.59,-4.64 -0.48,-1.49 -1.44,-2.89 -2.86,-3.55l-12.21 -0.67z"/>
     <path class="fil18" d="M361.91 218.22c-0.25,0.73 -0.96,1.59 -1.62,1.19 -0.32,-0.2 -0.43,-0.61 -0.5,-0.98 -0.23,-1.19 -0.47,-2.4 -1.01,-3.49 -0.54,-1.09 -1.45,-2.05 -2.62,-2.38 -2.15,-0.6 -4.23,1.05 -6.41,1.52 -2.09,0.45 -4.27,-0.22 -6.18,-1.16 -1.36,-0.67 -2.75,-1.63 -3.11,-3.1 -0.35,-1.42 0.39,-2.87 1.18,-4.1 1.36,-2.11 3.01,-4.1 5.13,-5.46 2.12,-1.36 4.75,-2.05 7.19,-1.47 1.67,0.4 3.15,1.34 4.78,1.87 0.87,0.28 1.78,0.44 2.6,0.82 1.9,0.88 3.13,2.84 3.62,4.88 0.49,2.04 0.33,4.17 0.14,6.26 -0.27,2.99 -0.64,6.04 -1.86,8.78 -0.89,2 -1.99,4 -4.09,4.63l2.74 -7.8z"/>
     <path class="fil13" d="M348.77 225.77c1.37,0.14 3.81,0.18 5.15,-0.13 -0.4,0.51 -0.89,0.95 -1.44,1.3 -0.64,0.41 -1.13,0.47 -1.89,0.4 -0.27,-0.03 -0.84,-0.33 -0.99,-0.49 -0.15,-0.16 -0.63,-0.66 -0.84,-1.07z"/>
     <path class="fil13" d="M350.84 217.96c-0.5,1.72 -1,3.44 -1.5,5.16 -0.04,0.15 -0.08,0.34 0.04,0.44 0.07,0.06 0.17,0.06 0.26,0.06 0.53,0.01 1.06,0.03 1.58,0.04 0.15,0 0.32,-0 0.41,-0.12 0.08,-0.1 0.07,-0.24 0.05,-0.37 -0.22,-1.66 -0.63,-3.56 -0.85,-5.22z"/>
     <g>
      <path class="fil18" d="M352.37 214.62c1.72,-0.29 3.4,-0.17 5.07,0.33 0.28,0.09 0.4,-0.36 0.12,-0.44 -1.75,-0.53 -3.51,-0.64 -5.31,-0.33 -0.29,0.05 -0.17,0.49 0.12,0.44z"/>
     </g>
     <g>
      <path class="fil18" d="M348.33 214.38c-1.31,-0.28 -2.62,-0.32 -3.94,-0.14 -0.29,0.04 -0.17,0.48 0.12,0.44 1.24,-0.17 2.47,-0.12 3.7,0.14 0.29,0.06 0.41,-0.38 0.12,-0.44z"/>
     </g>
     <g>
      <path class="fil19" d="M353.04 217.6c1.26,0.7 2.78,0.64 3.96,-0.21 0.28,-0.2 0.01,-0.67 -0.27,-0.47 -1.03,0.73 -2.31,0.83 -3.42,0.21 -0.3,-0.17 -0.58,0.3 -0.27,0.47z"/>
     </g>
     <g>
      <path class="fil19" d="M348.09 217.08c-0.87,0.43 -1.9,0.29 -2.62,-0.37 -0.26,-0.23 -0.64,0.15 -0.38,0.38 0.91,0.82 2.18,1 3.28,0.45 0.31,-0.16 0.04,-0.62 -0.27,-0.47z"/>
     </g>
     <path class="fil20 str1" d="M349.31 217.65c0,1.41 -1.15,2.56 -2.56,2.56 -1.41,0 -2.56,-1.15 -2.56,-2.56 0,-1.41 1.15,-2.56 2.56,-2.56 1.41,0 2.56,1.15 2.56,2.56z"/>
     <path class="fil20 str1" d="M357.46 217.65c0,1.41 -1.15,2.56 -2.56,2.56 -1.41,0 -2.56,-1.15 -2.56,-2.56 0,-1.41 1.15,-2.56 2.56,-2.56 1.41,0 2.56,1.15 2.56,2.56z"/>
     <path class="fil20 str1" d="M349.41 217.17c0,0 1.5,-0.8 2.85,0"/>
     <path class="fil17" d="M361.03 219.38c0.18,-0.64 0.53,-1.22 1,-1.68 0.11,-0.11 0.25,-0.22 0.41,-0.2 0.18,0.02 0.3,0.19 0.37,0.36 0.39,0.92 0.08,1.97 -0.23,2.92 -0.2,0.6 -0.41,1.22 -0.83,1.68 -0.43,0.47 -1.13,0.74 -1.71,0.47l0.99 -3.55z"/>
     <line class="fil20 str1" x1="357.46" y1="217.3" x2="360.65" y2= "217.17" />
    </g>
   </g>
   <g>
    <g>
     <path class="fil12" d="M345.88 263.83c4.03,8.06 8.06,16.13 12.08,24.19 0.11,0.22 0.37,0.35 0.61,0.35 9.74,0 19.49,0 29.23,0 0.91,0 0.91,-1.41 0,-1.41 -8.15,0 -16.3,0 -24.45,0 -1.31,0 -3.09,-0.32 -4.36,0 -0.7,0.18 -0.08,-0.21 0.15,0.26 -0.19,-0.4 -0.39,-0.79 -0.59,-1.18 -2.05,-4.11 -4.11,-8.22 -6.16,-12.33 -1.76,-3.53 -3.53,-7.06 -5.29,-10.59 -0.41,-0.81 -1.62,-0.1 -1.22,0.71z"/>
    </g>
    <g>
     <g>
      <g>
       <path class="fil21" d="M386.6 357.05c1.34,4.28 3.08,8.42 4.26,12.74 1.18,4.32 1.78,8.92 0.77,13.28 -0.33,1.41 -0.82,2.78 -1.31,4.15 0.01,1.53 1.9,-0.28 2.58,-0.99 1.67,-1.74 2.92,-3.86 3.64,-6.16 1.39,-4.48 0.76,-9.54 2.95,-13.68 0.54,-1.03 1.25,-1.98 1.57,-3.1 0.31,-1.12 0.1,-2.5 -0.87,-3.13 -0.38,-0.24 -0.82,-0.35 -1.26,-0.47 -4.28,-1.25 -7.6,-5.27 -8.03,-9.71l-4.3 7.07z"/>
      </g>
      <g>
       <path class="fil22" d="M368.46 302.27c-0.6,4.62 -1.68,10.55 -0.13,14.94 5.26,14.87 12.28,28.75 19.14,42.96 0.06,0.13 -0.14,-0.03 0,0 0.13,0.03 -0.12,0.03 0,0 2.56,-0.64 4.81,-2.27 6.43,-3.34 -3.05,-12.41 -4.04,-25.71 -10.72,-36.6 -1.23,-2.01 -2.67,-3.95 -3.34,-6.21 -0.68,-2.26 -0.42,-4.99 1.35,-6.55 2.34,-2.06 6.59,-1.57 8.08,-4.32l-20.8 -0.88z">

        <animate id="path187anim1" attributeName="d"
         values="M368.46 302.27c-0.6,4.62 -1.68,10.55 -0.13,14.94 5.26,14.87 12.28,28.75 19.14,42.96 0.06,0.13 -0.14,-0.03 0,0 0.13,0.03 -0.12,0.03 0,0 2.56,-0.64 4.81,-2.27 6.43,-3.34 -3.05,-12.41 -4.04,-25.71 -10.72,-36.6 -1.23,-2.01 -2.67,-3.95 -3.34,-6.21 -0.68,-2.26 -0.42,-4.99 1.35,-6.55 2.34,-2.06 6.59,-1.57 8.08,-4.32l-20.8 -0.88z;
          m 368.46,302.27 c -0.6,4.62 -1.68,10.55 -0.13,14.94 5.26,14.87 12.28,28.75 19.14,42.96 0.06,0.13 -0.14,-0.03 0,0 0.13,0.03 -0.12,0.03 0,0 2.56,-0.64 4.81,-2.27 6.43,-3.34 -3.05,-12.41 -4.04,-25.71 -10.72,-36.6 -1.23,-2.01 -2.67,-3.95 -3.34,-6.21 -0.68,-2.26 -0.42,-4.99 1.35,-6.55 2.34,-2.06 6.59,-1.57 8.08,-4.32 l -20.8,-0.88 z"

         dur="0.2s" begin="generalt2.mouseover + 0.2s" fill="freeze" />

         <animate id="path187anim2" attributeName="d" fill="freeze"
           values="m 368.46,302.27 c -0.6,4.62 -1.68,10.55 -0.13,14.94 5.26,14.87 12.28,28.75 19.14,42.96 0.06,0.13 -0.14,-0.03 0,0 0.13,0.03 -0.12,0.03 0,0 2.56,-0.64 4.81,-2.27 6.43,-3.34 -3.05,-12.41 -4.04,-25.71 -10.72,-36.6 -1.23,-2.01 -2.67,-3.95 -3.34,-6.21 -0.68,-2.26 -0.42,-4.99 1.35,-6.55 2.34,-2.06 6.59,-1.57 8.08,-4.32 l -20.8,-0.88 z;
           M368.46 302.27c-0.6,4.62 -1.68,10.55 -0.13,14.94 5.26,14.87 12.28,28.75 19.14,42.96 0.06,0.13 -0.14,-0.03 0,0 0.13,0.03 -0.12,0.03 0,0 2.56,-0.64 4.81,-2.27 6.43,-3.34 -3.05,-12.41 -4.04,-25.71 -10.72,-36.6 -1.23,-2.01 -2.67,-3.95 -3.34,-6.21 -0.68,-2.26 -0.42,-4.99 1.35,-6.55 2.34,-2.06 6.59,-1.57 8.08,-4.32l-20.8 -0.88z"

           dur="0.5s" begin="generalt2.mouseout" />

      </path>
      </g>
     </g>
     <g>
      <path class="fil23" d="M420.87 230.97c1.55,2.11 1.82,4.88 1.8,7.49 -0,0.71 -0.03,1.44 -0.21,2.13 -0.16,0.62 -0.45,1.21 -0.74,1.78 -1.39,2.81 -2.81,5.62 -4.25,8.41 1.37,0.26 2.7,-0.53 3.88,-1.28 1.64,-1.06 3.29,-2.12 4.93,-3.17 2.68,-1.72 5.37,-3.46 7.74,-5.58 -1.21,-1.07 -2.17,-2.42 -2.8,-3.91 -1.02,-2.4 -1.15,-5.08 -0.95,-7.68 0.2,-2.6 0.71,-5.16 0.94,-7.76l-10.34 9.57z"/>
     </g>
     <g>
      <g>
       <path class="fil21" d="M365.86 361.22c-0.29,4.47 -0.14,8.97 -0.59,13.43 -0.45,4.46 -1.54,8.96 -4.05,12.67 -0.81,1.2 -1.76,2.3 -2.71,3.4 -0.54,1.44 1.87,0.42 2.76,0 2.18,-1.02 4.11,-2.56 5.6,-4.44 2.91,-3.68 4.13,-8.63 7.67,-11.71 0.88,-0.76 1.88,-1.4 2.57,-2.33 0.69,-0.93 0.99,-2.3 0.31,-3.24 -0.26,-0.36 -0.64,-0.62 -1,-0.89 -3.54,-2.71 -5.2,-7.65 -4.02,-11.94l-6.54 5.05z"/>
      </g>
      <g>
       <path class="fil24" d="M443.15 284.28c1.01,3.25 2.02,6.54 2.3,9.93 0.28,3.39 -0.23,6.95 -2.08,9.81 -3.53,5.48 -10.76,7.03 -17.26,7.57 -15.69,1.31 -31.45,-0.44 -47.19,-0.58 -2.13,-0.02 -4.82,0.39 -5.38,2.45 -0.31,1.15 0.22,2.33 0.67,3.43 2.8,6.99 2.08,14.86 0.76,22.27 -1.32,7.41 -3.2,14.87 -2.56,22.37 0.08,0.91 0.16,1.94 -0.44,2.63 -0.39,0.45 -0.98,0.65 -1.55,0.83 -1.57,0.5 -3.13,1.01 -4.7,1.51 -1.69,-18.75 -2.84,-37.54 -3.46,-56.35 -0.08,-2.37 -0.14,-4.78 0.46,-7.08 0.6,-2.29 1.98,-4.5 4.11,-5.54 1.33,-0.65 4.81,-1.48 6.27,-1.73 19.62,-3.26 31.62,-4.15 45.06,-6.31 4.6,-0.74 9.78,-2.34 11.7,-6.58l13.3 1.37z"/>
      </g>
     </g>
     <g>
      <path class="fil23" d="M412.23 283.16c-2.82,-0.25 -6.11,-0.76 -8.93,-1 -5.2,-0.45 -9.8,-0.24 -15.02,-0.43 -1.43,-0.05 -3.58,0.08 -5.01,0.17 -3.72,0.25 -6.65,1.37 -10.21,2.47 -0.75,0.23 -1.65,0.8 -2.11,1.44 -0.46,0.64 -0.5,1.56 -1.1,2.08 0.35,0.22 0.81,-0.03 1.07,-0.36 0.26,-0.32 0.42,-0.73 0.75,-0.98 0.31,-0.23 1.93,-0.71 2.32,-0.76 1.83,-0.24 2.44,-0.06 4.27,-0.3 0.57,-0.07 1.15,-0.15 1.71,-0.04 1.32,0.25 2.26,0.69 3.76,0.4 0.5,-0.1 1.17,-0.37 1.58,-0.67 1.39,-1.01 2.98,-0.05 4.6,0.5 1.4,0.48 2.85,0.78 4.3,1.08 2.61,0.54 5.21,1.08 7.82,1.62 3.94,0.82 7.91,1.64 11.94,1.74l-1.73 -6.96z"/>
     </g>
     <g>
      <g>
       <path class="fil24" d="M432.71 238.6c-2.6,4.42 -7.15,7.65 -12.18,8.64 -0.54,0.11 -1.11,0.2 -1.54,0.54 -0.37,0.29 -0.59,0.74 -0.8,1.17 -0.82,1.68 -1.64,3.35 -2.46,5.03 -0.89,1.82 -1.79,3.68 -2,5.7 -0.37,3.69 1.63,7.15 2.89,10.64 1.91,5.29 2.12,11.17 0.62,16.59 -0.11,0.41 -0.22,0.91 0.06,1.23 0.11,0.12 0.26,0.2 0.41,0.27 3.39,1.61 7.12,2.32 10.81,3.02 2.92,0.55 5.88,1.1 8.84,0.86 1.88,-0.16 3.74,-0.63 5.46,-1.41 -0.24,-1.17 -1.05,-2.12 -1.74,-3.09 -4.01,-5.64 -4.36,-13.31 -2.25,-19.91 0.8,-2.5 1.92,-4.91 2.37,-7.5 0.69,-3.95 -0.26,-8.04 -1.95,-11.68 -1.69,-3.63 -4.09,-6.88 -6.47,-10.11l-0.06 0.02z"/>
      </g>
      <g>
       <g>
        <path class="fil22" d="M414.71 282.12c-1.39,0.36 -2.72,-1.03 -4.14,-0.88 -0.09,0.01 -0.19,0.03 -0.26,0.09 -0.11,0.1 -0.12,0.27 -0.11,0.42 0.07,2.73 -0.16,5.47 -0.67,8.15 -0.02,0.08 -0.03,0.17 0.01,0.24 0.05,0.1 0.18,0.14 0.3,0.15 1.43,0.23 2.87,0.36 4.32,0.38l0.55 -8.56z"/>
       </g>
       <g>
        <path class="fil24" d="M411.51 282.26c-0.47,0.06 -0.74,0.72 -0.44,1.09 0.3,0.37 1,0.26 1.16,-0.19 0.17,-0.45 -0.29,-0.99 -0.76,-0.9l0.04 -0.01z"/>
       </g>
       <g>
        <path class="fil25" d="M431.23 243.5c-2.42,0.93 -4.2,3.1 -5.17,5.51 -0.96,2.4 -1.2,5.04 -1.26,7.62 -0.08,3.31 0.11,6.63 -0.02,9.94 -0.09,2.4 -0.36,4.85 -1.36,7.03 -1.26,2.76 -3.67,4.97 -6.54,5.97 -0.73,0.26 -1.51,0.45 -2.1,0.96 -1.35,1.17 -1.02,3.28 -0.97,5.07 0.05,1.64 -0.24,3.29 -0.84,4.82 -0.18,0.46 -0.39,0.95 -0.27,1.43 0.09,0.36 0.36,0.64 0.62,0.9 4.02,4 9.68,6.31 15.35,6.25 3.25,-0.03 6.54,-0.84 9.21,-2.69 3.2,-2.22 5.27,-5.81 6.29,-9.57 1.03,-3.76 1.09,-7.71 0.94,-11.6 -0.27,-6.77 -1.21,-13.51 -2.79,-20.1 -0.56,-2.34 -1.22,-4.7 -2.54,-6.72 -1.34,-2.06 -3.35,-3.69 -5.64,-4.57 -1,-0.39 -2.15,-0.63 -3.13,-0.2l0.21 -0.05z"/>
       </g>
       <g>
        <path class="fil22" d="M416.62 287.9c2.24,0.13 4.52,0.25 6.7,-0.25 4.17,-0.96 7.59,-4.18 9.52,-8 1.93,-3.82 2.53,-8.19 2.53,-12.48 0,-0.94 -0.03,-1.89 0.06,-2.83 0.7,0.05 1.05,0.85 1.24,1.52 1.37,4.78 1.96,9.79 1.75,14.76 -0.07,1.7 -0.24,3.41 -0.72,5.04 -0.41,1.41 -1.08,2.78 -2.15,3.79 -0.69,0.65 -1.52,1.12 -2.38,1.53 -1.87,0.9 -3.9,1.52 -5.98,1.49 -3.84,-0.06 -7.26,-2.3 -10.44,-4.47l-0.14 -0.09z"/>
       </g>
       <g>
        <path class="fil22" d="M420.65 281.71c2.79,-1.14 4.85,-3.63 6.11,-6.37 1.26,-2.74 1.82,-5.74 2.36,-8.7 0.29,0.27 0.36,0.69 0.41,1.08 0.25,1.86 0.51,3.73 0.37,5.6 -0.13,1.87 -0.68,3.76 -1.87,5.2 -1.72,2.08 -4.69,3.3 -7.39,3.19z"/>
       </g>
      </g>
     </g>
     <g>
      <path class="fil23" d="M418.93 210.84c-1.36,1.04 -2.74,2.1 -3.76,3.47 -1.02,1.37 -1.67,3.12 -1.35,4.81 0.13,0.71 0.44,1.41 0.38,2.13 -0.09,1.21 -0.94,2.17 -1.86,3.06 -0.33,0.31 -0.59,0.75 -0.33,1.11 0.21,0.29 0.72,0.44 0.99,0.68 0.24,0.21 0.3,0.55 0.36,0.86 0.33,1.89 0.67,3.78 1,5.68 0.06,0.35 0.13,0.72 0.33,1.01 0.61,0.88 1.95,0.65 2.97,0.31 1.26,-0.41 2.52,-0.83 3.78,-1.25 1.75,-0.57 3.51,-1.15 5.1,-2.08 1.59,-0.92 3.02,-2.22 3.78,-3.9 0.33,-0.73 0.53,-1.52 0.69,-2.3 0.48,-2.32 0.69,-4.77 0.04,-7.05 -0.65,-2.28 -2.27,-4.39 -4.52,-5.13l-7.6 -1.42z"/>
      <path class="fil26" d="M413.92 229.33c0.58,-0.04 0.99,-0.21 1.44,-0.58 0.2,-0.16 0.44,-0.43 0.52,-0.7 -0.38,0.14 -0.82,0.23 -1.24,0.23 -0.42,0 -0.77,-0.04 -1.05,-0.02l0.19 1.07 0.14 0z"/>
      <g>
       <path class="fil19" d="M414.79 221.14c1.43,0.34 3.06,0.03 3.74,-1.4 0.15,-0.31 -0.32,-0.59 -0.47,-0.27 -0.58,1.21 -1.92,1.44 -3.13,1.15 -0.34,-0.08 -0.48,0.44 -0.14,0.52z"/>
      </g>
      <g>
       <path class="fil19" d="M414.66 218.59c1.13,-0.85 2.67,-1.68 4.12,-1.2 0.33,0.11 0.47,-0.41 0.14,-0.52 -1.59,-0.53 -3.29,0.32 -4.53,1.25 -0.28,0.21 -0.01,0.68 0.27,0.47z"/>
      </g>
      <path class="fil27" d="M421.43 224.83c0,0.93 -0.75,1.68 -1.68,1.68 -0.93,0 -1.68,-0.75 -1.68,-1.68 0,-0.93 0.75,-1.68 1.68,-1.68 0.93,0 1.68,0.75 1.68,1.68z"/>
      <path class="fil28" d="M429.88 210.44c0.06,-3.14 1.11,-6.26 3.03,-8.74 1.92,-2.48 4.72,-4.28 7.79,-4.91 1.35,-0.28 2.78,-0.33 4.09,0.08 2.86,0.9 4.71,3.97 4.7,6.97 -0.01,3 -1.63,5.83 -3.84,7.86 -2.21,2.03 -4.98,3.34 -7.79,4.4l-7.99 -5.66z"/>
      <path class="fil28" d="M424.13 221.33c1.04,0.17 1.88,1 2.3,1.97 0.42,0.96 0.48,2.04 0.44,3.09 -0.09,2.13 -0.57,4.22 -0.94,6.32 -0.36,2.1 -0.61,4.26 -0.21,6.36 0.4,2.09 1.52,4.13 3.35,5.22 -1.15,-1.36 -1.79,-3.12 -1.94,-4.9 -0.15,-1.78 0.17,-3.57 0.77,-5.25 0.26,-0.74 0.58,-1.46 0.86,-2.19 1.01,-2.63 1.59,-5.53 0.91,-8.26 -0.19,-0.74 -0.47,-1.47 -0.97,-2.05 -0.79,-0.92 -2.01,-1.36 -3.21,-1.57l-1.36 1.27z"/>
      <path class="fil28" d="M416.07 213.31c0.63,3.84 2.98,7.32 6.55,8.87 0.4,0.17 0.83,0.33 1.26,0.3 0.37,-0.03 0.73,-0.18 1.09,-0.25 1.52,-0.29 2.96,1 3.44,2.47 0.48,1.47 0.25,3.06 0.11,4.6 -0.23,2.42 -0.22,4.94 0.68,7.2 1.77,4.43 6.62,7.05 8.38,11.48 0.76,1.92 0.88,4.04 1.52,6.01 1.51,4.65 6.1,8.04 10.97,8.4 4.87,0.36 9.79,-2.21 12.52,-6.26 1.05,-1.55 1.79,-3.29 2.4,-5.06 0.62,-1.79 1.11,-3.65 1.15,-5.54 0.1,-5.45 -3.71,-10.41 -8.48,-13.03 -3.89,-2.14 -8.61,-3.15 -11.52,-6.51 -3.98,-4.59 -3.2,-11.95 -7.09,-16.6 -3.57,-4.26 -10.11,-4.87 -15.38,-3.1 -3.42,1.15 -6.82,3.51 -7.6,7.04z">

        <animate id="path257anim1" attributeName="d"
         values="M416.07 213.31c0.63,3.84 2.98,7.32 6.55,8.87 0.4,0.17 0.83,0.33 1.26,0.3 0.37,-0.03 0.73,-0.18 1.09,-0.25 1.52,-0.29 2.96,1 3.44,2.47 0.48,1.47 0.25,3.06 0.11,4.6 -0.23,2.42 -0.22,4.94 0.68,7.2 1.77,4.43 6.62,7.05 8.38,11.48 0.76,1.92 0.88,4.04 1.52,6.01 1.51,4.65 6.1,8.04 10.97,8.4 4.87,0.36 9.79,-2.21 12.52,-6.26 1.05,-1.55 1.79,-3.29 2.4,-5.06 0.62,-1.79 1.11,-3.65 1.15,-5.54 0.1,-5.45 -3.71,-10.41 -8.48,-13.03 -3.89,-2.14 -8.61,-3.15 -11.52,-6.51 -3.98,-4.59 -3.2,-11.95 -7.09,-16.6 -3.57,-4.26 -10.11,-4.87 -15.38,-3.1 -3.42,1.15 -6.82,3.51 -7.6,7.04z;
          m 416.07,213.31 c 0.63,3.84 2.98,7.32 6.55,8.87 0.4,0.17 0.83,0.33 1.26,0.3 0.37,-0.03 0.73,-0.18 1.09,-0.25 1.52,-0.29 2.96,1 3.44,2.47 0.48,1.47 0.25,3.06 0.11,4.6 -0.23,2.42 -0.22,4.94 0.68,7.2 1.77,4.43 1.02529,10.10166 2.78529,14.53166 0.76,1.92 6.47471,0.98834 7.11471,2.95834 1.51,4.65 0.50529,11.09166 5.37529,11.45166 4.87,0.36 9.79,-2.21 12.52,-6.26 1.05,-1.55 7.38471,-6.34166 7.99471,-8.11166 0.62,-1.79 1.11,-3.65 1.15,-5.54 0.1,-5.45 -3.71,-10.41 -8.48,-13.03 -3.89,-2.14 -8.61,-3.15 -11.52,-6.51 -3.98,-4.59 -3.2,-11.95 -7.09,-16.6 -3.57,-4.26 -10.11,-4.87 -15.38,-3.1 -3.42,1.15 -6.82,3.51 -7.6,7.04 z"

         dur="0.2s" begin="generalt2.mouseover + 0.2s" fill="freeze" />

         <animate id="path257anim2" attributeName="d" fill="freeze"
           values=" m 416.07,213.31 c 0.63,3.84 2.98,7.32 6.55,8.87 0.4,0.17 0.83,0.33 1.26,0.3 0.37,-0.03 0.73,-0.18 1.09,-0.25 1.52,-0.29 2.96,1 3.44,2.47 0.48,1.47 0.25,3.06 0.11,4.6 -0.23,2.42 -0.22,4.94 0.68,7.2 1.77,4.43 1.02529,10.10166 2.78529,14.53166 0.76,1.92 6.47471,0.98834 7.11471,2.95834 1.51,4.65 0.50529,11.09166 5.37529,11.45166 4.87,0.36 9.79,-2.21 12.52,-6.26 1.05,-1.55 7.38471,-6.34166 7.99471,-8.11166 0.62,-1.79 1.11,-3.65 1.15,-5.54 0.1,-5.45 -3.71,-10.41 -8.48,-13.03 -3.89,-2.14 -8.61,-3.15 -11.52,-6.51 -3.98,-4.59 -3.2,-11.95 -7.09,-16.6 -3.57,-4.26 -10.11,-4.87 -15.38,-3.1 -3.42,1.15 -6.82,3.51 -7.6,7.04 z;
           M416.07 213.31c0.63,3.84 2.98,7.32 6.55,8.87 0.4,0.17 0.83,0.33 1.26,0.3 0.37,-0.03 0.73,-0.18 1.09,-0.25 1.52,-0.29 2.96,1 3.44,2.47 0.48,1.47 0.25,3.06 0.11,4.6 -0.23,2.42 -0.22,4.94 0.68,7.2 1.77,4.43 6.62,7.05 8.38,11.48 0.76,1.92 0.88,4.04 1.52,6.01 1.51,4.65 6.1,8.04 10.97,8.4 4.87,0.36 9.79,-2.21 12.52,-6.26 1.05,-1.55 1.79,-3.29 2.4,-5.06 0.62,-1.79 1.11,-3.65 1.15,-5.54 0.1,-5.45 -3.71,-10.41 -8.48,-13.03 -3.89,-2.14 -8.61,-3.15 -11.52,-6.51 -3.98,-4.59 -3.2,-11.95 -7.09,-16.6 -3.57,-4.26 -10.11,-4.87 -15.38,-3.1 -3.42,1.15 -6.82,3.51 -7.6,7.04z"

           dur="0.5s" begin="generalt2.mouseout" />
        
       

      </path>
     </g>
    </g>
    <g>
     <path class="fil21" d="M454.68 258.61c-0.35,-2.72 -4.36,-2.92 -4.4,0 -0.19,13.98 -4.79,28.46 -14.08,39.15 -9.92,11.41 -24.35,13.27 -38.68,12.2 -1.39,-0.1 -2.09,0.91 -2.11,1.99 -0.24,1.03 0.18,2.12 1.52,2.33 16.49,2.6 37.99,5.58 49.56,-9.58 9.52,-12.46 10.1,-31.15 8.18,-46.08z"/>
     <g>
      <path class="fil12" d="M414.32 313.74c-12.71,20.69 -17.19,44.72 -21.37,68.29 -0.24,1.38 1.87,1.98 2.12,0.58 4.14,-23.38 8.54,-47.24 21.15,-67.77 0.74,-1.21 -1.16,-2.31 -1.9,-1.11z"/>
     </g>
     <g>
      <path class="fil12" d="M433.68 313.74c12.71,20.69 17.19,44.72 21.37,68.29 0.25,1.38 -1.87,1.98 -2.12,0.58 -4.14,-23.38 -8.54,-47.24 -21.15,-67.77 -0.74,-1.21 1.16,-2.31 1.9,-1.11z"/>
     </g>
    </g>
   </g>
   <g>
    <g>
     <path class="fil29" d="M397.4 386.33c-8.85,-28.22 -17.7,-56.45 -26.55,-84.67 -1.29,-4.1 -2.57,-8.21 -3.86,-12.31 -0.46,-1.48 -2.59,-0.84 -2.12,0.65 8.85,28.22 17.7,56.45 26.55,84.67 1.29,4.1 2.57,8.21 3.86,12.31 0.46,1.48 2.59,0.84 2.12,-0.65z"/>
    </g>
    <g>
     <path class="fil29" d="M241.58 386.98c8.85,-28.22 17.7,-56.45 26.55,-84.67 1.29,-4.1 2.57,-8.21 3.86,-12.31 0.47,-1.49 -1.65,-2.14 -2.12,-0.65 -8.85,28.22 -17.7,56.45 -26.55,84.67 -1.29,4.1 -2.57,8.21 -3.86,12.31 -0.47,1.49 1.65,2.14 2.12,0.65z"/>
    </g>
    <path class="fil29" d="M394.1 290.72l-152.4 0c-0.65,0 -1.18,-0.53 -1.18,-1.18 0,-0.65 0.53,-1.18 1.18,-1.18l152.4 0c0.65,0 1.18,0.53 1.18,1.18 0,0.65 -0.53,1.18 -1.18,1.18z"/>
   </g>
   <g>
    <path class="fil30" d="M307.44 265.31l-129.51 0c-0.6,0 -1.08,-0.48 -1.08,-1.08l0 -77.33c0,-0.6 0.48,-1.08 1.08,-1.08l129.51 0c0.6,0 1.08,0.48 1.08,1.08l0 77.33c0,0.6 -0.48,1.08 -1.08,1.08z"/>
    <polygon class="fil31" points="180.45,261.71 180.45,189.42 304.92,189.42 304.92,261.71 "/>
    <polygon class="fil30" points="254.51,283.3 230.86,283.3 230.86,265.31 254.51,265.31 "/>
    <polygon class="fil30" points="268.67,287.28 216.7,287.28 216.7,283.3 268.67,283.3 "/>
    <g>
     <g>
      <path class="fil32" d="M163.42 216.18l-0.32 0.18c-1.11,0.61 -2.51,0.21 -3.13,-0.9l-7.11 -12.87 4.34 -2.4 7.11 12.87c0.61,1.11 0.21,2.51 -0.9,3.13z"/>
      <path class="fil32" d="M196.55 185.35c0.87,2.64 -0.57,5.48 -3.21,6.35 -2.64,0.87 -5.48,-0.57 -6.35,-3.21 -0.87,-2.64 0.57,-5.48 3.21,-6.35 2.64,-0.87 5.48,0.57 6.35,3.21z"/>
      <path class="fil32" d="M193.05 182.06c0.73,0.59 1.31,1.39 1.62,2.34 0.87,2.64 -0.57,5.48 -3.21,6.35 -0.96,0.32 -1.94,0.32 -2.85,0.08 1.28,1.03 3.04,1.42 4.72,0.87 2.64,-0.87 4.08,-3.71 3.21,-6.35 -0.55,-1.68 -1.91,-2.87 -3.5,-3.29z"/>
      <polygon class="fil32" points="160.12,203.81 152.73,206.23 148.88,194.5 156.26,192.07 "/>
      <path class="fil33" d="M152.53 206.3l0.2 -0.06 -3.85 -11.74 -0.2 0.06c-1.39,0.46 -2.15,1.96 -1.69,3.35l2.2 6.69c0.46,1.39 1.96,2.15 3.35,1.69z"/>
      <g>
       <polygon class="fil33" points="196.68,201.88 160.12,203.81 156.26,192.07 186.85,171.95 "/>
      </g>
      <path class="fil32" d="M198.93 203.71l-0.2 0.07c-0.71,0.23 -1.47,-0.15 -1.71,-0.86l-10.51 -31.99c-0.23,-0.71 0.15,-1.47 0.86,-1.71l0.2 -0.07c0.71,-0.23 1.48,0.15 1.71,0.86l10.51 31.99c0.23,0.71 -0.15,1.47 -0.86,1.71z"/>
     </g>
     <path class="fil33" d="M217.63 155l-21.21 24.62 25.22 -20.5 -4 -4.12zm-17.62 29.56l0 0 33.95 -8.12 -1.79 -5.46 -32.16 13.58zm31.71 13.36l0 0 0.78 -5.69 -32.46 -1.56 31.68 7.25z"/>
    </g>
    <path class="fil34" d="M239.86 123.81c0,-5.9 -6.77,-10.68 -15.12,-10.68 -8.35,0 -15.12,4.78 -15.12,10.68 0,5.9 6.77,10.68 15.12,10.68 2.23,0 4.34,-0.34 6.25,-0.96l4.96 3.36 -2.27 -4.47c3.75,-1.94 6.18,-5.08 6.18,-8.61zm-21.81 1.64l0 0c-1.06,0 -1.92,-0.86 -1.92,-1.92 0,-1.06 0.86,-1.92 1.92,-1.92 1.06,0 1.92,0.86 1.92,1.92 0,1.06 -0.86,1.92 -1.92,1.92zm6.69 0l0 0c-1.06,0 -1.92,-0.86 -1.92,-1.92 0,-1.06 0.86,-1.92 1.92,-1.92 1.06,0 1.92,0.86 1.92,1.92 0,1.06 -0.86,1.92 -1.92,1.92zm6.69 0l0 0c-1.06,0 -1.92,-0.86 -1.92,-1.92 0,-1.06 0.86,-1.92 1.92,-1.92 1.06,0 1.92,0.86 1.92,1.92 0,1.06 -0.86,1.92 -1.92,1.92z"/>
    <path class="fil34" d="M276.87 143.18c-0.16,0 -0.3,-0.02 -0.45,-0.06 0.02,0.77 0.64,1.39 1.42,1.39l0.75 0 0 0.27c0,0.59 0.47,1.07 1.06,1.07l3.38 0c0.59,0 1.07,-0.47 1.07,-1.07l0 -0.27 0.75 0c0.77,0 1.4,-0.62 1.42,-1.39 -0.15,0.04 -0.3,0.06 -0.45,0.06l-8.93 0zm-0.45 -1.22l0 0 9.83 0 0 -1.41 -9.83 0 0 1.41zm0 -2.8l0 0 9.83 0 0 -1.4 -9.83 0 0 1.4zm5.31 -9.23l0 0 -0.4 0.24 -1.86 -1.12 1.86 6.33 1.87 -6.33 -1.47 0.88zm7.87 -14.68l0 0c-2.12,-2.12 -5.04,-3.43 -8.27,-3.43 -0.43,0 -0.88,0.02 -1.32,0.08 -5.29,0.58 -9.62,4.86 -10.27,10.13 -0.06,0.49 -0.09,0.97 -0.09,1.45 0,3.75 1.79,7.3 4.86,9.52 1.29,0.93 2.3,2.15 2.98,3.54l2.6 0 -3.17 -10.8 4.42 2.66 4.42 -2.66 -3.17 10.8 2.63 0c0.7,-1.39 1.74,-2.63 3.07,-3.62 2.97,-2.19 4.75,-5.72 4.75,-9.41 0,-3.22 -1.31,-6.14 -3.43,-8.26z"/>
    <path class="fil34" d="M169.5 159.3c-1.65,0 -2.98,1.34 -2.98,2.99 0,1.65 1.34,2.98 2.98,2.98 1.65,0 2.98,-1.34 2.98,-2.98 0,-1.65 -1.34,-2.99 -2.98,-2.99zm-6.97 -4.3l0 0 2.63 2.74c1.14,-1.08 2.65,-1.75 4.35,-1.75 1.69,0 3.21,0.67 4.35,1.75l2.63 -2.74c-1.81,-1.74 -4.27,-2.81 -6.97,-2.81 -2.71,0 -5.16,1.07 -6.97,2.81zm6.97 -18.79l0 0c-7,0 -13.34,2.76 -18.02,7.24l2.63 2.75c4,-3.83 9.41,-6.19 15.4,-6.19 5.98,0 11.39,2.35 15.4,6.19l2.63 -2.75c-4.68,-4.48 -11.03,-7.24 -18.02,-7.24zm-12.43 13.09l0 0 2.63 2.74c2.55,-2.44 5.99,-3.94 9.8,-3.95 3.81,0 7.25,1.5 9.8,3.95l2.63 -2.74c-3.23,-3.09 -7.6,-5 -12.43,-5 -4.83,0 -9.2,1.91 -12.43,5z"/>
    <path class="fil33" d="M237.1 158.1c0.16,0.66 0.75,1.12 1.43,1.12l23.48 0c0.68,0 1.27,-0.46 1.43,-1.12l3.47 -14.04 -33.28 0 3.47 14.04zm21.74 -11.54l0 0c0,-0.42 0.34,-0.77 0.77,-0.77 0.42,0 0.77,0.34 0.77,0.77l0 9.84c0,0.42 -0.34,0.77 -0.77,0.77 -0.42,0 -0.77,-0.34 -0.77,-0.77l0 -9.84zm-4.67 0l0 0c0,-0.42 0.34,-0.77 0.77,-0.77 0.42,0 0.77,0.34 0.77,0.77l0 9.84c0,0.42 -0.34,0.77 -0.77,0.77 -0.42,0 -0.77,-0.34 -0.77,-0.77l0 -9.84zm-4.67 0l0 0c0,-0.42 0.34,-0.77 0.77,-0.77 0.42,0 0.77,0.34 0.77,0.77l0 9.84c0,0.42 -0.34,0.77 -0.77,0.77 -0.42,0 -0.77,-0.34 -0.77,-0.77l0 -9.84zm-4.67 0l0 0c0,-0.42 0.34,-0.77 0.77,-0.77 0.42,0 0.77,0.34 0.77,0.77l0 9.84c0,0.42 -0.34,0.77 -0.77,0.77 -0.42,0 -0.77,-0.34 -0.77,-0.77l0 -9.84zm-4.67 0l0 0c0,-0.42 0.34,-0.77 0.77,-0.77 0.42,0 0.77,0.34 0.77,0.77l0 9.84c0,0.42 -0.34,0.77 -0.77,0.77 -0.42,0 -0.77,-0.34 -0.77,-0.77l0 -9.84zm26.71 -6.56l0 0 -4.98 0 -7.2 -7.2c-0.41,-0.41 -1.08,-0.41 -1.49,0 -0.41,0.41 -0.41,1.08 0,1.49l5.72 5.72 -17.29 0 5.72 -5.72c0.41,-0.41 0.41,-1.08 0,-1.49 -0.41,-0.41 -1.08,-0.41 -1.49,0l-7.2 7.2 -4.98 0c-0.82,0 -1.49,0.67 -1.49,1.49 0,0.82 0.67,1.49 1.49,1.49l33.2 0c0.82,0 1.49,-0.67 1.49,-1.49 0,-0.82 -0.67,-1.49 -1.49,-1.49z"/>
    <g>
     <path class="fil15" d="M251.81 252.78l-61.9 0c-0.49,0 -0.88,-0.4 -0.88,-0.88l0 -40.23c0,-0.49 0.4,-0.88 0.88,-0.88l61.9 0c0.49,0 0.88,0.4 0.88,0.88l0 40.23c0,0.49 -0.4,0.88 -0.88,0.88z"/>
     <path class="fil33" d="M193.46 213.36c0,0.59 -0.47,1.06 -1.06,1.06 -0.59,0 -1.06,-0.47 -1.06,-1.06 0,-0.58 0.47,-1.06 1.06,-1.06 0.59,0 1.06,0.47 1.06,1.06z"/>
     <path class="fil33" d="M198.06 213.36c0,0.59 -0.47,1.06 -1.06,1.06 -0.59,0 -1.06,-0.47 -1.06,-1.06 0,-0.58 0.47,-1.06 1.06,-1.06 0.59,0 1.06,0.47 1.06,1.06z"/>
     <path class="fil33" d="M202.65 213.36c0,0.59 -0.47,1.06 -1.06,1.06 -0.59,0 -1.06,-0.47 -1.06,-1.06 0,-0.58 0.47,-1.06 1.06,-1.06 0.59,0 1.06,0.47 1.06,1.06z"/>
     <polygon class="fil35" points="248.98,249.16 214.7,249.16 214.7,218.22 248.98,218.22 "/>
     <polygon class="fil35" points="206.06,219.01 193.95,219.01 193.95,218.22 206.06,218.22 "/>
     <polygon class="fil35" points="212.08,222.95 193.95,222.95 193.95,222.16 212.08,222.16 "/>
     <polygon class="fil35" points="212.08,225.52 193.95,225.52 193.95,224.73 212.08,224.73 "/>
     <polygon class="fil35" points="212.08,228.09 193.95,228.09 193.95,227.3 212.08,227.3 "/>
     <polygon class="fil35" points="212.08,230.66 193.95,230.66 193.95,229.87 212.08,229.87 "/>
     <polygon class="fil35" points="212.08,233.23 193.95,233.23 193.95,232.44 212.08,232.44 "/>
     <polygon class="fil35" points="212.08,235.8 193.95,235.8 193.95,235.01 212.08,235.01 "/>
     <polygon class="fil35" points="212.08,238.37 193.95,238.37 193.95,237.58 212.08,237.58 "/>
     <polygon class="fil35" points="205.87,240.94 193.95,240.94 193.95,240.15 205.87,240.15 "/>
     <g>
      <polygon class="fil15" points="221.95,245.37 217.69,245.37 217.69,222.01 221.95,222.01 "/>
      <polygon class="fil15" points="229.96,245.37 225.7,245.37 225.7,222.01 229.96,222.01 "/>
      <polygon class="fil15" points="237.97,245.37 233.72,245.37 233.72,222.01 237.97,222.01 "/>
      <polygon class="fil15" points="245.98,245.37 241.73,245.37 241.73,222.01 245.98,222.01 "/>
     </g>
     <g>
      <polygon class="fil33" points="221.95,245.37 217.69,245.37 217.69,239.07 221.95,239.07 "/>
      <polygon class="fil33" points="229.96,245.37 225.7,245.37 225.7,235.8 229.96,235.8 "/>
      <polygon class="fil33" points="237.97,245.37 233.72,245.37 233.72,228.09 237.97,228.09 "/>
      <polygon class="fil33" points="245.98,245.37 241.73,245.37 241.73,231.62 245.98,231.62 "/>
     </g>
    </g>
    <g>
     <g>
      <g>
       <path class="fil36" d="M196.28 293.48l-40.24 0 0 -25.28 40.24 0 0 25.28zm-39.94 -0.3l0 0 39.65 0 0 -24.69 -39.65 0 0 24.69z"/>
      </g>
      <g>
       <polygon class="fil36" points="196.13,289.32 156.19,289.32 156.19,289.02 196.13,289.02 "/>
      </g>
      <g>
       <polygon class="fil36" points="196.13,285.15 156.19,285.15 156.19,284.86 196.13,284.86 "/>
      </g>
      <g>
       <polygon class="fil36" points="196.13,280.99 156.19,280.99 156.19,280.69 196.13,280.69 "/>
      </g>
      <g>
       <polygon class="fil36" points="196.13,276.83 156.19,276.83 156.19,276.53 196.13,276.53 "/>
      </g>
      <g>
       <polygon class="fil36" points="196.13,272.66 156.19,272.66 156.19,272.37 196.13,272.37 "/>
      </g>
      <g>
       <polygon class="fil36" points="189.62,293.33 189.32,293.33 189.32,268.35 189.62,268.35 "/>
      </g>
      <g>
       <polygon class="fil36" points="182.96,293.33 182.67,293.33 182.67,268.35 182.96,268.35 "/>
      </g>
      <g>
       <polygon class="fil36" points="176.31,293.33 176.01,293.33 176.01,268.35 176.31,268.35 "/>
      </g>
      <g>
       <polygon class="fil36" points="169.65,293.33 169.35,293.33 169.35,268.35 169.65,268.35 "/>
      </g>
      <g>
       <polygon class="fil36" points="162.99,293.33 162.7,293.33 162.7,268.35 162.99,268.35 "/>
      </g>
     </g>
     <g>
      <path class="fil33" d="M172.87 289.47c-0,0 -0.01,0 -0.02,-0 -0.13,-0.01 -0.25,-0.1 -0.27,-0.24l-3.2 -15.41 -3.73 7.16c-0.05,0.1 -0.15,0.16 -0.26,0.16l-8.22 0c-0.16,0 -0.3,-0.13 -0.3,-0.3 0,-0.16 0.13,-0.3 0.3,-0.3l8.04 0 4.03 -7.73c0.06,-0.11 0.18,-0.17 0.3,-0.16 0.12,0.02 0.22,0.11 0.25,0.23l3.14 15.12 2.95 -9.23c0.03,-0.09 0.1,-0.16 0.18,-0.19 0.09,-0.03 0.18,-0.02 0.26,0.03l2.97 1.92 16.1 0c0.16,0 0.3,0.13 0.3,0.3 0,0.16 -0.13,0.3 -0.3,0.3l-16.19 0c-0.06,0 -0.11,-0.02 -0.16,-0.05l-2.72 -1.76 -3.17 9.93c-0.04,0.12 -0.15,0.21 -0.28,0.21z"/>
     </g>
     <path class="fil32" d="M170.31 272.95c0,0.45 -0.36,0.81 -0.81,0.81 -0.45,0 -0.81,-0.36 -0.81,-0.81 0,-0.45 0.36,-0.81 0.81,-0.81 0.45,0 0.81,0.36 0.81,0.81z"/>
     <path class="fil32" d="M166.2 280.84c0,0.45 -0.36,0.81 -0.81,0.81 -0.45,0 -0.81,-0.36 -0.81,-0.81 0,-0.45 0.36,-0.81 0.81,-0.81 0.45,0 0.81,0.36 0.81,0.81z"/>
     <path class="fil32" d="M157.79 280.84c0,0.45 -0.36,0.81 -0.81,0.81 -0.45,0 -0.81,-0.36 -0.81,-0.81 0,-0.45 0.36,-0.81 0.81,-0.81 0.45,0 0.81,0.36 0.81,0.81z"/>
     <path class="fil32" d="M173.68 289.17c0,0.45 -0.36,0.81 -0.81,0.81 -0.45,0 -0.81,-0.36 -0.81,-0.81 0,-0.45 0.36,-0.81 0.81,-0.81 0.45,0 0.81,0.36 0.81,0.81z"/>
     <path class="fil32" d="M176.97 278.87c0,0.45 -0.36,0.81 -0.81,0.81 -0.45,0 -0.81,-0.36 -0.81,-0.81 0,-0.45 0.36,-0.81 0.81,-0.81 0.45,0 0.81,0.36 0.81,0.81z"/>
     <path class="fil32" d="M196.2 280.84c0,0.45 -0.36,0.81 -0.81,0.81 -0.45,0 -0.81,-0.36 -0.81,-0.81 0,-0.45 0.36,-0.81 0.81,-0.81 0.45,0 0.81,0.36 0.81,0.81z"/>
    </g>
    <path class="fil35" d="M147.74 170.87l-7.96 -7.44c-0.34,-0.32 -0.87,-0.32 -1.21,0l-7.97 7.44c-0.18,0.17 -0.28,0.4 -0.28,0.65l0 10.11c0,0.23 0.09,0.46 0.26,0.63 0.17,0.17 0.39,0.26 0.63,0.26l5.48 0c0,0 0,0 0,0 0.24,0 0.47,-0.1 0.63,-0.26 0.16,-0.16 0.26,-0.38 0.26,-0.63l0 -6.11 3.19 0 0 6.11c0,0.49 0.4,0.89 0.89,0.89 0,0 0,0 0,0l5.49 0c0.23,0 0.46,-0.09 0.63,-0.26 0.17,-0.16 0.26,-0.39 0.26,-0.63l0 -10.11c0,-0.25 -0.1,-0.48 -0.28,-0.65zm-1.49 9.88l0 0 -3.71 0 0 -6.11c0,-0.23 -0.09,-0.46 -0.26,-0.63 -0.17,-0.16 -0.39,-0.26 -0.63,-0.26l-4.96 0c-0.23,0 -0.46,0.09 -0.63,0.26 -0.17,0.17 -0.26,0.39 -0.26,0.63l0 6.11 -3.71 0 0 -8.84 7.08 -6.61 7.08 6.61 0 8.84z"/>
    <g>
     <path class="fil33" d="M312.44 216.64c0,3.43 -1.17,6.21 -4.6,6.21l-17.64 0c-3.43,0 -4.97,-2.78 -4.97,-6.21l0 -6.57c0,-3.43 1.39,-6.21 4.82,-6.21l17.93 0c3.43,0 4.46,2.78 4.46,6.21l0 6.57z"/>
     <polygon class="fil15" points="296.11,209.65 303.52,213.52 296.11,217.39 "/>
    </g>
    <path class="fil37" d="M207.23 136.4l3.12 0 0 -4.9 -3.87 0 -0.8 0c0,0 -2.94,-0.07 -4.81,2.36 0,0 -1.27,1.2 -1.29,4.72l-0 0 0 3.67 -4.62 0 0 5.2 4.62 0 0 13.44 5.32 0 0 -13.44 4.58 0 0.64 -5.2 -5.22 0 0 -3.67 -0 0c0.01,-0.41 0.2,-2.22 2.33,-2.18z"/>
    <g>
     <path class="fil38" d="M314.75 145.23l-9.88 0c-4.38,0 -7.93,3.55 -7.93,7.94l0 9.88c0,4.38 3.55,7.93 7.93,7.93l9.88 0c4.38,0 7.93,-3.55 7.93,-7.93l0 -9.88c0,-4.38 -3.55,-7.94 -7.93,-7.94zm5.46 16.87l0 0c0,3.54 -2.87,6.41 -6.41,6.41l-7.99 0c-3.54,0 -6.41,-2.87 -6.41,-6.41l0 -7.99c0,-3.54 2.87,-6.41 6.41,-6.41l7.99 0c3.54,0 6.41,2.87 6.41,6.41l0 7.99z"/>
     <path class="fil38" d="M310.15 151.37c-3.75,0 -6.78,3.04 -6.78,6.78 0,3.74 3.04,6.78 6.78,6.78 3.75,0 6.78,-3.04 6.78,-6.78 0,-3.75 -3.04,-6.78 -6.78,-6.78zm0 10.86l0 0c-2.26,0 -4.08,-1.83 -4.08,-4.08 0,-2.26 1.83,-4.08 4.08,-4.08 2.25,0 4.08,1.83 4.08,4.08 0,2.25 -1.83,4.08 -4.08,4.08z"/>
     <path class="fil38" d="M318.19 151.27c0,0.95 -0.77,1.73 -1.73,1.73 -0.95,0 -1.72,-0.77 -1.72,-1.73 0,-0.95 0.77,-1.73 1.72,-1.73 0.95,0 1.73,0.77 1.73,1.73z"/>
    </g>
    <g>
     <path class="fil38" d="M201.79 289.5c0,-10.19 8.29,-18.49 18.49,-18.49 10.19,0 18.49,8.29 18.49,18.49 0,10.19 -8.29,18.49 -18.49,18.49 -10.19,0 -18.49,-8.29 -18.49,-18.49z"/>
     <g>
      <path class="fil37" d="M211.13 289.5c0,5.05 4.1,9.15 9.15,9.15 5.05,0 9.15,-4.1 9.15,-9.15 0,-5.05 -4.1,-9.15 -9.15,-9.15 -5.05,0 -9.15,4.1 -9.15,9.15z"/>
      <g>
       <path class="fil39" d="M201.79 289.5c0,-10.19 8.29,-18.49 18.49,-18.49 10.19,0 18.49,8.29 18.49,18.49 0,10.19 -8.29,18.49 -18.49,18.49 -10.19,0 -18.49,-8.29 -18.49,-18.49zm1.76 0l0 0c0,9.22 7.5,16.73 16.73,16.73 9.22,0 16.73,-7.5 16.73,-16.73 0,-9.22 -7.5,-16.73 -16.73,-16.73 -9.22,0 -16.73,7.5 -16.73,16.73z"/>
      </g>
      <path class="fil32" d="M205.31 289.5c0,8.27 6.7,14.97 14.97,14.97 8.27,0 14.97,-6.7 14.97,-14.97 0,-8.27 -6.7,-14.97 -14.97,-14.97 -8.27,0 -14.97,6.7 -14.97,14.97zm6.16 0l0 0c0,-4.86 3.94,-8.8 8.8,-8.8 4.86,0 8.8,3.94 8.8,8.8 0,4.86 -3.94,8.8 -8.8,8.8 -4.86,0 -8.8,-3.94 -8.8,-8.8z"/>
      <path class="fil33" d="M215.88 289.5c0,2.43 1.97,4.4 4.4,4.4 2.43,0 4.4,-1.97 4.4,-4.4 0,-2.43 -1.97,-4.4 -4.4,-4.4 -2.43,0 -4.4,1.97 -4.4,4.4z"/>
      <g>
       <polygon class="fil40" points="201.6,274.56 204.71,273.94 200.36,269.58 197.24,270.2 "/>
       <polygon class="fil40" points="205.34,270.83 204.71,273.94 200.36,269.58 200.98,266.47 "/>
       <g>
        <polygon class="fil39" points="220.28,290.75 221.52,289.5 200.98,268.96 199.73,270.2 "/>
       </g>
       <g>
        <path class="fil39" d="M195.46 269.66l5.19 -1.04 5.85 5.85 -5.19 1.04 -5.85 -5.85zm4.61 0.87l0 0 -1.04 0.21 2.86 2.86 1.04 -0.21 -2.86 -2.86z"/>
       </g>
       <g>
        <path class="fil39" d="M199.4 269.87l1.04 -5.19 5.85 5.85 -1.04 5.19 -5.85 -5.85zm2.12 -1.62l0 0 -0.21 1.04 2.86 2.86 0.21 -1.04 -2.86 -2.86z"/>
       </g>
       <g>
        <polygon class="fil39" points="217.17,291 221.78,291 221.78,286.39 220.02,286.39 220.02,289.24 217.17,289.24 "/>
       </g>
      </g>
     </g>
    </g>
    <g>
     <polygon class="fil35" points="165.6,251.37 158.08,247.02 158.08,255.71 "/>
     <polygon class="fil35" points="157.34,251.37 149.82,247.02 149.82,255.71 "/>
    </g>
    <polygon class="fil39" points="199.03,296.97 153.13,296.97 153.13,296.05 199.03,296.05 "/>
    <polygon class="fil39" points="154.04,266.25 154.04,296.97 153.13,296.97 153.13,266.25 "/>
    <g>
     <polygon class="fil39" points="171.22,232.12 171.22,235.56 167.78,235.56 167.78,232.12 "/>
     <polygon class="fil33" points="171.22,225.87 171.22,229.31 167.78,229.31 167.78,225.87 "/>
     <polygon class="fil31" points="171.22,219.82 171.22,223.26 167.78,223.26 167.78,219.82 "/>
    </g>
    <g>
     <polygon class="fil38" points="290.03,162.58 290.03,166.02 286.59,166.02 286.59,162.58 "/>
     <polygon class="fil33" points="290.03,156.33 290.03,159.77 286.59,159.77 286.59,156.33 "/>
     <polygon class="fil35" points="290.03,150.29 290.03,153.73 286.59,153.73 286.59,150.29 "/>
    </g>
   </g>
   <g>
    <polygon class="fil37" points="299.62,280.46 273.04,280.46 273.04,239.43 299.62,239.43 "/>
    <path class="fil39" d="M272.1 236.8l0 46.56c0,1.49 1.12,2.7 2.5,2.7l23.46 0c1.38,0 2.5,-1.21 2.5,-2.7l0 -46.56c0,-1.49 -1.12,-2.7 -2.5,-2.7l-23.46 0c-1.38,0 -2.5,1.21 -2.5,2.7zm27.52 43.66l0 0 -26.58 0 0 -41.03 26.58 0 0 41.03z"/>
    <path class="fil32" d="M289.36 237.37l-6.06 0c-0.21,0 -0.37,-0.17 -0.37,-0.37 0,-0.21 0.17,-0.37 0.37,-0.37l6.06 0c0.21,0 0.37,0.17 0.37,0.37 0,0.21 -0.17,0.37 -0.37,0.37z"/>
    <path class="fil32" d="M288.01 283.52c0,0.93 -0.75,1.68 -1.68,1.68 -0.93,0 -1.68,-0.75 -1.68,-1.68 0,-0.93 0.75,-1.68 1.68,-1.68 0.93,0 1.68,0.75 1.68,1.68z"/>
    <polygon class="fil41" points="288,241.31 284.66,241.31 284.66,240.43 288,240.43 "/>
    <polygon class="fil41" points="297.68,241.31 294.34,241.31 294.34,240.43 297.68,240.43 "/>
    <polygon class="fil41" points="278.26,241.31 274.92,241.31 274.92,240.43 278.26,240.43 "/>
    <g>
     <path class="fil33" d="M278.34 248.34l-2.41 0c-0.56,0 -1.01,-0.45 -1.01,-1.01l0 -2.41c0,-0.56 0.45,-1.01 1.01,-1.01l2.41 0c0.56,0 1.01,0.45 1.01,1.01l0 2.41c0,0.56 -0.45,1.01 -1.01,1.01z"/>
     <path class="fil38" d="M284.47 248.34l-2.41 0c-0.56,0 -1.01,-0.45 -1.01,-1.01l0 -2.41c0,-0.56 0.45,-1.01 1.01,-1.01l2.41 0c0.56,0 1.01,0.45 1.01,1.01l0 2.41c0,0.56 -0.45,1.01 -1.01,1.01z"/>
     <path class="fil33" d="M290.6 248.34l-2.41 0c-0.56,0 -1.01,-0.45 -1.01,-1.01l0 -2.41c0,-0.56 0.45,-1.01 1.01,-1.01l2.41 0c0.56,0 1.01,0.45 1.01,1.01l0 2.41c0,0.56 -0.45,1.01 -1.01,1.01z"/>
     <path class="fil32" d="M296.73 248.34l-2.41 0c-0.56,0 -1.01,-0.45 -1.01,-1.01l0 -2.41c0,-0.56 0.45,-1.01 1.01,-1.01l2.41 0c0.56,0 1.01,0.45 1.01,1.01l0 2.41c0,0.56 -0.45,1.01 -1.01,1.01z"/>
    </g>
    <g>
     <path class="fil41" d="M278.34 255.32l-2.41 0c-0.56,0 -1.01,-0.45 -1.01,-1.01l0 -2.41c0,-0.56 0.45,-1.01 1.01,-1.01l2.41 0c0.56,0 1.01,0.45 1.01,1.01l0 2.41c0,0.56 -0.45,1.01 -1.01,1.01z"/>
     <path class="fil32" d="M284.47 255.32l-2.41 0c-0.56,0 -1.01,-0.45 -1.01,-1.01l0 -2.41c0,-0.56 0.45,-1.01 1.01,-1.01l2.41 0c0.56,0 1.01,0.45 1.01,1.01l0 2.41c0,0.56 -0.45,1.01 -1.01,1.01z"/>
     <path class="fil38" d="M290.6 255.32l-2.41 0c-0.56,0 -1.01,-0.45 -1.01,-1.01l0 -2.41c0,-0.56 0.45,-1.01 1.01,-1.01l2.41 0c0.56,0 1.01,0.45 1.01,1.01l0 2.41c0,0.56 -0.45,1.01 -1.01,1.01z"/>
     <path class="fil41" d="M296.73 255.32l-2.41 0c-0.56,0 -1.01,-0.45 -1.01,-1.01l0 -2.41c0,-0.56 0.45,-1.01 1.01,-1.01l2.41 0c0.56,0 1.01,0.45 1.01,1.01l0 2.41c0,0.56 -0.45,1.01 -1.01,1.01z"/>
    </g>
    <g>
     <path class="fil38" d="M278.34 262.31l-2.41 0c-0.56,0 -1.01,-0.45 -1.01,-1.01l0 -2.41c0,-0.56 0.45,-1.01 1.01,-1.01l2.41 0c0.56,0 1.01,0.45 1.01,1.01l0 2.41c0,0.56 -0.45,1.01 -1.01,1.01z"/>
     <path class="fil41" d="M284.47 262.31l-2.41 0c-0.56,0 -1.01,-0.45 -1.01,-1.01l0 -2.41c0,-0.56 0.45,-1.01 1.01,-1.01l2.41 0c0.56,0 1.01,0.45 1.01,1.01l0 2.41c0,0.56 -0.45,1.01 -1.01,1.01z"/>
    </g>
   </g>
  </g>
 </g>
 <g
   id="generalt2">
   <rect
   x="10"
   y="10"
   width="10000"
   height="10000"
   style="opacity: 0"
   id="rect135" />
 </g>
</svg>
