<?xml version="1.0" encoding="UTF-8"?>
<!DOCTYPE svg PUBLIC "-//W3C//DTD SVG 1.1//EN" "http://www.w3.org/Graphics/SVG/1.1/DTD/svg11.dtd">
<!-- Creator: CorelDRAW 2019 (64-Bit) -->
<svg xmlns="http://www.w3.org/2000/svg" xml:space="preserve" width="89.0437mm" height="75.0101mm" version="1.1" style="shape-rendering:geometricPrecision; text-rendering:geometricPrecision; image-rendering:optimizeQuality; fill-rule:evenodd; clip-rule:evenodd"
viewBox="0 0 555.57 468.01"
 xmlns:xlink="http://www.w3.org/1999/xlink"
 xmlns:xodm="http://www.corel.com/coreldraw/odm/2003">
 <defs>
  <style type="text/css">
   <![CDATA[
    .fil27 {fill:#B3B3B3}
    .fil25 {fill:#21243B;fill-rule:nonzero}
    .fil9 {fill:#263138;fill-rule:nonzero}
    .fil24 {fill:#2D3133;fill-rule:nonzero}
    .fil13 {fill:#363A5E;fill-rule:nonzero}
    .fil8 {fill:#445964;fill-rule:nonzero}
    .fil23 {fill:#464240;fill-rule:nonzero}
    .fil26 {fill:#48484D;fill-rule:nonzero}
    .fil15 {fill:#494F80;fill-rule:nonzero}
    .fil2 {fill:#858585;fill-rule:nonzero}
    .fil22 {fill:#875726;fill-rule:nonzero}
    .fil17 {fill:#A77860;fill-rule:nonzero}
    .fil1 {fill:#B3B3B3;fill-rule:nonzero}
    .fil21 {fill:#B5A6A1;fill-rule:nonzero}
    .fil18 {fill:#CFBEB8;fill-rule:nonzero}
    .fil19 {fill:#D6C5BE;fill-rule:nonzero}
    .fil0 {fill:#D7EEFC;fill-rule:nonzero}
    .fil16 {fill:#D88A51;fill-rule:nonzero}
    .fil4 {fill:#DFDFDF;fill-rule:nonzero}
    .fil6 {fill:#E8505B;fill-rule:nonzero}
    .fil14 {fill:#EEA886;fill-rule:nonzero}
    .fil3 {fill:#F4F4F4;fill-rule:nonzero}
    .fil5 {fill:#F9F9F9;fill-rule:nonzero}
    .fil20 {fill:#FAA146;fill-rule:nonzero}
    .fil11 {fill:#FF6F59;fill-rule:nonzero}
    .fil12 {fill:#FFAD5B;fill-rule:nonzero}
    .fil7 {fill:white;fill-rule:nonzero}
    .fil10 {fill:white;fill-rule:nonzero}
   ]]>
  </style>
 </defs>
 <g id="Слой_x0020_1">
  <metadata id="CorelCorpID_0Corel-Layer"/>
  <path class="fil0" d="M387.93 414.26c93.73,22.23 163.18,16.9 167.55,-92.58 2.76,-69.12 -58.23,-70.63 -66.5,-97.47 -7.89,-25.61 -0.09,-31.36 19.9,-57.22 39.31,-50.85 41.75,-60.61 22.77,-114.06 -20.59,-57.98 -103.54,-69.13 -160.69,-29.43 -36.77,25.55 -61.87,28.93 -102.63,34.23 -75.61,9.84 -94.04,-54.05 -178,-42.41 -82.95,11.5 -120.76,91.3 -61.52,161.31 40.96,48.41 72.53,52.91 24.72,121.71 -75.41,108.51 44.72,187.66 115.87,166.13 160.59,-48.6 67.9,-85.93 218.52,-50.21z"/>
  <g id="_1919448668944">
   <g>
    <g>
     <g>
      <g>
       <path class="fil1" d="M298.29 285.07l25.96 0c1.83,0 3.31,-1.48 3.31,-3.31l0 -8c0,-3.08 -2.5,-5.57 -5.57,-5.57l-23.89 0 0.2 16.88z"/>
      </g>
     </g>
     <g>
      <g>
       <g>
        <g>
         <path class="fil1" d="M323.81 290.1l-51.04 0c-1.39,0 -2.52,-1.13 -2.52,-2.52 0,-1.39 1.13,-2.52 2.52,-2.52l51.04 0c1.39,0 2.52,1.13 2.52,2.52 0,1.39 -1.13,2.52 -2.52,2.52z"/>
        </g>
       </g>
       <g>
        <g>
         <path class="fil2" d="M262.37 218.05l28.08 -0.5 17.83 67.37 -38.02 0.38 -14.33 -59.06c-1.01,-4.17 2.15,-8.19 6.44,-8.19z"/>
        </g>
       </g>
       <g>
        <g>
         <polygon class="fil1" points="276.35,290.1 267.95,338.93 270.25,338.93 281.3,290.1 "/>
        </g>
       </g>
       <g>
        <g>
         <polygon class="fil2" points="296.16,290.1 287.23,338.93 289.54,338.93 301.11,290.1 "/>
        </g>
       </g>
       <g>
        <g>
         <polygon class="fil1" points="318.07,290.1 328.03,338.93 325.73,338.93 313.12,290.1 "/>
        </g>
       </g>
      </g>
     </g>
     <g>
      <g>
       <path class="fil1" d="M287.23 217.56l13.9 67.44 10.66 0 -11.14 -59.59c-0.84,-4.55 -4.81,-7.85 -9.44,-7.85l-3.97 0z"/>
      </g>
     </g>
    </g>
   </g>
   <g>
    <g>
     <g>
      <g>
       <g>
        <polygon class="fil1" points="330.35,242.08 368.78,242.08 368.78,240.21 330.35,240.21 "/>
       </g>
      </g>
      <g>
       <g>
        <polygon class="fil1" points="374.74,242.08 381.95,215.07 351.94,215.07 345.41,242.08 "/>
       </g>
      </g>
     </g>
     <g>
      <g>
       <polygon class="fil2" points="347.21,240.04 374.02,240.04 380.26,216.31 353.31,216.31 "/>
      </g>
     </g>
    </g>
    <g>
     <g>
      <g>
       <g>
        <polygon class="fil3" points="324.67,340.29 322.73,340.29 322.73,247.62 324.67,247.62 "/>
       </g>
      </g>
      <g>
       <g>
        <polygon class="fil1" points="326.61,340.29 324.67,340.29 324.67,247.88 326.61,247.88 "/>
       </g>
      </g>
     </g>
     <g>
      <g>
       <g>
        <polygon class="fil1" points="444.26,340.29 442.32,340.29 442.32,247.62 444.26,247.62 "/>
       </g>
      </g>
      <g>
       <g>
        <polygon class="fil2" points="446.2,340.29 444.26,340.29 444.26,247.88 446.2,247.88 "/>
       </g>
      </g>
     </g>
     <g>
      <g>
       <polygon class="fil2" points="461.79,249.83 314.35,249.83 314.35,242.23 461.79,242.23 "/>
      </g>
     </g>
     <g>
      <g>
       <polygon class="fil1" points="443.29,262.41 378.38,262.41 378.38,249.83 443.29,249.83 "/>
      </g>
     </g>
     <g>
      <g>
       <path class="fil4" d="M413.73 255.26c0,0.8 -0.65,1.45 -1.45,1.45 -0.8,0 -1.45,-0.65 -1.45,-1.45 0,-0.8 0.65,-1.45 1.45,-1.45 0.8,0 1.45,0.65 1.45,1.45z"/>
      </g>
     </g>
    </g>
   </g>
   <g>
    <g>
     <g>
      <g>
       <polygon class="fil4" points="424.01,162.09 422.65,162.09 422.65,149.89 424.01,149.89 "/>
      </g>
     </g>
     <g>
      <g>
       <polygon class="fil2" points="468.97,162.09 467.61,162.09 467.61,149.89 468.97,149.89 "/>
      </g>
     </g>
     <g>
      <g>
       <polygon class="fil1" points="474.78,149.89 417.61,149.89 417.61,144.98 474.78,144.98 "/>
      </g>
     </g>
    </g>
    <g>
     <g>
      <g>
       <g>
        <polygon class="fil3" points="455.61,108.24 455.61,144.98 463.49,144.98 463.49,108.24 "/>
       </g>
      </g>
      <g>
       <g>
        <path class="fil2" d="M461.27 136.16c0,0.86 -0.7,1.56 -1.56,1.56 -0.86,0 -1.56,-0.7 -1.56,-1.56 0,-0.86 0.7,-1.56 1.56,-1.56 0.86,0 1.56,0.7 1.56,1.56z"/>
       </g>
      </g>
      <g>
       <g>
        <polygon class="fil2" points="458.43,132.99 460.85,132.99 460.85,117.97 458.43,117.97 "/>
       </g>
      </g>
     </g>
     <g>
      <g>
       <g>
        <polygon class="fil1" points="447.6,108.24 447.6,144.98 455.48,144.98 455.48,108.24 "/>
       </g>
      </g>
      <g>
       <g>
        <path class="fil5" d="M453.26 136.16c0,0.86 -0.7,1.56 -1.56,1.56 -0.86,0 -1.56,-0.7 -1.56,-1.56 0,-0.86 0.7,-1.56 1.56,-1.56 0.86,0 1.56,0.7 1.56,1.56z"/>
       </g>
      </g>
      <g>
       <g>
        <polygon class="fil5" points="450.43,132.99 452.84,132.99 452.84,117.97 450.43,117.97 "/>
       </g>
      </g>
     </g>
     <g>
      <g>
       <g>
        <polygon class="fil2" points="439.97,108.24 439.97,144.98 447.86,144.98 447.86,108.24 "/>
       </g>
      </g>
      <g>
       <g>
        <path class="fil5" d="M445.64 136.16c0,0.86 -0.7,1.56 -1.56,1.56 -0.86,0 -1.56,-0.7 -1.56,-1.56 0,-0.86 0.7,-1.56 1.56,-1.56 0.86,0 1.56,0.7 1.56,1.56z"/>
       </g>
      </g>
      <g>
       <g>
        <polygon class="fil5" points="442.8,132.99 445.21,132.99 445.21,117.97 442.8,117.97 "/>
       </g>
      </g>
     </g>
     <g>
      <g>
       <polygon class="fil2" points="430.23,144.42 439.7,112.1 436.43,110.67 426.72,143.25 "/>
      </g>
     </g>
    </g>
   </g>
   <g>
    <g>
     <g>
      <path class="fil2" d="M210.57 279.43c3.21,-1.66 6.99,-1.87 10.56,-1.28 1.92,0.32 3.91,0.89 5.21,2.33 1.3,1.44 1.55,3.97 0.05,5.21 -0.89,0.74 -2.13,0.85 -3.29,0.83 -2.79,-0.03 -5.89,-0.52 -8.12,1.15 -1.27,0.96 -2.12,2.55 -3.64,3.02 -1.49,0.46 -3.17,-0.42 -3.96,-1.76 -0.79,-1.34 -0.82,-3.02 -0.45,-4.53 0,0 0.39,-3.3 3.62,-4.97z"/>
     </g>
     <g>
      <path class="fil2" d="M203.21 265.22c1.96,2.8 5.78,1.88 7.55,0.16 1.77,-1.71 2.52,-4.19 3.2,-6.56 1.56,-5.41 3.12,-11.08 1.97,-16.58 -0.35,-1.65 -0.96,-3.29 -2.12,-4.51 -1.16,-1.22 -2.93,-1.95 -4.56,-1.52 -1.92,0.51 -3.12,2.39 -3.98,4.19 -2.54,5.27 -3.89,11.11 -3.91,16.96 -0.01,2.73 0.31,5.6 1.85,7.85z"/>
     </g>
     <g>
      <path class="fil2" d="M197.82 269.25c2.13,-2.53 2.54,-6.22 1.59,-9.39 -0.95,-3.17 -3.09,-5.87 -5.56,-8.07 -2.9,-2.58 -6.3,-4.59 -9.96,-5.88 -1.44,-0.51 -2.96,-0.91 -4.48,-0.76 -1.52,0.15 -3.05,0.92 -3.76,2.27 -1.05,2 -0.04,4.42 1.04,6.4 1.91,3.48 4.1,6.82 6.54,9.96 1.96,2.53 4.21,5.02 7.19,6.16 2.99,1.14 6.09,1.01 7.68,-1.06l-0.29 0.36z"/>
     </g>
     <g>
      <g>
       <path class="fil1" d="M203.08 307.53c0.04,0 0.1,-0.45 0.18,-1.27 0.09,-0.93 0.2,-2.09 0.34,-3.48 0.16,-1.46 0.38,-3.2 0.78,-5.1 0.4,-1.89 1.04,-3.94 1.85,-6.02 0.84,-2.07 1.87,-3.94 3.07,-5.45 1.19,-1.51 2.58,-2.6 3.89,-3.23 1.3,-0.64 2.47,-0.9 3.27,-1.02 0.81,-0.08 1.27,-0.15 1.27,-0.18 0,-0.04 -0.46,-0.04 -1.29,-0.02 -0.83,0.05 -2.04,0.26 -3.41,0.89 -1.38,0.61 -2.85,1.72 -4.1,3.26 -1.26,1.53 -2.33,3.45 -3.19,5.56 -0.83,2.12 -1.45,4.19 -1.84,6.12 -0.39,1.93 -0.56,3.69 -0.68,5.17 -0.11,1.48 -0.15,2.67 -0.17,3.5 -0.02,0.83 -0.01,1.28 0.03,1.29z"/>
      </g>
     </g>
     <g>
      <g>
       <path class="fil1" d="M203.32 304.85c0.02,-0 0.03,-0.2 0.03,-0.59 -0,-0.44 -0,-1 -0,-1.69 -0,-1.47 -0,-3.59 0.07,-6.21 0.13,-5.24 0.58,-10.89 1.45,-18.84 0.83,-7.48 1.93,-16.19 3.1,-21.85 0.25,-1.29 0.5,-2.45 0.74,-3.46 0.23,-1.02 0.42,-1.89 0.61,-2.6 0.16,-0.67 0.29,-1.21 0.4,-1.64 0.08,-0.38 0.12,-0.58 0.1,-0.58 -0.02,-0 -0.09,0.19 -0.21,0.55 -0.13,0.43 -0.29,0.96 -0.49,1.62 -0.22,0.7 -0.44,1.57 -0.7,2.59 -0.27,1.01 -0.54,2.17 -0.82,3.45 -1.16,5.13 -2.38,12.3 -3.26,20.27 -0.87,7.97 -1.27,15.23 -1.3,20.49 -0.03,2.63 0.02,4.76 0.09,6.22 0.04,0.69 0.08,1.25 0.1,1.69 0.03,0.39 0.05,0.59 0.07,0.59z"/>
      </g>
     </g>
     <g>
      <g>
       <path class="fil1" d="M203.35 290.85c0.04,-0 0.03,-0.63 -0.01,-1.77 -0.06,-1.13 -0.22,-2.78 -0.54,-4.78 -0.34,-2 -0.81,-4.39 -1.56,-6.97 -0.32,-1.18 -1.08,-4.02 -2.92,-8.25 -2.42,-5.74 -5.7,-10.43 -8.56,-13.33 -0.67,-0.77 -1.42,-1.33 -2.01,-1.87 -0.31,-0.26 -0.58,-0.52 -0.86,-0.73 -0.28,-0.19 -0.54,-0.37 -0.78,-0.54 -0.94,-0.64 -1.47,-0.98 -1.49,-0.95 -0.08,0.11 2.11,1.4 4.87,4.35 2.76,2.94 5.95,7.6 8.35,13.28 1.34,3.08 2.27,5.84 2.93,8.17 0.76,2.56 1.27,4.92 1.66,6.9 0.37,1.99 0.58,3.61 0.7,4.74 0.11,1.13 0.18,1.75 0.22,1.75z"/>
      </g>
     </g>
    </g>
    <g>
     <polygon class="fil1" points="189.82,315.55 191.22,334.77 215.92,334.77 217.32,315.55 "/>
    </g>
    <g>
     <polygon class="fil2" points="187.43,307.97 187.43,315.55 220.27,315.55 220.27,307.97 "/>
    </g>
    <g>
     <polygon class="fil2" points="187.43,334.04 187.43,336.14 188.98,336.14 219.73,336.14 219.73,334.04 "/>
    </g>
    <g>
     <polygon class="fil2" points="190.49,339.83 188.98,336.14 218.55,336.14 216.78,339.83 "/>
    </g>
    <g>
     <g>
      <path class="fil3" d="M216.86 321.83c0,0 -0.03,0.06 -0.12,0.18 -0.1,0.13 -0.22,0.29 -0.37,0.49 -0.35,0.45 -0.83,1.07 -1.44,1.84l-0.06 0.08 -0.06 -0.09c-0.9,-1.25 -2.11,-2.92 -3.53,-4.89l0.2 0c-1.05,1.49 -2.22,3.15 -3.48,4.93l-0.11 0.15 -0.12 -0.15c-1.28,-1.53 -2.68,-3.19 -4.13,-4.91l0.24 -0c-0.07,0.09 -0.15,0.19 -0.23,0.29 -1.28,1.6 -2.52,3.16 -3.69,4.63l-0.12 0.15 -0.11 -0.16c-1.25,-1.77 -2.42,-3.43 -3.48,-4.93l0.2 0.01c-1.72,1.95 -3.17,3.61 -4.29,4.88l-0.08 0.09 -0.06 -0.1c-0.57,-0.95 -1.02,-1.71 -1.34,-2.26 -0.14,-0.25 -0.25,-0.44 -0.34,-0.6 -0.08,-0.14 -0.11,-0.21 -0.1,-0.21 0.01,-0 0.05,0.06 0.14,0.19 0.1,0.15 0.23,0.34 0.38,0.58 0.34,0.54 0.82,1.28 1.41,2.21l-0.13 -0.01c1.1,-1.29 2.53,-2.97 4.22,-4.94l0.11 -0.12 0.1 0.13c1.07,1.49 2.25,3.14 3.51,4.9l-0.24 -0.01c1.17,-1.47 2.4,-3.03 3.68,-4.63 0.08,-0.1 0.16,-0.2 0.23,-0.29l0.12 -0.15 0.12 0.14c1.44,1.73 2.84,3.39 4.12,4.92l-0.23 0.01c1.27,-1.77 2.45,-3.42 3.51,-4.9l0.1 -0.14 0.1 0.14c1.39,1.99 2.57,3.68 3.46,4.94l-0.13 -0c0.63,-0.76 1.13,-1.36 1.5,-1.79 0.16,-0.19 0.29,-0.34 0.4,-0.46 0.09,-0.1 0.14,-0.15 0.15,-0.15z"/>
     </g>
    </g>
    <g>
     <g>
      <path class="fil3" d="M217.66 315.42c0,0.08 -6.19,0.15 -13.82,0.15 -7.63,0 -13.82,-0.07 -13.82,-0.15 0,-0.08 6.19,-0.15 13.82,-0.15 7.63,0 13.82,0.07 13.82,0.15z"/>
     </g>
    </g>
    <g>
     <g>
      <path class="fil3" d="M218.91 336.34c0,0.08 -6.72,0.15 -15.02,0.15 -8.3,0 -15.02,-0.07 -15.02,-0.15 0,-0.08 6.72,-0.15 15.02,-0.15 8.29,0 15.02,0.07 15.02,0.15z"/>
     </g>
    </g>
   </g>
   <g>
    <g>
     <path class="fil6" d="M159.61 72.87c0,18.02 -14.61,32.64 -32.64,32.64 -18.02,0 -32.64,-14.61 -32.64,-32.64 0,-18.02 14.61,-32.64 32.64,-32.64 18.02,0 32.64,14.61 32.64,32.64z"/>
    </g>
    <g>
     <path class="fil7" d="M126.98 100.04c-14.98,0 -27.16,-12.19 -27.16,-27.16 0,-14.98 12.19,-27.16 27.16,-27.16 14.98,0 27.16,12.19 27.16,27.16 0,14.98 -12.19,27.16 -27.16,27.16zm0 -49.68l0 0c-12.41,0 -22.51,10.1 -22.51,22.51 0,12.41 10.1,22.52 22.51,22.52 12.41,0 22.52,-10.1 22.52,-22.52 0,-12.41 -10.1,-22.51 -22.52,-22.51z"/>
    </g>
    <g>
     <path class="fil7" d="M126.79 82.16c-5.52,0 -10,-4.49 -10,-10 0,-5.52 4.49,-10 10,-10 5.52,0 10,4.49 10,10 0,5.52 -4.49,10 -10,10zm0 -15.36l0 0c-2.95,0 -5.36,2.4 -5.36,5.36 0,2.95 2.4,5.36 5.36,5.36 2.95,0 5.36,-2.4 5.36,-5.36 0,-2.95 -2.4,-5.36 -5.36,-5.36z"/>
    </g>
    <g>
     <polygon class="fil8" points="126.79,72.16 114.15,72.16 116.35,76.06 86.59,89.7 87.59,91.37 117.46,77.89 119.5,81.76 "/>
    </g>
    <g>
     <path class="fil9" d="M86.59 89.7l-0.32 -0.31c-1.56,-1.52 -3.82,-2.08 -5.91,-1.47l-11.87 3.46 6.61 2.91 -2.66 7.06 11.14 -3.97c2.51,-0.9 4.14,-3.33 4.01,-6l-1 -1.67z"/>
    </g>
   </g>
   <g>
    <g>
     <g>
      <path class="fil5" d="M398.86 159.02l-75.66 0c-1.81,0 -3.28,-1.47 -3.28,-3.28l0 -71.05c0,-1.81 1.47,-3.28 3.28,-3.28l75.66 0c1.81,0 3.28,1.47 3.28,3.28l0 71.05c0,1.81 -1.47,3.28 -3.28,3.28z"/>
     </g>
     <g>
      <g>
       <path class="fil9" d="M398.86 159.02c-0,-0.02 0.28,0.01 0.8,-0.12 0.51,-0.13 1.29,-0.47 1.88,-1.33 0.28,-0.43 0.51,-0.98 0.54,-1.62 0.02,-0.64 0,-1.35 0,-2.11 -0,-1.53 -0.01,-3.29 -0.02,-5.28 -0.01,-7.95 -0.03,-19.45 -0.05,-33.65 -0.01,-7.1 -0.01,-14.88 -0.02,-23.24 -0,-2.09 -0,-4.21 -0,-6.37 0,-0.55 0.02,-1.07 -0.15,-1.56 -0.17,-0.49 -0.44,-0.95 -0.82,-1.31 -0.38,-0.36 -0.85,-0.63 -1.36,-0.76 -0.5,-0.15 -1.05,-0.1 -1.61,-0.1 -4.45,0 -9.03,0 -13.72,0.01 -18.78,0 -39.43,0.01 -61.11,0.01 -1.3,-0.02 -2.53,0.87 -2.94,2.08 -0.23,0.6 -0.17,1.26 -0.18,1.94l0 2.01c0,2.68 -0,5.34 -0,7.98 -0,5.28 -0,10.48 -0,15.59 -0,10.22 -0.01,20.08 -0.01,29.48 -0,4.7 -0,9.28 -0.01,13.73 0.01,0.55 -0.01,1.12 0.01,1.65 0.05,0.53 0.23,1.03 0.52,1.47 0.59,0.87 1.62,1.4 2.66,1.38 2.16,0 4.28,0 6.37,0 8.35,0.01 16.13,0.01 23.24,0.02 14.2,0.02 25.7,0.04 33.65,0.05 3.97,0.01 7.05,0.02 9.15,0.03 1.04,0.01 1.84,0.01 2.38,0.02 0.54,0.01 0.81,0.02 0.81,0.02 0,0 -0.27,0.01 -0.81,0.02 -0.54,0 -1.34,0.01 -2.38,0.02 -2.1,0.01 -5.18,0.02 -9.15,0.03 -7.95,0.01 -19.44,0.03 -33.65,0.05 -7.1,0.01 -14.88,0.01 -23.24,0.02 -2.09,0 -4.21,0 -6.37,0 -1.13,0.03 -2.26,-0.55 -2.9,-1.5 -0.32,-0.48 -0.52,-1.03 -0.58,-1.61 -0.03,-0.58 -0.01,-1.11 -0.02,-1.68 -0,-4.45 -0,-9.03 -0.01,-13.73 -0,-9.39 -0.01,-19.25 -0.01,-29.48 -0,-5.11 -0,-10.31 -0,-15.59 -0,-2.64 -0,-5.3 -0,-7.98l-0 -2.01 0 -1.01c0,-0.35 0.08,-0.71 0.19,-1.04 0.45,-1.35 1.82,-2.34 3.26,-2.31 21.67,0 42.33,0.01 61.11,0.01 4.7,0 9.27,0 13.72,0.01l0.83 0c0.29,0.01 0.58,0.03 0.86,0.12 0.56,0.14 1.07,0.44 1.49,0.83 0.42,0.39 0.72,0.9 0.9,1.43 0.19,0.54 0.16,1.13 0.16,1.65 -0,2.16 -0,4.28 -0,6.37 -0.01,8.35 -0.01,16.13 -0.02,23.24 -0.02,14.2 -0.04,25.7 -0.05,33.65 -0.01,1.99 -0.01,3.75 -0.02,5.28 -0.01,0.77 0,1.47 -0.02,2.12 -0.04,0.66 -0.28,1.22 -0.57,1.66 -0.62,0.87 -1.42,1.21 -1.93,1.33 -0.53,0.12 -0.81,0.09 -0.81,0.09z"/>
      </g>
     </g>
    </g>
    <g>
     <g>
      <polygon class="fil6" points="338.7,150.56 334.27,150.56 334.27,112.48 338.7,112.48 "/>
     </g>
     <g>
      <polygon class="fil6" points="358.84,150.56 354.41,150.56 354.41,109.39 358.84,109.39 "/>
     </g>
     <g>
      <polygon class="fil6" points="379.71,150.56 375.27,150.56 375.27,104.16 379.71,104.16 "/>
     </g>
     <g>
      <polygon class="fil9" points="369.91,150.56 365.47,150.56 365.47,132.02 369.91,132.02 "/>
     </g>
     <g>
      <polygon class="fil8" points="343.86,150.56 339.43,150.56 339.43,108.4 343.86,108.4 "/>
     </g>
     <g>
      <polygon class="fil8" points="364.37,150.56 359.94,150.56 359.94,99.57 364.37,99.57 "/>
     </g>
     <g>
      <polygon class="fil9" points="391.14,150.56 386.7,150.56 386.7,99.57 391.14,99.57 "/>
     </g>
     <g>
      <polygon class="fil8" points="385.63,150.56 381.19,150.56 381.19,89.5 385.63,89.5 "/>
     </g>
     <g>
      <polygon class="fil9" points="349.29,150.56 344.85,150.56 344.85,123.8 349.29,123.8 "/>
     </g>
     <g>
      <g>
       <path class="fil9" d="M397.48 152.87c0,0.1 -15.81,0.17 -35.32,0.17 -19.51,0 -35.32,-0.08 -35.32,-0.17 0,-0.1 15.81,-0.17 35.32,-0.17 19.5,0 35.32,0.08 35.32,0.17z"/>
      </g>
     </g>
     <g>
      <polygon class="fil9" points="327.49,144.8 324.78,144.8 324.78,143.79 327.49,143.79 "/>
     </g>
     <g>
      <polygon class="fil9" points="327.49,131.25 324.78,131.25 324.78,130.24 327.49,130.24 "/>
     </g>
     <g>
      <polygon class="fil9" points="327.49,105.75 324.78,105.75 324.78,104.73 327.49,104.73 "/>
     </g>
     <g>
      <polygon class="fil9" points="327.49,92.93 324.78,92.93 324.78,91.91 327.49,91.91 "/>
     </g>
     <g>
      <polygon class="fil9" points="327.63,118.5 324.92,118.5 324.92,117.48 327.63,117.48 "/>
     </g>
    </g>
   </g>
   <g>
    <g>
     <g>
      <polygon class="fil10" points="331.77,228.83 178.8,228.83 178.8,109.78 331.77,109.78 "/>
     </g>
     <g>
      <g>
       <path class="fil9" d="M331.77 228.83c-0,-1.19 -0.06,-47.21 -0.14,-119.05l0.14 0.14c-43.53,0.01 -96.22,0.02 -152.96,0.03l-0.01 0 0.17 -0.17c-0.01,42.91 -0.01,83.5 -0.02,119.05l-0.16 -0.16c90.78,0.09 151.61,0.15 152.97,0.16 -1.36,0 -62.19,0.06 -152.97,0.16l-0.16 0 0 -0.16c-0.01,-35.55 -0.01,-76.14 -0.02,-119.05l0 -0.17 0.17 0 0.01 0c56.74,0.01 109.43,0.02 152.96,0.03l0.14 0 0 0.14c-0.09,71.85 -0.14,117.87 -0.14,119.05z"/>
      </g>
     </g>
    </g>
    <g>
     <g>
      <g>
       <path class="fil9" d="M224 214.24c-0.1,0 -0.17,-12.01 -0.17,-26.83 0,-14.82 0.08,-26.83 0.17,-26.83 0.09,0 0.17,12.01 0.17,26.83 0,14.82 -0.08,26.83 -0.17,26.83z"/>
      </g>
     </g>
     <g>
      <g>
       <path class="fil9" d="M285.64 214.24c-0.1,0 -0.17,-12.01 -0.17,-26.83 0,-14.82 0.08,-26.83 0.17,-26.83 0.1,0 0.17,12.01 0.17,26.83 0,14.82 -0.08,26.83 -0.17,26.83z"/>
      </g>
     </g>
     <g>
      <g>
       <path class="fil9" d="M245.04 214.24c-0.1,0 -0.17,-15.36 -0.17,-34.3 0,-18.95 0.08,-34.3 0.17,-34.3 0.1,0 0.17,15.35 0.17,34.3 0,18.94 -0.08,34.3 -0.17,34.3z"/>
      </g>
     </g>
     <g>
      <g>
       <path class="fil9" d="M202.39 214.24c-0.1,0 -0.17,-15.36 -0.17,-34.3 0,-18.95 0.08,-34.3 0.17,-34.3 0.1,0 0.17,15.35 0.17,34.3 0,18.94 -0.08,34.3 -0.17,34.3z"/>
      </g>
     </g>
     <g>
      <g>
       <path class="fil9" d="M309.83 214.24c-0.1,0 -0.17,-15.36 -0.17,-34.3 0,-18.95 0.08,-34.3 0.17,-34.3 0.1,0 0.17,15.35 0.17,34.3 0,18.94 -0.08,34.3 -0.17,34.3z"/>
      </g>
     </g>
     <g>
      <g>
       <path class="fil9" d="M263.5 214.24c-0.1,0 -0.17,-17.73 -0.17,-39.6 0,-21.88 0.08,-39.61 0.17,-39.61 0.1,0 0.17,17.73 0.17,39.61 0,21.87 -0.08,39.6 -0.17,39.6z"/>
      </g>
     </g>
     <g>
      <path class="fil9" d="M224.5 160.58c0,0.28 -0.23,0.5 -0.5,0.5 -0.28,0 -0.5,-0.23 -0.5,-0.5 0,-0.28 0.23,-0.5 0.5,-0.5 0.28,0 0.5,0.23 0.5,0.5z"/>
     </g>
     <g>
      <path class="fil9" d="M245.55 145.64c0,0.28 -0.23,0.5 -0.5,0.5 -0.28,0 -0.5,-0.23 -0.5,-0.5 0,-0.28 0.23,-0.5 0.5,-0.5 0.28,0 0.5,0.23 0.5,0.5z"/>
     </g>
     <g>
      <path class="fil6" d="M245.04 147.44c-0.99,0 -1.79,-0.8 -1.79,-1.79 0,-0.99 0.8,-1.79 1.79,-1.79 0.99,0 1.79,0.8 1.79,1.79 0,0.99 -0.8,1.79 -1.79,1.79zm0 -3.42l0 0c-0.9,0 -1.62,0.73 -1.62,1.62 0,0.9 0.73,1.62 1.62,1.62 0.9,0 1.63,-0.73 1.63,-1.62 0,-0.9 -0.73,-1.62 -1.63,-1.62z"/>
     </g>
     <g>
      <path class="fil9" d="M264 135.04c0,0.28 -0.23,0.5 -0.5,0.5 -0.28,0 -0.5,-0.23 -0.5,-0.5 0,-0.28 0.23,-0.5 0.5,-0.5 0.28,0 0.5,0.23 0.5,0.5z"/>
     </g>
     <g>
      <path class="fil9" d="M286.14 161.09c0,0.28 -0.23,0.5 -0.5,0.5 -0.28,0 -0.5,-0.23 -0.5,-0.5 0,-0.28 0.23,-0.5 0.5,-0.5 0.28,0 0.5,0.23 0.5,0.5z"/>
     </g>
     <g>
      <path class="fil9" d="M310.34 145.64c0,0.28 -0.23,0.5 -0.5,0.5 -0.28,0 -0.5,-0.23 -0.5,-0.5 0,-0.28 0.23,-0.5 0.5,-0.5 0.28,0 0.5,0.23 0.5,0.5z"/>
     </g>
     <g>
      <path class="fil9" d="M202.89 146.15c0,0.28 -0.23,0.5 -0.5,0.5 -0.28,0 -0.5,-0.23 -0.5,-0.5 0,-0.28 0.23,-0.5 0.5,-0.5 0.28,0 0.5,0.23 0.5,0.5z"/>
     </g>
     <g>
      <g>
       <path class="fil6" d="M314.6 169.92c0.01,0.06 -0.55,0.14 -1.53,0.55 -0.97,0.42 -2.29,1.29 -3.63,2.8 -1.36,1.49 -2.73,3.56 -4.45,5.9 -0.87,1.16 -1.84,2.39 -3.04,3.55 -0.59,0.59 -1.27,1.13 -1.98,1.65 -0.74,0.49 -1.53,0.96 -2.39,1.32 -1.73,0.72 -3.71,1.07 -5.74,0.98 -1.01,-0.05 -2.05,-0.12 -3.09,-0.38 -1.04,-0.22 -2.09,-0.66 -3.01,-1.32 -0.92,-0.65 -1.71,-1.51 -2.35,-2.44 -0.65,-0.93 -1.22,-1.91 -1.78,-2.91 -1.11,-2 -2.26,-4 -3.56,-6.03 -1.29,-2.05 -2.48,-4.21 -3.81,-6.33 -1.33,-2.11 -2.79,-4.2 -4.63,-5.97 -0.95,-0.83 -1.94,-1.66 -3.1,-2.2 -0.55,-0.33 -1.17,-0.48 -1.76,-0.72 -0.31,-0.08 -0.62,-0.14 -0.94,-0.21l-0.47 -0.1c-0.16,-0.03 -0.32,-0.03 -0.48,-0.04 -2.57,-0.22 -5.27,0.31 -7.6,1.62 -2.33,1.33 -4.21,3.31 -5.81,5.42 -1.6,2.13 -2.9,4.44 -4.18,6.71 -2.53,4.58 -5.32,8.95 -9.01,12.22 -1.85,1.6 -3.96,2.92 -6.27,3.49 -1.14,0.33 -2.32,0.39 -3.46,0.38 -1.15,-0.05 -2.26,-0.29 -3.31,-0.62 -2.1,-0.69 -3.92,-1.8 -5.57,-2.92 -1.65,-1.14 -3.15,-2.31 -4.62,-3.37 -1.46,-1.07 -2.89,-2 -4.36,-2.66 -1.46,-0.67 -2.93,-1.09 -4.34,-1.24 -1.4,-0.15 -2.73,-0.08 -3.9,0.24 -0.3,0.05 -0.57,0.18 -0.84,0.27 -0.27,0.1 -0.55,0.17 -0.79,0.31 -0.48,0.26 -0.98,0.45 -1.38,0.76 -0.86,0.52 -1.5,1.14 -2.09,1.65 -0.51,0.58 -1,1.03 -1.32,1.46 -0.65,0.85 -1,1.28 -1.03,1.27 -0.03,-0.02 0.27,-0.5 0.87,-1.39 0.3,-0.45 0.76,-0.94 1.26,-1.55 0.57,-0.54 1.21,-1.2 2.08,-1.77 0.4,-0.33 0.91,-0.54 1.41,-0.83 0.25,-0.15 0.54,-0.23 0.82,-0.34 0.29,-0.1 0.57,-0.24 0.88,-0.3 1.22,-0.36 2.61,-0.47 4.08,-0.34 1.47,0.14 3.01,0.55 4.54,1.22 1.54,0.66 3.04,1.61 4.52,2.66 1.49,1.05 3.01,2.21 4.64,3.31 1.63,1.09 3.4,2.13 5.38,2.76 0.99,0.3 2.02,0.51 3.08,0.55 1.06,0 2.14,-0.06 3.2,-0.38 2.13,-0.54 4.11,-1.78 5.87,-3.33 3.52,-3.15 6.25,-7.44 8.75,-12 1.28,-2.28 2.59,-4.63 4.24,-6.83 1.64,-2.18 3.61,-4.28 6.12,-5.71 2.52,-1.41 5.42,-1.99 8.22,-1.74 0.18,0.02 0.35,0.01 0.53,0.05l0.52 0.11c0.34,0.08 0.69,0.14 1.03,0.23 0.65,0.26 1.34,0.43 1.94,0.79 1.26,0.59 2.32,1.48 3.33,2.37 1.94,1.87 3.43,4.04 4.77,6.18 1.34,2.15 2.52,4.32 3.78,6.34 1.29,2.03 2.46,4.1 3.54,6.09 1.1,1.97 2.18,3.93 3.83,5.1 0.81,0.59 1.74,1 2.71,1.21 0.96,0.25 1.95,0.33 2.92,0.39 1.94,0.1 3.8,-0.2 5.43,-0.86 0.82,-0.33 1.57,-0.76 2.28,-1.21 0.69,-0.49 1.34,-0.99 1.92,-1.55 1.18,-1.1 2.15,-2.29 3.03,-3.42 1.75,-2.28 3.18,-4.34 4.62,-5.82 1.42,-1.49 2.83,-2.34 3.85,-2.71 0.52,-0.17 0.91,-0.28 1.19,-0.32 0.27,-0.04 0.41,-0.06 0.42,-0.04z"/>
      </g>
     </g>
     <g>
      <polygon class="fil9" points="226.65,126.79 201.89,126.79 201.89,125.42 226.65,125.42 "/>
     </g>
     <g>
      <polygon class="fil9" points="214.12,130.02 201.89,130.02 201.89,128.64 214.12,128.64 "/>
     </g>
    </g>
    <g>
     <polygon class="fil9" points="331.77,115.87 178.8,115.87 178.8,106.3 331.77,106.3 "/>
    </g>
   </g>
   <path class="fil11" d="M128.21 245.25l5.06 2.2c0.2,-0.45 0.38,-0.91 0.54,-1.38 1.68,-4.7 1.67,-9.59 0.29,-14.01l-5.27 1.65c1.04,3.31 1.04,6.98 -0.21,10.5 -0.13,0.35 -0.26,0.7 -0.41,1.03z"/>
   <path class="fil12" d="M129.85 252.95c1.38,-1.62 2.54,-3.46 3.42,-5.49l-5.06 -2.2c-0.66,1.53 -1.53,2.91 -2.56,4.12l4.2 3.58z"/>
   <path class="fil13" d="M176.93 371.54c0,0 5.43,7.63 4.69,8.84 -0.74,1.21 -6.46,1.38 -9.93,0 -3.48,-1.38 -3.56,-10.33 -5.13,-14.17 -0.66,-1.61 0.75,-6.36 2.73,-6.7 1.98,-0.34 4.14,0.67 4.14,0.67 0,0 -2.06,5.41 3.51,11.36z"/>
   <path class="fil14" d="M173.45 360.11c0,0 1.14,3.25 1.56,6.35 0.34,2.57 3.87,8.04 3.7,8.73 -0.17,0.69 -4.64,1.32 -6.46,-0.46 -1.82,-1.78 -2.99,-6.96 -3.4,-10.07 -0.37,-2.89 -0.84,-4.31 -0.84,-4.31 0,0 3.69,-2.14 5.43,-0.24z"/>
   <path class="fil13" d="M129.64 371.66c0,0 5.24,7.51 4.49,8.71 -0.75,1.21 -6.46,1.38 -9.94,0 -3.48,-1.38 -3.56,-10.33 -5.13,-14.17 -0.66,-1.61 0.75,-6.36 2.73,-6.7 1.98,-0.34 4.31,0.74 4.31,0.74 0,0 -2.03,5.47 3.54,11.42z"/>
   <path class="fil14" d="M126.1 360.25c0,0 0.41,3.54 1.08,6.05 0.66,2.51 4.22,8.21 4.06,8.9 -0.16,0.69 -4.64,1.32 -6.46,-0.46 -1.82,-1.78 -3.23,-6.94 -3.39,-10.07 -0.17,-3.12 0.41,-5.16 0.41,-5.16 0,0 2.57,-1.16 4.31,0.74z"/>
   <path class="fil14" d="M152.27 235.99c0,0 4.66,22.63 5.73,28.33 1.07,5.7 4.07,33.3 4.39,37.99 0.32,4.69 4.87,22.37 4.65,24.05 -0.21,1.68 6.74,35.34 6.74,35.34 0,0 -2.38,1.99 -4.88,0.18 -1.29,-0.93 -15.25,-31.52 -15.25,-39.9 0,-11.58 -8.21,-26.7 -9.27,-29.3 -9.84,-24.07 -7.9,-31.44 -9.19,-33 -1.28,-1.56 -1.4,0.97 -2.15,4.43 -0.75,3.46 -2.35,33.41 -3.32,37.21 -0.96,3.8 -0.22,16.65 -0.75,23.13 -0.54,6.48 -2.88,35.79 -2.88,35.79 0,0 -1.82,2.98 -4.38,0.08 -0.55,-0.62 -4.41,-32.65 -4.51,-40.36 -0.11,-7.71 -0.22,-18.34 -0.43,-21.68 -1.98,-31.95 -6.86,-36.51 0.82,-59.12 14.38,-42.34 34.67,-3.18 34.67,-3.18z"/>
   <path class="fil15" d="M120.96 229.66c0,0 -13.28,19.4 -7.57,60.66 0,0 31.51,4.47 48.38,-5.17 0,0 -6.98,-42.54 -9.51,-49.16 -2.53,-6.62 -31.31,-6.33 -31.31,-6.33z"/>
   <polygon class="fil13" points="166.4,365.54 166.4,373.53 167.39,373.53 167.39,367.35 "/>
   <polygon class="fil13" points="118.91,365.54 118.91,373.53 119.91,373.53 119.91,367.35 "/>
   <path class="fil14" d="M136.71 143.65c0,0 8.89,8.96 5.87,20.5 -3.03,11.54 -7.9,11.6 -13.26,6.64 -5.37,-4.96 -8.52,-10.18 -9.23,-15.99 -0.71,-5.8 8.51,-19.14 16.63,-11.15z"/>
   <path class="fil14" d="M138.44 182.13c0,0 -1.32,-3.02 -2.24,-6.42 -0.16,-0.6 -0.31,-1.21 -0.44,-1.82 -0.45,-2.14 -0.64,-4.24 -0.15,-5.69 1.42,-4.19 -8.89,-1.29 -8.89,-1.29 0,0 2,11.09 0,14.83 -2,3.74 11.73,0.39 11.73,0.39z"/>
   <path class="fil7" d="M117.11 211.74c0.28,-0.04 0.88,-0.05 1.5,-0.1 -0.77,-2.15 -1.63,-4.05 -1.63,-4.05 -0.49,1.37 -2.36,4.52 0.12,4.15zm-4.8 -24.33c1.62,-3.24 2.84,-4.28 5.98,-5.27 1.76,-0.55 9.6,-2.6 9.6,-2.6l9.42 -0.35c0,0 6.48,1.08 11.51,2.82 5.03,1.74 11.62,11.27 11.62,11.27 0,0 -9.09,21.34 -10.83,27.46 -1.74,6.12 -0.58,15.6 -0.58,15.6 -10.9,5.93 -28.36,-0.58 -28.36,-0.58 1.32,-4.78 1.38,-10.37 0.68,-14.33 -0.08,-0.47 -0.17,-0.91 -0.28,-1.33 -0.09,-0.38 -0.22,-0.93 -0.37,-1.54l-0.02 -0.08c-6.93,0.71 -13.42,1 -13.59,-0.39 -0.77,-6.26 3,-26.22 5.23,-30.67z"/>
   <path class="fil16" d="M133.81 150.09c0,0 -4.26,7.73 -6.9,10.51 -2.64,2.77 -2.33,4.97 -2.33,4.97 0,0 -10.3,-12.71 -2.95,-20.38 7.35,-7.67 16.82,-4.58 19.59,2.13 2.77,6.7 1.76,14.89 1.76,14.89 0,0 -0.08,-7.87 -9.17,-12.12z"/>
   <path class="fil16" d="M131 141.99c0,0 1.03,-5.66 -7.85,-7.91 -8.88,-2.25 -12.87,7.98 -11.78,14.22 1.09,6.24 8.68,22.07 4.57,24.13 -4.12,2.06 -5.73,-2.38 -5.73,-2.38 0,0 1.29,7.79 7.02,5.98 5.72,-1.8 4.95,-14.45 4.09,-19.5 -0.86,-5.04 9.68,-14.54 9.68,-14.54z"/>
   <path class="fil17" d="M128.14 169.66c0.03,0.08 2.28,5.25 8.06,6.05 -0.16,-0.6 -0.31,-1.21 -0.44,-1.82 0,0 -3.17,0.64 -7.62,-4.23z"/>
   <path class="fil18" d="M117.11 207.66c0,0 0.43,0.89 1.59,4.41 1.18,-9.89 0.57,-15.04 0.57,-15.04 -0.13,5.29 -2.15,10.62 -2.15,10.62z"/>
   <path class="fil18" d="M120.69 218.56c0.15,0.61 0.28,1.16 0.37,1.54 0.11,0.42 0.2,0.86 0.28,1.33 3.9,-2.12 6.71,-3.78 6.71,-3.78 -1.05,0.24 -7.35,0.91 -7.35,0.91z"/>
   <path class="fil14" d="M127.35 179.68l11.09 9.04 -1.14 -9.52c0,0 -6.47,-1.4 -9.95,0.48z"/>
   <polygon class="fil19" points="135.24,187.18 138.44,188.72 127.55,177.92 "/>
   <path class="fil20" d="M120.04 217.77c1.52,6.33 -4.12,20.56 -4.12,20.56l11.2 3.5c1.61,0.5 3.31,-0.48 3.66,-2.13 1.5,-6.97 5.01,-24.11 5.43,-33.65 0.54,-12.16 -8.32,-26.52 -8.32,-26.52 -15.74,2.7 -11.42,26.52 -11.42,26.52 0,0 0.57,1.5 1.33,3.85l0 0c0.2,0.59 0.4,1.23 0.61,1.92 0.54,1.76 1.12,3.8 1.64,5.96z"/>
   <path class="fil20" d="M138.42 179.71l-0.2 -0.52c0,0 8.06,1.23 12.16,3.27 4.1,2.05 11.94,12.62 11.94,12.62l-10.26 13.54c-0.01,10.41 1.68,28.91 1.68,28.91l-4.69 2.7c-1.26,0.73 -2.84,-0.16 -2.86,-1.62 -0.13,-7.04 -0.45,-23.75 -0.61,-31.84 -0.21,-10.41 -7.64,-27.24 -7.64,-27.24 0.16,0.06 0.32,0.11 0.49,0.17z"/>
   <path class="fil14" d="M153.04 228.52c0,0 -7.74,0.3 -8.94,0 -1.2,-0.3 -9.23,-3.78 -9.71,-7.22 -0.48,-3.44 18.65,3.08 18.65,3.08l0 4.14z"/>
   <polygon class="fil21" points="129.04,217.77 160.43,214.1 146.25,225.64 "/>
   <polygon class="fil7" points="146.25,225.64 129.04,219.77 129.04,217.77 146.83,223.48 "/>
   <path class="fil14" d="M138.16 212.01c0,0 2.59,0 4.05,-0.3 1.12,-0.23 3.92,0.09 4.64,0.72 0.71,0.63 2.98,5.03 3.41,5.3 0.43,0.27 -0.22,0.89 -0.97,0.58 0,0 -0.69,1.92 -2.4,1.2 -1.7,-0.72 -2.87,-2.29 -3.76,-2.57 -0.9,-0.28 -6.09,-1.68 -6.09,-1.68 0,0 -0.21,-3.73 1.13,-3.26z"/>
   <polygon class="fil7" points="136.71,177.44 142.69,186.9 145.57,188.72 138.85,179.3 "/>
   <polygon class="fil19" points="142.69,186.9 138.44,188.72 137.3,179.19 136.71,177.44 "/>
   <path class="fil20" d="M152.09 224.09c0,0 0.32,4 0,4.83 0,0 19.36,-1.93 21.16,-4.64 1.81,-2.71 1.74,-5.99 1.74,-5.99l-22.9 5.8z"/>
   <polygon class="fil7" points="146.25,225.64 155.4,191.6 190.21,187.93 180.67,219.26 "/>
   <polygon class="fil7" points="127.55,177.92 135.24,187.18 131.04,190.93 126.49,179.85 "/>
   <path class="fil22" d="M117.53 209.12l0.26 0.78c0.2,0.59 0.4,1.23 0.61,1.92 1.48,0.47 14.34,-0.48 14.34,-0.48 0,0 -10.76,-2.53 -15.21,-2.22z"/>
   <path class="fil20" d="M118.28 211.57c2.07,-0.16 5.46,-0.38 8.24,-0.39 4.32,-0.02 11.71,0.46 11.71,0.46l-0.88 4.62c0,0 -13.09,2.13 -20.24,2.63l0 0c0,0 -9.43,1.08 -10.13,-0.32 -0.7,-1.41 0.23,-10.44 1.77,-18.59 1.54,-8.14 3.11,-12.83 4.99,-15.35 1.88,-2.52 11.79,-4.47 11.79,-4.47l-8.41 27.51c0,0 -1.2,2.45 -1.14,3.51 0.02,0.32 0.24,0.48 0.54,0.53 0.21,-0.02 0.68,-0.06 1.32,-0.11l0.45 -0.03z"/>
   <g>
    <path class="fil23" d="M408.08 134.97c0,0 7.73,-0.81 10.52,6.66 2.78,7.47 5.4,9.91 5.73,13.83 1.33,15.87 8.74,12.28 6.65,21.43 -2.08,9.14 -3.52,10.53 -3.52,10.53l-17.73 -3.47 -17.94 0.06c0,0 7.02,-3.51 5.46,-10.97 -1.57,-7.47 -5.46,-19.71 -3.26,-28.04 2.21,-8.34 9.46,-9.38 14.08,-10.02z"/>
    <path class="fil24" d="M403.2 380.15c0,0 -5.56,7.63 -4.77,8.86 0.79,1.23 6.85,1.41 10.54,0 3.68,-1.4 3.78,-10.5 5.44,-14.4 0.7,-1.64 -0.79,-6.46 -2.89,-6.81 -2.1,-0.35 -4.57,0.75 -4.57,0.75 0,0 2.15,5.56 -3.75,11.61z"/>
    <path class="fil14" d="M406.94 368.54c0,0 -0.44,3.6 -1.14,6.15 -0.71,2.54 -4.48,8.34 -4.31,9.05 0.18,0.7 4.93,1.34 6.86,-0.47 1.93,-1.81 3.42,-7.06 3.6,-10.23 0.17,-3.17 -0.44,-5.24 -0.44,-5.24 0,0 -2.72,-1.18 -4.57,0.75z"/>
    <polygon class="fil24" points="414.41,374.6 414.41,382.73 413.36,382.73 413.36,376.45 "/>
    <path class="fil24" d="M417.72 380.15c0,0 -5.55,7.63 -4.76,8.86 0.79,1.23 6.85,1.41 10.53,0 3.69,-1.4 3.78,-10.5 5.45,-14.4 0.7,-1.64 -0.8,-6.46 -2.9,-6.81 -2.1,-0.35 -4.57,0.75 -4.57,0.75 0,0 2.15,5.56 -3.76,11.61z"/>
    <path class="fil14" d="M421.48 368.54c0,0 -0.44,3.6 -1.14,6.15 -0.71,2.54 -4.48,8.34 -4.31,9.05 0.18,0.7 4.92,1.34 6.85,-0.47 1.94,-1.81 3.43,-7.06 3.61,-10.23 0.17,-3.17 -0.44,-5.24 -0.44,-5.24 0,0 -2.73,-1.18 -4.57,0.75z"/>
    <polygon class="fil24" points="428.94,374.6 428.94,382.73 427.89,382.73 427.89,376.45 "/>
    <path class="fil14" d="M392.98 242.12c0,0 -4.2,23.15 -5.33,28.94 -1.14,5.79 -4.32,33.84 -4.66,38.61 -0.34,4.77 10.37,27.71 11.03,29.29 11.2,26.49 12.5,32.48 12.5,32.48 0,0 3.67,2.3 5.38,-0.45 0.51,-0.84 -6.9,-31.21 -8.11,-39.63 -1.14,-7.84 -4.1,-19.94 -3.3,-22.69 0.8,-2.75 8.06,-40.65 9.43,-42.24 1.36,-1.59 3.4,0.91 4.2,4.43 0.79,3.52 2.5,33.95 3.52,37.82 1.02,3.86 0.23,16.92 0.8,23.5 0.56,6.58 2.93,37.33 2.93,37.33 0,0 4.57,0.82 5.03,0.09 0.45,-0.73 4.41,-34.14 4.53,-41.98 0.11,-7.83 0.23,-18.64 0.45,-22.03 2.1,-32.47 6.07,-36.72 -0.86,-60.09 -17,-57.17 -37.52,-3.37 -37.52,-3.37z"/>
    <path class="fil20" d="M392.98 242.12c0,0 -4.2,23.15 -5.33,28.94 -1.14,5.79 -4.32,33.84 -4.66,38.61 -0.34,4.77 9.99,27.71 10.22,29.41 0.23,1.7 8.74,26.08 8.74,26.08 0,0 8.59,-0.15 10.94,-2.37 0.48,-0.45 -7.89,-23 -9.11,-31.43 -1.14,-7.84 -4.1,-19.94 -3.3,-22.69 0.8,-2.75 8.06,-40.65 9.43,-42.24 1.36,-1.59 3.4,0.91 4.2,4.43 0.79,3.52 2.5,33.95 3.52,37.82 1.02,3.86 0.23,16.92 0.8,23.5 0.56,6.58 -0.63,29.99 -0.63,29.99 0,0 11.26,0.59 11.72,-0.14 0.45,-0.73 1.29,-26.57 1.41,-34.41 0.11,-7.83 0.23,-18.64 0.45,-22.03 2.1,-32.47 6.07,-36.72 -0.86,-60.09 -17,-57.17 -37.52,-3.37 -37.52,-3.37z"/>
    <path class="fil15" d="M432.18 249.9c0.66,-0.27 -4.6,-17.65 -5.64,-22.84 -0.94,-4.68 -4.14,-8.98 -1.01,-16.96 1.79,-4.57 1.66,-9.97 1.66,-9.97 0,0 4.79,10.56 5.25,13.28 0.45,2.73 -16.54,-2.23 -16.78,-1.86 -0.45,0.72 -0.95,5.32 -0.95,6.91 0,1.32 24.67,7.14 27.6,1.98 0.83,-1.46 -4.53,-29.5 -7.99,-33.24 -5.67,-6.13 -20.58,-11.36 -20.58,-11.36 0,0 -4.09,-2.2 -11.28,0.08 -7.19,2.27 -17.26,9.23 -18.99,11.05 -1.75,1.82 -8.71,29.2 -9.32,32.74 -0.57,3.33 -0.35,10.35 7.27,9.45l20.56 -4.71 -1.28 -6.26 -15.41 1.22c-3.14,0.54 -1.64,-2.22 -1.23,-3.76 0.39,-1.5 4.25,-15.43 4.25,-15.43 -0.22,3.86 2.69,16.54 4.21,20.92 1.51,4.39 -1.84,27.89 -2.07,30.46 0,0 12.38,10.16 41.75,-1.7z"/>
    <path class="fil14" d="M417.08 177.13c0,0 -5.07,10.46 -9.3,13.53 0,0 -7.63,-11.42 -7.24,-14.06 0,0 8.44,-3.75 16.54,0.53z"/>
    <path class="fil14" d="M417.26 212.41c0,0 -2.35,-0.95 -2.98,-1.8 -0.62,-0.85 -2.7,-1.36 -4.25,-0.9 -1.53,0.46 -0.69,7.08 -0.69,7.08l8.13 1.05 -0.22 -5.43z"/>
    <path class="fil14" d="M402.54 217.47c0,0 0.78,-4.28 0.6,-5.07 -0.19,-0.79 1.39,-1.59 1.61,0.37 0.21,1.95 0.33,3.19 0.33,3.19l-2.54 1.5z"/>
    <path class="fil7" d="M405.92 220.44l5.92 -0.24c0.76,-0.03 1.36,-0.65 1.37,-1.41l0.16 -12.97c0.02,-0.81 -0.65,-1.47 -1.47,-1.44l-7.08 0.23c-0.82,0.03 -1.44,0.73 -1.38,1.53l1.01 12.97c0.05,0.77 0.72,1.35 1.48,1.32z"/>
    <path class="fil14" d="M402.41 217.81c0,0 -0.12,-1.22 2.22,-2.33 3.1,-1.48 7.23,-2.98 7.94,-2.6 1.01,0.56 0.49,1.33 -1.47,1.98 -1.96,0.65 -2.6,0.86 -2.6,0.86 0,0 3.83,-0.37 4.69,0.09 0.86,0.46 0.91,1.52 0.28,1.69 -0.63,0.17 -2.11,0.28 -2.11,0.28 0,0 1.63,0.06 1.79,0.71 0.12,0.48 0.17,1.18 -1.36,1.46 0,0 1.04,1.16 -0.52,1.9 -1.56,0.74 -4.39,1.42 -5.82,1.65 -2.96,0.49 -9.64,0.13 -9.64,0.13l2.74 -4.65c0,0 1.53,0.12 2.58,-0.24 1.42,-0.48 1.28,-0.94 1.28,-0.94z"/>
    <polygon class="fil15" points="400.68,218.2 401.95,224.46 388.85,227.46 388.35,219.17 "/>
    <path class="fil15" d="M415.66 211.56c0,0 -1.08,2.31 -0.95,6.91 0,0 8.12,2.97 14.44,3.66l0 -7.97 -13.49 -2.59z"/>
    <path class="fil25" d="M401.95 224.46l-9.18 5.11c0.05,-1.06 0.1,-2.08 0.13,-3.03l9.05 -2.08z"/>
    <path class="fil25" d="M426.09 225.14c-7.37,-2.93 -10.31,-5.56 -11.13,-6.41 -0.17,-0.18 -0.25,-0.28 -0.25,-0.28l10.46 3.05 0 0c0.27,1.26 0.61,2.45 0.92,3.63z"/>
    <path class="fil14" d="M409.1 139.34c0,0 10.24,1.48 8.74,16.6 -1.5,15.12 -10.54,13.92 -11.14,13.9 -0.61,-0.01 -9.07,0.32 -9.81,-18.13 0,0 -0.34,-13.64 12.2,-12.37z"/>
    <path class="fil14" d="M413.65 167.16c0,0 -0.63,7.86 0.88,10.22 1.52,2.36 -1.3,5.56 -7.08,4.46 -5.79,-1.1 -5.46,-4.38 -5.46,-4.38 0,0 1.63,-4.86 1.15,-8.74 -0.47,-3.88 10.51,-1.57 10.51,-1.57z"/>
    <path class="fil23" d="M407.93 144.82c0,0 4.79,5.03 7.01,7.57 2.22,2.55 2.48,7.47 2.48,7.47 0,0 3.74,-4.57 2.18,-9.9 -1.56,-5.33 -5.27,-15.69 -14.65,-12.51 -9.38,3.19 -9.73,17.19 -8.63,24.14 0,0 4.21,-15.34 11.61,-16.78z"/>
    <path class="fil17" d="M403.89 169.16c0,0 4.37,2.06 8.61,-0.99 0,0 -1.18,2.44 -4.3,2.78 -3.13,0.35 -4.31,-1.8 -4.31,-1.8z"/>
    <path class="fil23" d="M402.4 171.9c0,0 -14.09,12.54 -10.43,20.36 3.12,6.68 14.19,2.58 12.36,-4.42 -1.83,-6.99 -1.93,-15.95 -1.93,-15.95z"/>
    <path class="fil26" d="M406.25 207.12c0,0.48 -0.4,0.88 -0.88,0.88 -0.49,0 -0.88,-0.4 -0.88,-0.88 0,-0.49 0.39,-0.88 0.88,-0.88 0.49,0 0.88,0.4 0.88,0.88z"/>
   </g>
  </g>
  <rect class="fil27" x="263.96" y="291.41" width="5.31" height="4.64"/>
 </g>
</svg>
