<?xml version="1.0" encoding="UTF-8"?>
<!DOCTYPE svg PUBLIC "-//W3C//DTD SVG 1.1//EN" "http://www.w3.org/Graphics/SVG/1.1/DTD/svg11.dtd">
<!-- Creator: CorelDRAW 2019 (64-Bit) -->
<svg xmlns="http://www.w3.org/2000/svg" xml:space="preserve" width="14.5623mm" height="15.765mm" version="1.1" style="shape-rendering:geometricPrecision; text-rendering:geometricPrecision; image-rendering:optimizeQuality; fill-rule:evenodd; clip-rule:evenodd"
viewBox="0 0 18.18 19.68"
 xmlns:xlink="http://www.w3.org/1999/xlink"
 xmlns:xodm="http://www.corel.com/coreldraw/odm/2003">
 <defs>
  <style type="text/css">
   <![CDATA[
    .str0 {stroke:#4AAFFF;stroke-width:0.44;stroke-linecap:round;stroke-miterlimit:10}
    .fil3 {fill:none;fill-rule:nonzero}
    .fil4 {fill:#4AAFFF;fill-rule:nonzero}
    .fil1 {fill:#A1DBFF;fill-rule:nonzero}
    .fil2 {fill:#D7EEFC;fill-rule:nonzero}
    .fil5 {fill:white;fill-rule:nonzero}
    .fil0 {fill:url(#id0)}
   ]]>
  </style>
  <linearGradient id="id0" gradientUnits="userSpaceOnUse" x1="9.15" y1="16.55" x2="15.61" y2="15.89">
   <stop offset="0" style="stop-opacity:1; stop-color:#166792"/>
   <stop offset="1" style="stop-opacity:1; stop-color:#23AFE4"/>
  </linearGradient>
 </defs>
 <g id="Слой_x0020_1">
  <metadata id="CorelCorpID_0Corel-Layer"/>
  <g id="_1919138425696">
   <path class="fil0" d="M14.2 19.48c-0.94,0.46 -2.08,0.07 -2.54,-0.87l-2.16 -4.4 3.41 -1.67 2.16 4.4c0.46,0.94 0.07,2.08 -0.87,2.54z"/>
   <path class="fil1" d="M14.26 17.65l-1.55 0.76c-1.43,0.7 -3.15,0.11 -3.84,-1.32l-1.73 -3.53 6.71 -3.28 1.73 3.53c0.7,1.43 0.11,3.15 -1.32,3.84z"/>
   <path class="fil2" d="M14.51 6.39c1.47,2.99 0.23,6.61 -2.77,8.08 -2.99,1.47 -6.61,0.23 -8.08,-2.77 -1.47,-2.99 -0.23,-6.61 2.77,-8.08 2.99,-1.47 6.61,-0.23 8.08,2.77z"/>
   <path class="fil3 str0" d="M8.97 16.02c0,0 3.31,0.45 5.64,-2.76"/>
   <path class="fil3 str0" d="M9.76 17.64c0,0 3.31,0.45 5.64,-2.76"/>
   <path class="fil4" d="M10.9 8.79c-0.46,0.25 -0.77,0.83 -0.47,1.44l0.49 0.99c-0.3,0.17 -0.76,0.41 -1.23,0.58l-0.48 -0.97c-0.3,-0.61 -0.95,-0.72 -1.43,-0.51 -0.45,0.2 -0.82,0.7 -0.57,1.35 0.03,0.07 0.05,0.13 0.09,0.2 0.16,0.32 0.41,0.53 0.76,0.63 0.4,0.12 0.89,0.06 1.37,-0.08l1.21 2.46c0.16,-0.04 0.33,-0.09 0.49,-0.15l-1.17 -2.4c0.28,-0.12 0.74,-0.34 1.2,-0.64l1.19 2.44c0.14,-0.09 0.29,-0.19 0.42,-0.29l-1.19 -2.44c0.4,-0.3 0.74,-0.66 0.9,-1.06 0.13,-0.34 0.12,-0.67 -0.04,-0.99 -0.03,-0.07 -0.07,-0.13 -0.1,-0.19 -0.36,-0.59 -0.99,-0.6 -1.42,-0.37zm-1.71 3.17l0 0c-0.37,0.1 -0.73,0.13 -1.01,0.05 -0.21,-0.06 -0.35,-0.18 -0.44,-0.37 -0.03,-0.05 -0.05,-0.11 -0.07,-0.16 -0.13,-0.35 0.06,-0.58 0.28,-0.69 0.01,-0 0.02,-0.01 0.03,-0.01 0.26,-0.12 0.61,-0.08 0.78,0.27l0.44 0.9zm2.79 -1.8l0 0c-0.11,0.27 -0.35,0.54 -0.65,0.78l-0.45 -0.93c-0.17,-0.35 0.01,-0.64 0.26,-0.78 0.01,-0 0.02,-0.01 0.03,-0.01 0.22,-0.11 0.52,-0.11 0.72,0.2 0.03,0.05 0.06,0.1 0.08,0.15 0.09,0.19 0.1,0.38 0.02,0.58z"/>
   <path class="fil5" d="M12.44 6.06c-0.28,0.82 -1.38,1.18 -2.47,0.81 -1.08,-0.37 -1.73,-1.33 -1.45,-2.15 0.28,-0.82 1.38,-1.18 2.47,-0.81 1.08,0.37 1.73,1.33 1.45,2.15z"/>
   <path class="fil2" d="M6 2.73c-0.13,0.06 -0.28,0.01 -0.34,-0.12l-0.72 -1.48c-0.06,-0.13 -0.01,-0.28 0.12,-0.34 0.13,-0.06 0.28,-0.01 0.34,0.12l0.72 1.48c0.06,0.13 0.01,0.28 -0.12,0.34z"/>
   <path class="fil2" d="M2.88 5.75c-0.07,0.12 -0.22,0.17 -0.34,0.1l-1.45 -0.77c-0.12,-0.07 -0.17,-0.22 -0.1,-0.34 0.07,-0.12 0.22,-0.17 0.34,-0.1l1.45 0.77c0.12,0.07 0.17,0.22 0.1,0.34z"/>
   <path class="fil2" d="M2.13 10.03c0.02,0.14 -0.08,0.27 -0.21,0.29l-1.63 0.23c-0.14,0.02 -0.27,-0.08 -0.29,-0.21 -0.02,-0.14 0.08,-0.27 0.21,-0.29l1.63 -0.23c0.14,-0.02 0.27,0.08 0.29,0.21z"/>
   <path class="fil2" d="M4.04 13.93c0.1,0.1 0.09,0.26 -0.01,0.36l-1.18 1.14c-0.1,0.1 -0.26,0.09 -0.36,-0.01 -0.1,-0.1 -0.09,-0.26 0.01,-0.36l1.18 -1.14c0.1,-0.1 0.26,-0.09 0.36,0.01z"/>
   <path class="fil2" d="M7.88 15.97c0.14,0.02 0.23,0.15 0.21,0.29l-0.28 1.62c-0.02,0.14 -0.15,0.23 -0.29,0.21 -0.14,-0.02 -0.23,-0.15 -0.21,-0.29l0.28 -1.62c0.02,-0.14 0.15,-0.23 0.29,-0.21z"/>
   <path class="fil2" d="M15.3 12.33c0.07,-0.12 0.22,-0.17 0.34,-0.1l1.45 0.77c0.12,0.07 0.17,0.22 0.1,0.34 -0.07,0.12 -0.22,0.17 -0.34,0.1l-1.45 -0.77c-0.12,-0.07 -0.17,-0.22 -0.1,-0.34z"/>
   <path class="fil2" d="M16.05 8.05c-0.02,-0.14 0.08,-0.27 0.21,-0.29l1.63 -0.23c0.14,-0.02 0.27,0.08 0.29,0.21 0.02,0.14 -0.08,0.27 -0.21,0.29l-1.63 0.23c-0.14,0.02 -0.27,-0.08 -0.29,-0.21z"/>
   <path class="fil2" d="M14.14 4.15c-0.1,-0.1 -0.09,-0.26 0.01,-0.36l1.18 -1.14c0.1,-0.1 0.26,-0.09 0.36,0.01 0.1,0.1 0.09,0.26 -0.01,0.36l-1.18 1.14c-0.1,0.1 -0.26,0.09 -0.36,-0.01z"/>
   <path class="fil2" d="M10.3 2.12c-0.14,-0.02 -0.23,-0.15 -0.21,-0.29l0.28 -1.62c0.02,-0.14 0.15,-0.23 0.29,-0.21 0.14,0.02 0.23,0.15 0.21,0.29l-0.28 1.62c-0.02,0.14 -0.15,0.23 -0.29,0.21z"/>
  </g>
 </g>
</svg>
