<?xml version="1.0" encoding="UTF-8"?>
<!DOCTYPE svg PUBLIC "-//W3C//DTD SVG 1.1//EN" "http://www.w3.org/Graphics/SVG/1.1/DTD/svg11.dtd">
<!-- Creator: CorelDRAW 2019 (64-Bit) -->
<svg xmlns="http://www.w3.org/2000/svg" xml:space="preserve" width="11.6632mm" height="10.8788mm" version="1.1" style="shape-rendering:geometricPrecision; text-rendering:geometricPrecision; image-rendering:optimizeQuality; fill-rule:evenodd; clip-rule:evenodd"
viewBox="0 0 8.39 7.83"
 xmlns:xlink="http://www.w3.org/1999/xlink"
 xmlns:xodm="http://www.corel.com/coreldraw/odm/2003">
 <defs>
  <style type="text/css">
   <![CDATA[
    .fil0 {fill:#A1DBFF;fill-rule:nonzero}
    .fil1 {fill:url(#id0)}
   ]]>
  </style>
  <linearGradient id="id0" gradientUnits="userSpaceOnUse" x1="-0.24" y1="5.61" x2="4.27" y2="5.14">
   <stop offset="0" style="stop-opacity:1; stop-color:#166792"/>
   <stop offset="1" style="stop-opacity:1; stop-color:#23AFE4"/>
  </linearGradient>
 </defs>
 <g id="Слой_x0020_1">
  <metadata id="CorelCorpID_0Corel-Layer"/>
  <g id="_1919445666608">
   <path class="fil0" d="M2.48 3.65c0,0 0.55,-0.46 0.4,-1.17 -0.15,-0.71 -0.34,-1.66 -0.4,-2 -0.06,-0.34 1.2,-0.77 1.63,-0.25 0.43,0.52 0.46,1.45 0.74,1.58 0.28,0.14 2.52,-1.21 2.92,-1 0.4,0.21 0.77,4.08 0.58,4.51 -0.18,0.43 -2.56,1.38 -2.91,1.38 -0.35,0 -1.02,-0.68 -1.82,-0.37 -0.8,0.31 -1.14,-2.7 -1.14,-2.7z"/>
   <path class="fil1" d="M2.63 3.09l1.36 3.38c0.11,0.27 -0.02,0.57 -0.29,0.69l-1.52 0.63c-0.27,0.11 -0.58,-0.01 -0.69,-0.28l-1.45 -3.37c-0.12,-0.27 0.01,-0.59 0.29,-0.7l1.61 -0.64c0.27,-0.11 0.58,0.02 0.69,0.29z"/>
  </g>
 </g>
</svg>
