<?xml version="1.0" encoding="UTF-8"?>
<!DOCTYPE svg PUBLIC "-//W3C//DTD SVG 1.1//EN" "http://www.w3.org/Graphics/SVG/1.1/DTD/svg11.dtd">
<!-- Creator: CorelDRAW 2019 (64-Bit) -->
<svg xmlns="http://www.w3.org/2000/svg" xml:space="preserve" width="75.9013mm" height="99.1494mm" version="1.1" style="shape-rendering:geometricPrecision; text-rendering:geometricPrecision; image-rendering:optimizeQuality; fill-rule:evenodd; clip-rule:evenodd"
viewBox="0 0 523.9 684.37"
 xmlns:xlink="http://www.w3.org/1999/xlink"
 xmlns:xodm="http://www.corel.com/coreldraw/odm/2003">
 <defs>
  <style type="text/css">
   <![CDATA[
    .str0 {stroke:#4AAFFF;stroke-width:2.44;stroke-linecap:round;stroke-miterlimit:10}
    .fil4 {fill:none;fill-rule:nonzero}
    .fil18 {fill:#0A0808;fill-rule:nonzero}
    .fil10 {fill:#181818;fill-rule:nonzero}
    .fil9 {fill:#1A598C;fill-rule:nonzero}
    .fil7 {fill:#2273B5;fill-rule:nonzero}
    .fil24 {fill:#323657;fill-rule:nonzero}
    .fil16 {fill:#353A3D;fill-rule:nonzero}
    .fil12 {fill:#484442;fill-rule:nonzero}
    .fil14 {fill:#495055;fill-rule:nonzero}
    .fil5 {fill:#4AAFFF;fill-rule:nonzero}
    .fil8 {fill:#4DAFFF;fill-rule:nonzero}
    .fil22 {fill:#69737A;fill-rule:nonzero}
    .fil11 {fill:#81807E;fill-rule:nonzero}
    .fil19 {fill:#858585;fill-rule:nonzero}
    .fil1 {fill:#A1DBFF;fill-rule:nonzero}
    .fil17 {fill:#A77860;fill-rule:nonzero}
    .fil21 {fill:#AD9F99;fill-rule:nonzero}
    .fil20 {fill:#AFAFB1;fill-rule:nonzero}
    .fil0 {fill:#D7EEFC;fill-rule:nonzero}
    .fil23 {fill:#DECBC4;fill-rule:nonzero}
    .fil15 {fill:#EEA886;fill-rule:nonzero}
    .fil13 {fill:white;fill-rule:nonzero}
    .fil6 {fill:white;fill-rule:nonzero}
    .fil2 {fill:url(#id0)}
    .fil3 {fill:url(#id1)}
   ]]>
  </style>
  <linearGradient id="id0" gradientUnits="userSpaceOnUse" x1="359.63" y1="474.46" x2="402.87" y2="469.97">
   <stop offset="0" style="stop-opacity:1; stop-color:#166792"/>
   <stop offset="1" style="stop-opacity:1; stop-color:#23AFE4"/>
  </linearGradient>
  <linearGradient id="id1" gradientUnits="userSpaceOnUse" xlink:href="#id0" x1="282.14" y1="667.06" x2="317.85" y2="663.42">
  </linearGradient>
 </defs>
 <g id="Слой_x0020_1">
  <metadata id="CorelCorpID_0Corel-Layer"/>
  <path class="fil0" d="M242.11 539.6c0,14.35 -54.19,25.98 -121.05,25.98 -66.86,0 -121.05,-11.63 -121.05,-25.98 0,-14.35 54.2,-25.98 121.05,-25.98 66.86,0 121.05,11.64 121.05,25.98z"/>
  <g id="_1919445668560">
   <path class="fil1" d="M385.72 455.72c0,0 5.3,-4.42 3.83,-11.19 -1.47,-6.77 -3.24,-15.91 -3.83,-19.15 -0.59,-3.24 11.49,-7.36 15.61,-2.36 4.12,5.01 4.42,13.87 7.07,15.18 2.65,1.31 24.15,-11.65 27.98,-9.58 3.83,2.06 7.36,39.18 5.6,43.3 -1.77,4.12 -24.59,13.25 -27.91,13.25 -3.32,0 -9.8,-6.48 -17.46,-3.53 -7.66,2.95 -10.9,-25.92 -10.9,-25.92z"/>
   <path class="fil2" d="M387.18 450.32l13 32.4c1.03,2.58 -0.19,5.5 -2.75,6.57l-14.53 6.08c-2.57,1.07 -5.52,-0.12 -6.62,-2.68l-13.91 -32.34c-1.13,-2.63 0.13,-5.67 2.79,-6.72l15.45 -6.15c2.6,-1.03 5.55,0.23 6.59,2.83z"/>
  </g>
  <g id="_1919445674448">
   <path class="fil3" d="M310.04 683.3c-5.22,2.55 -11.51,0.4 -14.07,-4.82l-11.92 -24.35 18.88 -9.25 11.92 24.35c2.55,5.22 0.4,11.51 -4.82,14.07z"/>
   <path class="fil1" d="M310.37 673.15l-8.55 4.19c-7.88,3.86 -17.4,0.6 -21.26,-7.28l-9.56 -19.52 37.09 -18.16 9.56 19.52c3.86,7.88 0.6,17.4 -7.28,21.26z"/>
   <path class="fil0" d="M311.76 610.88c8.11,16.56 1.26,36.56 -15.3,44.67 -16.56,8.11 -36.56,1.26 -44.67,-15.3 -8.11,-16.56 -1.26,-36.56 15.3,-44.67 16.56,-8.11 36.56,-1.26 44.67,15.3z"/>
   <path class="fil4 str0" d="M281.12 664.17c0,0 18.31,2.46 31.21,-15.28"/>
   <path class="fil4 str0" d="M285.49 673.09c0,0 18.31,2.46 31.22,-15.28"/>
   <path class="fil5" d="M291.81 624.14c-2.56,1.4 -4.28,4.59 -2.62,7.99l2.69 5.49c-1.68,0.96 -4.19,2.24 -6.82,3.2l-2.63 -5.38c-1.67,-3.4 -5.25,-4 -7.92,-2.83 -2.5,1.11 -4.54,3.88 -3.17,7.45 0.14,0.36 0.3,0.73 0.48,1.1 0.86,1.77 2.28,2.94 4.2,3.49 2.23,0.64 4.95,0.31 7.6,-0.43l6.67 13.62c0.9,-0.24 1.8,-0.53 2.69,-0.84l-6.49 -13.26c1.53,-0.67 4.1,-1.89 6.66,-3.53l6.6 13.48c0.8,-0.51 1.58,-1.04 2.32,-1.61l-6.6 -13.49c2.19,-1.69 4.1,-3.67 4.95,-5.85 0.73,-1.87 0.66,-3.71 -0.2,-5.47 -0.18,-0.37 -0.38,-0.73 -0.58,-1.06 -1.97,-3.27 -5.47,-3.34 -7.83,-2.06zm-9.45 17.53l0 0c-2.07,0.53 -4.05,0.74 -5.59,0.3 -1.14,-0.33 -1.94,-0.99 -2.45,-2.03 -0.15,-0.3 -0.27,-0.6 -0.39,-0.88 -0.74,-1.91 0.34,-3.23 1.54,-3.82 0.05,-0.02 0.1,-0.05 0.15,-0.07 1.46,-0.64 3.36,-0.42 4.3,1.5l2.45 5zm15.45 -9.96l0 0c-0.59,1.5 -1.94,2.97 -3.61,4.31l-2.51 -5.13c-0.94,-1.92 0.05,-3.55 1.45,-4.31 0.05,-0.03 0.1,-0.05 0.15,-0.08 1.2,-0.59 2.9,-0.63 3.96,1.13 0.16,0.27 0.31,0.55 0.46,0.85 0.51,1.05 0.55,2.1 0.11,3.23z"/>
   <path class="fil6" d="M300.32 609.05c-1.55,4.51 -7.66,6.51 -13.64,4.46 -5.99,-2.05 -9.59,-7.38 -8.04,-11.89 1.55,-4.52 7.66,-6.51 13.64,-4.46 5.99,2.05 9.59,7.38 8.04,11.89z"/>
   <path class="fil0" d="M264.68 590.66c-0.69,0.34 -1.53,0.05 -1.87,-0.64l-4 -8.16c-0.34,-0.69 -0.05,-1.53 0.64,-1.87 0.69,-0.34 1.53,-0.05 1.87,0.64l4 8.16c0.34,0.69 0.05,1.53 -0.64,1.87z"/>
   <path class="fil0" d="M247.43 607.37c-0.36,0.68 -1.21,0.94 -1.89,0.58l-8.03 -4.26c-0.68,-0.36 -0.94,-1.21 -0.58,-1.89 0.36,-0.68 1.21,-0.94 1.89,-0.58l8.03 4.26c0.68,0.36 0.94,1.21 0.58,1.89z"/>
   <path class="fil0" d="M243.29 631.03c0.11,0.76 -0.42,1.47 -1.19,1.58l-9 1.28c-0.76,0.11 -1.47,-0.42 -1.58,-1.19 -0.11,-0.76 0.42,-1.47 1.19,-1.58l9 -1.28c0.76,-0.11 1.47,0.42 1.58,1.19z"/>
   <path class="fil0" d="M253.86 652.61c0.54,0.55 0.52,1.44 -0.03,1.97l-6.53 6.32c-0.55,0.54 -1.44,0.52 -1.97,-0.03 -0.54,-0.55 -0.52,-1.44 0.03,-1.97l6.53 -6.32c0.55,-0.54 1.44,-0.52 1.97,0.03z"/>
   <path class="fil0" d="M275.08 663.85c0.76,0.13 1.27,0.86 1.13,1.61l-1.56 8.95c-0.13,0.76 -0.86,1.27 -1.62,1.13 -0.76,-0.13 -1.27,-0.86 -1.13,-1.61l1.56 -8.95c0.13,-0.76 0.86,-1.27 1.62,-1.13z"/>
   <path class="fil0" d="M316.12 643.76c0.36,-0.68 1.21,-0.94 1.89,-0.58l8.03 4.25c0.68,0.36 0.94,1.21 0.58,1.89 -0.36,0.68 -1.21,0.94 -1.89,0.58l-8.03 -4.25c-0.68,-0.36 -0.94,-1.21 -0.58,-1.89z"/>
   <path class="fil0" d="M320.26 620.1c-0.11,-0.76 0.42,-1.47 1.19,-1.58l9 -1.28c0.76,-0.11 1.47,0.42 1.58,1.19 0.11,0.76 -0.42,1.47 -1.19,1.58l-9 1.28c-0.76,0.11 -1.47,-0.42 -1.58,-1.19z"/>
   <path class="fil0" d="M309.69 598.52c-0.54,-0.55 -0.52,-1.44 0.03,-1.97l6.53 -6.32c0.55,-0.54 1.44,-0.52 1.97,0.03 0.54,0.55 0.52,1.44 -0.03,1.97l-6.53 6.32c-0.55,0.54 -1.44,0.52 -1.97,-0.03z"/>
   <path class="fil0" d="M288.46 587.28c-0.76,-0.13 -1.27,-0.86 -1.13,-1.62l1.57 -8.95c0.13,-0.76 0.86,-1.27 1.61,-1.13 0.76,0.13 1.27,0.86 1.13,1.61l-1.56 8.95c-0.13,0.76 -0.86,1.27 -1.62,1.13z"/>
  </g>
  <path class="fil5" d="M264.77 57.85l-27.8 -16.05 0 10.58 -41.33 0 0 10.93 41.33 0 0 10.58 27.8 -16.05zm-69.12 -35.21l27.8 16.05 0 -10.58 41.33 0 0 -10.93 -41.33 0 0 -10.58 -27.8 16.05z"/>
  <g id="_1919139665264">
   <polygon class="fil5" points="307.15,145.06 241.32,145.06 241.32,137.56 307.15,137.56 "/>
   <polygon class="fil5" points="289.66,161.56 241.32,161.56 241.32,154.05 289.66,154.05 "/>
   <polygon class="fil5" points="360.15,178.04 241.32,178.04 241.32,170.54 360.15,170.54 "/>
   <polygon class="fil5" points="436.52,225.47 354.99,225.47 354.99,217.97 436.52,217.97 "/>
   <polygon class="fil5" points="436.52,241.96 326.12,241.96 326.12,234.45 436.52,234.45 "/>
   <polygon class="fil5" points="436.52,258.45 289.33,258.45 289.33,250.94 436.52,250.94 "/>
   <polygon class="fil5" points="436.52,305.91 346.73,305.91 346.73,298.4 436.52,298.4 "/>
   <polygon class="fil5" points="436.52,322.4 312.29,322.4 312.29,314.89 436.52,314.89 "/>
   <polygon class="fil5" points="436.52,338.89 317.22,338.89 317.22,331.38 436.52,331.38 "/>
   <path class="fil5" d="M404.76 147.62c9.74,20.58 30.98,32.03 52.41,30.3 5.11,-0.41 10.23,-1.57 15.21,-3.53 1.1,-0.43 2.19,-0.91 3.28,-1.42 10.88,-5.15 19.2,-13.51 24.38,-23.41 7.48,-14.29 8.4,-31.78 0.97,-47.47 -2.45,-5.19 -5.64,-9.78 -9.36,-13.74 -15.39,-16.35 -40.13,-21.73 -61.53,-11.62 -26.58,12.58 -37.93,44.32 -25.36,70.9zm17.76 -86.95c28.54,-13.5 61.53,-6.33 82.06,15.48 4.98,5.27 9.22,11.41 12.49,18.33 9.9,20.93 8.68,44.27 -1.29,63.33 -6.91,13.2 -18.02,24.35 -32.53,31.22 -1.44,0.68 -2.9,1.32 -4.37,1.89 -6.64,2.62 -13.46,4.17 -20.28,4.71 -28.58,2.31 -56.9,-12.96 -69.9,-40.42 -16.77,-35.44 -1.63,-77.77 33.82,-94.54z"/>
   <path class="fil7" d="M500.03 149.55l15.75 8.25c9.96,-19.06 11.19,-42.4 1.29,-63.33 -3.27,-6.92 -7.51,-13.05 -12.49,-18.33l-12.93 12.18c3.72,3.96 6.91,8.56 9.36,13.74 7.42,15.69 6.5,33.19 -0.97,47.47z"/>
   <path class="fil8" d="M472.37 174.38l6.51 16.54c1.46,-0.57 2.92,-1.22 4.37,-1.89 14.51,-6.87 25.62,-18.02 32.53,-31.22l-15.75 -8.25c-5.18,9.9 -13.5,18.26 -24.38,23.41 -1.09,0.5 -2.18,0.98 -3.28,1.42z"/>
   <path class="fil8" d="M458.6 195.63c6.82,-0.54 13.64,-2.09 20.28,-4.71l-6.51 -16.54c-4.98,1.97 -10.09,3.13 -15.21,3.53l1.43 17.71z"/>
   <path class="fil5" d="M346.21 72.59c11.69,4.18 24.27,0.41 31.86,-8.51 1.8,-2.13 3.33,-4.55 4.49,-7.22 0.25,-0.59 0.5,-1.19 0.71,-1.8 2.21,-6.17 2.2,-12.6 0.38,-18.41 -2.62,-8.38 -9.01,-15.48 -17.91,-18.66 -2.94,-1.06 -5.93,-1.6 -8.9,-1.69 -12.22,-0.37 -23.83,7.09 -28.17,19.22 -5.39,15.09 2.46,31.68 17.53,37.08zm-26.65 -40.33c5.79,-16.19 21.26,-26.13 37.57,-25.64 3.95,0.12 7.95,0.85 11.87,2.25 11.88,4.26 20.4,13.72 23.9,24.89 2.43,7.75 2.44,16.31 -0.51,24.55 -0.3,0.82 -0.61,1.62 -0.96,2.42 -1.55,3.56 -3.58,6.79 -6,9.62 -10.12,11.89 -26.91,16.93 -42.49,11.35 -20.11,-7.19 -30.58,-29.33 -23.39,-49.44z"/>
   <path class="fil9" d="M383.66 36.64l9.24 -2.89c-3.5,-11.17 -12.02,-20.63 -23.9,-24.89 -3.92,-1.4 -7.92,-2.13 -11.87,-2.25l-0.29 9.68c2.97,0.09 5.96,0.63 8.9,1.69 8.9,3.18 15.29,10.28 17.91,18.66z"/>
   <path class="fil7" d="M382.57 56.85l8.87 3.87c0.34,-0.79 0.66,-1.6 0.96,-2.42 2.94,-8.23 2.93,-16.8 0.51,-24.55l-9.24 2.89c1.82,5.81 1.83,12.24 -0.38,18.41 -0.22,0.61 -0.46,1.22 -0.71,1.8z"/>
   <path class="fil8" d="M385.44 70.35c2.42,-2.83 4.45,-6.06 6,-9.62l-8.87 -3.87c-1.16,2.68 -2.69,5.1 -4.49,7.22l7.37 6.27z"/>
  </g>
  <g id="_1919441503312">
   <path class="fil10" d="M156.14 522.09c0,0 5.92,8.86 14.23,10.77 8.31,1.91 16.5,4.96 16.55,10.2 0.07,5.24 -24.03,8.38 -33.54,3.09 -14.19,-7.9 -15.63,-5.51 -17.21,-9.45 -1.57,-3.94 1.89,-14.49 1.79,-15.75 -0.12,-1.55 18.17,1.13 18.17,1.13z"/>
   <path class="fil11" d="M155.22 517.71c0,0 1.08,4.28 0.92,4.38 -0.16,0.09 -18.73,2.3 -18.17,-1.13 0.45,-2.79 1.11,-5.82 1.11,-5.82l16.14 2.58z"/>
   <path class="fil10" d="M93.66 521.49c0,0 4.23,8.48 11.45,11.37 7.72,3.09 13.91,6.64 13.77,11.74 -0.14,5.12 -18.87,10.29 -32.49,0.48 -8.61,-6.19 -11.34,-6.22 -12.72,-10.13 -1.38,-3.9 2.4,-14.03 2.35,-15.26 -0.07,-1.51 17.64,1.8 17.64,1.8z"/>
   <path class="fil11" d="M93.87 517.1c0,0 -0.05,4.32 -0.21,4.4 -0.15,0.09 -18.1,1.57 -17.64,-1.8 0.35,-2.67 1.74,-5.9 1.74,-5.9l16.11 3.3z"/>
   <path class="fil12" d="M159.67 258.1c0,0 16.67,73.53 20.48,95.93 3.24,19.06 5.82,38.91 4.27,52.68 -1.92,17.03 -26.05,105.34 -25.04,110.34 1.01,4.99 -25.24,0.8 -25.24,0.8 0,0 18.34,-98.5 14.68,-116.84 -2.71,-13.57 -26.49,-103.77 -30.14,-99.14 -3.64,4.63 -8.16,85.12 -10.86,98.49 -2.7,13.36 -10.99,118.94 -10.99,118.94 0,0 -18.53,2.73 -23.48,-1.45 0,0 -2.25,-90.16 -0.53,-115.21 0.66,-9.54 -11.18,-114.47 3.99,-156.72 8.03,-22.32 82.84,12.19 82.84,12.19z"/>
   <path class="fil13" d="M232.22 191.25c-11.88,-1.66 -49.26,14.9 -52.66,13.65 -2.34,-0.87 -7.82,-18.73 -11.73,-32.24 -2.32,-8 -4.08,-14.48 -4.33,-15.01l-0.01 -0.03c0.03,0.37 0.64,6.47 -0.14,14.5 -0.05,0.52 -0.1,1.05 -0.16,1.59 -0.02,0.14 -0.04,0.28 -0.05,0.41 -0.35,2.87 -0.88,5.94 -1.69,9.05 -1.18,4.58 -1.74,10.61 -1.95,16.98l0 0.02 -0.01 0.16c0,0.14 -0.01,0.29 -0.01,0.43l-0.01 0.18c-0.33,11.58 0.47,24.05 0.8,30.7 0.53,10.29 -2.86,14.93 -2.95,15.05l-0.01 0.01 -3.58 -0.51 -2.59 -0.35 -0.03 -0.01 -3.46 -0.48 -13.55 -1.91 -4.91 -0.68 -1.15 -0.16 -8.59 -1.21 -24.22 -3.4 -2.65 -0.37 -1.1 -0.15 -9.14 -1.29 -4.13 -0.58 -0.01 0c0,0 -3.51,-24.86 -3.78,-38.3 -0.24,-12.35 -6.85,-37.4 -7.92,-41.41l-0.02 -0.09 -0.03 -0.11 -0.05 -0.18 -0.03 -0.08 0 -0.02 -0.01 -0.03 -0.01 -0.04c0,0 -19.76,20.76 -23.6,29.83 -1.16,2.75 -4.74,10.22 -9.29,19.32 -3.12,-5.93 -5.07,-10.07 -5.07,-11.1 0,-0.12 0.01,-0.27 0.01,-0.41 0.29,-8.96 9.68,-45.28 17.09,-69.02 5.75,-11.56 10.71,-20.91 12.3,-22.05 2.41,-1.73 12.56,-6.08 21.41,-9.59 0.3,-0.12 0.59,-0.23 0.87,-0.35 0.83,-0.32 1.65,-0.64 2.43,-0.95 0.39,-0.15 0.78,-0.3 1.16,-0.45 0.21,-0.08 0.42,-0.15 0.64,-0.23 0.16,-0.07 0.34,-0.13 0.5,-0.19l0 0c4.43,-1.68 7.8,-2.87 8.49,-2.91 0.12,-0.01 0.3,0 0.55,0.01 0.29,0 0.67,0.02 1.12,0.05 5.47,0.32 21.81,1.86 27.06,2.35 0.96,0.1 1.55,0.15 1.65,0.16l0.01 0c0,0 2.5,1.13 6.27,2.87l0 0 0.36 0.15c2.27,1.05 4.91,2.44 7.7,3.96 5.46,3 11.5,6.5 16.5,8.88 4.91,2.34 11.64,5.59 12.2,6.05l24.87 71.71 43.14 -7.89 -2.49 15.74z"/>
   <path class="fil14" d="M157.31 246.69c0,0 1.83,2.18 2.36,11.42 0,0 -74.91,-8.74 -82.84,-12.19 0,0 -0.31,-10.18 1.38,-10.35 1.85,-0.19 79.11,11.12 79.11,11.12z"/>
   <path class="fil15" d="M93.42 84.67c0.23,11.75 23,18.19 23,18.19 0,0 9.52,-11.93 7.25,-13.08 -0.89,-0.44 -1.26,-2.23 -1.36,-4.23 -0.11,-1.89 0.02,-3.99 0.12,-5.33 0.07,-0.83 0.13,-1.37 0.13,-1.37 0,0 -3.25,-3.43 -7.4,-7.52 -7.22,-7.15 -17.17,-16.3 -17.18,-12.67 -0.01,0.19 0.02,0.42 0.08,0.69 1.75,8.2 -4.65,25.31 -4.65,25.31z"/>
   <path class="fil16" d="M95.32 237.37c0,0 -1.63,10.31 -1.78,13l-3.47 -0.69c0,0 0.96,-10.91 1.52,-12.73l3.73 0.42z"/>
   <path class="fil16" d="M151.07 245.48c0,0 1.31,9.38 1.34,12.92l-3.66 -0.48c0,0 -0.75,-11.71 -1.16,-12.93l3.49 0.49z"/>
   <path class="fil17" d="M102.2 67.44l0 0c0.05,0.07 1.01,1.52 2.66,3.59 3.5,4.39 10.07,11.62 17.46,14.51 -0.11,-1.89 0.02,-3.99 0.12,-5.33 0.76,-0.02 1.51,-0.11 2.26,-0.27 -2.02,-3.54 -4.94,-7.25 -4.94,-7.25l-4.58 -1.36 -12.98 -3.89z"/>
   <path class="fil15" d="M97.82 58.83c1.97,4.28 3.85,7.39 4.37,8.62l0 0c0.35,0.81 1.29,2.11 2.66,3.59 3.75,4.04 10.72,9.37 17.58,9.19 0.76,-0.02 1.51,-0.11 2.26,-0.27 2.77,-0.61 6.04,-1.9 7.84,-5.42 14.19,-27.8 3.91,-50.54 3.91,-50.54 0,0 -38.83,-10.98 -44.91,0.71 -4.26,8.19 1.66,24.05 6.28,34.12z"/>
   <path class="fil18" d="M136.45 23.99c0,0 3.61,-0.2 4.5,-7.04 0.89,-6.75 -0.9,-8.63 -0.9,-8.63 0,0 -16.03,-6.71 -21.78,-7.58 -5.76,-0.88 -19.91,-1.71 -23.23,2.08 0,0 -8.07,-1.86 -10.26,11.51 -3.48,21.24 11.88,41.85 11.88,41.85 0,0 -0.13,-13.87 2.93,-15.71 3.06,-1.83 5.7,2.53 5.7,2.53l6.25 1.13c0,0 -9.5,-20.53 1.9,-21.28 11.41,-0.76 16.51,2.34 23.02,1.14z"/>
   <path class="fil15" d="M105.1 37.48c-0.6,-6.11 -11.65,-8.44 -10.91,-2.03 0.74,6.4 6.19,12.55 8.7,12.34 2.51,-0.22 2.67,-5.65 2.21,-10.31z"/>
   <path class="fil19" d="M66.5 155.85l-0.02 -0.09 -0.03 -0.11 -0.05 -0.18 -0.03 -0.08 0 -0.02 -0.01 -0.03c0,0 -11.65,18.23 -10.78,34.05 0.13,2.47 2.59,8.69 6.16,16.68l0.01 0.01c1.29,2.91 2.74,6.05 4.28,9.33 0.05,-0.14 0.11,-0.28 0.17,-0.41 2.23,-5.43 3.68,-10.54 3.68,-15 0,0 -0.99,-34.73 -3.38,-44.14zm-38.11 37.5c0,-0.12 0.01,-0.27 0.01,-0.41 0.21,-8.93 4.61,-44.71 12.01,-68.45 3.6,-11.52 4.43,-19.57 5.82,-20.56 2.41,-1.73 23.87,-8.08 32.97,-11.65 0.3,-0.12 0.59,-0.23 0.87,-0.35 0.83,-0.32 1.65,-0.64 2.43,-0.95 0.39,-0.15 0.78,-0.3 1.16,-0.45 0.21,-0.08 0.42,-0.15 0.64,-0.23 0.16,-0.07 0.34,-0.13 0.5,-0.19l0.05 0.05c0.82,0.9 5.02,5.69 10.05,12.84 9.41,13.37 21.65,35.02 19.78,55.01 -0.61,6.42 -1.35,15.63 -2.6,25.97 -0.1,0.89 -0.22,1.78 -0.33,2.67 -0.31,2.39 -0.63,4.81 -1,7.27 -0.21,1.48 -0.44,2.96 -0.68,4.46 -2.49,15.5 -10.29,26.07 -17.23,38.7 -0.06,0.1 -0.12,0.21 -0.17,0.32l-0.1 0.18c-0.16,0.27 -0.3,0.54 -0.44,0.81 -0.24,0.44 -0.48,0.89 -0.71,1.34 -0.14,0.26 -0.27,0.52 -0.4,0.78 -1.33,2.54 -2.63,5.15 -3.89,7.76 -0.81,1.68 -1.61,3.38 -2.39,5.06 -0.08,0.18 -0.16,0.36 -0.25,0.53 0,0 -1.27,2.96 -2.91,6.77 -0.6,1.4 -1.25,2.91 -1.9,4.42 -0.45,1.05 -0.9,2.09 -1.34,3.11 -0.39,0.89 -0.75,1.76 -1.11,2.58 -0.78,1.84 -1.47,3.44 -1.94,4.56 -0.36,0.85 -0.6,1.41 -0.67,1.61 -2.39,5.96 -4.11,10.56 -4.91,12.71 -0.32,0.86 -0.48,1.34 -0.48,1.34l-23.97 -13.23c-4.55,-2.28 -2.16,-14.55 -0.46,-19.33 1.42,-3.98 3.42,-8.25 5.68,-12.67 0.92,-1.81 1.88,-3.64 2.88,-5.47 -7.5,-13.11 -15.1,-26.62 -19.91,-35.81 -3.12,-5.93 -5.07,-10.07 -5.07,-11.1z"/>
   <path class="fil19" d="M248.15 166.95l-54.27 11.81 -25.87 -67.64c-0.57,-0.45 -7.98,-4.44 -12.9,-6.78 -5.11,-2.44 -11.58,-5.43 -17.31,-8.09 -2.74,-1.26 -5.33,-2.44 -7.5,-3.45l-0.18 0.14c0,0 3.2,10.66 7.35,37.29l0 0.01c0.14,0.89 0.28,1.8 0.42,2.73 0.01,0.11 0.03,0.22 0.05,0.33 0.1,0.62 0.19,1.24 0.28,1.86l0.04 0.22c0.06,0.43 0.12,0.86 0.18,1.29 0.16,1.05 0.32,2.12 0.47,3.21 1.85,12.97 4.44,35.01 6.93,57.28l0 0.01c1.97,17.54 6.45,35.56 7.88,48.99l0 0.02c0.28,2.64 0.95,6.15 1.87,10.11 0.1,0.44 0.21,0.9 0.32,1.36 4.01,16.97 11.8,40.97 11.8,40.97l2.27 -2.1 6.73 -6.2c1.55,-1.43 2.13,-3.62 1.52,-5.63 -3.73,-12.03 -16.41,-54.6 -18.73,-84.53l0 -0.02c-0.73,-9.41 2.02,-18.26 3.61,-26.66l0.09 0.22c1.34,3.71 2.81,7.74 4.3,11.67l0 0.01c4,10.54 8.1,20.31 9.8,20.94 3.79,1.4 75.24,-18.14 75.73,-20.94l-4.87 -18.43z"/>
   <path class="fil20" d="M91.12 119.29l11.08 6.25 -4.73 4.83 12.6 68.02c2.57,-15.95 3.73,-31.09 4.61,-40.37 2.89,-30.91 -27.95,-65.77 -29.87,-67.9 -1.48,0.56 -3.08,1.18 -4.73,1.84l11.05 27.33z"/>
   <path class="fil20" d="M129.94 92.64c0,0 4.14,13.51 8.97,47.24 1.85,12.96 4.44,35.02 6.93,57.28l2.58 -63.71 -5.27 -5.71 4.68 -5.86 -10.03 -25.63c-2.74,-1.26 -5.33,-2.44 -7.51,-3.45l-0.35 -0.15z"/>
   <path class="fil13" d="M84.25 90.25l9.18 -5.58c0,0 0.26,5.04 23,18.19l-6.46 18.19 -25.72 -30.8z"/>
   <path class="fil13" d="M122.47 87.21c0,0 -0.36,5.44 -6.05,15.65l12.61 16.43 0.91 -26.64 -7.47 -5.44z"/>
   <path class="fil12" d="M116.39 102.86c0,0 -2.44,9.77 -1.57,12.5 0,0 5.38,1.96 9.23,-0.48 0,0 -2.73,-6.84 -7.66,-12.02z"/>
   <path class="fil21" d="M129.02 243.77c1.37,-6.9 0.06,-27.56 0.01,-28.43l-1.17 0.08c0.01,0.21 1.35,21.38 0.01,28.12l1.15 0.23z"/>
   <path class="fil22" d="M119.45 240.59c0,0 11.02,1.32 14.67,2.23l-0.47 12.35 -14.44 -1.54 0.24 -13.04z"/>
   <path class="fil12" d="M121.87 113.99c0,0 12.29,31.05 10.29,65.8 -2.08,36.03 -5.49,49.1 -5.49,49.1l-7.58 9.5 -3.35 -11.69c0,0 10.17,-45.94 3.61,-90.63 -1.19,-8.1 -2.95,-23.45 -2.95,-23.45l5.47 1.37z"/>
   <path class="fil15" d="M84.92 260.62c0,0 2.64,5.27 5.28,6.15 2.64,0.88 6.48,5.17 6.48,5.17l-18.57 9.78c0,0 -4.95,-9.68 -5.17,-15.83 -0.22,-6.16 11.98,-5.27 11.98,-5.27z"/>
   <path class="fil23" d="M86.68 261.11l1.23 2.47c0,0 -11.79,8.63 -14.98,9.18l-1.09 -3.29 14.83 -8.36z"/>
   <path class="fil19" d="M87.92 261.22c0,0 -8.84,7.32 -16.28,10.69l-25.06 -45.07 12.98 -25.1c0,0 27.78,55.09 28.37,59.49z"/>
   <path class="fil12" d="M162.76 157.74c0.41,8.33 0.35,15.74 0.35,15.74l0 0.01c0.01,0.04 0.02,0.27 0.04,0.64 0.01,-0.14 0.03,-0.28 0.05,-0.41 1.34,3.71 2.81,7.74 4.3,11.67 0.35,-4.55 0.44,-8.79 0.34,-12.71 -0.6,-23.38 -7.94,-35.63 -7.94,-35.63 1.68,4.07 2.49,12.81 2.88,20.72z"/>
   <path class="fil12" d="M50.49 245.73l20.05 24.23 -17.18 -29.7c-0.99,1.84 -1.95,3.67 -2.88,5.47z"/>
   <path class="fil24" d="M196.16 215.36l46.31 0c3.17,0 5.93,-2.17 6.68,-5.26l20.11 -83.06c1.05,-4.33 -2.22,-8.49 -6.68,-8.49l-46.32 0c-3.18,0 -5.93,2.17 -6.68,5.26l-20.11 83.05c-1.05,4.33 2.23,8.5 6.68,8.5z"/>
   <path class="fil15" d="M252.81 192.27c-2.26,-2.1 -6.64,-3.32 -10.38,-5.82 -3.74,-2.5 -0.62,-5.08 -0.62,-5.08 -3.85,-1.32 -3.43,-3.08 -2.94,-4.27 0.66,-1.62 4.87,-1.16 4.87,-1.16 0,0 -3.76,-0.83 -5.31,-1.52 -1.56,-0.68 -1.03,-3.39 1.36,-4.23 2.39,-0.86 12.1,1.54 12.1,1.54 0,0 -1.59,-0.78 -6.38,-3.18 -4.79,-2.4 -5.85,-4.59 -3.02,-5.64 1.96,-0.73 5.82,0.8 13.23,5.77 5.58,3.75 5.13,4.24 5.13,4.24 0,0 -5.32,21.85 -8.03,19.35z"/>
  </g>
 </g>
</svg>
