<?xml version="1.0" encoding="UTF-8"?>
<!DOCTYPE svg PUBLIC "-//W3C//DTD SVG 1.1//EN" "http://www.w3.org/Graphics/SVG/1.1/DTD/svg11.dtd">
<!-- Creator: CorelDRAW 2019 (64-Bit) -->
<svg xmlns="http://www.w3.org/2000/svg" xml:space="preserve" width="34.927mm" height="79.7739mm" version="1.1" style="shape-rendering:geometricPrecision; text-rendering:geometricPrecision; image-rendering:optimizeQuality; fill-rule:evenodd; clip-rule:evenodd"
viewBox="0 0 110.11 251.5"
 xmlns:xlink="http://www.w3.org/1999/xlink"
 xmlns:xodm="http://www.corel.com/coreldraw/odm/2003">
 <defs>
  <style type="text/css">
   <![CDATA[
    .fil8 {fill:#0A0808;fill-rule:nonzero}
    .fil0 {fill:#181818;fill-rule:nonzero}
    .fil14 {fill:#323657;fill-rule:nonzero}
    .fil6 {fill:#353A3D;fill-rule:nonzero}
    .fil2 {fill:#484442;fill-rule:nonzero}
    .fil4 {fill:#495055;fill-rule:nonzero}
    .fil12 {fill:#69737A;fill-rule:nonzero}
    .fil1 {fill:#81807E;fill-rule:nonzero}
    .fil9 {fill:#858585;fill-rule:nonzero}
    .fil7 {fill:#A77860;fill-rule:nonzero}
    .fil11 {fill:#AD9F99;fill-rule:nonzero}
    .fil10 {fill:#AFAFB1;fill-rule:nonzero}
    .fil13 {fill:#DECBC4;fill-rule:nonzero}
    .fil5 {fill:#EEA886;fill-rule:nonzero}
    .fil3 {fill:white;fill-rule:nonzero}
   ]]>
  </style>
 </defs>
 <g id="Слой_x0020_1">
  <metadata id="CorelCorpID_0Corel-Layer"/>
  <g id="_1919438448928">
   <path class="fil0" d="M58.35 238.46c0,0 2.71,4.05 6.5,4.92 3.8,0.87 7.53,2.27 7.56,4.66 0.03,2.39 -10.97,3.83 -15.32,1.41 -6.48,-3.61 -7.14,-2.52 -7.86,-4.32 -0.72,-1.8 0.86,-6.62 0.82,-7.19 -0.06,-0.71 8.3,0.52 8.3,0.52z"/>
   <path class="fil1" d="M57.93 236.46c0,0 0.49,1.95 0.42,2 -0.07,0.04 -8.55,1.05 -8.3,-0.52 0.21,-1.27 0.51,-2.66 0.51,-2.66l7.37 1.18z"/>
   <path class="fil0" d="M29.81 238.19c0,0 1.93,3.87 5.23,5.19 3.53,1.41 6.35,3.03 6.29,5.36 -0.07,2.34 -8.62,4.7 -14.84,0.22 -3.93,-2.83 -5.18,-2.84 -5.81,-4.63 -0.63,-1.78 1.09,-6.41 1.07,-6.97 -0.03,-0.69 8.06,0.82 8.06,0.82z"/>
   <path class="fil1" d="M29.91 236.18c0,0 -0.02,1.97 -0.1,2.01 -0.07,0.04 -8.27,0.72 -8.06,-0.82 0.16,-1.22 0.8,-2.69 0.8,-2.69l7.36 1.51z"/>
   <path class="fil2" d="M59.96 117.89c0,0 7.61,33.58 9.35,43.82 1.48,8.71 2.66,17.77 1.95,24.06 -0.88,7.78 -11.9,48.11 -11.44,50.4 0.46,2.28 -11.53,0.36 -11.53,0.36 0,0 8.38,-44.99 6.7,-53.37 -1.24,-6.2 -12.1,-47.4 -13.76,-45.28 -1.66,2.11 -3.73,38.88 -4.96,44.98 -1.24,6.1 -5.02,54.33 -5.02,54.33 0,0 -8.46,1.25 -10.72,-0.66 0,0 -1.03,-41.18 -0.24,-52.62 0.3,-4.36 -5.11,-52.29 1.82,-71.58 3.67,-10.2 37.84,5.57 37.84,5.57z"/>
   <path class="fil3" d="M93.1 87.35c-5.43,-0.76 -22.5,6.81 -24.05,6.23 -1.07,-0.4 -3.57,-8.55 -5.36,-14.73 -1.06,-3.66 -1.86,-6.61 -1.98,-6.86l-0 -0.01c0.01,0.17 0.29,2.96 -0.06,6.62 -0.02,0.24 -0.05,0.48 -0.07,0.72 -0.01,0.06 -0.02,0.13 -0.02,0.19 -0.16,1.31 -0.4,2.72 -0.77,4.13 -0.54,2.09 -0.79,4.84 -0.89,7.75l0 0.01 -0.01 0.07c0,0.07 -0,0.13 -0,0.2l-0 0.08c-0.15,5.29 0.22,10.99 0.36,14.02 0.24,4.7 -1.3,6.82 -1.35,6.88l-0 0 -1.63 -0.23 -1.18 -0.16 -0.01 -0 -1.58 -0.22 -6.19 -0.87 -2.24 -0.31 -0.53 -0.07 -3.92 -0.55 -11.06 -1.56 -1.21 -0.17 -0.5 -0.07 -4.17 -0.59 -1.88 -0.26 -0 0c0,0 -1.6,-11.36 -1.73,-17.49 -0.11,-5.64 -3.13,-17.08 -3.62,-18.92l-0.01 -0.04 -0.01 -0.05 -0.02 -0.08 -0.01 -0.04 0 -0.01 -0.01 -0.01 -0 -0.02c0,0 -9.03,9.48 -10.78,13.62 -0.53,1.26 -2.17,4.67 -4.24,8.82 -1.42,-2.71 -2.31,-4.6 -2.31,-5.07 0,-0.06 0,-0.12 0,-0.19 0.13,-4.09 4.42,-20.68 7.81,-31.52 2.63,-5.28 4.89,-9.55 5.62,-10.07 1.1,-0.79 5.74,-2.78 9.78,-4.38 0.14,-0.05 0.27,-0.1 0.4,-0.16 0.38,-0.14 0.75,-0.29 1.11,-0.43 0.18,-0.07 0.36,-0.14 0.53,-0.21 0.1,-0.03 0.19,-0.07 0.29,-0.11 0.07,-0.03 0.15,-0.06 0.23,-0.09l0 0c2.03,-0.77 3.56,-1.31 3.88,-1.33 0.05,-0 0.14,0 0.25,0.01 0.13,0 0.31,0.01 0.51,0.02 2.5,0.14 9.96,0.85 12.36,1.07 0.44,0.04 0.71,0.07 0.75,0.07l0 0c0,0 1.14,0.52 2.86,1.31l0 0 0.16 0.07c1.04,0.48 2.24,1.12 3.51,1.81 2.5,1.37 5.25,2.97 7.54,4.05 2.24,1.07 5.32,2.55 5.57,2.76l11.36 32.75 19.7 -3.6 -1.14 7.19z"/>
   <path class="fil4" d="M58.88 112.67c0,0 0.84,1 1.08,5.21 0,0 -34.22,-3.99 -37.84,-5.57 0,0 -0.14,-4.65 0.63,-4.73 0.84,-0.09 36.13,5.08 36.13,5.08z"/>
   <path class="fil5" d="M29.7 38.67c0.11,5.37 10.5,8.31 10.5,8.31 0,0 4.35,-5.45 3.31,-5.97 -0.41,-0.2 -0.58,-1.02 -0.62,-1.93 -0.05,-0.86 0.01,-1.82 0.06,-2.43 0.03,-0.38 0.06,-0.62 0.06,-0.62 0,0 -1.48,-1.57 -3.38,-3.44 -3.3,-3.26 -7.84,-7.45 -7.85,-5.79 -0,0.09 0.01,0.19 0.04,0.32 0.8,3.75 -2.12,11.56 -2.12,11.56z"/>
   <path class="fil6" d="M30.57 108.42c0,0 -0.75,4.71 -0.81,5.94l-1.59 -0.32c0,0 0.44,-4.98 0.69,-5.82l1.7 0.19z"/>
   <path class="fil6" d="M56.03 112.12c0,0 0.6,4.28 0.61,5.9l-1.67 -0.22c0,0 -0.34,-5.35 -0.53,-5.9l1.59 0.22z"/>
   <path class="fil7" d="M33.71 30.8l0 0c0.02,0.03 0.46,0.69 1.21,1.64 1.6,2.01 4.6,5.31 7.97,6.63 -0.05,-0.86 0.01,-1.82 0.06,-2.43 0.35,-0.01 0.69,-0.05 1.03,-0.12 -0.92,-1.62 -2.26,-3.31 -2.26,-3.31l-2.09 -0.62 -5.93 -1.78z"/>
   <path class="fil5" d="M31.71 26.87c0.9,1.95 1.76,3.37 2,3.94l0 0c0.16,0.37 0.59,0.96 1.21,1.64 1.71,1.85 4.9,4.28 8.03,4.2 0.35,-0.01 0.69,-0.05 1.03,-0.12 1.27,-0.28 2.76,-0.87 3.58,-2.47 6.48,-12.7 1.79,-23.08 1.79,-23.08 0,0 -17.73,-5.02 -20.51,0.33 -1.95,3.74 0.76,10.99 2.87,15.59z"/>
   <path class="fil8" d="M49.35 10.96c0,0 1.65,-0.09 2.06,-3.22 0.4,-3.08 -0.41,-3.94 -0.41,-3.94 0,0 -7.32,-3.06 -9.95,-3.46 -2.63,-0.4 -9.09,-0.78 -10.61,0.95 0,0 -3.68,-0.85 -4.69,5.26 -1.59,9.7 5.43,19.11 5.43,19.11 0,0 -0.06,-6.34 1.34,-7.18 1.4,-0.84 2.61,1.16 2.61,1.16l2.85 0.51c0,0 -4.34,-9.37 0.87,-9.72 5.21,-0.35 7.54,1.07 10.52,0.52z"/>
   <path class="fil5" d="M35.04 17.12c-0.27,-2.79 -5.32,-3.85 -4.98,-0.93 0.34,2.92 2.83,5.73 3.97,5.64 1.15,-0.1 1.22,-2.58 1.01,-4.71z"/>
   <path class="fil9" d="M17.41 71.19l-0.01 -0.04 -0.01 -0.05 -0.02 -0.08 -0.01 -0.04 0 -0.01 -0.01 -0.01c0,0 -5.32,8.32 -4.92,15.55 0.06,1.13 1.18,3.97 2.81,7.62l0 0c0.59,1.33 1.25,2.76 1.95,4.26 0.02,-0.06 0.05,-0.13 0.08,-0.19 1.02,-2.48 1.68,-4.82 1.68,-6.85 0,0 -0.45,-15.86 -1.54,-20.16zm-17.41 17.13c0,-0.06 0,-0.12 0,-0.19 0.1,-4.08 2.1,-20.42 5.49,-31.26 1.64,-5.26 2.02,-8.94 2.66,-9.39 1.1,-0.79 10.9,-3.69 15.06,-5.32 0.14,-0.05 0.27,-0.1 0.4,-0.16 0.38,-0.14 0.75,-0.29 1.11,-0.43 0.18,-0.07 0.36,-0.14 0.53,-0.21 0.1,-0.03 0.19,-0.07 0.29,-0.11 0.07,-0.03 0.15,-0.06 0.23,-0.09l0.02 0.02c0.37,0.41 2.29,2.6 4.59,5.86 4.3,6.11 9.89,15.99 9.03,25.12 -0.28,2.93 -0.62,7.14 -1.19,11.86 -0.05,0.4 -0.1,0.81 -0.15,1.22 -0.14,1.09 -0.29,2.2 -0.46,3.32 -0.1,0.68 -0.2,1.35 -0.31,2.04 -1.14,7.08 -4.7,11.91 -7.87,17.68 -0.03,0.05 -0.05,0.1 -0.08,0.14l-0.04 0.08c-0.07,0.12 -0.14,0.25 -0.2,0.37 -0.11,0.2 -0.22,0.41 -0.32,0.61 -0.06,0.12 -0.12,0.24 -0.18,0.36 -0.61,1.16 -1.2,2.35 -1.78,3.55 -0.37,0.77 -0.73,1.54 -1.09,2.31 -0.04,0.08 -0.07,0.16 -0.11,0.24 0,0 -0.58,1.35 -1.33,3.09 -0.28,0.64 -0.57,1.33 -0.87,2.02 -0.21,0.48 -0.41,0.95 -0.61,1.42 -0.18,0.41 -0.34,0.8 -0.51,1.18 -0.36,0.84 -0.67,1.57 -0.89,2.08 -0.16,0.39 -0.27,0.65 -0.31,0.73 -1.09,2.72 -1.88,4.82 -2.24,5.81 -0.14,0.4 -0.22,0.61 -0.22,0.61l-10.95 -6.04c-2.08,-1.04 -0.99,-6.65 -0.21,-8.83 0.65,-1.82 1.56,-3.77 2.6,-5.78 0.42,-0.83 0.86,-1.66 1.31,-2.5 -3.43,-5.99 -6.9,-12.16 -9.09,-16.36 -1.42,-2.71 -2.31,-4.6 -2.31,-5.07z"/>
   <path class="fil9" d="M100.38 76.25l-24.79 5.39 -11.82 -30.9c-0.26,-0.21 -3.65,-2.03 -5.89,-3.1 -2.33,-1.11 -5.29,-2.48 -7.91,-3.69 -1.25,-0.58 -2.43,-1.12 -3.43,-1.58l-0.08 0.07c0,0 1.46,4.87 3.36,17.03l0 0c0.07,0.41 0.13,0.82 0.19,1.25 0.01,0.05 0.01,0.1 0.02,0.15 0.04,0.28 0.09,0.57 0.13,0.85l0.02 0.1c0.03,0.2 0.06,0.39 0.08,0.59 0.08,0.48 0.14,0.97 0.22,1.47 0.84,5.92 2.03,15.99 3.17,26.16l0 0c0.9,8.01 2.95,16.24 3.6,22.38l0 0.01c0.13,1.2 0.44,2.81 0.85,4.62 0.04,0.2 0.1,0.41 0.14,0.62 1.83,7.75 5.39,18.71 5.39,18.71l1.04 -0.96 3.07 -2.83c0.71,-0.65 0.97,-1.65 0.69,-2.57 -1.7,-5.5 -7.49,-24.94 -8.55,-38.61l0 -0.01c-0.33,-4.3 0.92,-8.34 1.65,-12.18l0.04 0.1c0.61,1.7 1.28,3.54 1.96,5.33l0 0.01c1.83,4.82 3.7,9.28 4.48,9.56 1.73,0.64 34.37,-8.29 34.59,-9.56l-2.23 -8.42z"/>
   <path class="fil10" d="M28.65 54.48l5.06 2.85 -2.16 2.21 5.76 31.07c1.17,-7.28 1.7,-14.2 2.1,-18.44 1.32,-14.12 -12.77,-30.04 -13.64,-31.01 -0.68,0.26 -1.41,0.54 -2.16,0.84l5.05 12.49z"/>
   <path class="fil10" d="M46.38 42.31c0,0 1.89,6.17 4.1,21.58 0.84,5.92 2.03,16 3.17,26.16l1.18 -29.1 -2.41 -2.61 2.14 -2.68 -4.58 -11.71c-1.25,-0.58 -2.43,-1.12 -3.43,-1.58l-0.16 -0.07z"/>
   <path class="fil3" d="M25.51 41.22l4.19 -2.55c0,0 0.12,2.3 10.5,8.31l-2.95 8.31 -11.75 -14.07z"/>
   <path class="fil3" d="M42.97 39.83c0,0 -0.16,2.48 -2.76,7.15l5.76 7.5 0.42 -12.17 -3.41 -2.48z"/>
   <path class="fil2" d="M40.2 46.98c0,0 -1.12,4.46 -0.72,5.71 0,0 2.46,0.9 4.22,-0.22 0,0 -1.25,-3.12 -3.5,-5.49z"/>
   <path class="fil11" d="M45.96 111.34c0.62,-3.15 0.03,-12.59 0,-12.99l-0.54 0.04c0.01,0.1 0.62,9.77 0.01,12.84l0.53 0.11z"/>
   <path class="fil12" d="M41.59 109.89c0,0 5.04,0.6 6.7,1.02l-0.22 5.64 -6.59 -0.7 0.11 -5.96z"/>
   <path class="fil2" d="M42.7 52.07c0,0 5.61,14.18 4.7,30.05 -0.95,16.46 -2.51,22.43 -2.51,22.43l-3.46 4.34 -1.53 -5.34c0,0 4.65,-20.98 1.65,-41.4 -0.54,-3.7 -1.35,-10.71 -1.35,-10.71l2.5 0.62z"/>
   <path class="fil5" d="M25.82 119.04c0,0 1.2,2.41 2.41,2.81 1.2,0.4 2.96,2.36 2.96,2.36l-8.48 4.47c0,0 -2.26,-4.42 -2.36,-7.23 -0.1,-2.81 5.47,-2.41 5.47,-2.41z"/>
   <path class="fil13" d="M26.63 119.26l0.56 1.13c0,0 -5.39,3.94 -6.84,4.19l-0.5 -1.5 6.77 -3.82z"/>
   <path class="fil9" d="M27.19 119.31c0,0 -4.04,3.34 -7.44,4.88l-11.45 -20.59 5.93 -11.47c0,0 12.69,25.16 12.96,27.17z"/>
   <path class="fil2" d="M61.37 72.05c0.19,3.8 0.16,7.19 0.16,7.19l0 0c0.01,0.02 0.01,0.12 0.02,0.29 0.01,-0.06 0.01,-0.13 0.02,-0.19 0.61,1.7 1.28,3.54 1.96,5.33 0.16,-2.08 0.2,-4.01 0.15,-5.81 -0.27,-10.68 -3.63,-16.28 -3.63,-16.28 0.77,1.86 1.14,5.85 1.31,9.46z"/>
   <path class="fil2" d="M10.09 112.24l9.16 11.07 -7.85 -13.57c-0.45,0.84 -0.89,1.67 -1.31,2.5z"/>
   <path class="fil14" d="M76.63 98.36l21.15 0c1.45,0 2.71,-0.99 3.05,-2.4l9.19 -37.94c0.48,-1.98 -1.01,-3.88 -3.05,-3.88l-21.16 0c-1.45,0 -2.71,0.99 -3.05,2.4l-9.19 37.93c-0.48,1.98 1.02,3.88 3.05,3.88z"/>
   <path class="fil5" d="M102.5 87.82c-1.03,-0.96 -3.03,-1.52 -4.74,-2.66 -1.71,-1.14 -0.28,-2.32 -0.28,-2.32 -1.76,-0.6 -1.57,-1.41 -1.34,-1.95 0.3,-0.74 2.22,-0.53 2.22,-0.53 0,0 -1.72,-0.38 -2.42,-0.69 -0.71,-0.31 -0.47,-1.55 0.62,-1.93 1.09,-0.39 5.53,0.7 5.53,0.7 0,0 -0.73,-0.36 -2.91,-1.45 -2.19,-1.1 -2.67,-2.09 -1.38,-2.57 0.9,-0.33 2.66,0.37 6.04,2.64 2.55,1.71 2.34,1.94 2.34,1.94 0,0 -2.43,9.98 -3.67,8.84z"/>
  </g>
 </g>
</svg>
