<?xml version="1.0" encoding="UTF-8"?>
<!DOCTYPE svg PUBLIC "-//W3C//DTD SVG 1.1//EN" "http://www.w3.org/Graphics/SVG/1.1/DTD/svg11.dtd">
<!-- Creator: CorelDRAW 2019 (64-Bit) -->
<svg xmlns="http://www.w3.org/2000/svg" xml:space="preserve" width="128.445mm" height="85.2149mm" version="1.1" style="shape-rendering:geometricPrecision; text-rendering:geometricPrecision; image-rendering:optimizeQuality; fill-rule:evenodd; clip-rule:evenodd"
viewBox="0 0 1293.45 858.12"
 xmlns:xlink="http://www.w3.org/1999/xlink"
 xmlns:xodm="http://www.corel.com/coreldraw/odm/2003">
 <defs>
  <style type="text/css">
   <![CDATA[
    .fil28 {fill:#FCFDFE;fill-rule:nonzero}
    .fil29 {fill:#EFF0F3;fill-rule:nonzero}
    .fil30 {fill:#E2E4F1;fill-rule:nonzero}
    .fil9 {fill:#DFE4DF;fill-rule:nonzero}
    .fil21 {fill:#C2D1E1;fill-rule:nonzero}
    .fil5 {fill:#B9C9DE;fill-rule:nonzero}
    .fil6 {fill:#B2C1DA;fill-rule:nonzero}
    .fil8 {fill:#9BB0CD;fill-rule:nonzero}
    .fil17 {fill:#97A8C9;fill-rule:nonzero}
    .fil22 {fill:#6E81B0;fill-rule:nonzero}
    .fil23 {fill:#4D5699;fill-rule:nonzero}
    .fil20 {fill:#3F4B8F;fill-rule:nonzero}
    .fil24 {fill:#0A0808;fill-rule:nonzero}
    .fil11 {fill:#1487E3;fill-rule:nonzero}
    .fil16 {fill:#181818;fill-rule:nonzero}
    .fil7 {fill:#1A598C;fill-rule:nonzero}
    .fil13 {fill:#2273B5;fill-rule:nonzero}
    .fil35 {fill:#2B2F4D;fill-rule:nonzero}
    .fil4 {fill:#3788CC;fill-rule:nonzero}
    .fil31 {fill:#422818;fill-rule:nonzero}
    .fil34 {fill:#434343;fill-rule:nonzero}
    .fil18 {fill:#484442;fill-rule:nonzero}
    .fil33 {fill:#494F80;fill-rule:nonzero}
    .fil12 {fill:#4AAFFF;fill-rule:nonzero}
    .fil19 {fill:#A77860;fill-rule:nonzero}
    .fil37 {fill:#A87860;fill-rule:nonzero}
    .fil36 {fill:#D1C0BA;fill-rule:nonzero}
    .fil14 {fill:#E0E0E0;fill-rule:nonzero}
    .fil10 {fill:#EAEAEB;fill-rule:nonzero}
    .fil32 {fill:#EEA886;fill-rule:nonzero}
    .fil25 {fill:#EEA987;fill-rule:nonzero}
    .fil15 {fill:#FCFCFC;fill-rule:nonzero}
    .fil2 {fill:white;fill-rule:nonzero}
    .fil27 {fill:url(#id0)}
    .fil0 {fill:url(#id1)}
    .fil1 {fill:url(#id2)}
    .fil26 {fill:url(#id3)}
    .fil3 {fill:url(#id4)}
   ]]>
  </style>
  <linearGradient id="id0" gradientUnits="userSpaceOnUse" x1="1092.44" y1="181.82" x2="1113.19" y2="180.43">
   <stop offset="0" style="stop-opacity:1; stop-color:#166792"/>
   <stop offset="1" style="stop-opacity:1; stop-color:#23AFE4"/>
  </linearGradient>
  <linearGradient id="id1" gradientUnits="userSpaceOnUse" x1="484.4" y1="605.3" x2="749.48" y2="599.43">
   <stop offset="0" style="stop-opacity:1; stop-color:#004E79"/>
   <stop offset="1" style="stop-opacity:1; stop-color:#0A96CB"/>
  </linearGradient>
  <linearGradient id="id2" gradientUnits="userSpaceOnUse" xlink:href="#id0" x1="158.72" y1="331.55" x2="1077.67" y2="277.11">
  </linearGradient>
  <linearGradient id="id3" gradientUnits="userSpaceOnUse" xlink:href="#id0" x1="1089.39" y1="284.86" x2="1116.58" y2="268.92">
  </linearGradient>
  <linearGradient id="id4" gradientUnits="userSpaceOnUse" xlink:href="#id0" x1="370.46" y1="650.22" x2="863.42" y2="646.52">
  </linearGradient>
 </defs>
 <g id="Слой_x0020_1">
  <metadata id="CorelCorpID_0Corel-Layer"/>
  <g id="_1919138372192">
   <polygon class="fil0" points="735.29,633.22 498.59,633.22 498.59,569.54 735.29,569.54 "/>
   <path class="fil1" d="M984.09 590.33l-731.81 0c-24.5,0 -44.36,-19.86 -44.36,-44.36l0 -501.6c0,-24.5 19.86,-44.36 44.36,-44.36l731.81 0c24.5,0 44.36,19.87 44.36,44.36l0 501.6c0,24.5 -19.86,44.36 -44.36,44.36z"/>
   <path class="fil2" d="M975.78 533.68l-717.69 0c-15.05,0 -27.25,-12.2 -27.25,-27.26l0 -457.64c0,-15.05 12.2,-27.25 27.25,-27.25l717.69 0c15.06,0 27.26,12.2 27.26,27.25l0 457.64c0,15.06 -12.21,27.26 -27.26,27.26z"/>
   <path class="fil3" d="M837.03 667.82l-440.17 0 0 -5.54c0,-19.11 15.49,-34.6 34.6,-34.6l370.97 0c19.11,0 34.6,15.49 34.6,34.6l0 5.54z"/>
   <g>
    <g>
     <polygon class="fil4" points="933.06,327.91 909.52,327.91 909.52,268.82 933.06,268.82 "/>
     <polygon class="fil5" points="880.03,327.91 856.48,327.91 856.48,216.95 880.03,216.95 "/>
     <polygon class="fil4" points="826.99,327.91 803.45,327.91 803.45,228.42 826.99,228.42 "/>
     <polygon class="fil5" points="773.95,327.91 750.42,327.91 750.42,172.25 773.95,172.25 "/>
     <polygon class="fil6" points="880.03,327.91 869.22,327.91 869.22,216.95 880.03,216.95 "/>
     <polygon class="fil7" points="933.06,327.91 922.26,327.91 922.26,268.82 933.06,268.82 "/>
     <polygon class="fil8" points="773.95,327.91 763.15,327.91 763.15,172.25 773.95,172.25 "/>
     <polygon class="fil7" points="826.99,327.91 816.18,327.91 816.18,228.42 826.99,228.42 "/>
     <polygon class="fil9" points="737.96,344.17 948.6,344.17 948.6,139.92 945.39,139.92 945.39,340.96 737.96,340.96 "/>
     <polygon class="fil9" points="926.97,241.15 929.11,238.76 874.01,189.28 822.97,200.37 767.71,138.84 765.31,140.99 821.83,203.91 873.09,192.77 "/>
     <polygon class="fil9" points="760.98,150.08 776.57,135.13 756.45,129.75 "/>
    </g>
    <path class="fil10" d="M680.17 460.49l-398.31 0c-15.26,0 -27.63,-12.37 -27.63,-27.63l0 -360.07c0,-15.26 12.37,-27.63 27.63,-27.63l398.31 0c15.26,0 27.63,12.36 27.63,27.63l0 360.07c0,15.26 -12.37,27.63 -27.63,27.63z"/>
    <path class="fil11" d="M549.66 108.83l106.71 0c3.98,0 7.2,-3.22 7.2,-7.2 0,-3.97 -3.22,-7.2 -7.2,-7.2l-106.71 0c-3.98,0 -7.2,3.22 -7.2,7.2 0,3.98 3.22,7.2 7.2,7.2z"/>
    <path class="fil12" d="M549.66 133.95l106.71 0c3.98,0 7.2,-3.22 7.2,-7.2 0,-3.98 -3.22,-7.21 -7.2,-7.21l-106.71 0c-3.98,0 -7.2,3.22 -7.2,7.21 0,3.98 3.22,7.2 7.2,7.2z"/>
    <path class="fil12" d="M549.66 159.06l106.71 0c3.98,0 7.2,-3.22 7.2,-7.2 0,-3.98 -3.22,-7.2 -7.2,-7.2l-106.71 0c-3.98,0 -7.2,3.22 -7.2,7.2 0,3.97 3.22,7.2 7.2,7.2z"/>
    <path class="fil12" d="M433.7 258.17c-31.78,11.37 -66.04,1.11 -86.69,-23.16 -4.92,-5.79 -9.07,-12.37 -12.22,-19.65 -0.69,-1.6 -1.35,-3.24 -1.94,-4.92 -6.01,-16.79 -5.98,-34.28 -1.03,-50.08 7.14,-22.81 24.52,-42.11 48.75,-50.78 8,-2.86 16.15,-4.35 24.21,-4.6 33.27,-1 64.83,19.29 76.65,52.32 14.67,41.03 -6.69,86.18 -47.72,100.85zm72.52 -109.73c-15.76,-44.05 -57.86,-71.11 -102.23,-69.78 -10.75,0.33 -21.62,2.31 -32.3,6.13 -32.31,11.57 -55.49,37.31 -65.02,67.73 -6.6,21.08 -6.64,44.4 1.37,66.8 0.8,2.23 1.67,4.42 2.6,6.56 4.21,9.71 9.74,18.48 16.31,26.19 27.54,32.38 73.24,46.05 115.63,30.9 54.72,-19.57 83.22,-79.8 63.65,-134.53z"/>
    <path class="fil7" d="M331.81 160.37l-25.14 -7.85c9.53,-30.41 32.7,-56.16 65.02,-67.73 10.68,-3.82 21.55,-5.8 32.3,-6.13l0.78 26.33c-8.06,0.25 -16.21,1.74 -24.21,4.6 -24.24,8.66 -41.61,27.96 -48.75,50.78z"/>
    <path class="fil13" d="M334.79 215.37l-24.15 10.52c-0.93,-2.14 -1.8,-4.33 -2.6,-6.56 -8.01,-22.4 -7.97,-45.73 -1.37,-66.8l25.14 7.85c-4.95,15.8 -4.98,33.29 1.03,50.08 0.6,1.68 1.25,3.31 1.94,4.92z"/>
    <path class="fil4" d="M326.94 252.08c-6.56,-7.71 -12.09,-16.48 -16.31,-26.19l24.15 -10.52c3.15,7.28 7.3,13.86 12.22,19.65l-20.06 17.06z"/>
    <path class="fil12" d="M608.34 266.04c-5.98,12.63 -18.99,19.65 -32.14,18.58 -3.12,-0.26 -6.26,-0.96 -9.32,-2.17 -0.67,-0.27 -1.34,-0.56 -2,-0.87 -6.67,-3.15 -11.78,-8.28 -14.95,-14.34 -4.59,-8.76 -5.15,-19.49 -0.59,-29.11 1.5,-3.17 3.45,-6 5.73,-8.42 9.44,-10.02 24.6,-13.33 37.73,-7.12 16.29,7.71 23.25,27.17 15.54,43.46zm-10.88 -53.3c-17.5,-8.28 -37.73,-3.88 -50.32,9.5 -3.04,3.23 -5.64,7 -7.65,11.23 -6.07,12.84 -5.32,27.15 0.79,38.83 4.23,8.1 11.04,14.93 19.95,19.14 0.88,0.42 1.77,0.8 2.67,1.16 4.07,1.61 8.26,2.56 12.43,2.88 17.53,1.42 34.89,-7.94 42.85,-24.78 10.28,-21.73 1,-47.68 -20.73,-57.96z"/>
    <path class="fil7" d="M549.93 267.23l-9.65 5.06c-6.12,-11.68 -6.86,-25.99 -0.79,-38.83 2.01,-4.23 4.61,-8 7.65,-11.23l7.93 7.46c-2.28,2.43 -4.23,5.25 -5.73,8.42 -4.56,9.62 -4,20.35 0.59,29.11z"/>
    <path class="fil12" d="M566.89 282.45l-3.99 10.14c-0.9,-0.36 -1.79,-0.74 -2.67,-1.16 -8.9,-4.21 -15.71,-11.04 -19.95,-19.14l9.65 -5.06c3.17,6.07 8.28,11.19 14.95,14.34 0.66,0.32 1.33,0.6 2,0.87z"/>
    <path class="fil12" d="M575.33 295.48c-4.17,-0.33 -8.37,-1.28 -12.43,-2.88l3.99 -10.14c3.05,1.21 6.2,1.91 9.32,2.17l-0.87 10.85z"/>
    <polygon class="fil12" points="565.46,324.18 484.18,324.18 484.18,322.56 563.85,322.56 563.85,288.12 565.46,288.12 "/>
    <polygon class="fil14" points="484.18,315.43 526.97,315.43 526.97,305.74 484.18,305.74 "/>
    <path class="fil15" d="M680.17 460.49l-260.59 0 0 -95.04c0,-10.3 8.36,-18.66 18.66,-18.66l269.56 0 0 86.07c0,15.26 -12.37,27.63 -27.63,27.63z"/>
    <g>
     <polygon class="fil14" points="479.39,502.64 498.82,502.64 498.82,383.48 479.39,383.48 "/>
     <polygon class="fil14" points="527.64,502.64 547.08,502.64 547.08,407.69 527.64,407.69 "/>
     <polygon class="fil14" points="575.89,502.64 595.32,502.64 595.32,389.87 575.89,389.87 "/>
     <polygon class="fil14" points="624.14,502.64 643.57,502.64 643.57,425.05 624.14,425.05 "/>
     <polygon class="fil14" points="672.39,502.64 691.82,502.64 691.82,393.53 672.39,393.53 "/>
     <polygon class="fil14" points="817.13,502.64 836.56,502.64 836.56,393.53 817.13,393.53 "/>
     <polygon class="fil14" points="720.63,502.64 740.07,502.64 740.07,377.08 720.63,377.08 "/>
     <polygon class="fil14" points="865.38,502.64 884.81,502.64 884.81,377.08 865.38,377.08 "/>
     <polygon class="fil14" points="768.88,502.64 788.31,502.64 788.31,370.23 768.88,370.23 "/>
     <polygon class="fil14" points="913.63,502.64 933.06,502.64 933.06,370.23 913.63,370.23 "/>
     <polygon class="fil4" points="479.39,502.64 498.82,502.64 498.82,427.88 479.39,427.88 "/>
     <polygon class="fil4" points="527.64,502.64 547.08,502.64 547.08,443.07 527.64,443.07 "/>
     <polygon class="fil4" points="575.89,502.64 595.32,502.64 595.32,431.89 575.89,431.89 "/>
     <polygon class="fil4" points="624.14,502.64 643.57,502.64 643.57,453.97 624.14,453.97 "/>
     <polygon class="fil4" points="672.39,502.64 691.82,502.64 691.82,434.19 672.39,434.19 "/>
     <polygon class="fil4" points="817.13,502.64 836.56,502.64 836.56,434.19 817.13,434.19 "/>
     <polygon class="fil4" points="720.63,502.64 740.07,502.64 740.07,423.87 720.63,423.87 "/>
     <polygon class="fil4" points="865.38,502.64 884.81,502.64 884.81,423.87 865.38,423.87 "/>
     <polygon class="fil4" points="768.88,502.64 788.31,502.64 788.31,419.57 768.88,419.57 "/>
     <polygon class="fil4" points="913.63,502.64 933.06,502.64 933.06,419.57 913.63,419.57 "/>
    </g>
   </g>
  </g>
  <g id="_1919138397024">
   <path class="fil16" d="M1260.36 807.14c0,0 -6.54,13.12 -17.7,17.58 -11.94,4.77 -21.5,10.26 -21.29,18.16 0.22,7.91 29.17,15.91 50.23,0.74 13.31,-9.58 17.53,-9.62 19.66,-15.66 2.14,-6.02 -3.71,-21.7 -3.63,-23.6 0.1,-2.34 -27.27,2.78 -27.27,2.78z"/>
   <path class="fil16" d="M1078.64 811.8c0,0 -9.16,13.7 -22.01,16.65 -12.85,2.96 -25.5,7.67 -25.59,15.78 -0.1,8.1 37.15,12.95 51.85,4.77 21.94,-12.21 24.17,-8.52 26.6,-14.62 2.42,-6.1 -2.93,-22.41 -2.76,-24.34 0.19,-2.39 -28.09,1.75 -28.09,1.75z"/>
   <path class="fil17" d="M1032.05 430.41l-6 -48.26c0,-0.92 0.12,-1.83 0.35,-2.68l13.87 -1.37c-4.69,0.94 -8.23,5.09 -8.23,10.05l0 42.26z"/>
   <path class="fil18" d="M1217.11 490.83c3.69,-14.61 14.11,-74.17 -44.73,-124.4 0,0 -36.23,14.43 -65.24,16.17 -22.84,1.37 -34.44,-0.73 -34.44,-0.73 0,0 -1.92,62.1 -2.01,95.67 -1.59,38.26 -4.09,102.46 -5.22,117.45 -0.26,3.5 -0.26,6.66 -0.03,9.52 -0.23,1.85 -0.32,3.86 -0.23,6.05 1.4,33.49 8.55,139.38 7.81,204.15 1.46,2.9 36.91,0.68 36.31,-2.42 4.63,-52.16 26.42,-154.64 1.98,-203.77 8.1,-25.97 24.52,-77.03 32.04,-107.67 9.43,38.67 25.05,104.58 29.65,118.97 0.89,2.77 1.86,5.26 2.9,7.5 0.32,1.8 0.82,3.72 1.54,5.76 11.22,31.59 57.41,119.12 75.79,181.23 0,0 1.69,2.55 5.39,2.76 3.49,0.19 28.54,-9.36 34.83,-13.67 -10.96,-51.28 -27.53,-142.27 -71.66,-185.49 -1.65,-27.85 -1.32,-92.49 -4.67,-127.08z"/>
   <path class="fil19" d="M1036.06 113.2c1.23,-1.3 2.46,-2.6 3.56,-4.01 8.56,-10.95 9.81,-20.66 17.75,-33.38 1.14,-1.83 2.73,-6.68 5.77,-11.04 3.16,-4.55 10.87,-9.51 12.87,-10.56 3.72,-1.94 0.53,6.23 0.53,6.23 0,0 3.15,-4.56 6.19,-4.24 1.19,0.13 1.4,7.1 1.41,8.29 0.15,9.57 -2.1,19.17 -6.51,27.67 -1.02,1.99 -2.2,4.04 -2.21,6.28 2.82,-0.06 5.19,-2.01 7.48,-3.68 2.28,-1.67 5.14,-3.19 7.81,-2.28 -0.37,1.14 -0.94,2.2 -1.51,3.26 -3.38,6.36 -7.18,13.12 -13.68,16.2 -3.89,1.85 -8.38,2.17 -12.17,4.19 -6.85,3.64 -10.18,12.08 -17.14,15.52l-10.15 -18.47z"/>
   <path class="fil20" d="M1076.74 115.66l-20.42 -8.54c-1.9,-0.8 -2.8,-2.98 -2.01,-4.89l18.15 -43.39c0.79,-1.9 2.98,-2.8 4.89,-2.01l20.42 8.54c1.9,0.8 2.8,2.99 2.01,4.89l-18.15 43.39c-0.8,1.9 -2.99,2.81 -4.89,2.01z"/>
   <polygon class="fil21" points="1079.85,113.79 1056.96,104.21 1075.73,59.32 1098.62,68.9 "/>
   <path class="fil22" d="M1098.62 157.51c0,0 -17.48,0.9 -33.08,5.58 -23.54,7.07 -31.63,17.98 -39.77,22.47 15.79,-20.07 33.41,-62.62 33.41,-62.62 0,0 -21.24,-17.45 -23.68,-13.32 -2.45,4.13 -91.57,108.42 -88.77,125.31 1.15,6.96 11.47,13.84 20.59,13.53 25.27,-0.87 54.62,-10.06 85.39,-20.13 13.52,-4.42 17.69,5.11 17.69,5.11l28.22 -75.94z"/>
   <path class="fil23" d="M1025.78 185.57c0,0 -11.23,22.63 -14.6,24.1 -3.37,1.48 8.18,-4.71 14.51,-11.24 6.32,-6.53 14.97,-23.67 14.97,-23.67 -3.31,1.36 -14.88,10.8 -14.88,10.8z"/>
   <path class="fil19" d="M1061 75.95c1.09,0.78 1.38,2.24 1.59,3.56 0.78,5.01 1.52,10.32 -0.43,15 -1.27,3.03 -3.56,5.52 -6.04,7.68 -2.8,2.45 -5.89,4.56 -9.18,6.28l14.07 -32.53z"/>
   <path class="fil24" d="M1099.17 38.31c-5.95,1.72 -9.1,9.4 -11.13,14.66 -2.43,6.34 -3.66,13.08 -4.45,19.79 -0.56,4.67 -0.89,9.6 0.97,13.92 0.95,2.21 2.42,4.14 3.88,6.05 0.83,1.09 1.68,2.19 2.8,2.96 1.13,0.76 2.6,1.15 3.87,0.66 1.86,-0.72 2.6,-2.89 3.13,-4.81 3.44,-12.49 7.18,-25.13 14.24,-36.01l-13.32 -17.22z"/>
   <path class="fil19" d="M1092.57 77.88c-0.12,-3.98 -4.31,-6.57 -7.94,-2.46 -3,3.41 -3.8,9.88 -3.97,14.67 -0.2,5.73 4.23,6.85 7.89,7.66l4.02 -19.87z"/>
   <path class="fil22" d="M1052.8 178.05c7.35,-8.43 30.66,-22.32 61.84,-21.33 21.47,0.68 79.96,4.22 86.49,18.59 3.34,7.34 6.93,82.55 2.04,108.49 -3.68,19.49 -13.09,67.8 -13.09,79.46 0,11.66 6.26,16.66 3.34,20.04 -6.55,7.58 -51.3,10.76 -72.31,10.76 -18.7,0 -50.52,-4.98 -52.14,-10.97 -2.4,-8.89 3.65,-8.56 4.47,-17.88 0.82,-9.33 3.18,-69.84 -0.25,-79.74 -6.19,-17.88 -9.2,-47.04 -14.12,-60.26 -3.74,-10.04 -13.62,-38.71 -6.27,-47.14z"/>
   <path class="fil23" d="M1186.73 238.89c2.23,4.64 17.37,28.98 17.37,28.98l0.61 2.91c-0.37,5.04 -0.87,9.48 -1.53,13.01 -3.68,19.49 -13.09,67.8 -13.09,79.46 0,11.66 6,16.44 3.34,20.04 -5.16,6.99 -89.54,22.72 -85.4,3.19 0.38,-1.76 70.82,-55.51 71.21,-57.32 3.24,-15.43 6.08,-26.54 7.5,-37.79 3.43,-27.07 -2.23,-57.12 0,-52.48z"/>
   <path class="fil25" d="M1097.65 129.81c0,0 -0.2,24.46 -1.19,25.45 -0.98,0.99 -5.82,3.27 -5.82,3.27 0,0 3.45,21.27 8.77,19.69 5.33,-1.58 40.51,-19.34 40.51,-19.34 0,0 -4.99,-2.04 -4.99,-4 0,-1.97 4.74,-40.45 4.74,-40.45l-42.03 15.39z"/>
   <path class="fil25" d="M1122.09 40.95c-5.13,1.4 -18.64,-1.4 -22.37,4.19 -3.73,5.59 -6.99,19.11 -8.39,22.84 -2.79,7.42 -4.6,15.35 -6.62,23.01 -2.64,9.97 -6.98,28.24 2.78,36.57 2.8,2.39 4.05,3.19 7.52,3.82 4.61,0.83 9.21,1.78 13.83,2.61 7.15,1.28 15.08,2.79 22.2,0.47 9.5,-3.08 14.71,-16.14 17.15,-25.01l13.98 -50.8 -40.08 -17.71z"/>
   <path class="fil26" d="M1096.79 187.76c0,0 -2.05,95.46 -5.94,153.53l14.03 19.36 9.65 -24.25c0,0 4.07,-70.04 -9.13,-147.98l-8.61 -0.66z"/>
   <path class="fil27" d="M1093.55 179.38l0.33 1.31c0.62,2.48 1.6,4.86 2.9,7.07l8.61 0.66c0,0 5.86,-3.07 6.64,-6.36 0.78,-3.3 -9.62,-8.7 -9.62,-8.7l-1.26 0.49c-2.91,1.15 -5.49,2.99 -7.5,5.39l-0.11 0.13z"/>
   <path class="fil2" d="M1135.55 148.91c0,0 5.51,3.42 9.83,9.97 -4.43,10.13 -14.45,28.13 -25.47,36.33 -5.15,-13.82 -17.48,-21.85 -17.48,-21.85 0,0 30.04,-5.35 33.13,-24.45z"/>
   <path class="fil28" d="M1102.42 173.36c0,0 -10.75,4.26 -17.13,16.28 0,0 -2.06,-16.26 2.32,-30.22 0,0 7.06,-9.03 9.5,-9.21 -1.01,11.5 5.3,23.15 5.3,23.15z"/>
   <path class="fil19" d="M1103.77 386.48c-10.67,1.61 -14.61,5.57 -20.62,11.52 -0.49,0.49 -1.01,1.09 -0.91,1.78 0.15,0.85 1.14,1.22 2,1.37 4.96,0.79 5.76,-2.38 10.39,-4.31 3.13,-1.31 6.23,-2.66 9.35,-4.02l-0.2 -6.33z"/>
   <path class="fil29" d="M1067.54 308.73l37.81 121.18c1.02,3.26 -0.83,6.06 -4,6.08l-78.9 6.92c-2.83,0.02 -5.7,-2.2 -6.61,-5.09l-40.65 -119.34c-1.02,-3.25 3.67,-7.9 6.84,-7.92l78.9 -6.93c2.83,-0.02 5.71,2.2 6.61,5.1z"/>
   <path class="fil30" d="M1064.95 311.89l37.28 119.32c1.02,3.25 -0.83,6.06 -4,6.08l-78.9 6.92c-2.83,0.02 -5.7,-2.2 -6.61,-5.1l-37.28 -119.31c-1.02,-3.25 0.83,-6.06 4,-6.08l78.9 -6.92c2.83,-0.02 5.7,2.2 6.61,5.1z"/>
   <polygon class="fil28" points="1001.93,308.01 1004.73,318.48 1041.63,315.21 1038.59,304.8 "/>
   <path class="fil28" d="M1012.82 298.06c-0.89,-2.86 0.6,-5.39 3.32,-5.63 2.72,-0.26 5.66,1.86 6.55,4.72 0.9,2.86 -0.59,5.39 -3.32,5.64 -2.72,0.25 -5.66,-1.86 -6.56,-4.72zm-3.9 0.24c0.76,2.44 3.69,11.84 3.69,11.84l17.61 -1.63 -3.69 -11.83c-1.6,-5.1 -6.82,-8.87 -11.69,-8.42 -4.87,0.45 -7.52,4.95 -5.92,10.05z"/>
   <path class="fil25" d="M1133.83 378.02c-8.27,1.72 -30.33,8.3 -32.65,9.4 -2.77,1.3 -11.9,8.22 -14.06,10.39 -8.3,8.33 -4.05,12.21 -7.32,23.5 -0.17,0.58 -0.21,1.18 -0.21,1.78 -0.01,1.19 1.59,2.2 3.19,1.1 0.87,1.46 3.43,0.56 4.67,-1.03 -0.03,1.13 1.55,1.84 4.1,0.43 1.36,-0.76 1.12,-0.69 4.29,-3.52 2.27,-2.02 4.9,-3.63 8.98,-5.47 2.74,-1.24 6.24,-2.35 8.75,-4 3.36,-2.21 9.33,-2.72 12.28,-12.3 0.65,-2.12 2.73,-3.42 4.6,-4.6 4.5,-2.82 8.99,-5.64 13.49,-8.46l-10.12 -7.25z"/>
   <path class="fil22" d="M1184.69 222.78c3.52,12.52 18.11,99.24 18.11,99.24l-82.24 59.56 6.85 17.99c0,0 98.39,-33.03 106.14,-55.62 7.75,-22.58 7.4,-124.59 -19.93,-160.38 -8.7,-11.39 -26.13,-17.14 -26.13,-17.14l-2.8 56.36z"/>
   <path class="fil19" d="M1100.35 409.24c0,0 -0.82,0.76 -2.06,1.89 -1.28,1.13 -2.94,2.43 -4.26,4.19 -1.37,1.69 -2.75,3.44 -3.95,4.63 -1.17,1.22 -2.1,1.89 -2.1,1.89 0,0 2.01,-4.01 5.01,-7.41 1.44,-1.77 3.51,-3 4.88,-3.86 1.49,-0.8 2.47,-1.33 2.47,-1.33z"/>
   <path class="fil19" d="M1095.82 403.79c0,0 -1.12,0.87 -2.29,2.61 -0.64,0.82 -1.34,1.82 -2.04,2.92 -0.36,0.54 -0.72,1.1 -1.09,1.67 -0.38,0.62 -0.67,1.06 -0.92,1.75 -2.18,5.29 -5.82,9.68 -5.82,9.68 0,0 0.47,-1.35 1.33,-3.27 0.84,-1.94 2.07,-4.44 3.24,-6.96 1.34,-2.71 3.27,-4.72 4.75,-6.28 1.54,-1.51 2.85,-2.12 2.85,-2.12z"/>
   <path class="fil19" d="M1090.62 399.39c0,0 -0.71,1.19 -1.99,2.79 -0.61,0.82 -1.43,1.71 -2.1,2.73 -0.54,0.98 -1.05,2.35 -1.57,3.55 -1.02,2.49 -1.95,5.01 -2.67,6.92 -0.7,1.91 -1.22,3.19 -1.22,3.19 0,0 -0.02,-1.39 0.36,-3.43 0.34,-2.04 1.12,-4.72 2.29,-7.22 0.62,-1.27 1.13,-2.43 1.99,-3.6 0.87,-1.02 1.71,-1.85 2.48,-2.54 1.53,-1.36 2.43,-2.38 2.43,-2.38z"/>
   <path class="fil24" d="M1153.43 100.65c-3.23,-1.89 -5.69,-3.87 -7.8,-0.79 -1.11,1.64 -1.78,3.9 -3.68,4.46 -1.9,0.56 -3.85,-1.14 -4.32,-3.05 -0.47,-1.92 0.13,-3.92 0.71,-5.79 1.29,-4.17 2.59,-8.33 3.88,-12.5 1.27,-4.08 2.53,-8.56 0.91,-12.52 -0.82,-2 -2.31,-3.65 -3.94,-5.05 -5.34,-4.58 -12.3,-6.8 -19.19,-8.21 -6.89,-1.41 -13.94,-2.12 -20.65,-4.23 -2.82,-0.89 -5.61,-2.05 -7.87,-3.96 -3.64,-3.09 -5.52,-7.95 -5.58,-12.72 -0.05,-4.77 1.59,-9.46 4.03,-13.56 0.51,1.64 1.2,3.23 2.07,4.71 0.83,-2.19 2.12,-4.22 3.75,-5.9 2.01,11.19 49.13,7.46 60.14,12.39 7.63,3.42 13.94,5.66 13.71,18.02 0.22,0.8 0.88,1.4 1.5,1.97 6.76,6.21 9.68,13.76 10.54,24.98 1.04,13.72 -6.96,28.59 -14.79,39.91 -1.97,2.84 -3.07,4.86 -5.82,6.96 -2.75,2.09 -7.55,3.12 -10.95,2.48 -3.4,-0.65 -10.09,-0.36 -10.16,-3.82 -0.05,-2.48 5.24,-6.89 6.71,-8.88l6.79 -14.87z"/>
   <path class="fil25" d="M1141.09 113.62c0,0 -0.56,2.3 0.88,4.11 1.26,1.59 3.82,1.36 5.58,0.79 5.01,-1.62 8.46,-6.49 9.4,-11.53 1.12,-5.94 -2.07,-11.87 -7.51,-10.33 -3.18,0.9 -5.16,4.51 -5.12,7.81l-3.22 9.15z"/>
   <path class="fil19" d="M1097.68 131.91l15.12 2.78c0,0 -5.04,5.65 -15.31,5.65l0.2 -8.43z"/>
  </g>
  <g id="_1919138374304">
   <path class="fil31" d="M81.68 48.09c0,0 -27.28,-0.92 -35.98,21.43 -8.71,22.35 -2.13,39.5 0.35,47.65 6.48,21.26 7.01,28.98 3.88,41.81 -2.79,11.38 -5.34,17.26 -8.56,27.88 -3.21,10.64 2.15,9.46 2.62,10.24 0.47,0.77 106.8,10.59 106.8,10.59 0,0 -2.85,-23.03 -10.33,-28.38 -7.49,-5.34 -14.88,-6.43 -9.19,-29.23 5.7,-22.8 9.31,-33.37 6.12,-49.9 -3.7,-19.15 -6.03,-31.11 -24.03,-43.68 -10.85,-7.57 -23.07,-9.25 -31.67,-8.41z"/>
   <path class="fil19" d="M50.21 799.97c0,0 15,22.27 21.04,27.64 0,0 13.43,4.93 14.77,14.33 1.34,9.41 1.13,15.67 -14.77,16.13 -15.89,0.44 -26.31,-2.42 -29.23,-12.04 -2.91,-9.64 -9.27,-16.18 -9.27,-16.18l0 20.15 -3.58 0c0,0 -0.9,-19.48 -1.13,-23.07 -0.21,-3.58 -2.56,-17.35 4.99,-23.46 7.54,-6.09 17.18,-3.52 17.18,-3.52z"/>
   <path class="fil19" d="M125.3 782.17c0,0 2.59,6.14 7.5,12.55 3.6,4.68 14.77,23.95 19.7,25.29 4.92,1.34 20.14,4.03 21.48,12.53 1.34,8.51 2.03,14.56 -12.98,15.23 -15,0.67 -24.85,1.56 -32.02,-8.96 -7.17,-10.52 -18.58,-18.13 -18.58,-18.13l0 27.45 -5.83 0c0,0 -2.68,-28.57 -4.25,-30.59 -1.55,-2.01 -5.6,-23.95 8.29,-35.37 13.87,-11.42 16.68,0 16.68,0z"/>
   <path class="fil32" d="M40.13 370.02c0,0 -16.85,25.07 -21.99,54.28 -5.14,29.22 0.96,126.85 0.73,141.28 -0.22,14.44 -13.65,50.37 -10.97,77.57 2.69,27.2 25.13,160.34 25.13,160.34l17.18 -3.52c0,0 -1.68,-138.02 0,-149.44 1.68,-11.42 5.05,-53.03 5.71,-57.74 0.67,-4.7 42.64,-128.15 42.64,-149.21 0,-21.05 -12.76,-107.92 -58.44,-73.56z"/>
   <path class="fil32" d="M135.29 379.65c0,0 31.12,118.77 34.81,135.22 3.69,16.45 9.04,30.02 9.04,37.01 0,16.21 -6.03,42.24 -6.03,42.24l-47.81 188.05 -19.83 3.13c0,0 11.47,-115.57 12.04,-137.74 0.57,-22.22 17.67,-53.77 14.3,-63.18 -3.35,-9.4 -54.06,-117.87 -54.06,-117.87 0,0 -38.39,-121.34 57.54,-86.86z"/>
   <path class="fil32" d="M71.25 827.61c0,0 -15.35,8.59 -25.25,-2.44 -8.35,-9.3 -12.96,-21.68 -12.96,-21.68l17.18 -3.52 21.04 27.64z"/>
   <path class="fil32" d="M152.5 820c0,0 -13.43,3.36 -18.58,0 -5.15,-3.35 -22.65,-32.94 -28.45,-34.71 0,0 5.61,-11.41 19.83,-3.13 0,0 23.39,32.91 27.2,37.84z"/>
   <path class="fil33" d="M179.14 551.88c0,0 -71.98,30.9 -179.14,30.9 0,0 11.28,-162.38 26.86,-197.35 15.58,-34.97 110.91,3.53 110.91,3.53 0,0 41.37,133.62 41.37,162.91z"/>
   <path class="fil33" d="M260.1 316.64c0,0 -65.65,5.65 -81.89,-1.58 -8.13,-3.62 -19.15,-18.62 -29.32,-35.07 -1.73,-2.81 -3.43,-5.65 -5.1,-8.47 -12.44,-21.21 -22.49,-42.02 -22.49,-42.02 0,0 -30.03,-37.79 1.93,-51.29 0,0 12.41,3.45 20.11,15.39 7.71,11.93 13.75,29.83 15.27,35.73 1.53,5.9 27.23,57.82 28.83,59.28 1.61,1.47 17.77,0.49 30.22,1.67 20.32,1.9 41.73,3.03 41.73,3.03l0.7 23.33z"/>
   <path class="fil33" d="M146.43 263.92c-8.08,18.69 -0.46,24.93 -4.16,43.62 -3.69,18.69 -5,71.95 -4.32,82.33 0.7,10.39 -92.05,21.07 -113.52,2.13 0,0 7.15,-40.4 20.29,-65.52 2.51,-4.76 1.3,-23.56 -1.24,-30.03 -0.78,-1.97 -3.88,-9.61 -7.82,-19.27l-0.01 -0.03c-4.11,-10.03 -9.11,-22.26 -13.33,-32.55 -5,-12.2 -8.9,-21.7 -8.9,-21.7 0,0 -3.21,-30.09 9.29,-39.77 10.86,-8.43 40.42,-11.43 45.72,-13.28 5.31,-1.84 20.76,-2.64 31.62,-1.03 0,0 16.61,7.85 22.38,9 5.77,1.15 28.16,30.23 32.08,40.86 3.92,10.61 0,26.54 -8.08,45.24z"/>
   <path class="fil32" d="M107.98 149.64c0,0 -3.33,30.49 -2.63,40.42 0,0 -13.89,16.87 -33.53,-20.63 0,0 4.88,-15.04 -1.33,-36.1 -6.22,-21.07 37.49,16.3 37.49,16.3z"/>
   <path class="fil32" d="M55.17 172.52c0,0 11.88,35.08 44.5,32.5 32.61,-2.58 15.46,-29.63 15.46,-29.63 0,0 -8.13,-4.66 -10.41,-5.1 -2.3,-0.44 -32.37,-1.72 -32.37,-1.72l-17.18 3.94z"/>
   <path class="fil34" d="M265.24 329.87l-77.73 0c-3.41,0 -6.17,-2.76 -6.17,-6.17l0 -116.35c0,-3.41 2.76,-6.19 6.17,-6.19l77.73 0c3.42,0 6.19,2.78 6.19,6.19l0 116.35c0,3.41 -2.77,6.17 -6.19,6.17z"/>
   <polygon class="fil10" points="187.45,321.12 265.31,321.12 265.31,209.91 187.45,209.91 "/>
   <path class="fil32" d="M158.85 303.58c0,0 2.95,0.06 4.88,-1.41 3.34,-2.52 4.55,-8.72 10.44,-8.28 5.91,0.46 8.64,18.96 7.17,22.46 -1.48,3.5 -9.68,5.25 -21.78,2.83 -12.1,-2.4 -0.71,-15.61 -0.71,-15.61z"/>
   <path class="fil32" d="M172.16 294.03c0,0 8.47,-2.88 18.26,-5 8.59,-1.86 18.84,-2.47 19.84,-0.98 1.11,1.66 -8.36,3.08 -16.79,5.49 -7.74,2.19 -5.89,3 -5.89,3 0,0 -0.51,-0.27 8.33,-1.09 9.5,-0.88 19.3,-0.87 20.26,1.03 0.47,0.92 0.15,1.55 -3.28,2.42 2.07,-0.09 2.36,0.43 2.44,1.26 0.4,4.28 -13.47,7.69 -18.98,9.04 4.23,-1 7.43,-1.31 5.9,1.56 -1.74,3.28 -21.54,7.25 -28.51,9.33 -7.62,2.27 -1.6,-26.06 -1.6,-26.06z"/>
   <path class="fil32" d="M261.16 225.88c0,0 12.8,-2.98 16.92,3.18 4.12,6.17 4.27,14.12 3.24,17.79 -1.03,3.66 -4.35,13.12 -8.68,11.18 -13.9,-6.23 -11.49,-32.15 -11.49,-32.15z"/>
   <path class="fil32" d="M273.83 226.01c0,0 -1.79,-8.66 -5.26,-7.18 -3.46,1.47 -0.34,7.19 -0.34,7.19l5.6 -0.01z"/>
   <path class="fil32" d="M261.16 225.88c0,0 0.2,-4.95 9.15,0.15 8.96,5.09 -9.15,-0.15 -9.15,-0.15z"/>
   <path class="fil35" d="M143.79 271.5c0,0 9.77,-23.21 10.18,-28.43 -0.09,3.09 -0.79,21.87 -5.09,36.91 -1.73,-2.81 -3.43,-5.65 -5.1,-8.47l0 -0.01z"/>
   <path class="fil36" d="M153.98 243.07c0,-0.3 0.01,-0.45 0.01,-0.45 0,0.12 0,0.27 -0.01,0.45z"/>
   <path class="fil35" d="M103.91 303.6l-40.66 -71.59c0,0 14.2,71.41 24.96,73.82 10.75,2.4 15.7,-2.23 15.7,-2.23z"/>
   <path class="fil33" d="M24.43 181.82c0,0 -19.51,9.72 -12.77,34.85 6.72,25.13 13.41,32.35 19.83,41.76 6.07,8.87 18.45,32.77 19.97,35.45 1.51,2.68 16.42,41.69 30.11,46.12 13.75,4.45 81.48,-17.12 83.01,-14.76 1.53,2.35 -0.09,-23.76 -0.09,-23.76 0,0 -31.47,2.32 -38.42,1.85 -11.27,-0.76 -29.37,3.84 -33.72,-5.92 -5.11,-11.48 -23.44,-49.2 -25.38,-55.42 -1.93,-6.22 -24.45,-66.56 -42.54,-60.17z"/>
   <path class="fil25" d="M102.94 62.4c0,0 30.09,19.65 20.3,67.12 -9.78,47.47 -45.3,21.37 -49.15,18.68 -3.86,-2.68 -15.79,-32.41 -16.25,-45.37 -0.45,-12.2 -6.82,-61.14 45.1,-40.43z"/>
   <path class="fil31" d="M100.87 71.92c-3.14,-0.92 -13.72,19.54 -19.42,24.6 -5.7,5.04 -16.18,17.73 -17.22,31.61 -1.02,13.89 -12.75,-30.35 -8.68,-46.76 4.05,-16.43 9.46,-40.5 46.12,-21.4 36.67,19.09 27.19,53.23 27.19,53.23 0,0 -12.13,-36.59 -27.99,-41.28z"/>
   <path class="fil25" d="M75.46 104.69c-0.96,-5.61 -13.36,-10.36 -13.19,-1.92 0.19,8.44 7.03,18.18 10.91,17.56 3.86,-0.62 3.18,-10.45 2.28,-15.65z"/>
   <path class="fil37" d="M76.98 150.17c0.23,0.41 7.38,14.17 29.28,17.65 0.49,-5.37 1.17,-11.94 1.17,-11.94 0,0 -15.77,5.3 -30.45,-5.7z"/>
  </g>
 </g>
</svg>
