<?xml version="1.0" encoding="UTF-8"?>
<!DOCTYPE svg PUBLIC "-//W3C//DTD SVG 1.1//EN" "http://www.w3.org/Graphics/SVG/1.1/DTD/svg11.dtd">
<!-- Creator: CorelDRAW 2019 (64-Bit) -->
<svg xmlns="http://www.w3.org/2000/svg" xml:space="preserve" width="53.4406mm" height="85.7537mm" version="1.1" style="shape-rendering:geometricPrecision; text-rendering:geometricPrecision; image-rendering:optimizeQuality; fill-rule:evenodd; clip-rule:evenodd"
viewBox="0 0 180.61 289.81"
 xmlns:xlink="http://www.w3.org/1999/xlink"
 xmlns:xodm="http://www.corel.com/coreldraw/odm/2003">
 <defs>
  <style type="text/css">
   <![CDATA[
    .str1 {stroke:#070808;stroke-width:1.23;stroke-linecap:round;stroke-miterlimit:10}
    .str0 {stroke:#422818;stroke-width:1.2;stroke-linecap:round;stroke-miterlimit:10}
    .fil14 {fill:none;fill-rule:nonzero}
    .fil16 {fill:#1F1B20;fill-rule:nonzero}
    .fil4 {fill:#181818;fill-rule:nonzero}
    .fil9 {fill:#465F9A;fill-rule:nonzero}
    .fil5 {fill:#484442;fill-rule:nonzero}
    .fil12 {fill:#4E3866;fill-rule:nonzero}
    .fil11 {fill:#673D16;fill-rule:nonzero}
    .fil13 {fill:#6E4C54;fill-rule:nonzero}
    .fil3 {fill:#7F89D8;fill-rule:nonzero}
    .fil15 {fill:#858585;fill-rule:nonzero}
    .fil8 {fill:#A77860;fill-rule:nonzero}
    .fil0 {fill:#D7EEFC;fill-rule:nonzero}
    .fil7 {fill:#EEA987;fill-rule:nonzero}
    .fil1 {fill:#F6DCA4;fill-rule:nonzero}
    .fil6 {fill:#FCFCFC;fill-rule:nonzero}
    .fil2 {fill:#FDFDFD;fill-rule:nonzero}
    .fil10 {fill:white;fill-rule:nonzero}
   ]]>
  </style>
 </defs>
 <g id="Слой_x0020_1">
  <metadata id="CorelCorpID_0Corel-Layer"/>
  <path class="fil0" d="M180.61 274.16c0,8.65 -40.43,15.65 -90.3,15.65 -49.87,0 -90.3,-7 -90.3,-15.65 0,-8.64 40.43,-15.65 90.3,-15.65 49.87,0 90.3,7.01 90.3,15.65z"/>
  <g id="_1918881450224">
   <path class="fil1" d="M111.85 61.86c0,0 4.73,-5.24 6.18,-5.36 1.45,-0.13 0.44,16.53 0.44,16.53 0,0 -5.3,-0.82 -5.74,-1.89 -0.44,-1.07 -0.88,-9.27 -0.88,-9.27z"/>
   <polygon class="fil2" points="107.21,64.27 111.85,61.86 116.46,73.53 111.97,76.3 "/>
   <polygon class="fil3" points="114.29,68.03 111.49,75.09 111.97,76.3 116.46,73.53 "/>
   <path class="fil4" d="M118.28 14.76c0,0 -4.07,-2.39 -3.29,-5.87 0.78,-3.48 4.47,-8.16 6.23,-8.61 1.76,-0.45 2.05,0.9 2.05,0.9 0,0 2.66,-1.74 4.14,-0.99 1.48,0.75 0.45,2.63 0.45,2.63 0,0 6.98,-0.14 10.81,2.54 3.83,2.68 5.75,7.21 5.91,12.46 0.16,5.25 -1.43,9.95 -1.43,9.95l-6.83 2.57 -18.03 -15.58z"/>
   <path class="fil5" d="M123.33 46.15c0,0 -5.17,7.79 -6.21,10.25 -1.04,2.46 -6.06,37.58 -6.06,37.58 0,0 -1.99,0.07 -1.89,1.4 0.09,1.32 -0,2.08 -0,2.08l-12.01 8.42 6.34 15.73 13.34 -9.29 -4.1 19.99 3.6 0 0.62 50.45 3.47 31.04 5.71 1.21 9.52 2.72 0.24 -14.59 0.64 -20.32 1.21 -18.33 0.46 17.27 21.46 42.16 2.17 2.54 -2.95 -25.2 -1.17 -58.86 0.85 -0.02c0,0 9.18,-34.23 9.56,-39.34 0.38,-5.11 -8.42,-47.59 -10.69,-50.53 -2.27,-2.93 -15.53,-10.71 -15.53,-10.71l-18.56 4.34z"/>
   <path class="fil4" d="M146.93 68.51c0,0 4.16,20.72 5.17,26.65 1.01,5.93 -3.15,6.69 -1.07,8.07 2.08,1.39 2.08,1.39 2.08,1.39 0,0 -3.47,1.77 -3.09,2.71 0.38,0.95 1.64,2.9 1.64,2.9l-6.59 28.09 0.6 0.42 12.05 3.66 0.83 41.63c0,0 -14.17,-12.92 -14.62,-18.09 -0.46,-5.18 -1.9,-13.18 -1.9,-13.18l-3.86 3.15 -7.89 -6.61 1.14 18.92c0,0 -2.52,-7.82 -4.42,-16.15 -1.89,-8.33 -10.9,-11.49 -10.9,-11.49l0.24 -8.25 6.5 0.32 3.28 -6.58 7.82 11.5c0,0 5.68,-1.51 6.94,-1.64 1.26,-0.13 4.95,-11.86 6.32,-17.91 1.38,-6.06 -1.86,-10.09 -0.37,-14.51 1.49,-4.42 1.99,0.04 2.63,-9.51 0.63,-9.54 -4.42,-25.5 -2.52,-25.47z"/>
   <path class="fil6" d="M141 41.3c0,0 -6.65,9.43 -8.83,16.62 -2.18,7.19 -6.43,29.99 -6.43,29.99 0,0 -4.69,-18.02 -3.97,-29.24 0.72,-11.22 1.58,-12.52 1.58,-12.52l17.66 -4.86z"/>
   <path class="fil2" d="M125.54 49.12l-3.37 4.18c0,0 0.52,-6.27 1.16,-7.14 3.14,-4.34 17.66,-4.86 17.66,-4.86l-7.65 13.42 -3.64 -5.6 -4.16 0z"/>
   <path class="fil7" d="M141.63 29.44l-0.63 11.86 -11.29 7.82 -4.16 0 -1.26 -3.43c0,0 1.16,-6.89 -0.3,-12.29 -1.32,-4.89 17.65,-3.97 17.65,-3.97z"/>
   <path class="fil8" d="M123.97 33.4c1.04,3.85 0.75,8.46 0.5,10.78 10.57,-2.81 17.05,-12.81 17.05,-12.81l0.1 -1.94c-3.49,0.31 -11.91,0.63 -16.62,1.86 -0.85,0.54 -1.27,1.23 -1.03,2.11z"/>
   <path class="fil9" d="M106.9 63.5c0,0 -13.72,8.99 -16.94,10.03 -3.22,1.04 -3.37,-1.7 -5.01,0.66 -1.64,2.37 -2.08,2.12 -4.09,0.95 -2.01,-1.16 -19.19,-18.08 -21.55,-19.69 -2.37,-1.61 -5.2,-1.42 -5.2,-1.42l-20.53 -2.55c0,0 -5.49,5.77 -7.95,7.66 -2.46,1.89 -7.38,5.68 -6.53,12.58 0.85,6.91 8.99,23.18 8.99,23.18l2.9 25.99 -3.03 24.85 4.42 0.63 -3.51 84.22 23.61 -44.54 2.41 -14.87 0.2 35.45 14.73 17.9 5.57 -79.3 3.06 -1.77 -6.2 -21.84 3.52 -9.7 -6.24 -2.03 -1.7 -25.22c0,0 16.94,9.94 20.82,9.27 3.88,-0.66 23.65,-16.84 23.65,-16.84l-5.39 -13.63z"/>
   <path class="fil2" d="M33.57 51.48l3.63 1.55c1.58,0.67 2.86,1.89 3.61,3.43l17.83 36.36 -4.54 -38.79 -20.53 -2.55z"/>
   <path class="fil7" d="M51.9 40.37l0.19 3.29c0.2,3.53 0.88,7.03 2.01,10.38l-1.04 3.78 -3.12 0.66 -16.37 -7c0,0 2.65,-3.88 1.04,-17.22 -1.61,-13.34 17.29,6.1 17.29,6.1z"/>
   <polygon class="fil10" points="49.94,58.48 34.82,47.08 33.57,51.48 41.75,58.38 "/>
   <path class="fil8" d="M34.81 36.19c0.05,0.54 0.09,1.05 0.13,1.56 3.42,3.63 12.3,12.63 18.35,13.56 -0.65,-2.5 -1.06,-5.06 -1.2,-7.65l-0.19 -3.29c0,0 -18.9,-19.45 -17.29,-6.1 0.08,0.67 0.15,1.31 0.2,1.93z"/>
   <path class="fil11" d="M56.08 21.47c0,0 1.61,-3.81 1.11,-7.73 -0.5,-3.91 -2.42,-6.95 -4.34,-7.67 -1.92,-0.72 -2.75,-0.24 -2.75,-0.24 0,0 -1.33,-5.11 -7.08,-3.27 -5.75,1.84 -9.35,8.79 -14.22,10.62 -4.87,1.84 -6.79,1.76 -6.79,4.07 0,2.32 4.23,4.21 4.23,4.21 0,0 0.32,11.2 6.07,13.36 5.75,2.16 23.75,-13.36 23.75,-13.36z"/>
   <path class="fil7" d="M49.18 12.63c0,0 4.87,0.32 5.83,3.99 0.96,3.67 2.27,12.22 1.92,16.69 -0.28,3.55 -1.52,8.31 -5.27,10.54 -3.75,2.24 -11.38,-2.17 -13.58,-3.43 -2.2,-1.27 -2.8,-2.72 -2.8,-2.72 0,0 -2.74,1.3 -3.81,-2.05 -1.06,-3.35 1.17,-4.85 2.72,-4.53 1.54,0.32 1.54,3.04 1.54,3.04l0.65 -0.29c0.81,-0.36 1.28,-1.22 1.15,-2.09 -0.5,-3.45 -1.58,-11.85 -0.52,-13.33 1.33,-1.86 7.14,0.11 9.85,-1.38 2.72,-1.49 2.32,-4.45 2.32,-4.45z"/>
   <polygon class="fil6" points="46.68,68.43 49.94,58.48 53.06,57.82 55.56,66.52 58.64,92.83 "/>
   <polygon class="fil8" points="47.48,65.98 50.37,69.41 50.76,76.74 58.64,92.83 56.34,73.18 54.67,68.66 55.31,65.62 53.06,57.82 49.94,58.48 "/>
   <path class="fil12" d="M43.79 126.26c2.21,0.38 8.77,1.32 13.12,0.69 4.35,-0.63 8.45,2.27 11.35,3.72 2.9,1.45 7.31,2.65 7.31,2.65l-2.43 -8.56c-0,-0 -30.04,-8.79 -33.07,-10.81 -3.03,-2.02 -11.99,-19.05 -11.99,-19.05l2.9 25.99c4.79,5.36 10.6,4.98 12.81,5.36z"/>
   <path class="fil12" d="M88.04 93.99c-2.88,-1.76 -6.16,-5.78 -10.94,-11.75 -6.06,-7.57 -13.94,-18.48 -13.94,-18.48l4.67 20.94c0,0 15.46,9.06 20.22,9.29z"/>
   <path class="fil12" d="M69.53 109.92c0,0 -15.61,-4.03 -15.8,-5.54 -0.19,-1.51 -0.76,-2.03 -1.7,-1.66 -0.95,0.38 0.05,0 -0.66,-1.75 -0.71,-1.75 -1.8,0.43 -2.84,-1.8 -1.04,-2.22 -12.77,-24.98 -13.25,-27.01 -0.47,-2.03 7.38,9.13 8.56,12.06 1.18,2.93 7.14,15.14 10.27,17.32 3.12,2.18 15.32,6.77 15.32,6.77l0.11 1.61z"/>
   <path class="fil12" d="M32.37 146.39c0,0 6.43,0.63 13.44,0.32 7,-0.32 9.9,-0.95 9.9,-0.95l3.53 -8.2c0,0 4.29,6.24 6.4,7.19 2.11,0.95 12.81,-1.26 12.81,-1.26l-3.06 1.77 0.2 2.53c0,0 -2.38,2.96 -4.93,5.52 -2.55,2.55 -6.24,4.73 -6.24,4.73l-4.73 31.13 0 -35.77c0,0 -3.69,-0.19 -9.27,4.45 -5.58,4.64 -10.31,6.91 -13.63,10.12 -3.31,3.22 -5.56,6.92 -5.56,6.92l1.14 -28.49z"/>
   <path class="fil13" d="M50.37 69.41l4.3 -0.76c0,0 -1.68,1.14 -2.28,3.5 -0.6,2.37 1.46,10.89 1.46,10.89l-3.09 -6.31 -0.39 -7.33z"/>
   <polygon class="fil13" points="49.94,58.48 49.07,67.87 47.48,65.98 "/>
   <path class="fil14 str0" d="M49.34 10.63c0,0 -0.7,-5.83 -5.98,-3.11 -5.28,2.72 -8.24,7.83 -17.9,8.31"/>
   <path class="fil14 str0" d="M46.3 12.63c0,0 -1.6,1.52 -7.91,2.72"/>
   <path class="fil14 str0" d="M35.2 21.54c0,0 -4.26,2.82 -7.3,2.45"/>
   <path class="fil14 str0" d="M35.2 25.75c0,0 -2.93,2.4 -5.64,2.29"/>
   <path class="fil14 str0" d="M34.67 17.39c0,0 -4.05,1.33 -7.3,0.96"/>
   <path class="fil14 str0" d="M50.91 8.34c0,0 4.1,0.32 4.95,3.51"/>
   <path class="fil7" d="M118.28 14.76c0,0 -1.38,14.95 0.54,19.38 1.91,4.43 3.12,5.37 6.08,5.1 2.95,-0.27 6.94,-1.75 10.22,-3.88 3.28,-2.13 4.15,-3.93 4.15,-3.93 0,0 1.69,1.75 3.77,-0.16 2.08,-1.91 2.02,-4.65 0,-6.07 -2.02,-1.42 -3.55,1.97 -3.55,1.97l-2.46 0.82c0,0 1.53,-11.31 -0.11,-13.23 -1.64,-1.91 -5.52,-2.46 -8.2,-0.55 -2.68,1.91 -8.19,1.84 -10.44,0.55z"/>
   <path class="fil9" d="M121.86 65.58c0.78,10.47 3.87,22.33 3.87,22.33 0,0 2.75,-14.71 4.96,-24.23l-1.49 -5.92 3.01 -4.79 -2.5 -3.85 -4.16 0 -2.53 3.14 1.46 5.88 -2.61 7.45 0 0z"/>
   <path class="fil2" d="M134.48 72.49c0,0 2.89,-6.86 3.69,-6.86 0.8,0 2.82,4.83 2.82,4.83 0,0 1.77,-1.14 2.38,-0.8 0.62,0.33 0.24,2.84 0.24,2.84l-9.13 0z"/>
   <path class="fil7" d="M144.34 143.99c0,0 -1.96,4.67 -2.96,6.62 -1.01,1.96 -3.41,4.54 -3.22,5.3 0.19,0.76 3.34,0 3.34,0 0,0 -0.19,3.34 0.5,7.25 0.69,3.91 1.42,4.32 2.08,4.1 0.66,-0.22 0.69,-0.82 0.69,-0.82 0,0 0.5,0.88 1.29,0.87 0.79,-0.02 1.04,-0.84 1.04,-0.84 0,0 0.57,0.66 1.39,0.5 0.82,-0.16 2.3,-2.48 2.73,-3.89 0.43,-1.42 0.8,-2.32 0.8,-2.32 0,0 -1.09,3.55 -0.8,4.26 0.28,0.71 2,0.16 2.99,-2.89 0.71,-2.17 1.55,-5.43 1.83,-8.79 0.28,-3.36 0.14,-5.76 0.14,-5.76 0,0 -4.51,-5.9 -11.86,-3.6z"/>
   <path class="fil2" d="M157.71 142.41c0,0 -0.63,-1.64 -5.68,-2.71 -5.05,-1.07 -6.37,-0.95 -6.37,-0.95l-1.32 5.24c0,0 3.15,0.06 6.69,1.07 3.53,1.01 5.17,2.52 5.17,2.52l1.51 -5.17z"/>
   <path class="fil8" d="M141.5 155.91c0,0 0.16,-3.49 0.51,-6.61 -0.23,0.5 -0.45,0.95 -0.64,1.32 -0.06,0.11 -0.13,0.22 -0.19,0.33 -0.04,1.07 -0.2,2.9 -0.79,3.72 -0.43,0.59 -1.2,1.12 -1.88,1.5 0.86,0.24 2.98,-0.26 2.98,-0.26z"/>
   <path class="fil8" d="M152.67 163.17c-0.66,-0.88 0.31,-4.51 0.31,-4.51 0,0 -0.52,1.31 -1.12,2.7 -0.29,1.04 -0.84,3.14 -0.63,3.67 0.23,0.58 1.44,0.29 2.41,-1.53 -0.3,0.1 -0.66,0.08 -0.97,-0.33z"/>
   <path class="fil8" d="M151.57 162.02c-0.53,1.2 -1.07,2.32 -1.34,2.53 -0.61,0.5 -1.42,0.6 -1.89,-0.22 -0.47,-0.82 1.77,-6.43 1.29,-6.31 -0.47,0.13 -2.18,5.65 -2.23,6.06 -0.05,0.41 -0.54,0.91 -1.02,1.04 -0.47,0.13 -1.1,0.09 -1.17,-0.82 -0.06,-0.91 0.95,-7.57 0.54,-7.57 -0.41,0 -1.01,6.18 -1.01,6.18 0,0 -0.13,1.45 -1.29,1.55 -0.69,0.06 -1.13,-0.49 -1.38,-0.95 0.67,3.57 1.37,3.97 2.01,3.76 0.66,-0.22 0.69,-0.82 0.69,-0.82 0,0 0.5,0.88 1.29,0.87 0.79,-0.02 1.04,-0.84 1.04,-0.84 0,0 0.57,0.66 1.39,0.5 0.82,-0.16 2.3,-2.48 2.73,-3.89 0.12,-0.41 0.24,-0.75 0.34,-1.07z"/>
   <path class="fil4" d="M101.16 115.83c0,0 10.07,-4.36 10.03,-5.79 -0.04,-1.44 -3.76,-2.7 -2.88,-4.84 0.88,-2.15 4.79,1.45 5.68,0 0.88,-1.45 -3.34,-5.17 -2.78,-6.43 0.57,-1.26 2.65,1.32 3.53,0.76 0.88,-0.57 2.84,-19.43 2.84,-19.43 0,0 0.67,24.5 0.67,26.39 0,1.89 -1.43,5.85 -1.43,5.85l-13.34 9.29 -2.33 -5.78z"/>
   <path class="fil8" d="M100.62 121.62c0,0 -3.66,4.71 -5.87,7.24 -2.21,2.52 -6.12,5.38 -7.92,5.33 -1.8,-0.05 -1.61,-2.93 -1.61,-2.93 0,0 -2.22,1.85 -4.02,0.85 -1.8,-0.99 -0.9,-2.89 -0.9,-2.89 0,0 -1.42,1.04 -2.89,0.47 -1.47,-0.57 -0.76,-3.74 -0.76,-3.74 0,0 -0.93,1.16 -1.91,1.1 -0.99,-0.05 -3.2,-0.63 -1.83,-3.56 1.37,-2.93 6.6,-5.95 9.1,-7.4 2.5,-1.45 11.39,-2.4 11.39,-2.4 0,0 8.31,3.59 7.21,7.92z"/>
   <path class="fil7" d="M80.55 113.93c0,0 2.28,-2.27 3.49,-2.49 1.21,-0.22 5.17,0.89 5.17,0.89l1.51 5.17c0,0 3.85,1.7 5.3,2.15 1.45,0.44 4.89,2.74 4.98,3.85 0.09,1.1 -1.89,1.32 -2.93,0.95 -1.04,-0.38 -2.92,-1.47 -2.92,-1.47 0,0 -3,-0.55 -3.45,0.05 -0.44,0.6 6.15,2.9 6.34,3.41 0.19,0.5 0.28,1.28 -0.58,2.11 -0.85,0.83 -2.29,0.76 -2.29,0.76 0,0 -0.31,0.69 -1.4,1.25 -1.09,0.57 -2.18,0.35 -2.18,0.35 0,0 -0.84,0.99 -2.96,0.92 -2.11,-0.06 -12.18,-6.54 -12.18,-6.54l4.09 -11.35z"/>
   <path class="fil8" d="M89.21 112.33c0,0 -1.12,-0.31 -2.34,-0.57l-1.95 4.16 4.5 -2.86 -0.21 -0.73z"/>
   <path class="fil8" d="M83.48 122.34c0,0 1.66,1.74 4.27,0.54 2.6,-1.19 3.64,-3.46 3.64,-3.46 0,0 3.03,0.55 4.02,-1.03 0.99,-1.58 -5.54,-3.33 -5.54,-3.33l-6.39 7.27z"/>
   <path class="fil7" d="M94.66 109.92c0,0 -1.86,-0.94 -2.93,-0.5 -1.07,0.44 -5.87,4.16 -6.81,6.5 -0.95,2.33 -1.1,5.17 -1.51,5.99 -0.41,0.82 2.43,1.64 3.88,0.13 1.45,-1.51 3.07,-4.33 3.07,-4.33 0,0 5.51,2.43 7.6,-1.11 2.09,-3.55 -3.29,-6.68 -3.29,-6.68z"/>
   <path class="fil8" d="M97.46 128.53c0.22,-0.21 0.37,-0.42 0.48,-0.62 -0.42,0.26 -1.07,0.57 -1.8,0.57 -1.26,0 -5.77,-2.24 -5.96,-1.99 -0.19,0.25 4.98,2.8 4.98,2.8 0,0 1.44,0.07 2.29,-0.76z"/>
   <path class="fil8" d="M93.77 130.54c0.1,-0.05 0.16,-0.11 0.25,-0.16 -0.4,0.01 -0.89,-0.02 -1.5,-0.17 -1.8,-0.44 -4.45,-2.61 -4.76,-2.3 -0.32,0.31 3.84,2.98 3.84,2.98 0,0 1.09,0.21 2.18,-0.35z"/>
   <path class="fil8" d="M90.46 131.56c-0.58,-0.13 -1.26,-0.31 -2.04,-0.57 -2.6,-0.87 -9.1,-5.17 -11.55,-6.84l-0.4 1.12c0,0 10.06,6.47 12.18,6.54 0.77,0.02 1.37,-0.09 1.82,-0.25z"/>
   <path class="fil7" d="M77.03 125.88c0,0 1.06,-0.17 1.84,0.17 0.78,0.33 1.75,1.66 1.47,2.37 -0.28,0.71 -1.82,0.82 -2.81,0.26 -1,-0.56 -1.06,-2.47 -0.5,-2.79z"/>
   <path class="fil7" d="M81.07 128.74c0,0 0.85,-0.69 2.13,0 1.28,0.69 1.59,1.59 1.18,2.19 -0.4,0.6 -1.47,0.72 -2.55,-0.16 -1.09,-0.88 -1.09,-1.61 -0.76,-2.03z"/>
   <path class="fil7" d="M86.04 131.13c0,0 1.06,-0.43 2.22,0.14 1.16,0.57 0.9,1.32 0,1.73 -0.9,0.4 -2.89,-0.83 -2.22,-1.87z"/>
   <path class="fil2" d="M75.63 112.33l4.92 1.6c0,0 -1.8,7 -2.89,9.23 -1.09,2.22 -1.5,2.46 -1.5,2.46l-4.89 -1.37 4.36 -11.92z"/>
   <path class="fil2" d="M97.66 107.15l-3.28 1.77c0,0 1.45,5.36 2.78,8.14 1.32,2.78 3.47,4.56 3.47,4.56l2.33 -1.34 -5.29 -13.12z"/>
   <path class="fil15" d="M98.17 118.81c1.19,1.75 2.45,2.81 2.45,2.81l2.33 -1.34 -1.47 -3.65 -3.31 2.18z"/>
   <path class="fil3" d="M72.57 120.7l-1.3 3.55 4.89 1.37c0,0 0.41,-0.24 1.5,-2.46 0.11,-0.22 0.22,-0.49 0.34,-0.79l-5.43 -1.67z"/>
   <path class="fil15" d="M154 146.2c1.48,0.73 2.2,1.38 2.2,1.38l1.51 -5.17c0,0 -0.32,-0.82 -2.27,-1.67l-1.44 5.46z"/>
   <path class="fil6" d="M69.87 120.51c0,0.71 -0.57,1.28 -1.28,1.28 -0.71,0 -1.28,-0.57 -1.28,-1.28 0,-0.71 0.57,-1.28 1.28,-1.28 0.71,0 1.28,0.57 1.28,1.28z"/>
   <path class="fil6" d="M66.25 119.42c0,0.71 -0.57,1.28 -1.28,1.28 -0.71,0 -1.28,-0.57 -1.28,-1.28 0,-0.71 0.57,-1.28 1.28,-1.28 0.71,0 1.28,0.57 1.28,1.28z"/>
   <path class="fil6" d="M62.62 118.33c0,0.71 -0.57,1.28 -1.28,1.28 -0.71,0 -1.28,-0.57 -1.28,-1.28 0,-0.71 0.57,-1.28 1.28,-1.28 0.71,0 1.28,0.57 1.28,1.28z"/>
   <polygon class="fil12" points="125.54,49.12 123.38,53.74 123.01,52.26 "/>
   <path class="fil12" d="M129.71 49.12l0.89 4.35 -2.46 4.29 -2.33 0c0,0 2.14,2.46 2.84,5.05 0.69,2.59 -0.06,10.53 -0.06,10.53l2.12 -9.66 -1.49 -5.92 3.01 -4.79 -2.5 -3.85z"/>
   <line class="fil14 str1" x1="139.59" y1="17.33" x2="143.31" y2= "17.33" />
   <line class="fil14 str1" x1="139.59" y1="20.53" x2="142.82" y2= "20.53" />
   <path class="fil4" d="M127.56 96.02c0,0.68 -0.55,1.23 -1.23,1.23 -0.68,0 -1.23,-0.55 -1.23,-1.23 0,-0.68 0.55,-1.23 1.23,-1.23 0.68,0 1.23,0.55 1.23,1.23z"/>
   <path class="fil4" d="M127.56 108.38c0,0.68 -0.55,1.23 -1.23,1.23 -0.68,0 -1.23,-0.55 -1.23,-1.23 0,-0.68 0.55,-1.23 1.23,-1.23 0.68,0 1.23,0.55 1.23,1.23z"/>
   <polygon class="fil2" points="129.71,49.12 141.18,37.77 141.9,41.81 133.35,54.71 "/>
   <path class="fil16" d="M115.81 267.43c2.6,0 9.62,-1.94 10.67,-2.52 0.62,-0.34 1.82,-0.82 2.24,-1.56 0.07,-0.12 0.21,-0.27 0.3,-0.45 0.2,1.09 0.1,1.37 0.45,1.57 0.18,0.1 3.65,-0.48 4.33,-0.62 0.91,-0.19 2.37,-0.42 3.16,-0.88 0.38,-0.23 0.34,-0.38 0.34,-0.81 0,-0.49 0.13,-1.51 0.03,-2.05 -1.18,1.04 -4.4,0.53 -5.84,0.54 -2.84,0.03 -5.5,1.56 -8.24,2.24 -2.91,0.73 -5.73,1.35 -8.74,1.35 -1.42,-0 -2.81,-0.26 -4.22,-0.19 -0.41,0.02 -0.97,-0.12 -1.37,0 -0.56,0.17 -0.42,0.38 -0.45,0.98 -0.02,0.4 0.04,1 0.38,1.29 1.79,1.6 6.97,1.11 6.97,1.11z"/>
   <path class="fil4" d="M122.25 254.48c-0.64,0.39 -0.93,1.74 -1.58,2.33 -0.85,0.76 -1.98,1.19 -2.98,1.71 -2.31,1.18 -4.87,2.13 -7.22,3.13 -0.88,0.37 -2.28,0.84 -1.88,2.93 0.19,1.02 1.94,1.26 2.6,1.43 2.16,0.54 8.89,-0.51 10.02,-0.63 1.07,-0.11 3.37,-1.19 4.36,-1.45 1.62,-0.43 2.87,-1.17 3.81,-2.6 0.02,0.21 0.17,1.44 0.16,1.67 0.06,0.48 0.21,0.76 0.92,0.59 1.77,-0.4 5.98,-1.4 6.84,-1.6 0,0 0.13,-2.08 -0.15,-3.51 -0.11,-0.54 -0.34,-1.41 -0.39,-1.95 -0.06,-0.67 -0.68,-0.52 -1.3,-0.73 -0.66,-0.22 -1.38,-0.01 -2.07,-0.11 -0.81,-0.13 -1.6,-0.52 -2.42,-0.67 -1.2,-0.23 -2.36,-0.11 -3.58,-0.05 -1.01,0.05 -1.87,0.01 -2.86,-0.14 -0.61,-0.1 -1.94,-0.77 -2.41,-0.25l0.13 -0.07z"/>
   <path class="fil16" d="M147.76 276.61c1.04,-0.1 3.13,-0.92 3.98,-1.42 1.15,-0.66 2.39,-1.34 3.32,-2.28 0.7,-0.7 1.16,-1.58 1.76,-2.35 0.08,-0.1 0.39,-0.64 0.52,-0.58 0.27,0.12 0.32,0.74 0.57,0.57 0.58,-0.39 3.45,-2.27 3.78,-2.83 0.43,-0.7 0.07,-2.65 -0.11,-3.42 -1.4,0.09 -3.31,2.11 -4.27,3 -1.17,1.08 -2.26,2.27 -3.62,3.12 -1.37,0.85 -2.88,1.5 -4.3,2.26 -1.91,1.02 -4.94,1.94 -7.09,1.2 -0.92,-0.32 -1.76,-0.67 -2.58,-1.14 -0.22,-0.13 -0.03,-0.31 -0.3,-0.31l-0.54 0.36c-0.61,1.98 1.08,3.81 2.97,4.02l5.92 -0.2z"/>
   <path class="fil4" d="M148.15 262.29c-0.67,0.54 -0.96,1.83 -1.41,2.56 -0.6,0.97 -1.44,1.71 -2.18,2.56 -0.86,1 -1.49,1.98 -2.59,2.75 -0.46,0.32 -0.81,0.71 -1.24,1.04 -0.41,0.32 -1.17,0.78 -1.53,1.14 -0.78,0.8 -0.49,1.82 0.49,2.32 0.99,0.51 2.03,0.57 3.12,0.62 1.39,0.07 2.73,-0.17 4.1,-0.1 1.12,0.06 2.29,0.19 3.32,-0.26 1.28,-0.56 2.55,-1.59 3.58,-2.55 1.03,-0.96 1.77,-2.09 2.93,-2.98 0.94,-0.72 1.78,-1.6 2.86,-2.15 0.58,-0.29 0.88,-0.42 1.09,-1.12 0.13,-0.44 0.29,-1.05 0.33,-1.48 -0.87,-0.31 -1.9,-0.14 -2.8,-0.46 -0.83,-0.3 -1.39,-0.91 -2.12,-1.36 -0.68,-0.42 -1.49,-0.64 -2.23,-0.92 -1.81,-0.68 -4.16,-0.88 -6.11,-0.77 -0.14,0.48 0.4,0.79 0.25,1.23l0.13 -0.06z"/>
   <path class="fil5" d="M118.52 181.78c1.49,7.14 1.36,14.6 1.52,21.62 0.09,3.87 0.39,6.29 0.38,10.41 -0.01,4.15 0.87,8.75 0.87,12.9 0,4.18 -0.2,7.14 -0.2,11.32 0,3.6 -1.48,8.11 -0.68,11.54 -0.1,2.03 1.51,4.31 2.03,5.3 0.64,1.23 2.57,1.28 3.93,1.57 3.91,0.85 6.47,1.31 10.8,2.02 0.23,-1.75 0.11,-1.96 0.26,-3.32 0.07,-0.57 -0.49,-2.11 -0.39,-3.02 0.09,-0.81 0.55,-1.23 0.58,-1.69 0.07,-1.16 2.08,-5.17 2.03,-6.38 -0.05,-1.21 -0.98,-1.76 -1.18,-3.23 -0.25,-1.91 0.18,-4.87 -0.39,-7.62 -0.87,-4.22 -0.06,-10.26 -0.06,-14.67 0,-4.2 -0.66,-11.63 -2.11,-15.37 -2.31,-5.98 -3.32,-6.86 -2.97,-14.01 0.12,-2.4 0.32,-4.88 0.45,-7.37l-14.86 0zm19.68 0c0.9,3.9 1.72,7.57 2.34,10.49 0.82,3.83 1.98,7.99 2.35,11.71 0.39,4.04 -0.63,2.7 0.13,6.65 0.77,4.04 0.91,9.85 1.37,14.06 0.48,4.39 -0.02,6.51 0.19,11.13 0.21,4.48 1.35,8.98 1.37,13.57 0.01,1.55 2.03,5.82 1.91,7.01 -0.14,1.26 -0.38,1.86 0.21,2.91 0.2,0.37 -0.96,2.5 -0.58,2.86 0.37,0.36 3.08,-0.25 3.66,0.1 1.49,0.91 2.89,0.87 4.58,1.32 1.72,0.45 4.16,1.5 5.48,0.69 1.32,-1.82 0.21,-3.08 0.73,-5.14 0.47,-1.88 0.1,-4.9 0,-6.83 -0.21,-4.27 -0.3,-8.46 -0.1,-12.79 0.21,-4.41 -0.01,-6.29 -0.39,-10.74 -0.37,-4.25 -1.61,-9.38 -2.05,-13.47 -0.26,-2.38 -0.14,-3.22 -1.08,-5.47 -0.74,-1.78 -1.96,-4.13 -2.15,-6.05 -0.41,-4.25 -0.39,-6.51 -0.39,-10.74 0,-3.38 -0.04,-7.25 -0.09,-11.27l-17.48 0z"/>
   <path class="fil5" d="M131.07 181.78c-0.28,2.34 -0.1,4.79 -0.1,7.14 0,2.14 0.5,4.11 0.71,6.16 0.16,1.62 0.32,3.29 0.68,4.9 0.25,1.09 0.36,3.31 1.13,4.09 0.17,-2.25 -0.27,-4.54 -0.27,-6.82 0,-2.75 -0.17,-5.47 -0.2,-8.2 -0.03,-2.97 0.11,-4.95 0.33,-7.27l-2.28 0z"/>
   <path class="fil5" d="M133.31 204.37c-0.63,1.98 -3.46,4.47 -5.43,4.98 2.18,-0.11 3.71,-0.87 5.52,-1.94 -0.53,0.91 -1.12,1.92 -1.95,2.33 0.83,-0.03 3.02,0.22 2.87,1.17 -0.17,1.09 -2.25,1.33 -3.06,1.57 0.64,0.38 2.66,0.52 3.52,0.33 -1.03,0.63 -1.89,2.29 -3.18,2.3 1.27,0.13 2.25,-0.1 3.4,-0.52 0.79,-0.29 1.37,0.93 1.31,-0.07 -0.04,-0.64 -0.34,-2.23 -0.5,-2.85 -0.31,-1.2 -0.45,-2.74 -0.98,-3.87 -0.53,-1.12 -0.75,-2.65 -1.2,-3.51l-0.3 0.1z"/>
   <path class="fil5" d="M135.29 223.9c-0.08,1.61 -0.02,3.26 -0.02,4.88 0,3.38 -0.65,6.61 -0.49,9.95 0.18,3.8 0.65,7.9 1.35,11.61 -1.71,-0.88 -3.43,-0.94 -5.33,-0.97 1.96,0.67 5.04,2.01 5.52,4.28 -1.76,0.63 -3.03,-0.85 -4.64,-1.06 2.23,0.64 4.02,3.06 4.91,5.09 -2.19,0.17 -4.4,-1.97 -5.94,-3.24 -1.39,-1.14 -5.3,-0.4 -6.02,-2.13 1.14,-0.19 3.03,0.31 4.08,0.55 -1.07,-0.14 -3.09,-1.14 -3.57,-2.21 0.86,-0.12 1.77,0.31 2.67,0.28 -3.65,0.51 -4.46,-7.94 -4.38,-10.24 -0.67,0.48 -0.61,8.63 -1.13,10.34 -0.44,1.45 -1.05,3.52 -0.74,3.87 1.18,1.37 3.96,2.23 5.7,2.31 3.43,0.16 6.42,1.32 9.87,1.63 0.63,0.06 0.61,-2.22 0.67,-2.86 0.13,-1.37 -0.37,-3.16 -0.13,-4.93 0.13,-0.96 0.39,-0.89 0.72,-1.67 0.33,-0.77 0.37,-1.54 0.24,-2.27 -0.32,-1.85 -1.12,-3.85 -1.12,-5.73 0,-3.68 -0.81,-7.06 -0.49,-10.65 0.25,-2.79 -0.41,-13.72 -0.63,-15.59 -0.15,0.62 -0.72,2.43 -0.74,2.51l-0.37 6.25z"/>
   <path class="fil5" d="M147.57 235.51c-0.25,2.32 0.43,4.2 0.88,6.44 0.3,1.47 1.31,3.75 1.45,5.3 0.28,3.23 -1.52,6.52 -0.2,9.53 0.42,0.97 1.34,2.25 2.44,2.44 -0.84,0 -1.51,-0.09 -2.3,-0.28 -0.16,1.17 1.42,1.87 2.39,1.94 -0.69,0.29 -2.06,0.18 -2.77,-0.1 1.19,0.34 2.21,1.04 3.41,1.35 1.13,0.29 2.19,0.56 3.3,0.88 1.05,0.31 2.19,0.76 3.31,0.81 0.8,0.03 0.94,0.08 0.6,-0.69 -0.5,-1.14 -2.15,-1.95 -3.09,-2.64 1.01,0.47 2.78,1.01 3.85,0.58 0.15,-0.92 -0.33,-1.75 -0.45,-2.62 -0.11,-0.8 0.07,-1.71 0.17,-2.51 0.21,-1.75 0.67,-3.4 0.69,-5.2 0.05,-4.47 -0.31,-8.56 -1.35,-12.88 -1.21,-5.05 0.69,-10.61 -0.53,-15.63 -0.37,-1.53 -1.27,-2.62 -2.62,-3.29 -1.78,-0.88 -3.44,-1.99 -5.04,-3.15 2.11,0.46 3.8,1.05 6.01,0.77 -0.09,-0.95 -0.31,-1.94 -0.25,-2.91 0.02,-0.4 0.49,-1.67 0.18,-2.06 -0.65,-0.8 -1.86,1.82 -3.81,2.02 0.91,-0.68 1.17,-2.4 1.93,-3.75 -1.69,0.27 -3.41,1.68 -5.22,1.53 1.41,-1.06 2.83,-2.12 4.16,-3.3 0.63,-0.56 0.81,-1.35 1.74,-1.49 1,-0.14 1.24,0.67 1.56,1.58 0.59,1.68 1.26,3.39 1.71,5.1 0.7,2.72 0.78,5.53 1.15,8.28 0.27,1.96 0.97,3.87 1.07,5.85 0.11,2.22 0.03,4.47 0.1,6.66 0.14,4.19 0.77,8.34 0.78,12.59 0.01,2.27 -0.48,4.54 -0.39,6.81 0.08,1.97 0,3.92 -0.1,5.86 -0.09,1.79 0.33,3.51 -0.22,5.25 -0.14,0.43 -1.89,1.51 -2.13,1.49 -0.54,-0.05 -1.02,0.13 -1.56,0.09 -2.03,-0.11 -4.11,-1.61 -5.93,-2.44 -0.91,-0.42 -1.82,-0.62 -2.78,-0.9 -0.57,-0.16 -1.98,-0.27 -2.32,-0.43 -0.27,-0.13 -0.04,-2.07 0,-2.77 0.04,-0.9 0.03,-1.86 -0.1,-2.73 -0.24,-1.6 0.07,-3.29 0.39,-4.88 0.6,-2.92 -0.39,-16.59 -0.2,-16.49l0.1 0z"/>
   <path class="fil16" d="M74.86 271.72c-2.6,0 -9.62,-1.94 -10.67,-2.52 -0.62,-0.34 -1.82,-0.82 -2.24,-1.56 -0.07,-0.12 -0.21,-0.27 -0.3,-0.45 -0.2,1.09 -0.1,1.37 -0.45,1.57 -0.18,0.1 -3.65,-0.48 -4.33,-0.62 -0.91,-0.19 -2.37,-0.42 -3.16,-0.88 -0.38,-0.23 -0.34,-0.38 -0.34,-0.81 0,-0.49 -0.13,-1.51 -0.03,-2.05 1.18,1.04 4.4,0.53 5.84,0.54 2.84,0.03 5.5,1.56 8.24,2.24 2.91,0.73 5.73,1.35 8.74,1.35 1.42,-0 2.81,-0.26 4.22,-0.19 0.41,0.02 0.97,-0.12 1.37,0 0.56,0.17 0.42,0.38 0.45,0.98 0.02,0.4 -0.04,1 -0.38,1.29 -1.79,1.6 -6.97,1.11 -6.97,1.11z"/>
   <path class="fil5" d="M68.41 258.77c0.64,0.39 0.93,1.74 1.58,2.33 0.85,0.76 1.98,1.19 2.98,1.71 2.31,1.18 4.87,2.13 7.22,3.13 0.88,0.37 2.28,0.84 1.88,2.93 -0.19,1.02 -1.94,1.26 -2.6,1.43 -2.16,0.54 -8.89,-0.51 -10.02,-0.63 -1.07,-0.11 -3.37,-1.19 -4.36,-1.45 -1.62,-0.43 -2.87,-1.17 -3.81,-2.6 -0.02,0.21 -0.17,1.44 -0.16,1.67 -0.06,0.48 -0.21,0.76 -0.92,0.59 -1.77,-0.4 -5.98,-1.4 -6.84,-1.6 0,0 -0.13,-2.08 0.15,-3.51 0.11,-0.54 0.34,-1.41 0.39,-1.95 0.06,-0.67 0.68,-0.52 1.3,-0.73 0.66,-0.22 1.38,-0.01 2.07,-0.11 0.81,-0.13 1.6,-0.52 2.42,-0.67 1.2,-0.23 2.36,-0.11 3.58,-0.05 1.01,0.05 1.87,0.01 2.86,-0.14 0.61,-0.1 1.94,-0.77 2.41,-0.25l-0.13 -0.07z"/>
   <path class="fil16" d="M42.9 280.9c-1.04,-0.1 -3.13,-0.92 -3.98,-1.42 -1.15,-0.66 -2.39,-1.34 -3.32,-2.28 -0.7,-0.7 -1.16,-1.58 -1.76,-2.36 -0.08,-0.1 -0.39,-0.64 -0.52,-0.58 -0.27,0.12 -0.32,0.74 -0.57,0.57 -0.58,-0.39 -3.45,-2.27 -3.78,-2.83 -0.43,-0.7 -0.07,-2.65 0.11,-3.42 1.4,0.09 3.31,2.11 4.27,3 1.17,1.08 2.26,2.27 3.62,3.12 1.37,0.85 2.88,1.5 4.3,2.26 1.91,1.02 4.94,1.94 7.09,1.2 0.92,-0.32 1.76,-0.67 2.58,-1.14 0.22,-0.13 0.03,-0.31 0.3,-0.31l0.54 0.36c0.61,1.98 -1.08,3.81 -2.97,4.02l-5.92 -0.2z"/>
   <path class="fil5" d="M42.51 266.58c0.67,0.54 0.96,1.83 1.41,2.56 0.6,0.97 1.44,1.71 2.18,2.56 0.86,1 1.49,1.98 2.59,2.75 0.46,0.32 0.81,0.71 1.24,1.04 0.41,0.32 1.17,0.78 1.53,1.14 0.78,0.8 0.49,1.82 -0.49,2.32 -0.99,0.51 -2.03,0.57 -3.12,0.62 -1.39,0.07 -2.73,-0.17 -4.1,-0.1 -1.12,0.06 -2.29,0.19 -3.32,-0.26 -1.28,-0.56 -2.55,-1.59 -3.58,-2.55 -1.03,-0.96 -1.77,-2.09 -2.93,-2.98 -0.94,-0.72 -1.78,-1.6 -2.86,-2.15 -0.58,-0.29 -0.88,-0.42 -1.09,-1.12 -0.13,-0.44 -0.29,-1.05 -0.33,-1.48 0.87,-0.31 1.9,-0.14 2.8,-0.46 0.83,-0.3 1.39,-0.91 2.12,-1.36 0.68,-0.42 1.49,-0.64 2.23,-0.92 1.81,-0.68 4.16,-0.88 6.11,-0.77 0.14,0.48 -0.4,0.79 -0.25,1.23l-0.13 -0.06z"/>
   <path class="fil9" d="M72.15 186.07c-1.49,7.14 -1.36,14.6 -1.52,21.62 -0.09,3.87 -0.39,6.29 -0.38,10.41 0.01,4.15 -0.87,8.75 -0.87,12.9 0,4.18 0.2,7.14 0.2,11.32 0,3.6 1.48,8.11 0.68,11.54 0.1,2.03 -1.51,4.31 -2.03,5.3 -0.64,1.23 -2.57,1.28 -3.93,1.57 -3.91,0.85 -6.47,1.31 -10.8,2.02 -0.23,-1.75 -0.11,-1.96 -0.26,-3.32 -0.07,-0.57 0.49,-2.11 0.39,-3.02 -0.09,-0.81 -0.55,-1.23 -0.58,-1.69 -0.07,-1.16 -2.08,-5.17 -2.03,-6.38 0.05,-1.22 0.98,-1.76 1.18,-3.23 0.25,-1.91 -0.18,-4.87 0.39,-7.62 0.87,-4.22 0.06,-10.26 0.06,-14.67 0,-4.2 0.66,-11.63 2.11,-15.37 2.31,-5.98 3.32,-6.86 2.97,-14.01 -0.12,-2.4 -0.32,-4.88 -0.45,-7.37l14.86 0zm-19.68 0c-0.9,3.9 -1.72,7.57 -2.34,10.49 -0.82,3.83 -1.98,7.99 -2.35,11.71 -0.39,4.04 0.63,2.7 -0.13,6.65 -0.77,4.04 -0.91,9.85 -1.37,14.06 -0.48,4.39 0.02,6.51 -0.19,11.13 -0.21,4.48 -1.35,8.98 -1.37,13.57 -0.01,1.55 -2.03,5.82 -1.91,7.01 0.14,1.26 0.38,1.86 -0.21,2.91 -0.2,0.37 0.96,2.5 0.58,2.86 -0.37,0.36 -3.08,-0.25 -3.66,0.1 -1.49,0.91 -2.89,0.87 -4.58,1.32 -1.72,0.45 -4.16,1.51 -5.48,0.69 -1.32,-1.82 -0.21,-3.08 -0.73,-5.14 -0.47,-1.88 -0.1,-4.9 0,-6.83 0.21,-4.27 0.3,-8.46 0.1,-12.79 -0.21,-4.41 0.01,-6.29 0.39,-10.74 0.37,-4.25 1.61,-9.38 2.05,-13.47 0.26,-2.38 0.14,-3.22 1.08,-5.47 0.74,-1.78 1.96,-4.13 2.15,-6.05 0.41,-4.25 0.39,-6.51 0.39,-10.74 0,-3.38 0.04,-7.25 0.09,-11.27l17.48 0z"/>
   <path class="fil9" d="M59.59 186.07c0.28,2.34 0.1,4.79 0.1,7.14 0,2.14 -0.5,4.11 -0.71,6.16 -0.16,1.62 -0.32,3.29 -0.68,4.9 -0.25,1.09 -0.36,3.31 -1.13,4.09 -0.17,-2.25 0.27,-4.54 0.27,-6.82 0,-2.75 0.17,-5.47 0.2,-8.2 0.03,-2.97 -0.11,-4.95 -0.33,-7.27l2.28 0zm-9.04 0c-0.79,2.88 -1.54,5.79 -2.25,8.73 -0.56,2.34 -2.83,14.83 -6.77,13.7 -2.63,-0.76 -1.82,-3.83 -1.82,-5.89 -0,-3.25 0.43,-6.29 0.92,-9.5 0.35,-2.37 0.6,-4.71 0.83,-7.04l9.09 0zm-13.55 0c-0,0.18 -0.01,0.36 -0.02,0.53 -0.1,2.44 -0.77,4.79 -0.65,7.29 0.06,1.28 0.47,2.47 0.4,3.8 -0.07,1.41 -0.33,2.86 -0.4,4.27 -0.09,1.87 0.53,3.7 0.26,5.59 -0.12,0.82 -0.53,1.51 -0.66,2.34 -0.13,0.85 0.13,1.65 0.11,2.45 -1.03,0.07 -1.72,-0.74 -2.56,-1.17 -0.2,-2.21 0.5,-4.37 0.5,-6.62 0,-2.35 0.53,-4.38 0.78,-6.64 0.25,-2.28 -0.34,-4.58 -0.13,-6.9 0.15,-1.65 0.3,-3.28 0.36,-4.96l2 0zm18.38 42.12c0.08,1.61 0.02,3.26 0.02,4.88 0,3.38 0.65,6.61 0.49,9.95 -0.18,3.8 -0.65,7.9 -1.35,11.61 1.71,-0.88 3.43,-0.94 5.33,-0.97 -1.96,0.67 -5.04,2.01 -5.52,4.28 1.76,0.63 3.03,-0.85 4.64,-1.06 -2.23,0.64 -4.02,3.06 -4.91,5.09 2.19,0.17 4.4,-1.97 5.94,-3.24 1.39,-1.14 5.3,-0.4 6.02,-2.13 -1.14,-0.19 -3.03,0.31 -4.08,0.55 1.07,-0.14 3.09,-1.14 3.57,-2.21 -0.86,-0.12 -1.77,0.31 -2.67,0.28 3.65,0.51 4.46,-7.94 4.38,-10.24 0.67,0.48 0.61,8.63 1.13,10.34 0.44,1.45 1.05,3.52 0.74,3.87 -1.18,1.37 -3.96,2.23 -5.7,2.31 -3.43,0.16 -6.42,1.32 -9.87,1.63 -0.63,0.06 -0.61,-2.22 -0.67,-2.86 -0.13,-1.36 0.37,-3.16 0.13,-4.93 -0.13,-0.96 -0.39,-0.89 -0.72,-1.67 -0.33,-0.77 -0.37,-1.54 -0.24,-2.27 0.32,-1.85 1.12,-3.85 1.12,-5.73 0,-3.68 0.81,-7.06 0.49,-10.65 -0.25,-2.79 0.41,-13.72 0.63,-15.59 0.15,0.62 0.72,2.43 0.74,2.51l0.37 6.25zm1.98 -19.52c0.63,1.98 3.46,4.47 5.43,4.98 -2.18,-0.11 -3.71,-0.87 -5.52,-1.94 0.53,0.91 1.12,1.92 1.95,2.33 -0.83,-0.03 -3.02,0.22 -2.87,1.17 0.17,1.09 2.25,1.33 3.06,1.57 -0.64,0.38 -2.66,0.52 -3.52,0.33 1.03,0.63 1.89,2.29 3.18,2.3 -1.27,0.13 -2.25,-0.1 -3.4,-0.52 -0.79,-0.29 -1.37,0.93 -1.31,-0.07 0.04,-0.64 0.34,-2.23 0.5,-2.85 0.31,-1.2 0.45,-2.74 0.98,-3.87 0.53,-1.12 0.75,-2.65 1.2,-3.51l0.3 0.1z"/>
   <path class="fil9" d="M43.1 239.81c0.25,2.32 -0.43,4.2 -0.88,6.44 -0.3,1.47 -1.31,3.75 -1.45,5.3 -0.28,3.23 1.52,6.52 0.2,9.53 -0.42,0.97 -1.34,2.25 -2.44,2.44 0.84,0 1.51,-0.09 2.3,-0.28 0.16,1.16 -1.42,1.87 -2.39,1.94 0.69,0.29 2.06,0.18 2.77,-0.1 -1.19,0.34 -2.21,1.04 -3.41,1.35 -1.13,0.29 -2.19,0.56 -3.3,0.88 -1.05,0.31 -2.19,0.76 -3.31,0.81 -0.8,0.03 -0.94,0.08 -0.6,-0.69 0.5,-1.14 2.15,-1.95 3.09,-2.64 -1.01,0.47 -2.78,1.01 -3.85,0.58 -0.15,-0.92 0.33,-1.75 0.45,-2.62 0.11,-0.8 -0.07,-1.71 -0.17,-2.51 -0.21,-1.75 -0.67,-3.4 -0.69,-5.2 -0.05,-4.47 0.31,-8.56 1.35,-12.88 1.21,-5.05 -0.69,-10.61 0.53,-15.62 0.37,-1.53 1.27,-2.62 2.62,-3.29 1.78,-0.88 3.44,-1.99 5.04,-3.15 -2.11,0.46 -3.8,1.05 -6.01,0.77 0.09,-0.95 0.31,-1.94 0.25,-2.91 -0.02,-0.4 -0.49,-1.67 -0.18,-2.06 0.65,-0.8 1.86,1.82 3.81,2.02 -0.91,-0.68 -1.17,-2.4 -1.93,-3.75 1.69,0.27 3.41,1.68 5.22,1.53 -1.41,-1.06 -2.83,-2.12 -4.16,-3.3 -0.63,-0.56 -0.81,-1.35 -1.74,-1.49 -1,-0.14 -1.24,0.67 -1.56,1.58 -0.59,1.68 -1.26,3.39 -1.71,5.1 -0.7,2.72 -0.78,5.53 -1.15,8.28 -0.27,1.96 -0.97,3.87 -1.07,5.85 -0.11,2.22 -0.03,4.47 -0.1,6.66 -0.14,4.19 -0.77,8.34 -0.78,12.59 -0.01,2.27 0.48,4.54 0.39,6.81 -0.08,1.97 0,3.92 0.1,5.86 0.09,1.79 -0.33,3.51 0.22,5.25 0.14,0.43 1.89,1.51 2.13,1.49 0.54,-0.05 1.02,0.13 1.56,0.09 2.03,-0.11 4.11,-1.61 5.93,-2.44 0.91,-0.42 1.82,-0.62 2.78,-0.9 0.57,-0.16 1.98,-0.27 2.32,-0.43 0.27,-0.13 0.04,-2.07 0,-2.77 -0.04,-0.9 -0.03,-1.86 0.1,-2.73 0.24,-1.6 -0.07,-3.29 -0.39,-4.88 -0.6,-2.92 0.39,-16.59 0.2,-16.49l-0.1 0z"/>
   <path class="fil5" d="M153.67 181.78c0,0.18 0.01,0.36 0.02,0.53 0.1,2.44 0.77,4.79 0.65,7.29 -0.06,1.28 -0.47,2.47 -0.4,3.8 0.07,1.41 0.33,2.86 0.4,4.27 0.09,1.87 -0.53,3.7 -0.26,5.59 0.12,0.82 0.53,1.51 0.66,2.34 0.13,0.85 -0.13,1.65 -0.11,2.45 1.03,0.07 1.72,-0.74 2.56,-1.17 0.2,-2.21 -0.5,-4.37 -0.5,-6.62 0,-2.35 -0.53,-4.38 -0.78,-6.64 -0.25,-2.28 0.34,-4.58 0.13,-6.9 -0.15,-1.65 -0.3,-3.28 -0.36,-4.96l-2 0z"/>
   <path class="fil5" d="M140.11 181.78c0.79,2.88 1.54,5.79 2.25,8.73 0.56,2.34 2.83,14.83 6.77,13.7 2.63,-0.75 1.82,-3.83 1.82,-5.89 0,-3.25 -0.43,-6.29 -0.92,-9.5 -0.35,-2.37 -0.6,-4.71 -0.83,-7.04l-9.09 0z"/>
  </g>
 </g>
</svg>
